<?xml version="1.0" encoding="utf-8"?>
<svg version="1.1" xmlns="http://www.w3.org/2000/svg" xmlns:xlink="http://www.w3.org/1999/xlink" viewBox="0 0 160 160">
<g>
	<circle fill="none" cx="79.892" cy="80.265" r="46.839"/>
	<path d="M90.638,36.587c0.006,0.041,0.001,0.064-0.016,0.069c-0.36,0.042-0.684,0.042-0.969,0.001
		c-0.57-0.084-1.14-0.357-1.705-0.823c-0.566-0.464-1.024-1.061-1.374-1.789l-0.093-0.013c-0.718-0.104-1.331-0.366-1.841-0.783
		c-0.51-0.417-0.875-0.935-1.097-1.553c-0.221-0.619-0.281-1.268-0.183-1.947c0.116-0.793,0.416-1.444,0.899-1.953
		c0.483-0.508,1.061-0.859,1.73-1.053c0.67-0.193,1.333-0.242,1.988-0.147c0.732,0.107,1.352,0.373,1.856,0.796
		c0.505,0.424,0.864,0.94,1.079,1.546c0.215,0.606,0.276,1.226,0.185,1.857c-0.081,0.548-0.271,1.05-0.574,1.505
		c-0.303,0.457-0.685,0.83-1.145,1.121c-0.459,0.291-0.964,0.486-1.515,0.587c0.22,0.654,0.549,1.216,0.988,1.686
		s0.883,0.738,1.33,0.802c0.131,0.02,0.267,0.032,0.408,0.037C90.617,36.529,90.632,36.547,90.638,36.587z M84.734,31.558
		c0.156,0.628,0.423,1.143,0.803,1.541c0.379,0.397,0.838,0.635,1.378,0.714c0.462,0.067,0.895,0.002,1.298-0.196
		c0.402-0.197,0.745-0.521,1.028-0.977s0.474-1.018,0.571-1.688c0.104-0.709,0.079-1.362-0.074-1.959
		c-0.153-0.598-0.424-1.086-0.814-1.465c-0.389-0.38-0.876-0.612-1.462-0.698c-0.749-0.109-1.368,0.074-1.858,0.55
		c-0.491,0.476-0.806,1.188-0.943,2.136C84.553,30.248,84.577,30.928,84.734,31.558z"/>
	<path d="M100.04,30.156c0.049,0.05,0.076,0.09,0.082,0.121c0.007,0.031,0.002,0.093-0.013,0.187l-0.36,1.507
		c-0.008,0.021-0.031,0.03-0.071,0.025c-0.039-0.004-0.061-0.024-0.065-0.058c0.012-0.671-0.118-1.229-0.392-1.674
		c-0.273-0.446-0.69-0.764-1.252-0.952c-0.538-0.182-1.065-0.21-1.581-0.084c-0.516,0.127-0.977,0.402-1.383,0.83
		c-0.407,0.426-0.725,0.975-0.951,1.646c-0.224,0.665-0.298,1.299-0.223,1.905c0.075,0.605,0.282,1.125,0.62,1.56
		c0.339,0.435,0.781,0.745,1.328,0.929c0.538,0.182,1.034,0.191,1.489,0.027c0.453-0.164,0.922-0.509,1.404-1.038
		c0.015-0.02,0.039-0.02,0.074,0c0.033,0.021,0.049,0.038,0.044,0.052l-0.593,1.281c-0.037,0.086-0.069,0.136-0.095,0.153
		c-0.025,0.016-0.073,0.029-0.142,0.039c-0.758,0.049-1.509-0.053-2.255-0.304c-0.789-0.267-1.443-0.654-1.963-1.163
		s-0.861-1.092-1.025-1.752c-0.163-0.659-0.127-1.34,0.109-2.042c0.234-0.694,0.624-1.252,1.17-1.677
		c0.547-0.424,1.185-0.684,1.916-0.778c0.73-0.096,1.484-0.013,2.26,0.249C98.993,29.421,99.615,29.757,100.04,30.156z"/>
	<path d="M103.714,39.396c-0.009,0.126,0.047,0.253,0.166,0.38s0.332,0.282,0.64,0.467c0.02,0.013,0.018,0.038-0.007,0.078
		c-0.024,0.042-0.046,0.055-0.066,0.042c-0.273-0.166-0.485-0.297-0.634-0.396l-0.865-0.536l-0.727-0.424
		c-0.13-0.07-0.306-0.172-0.525-0.304c-0.021-0.012-0.018-0.038,0.006-0.078c0.024-0.041,0.046-0.055,0.066-0.042
		c0.227,0.138,0.4,0.219,0.521,0.246c0.12,0.027,0.227,0.005,0.319-0.066c0.094-0.071,0.203-0.21,0.327-0.417l2.797-4.633
		c0.121-0.201,0.191-0.358,0.211-0.473c0.02-0.116-0.012-0.224-0.093-0.322c-0.081-0.1-0.231-0.215-0.451-0.349
		c-0.021-0.012-0.019-0.038,0.006-0.078c0.023-0.04,0.046-0.053,0.066-0.042l0.514,0.324c0.286,0.191,0.519,0.34,0.698,0.45
		c0.154,0.092,0.347,0.194,0.579,0.308c0.083,0.042,0.195,0.1,0.337,0.176c0.141,0.077,0.305,0.171,0.491,0.283
		c0.66,0.399,1.098,0.854,1.313,1.365c0.214,0.511,0.146,1.059-0.204,1.639c-0.254,0.42-0.578,0.711-0.972,0.874
		c-0.395,0.163-0.804,0.216-1.229,0.159c-0.425-0.057-0.814-0.191-1.168-0.404c-0.188-0.113-0.334-0.225-0.44-0.333
		c-0.02-0.013-0.02-0.036,0.001-0.069c0.012-0.02,0.028-0.037,0.051-0.051c0.022-0.014,0.037-0.013,0.047,0.001
		c0.091,0.092,0.199,0.175,0.326,0.251c0.347,0.21,0.728,0.244,1.141,0.102s0.781-0.479,1.103-1.014
		c0.318-0.526,0.442-1.01,0.37-1.449c-0.071-0.438-0.324-0.789-0.758-1.051c-0.16-0.096-0.292-0.152-0.396-0.169
		s-0.199,0.009-0.287,0.079s-0.189,0.201-0.307,0.395l-2.761,4.573C103.79,39.1,103.722,39.27,103.714,39.396z"/>
	<path d="M112.522,44.039c0.019,0.015,0.031,0.033,0.039,0.054c0.008,0.021,0.01,0.035,0.004,0.041
		c-0.434,0.412-0.805,0.807-1.114,1.188c-0.039,0.049-0.076,0.076-0.111,0.083s-0.08-0.012-0.135-0.058l-3.939-3.195
		c-0.019-0.014-0.013-0.04,0.017-0.076s0.054-0.047,0.071-0.033c0.206,0.167,0.368,0.273,0.486,0.319
		c0.118,0.046,0.229,0.038,0.334-0.022c0.104-0.062,0.23-0.182,0.378-0.364l3.409-4.203c0.146-0.182,0.238-0.328,0.273-0.44
		c0.035-0.111,0.018-0.224-0.052-0.335c-0.069-0.112-0.204-0.249-0.404-0.41c-0.019-0.015-0.013-0.041,0.017-0.078
		c0.03-0.036,0.054-0.046,0.071-0.032l3.776,3.063c0.061,0.049,0.069,0.101,0.025,0.156l-0.939,1.193
		c-0.01,0.013-0.034,0.008-0.072-0.013c-0.037-0.02-0.053-0.042-0.044-0.065c0.414-0.809,0.273-1.495-0.423-2.058l-0.362-0.294
		c-0.218-0.177-0.405-0.263-0.559-0.258c-0.155,0.005-0.309,0.101-0.461,0.289l-1.502,1.851l0.872,0.707
		c0.666,0.541,1.18,0.586,1.543,0.139c0.015-0.018,0.039-0.014,0.072,0.013c0.033,0.027,0.043,0.049,0.027,0.068l-0.649,0.782
		l-0.337,0.434c-0.145,0.204-0.267,0.367-0.364,0.487c-0.01,0.012-0.033,0.003-0.069-0.026c-0.037-0.03-0.05-0.051-0.04-0.063
		c0.422-0.521,0.294-1.056-0.384-1.605l-0.862-0.7l-1.671,2.061c-0.161,0.201-0.237,0.371-0.226,0.509
		c0.013,0.141,0.115,0.289,0.309,0.447l0.444,0.359c0.812,0.658,1.645,0.682,2.501,0.072
		C112.481,44.015,112.498,44.019,112.522,44.039z"/>
	<path d="M117.661,42.352c-0.423-0.03-0.908,0.095-1.456,0.375c-0.012,0.009-0.032-0.001-0.061-0.032
		c-0.028-0.032-0.035-0.055-0.018-0.071c0.245-0.182,0.558-0.421,0.938-0.716c0.38-0.294,0.658-0.523,0.837-0.687
		c0.028-0.026,0.058-0.023,0.087,0.008c0.028,0.032,0.028,0.062,0,0.088c-0.126,0.115-0.042,0.334,0.252,0.655
		c0.436,0.511,0.956,1.096,1.561,1.758c0.311,0.338,0.645,0.693,1.004,1.062l0.545,0.579c0.2,0.218,0.36,0.364,0.481,0.438
		c0.121,0.075,0.237,0.087,0.35,0.037c0.028-0.015,0.056-0.009,0.082,0.02s0.028,0.054,0.005,0.075
		c-0.193,0.146-0.479,0.375-0.857,0.689c-0.378,0.314-0.679,0.575-0.903,0.78c-0.017,0.015-0.04,0.007-0.069-0.024
		c-0.028-0.032-0.037-0.059-0.025-0.08c0.391-0.463,0.593-0.896,0.607-1.301c0.016-0.404-0.143-0.788-0.474-1.15
		c-0.147-0.161-0.271-0.268-0.371-0.318c-0.1-0.051-0.197-0.057-0.293-0.016c-0.096,0.039-0.221,0.129-0.376,0.271l-3.975,3.639
		c-0.178,0.163-0.291,0.299-0.34,0.407c-0.05,0.109-0.041,0.227,0.025,0.357c0.065,0.129,0.201,0.307,0.407,0.531
		c0.016,0.017,0.006,0.042-0.028,0.072c-0.035,0.031-0.061,0.039-0.075,0.022c-0.185-0.201-0.326-0.361-0.426-0.482l-0.639-0.714
		l-0.624-0.666c-0.116-0.115-0.272-0.279-0.467-0.492c-0.01-0.012,0.002-0.033,0.036-0.064c0.034-0.032,0.057-0.042,0.067-0.03
		c0.205,0.225,0.371,0.376,0.497,0.457c0.126,0.08,0.248,0.1,0.366,0.061c0.117-0.039,0.262-0.138,0.434-0.295l3.991-3.654
		c0.15-0.136,0.246-0.25,0.289-0.342c0.042-0.093,0.044-0.188,0.005-0.29c-0.04-0.1-0.131-0.229-0.273-0.384
		C118.457,42.571,118.084,42.381,117.661,42.352z"/>
	<path d="M124.295,52.919c-0.117,0.238-0.191,0.49-0.222,0.758c-0.031,0.268-0.05,0.617-0.057,1.046
		c-0.012,0.469-0.035,0.848-0.071,1.138c-0.037,0.289-0.127,0.569-0.269,0.839c-0.144,0.271-0.364,0.496-0.666,0.675
		c-0.342,0.204-0.7,0.296-1.073,0.279c-0.373-0.018-0.731-0.146-1.076-0.38c-0.344-0.234-0.639-0.56-0.886-0.975
		c-0.168-0.281-0.303-0.592-0.407-0.935c-0.104-0.342-0.147-0.622-0.132-0.84c0.004-0.083,0.048-0.155,0.131-0.213l1.491-0.969
		l0.01-0.006c0.026-0.016,0.052-0.008,0.075,0.023c0.022,0.032,0.023,0.059,0.001,0.082c-0.425,0.551-0.729,1.075-0.915,1.571
		c-0.186,0.495-0.146,0.964,0.116,1.406c0.172,0.288,0.394,0.481,0.666,0.583c0.273,0.101,0.595,0.042,0.963-0.178
		c0.294-0.174,0.513-0.394,0.656-0.656s0.231-0.533,0.265-0.811c0.034-0.278,0.061-0.646,0.08-1.102
		c0.017-0.444,0.042-0.8,0.079-1.067c0.036-0.267,0.121-0.526,0.257-0.778c0.135-0.252,0.344-0.462,0.625-0.631
		c0.349-0.207,0.7-0.285,1.057-0.234c0.357,0.051,0.687,0.197,0.989,0.438c0.302,0.241,0.555,0.532,0.759,0.874
		c0.135,0.228,0.248,0.468,0.341,0.722c0.091,0.253,0.15,0.477,0.175,0.671c0.02,0.125-0.015,0.213-0.101,0.264l-1.349,0.844
		c-0.02,0.012-0.044,0.001-0.073-0.031c-0.028-0.033-0.035-0.058-0.019-0.077c0.328-0.377,0.593-0.777,0.79-1.198
		c0.198-0.421,0.164-0.856-0.104-1.306c-0.18-0.301-0.409-0.489-0.688-0.562c-0.28-0.073-0.57-0.021-0.871,0.158
		C124.594,52.489,124.412,52.682,124.295,52.919z"/>
	<path d="M128.364,57.568c-0.388-0.172-0.887-0.221-1.496-0.146c-0.015,0.006-0.029-0.011-0.046-0.049
		c-0.017-0.04-0.014-0.064,0.008-0.073c0.292-0.089,0.667-0.206,1.125-0.353c0.457-0.148,0.798-0.268,1.021-0.36
		c0.035-0.015,0.062-0.002,0.078,0.037c0.017,0.04,0.007,0.068-0.029,0.082c-0.158,0.065-0.154,0.3,0.014,0.703
		c0.234,0.628,0.523,1.356,0.866,2.185c0.177,0.424,0.37,0.871,0.581,1.34l0.315,0.729c0.113,0.274,0.214,0.467,0.302,0.578
		c0.088,0.111,0.194,0.162,0.316,0.153c0.032-0.004,0.056,0.011,0.071,0.048c0.015,0.035,0.008,0.059-0.021,0.071
		c-0.231,0.072-0.579,0.189-1.041,0.355c-0.463,0.167-0.834,0.308-1.115,0.425c-0.021,0.009-0.041-0.007-0.058-0.047
		c-0.016-0.039-0.015-0.066,0.004-0.082c0.523-0.303,0.862-0.641,1.016-1.017c0.152-0.375,0.134-0.788-0.055-1.243
		c-0.083-0.201-0.163-0.342-0.239-0.425c-0.076-0.083-0.166-0.121-0.27-0.117c-0.104,0.006-0.252,0.048-0.446,0.129l-4.978,2.063
		c-0.224,0.092-0.376,0.182-0.459,0.266c-0.083,0.085-0.115,0.2-0.098,0.345c0.018,0.145,0.085,0.357,0.201,0.637
		c0.009,0.021-0.008,0.042-0.052,0.06c-0.043,0.019-0.069,0.017-0.078-0.005c-0.104-0.253-0.184-0.452-0.235-0.599l-0.355-0.89
		l-0.36-0.837c-0.07-0.148-0.16-0.355-0.271-0.622c-0.006-0.014,0.013-0.03,0.056-0.048c0.043-0.018,0.068-0.02,0.074-0.005
		c0.116,0.28,0.221,0.479,0.311,0.598c0.092,0.118,0.199,0.179,0.323,0.183c0.123,0.004,0.294-0.04,0.509-0.129l5-2.072
		c0.187-0.078,0.316-0.151,0.388-0.224c0.071-0.072,0.105-0.161,0.103-0.271c-0.003-0.107-0.044-0.26-0.125-0.454
		C129.037,58.046,128.752,57.74,128.364,57.568z"/>
	<path d="M132.73,70.537c0.18-0.229,0.23-0.511,0.154-0.846c-0.003-0.014,0.018-0.027,0.063-0.038
		c0.046-0.01,0.069-0.008,0.073,0.007l0.109,0.527c0.05,0.292,0.095,0.521,0.133,0.689c0.031,0.136,0.085,0.34,0.164,0.609
		l0.125,0.499c0.004,0.015-0.018,0.028-0.063,0.039c-0.046,0.011-0.07,0.008-0.073-0.007c-0.068-0.296-0.231-0.5-0.488-0.614
		c-0.258-0.113-0.584-0.124-0.979-0.034l-3.19,0.729c-0.548,0.125-1.051,0.118-1.51-0.021c-0.46-0.139-0.848-0.394-1.164-0.766
		c-0.316-0.37-0.539-0.833-0.665-1.388c-0.127-0.555-0.132-1.073-0.014-1.556c0.117-0.482,0.352-0.89,0.703-1.223
		c0.353-0.332,0.802-0.56,1.348-0.684l3.669-0.84c0.229-0.051,0.391-0.112,0.486-0.183c0.096-0.069,0.151-0.168,0.166-0.295
		c0.015-0.128-0.006-0.317-0.063-0.567c-0.006-0.023,0.015-0.04,0.061-0.05c0.046-0.011,0.07-0.004,0.076,0.018l0.124,0.596
		c0.061,0.337,0.115,0.609,0.162,0.813c0.052,0.229,0.124,0.506,0.216,0.838l0.142,0.568c0.005,0.023-0.016,0.039-0.062,0.049
		c-0.045,0.011-0.07,0.005-0.076-0.019c-0.057-0.25-0.122-0.432-0.195-0.542c-0.073-0.112-0.17-0.176-0.289-0.192
		c-0.12-0.017-0.294,0.001-0.521,0.053l-3.248,0.742c-0.903,0.208-1.535,0.549-1.893,1.026c-0.359,0.478-0.461,1.054-0.306,1.73
		c0.146,0.646,0.462,1.105,0.943,1.378c0.482,0.274,1.088,0.328,1.817,0.16l3.201-0.731
		C132.264,70.925,132.551,70.766,132.73,70.537z"/>
	<path d="M126.604,76.677c0.002-0.117,0.002-0.265,0.002-0.445c-0.002-0.18-0.008-0.382-0.019-0.607l-0.053-0.829
		c-0.016-0.147-0.029-0.353-0.043-0.618c0-0.016,0.022-0.024,0.069-0.026c0.047-0.002,0.07,0.003,0.071,0.02
		c0.013,0.265,0.042,0.457,0.087,0.576c0.044,0.118,0.125,0.198,0.24,0.239c0.114,0.042,0.289,0.057,0.522,0.045l5.404-0.268
		c0.233-0.011,0.404-0.042,0.511-0.09c0.106-0.047,0.179-0.136,0.216-0.262c0.036-0.127,0.049-0.318,0.035-0.575
		c0-0.016,0.022-0.024,0.069-0.027c0.047-0.002,0.07,0.004,0.071,0.02l0.019,0.619c0.002,0.343,0.008,0.616,0.017,0.819
		c0.017,0.312,0.044,0.625,0.083,0.943c0.034,0.389,0.055,0.649,0.062,0.781c0.039,0.794-0.082,1.506-0.362,2.135
		c-0.281,0.63-0.682,1.128-1.201,1.494c-0.521,0.365-1.115,0.564-1.785,0.598c-0.755,0.036-1.431-0.106-2.027-0.426
		c-0.598-0.323-1.068-0.771-1.412-1.348c-0.345-0.575-0.534-1.217-0.569-1.925C126.599,77.278,126.597,76.997,126.604,76.677z
		 M127.295,78.801c0.277,0.405,0.673,0.711,1.187,0.919c0.513,0.208,1.12,0.295,1.821,0.261c0.669-0.032,1.268-0.173,1.798-0.422
		c0.529-0.249,0.942-0.583,1.237-1.003c0.296-0.42,0.43-0.9,0.403-1.437c-0.017-0.327-0.049-0.579-0.096-0.756
		c-0.048-0.177-0.126-0.303-0.235-0.379s-0.272-0.11-0.491-0.099l-5.253,0.26c-0.318,0.017-0.542,0.109-0.67,0.279
		c-0.129,0.169-0.181,0.493-0.157,0.967C126.865,77.928,127.018,78.398,127.295,78.801z"/>
	<path d="M126.956,84.658c-0.112,0.031-0.191,0.105-0.24,0.223c-0.047,0.118-0.08,0.309-0.1,0.573
		c-0.002,0.023-0.026,0.033-0.073,0.03c-0.047-0.003-0.068-0.017-0.067-0.041c0.019-0.249,0.037-0.447,0.056-0.594l0.075-0.861
		l0.05-0.84c0.003-0.148,0.015-0.35,0.033-0.606c0.001-0.023,0.025-0.034,0.072-0.031c0.047,0.004,0.068,0.017,0.067,0.041
		c-0.02,0.264-0.015,0.458,0.016,0.581c0.03,0.124,0.1,0.212,0.209,0.267s0.28,0.091,0.514,0.108l5.397,0.397
		c0.232,0.017,0.405,0.007,0.518-0.032c0.112-0.038,0.193-0.116,0.246-0.234c0.051-0.117,0.086-0.308,0.106-0.572
		c0.001-0.023,0.025-0.033,0.072-0.03c0.047,0.003,0.069,0.017,0.066,0.041l-0.056,0.605c-0.041,0.34-0.068,0.62-0.085,0.837
		c-0.018,0.24-0.031,0.533-0.041,0.876l-0.03,0.583c-0.003,0.023-0.026,0.034-0.073,0.03c-0.046-0.003-0.069-0.016-0.067-0.04
		c0.019-0.257,0.01-0.447-0.028-0.571c-0.038-0.125-0.111-0.212-0.221-0.262c-0.11-0.051-0.281-0.085-0.515-0.103l-5.373-0.396
		C127.243,84.62,127.067,84.626,126.956,84.658z"/>
	<path d="M127.191,92.109c-0.005,0.023-0.015,0.043-0.029,0.06c-0.016,0.017-0.026,0.024-0.034,0.023
		c-0.567-0.189-1.091-0.331-1.572-0.424c-0.062-0.011-0.104-0.032-0.126-0.061c-0.022-0.027-0.026-0.076-0.014-0.146l0.966-4.979
		c0.005-0.023,0.03-0.03,0.075-0.021c0.046,0.009,0.067,0.024,0.063,0.048c-0.051,0.259-0.068,0.453-0.053,0.579
		c0.016,0.125,0.074,0.22,0.177,0.284c0.103,0.063,0.27,0.118,0.499,0.163l5.313,1.03c0.229,0.044,0.401,0.056,0.517,0.035
		c0.116-0.022,0.206-0.09,0.271-0.203c0.065-0.115,0.124-0.298,0.173-0.55c0.004-0.023,0.029-0.03,0.075-0.022
		c0.046,0.009,0.066,0.026,0.062,0.048l-0.925,4.773c-0.016,0.077-0.057,0.109-0.126,0.095l-1.495-0.266
		c-0.016-0.003-0.023-0.027-0.022-0.069c0-0.044,0.013-0.068,0.037-0.071c0.907-0.015,1.446-0.462,1.617-1.341l0.089-0.459
		c0.054-0.276,0.041-0.48-0.036-0.615c-0.077-0.133-0.233-0.224-0.471-0.27l-2.341-0.453l-0.214,1.102
		c-0.163,0.841,0.039,1.315,0.604,1.427c0.022,0.004,0.03,0.027,0.022,0.07c-0.008,0.042-0.023,0.06-0.047,0.057l-0.996-0.206
		l-0.541-0.094c-0.248-0.032-0.448-0.063-0.602-0.093c-0.016-0.003-0.019-0.027-0.01-0.072c0.009-0.047,0.021-0.068,0.036-0.065
		c0.658,0.128,1.07-0.238,1.236-1.094l0.211-1.091l-2.604-0.504c-0.252-0.048-0.438-0.035-0.556,0.041
		c-0.118,0.077-0.2,0.237-0.248,0.482l-0.108,0.563c-0.199,1.024,0.172,1.772,1.112,2.239
		C127.192,92.063,127.197,92.079,127.191,92.109z"/>
	<path d="M129.577,96.129c-0.257,0.067-0.496,0.174-0.72,0.327c-0.224,0.15-0.501,0.363-0.831,0.639
		c-0.363,0.296-0.666,0.526-0.909,0.688c-0.243,0.16-0.514,0.274-0.813,0.343c-0.299,0.068-0.613,0.046-0.946-0.065
		c-0.376-0.127-0.68-0.338-0.909-0.633c-0.229-0.295-0.367-0.649-0.413-1.064c-0.046-0.414,0.008-0.849,0.162-1.306
		c0.104-0.311,0.252-0.617,0.444-0.918c0.191-0.302,0.375-0.518,0.551-0.648c0.065-0.051,0.148-0.064,0.247-0.04l1.706,0.499
		l0.011,0.004c0.03,0.01,0.04,0.034,0.032,0.073c-0.009,0.038-0.03,0.056-0.062,0.054c-0.695,0.037-1.291,0.148-1.788,0.33
		c-0.497,0.183-0.827,0.518-0.991,1.005c-0.106,0.317-0.109,0.612-0.008,0.885c0.102,0.272,0.355,0.477,0.762,0.613
		c0.325,0.11,0.634,0.134,0.926,0.071s0.556-0.172,0.788-0.327c0.233-0.156,0.529-0.375,0.887-0.657
		c0.349-0.278,0.635-0.49,0.861-0.636c0.226-0.146,0.479-0.25,0.759-0.312c0.278-0.063,0.574-0.041,0.885,0.063
		c0.384,0.129,0.673,0.345,0.866,0.649c0.194,0.304,0.298,0.649,0.313,1.036c0.013,0.387-0.043,0.768-0.17,1.145
		c-0.084,0.251-0.192,0.495-0.324,0.73c-0.133,0.234-0.265,0.424-0.396,0.57c-0.082,0.096-0.171,0.127-0.267,0.095l-1.518-0.473
		c-0.022-0.007-0.03-0.032-0.024-0.076c0.007-0.042,0.022-0.065,0.047-0.065c0.5,0.004,0.975-0.056,1.423-0.18
		c0.449-0.125,0.757-0.434,0.923-0.929c0.112-0.333,0.104-0.629-0.022-0.89c-0.126-0.261-0.355-0.446-0.688-0.558
		C130.099,96.078,129.833,96.064,129.577,96.129z"/>
	<path d="M129.058,102.316c-0.241,0.056-0.529,0.011-0.865-0.136c-0.314-0.138-0.573-0.333-0.776-0.587
		c-0.204-0.255-0.378-0.576-0.524-0.962c-0.004-0.01-0.003-0.023,0.004-0.037c0.009-0.021,0.028-0.035,0.056-0.039
		c0.027-0.005,0.046,0.002,0.054,0.023c0.204,0.506,0.549,0.864,1.034,1.077c0.2,0.087,0.362,0.115,0.486,0.085
		c-0.079-0.112-0.078-0.26,0.003-0.445c0.068-0.158,0.171-0.261,0.309-0.313c0.137-0.051,0.287-0.04,0.451,0.032
		c0.179,0.078,0.292,0.192,0.34,0.346c0.049,0.152,0.03,0.326-0.054,0.518C129.472,102.114,129.3,102.26,129.058,102.316z"/>
	<path d="M119.646,105.063c0.071-0.093,0.159-0.212,0.265-0.357c0.105-0.146,0.221-0.312,0.346-0.501l0.448-0.698
		c0.075-0.128,0.186-0.302,0.332-0.523c0.008-0.013,0.032-0.007,0.071,0.019s0.054,0.045,0.046,0.058
		c-0.146,0.221-0.237,0.393-0.271,0.515c-0.033,0.122-0.017,0.234,0.052,0.334c0.068,0.102,0.2,0.217,0.396,0.346l4.513,2.986
		c0.195,0.129,0.35,0.206,0.465,0.231c0.114,0.024,0.224-0.004,0.328-0.085c0.104-0.08,0.229-0.228,0.37-0.441
		c0.009-0.014,0.032-0.007,0.071,0.02c0.039,0.025,0.054,0.045,0.046,0.058l-0.353,0.51c-0.202,0.276-0.358,0.5-0.471,0.669
		c-0.172,0.26-0.336,0.529-0.493,0.808c-0.202,0.334-0.34,0.557-0.413,0.666c-0.438,0.663-0.957,1.165-1.557,1.507
		c-0.6,0.341-1.217,0.505-1.853,0.491c-0.636-0.015-1.232-0.207-1.791-0.576c-0.631-0.417-1.091-0.932-1.382-1.545
		c-0.29-0.613-0.404-1.254-0.341-1.921c0.064-0.668,0.291-1.297,0.683-1.889C119.285,105.544,119.45,105.317,119.646,105.063z
		 M118.943,107.184c-0.016,0.489,0.122,0.97,0.412,1.442c0.29,0.473,0.728,0.902,1.313,1.29c0.559,0.368,1.125,0.611,1.699,0.724
		c0.574,0.114,1.104,0.088,1.591-0.075c0.487-0.164,0.879-0.47,1.176-0.918c0.181-0.272,0.304-0.495,0.37-0.666
		c0.066-0.171,0.078-0.319,0.036-0.446c-0.043-0.126-0.155-0.25-0.337-0.371l-4.386-2.901c-0.268-0.176-0.502-0.235-0.706-0.172
		c-0.204,0.061-0.438,0.289-0.699,0.686C119.115,106.225,118.959,106.694,118.943,107.184z"/>
	<path d="M115.412,111.437c0.637-0.172,1.27-0.167,1.902,0.013c0.631,0.181,1.194,0.509,1.688,0.985
		c0.578,0.557,0.934,1.178,1.064,1.867c0.133,0.69,0.082,1.363-0.15,2.021s-0.578,1.225-1.038,1.703
		c-0.513,0.533-1.09,0.881-1.728,1.045c-0.64,0.165-1.268,0.157-1.886-0.021c-0.617-0.178-1.156-0.489-1.617-0.932
		c-0.511-0.492-0.85-1.078-1.018-1.758c-0.167-0.68-0.157-1.365,0.031-2.054c0.188-0.69,0.535-1.3,1.043-1.826
		C114.207,111.957,114.776,111.61,115.412,111.437z M113.034,114.129c-0.074,0.441-0.009,0.91,0.196,1.405
		c0.206,0.495,0.553,0.977,1.041,1.447c0.517,0.497,1.062,0.856,1.637,1.08c0.575,0.223,1.13,0.287,1.665,0.191
		s1.009-0.357,1.419-0.784c0.524-0.543,0.735-1.155,0.635-1.83c-0.102-0.676-0.497-1.346-1.188-2.011
		c-0.533-0.513-1.101-0.889-1.703-1.127c-0.603-0.24-1.176-0.321-1.721-0.244c-0.544,0.076-1.005,0.311-1.383,0.705
		C113.308,113.296,113.108,113.686,113.034,114.129z"/>
	<path d="M109.326,125.199c0.281,0.076,0.56,0.015,0.838-0.186c0.013-0.008,0.033,0.006,0.061,0.044
		c0.027,0.038,0.034,0.061,0.021,0.071l-0.443,0.304c-0.249,0.16-0.443,0.29-0.583,0.39c-0.113,0.083-0.28,0.211-0.498,0.389
		l-0.412,0.309c-0.013,0.01-0.031-0.005-0.06-0.043c-0.026-0.038-0.034-0.061-0.021-0.07c0.246-0.179,0.372-0.408,0.376-0.688
		c0.005-0.282-0.112-0.587-0.348-0.916l-1.91-2.657c-0.327-0.456-0.517-0.922-0.567-1.399c-0.05-0.477,0.035-0.933,0.254-1.37
		c0.22-0.436,0.56-0.82,1.022-1.151c0.461-0.333,0.937-0.538,1.428-0.616c0.49-0.08,0.957-0.021,1.399,0.174
		s0.827,0.521,1.155,0.977l2.195,3.055c0.137,0.19,0.256,0.315,0.357,0.377c0.102,0.062,0.214,0.074,0.337,0.038
		s0.289-0.129,0.498-0.279c0.02-0.013,0.042-0.001,0.069,0.037c0.027,0.038,0.031,0.064,0.013,0.078l-0.5,0.345
		c-0.288,0.187-0.517,0.342-0.688,0.465c-0.19,0.137-0.42,0.312-0.689,0.525l-0.467,0.35c-0.02,0.014-0.043,0.001-0.07-0.037
		c-0.026-0.038-0.031-0.064-0.012-0.078c0.209-0.149,0.35-0.279,0.424-0.39c0.074-0.111,0.096-0.225,0.064-0.341
		c-0.031-0.118-0.115-0.271-0.252-0.461l-1.944-2.705c-0.541-0.752-1.101-1.202-1.68-1.347c-0.579-0.146-1.15-0.016-1.714,0.388
		c-0.537,0.388-0.839,0.856-0.904,1.407s0.121,1.129,0.558,1.736l1.917,2.667C108.787,124.919,109.045,125.122,109.326,125.199z"/>
	<path d="M100.339,126.283c-0.502-0.149-0.871-0.462-1.108-0.936c-0.181-0.363-0.245-0.742-0.194-1.138
		c0.051-0.395,0.209-0.767,0.476-1.113c0.267-0.347,0.616-0.628,1.049-0.843c0.201-0.102,0.44-0.208,0.716-0.319
		c0.094-0.038,0.212-0.088,0.355-0.151c0.143-0.063,0.302-0.137,0.476-0.224l0.748-0.387c0.129-0.074,0.308-0.167,0.538-0.282
		c0.021-0.011,0.042,0.004,0.063,0.047c0.021,0.042,0.021,0.069,0,0.079c-0.223,0.111-0.38,0.214-0.473,0.308
		s-0.137,0.201-0.134,0.322c0.003,0.12,0.058,0.285,0.162,0.494l2.418,4.841c0.101,0.202,0.199,0.343,0.295,0.421
		c0.096,0.077,0.207,0.109,0.334,0.094c0.128-0.016,0.304-0.079,0.526-0.191c0.014-0.007,0.031,0.011,0.052,0.053
		c0.021,0.042,0.024,0.066,0.011,0.073l-0.55,0.262c-0.313,0.139-0.564,0.255-0.752,0.35c-0.195,0.097-0.396,0.21-0.602,0.339
		c-0.073,0.045-0.162,0.099-0.267,0.16c-0.104,0.061-0.227,0.125-0.366,0.195c-0.62,0.31-1.153,0.427-1.6,0.354
		c-0.446-0.073-0.776-0.326-0.993-0.758c-0.166-0.334-0.209-0.69-0.127-1.066c0.082-0.376,0.283-0.74,0.604-1.093
		C101.393,126.396,100.841,126.434,100.339,126.283z M100.162,124.568c0.265,0.529,0.614,0.887,1.05,1.07
		c0.436,0.184,0.918,0.142,1.448-0.122c0.251-0.125,0.457-0.238,0.616-0.334l-1.269-2.541c-0.08-0.161-0.164-0.276-0.251-0.346
		s-0.201-0.098-0.342-0.084c-0.142,0.014-0.331,0.081-0.567,0.198C99.906,122.88,99.678,123.6,100.162,124.568z M104.572,128.075
		c0.034-0.13-0.018-0.335-0.157-0.613l-0.992-1.987l-0.444,0.209c-0.411,0.205-0.654,0.493-0.729,0.868
		c-0.075,0.372-0.007,0.771,0.206,1.197c0.198,0.397,0.446,0.657,0.742,0.778c0.296,0.123,0.625,0.093,0.988-0.087
		C104.408,128.327,104.537,128.206,104.572,128.075z"/>
	<path d="M95.752,125.412c-0.067-0.199-0.132-0.339-0.194-0.416c-0.063-0.077-0.147-0.115-0.253-0.113
		c-0.106,0.002-0.267,0.041-0.48,0.112l-0.666,0.222c-0.524,0.174-0.919,0.469-1.184,0.882c-0.266,0.414-0.374,0.887-0.327,1.421
		c0,0.025-0.019,0.042-0.058,0.05c-0.038,0.008-0.061,0.002-0.067-0.02c-0.166-0.717-0.325-1.305-0.478-1.763
		c-0.021-0.06-0.023-0.105-0.01-0.139s0.054-0.061,0.12-0.084l5.188-1.731c0.015-0.004,0.029,0.016,0.044,0.059
		c0.016,0.045,0.015,0.069,0,0.075c-0.251,0.083-0.428,0.163-0.529,0.238c-0.103,0.075-0.156,0.174-0.161,0.293
		c-0.005,0.122,0.029,0.292,0.104,0.515l1.713,5.133c0.074,0.221,0.148,0.377,0.224,0.467c0.076,0.09,0.179,0.135,0.311,0.137
		c0.132,0.001,0.319-0.04,0.563-0.121c0.015-0.004,0.03,0.015,0.045,0.06c0.015,0.044,0.015,0.069,0,0.075l-0.569,0.177
		c-0.33,0.093-0.599,0.174-0.806,0.244c-0.222,0.074-0.492,0.173-0.813,0.296l-0.551,0.196c-0.022,0.008-0.041-0.011-0.056-0.055
		s-0.012-0.071,0.011-0.078c0.244-0.082,0.417-0.162,0.518-0.24c0.101-0.08,0.154-0.179,0.159-0.3s-0.03-0.292-0.104-0.513
		L95.752,125.412z"/>
	<path d="M86.308,128.605c-0.023,0.004-0.045,0.003-0.066-0.005c-0.021-0.009-0.033-0.017-0.034-0.023
		c-0.032-0.598-0.093-1.137-0.183-1.619c-0.012-0.062-0.008-0.107,0.01-0.138c0.019-0.032,0.062-0.053,0.131-0.067l4.986-0.928
		c0.023-0.004,0.039,0.017,0.048,0.063c0.008,0.045,0.001,0.071-0.021,0.075c-0.261,0.049-0.447,0.104-0.559,0.164
		c-0.111,0.061-0.179,0.15-0.199,0.269c-0.021,0.12-0.012,0.294,0.031,0.524l0.991,5.32c0.042,0.23,0.095,0.395,0.157,0.494
		s0.158,0.159,0.289,0.179c0.13,0.019,0.321,0.005,0.574-0.043c0.023-0.004,0.039,0.017,0.048,0.063
		c0.009,0.046,0.001,0.071-0.021,0.076l-4.781,0.889c-0.076,0.015-0.12-0.012-0.134-0.081l-0.301-1.49
		c-0.003-0.015,0.017-0.031,0.057-0.046c0.041-0.016,0.067-0.013,0.079,0.009c0.346,0.839,0.96,1.177,1.841,1.012l0.46-0.085
		c0.275-0.052,0.462-0.138,0.559-0.259c0.096-0.12,0.122-0.3,0.078-0.537l-0.438-2.344l-1.103,0.205
		c-0.842,0.156-1.212,0.518-1.105,1.086c0.004,0.023-0.015,0.038-0.057,0.046c-0.042,0.008-0.065,0-0.07-0.023l-0.175-1.002
		l-0.111-0.538c-0.061-0.243-0.105-0.44-0.134-0.594c-0.004-0.015,0.019-0.027,0.064-0.035c0.045-0.009,0.07-0.006,0.072,0.01
		c0.123,0.659,0.613,0.909,1.472,0.749l1.092-0.204l-0.485-2.608c-0.048-0.252-0.128-0.421-0.243-0.501
		c-0.114-0.082-0.293-0.1-0.539-0.054l-0.563,0.104c-1.026,0.191-1.585,0.811-1.675,1.858
		C86.352,128.589,86.338,128.6,86.308,128.605z"/>
	<path d="M72.783,126.869c0.002-0.047,0.012-0.07,0.027-0.069c0.257,0.014,0.463,0.029,0.618,0.044l0.839,0.055l0.818,0.031
		c0.141-0.001,0.339,0.006,0.596,0.019c0.016,0,0.021,0.024,0.02,0.072c-0.003,0.047-0.011,0.07-0.026,0.068
		c-0.343-0.017-0.574,0.009-0.695,0.08c-0.12,0.073-0.188,0.232-0.2,0.482l0.001,0.198l-0.023,4.961l2.788-5.683
		c0.018-0.03,0.049-0.044,0.096-0.042c0.039,0.002,0.073,0.019,0.104,0.051l2.617,5.918l0.336-4.431
		c0.029-0.412-0.034-0.731-0.189-0.958c-0.156-0.226-0.402-0.347-0.736-0.364c-0.023-0.002-0.034-0.026-0.031-0.073
		c0.002-0.047,0.016-0.069,0.038-0.068c0.21,0.011,0.374,0.023,0.49,0.037l0.641,0.044l0.689,0.025
		c0.117-0.002,0.281,0.002,0.491,0.013c0.023,0.001,0.033,0.026,0.031,0.072c-0.002,0.047-0.016,0.07-0.039,0.068
		c-0.318-0.016-0.571,0.08-0.758,0.289c-0.187,0.209-0.294,0.519-0.323,0.932l-0.366,5.013c0.127,0.257,0.271,0.447,0.433,0.572
		c0.161,0.125,0.351,0.194,0.568,0.205c0.023,0.002,0.034,0.025,0.031,0.073c-0.002,0.047-0.016,0.069-0.039,0.068l-0.5-0.04
		c-0.102-0.013-0.233-0.023-0.396-0.031l-0.55-0.017c-0.063,0.004-0.141,0.004-0.234,0c-0.101-0.005-0.181-0.047-0.239-0.123
		c-0.058-0.078-0.146-0.248-0.266-0.511l-2.308-5.141l-2.599,5.202c-0.054,0.105-0.107,0.179-0.164,0.22
		c-0.057,0.039-0.124,0.057-0.201,0.053c-0.056-0.003-0.125-0.01-0.21-0.023c-0.086-0.012-0.19-0.021-0.315-0.027l-0.63-0.021
		c-0.102,0.002-0.254-0.001-0.456-0.013c-0.016,0-0.022-0.024-0.021-0.07c0.003-0.046,0.012-0.07,0.027-0.068
		c0.374,0.019,0.647-0.036,0.822-0.163c0.174-0.128,0.262-0.348,0.263-0.66l0.021-5.348c-0.003-0.242-0.025-0.418-0.066-0.53
		c-0.041-0.111-0.119-0.189-0.233-0.234c-0.114-0.046-0.304-0.075-0.569-0.088C72.787,126.939,72.781,126.916,72.783,126.869z"/>
	<path d="M70.213,126.522c0.463,0.468,0.772,1.022,0.927,1.661c0.154,0.638,0.146,1.29-0.022,1.954
		c-0.199,0.778-0.565,1.394-1.101,1.849c-0.534,0.454-1.145,0.742-1.831,0.865c-0.687,0.122-1.351,0.102-1.992-0.063
		c-0.718-0.183-1.305-0.512-1.763-0.986c-0.458-0.476-0.762-1.026-0.911-1.651c-0.15-0.626-0.146-1.248,0.013-1.867
		c0.175-0.688,0.518-1.271,1.026-1.752c0.51-0.481,1.109-0.81,1.803-0.987c0.692-0.177,1.395-0.174,2.104,0.007
		C69.167,125.73,69.75,126.055,70.213,126.522z M66.698,125.782c-0.421,0.153-0.796,0.442-1.126,0.865
		c-0.328,0.422-0.577,0.962-0.745,1.618c-0.178,0.695-0.222,1.348-0.132,1.957c0.09,0.611,0.309,1.125,0.655,1.542
		c0.348,0.418,0.808,0.701,1.382,0.848c0.732,0.188,1.367,0.07,1.905-0.352s0.926-1.096,1.163-2.024
		c0.184-0.718,0.229-1.397,0.142-2.04c-0.09-0.641-0.302-1.18-0.637-1.615c-0.336-0.436-0.767-0.722-1.296-0.855
		C67.558,125.609,67.12,125.629,66.698,125.782z"/>
	<path d="M53.244,127.512c0.02-0.042,0.037-0.061,0.051-0.053c0.283,0.131,0.549,0.134,0.798,0.004
		c0.249-0.128,0.462-0.38,0.637-0.753l2.56-5.474c0.01-0.021,0.034-0.027,0.073-0.018c0.038,0.009,0.062,0.025,0.069,0.046
		l2.267,8.092l2.015-4.309c0.176-0.373,0.234-0.695,0.179-0.961c-0.056-0.267-0.225-0.466-0.507-0.599
		c-0.014-0.006-0.012-0.03,0.008-0.072c0.021-0.042,0.038-0.061,0.052-0.054c0.19,0.09,0.333,0.16,0.429,0.214l0.557,0.272
		l0.629,0.282c0.117,0.046,0.28,0.119,0.492,0.217c0.021,0.01,0.022,0.037,0.002,0.078c-0.02,0.042-0.04,0.059-0.062,0.049
		c-0.303-0.142-0.584-0.152-0.842-0.033c-0.259,0.12-0.476,0.367-0.65,0.741l-2.168,4.637c0.098,0.305,0.207,0.537,0.326,0.695
		c0.119,0.16,0.264,0.278,0.433,0.358c0.015,0.006,0.012,0.031-0.008,0.073c-0.021,0.042-0.037,0.06-0.052,0.054l-0.418-0.209
		c-0.089-0.05-0.218-0.115-0.388-0.193l-0.682-0.307c-0.088-0.032-0.191-0.077-0.313-0.133c-0.057-0.026-0.092-0.06-0.106-0.101
		c-0.016-0.042-0.031-0.118-0.049-0.229l-0.096-0.458l-1.711-6.271l-1.753,3.748c-0.176,0.375-0.236,0.697-0.182,0.966
		c0.055,0.271,0.219,0.471,0.494,0.6c0.015,0.006,0.012,0.032-0.009,0.074c-0.02,0.042-0.036,0.059-0.051,0.052l-0.429-0.213
		c-0.22-0.119-0.403-0.214-0.552-0.283c-0.141-0.066-0.335-0.148-0.581-0.246l-0.471-0.207
		C53.223,127.579,53.225,127.555,53.244,127.512z"/>
	<path d="M50.401,119.094c-0.02-0.014-0.034-0.031-0.043-0.051c-0.01-0.02-0.013-0.034-0.008-0.04
		c0.397-0.446,0.734-0.872,1.011-1.277c0.035-0.052,0.07-0.082,0.104-0.09c0.035-0.01,0.081,0.005,0.139,0.045l4.193,2.854
		c0.02,0.013,0.016,0.04-0.011,0.079c-0.026,0.038-0.049,0.052-0.068,0.038c-0.219-0.149-0.389-0.242-0.511-0.277
		c-0.122-0.035-0.232-0.019-0.332,0.05c-0.099,0.069-0.214,0.201-0.345,0.394l-3.046,4.473c-0.132,0.194-0.21,0.347-0.236,0.461
		c-0.026,0.115,0.001,0.224,0.079,0.33c0.08,0.105,0.225,0.231,0.438,0.376c0.02,0.013,0.016,0.039-0.011,0.077
		c-0.025,0.039-0.049,0.052-0.068,0.038l-4.019-2.736c-0.065-0.043-0.076-0.095-0.038-0.152l0.836-1.27
		c0.009-0.013,0.034-0.011,0.073,0.008c0.039,0.017,0.057,0.038,0.049,0.063c-0.344,0.838-0.147,1.512,0.594,2.015l0.387,0.263
		c0.232,0.157,0.425,0.227,0.578,0.209c0.154-0.018,0.298-0.127,0.435-0.327l1.342-1.97l-0.928-0.633
		c-0.708-0.482-1.226-0.484-1.55-0.008c-0.013,0.019-0.037,0.017-0.073-0.007c-0.034-0.024-0.046-0.046-0.032-0.066l0.581-0.833
		l0.3-0.461c0.128-0.215,0.235-0.388,0.323-0.516c0.009-0.013,0.032-0.006,0.07,0.02c0.039,0.026,0.054,0.046,0.045,0.059
		c-0.377,0.553-0.205,1.077,0.517,1.567l0.918,0.625l1.493-2.193c0.145-0.212,0.205-0.388,0.182-0.527
		c-0.023-0.138-0.139-0.277-0.345-0.418l-0.474-0.322c-0.862-0.587-1.695-0.542-2.497,0.137
		C50.444,119.114,50.428,119.111,50.401,119.094z"/>
	<path d="M40.598,117.597c0.032-0.034,0.054-0.046,0.065-0.036c0.189,0.174,0.495,0.273,0.918,0.297
		c0.423,0.023,0.871-0.032,1.346-0.169L45.371,117l1.772-1.926c0.163-0.179,0.267-0.322,0.309-0.432
		c0.042-0.108,0.032-0.219-0.03-0.329c-0.063-0.111-0.191-0.255-0.387-0.436c-0.018-0.016-0.01-0.04,0.021-0.075
		c0.032-0.035,0.057-0.044,0.074-0.028c0.188,0.173,0.332,0.312,0.431,0.412l0.619,0.586l0.628,0.562
		c0.12,0.099,0.274,0.236,0.464,0.411c0.012,0.011,0.001,0.033-0.03,0.067c-0.032,0.034-0.053,0.046-0.065,0.035
		c-0.194-0.179-0.35-0.295-0.465-0.349c-0.115-0.052-0.229-0.053-0.34-0.002c-0.11,0.051-0.245,0.163-0.403,0.336l-1.63,1.771
		l-0.528,3.199c-0.084,0.483-0.11,0.848-0.078,1.095c0.033,0.247,0.115,0.431,0.247,0.552c0.017,0.016,0.01,0.042-0.022,0.076
		c-0.031,0.034-0.057,0.043-0.073,0.028l-0.275-0.269c-0.116-0.128-0.202-0.219-0.26-0.271c-0.195-0.18-0.476-0.428-0.841-0.744
		l-0.542-0.482c-0.012-0.01-0.002-0.032,0.03-0.067c0.031-0.035,0.054-0.045,0.064-0.037c0.235,0.218,0.427,0.245,0.574,0.084
		c0.074-0.08,0.124-0.203,0.15-0.369l0.517-3.065l-2.199,0.628c-0.359,0.104-0.621,0.245-0.784,0.422
		c-0.232,0.252-0.189,0.524,0.125,0.813c0.012,0.011,0.002,0.034-0.03,0.068c-0.032,0.035-0.053,0.046-0.064,0.035l-0.439-0.419
		c-0.229-0.232-0.445-0.44-0.647-0.626c-0.097-0.089-0.22-0.192-0.367-0.308l-0.327-0.283
		C40.557,117.654,40.566,117.631,40.598,117.597z"/>
	<path d="M37.54,107.498c0.072-0.52,0.324-0.932,0.757-1.239c0.33-0.234,0.695-0.355,1.094-0.366
		c0.398-0.009,0.789,0.091,1.173,0.301c0.384,0.211,0.714,0.514,0.993,0.908c0.131,0.184,0.272,0.404,0.424,0.659
		c0.053,0.087,0.121,0.197,0.204,0.329c0.083,0.131,0.183,0.277,0.294,0.436l0.497,0.68c0.091,0.118,0.211,0.28,0.36,0.489
		c0.014,0.02,0.001,0.042-0.037,0.069c-0.039,0.027-0.064,0.032-0.078,0.013c-0.144-0.204-0.269-0.344-0.376-0.421
		c-0.107-0.077-0.22-0.104-0.338-0.083c-0.118,0.021-0.273,0.1-0.464,0.235l-4.416,3.127c-0.185,0.13-0.309,0.25-0.371,0.355
		c-0.063,0.107-0.077,0.221-0.042,0.346c0.034,0.123,0.124,0.287,0.268,0.49c0.009,0.014-0.006,0.033-0.044,0.06
		c-0.037,0.027-0.062,0.035-0.07,0.022l-0.342-0.503c-0.186-0.29-0.339-0.519-0.46-0.691c-0.126-0.178-0.269-0.358-0.427-0.542
		c-0.057-0.065-0.122-0.145-0.199-0.239c-0.075-0.094-0.158-0.205-0.248-0.332c-0.401-0.567-0.6-1.075-0.595-1.527
		c0.005-0.452,0.204-0.817,0.598-1.097c0.306-0.217,0.65-0.312,1.035-0.288c0.384,0.024,0.774,0.166,1.171,0.43
		C37.589,108.556,37.469,108.016,37.54,107.498z M36.414,111.953c0.134,0.015,0.329-0.068,0.583-0.248l1.813-1.284l-0.274-0.407
		c-0.266-0.375-0.588-0.572-0.968-0.589c-0.38-0.017-0.764,0.112-1.152,0.386c-0.362,0.257-0.582,0.541-0.657,0.852
		c-0.075,0.312,0.004,0.633,0.238,0.964C36.141,111.83,36.279,111.938,36.414,111.953z M39.208,107.061
		c-0.483,0.342-0.782,0.743-0.897,1.201c-0.114,0.458,0,0.929,0.342,1.412c0.162,0.23,0.304,0.417,0.424,0.559l2.318-1.641
		c0.146-0.104,0.247-0.203,0.303-0.301c0.056-0.096,0.066-0.213,0.031-0.351c-0.036-0.138-0.13-0.314-0.283-0.53
		C40.838,106.551,40.092,106.435,39.208,107.061z"/>
	<path d="M35.877,97.056c0.042-0.021,0.071-0.013,0.088,0.022c0.065,0.133,0.163,0.35,0.293,0.65
		c0.13,0.301,0.227,0.518,0.292,0.651c0.086,0.175,0.194,0.377,0.324,0.609s0.229,0.413,0.293,0.546
		c0.014,0.028-0.001,0.052-0.042,0.073c-0.042,0.021-0.07,0.016-0.084-0.012c-0.1-0.203-0.194-0.34-0.286-0.413
		s-0.19-0.083-0.295-0.031c-0.105,0.051-0.255,0.199-0.448,0.441l-1.227,1.588l1.243,2.541l1.38-0.05
		c0.254-0.013,0.466-0.06,0.634-0.142c0.245-0.12,0.388-0.297,0.428-0.533c0.04-0.237-0.016-0.514-0.17-0.829
		c-0.018-0.035-0.005-0.063,0.037-0.083c0.042-0.021,0.071-0.014,0.088,0.021c0.063,0.126,0.145,0.311,0.246,0.557
		c0.117,0.272,0.223,0.507,0.318,0.703c0.093,0.189,0.208,0.406,0.345,0.651c0.124,0.217,0.221,0.399,0.293,0.546
		c0.018,0.036,0.005,0.063-0.037,0.083s-0.071,0.013-0.089-0.022c-0.096-0.195-0.214-0.341-0.356-0.437
		c-0.143-0.095-0.344-0.157-0.604-0.185c-0.262-0.028-0.631-0.034-1.108-0.018l-6.186,0.229c-0.028-0.003-0.054-0.03-0.078-0.079
		c-0.023-0.048-0.027-0.082-0.01-0.099l3.929-5.11c0.384-0.491,0.628-0.864,0.733-1.12s0.111-0.477,0.02-0.666
		C35.822,97.104,35.835,97.077,35.877,97.056z M35.709,103.735l-1.125-2.299l-1.855,2.404L35.709,103.735z"/>
	<path d="M27.273,92.439c0.012-0.069,0.029-0.114,0.051-0.138c0.022-0.022,0.076-0.053,0.161-0.095l1.442-0.566
		c0.021-0.007,0.042,0.008,0.061,0.042c0.019,0.036,0.015,0.065-0.011,0.089c-0.557,0.373-0.939,0.799-1.149,1.278
		c-0.209,0.479-0.23,1.003-0.064,1.571c0.159,0.547,0.438,0.995,0.836,1.345c0.399,0.351,0.89,0.571,1.472,0.661
		c0.582,0.09,1.214,0.035,1.894-0.163c0.674-0.196,1.237-0.499,1.69-0.908c0.453-0.407,0.762-0.875,0.925-1.401
		c0.162-0.526,0.163-1.066,0.002-1.62c-0.16-0.546-0.437-0.958-0.83-1.236c-0.394-0.279-0.945-0.466-1.654-0.56
		c-0.024,0-0.038-0.021-0.042-0.06c-0.003-0.04,0.003-0.062,0.017-0.065l1.39-0.248c0.092-0.018,0.151-0.021,0.18-0.009
		c0.027,0.012,0.065,0.043,0.113,0.095c0.473,0.592,0.819,1.266,1.04,2.022c0.233,0.801,0.29,1.559,0.17,2.275
		c-0.119,0.717-0.403,1.331-0.85,1.842c-0.447,0.512-1.026,0.872-1.737,1.08c-0.703,0.205-1.385,0.206-2.045,0
		c-0.661-0.205-1.239-0.58-1.734-1.125c-0.496-0.545-0.858-1.21-1.088-1.996C27.269,93.719,27.189,93.015,27.273,92.439z"/>
	<path d="M32.845,81.894c0.046-0.006,0.07,0.003,0.073,0.026l0.151,1.301l0.064,0.451c0.013,0.108,0.001,0.204-0.037,0.287
		c-0.037,0.082-0.111,0.182-0.224,0.296c-0.112,0.116-0.334,0.33-0.666,0.643l-0.583,0.551l-1.925,1.86l0.336,0.254l2.554-0.298
		c0.24-0.027,0.412-0.067,0.516-0.118c0.104-0.052,0.169-0.14,0.192-0.264c0.025-0.125,0.021-0.318-0.009-0.582
		c-0.004-0.031,0.019-0.05,0.064-0.055c0.046-0.005,0.071,0.007,0.075,0.039c0.028,0.248,0.048,0.445,0.058,0.594l0.087,0.848
		l0.108,0.824c0.025,0.145,0.053,0.352,0.083,0.613c0.002,0.016-0.021,0.025-0.066,0.031c-0.047,0.006-0.071,0-0.073-0.016
		c-0.03-0.263-0.071-0.451-0.125-0.566c-0.052-0.116-0.138-0.19-0.255-0.224c-0.118-0.033-0.293-0.036-0.525-0.01l-5.375,0.628
		c-0.231,0.027-0.399,0.068-0.503,0.123c-0.104,0.056-0.169,0.147-0.197,0.277c-0.028,0.128-0.026,0.321,0.002,0.577
		c0.003,0.014-0.02,0.024-0.066,0.03c-0.046,0.005-0.07,0-0.072-0.015l-0.06-0.616c-0.024-0.343-0.049-0.614-0.072-0.815
		c-0.027-0.233-0.068-0.518-0.123-0.856l-0.08-0.579c-0.003-0.023,0.02-0.038,0.066-0.043c0.046-0.005,0.07,0.003,0.073,0.027
		c0.03,0.255,0.075,0.44,0.136,0.554c0.06,0.115,0.148,0.187,0.266,0.216c0.117,0.03,0.292,0.031,0.524,0.003l2.449-0.286
		l-2.564-2.006c-0.268-0.213-0.482-0.31-0.646-0.29c-0.116,0.012-0.199,0.083-0.252,0.212c-0.051,0.127-0.063,0.306-0.036,0.539
		c0.001,0.015-0.021,0.026-0.067,0.031c-0.047,0.006-0.07,0-0.072-0.015l-0.05-0.524c-0.024-0.342-0.053-0.652-0.085-0.931
		c-0.035-0.301-0.079-0.605-0.131-0.914l-0.069-0.498c-0.003-0.023,0.02-0.038,0.065-0.043c0.047-0.005,0.071,0.003,0.074,0.027
		c0.039,0.341,0.176,0.703,0.409,1.088c0.233,0.384,0.531,0.724,0.896,1.019l1.659,1.313l2.064-1.971
		c0.658-0.61,1.121-1.067,1.388-1.369c0.267-0.302,0.426-0.534,0.478-0.698c0.052-0.162,0.063-0.375,0.031-0.638
		C32.775,81.914,32.798,81.899,32.845,81.894z"/>
	<path d="M32.817,76.425c-0.408,0.608-0.917,1.049-1.525,1.322c-0.608,0.275-1.261,0.371-1.957,0.29
		c-0.744-0.087-1.379-0.357-1.906-0.811c-0.528-0.454-0.908-1.039-1.143-1.757c-0.233-0.717-0.302-1.498-0.203-2.342
		c0.045-0.386,0.12-0.76,0.225-1.121c0.105-0.36,0.229-0.648,0.372-0.867c0.039-0.066,0.071-0.105,0.096-0.113
		c0.024-0.009,0.088-0.011,0.188-0.008l1.55,0.029c0.023,0.002,0.037,0.026,0.039,0.069c0.004,0.043-0.011,0.067-0.043,0.072
		c-0.507,0.105-0.988,0.351-1.445,0.736c-0.456,0.387-0.725,0.92-0.805,1.602c-0.062,0.534,0.017,1.035,0.237,1.504
		c0.22,0.469,0.567,0.858,1.046,1.169c0.478,0.311,1.049,0.505,1.715,0.583c0.704,0.082,1.36,0.02,1.969-0.188
		c0.609-0.208,1.109-0.545,1.501-1.013c0.392-0.469,0.626-1.031,0.703-1.689c0.039-0.333,0.03-0.598-0.025-0.792
		c-0.056-0.195-0.18-0.347-0.37-0.455c-0.191-0.11-0.48-0.186-0.868-0.231c-0.401-0.047-0.686-0.057-0.85-0.028
		c-0.163,0.028-0.282,0.119-0.355,0.271c-0.072,0.152-0.132,0.425-0.177,0.821c-0.006,0.046-0.04,0.065-0.102,0.058
		c-0.023-0.002-0.044-0.011-0.063-0.024c-0.018-0.014-0.026-0.029-0.024-0.044c0.114-0.638,0.193-1.15,0.239-1.537
		c0.044-0.387,0.08-0.79,0.105-1.211c0.002-0.016,0.013-0.028,0.034-0.038c0.021-0.009,0.038-0.013,0.054-0.011
		c0.054,0.006,0.079,0.029,0.074,0.068c-0.025,0.153-0.013,0.264,0.038,0.333c0.051,0.068,0.164,0.123,0.34,0.164
		c0.176,0.04,0.484,0.085,0.925,0.137c0.349,0.041,0.598,0.056,0.748,0.046c0.15-0.01,0.245-0.013,0.283-0.008
		c0.047,0.005,0.076,0.017,0.09,0.034c0.015,0.018,0.026,0.055,0.034,0.109c0.104,1.001,0.11,1.884,0.021,2.651
		C33.48,75.077,33.226,75.818,32.817,76.425z"/>
	<path d="M29.184,62.516c-0.27,0.109-0.453,0.329-0.552,0.657c-0.005,0.015-0.03,0.016-0.074,0.002
		c-0.045-0.013-0.065-0.027-0.061-0.043l0.166-0.511c0.101-0.279,0.176-0.501,0.226-0.665c0.04-0.134,0.094-0.338,0.16-0.612
		l0.137-0.495c0.004-0.015,0.029-0.015,0.074-0.002c0.044,0.014,0.064,0.027,0.06,0.042c-0.087,0.292-0.047,0.55,0.121,0.776
		c0.168,0.225,0.445,0.397,0.834,0.513l3.133,0.946c0.537,0.163,0.972,0.417,1.302,0.765c0.33,0.349,0.541,0.762,0.633,1.241
		c0.091,0.479,0.055,0.991-0.109,1.536c-0.165,0.545-0.417,0.998-0.758,1.358c-0.341,0.362-0.747,0.599-1.217,0.714
		c-0.47,0.114-0.974,0.091-1.511-0.071l-3.603-1.087c-0.224-0.067-0.395-0.094-0.513-0.082c-0.118,0.014-0.215,0.071-0.291,0.175
		c-0.076,0.104-0.151,0.279-0.226,0.524c-0.006,0.023-0.032,0.027-0.077,0.014c-0.045-0.014-0.063-0.031-0.057-0.055l0.187-0.579
		c0.114-0.323,0.201-0.585,0.262-0.787c0.068-0.225,0.144-0.502,0.228-0.835l0.158-0.564c0.006-0.021,0.032-0.025,0.077-0.012
		c0.045,0.013,0.063,0.03,0.057,0.052c-0.074,0.247-0.107,0.437-0.098,0.569c0.009,0.133,0.062,0.236,0.156,0.31
		c0.096,0.074,0.256,0.143,0.479,0.211l3.189,0.962c0.887,0.269,1.605,0.283,2.153,0.045c0.547-0.238,0.922-0.689,1.122-1.352
		c0.191-0.634,0.145-1.189-0.14-1.666c-0.283-0.477-0.783-0.822-1.499-1.039l-3.144-0.948
		C29.781,62.409,29.453,62.406,29.184,62.516z"/>
	<path d="M39.688,55.709c0.042,0.021,0.054,0.049,0.037,0.084c-0.066,0.132-0.178,0.343-0.337,0.628
		c-0.159,0.287-0.271,0.497-0.337,0.629c-0.086,0.174-0.182,0.385-0.285,0.628c-0.103,0.245-0.188,0.433-0.253,0.566
		c-0.014,0.027-0.042,0.031-0.084,0.011s-0.056-0.045-0.042-0.073c0.1-0.202,0.151-0.363,0.151-0.479
		c0.002-0.117-0.05-0.201-0.155-0.253c-0.104-0.052-0.312-0.08-0.622-0.085l-2.007-0.002l-1.253,2.536l0.883,1.063
		c0.165,0.195,0.33,0.333,0.498,0.416c0.245,0.121,0.474,0.125,0.686,0.012c0.212-0.112,0.396-0.325,0.551-0.64
		c0.017-0.035,0.047-0.042,0.089-0.021s0.054,0.049,0.036,0.084c-0.062,0.125-0.158,0.303-0.29,0.533
		c-0.146,0.26-0.266,0.486-0.362,0.681c-0.094,0.189-0.195,0.414-0.305,0.671c-0.097,0.231-0.182,0.419-0.254,0.565
		c-0.018,0.035-0.047,0.042-0.089,0.022s-0.054-0.048-0.037-0.084c0.097-0.195,0.14-0.377,0.129-0.549
		c-0.012-0.171-0.086-0.368-0.223-0.592c-0.138-0.224-0.358-0.521-0.663-0.889l-3.958-4.76c-0.014-0.024-0.009-0.06,0.016-0.109
		c0.023-0.049,0.048-0.072,0.072-0.068l6.445-0.009c0.623,0.004,1.068-0.03,1.335-0.104c0.266-0.072,0.445-0.203,0.539-0.392
		C39.616,55.696,39.646,55.688,39.688,55.709z M34.297,59.655l1.134-2.295l-3.037-0.001L34.297,59.655z"/>
	<path d="M44.54,49.146c0.037,0.028,0.049,0.051,0.035,0.07l-1.114,1.515c-0.106,0.144-0.555,0.229-1.346,0.252
		c-0.79,0.022-1.843-0.019-3.158-0.125c-0.089,0.146-0.161,0.258-0.217,0.333c-0.102,0.139-0.227,0.297-0.379,0.476l2.101,1.545
		c0.194,0.142,0.349,0.229,0.462,0.259c0.113,0.031,0.222,0.008,0.324-0.066c0.103-0.073,0.232-0.217,0.39-0.432
		c0.009-0.012,0.032-0.005,0.07,0.023c0.038,0.028,0.052,0.048,0.042,0.061c-0.152,0.207-0.272,0.364-0.362,0.474l-0.521,0.689
		l-0.489,0.685c-0.081,0.124-0.198,0.29-0.35,0.497c-0.015,0.019-0.04,0.014-0.078-0.013c-0.038-0.028-0.05-0.052-0.036-0.07
		c0.157-0.213,0.257-0.38,0.296-0.501c0.04-0.12,0.028-0.233-0.034-0.337c-0.063-0.105-0.189-0.227-0.378-0.365l-4.359-3.207
		c-0.188-0.138-0.34-0.222-0.453-0.252c-0.113-0.03-0.224-0.007-0.332,0.067c-0.108,0.076-0.238,0.216-0.391,0.424
		c-0.01,0.012-0.033,0.005-0.071-0.023c-0.037-0.028-0.052-0.048-0.042-0.061l0.369-0.483c0.216-0.266,0.386-0.484,0.51-0.654
		c0.153-0.208,0.31-0.44,0.471-0.699c0.055-0.086,0.12-0.189,0.199-0.31c0.08-0.121,0.172-0.253,0.278-0.398
		c0.401-0.545,0.819-0.889,1.251-1.03c0.434-0.141,0.841-0.071,1.224,0.21c0.346,0.255,0.586,0.58,0.721,0.973
		c0.136,0.395,0.168,0.813,0.096,1.253c1.138,0.043,2.048,0.049,2.728,0.019c0.681-0.032,1.216-0.111,1.604-0.237
		c0.387-0.125,0.676-0.317,0.865-0.575C44.477,49.114,44.502,49.119,44.54,49.146z M38.547,50.963
		c0.301-0.408,0.412-0.774,0.338-1.101c-0.074-0.326-0.339-0.653-0.79-0.986c-0.509-0.375-0.927-0.548-1.254-0.524
		c-0.329,0.026-0.612,0.201-0.853,0.528c-0.18,0.245-0.263,0.452-0.247,0.623c0.015,0.17,0.141,0.343,0.379,0.518l1.987,1.461
		C38.243,51.35,38.39,51.176,38.547,50.963z"/>
	<path d="M50.507,43.459c0.032,0.034,0.034,0.064,0.006,0.091c-0.106,0.103-0.284,0.261-0.531,0.476
		c-0.247,0.215-0.424,0.373-0.532,0.476c-0.14,0.134-0.301,0.298-0.481,0.493c-0.181,0.194-0.325,0.343-0.432,0.445
		c-0.022,0.021-0.05,0.015-0.082-0.019c-0.032-0.034-0.037-0.062-0.015-0.083c0.163-0.156,0.266-0.289,0.307-0.398
		c0.041-0.109,0.021-0.206-0.06-0.291c-0.081-0.085-0.267-0.183-0.557-0.294l-1.885-0.687l-2.044,1.955l0.466,1.3
		c0.089,0.239,0.197,0.426,0.326,0.562c0.188,0.197,0.401,0.279,0.64,0.246c0.237-0.034,0.483-0.171,0.736-0.413
		c0.028-0.027,0.059-0.023,0.091,0.01c0.032,0.035,0.035,0.064,0.007,0.091c-0.102,0.097-0.253,0.232-0.456,0.403
		c-0.225,0.194-0.416,0.366-0.573,0.517c-0.152,0.145-0.324,0.32-0.517,0.526c-0.169,0.184-0.313,0.332-0.432,0.444
		c-0.027,0.027-0.058,0.023-0.091-0.01c-0.031-0.035-0.033-0.064-0.006-0.09c0.157-0.152,0.261-0.31,0.308-0.474
		c0.049-0.164,0.046-0.375-0.006-0.632s-0.159-0.611-0.319-1.061l-2.093-5.826c-0.005-0.028,0.013-0.06,0.052-0.099
		c0.039-0.037,0.07-0.051,0.092-0.039l6.06,2.194c0.585,0.218,1.016,0.337,1.29,0.36c0.275,0.022,0.488-0.038,0.641-0.185
		C50.444,43.422,50.475,43.426,50.507,43.459z M44.092,45.324l1.85-1.769l-2.854-1.039L44.092,45.324z"/>
	<path d="M53.51,32.881c0.025,0.04,0.032,0.063,0.019,0.07c-0.26,0.174-0.399,0.399-0.42,0.679
		c-0.021,0.279,0.083,0.591,0.311,0.937l3.335,5.038c0.014,0.02,0.006,0.044-0.021,0.072c-0.029,0.028-0.054,0.04-0.075,0.036
		l-8.087-2.287l2.626,3.967c0.228,0.344,0.47,0.563,0.727,0.654c0.257,0.091,0.516,0.052,0.775-0.121
		c0.013-0.008,0.032,0.007,0.058,0.046c0.026,0.039,0.032,0.063,0.02,0.072c-0.176,0.115-0.311,0.2-0.406,0.255l-0.522,0.331
		l-0.568,0.39c-0.101,0.076-0.247,0.178-0.442,0.307c-0.02,0.013-0.042,0-0.067-0.039c-0.026-0.04-0.029-0.065-0.01-0.078
		c0.279-0.186,0.435-0.419,0.467-0.701c0.032-0.284-0.065-0.598-0.293-0.942l-2.825-4.268c-0.312-0.075-0.565-0.103-0.764-0.084
		c-0.197,0.02-0.374,0.08-0.53,0.184c-0.014,0.009-0.032-0.007-0.058-0.045c-0.026-0.04-0.033-0.063-0.02-0.072l0.396-0.249
		c0.089-0.048,0.212-0.125,0.367-0.228l0.617-0.424c0.074-0.057,0.166-0.123,0.276-0.197c0.053-0.034,0.1-0.046,0.143-0.037
		c0.044,0.009,0.116,0.034,0.221,0.078l0.44,0.158l6.244,1.81l-2.284-3.451c-0.228-0.345-0.471-0.564-0.73-0.659
		c-0.259-0.094-0.516-0.058-0.769,0.11c-0.013,0.009-0.032-0.007-0.058-0.045c-0.026-0.039-0.032-0.063-0.02-0.072l0.406-0.255
		c0.216-0.124,0.393-0.232,0.529-0.322c0.13-0.086,0.301-0.209,0.514-0.368l0.422-0.294C53.464,32.826,53.483,32.842,53.51,32.881z"
		/>
	<path d="M56.173,32.285c-0.164,0.391-0.202,0.891-0.113,1.499c0.006,0.014-0.011,0.029-0.05,0.047
		c-0.039,0.017-0.063,0.015-0.073-0.006c-0.094-0.291-0.219-0.664-0.376-1.118s-0.284-0.792-0.382-1.014
		c-0.016-0.036-0.004-0.063,0.036-0.079c0.038-0.017,0.065-0.008,0.082,0.027c0.068,0.157,0.303,0.147,0.702-0.027
		c0.623-0.249,1.345-0.553,2.165-0.914c0.421-0.185,0.864-0.388,1.328-0.609l0.723-0.33c0.271-0.12,0.461-0.225,0.57-0.315
		c0.109-0.091,0.158-0.198,0.146-0.32c-0.005-0.032,0.01-0.055,0.046-0.072c0.035-0.015,0.06-0.008,0.072,0.02
		c0.075,0.231,0.202,0.576,0.378,1.034c0.176,0.458,0.325,0.828,0.447,1.106c0.01,0.021-0.006,0.04-0.045,0.057
		s-0.066,0.017-0.083-0.001c-0.313-0.518-0.659-0.848-1.037-0.993c-0.378-0.144-0.792-0.117-1.241,0.08
		c-0.2,0.088-0.34,0.17-0.421,0.249c-0.08,0.078-0.117,0.168-0.11,0.272c0.007,0.102,0.053,0.251,0.138,0.444l2.168,4.933
		c0.098,0.221,0.189,0.371,0.276,0.453c0.086,0.082,0.202,0.112,0.346,0.09c0.145-0.021,0.355-0.092,0.634-0.214
		c0.021-0.01,0.041,0.007,0.06,0.05c0.02,0.043,0.018,0.068-0.004,0.077c-0.249,0.111-0.446,0.193-0.593,0.249l-0.882,0.375
		l-0.83,0.377c-0.146,0.074-0.352,0.168-0.616,0.284c-0.014,0.006-0.03-0.012-0.05-0.055c-0.018-0.043-0.021-0.067-0.006-0.073
		c0.277-0.124,0.475-0.231,0.591-0.325c0.116-0.093,0.176-0.202,0.177-0.326c0-0.124-0.047-0.293-0.141-0.507l-2.177-4.954
		c-0.082-0.186-0.159-0.314-0.232-0.383c-0.073-0.07-0.164-0.103-0.272-0.097c-0.109,0.006-0.259,0.049-0.452,0.134
		C56.637,31.602,56.337,31.894,56.173,32.285z"/>
	<path d="M69.641,32.59c0.023-0.007,0.045-0.007,0.067,0c0.021,0.006,0.033,0.013,0.035,0.02c0.08,0.592,0.185,1.125,0.313,1.598
		c0.017,0.061,0.017,0.106,0.001,0.14c-0.015,0.032-0.057,0.058-0.125,0.076l-4.896,1.326c-0.022,0.006-0.04-0.013-0.052-0.059
		c-0.013-0.044-0.008-0.071,0.015-0.077c0.256-0.069,0.438-0.138,0.544-0.208c0.106-0.069,0.165-0.163,0.177-0.284
		c0.012-0.119-0.013-0.292-0.074-0.519l-1.414-5.224c-0.062-0.225-0.127-0.384-0.196-0.479c-0.07-0.094-0.171-0.145-0.303-0.154
		s-0.321,0.02-0.569,0.087c-0.022,0.007-0.04-0.013-0.053-0.059c-0.012-0.045-0.007-0.07,0.016-0.076l4.693-1.272
		c0.075-0.02,0.122,0.003,0.141,0.072l0.42,1.46c0.004,0.015-0.014,0.032-0.053,0.05c-0.04,0.019-0.066,0.019-0.08-0.002
		c-0.413-0.809-1.052-1.096-1.916-0.861l-0.451,0.122c-0.271,0.074-0.449,0.174-0.536,0.303c-0.086,0.127-0.098,0.308-0.035,0.541
		l0.624,2.302l1.083-0.294c0.827-0.224,1.165-0.614,1.015-1.171c-0.007-0.022,0.012-0.039,0.053-0.05
		c0.042-0.011,0.065-0.006,0.071,0.018l0.255,0.983l0.154,0.528c0.081,0.236,0.141,0.43,0.182,0.581
		c0.005,0.015-0.017,0.029-0.062,0.042c-0.045,0.012-0.069,0.011-0.073-0.005c-0.176-0.646-0.685-0.855-1.526-0.628l-1.072,0.291
		l0.694,2.561c0.066,0.248,0.16,0.408,0.281,0.48c0.12,0.073,0.301,0.076,0.542,0.011l0.552-0.15
		c1.008-0.271,1.516-0.935,1.521-1.985C69.599,32.609,69.61,32.598,69.641,32.59z"/>
	<path d="M76.254,31.641c0.023-0.002,0.045,0,0.066,0.009c0.021,0.009,0.031,0.018,0.033,0.025
		c-0.003,0.597,0.026,1.138,0.089,1.625c0.007,0.063,0.002,0.108-0.019,0.139c-0.02,0.03-0.064,0.049-0.134,0.058l-5.032,0.639
		c-0.023,0.003-0.037-0.018-0.043-0.065c-0.006-0.046,0.002-0.071,0.025-0.074c0.263-0.033,0.451-0.077,0.566-0.131
		s0.187-0.14,0.215-0.257c0.028-0.117,0.028-0.292-0.002-0.524l-0.682-5.369c-0.029-0.232-0.072-0.399-0.129-0.501
		c-0.056-0.103-0.148-0.168-0.277-0.194c-0.129-0.027-0.322-0.024-0.577,0.008c-0.022,0.002-0.037-0.019-0.043-0.065
		c-0.007-0.047,0.003-0.072,0.025-0.075l4.824-0.612c0.076-0.01,0.12,0.02,0.129,0.089l0.215,1.504
		c0.002,0.016-0.019,0.03-0.06,0.043c-0.041,0.014-0.068,0.009-0.078-0.013c-0.298-0.857-0.892-1.23-1.78-1.118l-0.464,0.06
		c-0.278,0.035-0.468,0.11-0.572,0.225c-0.103,0.116-0.14,0.292-0.108,0.533l0.3,2.365l1.113-0.141
		c0.851-0.109,1.239-0.448,1.167-1.021c-0.003-0.023,0.017-0.038,0.06-0.043c0.042-0.004,0.064,0.003,0.067,0.027l0.116,1.01
		l0.082,0.544c0.047,0.245,0.08,0.445,0.1,0.601c0.002,0.016-0.021,0.026-0.067,0.032c-0.046,0.006-0.07,0.001-0.072-0.014
		c-0.084-0.666-0.56-0.943-1.425-0.833l-1.102,0.139l0.334,2.633c0.033,0.255,0.104,0.427,0.213,0.516
		c0.109,0.088,0.287,0.115,0.535,0.085l0.568-0.073c1.036-0.131,1.629-0.717,1.779-1.758C76.209,31.654,76.224,31.644,76.254,31.641
		z"/>
</g>
<path d="M79.893,40.69c-21.822,0-39.574,17.753-39.574,39.574c0,21.82,17.752,39.574,39.574,39.574
	c21.821,0,39.573-17.754,39.573-39.574C119.466,58.443,101.714,40.69,79.893,40.69z M79.893,117.857
	c-20.728,0-37.592-16.864-37.592-37.593s16.864-37.592,37.592-37.592c20.725,0,37.591,16.864,37.591,37.592
	S100.617,117.857,79.893,117.857z"/>
<circle cx="80" cy="29.67" r="0.828"/>
<path d="M79.893,159.896c-0.584,0-1.121-0.267-1.474-0.732l-4.872-6.425l-5.912,5.481c-0.343,0.318-0.788,0.494-1.255,0.494
	c-0.697,0-1.33-0.386-1.646-1.005l-3.683-7.171l-6.776,4.37c-0.299,0.193-0.646,0.295-1,0.295c-0.816,0-1.527-0.523-1.769-1.303
	l-2.382-7.704l-7.429,3.128c-0.229,0.096-0.473,0.146-0.718,0.146c-0.93,0-1.718-0.696-1.834-1.62l-1.008-7.999l-7.861,1.79
	c-0.634,0.145-1.306-0.062-1.749-0.529c-0.352-0.37-0.533-0.854-0.509-1.365l0.399-8.051l-8.146,0.398
	c-0.565,0-1.091-0.253-1.442-0.695c-0.353-0.442-0.483-1.012-0.358-1.564l1.79-7.86l-7.999-1.006
	c-0.579-0.074-1.078-0.405-1.37-0.911c-0.292-0.505-0.327-1.104-0.104-1.642l3.128-7.429l-7.702-2.383
	c-0.559-0.173-0.993-0.586-1.193-1.135c-0.197-0.547-0.13-1.142,0.185-1.631l4.372-6.776l-7.174-3.683
	c-0.519-0.267-0.876-0.749-0.976-1.323c-0.103-0.575,0.067-1.151,0.464-1.58l5.479-5.913l-6.422-4.871
	c-0.466-0.353-0.732-0.89-0.732-1.472c0-0.584,0.266-1.121,0.732-1.474l6.422-4.873L1.891,67.96
	c-0.396-0.429-0.566-1.003-0.464-1.578c0.1-0.575,0.457-1.057,0.976-1.324l7.174-3.681l-4.372-6.775
	c-0.316-0.49-0.382-1.086-0.185-1.634c0.2-0.549,0.635-0.963,1.193-1.135l7.702-2.381l-3.128-7.43
	c-0.224-0.539-0.188-1.137,0.104-1.643c0.292-0.505,0.791-0.836,1.37-0.909l7.999-1.007l-1.79-7.86
	c-0.125-0.552,0.006-1.123,0.358-1.564c0.352-0.443,0.879-0.697,1.442-0.697l0.095,0.003l8.052,0.397l-0.399-8.051
	c-0.024-0.512,0.157-0.996,0.509-1.365c0.443-0.467,1.119-0.671,1.749-0.529l7.861,1.789l1.008-7.998
	c0.116-0.923,0.904-1.619,1.834-1.619c0.245,0,0.488,0.049,0.716,0.146l7.431,3.126l2.382-7.701c0.241-0.78,0.952-1.303,1.769-1.303
	c0.354,0,0.701,0.102,1,0.295l6.776,4.37l3.683-7.172c0.315-0.62,0.948-1.005,1.644-1.005c0.469,0,0.914,0.175,1.257,0.494
	l5.912,5.479l4.872-6.423c0.353-0.465,0.89-0.732,1.474-0.732c0.583,0,1.12,0.267,1.473,0.732l4.872,6.423l5.911-5.479
	c0.345-0.318,0.791-0.494,1.258-0.494c0.696,0,1.328,0.386,1.646,1.005l3.683,7.172l6.774-4.37c0.299-0.193,0.646-0.295,1-0.295
	c0.817,0,1.526,0.524,1.768,1.303l2.383,7.702l7.429-3.126c0.229-0.096,0.473-0.146,0.718-0.146c0.929,0,1.717,0.695,1.835,1.618
	l1.007,7.999l7.859-1.789c0.63-0.144,1.308,0.062,1.751,0.529c0.353,0.369,0.531,0.854,0.509,1.364l-0.397,8.052l8.145-0.399
	c0.563,0,1.09,0.254,1.443,0.696c0.352,0.441,0.482,1.011,0.357,1.564l-1.79,7.86l7.999,1.007c0.578,0.073,1.078,0.403,1.37,0.909
	c0.29,0.505,0.33,1.103,0.104,1.642l-3.127,7.431l7.701,2.381c0.557,0.172,0.991,0.586,1.19,1.134
	c0.199,0.547,0.134,1.143-0.183,1.635l-4.371,6.775l7.173,3.682c0.519,0.267,0.876,0.749,0.976,1.323
	c0.103,0.576-0.068,1.151-0.466,1.58l-5.48,5.912l6.425,4.873c0.464,0.353,0.732,0.89,0.732,1.473s-0.269,1.121-0.732,1.473
	l-6.425,4.871l5.48,5.913c0.397,0.43,0.568,1.004,0.466,1.581c-0.1,0.574-0.457,1.056-0.976,1.323l-7.173,3.683l4.371,6.776
	c0.316,0.491,0.382,1.085,0.183,1.633c-0.198,0.548-0.633,0.961-1.19,1.134l-7.701,2.383l3.127,7.429
	c0.226,0.538,0.186,1.137-0.104,1.642c-0.292,0.506-0.792,0.837-1.37,0.911l-7.999,1.006l1.79,7.86
	c0.125,0.552-0.006,1.123-0.357,1.565c-0.354,0.441-0.88,0.694-1.443,0.694l-0.095-0.002l-8.05-0.396l0.397,8.051
	c0.022,0.511-0.156,0.995-0.509,1.365c-0.443,0.466-1.121,0.672-1.751,0.529l-7.859-1.79l-1.007,7.999
	c-0.118,0.924-0.906,1.62-1.835,1.62c-0.245,0-0.488-0.049-0.718-0.146l-7.429-3.128l-2.383,7.703
	c-0.241,0.781-0.951,1.304-1.768,1.304c-0.354,0-0.701-0.103-1-0.295l-6.774-4.37l-3.683,7.171c-0.317,0.619-0.95,1.005-1.646,1.005
	c-0.469,0-0.913-0.176-1.258-0.494l-5.911-5.481l-4.872,6.425C81.013,159.629,80.476,159.896,79.893,159.896z M73.712,150.846
	l5.724,7.546c0.22,0.29,0.694,0.29,0.913,0l5.723-7.546l6.945,6.438c0.138,0.126,0.286,0.153,0.39,0.153
	c0.17,0,0.392-0.082,0.511-0.311l4.326-8.425l7.956,5.133c0.278,0.179,0.728,0.112,0.86-0.312l2.796-9.048l8.728,3.673
	c0.306,0.129,0.738-0.028,0.791-0.457l1.185-9.397l9.231,2.103c0.197,0.047,0.405-0.018,0.544-0.164
	c0.109-0.114,0.163-0.265,0.154-0.423l-0.464-9.457l9.458,0.465c0.001,0,0.002,0,0.002,0c0.206,0,0.365-0.079,0.475-0.215
	c0.064-0.081,0.164-0.25,0.11-0.484l-2.103-9.232l9.397-1.184c0.179-0.022,0.333-0.125,0.423-0.282
	c0.092-0.157,0.104-0.341,0.034-0.509l-3.675-8.729l9.049-2.797c0.171-0.054,0.307-0.183,0.37-0.351
	c0.06-0.17,0.038-0.354-0.061-0.506l-5.132-7.959l8.425-4.326c0.163-0.083,0.271-0.232,0.303-0.41
	c0.03-0.178-0.022-0.357-0.143-0.49l-6.439-6.945l7.548-5.724c0.143-0.109,0.226-0.275,0.226-0.456s-0.083-0.347-0.226-0.455
	l-7.548-5.725l6.439-6.945c0.12-0.132,0.173-0.312,0.143-0.489c-0.032-0.178-0.14-0.327-0.303-0.409l-8.425-4.326l5.135-7.958
	c0.096-0.151,0.117-0.337,0.058-0.506c-0.063-0.169-0.199-0.298-0.37-0.352l-9.049-2.797l3.675-8.729
	c0.069-0.167,0.058-0.353-0.034-0.509c-0.09-0.157-0.244-0.26-0.423-0.281l-9.397-1.184l2.103-9.234
	c0.054-0.233-0.046-0.403-0.11-0.483c-0.109-0.138-0.271-0.215-0.445-0.215l-9.489,0.466l0.464-9.459
	c0.009-0.157-0.045-0.308-0.154-0.422c-0.139-0.145-0.346-0.21-0.544-0.164l-9.231,2.102l-1.185-9.396
	c-0.053-0.427-0.486-0.587-0.791-0.456l-8.728,3.672l-2.796-9.047c-0.133-0.426-0.582-0.491-0.86-0.312l-7.956,5.133l-4.326-8.424
	c-0.119-0.229-0.341-0.312-0.511-0.312c-0.104,0-0.252,0.026-0.39,0.153l-6.945,6.438l-5.723-7.545
	c-0.219-0.289-0.693-0.289-0.913,0l-5.724,7.545l-6.944-6.438c-0.138-0.127-0.286-0.153-0.39-0.153c-0.168,0-0.392,0.082-0.51,0.312
	l-4.327,8.424l-7.958-5.133c-0.276-0.179-0.724-0.114-0.858,0.312l-2.796,9.047l-8.728-3.672c-0.305-0.125-0.735,0.03-0.79,0.456
	l-1.186,9.397l-9.231-2.102c-0.2-0.045-0.405,0.019-0.546,0.163c-0.107,0.114-0.161,0.265-0.152,0.422l0.464,9.459l-9.459-0.467
	H20.3c-0.206,0-0.365,0.079-0.474,0.215c-0.065,0.081-0.165,0.251-0.111,0.485l2.101,9.234l-9.396,1.184
	c-0.18,0.021-0.333,0.125-0.423,0.281c-0.092,0.156-0.104,0.341-0.032,0.509l3.673,8.729l-9.049,2.797
	c-0.174,0.054-0.307,0.183-0.37,0.352c-0.06,0.169-0.04,0.354,0.059,0.505l5.134,7.959l-8.425,4.326
	c-0.163,0.082-0.271,0.231-0.303,0.409c-0.032,0.177,0.021,0.356,0.145,0.488l6.436,6.946l-7.546,5.725
	c-0.143,0.109-0.226,0.275-0.226,0.455c0,0.181,0.083,0.347,0.226,0.456l7.546,5.724l-6.436,6.945
	c-0.123,0.133-0.177,0.311-0.145,0.49c0.032,0.178,0.14,0.327,0.303,0.41l8.425,4.326l-5.132,7.96
	c-0.099,0.151-0.12,0.335-0.061,0.504c0.063,0.169,0.196,0.298,0.37,0.352l9.049,2.797l-3.673,8.729
	c-0.071,0.167-0.06,0.354,0.032,0.509c0.09,0.156,0.243,0.259,0.423,0.282l9.396,1.184l-2.101,9.233
	c-0.054,0.234,0.046,0.403,0.111,0.484c0.108,0.138,0.271,0.216,0.444,0.216l9.489-0.465l-0.464,9.458
	c-0.009,0.158,0.045,0.309,0.152,0.423c0.141,0.146,0.346,0.21,0.546,0.164l9.231-2.103l1.186,9.397
	c0.055,0.428,0.482,0.585,0.79,0.456l8.728-3.673l2.796,9.048c0.135,0.424,0.582,0.49,0.858,0.312l7.958-5.133l4.327,8.425
	c0.118,0.229,0.342,0.311,0.512,0.311c0.102,0,0.25-0.026,0.388-0.153L73.712,150.846z"/>
<g>
	<path d="M142.261,77.72c-0.319-0.292-0.825-0.266-1.128,0.044c-0.305,0.311-0.293,0.79,0.025,1.081c0,0,3.134,3.078,3.965,3.983
		c0.302,0.328,0.808,0.355,1.128,0.043c0.321-0.311,0.334-0.84,0.03-1.169C146.281,81.703,143.136,78.519,142.261,77.72z"/>
	<path d="M142.307,80.833c-0.303-0.307-0.81-0.306-1.129-0.011c-0.319,0.295-0.33,0.774-0.026,1.081c0,0,2.977,3.229,3.763,4.173
		c0.287,0.344,0.788,0.395,1.124,0.1c0.336-0.294,0.377-0.822,0.091-1.167C146.129,85.009,143.142,81.675,142.307,80.833z"/>
	<path d="M142.204,83.946c-0.291-0.321-0.793-0.345-1.129-0.066c-0.334,0.279-0.369,0.756-0.082,1.079c0,0,2.813,3.37,3.551,4.353
		c0.271,0.358,0.769,0.434,1.118,0.154c0.351-0.277,0.419-0.803,0.15-1.16C145.813,88.305,142.993,84.826,142.204,83.946z"/>
	<path d="M141.944,87.047c-0.271-0.335-0.774-0.382-1.123-0.121c-0.348,0.263-0.407,0.737-0.137,1.072c0,0,2.642,3.507,3.33,4.524
		c0.25,0.372,0.746,0.472,1.108,0.211c0.365-0.259,0.458-0.781,0.208-1.154C145.331,91.58,142.688,87.967,141.944,87.047z"/>
	<path d="M141.531,90.134c-0.254-0.349-0.753-0.422-1.114-0.179c-0.359,0.244-0.445,0.717-0.191,1.064c0,0,2.46,3.635,3.101,4.685
		c0.229,0.385,0.721,0.51,1.096,0.267c0.377-0.241,0.495-0.758,0.265-1.142C144.687,94.829,142.229,91.088,141.531,90.134z"/>
	<path d="M140.964,93.194c-0.235-0.36-0.732-0.46-1.106-0.233c-0.37,0.225-0.476,0.692-0.241,1.053c0,0,2.276,3.752,2.861,4.834
		c0.211,0.395,0.693,0.544,1.08,0.321c0.389-0.222,0.533-0.732,0.321-1.125C143.879,98.044,141.615,94.182,140.964,93.194z"/>
	<path d="M140.243,96.223c-0.217-0.374-0.707-0.497-1.093-0.29c-0.381,0.207-0.513,0.667-0.293,1.04c0,0,2.084,3.863,2.614,4.973
		c0.192,0.405,0.667,0.577,1.063,0.376c0.401-0.204,0.569-0.706,0.378-1.11C142.913,101.212,140.845,97.242,140.243,96.223z"/>
	<path d="M139.372,99.21c-0.2-0.383-0.683-0.529-1.075-0.343c-0.392,0.187-0.547,0.641-0.347,1.023c0,0,1.889,3.962,2.364,5.098
		c0.17,0.414,0.636,0.612,1.043,0.429c0.408-0.182,0.603-0.676,0.43-1.091C141.787,104.327,139.921,100.258,139.372,99.21z"/>
	<path d="M138.353,102.15c-0.182-0.393-0.655-0.564-1.06-0.398c-0.399,0.168-0.574,0.613-0.396,1.006c0,0,1.693,4.053,2.105,5.211
		c0.151,0.421,0.608,0.642,1.021,0.479c0.417-0.163,0.636-0.646,0.484-1.067C140.508,107.382,138.847,103.227,138.353,102.15z"/>
	<path d="M137.185,105.036c-0.16-0.402-0.627-0.597-1.035-0.451c-0.41,0.149-0.608,0.583-0.446,0.986c0,0,1.487,4.134,1.841,5.31
		c0.131,0.429,0.574,0.671,0.997,0.53s0.665-0.613,0.534-1.042C139.075,110.369,137.626,106.133,137.185,105.036z"/>
	<path d="M135.876,107.858c-0.143-0.409-0.597-0.627-1.015-0.5c-0.416,0.127-0.633,0.554-0.493,0.962c0,0,1.277,4.202,1.575,5.396
		c0.109,0.436,0.541,0.7,0.97,0.579c0.43-0.118,0.692-0.579,0.585-1.016C137.498,113.279,136.255,108.978,135.876,107.858z"/>
	<path d="M134.423,110.613c-0.12-0.417-0.564-0.658-0.987-0.551c-0.42,0.106-0.658,0.521-0.536,0.937c0,0,1.063,4.262,1.304,5.468
		c0.088,0.44,0.504,0.728,0.94,0.628c0.43-0.099,0.722-0.546,0.632-0.986C135.775,116.109,134.75,111.749,134.423,110.613z"/>
	<path d="M132.838,113.291c-0.101-0.422-0.531-0.685-0.958-0.599c-0.426,0.085-0.683,0.489-0.583,0.909
		c0.146,0.643,0.853,4.309,1.032,5.528c0.067,0.445,0.466,0.751,0.905,0.674c0.439-0.078,0.746-0.51,0.681-0.954
		C133.915,118.849,133.105,114.441,132.838,113.291z"/>
	<path d="M131.118,115.887c-0.077-0.426-0.495-0.712-0.924-0.646c-0.432,0.065-0.706,0.454-0.626,0.88
		c0.116,0.651,0.636,4.348,0.756,5.574c0.037,0.442,0.424,0.768,0.871,0.717c0.441-0.055,0.77-0.471,0.725-0.92
		C131.92,121.492,131.33,117.049,131.118,115.887z"/>
	<path d="M129.276,118.395c-0.061-0.431-0.463-0.735-0.896-0.692c-0.43,0.045-0.726,0.419-0.666,0.85
		c0.091,0.66,0.422,4.375,0.48,5.605c0.01,0.439,0.381,0.785,0.831,0.758c0.448-0.029,0.794-0.432,0.772-0.882
		C129.799,124.033,129.429,119.564,129.276,118.395z"/>
	<path d="M127.31,120.807c-0.038-0.433-0.427-0.757-0.859-0.735c-0.431,0.023-0.744,0.384-0.707,0.817
		c0.063,0.669,0.208,4.396,0.2,5.619c-0.012,0.439,0.341,0.803,0.795,0.8c0.456-0.002,0.812-0.393,0.814-0.842
		C127.553,126.465,127.403,121.984,127.31,120.807z"/>
	<path d="M124.405,122.343c-0.433,0.002-0.763,0.348-0.746,0.782c0.032,0.673-0.007,4.405-0.082,5.619
		c-0.031,0.441,0.302,0.819,0.754,0.837c0.46,0.029,0.834-0.349,0.859-0.797c0,0,0.075-4.479,0.034-5.665
		C125.209,122.685,124.837,122.342,124.405,122.343z"/>
	<path d="M122.249,124.51c-0.433-0.019-0.778,0.311-0.783,0.747c0,0.674-0.218,4.402-0.363,5.603
		c-0.053,0.439,0.263,0.835,0.712,0.875c0.46,0.05,0.855-0.3,0.9-0.75c0,0,0.301-4.468,0.315-5.659
		C123.035,124.891,122.681,124.529,122.249,124.51z"/>
	<path d="M119.988,126.568c-0.431-0.04-0.793,0.273-0.818,0.707c-0.03,0.676-0.433,4.391-0.641,5.577
		c-0.074,0.435,0.22,0.847,0.666,0.908c0.453,0.072,0.874-0.249,0.938-0.702c0,0,0.524-4.442,0.593-5.636
		C120.752,126.986,120.417,126.608,119.988,126.568z"/>
	<path d="M117.628,128.511c-0.427-0.061-0.803,0.235-0.85,0.668c-0.07,0.668-0.649,4.369-0.923,5.534
		c-0.096,0.433,0.179,0.857,0.624,0.942c0.446,0.089,0.89-0.201,0.972-0.652c0,0,0.749-4.408,0.874-5.602
		C118.369,128.967,118.056,128.573,117.628,128.511z"/>
	<path d="M115.176,130.334c-0.424-0.081-0.813,0.196-0.883,0.628c0,0-0.866,4.326-1.197,5.478c-0.116,0.427,0.137,0.865,0.576,0.971
		c0.438,0.107,0.9-0.152,1.006-0.6c0,0,0.97-4.36,1.147-5.552C115.896,130.825,115.598,130.417,115.176,130.334z"/>
	<path d="M112.634,132.034c-0.415-0.102-0.819,0.156-0.909,0.583c0,0-1.086,4.273-1.471,5.41c-0.138,0.42,0.091,0.87,0.525,0.999
		c0.43,0.125,0.909-0.104,1.035-0.548c0,0,1.188-4.306,1.424-5.489C113.328,132.56,113.053,132.137,112.634,132.034z"/>
	<path d="M110.014,133.604c-0.412-0.122-0.825,0.119-0.938,0.538c0,0-1.301,4.212-1.74,5.328c-0.157,0.414,0.049,0.875,0.474,1.024
		c0.425,0.146,0.914-0.061,1.064-0.492c0,0,1.402-4.24,1.694-5.412C110.679,134.164,110.425,133.728,110.014,133.604z"/>
	<path d="M107.316,135.043c-0.405-0.145-0.827,0.082-0.964,0.487c0,0-1.508,4.139-2.004,5.233c-0.18,0.406,0.003,0.878,0.422,1.048
		c0.417,0.168,0.915-0.02,1.087-0.437c0,0,1.614-4.162,1.966-5.321C107.954,135.633,107.723,135.186,107.316,135.043z"/>
	<path d="M104.551,136.343c-0.399-0.166-0.827,0.045-0.987,0.438c0,0-1.715,4.056-2.264,5.127c-0.198,0.396-0.04,0.875,0.369,1.065
		c0.409,0.19,0.912,0.023,1.109-0.377c0,0,1.82-4.076,2.229-5.219C105.157,136.966,104.95,136.507,104.551,136.343z"/>
	<path d="M101.726,137.504c-0.39-0.186-0.829,0.006-1.011,0.385c0,0-1.914,3.965-2.518,5.007c-0.22,0.387-0.083,0.873,0.316,1.084
		c0.398,0.209,0.909,0.066,1.127-0.32c0,0,2.022-3.979,2.487-5.101C102.299,138.155,102.114,137.686,101.726,137.504z"/>
	<path d="M98.844,138.52c-0.379-0.202-0.829-0.038-1.028,0.332c0,0-2.112,3.866-2.769,4.878c-0.235,0.375-0.124,0.866,0.263,1.098
		c0.389,0.23,0.904,0.111,1.144-0.264c0,0,2.22-3.87,2.739-4.968C99.386,139.202,99.224,138.722,98.844,138.52z"/>
	<path d="M95.914,139.392c-0.367-0.221-0.824-0.081-1.042,0.278c0,0-2.305,3.754-3.009,4.731c-0.257,0.363-0.168,0.862,0.207,1.111
		c0.375,0.25,0.896,0.155,1.153-0.208c0,0,2.414-3.75,2.987-4.822C96.422,140.098,96.285,139.612,95.914,139.392z"/>
	<path d="M92.946,140.114c-0.355-0.235-0.82-0.122-1.056,0.226c0,0-2.49,3.635-3.242,4.574c-0.273,0.351-0.211,0.852,0.15,1.119
		c0.363,0.27,0.889,0.201,1.163-0.148c0,0,2.599-3.624,3.225-4.667C93.417,140.845,93.303,140.353,92.946,140.114z"/>
	<path d="M89.945,140.687c-0.345-0.254-0.814-0.163-1.066,0.173c0,0-2.667,3.506-3.466,4.408c-0.291,0.334-0.254,0.839,0.095,1.125
		c0.349,0.288,0.877,0.246,1.168-0.089c0,0,2.776-3.492,3.453-4.502C90.379,141.44,90.29,140.942,89.945,140.687z"/>
	<path d="M86.919,141.109c-0.333-0.275-0.805-0.203-1.075,0.12c0,0-2.838,3.371-3.681,4.23c-0.304,0.32-0.293,0.825,0.04,1.128
		c0.333,0.302,0.862,0.294,1.17-0.033c0,0,2.947-3.349,3.674-4.323C87.313,141.882,87.249,141.38,86.919,141.109z"/>
	<path d="M83.873,141.379c-0.318-0.293-0.793-0.239-1.078,0.069c0,0-3.002,3.23-3.886,4.044c-0.323,0.304-0.336,0.81-0.016,1.129
		c0.318,0.316,0.848,0.343,1.169,0.021c0,0,3.107-3.2,3.883-4.136C84.229,142.171,84.19,141.668,83.873,141.379z"/>
	<path d="M80.833,142.628c0.301-0.322,0.288-0.826-0.018-1.13c-0.302-0.307-0.779-0.281-1.08,0.02c0,0-3.155,3.08-4.078,3.848
		c-0.336,0.286-0.376,0.79-0.072,1.125c0.304,0.331,0.831,0.39,1.171,0.075C76.756,146.566,80.013,143.521,80.833,142.628z"/>
	<path d="M77.758,141.467c-0.285-0.318-0.764-0.327-1.079-0.028c0,0-3.305,2.921-4.263,3.639c-0.353,0.27-0.414,0.771-0.129,1.123
		c0.287,0.348,0.812,0.424,1.164,0.129c0,0,3.405-2.883,4.27-3.733C78.035,142.292,78.048,141.787,77.758,141.467z"/>
	<path d="M74.708,141.287c-0.273-0.333-0.75-0.368-1.078-0.08c0,0-3.446,2.752-4.438,3.422c-0.364,0.251-0.453,0.749-0.185,1.113
		c0.268,0.364,0.79,0.464,1.157,0.188c0,0,3.546-2.714,4.449-3.517C74.943,142.126,74.978,141.622,74.708,141.287z"/>
	<path d="M71.669,140.956c-0.256-0.346-0.729-0.405-1.072-0.134c0,0-3.58,2.579-4.604,3.197c-0.375,0.234-0.489,0.725-0.238,1.103
		c0.249,0.377,0.765,0.503,1.146,0.244c0,0,3.675-2.532,4.618-3.29C71.861,141.804,71.923,141.303,71.669,140.956z"/>
	<path d="M68.65,140.476c-0.237-0.359-0.707-0.443-1.063-0.19c0,0-3.704,2.398-4.758,2.964c-0.388,0.214-0.524,0.701-0.295,1.09
		c0.229,0.388,0.738,0.541,1.131,0.301c0,0,3.799-2.346,4.778-3.055C68.802,141.332,68.887,140.834,68.65,140.476z"/>
	<path d="M65.663,139.844c-0.219-0.37-0.686-0.478-1.055-0.243c0,0-3.819,2.207-4.9,2.72c-0.397,0.195-0.56,0.673-0.35,1.073
		c0.212,0.398,0.711,0.579,1.116,0.36c0,0,3.911-2.152,4.927-2.813C65.769,140.707,65.88,140.214,65.663,139.844z"/>
	<path d="M62.707,139.064c-0.199-0.382-0.66-0.511-1.04-0.295c0,0-3.923,2.009-5.028,2.469c-0.408,0.174-0.593,0.644-0.402,1.054
		c0.191,0.407,0.679,0.615,1.096,0.417c0,0,4.014-1.954,5.059-2.562C62.771,139.93,62.906,139.444,62.707,139.064z"/>
	<path d="M59.797,138.135c-0.181-0.39-0.636-0.541-1.023-0.348c0,0-4.018,1.809-5.147,2.213c-0.417,0.156-0.624,0.615-0.454,1.034
		c0.169,0.414,0.648,0.646,1.072,0.473c0,0,4.107-1.748,5.183-2.305C59.816,139.005,59.977,138.526,59.797,138.135z"/>
	<path d="M56.512,138.11c0.4-0.178,0.584-0.649,0.423-1.049c-0.158-0.399-0.606-0.567-1.002-0.4c0,0-4.103,1.604-5.254,1.954
		c-0.422,0.133-0.652,0.584-0.504,1.007c0.147,0.426,0.616,0.676,1.045,0.529C51.22,140.151,55.41,138.612,56.512,138.11z"/>
	<path d="M53.657,136.872c0.407-0.158,0.616-0.618,0.476-1.024c-0.14-0.409-0.581-0.594-0.981-0.453c0,0-4.178,1.392-5.345,1.688
		c-0.429,0.113-0.683,0.549-0.554,0.983c0.125,0.431,0.584,0.697,1.016,0.581C48.269,138.648,52.531,137.319,53.657,136.872z"/>
	<path d="M50.868,135.493c0.415-0.138,0.646-0.588,0.526-1.001c-0.119-0.414-0.553-0.617-0.957-0.504c0,0-4.243,1.184-5.423,1.422
		c-0.437,0.092-0.709,0.516-0.604,0.954c0.104,0.438,0.55,0.724,0.985,0.633C45.396,136.997,49.718,135.885,50.868,135.493z"/>
	<path d="M48.149,133.977c0.423-0.119,0.677-0.556,0.575-0.974c-0.098-0.416-0.518-0.649-0.928-0.553c0,0-4.295,0.968-5.488,1.152
		c-0.439,0.07-0.735,0.48-0.649,0.921c0.083,0.443,0.515,0.749,0.953,0.679C42.612,135.202,46.981,134.314,48.149,133.977z"/>
	<path d="M45.511,132.325c0.428-0.095,0.701-0.52,0.621-0.942c-0.08-0.417-0.481-0.678-0.896-0.601c0,0-4.333,0.75-5.539,0.877
		c-0.441,0.048-0.759,0.442-0.695,0.889c0.06,0.446,0.479,0.774,0.921,0.724C40.596,133.199,44.327,132.604,45.511,132.325z"/>
	<path d="M42.954,130.545c0.435-0.075,0.73-0.485,0.67-0.91c-0.063-0.417-0.442-0.706-0.863-0.647c0,0-4.363,0.528-5.578,0.601
		c-0.445,0.027-0.778,0.406-0.738,0.854c0.04,0.447,0.441,0.793,0.885,0.766C38.004,131.174,41.764,130.759,42.954,130.545z"/>
	<path d="M40.491,128.641c0.438-0.055,0.753-0.448,0.716-0.876c-0.043-0.417-0.403-0.735-0.83-0.692c0,0-4.381,0.309-5.601,0.325
		c-0.444,0.007-0.801,0.369-0.781,0.818c0.019,0.447,0.402,0.814,0.847,0.807C35.518,129.022,39.299,128.787,40.491,128.641z"/>
	<path d="M38.128,126.617c0.438-0.032,0.771-0.411,0.754-0.839c-0.024-0.418-0.357-0.762-0.791-0.736c0,0-4.386,0.088-5.61,0.05
		c-0.446-0.015-0.817,0.328-0.819,0.776c-0.003,0.448,0.36,0.831,0.807,0.846C33.145,126.746,36.935,126.698,38.128,126.617z"/>
	<path d="M35.866,124.478c0.438-0.01,0.791-0.374,0.794-0.8c0.003-0.426-0.318-0.779-0.751-0.776c0,0-4.382-0.133-5.608-0.229
		c-0.444-0.038-0.832,0.288-0.857,0.735c-0.024,0.448,0.322,0.848,0.767,0.886C30.887,124.354,34.677,124.493,35.866,124.478z"/>
	<path d="M33.711,122.229c0.441,0.011,0.81-0.333,0.833-0.759c0.032-0.433-0.277-0.795-0.708-0.815c0,0-4.37-0.351-5.593-0.505
		c-0.441-0.059-0.844,0.246-0.893,0.691c-0.045,0.446,0.283,0.862,0.725,0.922C28.753,121.853,32.53,122.179,33.711,122.229z"/>
	<path d="M31.672,119.876c0.437,0.035,0.822-0.291,0.873-0.717c0.057-0.433-0.24-0.809-0.667-0.851c0,0-4.35-0.564-5.562-0.78
		c-0.439-0.081-0.857,0.204-0.926,0.644c-0.07,0.444,0.238,0.875,0.678,0.956C26.744,119.25,30.498,119.763,31.672,119.876z"/>
	<path d="M29.754,117.423c0.429,0.061,0.83-0.245,0.908-0.673c0.078-0.43-0.201-0.82-0.625-0.881c0,0-4.318-0.779-5.518-1.056
		c-0.438-0.101-0.868,0.162-0.956,0.599c-0.091,0.437,0.194,0.885,0.63,0.987C24.866,116.552,28.587,117.253,29.754,117.423z"/>
	<path d="M27.963,114.878c0.423,0.082,0.839-0.205,0.938-0.628c0.099-0.425-0.159-0.827-0.581-0.911c0,0-4.276-0.99-5.459-1.325
		c-0.433-0.125-0.877,0.116-0.985,0.55c-0.114,0.432,0.151,0.892,0.583,1.015C22.459,113.578,26.804,114.65,27.963,114.878z"/>
	<path d="M26.3,112.246c0.419,0.105,0.85-0.161,0.969-0.58c0.119-0.418-0.119-0.833-0.539-0.937c0,0-4.224-1.202-5.387-1.597
		c-0.425-0.144-0.879,0.075-1.012,0.5c-0.132,0.426,0.109,0.899,0.532,1.043C20.863,110.675,25.151,111.963,26.3,112.246z"/>
	<path d="M24.769,109.537c0.413,0.123,0.858-0.119,0.997-0.533c0.138-0.411-0.079-0.837-0.492-0.962c0,0-4.162-1.41-5.302-1.863
		c-0.416-0.166-0.884,0.03-1.035,0.45c-0.153,0.419,0.064,0.901,0.481,1.067C19.418,107.695,23.635,109.197,24.769,109.537z"/>
	<path d="M23.375,106.753c0.407,0.145,0.862-0.076,1.021-0.481c0.16-0.404-0.037-0.839-0.445-0.984c0,0-4.082-1.617-5.201-2.125
		c-0.408-0.188-0.883-0.015-1.056,0.396c-0.174,0.411,0.021,0.904,0.429,1.09C18.123,104.647,22.26,106.356,23.375,106.753z"/>
	<path d="M22.124,103.903c0.398,0.166,0.863-0.032,1.043-0.431c0.18-0.393,0.006-0.839-0.396-1.003c0,0-3.999-1.821-5.089-2.387
		c-0.4-0.205-0.884-0.058-1.074,0.344c-0.195,0.402-0.026,0.903,0.373,1.11C16.981,101.538,21.029,103.453,22.124,103.903z"/>
	<path d="M21.014,100.995c0.393,0.185,0.868,0.009,1.066-0.376c0.197-0.387,0.046-0.839-0.347-1.023c0,0-3.9-2.018-4.964-2.638
		c-0.386-0.226-0.878-0.103-1.09,0.289c-0.214,0.391-0.068,0.9,0.318,1.128C15.998,98.375,19.946,100.489,21.014,100.995z"/>
	<path d="M20.054,98.036c0.383,0.202,0.864,0.053,1.082-0.323c0.219-0.375,0.087-0.834-0.295-1.04c0,0-3.793-2.212-4.825-2.882
		c-0.376-0.247-0.871-0.146-1.103,0.232c-0.234,0.38-0.114,0.897,0.261,1.143C15.174,95.166,19.011,97.476,20.054,98.036z"/>
	<path d="M19.242,95.031c0.373,0.222,0.86,0.098,1.097-0.268c0.237-0.363,0.129-0.83-0.242-1.053c0,0-3.678-2.401-4.674-3.123
		c-0.365-0.264-0.864-0.191-1.115,0.178c-0.25,0.368-0.157,0.89,0.205,1.154C14.513,91.92,18.23,94.42,19.242,95.031z"/>
	<path d="M18.583,91.987c0.359,0.243,0.855,0.142,1.109-0.211c0.254-0.353,0.168-0.822-0.189-1.063c0,0-3.554-2.581-4.513-3.352
		c-0.349-0.282-0.852-0.233-1.121,0.122c-0.271,0.354-0.206,0.88,0.146,1.162C14.016,88.646,17.602,91.328,18.583,91.987z"/>
	<path d="M18.076,88.917c0.348,0.259,0.847,0.182,1.12-0.156c0.268-0.338,0.211-0.813-0.137-1.073c0,0-3.422-2.754-4.34-3.571
		c-0.335-0.298-0.839-0.274-1.128,0.067c-0.285,0.34-0.245,0.871,0.089,1.168C13.681,85.352,17.129,88.208,18.076,88.917z"/>
	<path d="M17.723,85.825c0.333,0.275,0.837,0.224,1.126-0.1c0.288-0.325,0.251-0.802-0.083-1.079c0,0-3.277-2.921-4.155-3.782
		c-0.32-0.314-0.824-0.316-1.129,0.011c-0.302,0.327-0.291,0.856,0.029,1.171C13.511,82.046,16.811,85.07,17.723,85.825z"/>
	<path d="M17.523,82.718c0.319,0.292,0.823,0.267,1.128-0.045c0.306-0.31,0.291-0.789-0.027-1.08c0,0-3.133-3.08-3.963-3.983
		c-0.305-0.331-0.81-0.355-1.128-0.044c-0.321,0.31-0.334,0.841-0.03,1.17C13.503,78.736,16.648,81.918,17.523,82.718z"/>
	<path d="M17.475,79.604c0.306,0.309,0.81,0.308,1.13,0.012c0.318-0.296,0.332-0.774,0.027-1.082c0,0-2.977-3.229-3.762-4.171
		c-0.288-0.345-0.79-0.396-1.125-0.101c-0.338,0.295-0.376,0.823-0.09,1.168C13.655,75.43,16.641,78.762,17.475,79.604z"/>
	<path d="M17.58,76.492c0.29,0.322,0.793,0.345,1.127,0.066c0.333-0.278,0.37-0.756,0.081-1.077c0,0-2.81-3.372-3.551-4.354
		c-0.268-0.358-0.767-0.434-1.117-0.156c-0.351,0.278-0.417,0.804-0.148,1.162C13.972,72.134,16.791,75.611,17.58,76.492z"/>
	<path d="M17.839,73.39c0.271,0.335,0.772,0.385,1.122,0.123c0.349-0.264,0.407-0.737,0.139-1.072c0,0-2.642-3.508-3.333-4.524
		c-0.25-0.372-0.743-0.473-1.108-0.211c-0.365,0.259-0.455,0.782-0.205,1.152C14.453,68.857,17.095,72.472,17.839,73.39z"/>
	<path d="M18.253,70.304c0.254,0.35,0.753,0.423,1.114,0.179c0.359-0.245,0.445-0.715,0.191-1.064c0,0-2.463-3.635-3.101-4.686
		c-0.231-0.383-0.723-0.508-1.099-0.266c-0.374,0.241-0.494,0.757-0.262,1.141C15.098,65.608,17.555,69.35,18.253,70.304z"/>
	<path d="M18.817,67.243c0.239,0.361,0.732,0.46,1.106,0.234c0.371-0.227,0.479-0.691,0.243-1.053c0,0-2.276-3.753-2.86-4.835
		c-0.212-0.395-0.695-0.544-1.083-0.321c-0.387,0.222-0.533,0.732-0.319,1.127C15.904,62.396,18.17,66.255,18.817,67.243z"/>
	<path d="M19.538,64.215c0.22,0.373,0.71,0.496,1.093,0.29c0.383-0.208,0.513-0.668,0.296-1.04c0,0-2.087-3.863-2.615-4.972
		c-0.192-0.405-0.666-0.579-1.065-0.375c-0.396,0.203-0.566,0.705-0.375,1.11C16.871,59.228,18.939,63.196,19.538,64.215z"/>
	<path d="M20.411,61.227c0.199,0.383,0.683,0.531,1.073,0.344c0.395-0.188,0.549-0.641,0.349-1.023c0,0-1.89-3.964-2.363-5.098
		c-0.17-0.414-0.637-0.612-1.043-0.429c-0.408,0.182-0.603,0.676-0.431,1.09C17.996,56.111,19.863,60.179,20.411,61.227z"/>
	<path d="M21.432,58.288c0.18,0.393,0.655,0.565,1.057,0.398c0.401-0.168,0.576-0.613,0.396-1.005c0,0-1.69-4.054-2.104-5.211
		c-0.149-0.421-0.605-0.642-1.021-0.48c-0.417,0.162-0.635,0.646-0.483,1.067C19.276,53.056,20.937,57.213,21.432,58.288z"/>
	<path d="M22.599,55.402c0.161,0.402,0.625,0.597,1.036,0.449c0.409-0.147,0.605-0.583,0.444-0.984c0,0-1.345-3.677-1.842-5.311
		c-0.129-0.429-0.572-0.671-0.995-0.53c-0.423,0.14-0.666,0.613-0.535,1.043C20.707,50.07,22.158,54.304,22.599,55.402z"/>
	<path d="M23.908,52.58c0.143,0.409,0.597,0.627,1.014,0.5c0.414-0.127,0.634-0.552,0.492-0.962c0,0-1.276-4.204-1.574-5.396
		c-0.11-0.436-0.539-0.7-0.969-0.579c-0.43,0.12-0.692,0.579-0.585,1.015C22.286,47.158,23.526,51.461,23.908,52.58z"/>
	<path d="M25.358,49.825c0.123,0.417,0.564,0.657,0.988,0.551c0.42-0.107,0.657-0.521,0.537-0.937c0,0-1.063-4.262-1.306-5.469
		c-0.087-0.441-0.502-0.726-0.938-0.627c-0.433,0.098-0.722,0.544-0.633,0.986C24.008,44.33,25.033,48.689,25.358,49.825z"/>
	<path d="M26.945,47.147c0.102,0.422,0.531,0.686,0.956,0.6c0.428-0.086,0.685-0.489,0.586-0.91
		c-0.149-0.642-0.853-4.31-1.033-5.528c-0.066-0.443-0.466-0.75-0.907-0.672c-0.436,0.077-0.744,0.508-0.68,0.953
		C25.867,41.589,26.677,45.997,26.945,47.147z"/>
	<path d="M28.663,44.552c0.079,0.426,0.498,0.71,0.927,0.646c0.43-0.065,0.706-0.456,0.626-0.88
		c-0.116-0.652-0.638-4.348-0.759-5.574c-0.035-0.442-0.423-0.768-0.87-0.717c-0.44,0.056-0.768,0.473-0.724,0.92
		C27.863,38.946,28.452,43.389,28.663,44.552z"/>
	<path d="M30.507,42.044c0.062,0.431,0.463,0.735,0.896,0.69c0.43-0.042,0.725-0.419,0.666-0.85
		c-0.091-0.659-0.422-4.375-0.479-5.604c-0.011-0.439-0.381-0.784-0.834-0.76c-0.446,0.032-0.792,0.434-0.77,0.884
		C29.985,36.406,30.355,40.874,30.507,42.044z"/>
	<path d="M32.475,39.631c0.037,0.433,0.425,0.758,0.858,0.735c0.431-0.023,0.745-0.384,0.708-0.817
		c-0.064-0.668-0.21-4.395-0.2-5.618c0.012-0.441-0.341-0.804-0.795-0.8c-0.454,0.001-0.813,0.392-0.814,0.841
		C32.231,33.972,32.381,38.454,32.475,39.631z"/>
	<path d="M35.378,38.095c0.434,0,0.764-0.348,0.746-0.782c-0.031-0.672,0.006-4.405,0.083-5.619
		c0.031-0.439-0.303-0.819-0.755-0.837c-0.462-0.029-0.833,0.349-0.858,0.797c0,0-0.077,4.479-0.034,5.666
		C34.574,37.753,34.944,38.096,35.378,38.095z"/>
	<path d="M37.535,35.928c0.432,0.019,0.775-0.311,0.781-0.745c0-0.676,0.222-4.404,0.365-5.605c0.052-0.438-0.263-0.833-0.714-0.874
		c-0.457-0.05-0.855,0.3-0.899,0.75c0,0-0.301,4.467-0.314,5.658C36.749,35.547,37.103,35.908,37.535,35.928z"/>
	<path d="M39.796,33.871c0.429,0.039,0.79-0.273,0.815-0.708c0.032-0.676,0.436-4.391,0.644-5.576
		c0.076-0.436-0.221-0.847-0.666-0.909c-0.453-0.071-0.876,0.25-0.938,0.702c0,0-0.527,4.442-0.594,5.636
		C39.029,33.451,39.366,33.83,39.796,33.871z"/>
	<path d="M42.156,31.927c0.424,0.061,0.801-0.234,0.85-0.668c0.068-0.668,0.648-4.369,0.92-5.534
		c0.097-0.432-0.178-0.856-0.621-0.94c-0.447-0.091-0.891,0.201-0.972,0.651c0,0-0.751,4.408-0.874,5.602
		C41.412,31.472,41.729,31.865,42.156,31.927z"/>
	<path d="M44.607,30.103c0.425,0.083,0.813-0.195,0.881-0.626c0,0,0.869-4.326,1.199-5.478c0.114-0.427-0.136-0.865-0.575-0.972
		c-0.438-0.107-0.9,0.153-1.006,0.6c0,0-0.971,4.361-1.149,5.554C43.889,29.612,44.186,30.021,44.607,30.103z"/>
	<path d="M47.148,28.404c0.417,0.102,0.819-0.155,0.911-0.584c0,0,1.084-4.272,1.471-5.409c0.136-0.42-0.094-0.87-0.526-0.998
		c-0.429-0.124-0.91,0.104-1.036,0.547c0,0-1.188,4.305-1.423,5.489C46.454,27.877,46.729,28.301,47.148,28.404z"/>
	<path d="M49.77,26.833c0.413,0.124,0.826-0.118,0.938-0.536c0,0,1.3-4.21,1.742-5.328c0.159-0.413-0.049-0.874-0.476-1.023
		c-0.426-0.146-0.913,0.06-1.063,0.491c0,0-1.402,4.24-1.696,5.413C49.105,26.274,49.359,26.71,49.77,26.833z"/>
	<path d="M52.466,25.395c0.407,0.146,0.828-0.082,0.966-0.488c0,0,1.508-4.138,2.004-5.233c0.18-0.405-0.006-0.876-0.422-1.046
		c-0.418-0.169-0.915,0.019-1.088,0.436c0,0-1.613,4.162-1.965,5.321C51.83,24.804,52.061,25.252,52.466,25.395z"/>
	<path d="M55.231,24.095c0.399,0.166,0.828-0.045,0.988-0.436c0,0,1.713-4.058,2.266-5.127c0.198-0.397,0.037-0.877-0.37-1.067
		c-0.411-0.19-0.912-0.023-1.109,0.378c0,0-1.822,4.076-2.229,5.218C54.627,23.472,54.834,23.931,55.231,24.095z"/>
	<path d="M58.059,22.934c0.39,0.187,0.828-0.005,1.009-0.384c0,0,1.917-3.966,2.52-5.007c0.217-0.387,0.083-0.874-0.316-1.084
		c-0.398-0.212-0.909-0.066-1.129,0.32c0,0-2.023,3.979-2.485,5.1C57.484,22.283,57.669,22.752,58.059,22.934z"/>
	<path d="M60.938,21.917c0.379,0.204,0.83,0.038,1.027-0.331c0,0,2.113-3.865,2.769-4.876c0.235-0.375,0.126-0.869-0.26-1.099
		c-0.39-0.23-0.906-0.111-1.144,0.264c0,0-2.223,3.87-2.742,4.968C60.398,21.237,60.561,21.716,60.938,21.917z"/>
	<path d="M63.869,21.045c0.367,0.221,0.824,0.082,1.041-0.278c0,0,2.307-3.755,3.011-4.731c0.255-0.363,0.169-0.861-0.206-1.11
		c-0.376-0.25-0.898-0.156-1.154,0.206c0,0-2.414,3.752-2.987,4.823C63.362,20.34,63.499,20.826,63.869,21.045z"/>
	<path d="M66.838,20.323c0.355,0.238,0.82,0.124,1.054-0.225c0,0,2.49-3.635,3.243-4.576c0.273-0.349,0.212-0.851-0.15-1.118
		c-0.362-0.269-0.889-0.201-1.163,0.148c0,0-2.598,3.625-3.224,4.667C66.367,19.593,66.481,20.085,66.838,20.323z"/>
	<path d="M69.839,19.751c0.344,0.255,0.813,0.164,1.066-0.173c0,0,2.667-3.507,3.466-4.408c0.291-0.335,0.254-0.839-0.095-1.124
		c-0.347-0.288-0.878-0.246-1.168,0.088c0,0-2.776,3.492-3.454,4.501C69.405,18.998,69.494,19.495,69.839,19.751z"/>
	<path d="M72.865,19.33c0.332,0.273,0.805,0.201,1.074-0.121c0,0,2.839-3.372,3.68-4.23c0.308-0.319,0.295-0.825-0.038-1.127
		c-0.334-0.302-0.864-0.293-1.171,0.034c0,0-2.946,3.349-3.673,4.322C72.472,18.555,72.534,19.057,72.865,19.33z"/>
	<path d="M75.91,19.06c0.316,0.293,0.794,0.239,1.079-0.069c0,0,3.002-3.231,3.883-4.043c0.323-0.304,0.337-0.81,0.018-1.129
		c-0.318-0.316-0.847-0.341-1.17-0.021c0,0-3.107,3.201-3.881,4.136C75.555,18.266,75.594,18.771,75.91,19.06z"/>
	<path d="M78.949,17.811c-0.3,0.32-0.286,0.824,0.017,1.129c0.305,0.307,0.781,0.283,1.081-0.02c0,0,3.157-3.08,4.078-3.848
		c0.338-0.288,0.376-0.791,0.073-1.125c-0.305-0.331-0.831-0.389-1.17-0.076C83.028,13.872,79.77,16.917,78.949,17.811z"/>
	<path d="M82.024,18.971c0.287,0.319,0.766,0.327,1.08,0.03c0,0,3.305-2.922,4.264-3.641c0.352-0.269,0.414-0.771,0.129-1.122
		c-0.288-0.349-0.813-0.426-1.166-0.131c0,0-3.406,2.884-4.268,3.734C81.748,18.146,81.736,18.652,82.024,18.971z"/>
	<path d="M85.076,19.152c0.271,0.332,0.747,0.368,1.078,0.08c0,0,3.446-2.753,4.438-3.422c0.364-0.252,0.451-0.75,0.182-1.115
		c-0.266-0.363-0.788-0.463-1.154-0.186c0,0-3.546,2.712-4.451,3.516C84.841,18.314,84.807,18.817,85.076,19.152z"/>
	<path d="M88.115,19.482c0.254,0.347,0.729,0.406,1.072,0.135c0,0,3.579-2.579,4.603-3.198c0.377-0.233,0.488-0.726,0.24-1.104
		c-0.25-0.377-0.767-0.503-1.146-0.244c0,0-3.677,2.533-4.619,3.29C87.921,18.633,87.859,19.135,88.115,19.482z"/>
	<path d="M91.133,19.963c0.238,0.358,0.708,0.443,1.063,0.19c0,0,3.703-2.397,4.758-2.963c0.388-0.214,0.524-0.701,0.293-1.09
		c-0.229-0.388-0.738-0.541-1.131-0.302c0,0-3.8,2.346-4.776,3.055C90.982,19.106,90.896,19.604,91.133,19.963z"/>
	<path d="M94.123,20.595c0.217,0.37,0.683,0.478,1.053,0.243c0,0,3.816-2.206,4.9-2.721c0.396-0.194,0.56-0.673,0.349-1.073
		c-0.213-0.398-0.711-0.579-1.115-0.36c0,0-3.913,2.153-4.927,2.812C94.016,19.732,93.904,20.224,94.123,20.595z"/>
	<path d="M97.077,21.375c0.199,0.381,0.658,0.511,1.038,0.295c0,0,3.925-2.009,5.03-2.47c0.406-0.174,0.593-0.646,0.402-1.054
		c-0.191-0.406-0.679-0.616-1.096-0.417c0,0-4.016,1.955-5.059,2.562C97.012,20.507,96.876,20.995,97.077,21.375z"/>
	<path d="M99.987,22.304c0.179,0.39,0.633,0.54,1.021,0.347c0,0,4.02-1.808,5.149-2.213c0.416-0.155,0.624-0.615,0.453-1.033
		c-0.169-0.414-0.648-0.647-1.071-0.473c0,0-4.107,1.75-5.184,2.306C99.966,21.434,99.808,21.914,99.987,22.304z"/>
	<path d="M103.271,22.329c-0.398,0.178-0.584,0.648-0.421,1.048c0.155,0.4,0.606,0.567,0.999,0.401c0,0,4.105-1.603,5.254-1.955
		c0.425-0.134,0.655-0.582,0.506-1.009c-0.148-0.424-0.615-0.674-1.044-0.528C108.564,20.286,104.373,21.827,103.271,22.329z"/>
	<path d="M106.127,23.566c-0.409,0.159-0.617,0.619-0.476,1.025c0.137,0.41,0.581,0.594,0.979,0.454c0,0,4.18-1.394,5.345-1.69
		c0.431-0.113,0.683-0.55,0.556-0.982c-0.128-0.432-0.585-0.7-1.017-0.582C111.515,21.791,107.253,23.118,106.127,23.566z"/>
	<path d="M108.917,24.946c-0.417,0.138-0.648,0.588-0.527,1c0.12,0.416,0.552,0.619,0.956,0.503c0,0,4.241-1.182,5.423-1.421
		c0.435-0.092,0.71-0.516,0.604-0.954c-0.105-0.438-0.553-0.724-0.985-0.632C114.388,23.442,110.065,24.553,108.917,24.946z"/>
	<path d="M111.633,26.462c-0.421,0.117-0.675,0.556-0.573,0.973c0.1,0.417,0.518,0.65,0.928,0.553c0,0,4.295-0.968,5.486-1.15
		c0.439-0.07,0.735-0.48,0.651-0.922c-0.083-0.443-0.515-0.75-0.954-0.678C117.171,25.237,112.803,26.127,111.633,26.462z"/>
	<path d="M114.273,28.113c-0.429,0.096-0.701,0.521-0.621,0.942c0.081,0.417,0.479,0.678,0.895,0.601c0,0,4.335-0.75,5.541-0.877
		c0.441-0.049,0.757-0.443,0.695-0.889c-0.063-0.447-0.479-0.774-0.921-0.724C119.188,27.239,115.456,27.833,114.273,28.113z"/>
	<path d="M116.827,29.893c-0.434,0.075-0.728,0.485-0.67,0.911c0.064,0.417,0.445,0.706,0.866,0.648c0,0,4.361-0.531,5.575-0.604
		c0.445-0.027,0.781-0.406,0.738-0.853c-0.038-0.448-0.438-0.794-0.884-0.769C121.78,29.262,118.019,29.679,116.827,29.893z"/>
	<path d="M119.291,31.797c-0.437,0.054-0.751,0.45-0.715,0.876c0.044,0.418,0.402,0.735,0.831,0.693c0,0,4.381-0.309,5.601-0.327
		c0.444-0.005,0.798-0.368,0.779-0.815c-0.017-0.45-0.402-0.815-0.848-0.81C124.266,31.417,120.484,31.649,119.291,31.797z"/>
	<path d="M121.691,35.397c0,0,4.388-0.089,5.611-0.051c0.447,0.016,0.818-0.327,0.82-0.776c0.003-0.448-0.362-0.832-0.808-0.848
		c-0.677-0.03-4.467,0.019-5.659,0.098c-0.439,0.033-0.772,0.413-0.756,0.84C120.925,35.08,121.26,35.421,121.691,35.397z"/>
	<path d="M129.481,37.764c0.446,0.038,0.834-0.287,0.856-0.734c0.029-0.448-0.319-0.848-0.765-0.886
		c-0.677-0.062-4.466-0.198-5.655-0.185c-0.439,0.012-0.791,0.374-0.795,0.802c-0.002,0.425,0.316,0.78,0.75,0.777
		C123.873,37.538,128.254,37.67,129.481,37.764z"/>
	<path d="M131.538,40.288c0.444,0.059,0.847-0.246,0.893-0.691c0.048-0.445-0.28-0.862-0.725-0.922
		c-0.675-0.091-4.452-0.416-5.633-0.467c-0.441-0.009-0.812,0.335-0.834,0.76c-0.034,0.433,0.278,0.796,0.709,0.816
		C125.948,39.784,130.318,40.133,131.538,40.288z"/>
	<path d="M128.112,40.563c-0.437-0.036-0.824,0.29-0.873,0.718c-0.057,0.433,0.239,0.809,0.666,0.85c0,0,4.351,0.564,5.563,0.779
		c0.439,0.081,0.857-0.204,0.925-0.646c0.07-0.442-0.238-0.873-0.677-0.955C133.039,41.188,129.286,40.675,128.112,40.563z"/>
	<path d="M130.028,43.015c-0.429-0.061-0.831,0.246-0.908,0.675s0.2,0.818,0.626,0.879c0,0,4.319,0.78,5.518,1.056
		c0.436,0.102,0.867-0.162,0.957-0.599c0.091-0.438-0.194-0.885-0.63-0.986C134.917,43.887,131.195,43.185,130.028,43.015z"/>
	<path d="M131.821,45.561c-0.426-0.082-0.842,0.204-0.941,0.628c-0.098,0.424,0.162,0.826,0.584,0.91c0,0,4.275,0.992,5.459,1.327
		c0.432,0.124,0.876-0.118,0.985-0.55c0.114-0.433-0.154-0.893-0.584-1.016C137.324,46.86,132.98,45.787,131.821,45.561z"/>
	<path d="M133.484,48.191c-0.419-0.103-0.85,0.162-0.969,0.581c-0.118,0.419,0.119,0.833,0.537,0.938c0,0,4.223,1.202,5.389,1.597
		c0.424,0.145,0.878-0.073,1.012-0.5c0.132-0.426-0.108-0.898-0.532-1.044C138.921,49.762,134.632,48.475,133.484,48.191z"/>
	<path d="M135.016,50.902c-0.416-0.124-0.857,0.119-0.998,0.531c-0.138,0.413,0.078,0.838,0.493,0.962c0,0,4.16,1.411,5.302,1.865
		c0.416,0.165,0.882-0.03,1.035-0.449c0.153-0.42-0.066-0.903-0.483-1.069C140.364,52.742,136.149,51.241,135.016,50.902z"/>
	<path d="M136.409,53.686c-0.41-0.145-0.862,0.075-1.022,0.48c-0.157,0.405,0.037,0.84,0.445,0.985c0,0,4.083,1.617,5.202,2.128
		c0.407,0.185,0.882,0.013,1.056-0.398c0.174-0.41-0.021-0.904-0.431-1.089C141.659,55.792,137.524,54.081,136.409,53.686z"/>
	<path d="M137.66,56.535c-0.4-0.165-0.864,0.033-1.043,0.428c-0.18,0.396-0.006,0.84,0.396,1.006c0,0,3.997,1.819,5.089,2.385
		c0.399,0.206,0.884,0.058,1.076-0.343c0.191-0.401,0.024-0.903-0.376-1.11C142.802,58.901,138.754,56.986,137.66,56.535z"/>
	<path d="M138.77,59.443c-0.392-0.185-0.867-0.011-1.066,0.375s-0.045,0.839,0.347,1.025c0,0,3.9,2.018,4.964,2.637
		c0.387,0.226,0.878,0.102,1.091-0.289c0.214-0.391,0.068-0.901-0.32-1.127C143.784,62.064,139.838,59.949,138.77,59.443z"/>
	<path d="M139.73,62.402c-0.383-0.204-0.865-0.054-1.084,0.323c-0.216,0.375-0.086,0.834,0.297,1.039c0,0,3.793,2.212,4.822,2.884
		c0.376,0.246,0.873,0.146,1.104-0.235c0.235-0.378,0.115-0.896-0.262-1.141C144.608,65.273,140.771,62.961,139.73,62.402z"/>
	<path d="M140.542,65.408c-0.373-0.223-0.863-0.098-1.097,0.267c-0.237,0.365-0.129,0.83,0.242,1.053c0,0,3.678,2.4,4.674,3.123
		c0.362,0.264,0.864,0.189,1.114-0.178c0.251-0.369,0.157-0.89-0.204-1.155C145.271,68.517,141.553,66.018,140.542,65.408z"/>
	<path d="M141.2,68.449c-0.358-0.241-0.854-0.141-1.109,0.211c-0.256,0.352-0.17,0.823,0.19,1.064c0,0,3.554,2.581,4.511,3.352
		c0.351,0.281,0.854,0.232,1.122-0.122c0.272-0.355,0.204-0.881-0.147-1.163C145.767,71.792,142.183,69.11,141.2,68.449z"/>
	<path d="M141.708,71.52c-0.351-0.258-0.847-0.183-1.119,0.157c-0.271,0.338-0.212,0.813,0.136,1.072c0,0,3.422,2.754,4.338,3.572
		c0.337,0.299,0.841,0.275,1.127-0.066c0.288-0.34,0.248-0.869-0.086-1.168C146.104,75.086,142.654,72.229,141.708,71.52z"/>
	<path d="M142.06,74.612c-0.333-0.276-0.835-0.225-1.124,0.101c-0.288,0.324-0.253,0.802,0.083,1.078c0,0,3.278,2.921,4.154,3.782
		c0.321,0.315,0.825,0.315,1.13-0.01c0.302-0.327,0.291-0.857-0.032-1.172C146.271,78.391,142.971,75.367,142.06,74.612z"/>
</g>
<path d="M76.419,98.293c-1.611,0.267-3.193,0.711-4.729,1.319c5.432,2.157,11.217,2.125,16.643,0.008
	C84.489,98.105,80.419,97.636,76.419,98.293z"/>
<path d="M111.954,72.25c-2.366-8.819-8.079-15.846-15.406-20.076c-7.323-4.229-16.265-5.663-25.087-3.299
	c-8.262,2.214-14.951,7.369-19.243,14.036c-0.499,0.775-0.966,1.569-1.402,2.382c-3.786,7.129-4.985,15.655-2.729,24.074
	c2.362,8.819,8.078,15.844,15.404,20.077c7.324,4.227,16.269,5.661,25.087,3.299c1.872-0.503,3.659-1.152,5.354-1.935
	c1.186-0.548,2.329-1.161,3.421-1.832c-1.548-2.672-3.715-4.988-6.361-6.718c-0.569,0.291-1.153,0.563-1.746,0.806
	c-0.651,0.27-1.309,0.51-1.977,0.721c-0.714,0.227-1.444,0.419-2.178,0.579c-5.424,1.173-10.86,0.407-15.548-1.86
	c-0.919-0.445-1.797-0.942-2.647-1.497c-4.601-2.986-8.198-7.534-9.912-13.137c-0.24-0.786-0.441-1.583-0.604-2.391
	c-1.171-5.903-0.056-11.802,2.775-16.708c2.554-4.416,6.764-8.185,11.678-10.277c-1.108,1.893,0.463,3.46,1.168,3.955
	c-4.021,1.748-7.247,4.717-9.335,8.34c-2.495,4.318-3.383,9.564-2.111,14.771c0.051,0.21,0.105,0.417,0.161,0.625
	c0.091,0.325,0.191,0.646,0.297,0.962c2.025-1.207,4.162-2.222,6.389-3.027c0.084-0.69,0.16-1.253,0.226-1.485
	c0.239-0.847,0.565-2.677,0.377-4.838c-0.187-2.162,0-1.95,0.234-3.053c0.169-0.773,2.067-3.375,2.962-4.558
	c0.85-1.127,0.187-4.651,0.421-5.215c0.182-0.431,0.471-1.086,1.236-1.428c0.789,1.341,2.304,2.607,2.97,3.339
	c0,0,3.402,3.001,4.652-0.13c0,0,0.746-1.577,0.816-5.97c0,0-0.034-1.11,0.159-1.84c0,0,1.165-1.076,1.131-1.999
	c0.815,0.065,0.997,0.078,1.972,0.474c1.035,0.597,2.003,1.198,3.394,2.734c0.142,1.175,0.678,1.955,2.887,3.082
	c2.206,1.126,3.478,1.549,3.9,1.972c0.423,0.422,0.095,1.74,0,2.162c-0.096,0.422-0.658,0.516-0.658,0.516s0.047,0.657-0.379,1.411
	c-0.423,0.751-1.594,0.564-1.832,0.659c-0.703,0.565-1.075,0.375-1.595,0.799c-0.519,0.423-0.938,0.515-1.456,0.443
	c-0.519-0.068-0.926,0.021-0.926,0.021s-0.743,0.286-1.391,0.286c-0.644,0-1.159-0.235-1.585-0.307
	c-0.422-0.068-0.324,0.869-0.324,1.058c0,0.19,1.22,1.457,1.243,3.196c0.022,1.736,0.188,4.603,0.666,6.014
	c0.101,0.288,0.223,0.664,0.367,1.084c0.615,0.117,1.233,0.249,1.855,0.397c0.798,0.194,1.594,0.413,2.384,0.66
	c2.825,0.883,5.478,2.079,7.926,3.537c0.486-1.463,0.807-2.993,0.946-4.564c0.201-2.275,0.016-4.624-0.61-6.95
	c-0.659-2.459-1.705-4.775-3.441-6.864c1.704-3.384-0.416-4.587-0.416-4.587c-1.693-0.611-4.728-2.372-4.988-2.947
	c-0.718-1.58-1.784-2.428-2.554-3.156c1.421,0.499,2.789,1.127,4.089,1.877c5.342,3.088,9.512,8.206,11.231,14.628
	c0.753,2.805,0.978,5.623,0.739,8.349c-0.201,2.258-0.724,4.461-1.533,6.551c2.56,1.951,4.842,4.214,6.788,6.72
	c1.671-3.182,2.836-6.639,3.404-10.235C113.387,81.53,113.189,76.879,111.954,72.25z M80.94,56.896
	c0.966,0.163-0.412,1.496-0.672,1.755c-0.262,0.26,0.026,2.741-0.05,4.053c-0.077,1.315-0.684,3.288-1.995,3.682
	c-1.309,0.398-2.422-1.357-2.893-1.871c-0.112-0.125-0.273-0.327-0.46-0.568l0,0l0,0c-0.451-0.587-1.063-1.416-1.579-2.01
	c-0.166-0.193-0.324-0.361-0.459-0.486c-0.737-0.683-0.798-2.058-0.284-2.528c0.381-0.346,0.925-0.892,3.16-1.747
	C75.709,57.175,78.009,56.399,80.94,56.896z M80.435,63.931h0.003l0,0H80.435z M80.988,58.31L80.988,58.31L80.988,58.31
	L80.988,58.31z"/>
<path d="M107.009,99.931c-4.074-5.765-10.003-10.262-17.217-12.487c-0.357-0.113-0.718-0.216-1.081-0.315l-4.079-4.938
	c0.004,0.001,0.011,0.002,0.014,0.002c-0.091-0.11-0.16-0.196-0.191-0.25c-0.048-0.078-0.138-0.168-0.25-0.268
	c-0.441-0.395-1.253-0.953-1.603-1.732c-0.438-0.976-1.757-3.414-2.246-3.853c-0.484-0.438-2.976-2.974-2.976-2.974
	s-0.168-0.144-0.293-0.683c-0.204-0.916-1.412-3.806-1.753-2.203c-0.341,1.602-0.685,1.909-1.464,2.007
	c-0.778,0.097-1.757,1.121-1.757,1.121s0,0-0.245,0.586c-0.242,0.584-0.924,0.877-1.071,1.317c-0.146,0.438,0.147,0.976,0.245,1.221
	c0.098,0.242,0.196,1.267,0.436,1.453c0.245,0.186,1.709,0.106,2.54,0.009c0.829-0.097,1.657,0.534,1.756,0.975
	c0.086,0.377-0.594,2.168-0.939,3.343c0.013-0.001,0.018-0.003,0.026-0.003c-0.265,0.552-0.603,1.851,0.36,4.045h0.003
	c-0.284,0.042-0.565,0.087-0.848,0.135c-4.168,0.725-8.133,2.241-11.691,4.429c1.591,2.748,3.788,5.027,6.363,6.711
	c2.436-1.245,5.085-2.083,7.837-2.445c2.581-0.338,5.251-0.266,7.913,0.273c1.123,0.229,2.231,0.538,3.308,0.921
	c4.761,1.691,8.697,4.762,11.475,8.638c0.377,0.524,0.715,1.075,1.048,1.628C103.052,104.68,105.2,102.438,107.009,99.931z"/>
</svg>
