<svg width="150" height="150" viewBox="0 0 150 150" fill="none" xmlns="http://www.w3.org/2000/svg">
<g clip-path="url(#clip0_9407_8028)">
<path d="M150.285 73.6069L144.39 69.1345L149.42 63.7097C149.823 63.2742 149.996 62.6887 149.893 62.1023C149.79 61.5183 149.429 61.0266 148.899 60.7551L142.315 57.3759L146.329 51.1589C146.65 50.6606 146.717 50.0522 146.513 49.493C146.309 48.9356 145.868 48.5151 145.302 48.3398L138.233 46.155L141.102 39.3356C141.332 38.7891 141.294 38.1787 140.998 37.6622C140.698 37.148 140.189 36.8114 139.601 36.7378L132.26 35.8125L133.904 28.5984C134.029 28.0369 133.897 27.4556 133.538 27.0061C133.18 26.5565 132.644 26.2973 132.061 26.2973L124.586 26.6639L124.95 19.2736C124.974 18.7528 124.79 18.2592 124.432 17.8847C123.984 17.415 123.284 17.2036 122.65 17.3465L115.436 18.9876L114.513 11.6461C114.393 10.7072 113.59 9.99843 112.645 9.99843C112.393 9.99843 112.147 10.0486 111.913 10.147L105.096 13.0162L102.909 5.94749C102.664 5.15343 101.941 4.61999 101.108 4.61999C100.747 4.61999 100.394 4.72405 100.09 4.92139L93.8708 8.93155L90.4954 2.34889C90.1729 1.71889 89.5312 1.32655 88.8187 1.32655C88.3429 1.32655 87.8901 1.50421 87.5408 1.82858L82.1127 6.85733L77.6427 0.963269C77.2823 0.489832 76.7357 0.217957 76.1423 0.217957C75.5488 0.217957 75.0018 0.4903 74.6418 0.963269L70.1713 6.85733L64.7446 1.82858C64.3959 1.50468 63.9412 1.32655 63.4659 1.32655C62.7552 1.32655 62.1126 1.71936 61.7896 2.34983L58.4095 8.93155L52.192 4.92186C51.8868 4.72499 51.5343 4.62046 51.1715 4.62046C50.3409 4.62046 49.6171 5.15389 49.371 5.94842L47.1871 13.0144L40.3696 10.1466C40.1352 10.0476 39.8896 9.99796 39.6393 9.99796C38.692 9.99796 37.889 10.7067 37.7723 11.6461L36.847 18.9876L29.6329 17.3451C28.9996 17.2045 28.2984 17.4141 27.8502 17.8842C27.4921 18.2611 27.3093 18.7551 27.3341 19.274L27.6984 26.6634L20.3043 26.2978L20.2138 26.2955C19.6377 26.2955 19.101 26.5542 18.7429 27.0056C18.3843 27.4556 18.2512 28.0364 18.3777 28.5989L20.0202 35.812L12.6796 36.7369C12.0895 36.8109 11.5818 37.1475 11.2846 37.6631C10.9879 38.1773 10.9495 38.7867 11.1796 39.3366L14.0488 46.155L6.98102 48.3398C6.41289 48.5142 5.96945 48.9356 5.76695 49.4944C5.56352 50.0526 5.63242 50.6587 5.95539 51.1594L9.96508 57.3764L3.38383 60.7565C2.85461 61.028 2.49227 61.5211 2.39055 62.1047C2.28695 62.6901 2.45898 63.2756 2.86305 63.712L7.89133 69.1392L1.99633 73.6111C1.52383 73.9687 1.25195 74.5158 1.25195 75.1097C1.25195 75.7036 1.5243 76.2492 1.99633 76.6097L7.89133 81.0801L2.86305 86.5055C2.45945 86.9447 2.28695 87.5306 2.39055 88.1152C2.49227 88.7006 2.85602 89.1909 3.38383 89.4623L9.96508 92.8406L5.95539 99.0614C5.63336 99.5601 5.56352 100.165 5.76695 100.723C5.96992 101.28 6.41289 101.701 6.98102 101.88L14.0512 104.066L11.1815 110.883C10.9495 111.433 10.9879 112.042 11.286 112.555C11.5827 113.072 12.0918 113.409 12.6805 113.482L20.0207 114.405L18.3787 121.62C18.2516 122.182 18.3838 122.764 18.7434 123.212C19.1024 123.662 19.6373 123.922 20.2204 123.922L27.6984 123.558L27.3341 130.945C27.3093 131.464 27.4921 131.959 27.8493 132.336C28.3007 132.807 28.9996 133.021 29.6329 132.874L36.8455 131.23L37.7709 138.572C37.888 139.513 38.6905 140.223 39.6379 140.223C39.8873 140.223 40.1334 140.172 40.3696 140.075L47.188 137.204L49.3729 144.272C49.6199 145.066 50.3423 145.599 51.1743 145.599C51.5357 145.599 51.8877 145.495 52.1934 145.298L58.4104 141.287L61.7905 147.869C62.1144 148.5 62.7566 148.891 63.4668 148.891C63.9416 148.891 64.3949 148.715 64.7437 148.389L70.1704 143.361L74.6408 149.256C74.9999 149.729 75.5474 150.001 76.1413 150.001C76.7352 150.001 77.2809 149.729 77.6437 149.256L82.1132 143.361L87.5366 148.389C87.8882 148.713 88.3424 148.891 88.8168 148.891C89.5298 148.891 90.171 148.5 90.493 147.869L93.8718 141.287L100.09 145.298C100.396 145.495 100.749 145.599 101.11 145.599C101.939 145.599 102.663 145.066 102.909 144.272L105.096 137.204L111.914 140.075C112.149 140.172 112.394 140.223 112.645 140.223C113.59 140.223 114.395 139.513 114.514 138.572L115.436 131.23L122.65 132.874C123.277 133.013 123.982 132.806 124.432 132.336C124.791 131.961 124.971 131.467 124.95 130.945L124.586 123.558L131.978 123.92L132.068 123.922C132.644 123.922 133.18 123.664 133.538 123.214C133.898 122.762 134.03 122.182 133.904 121.62L132.26 114.405L139.602 113.482C140.19 113.408 140.699 113.072 140.998 112.555C141.295 112.039 141.334 111.43 141.104 110.883L138.233 104.066L145.302 101.88C145.872 101.703 146.312 101.281 146.513 100.725C146.719 100.163 146.65 99.5611 146.329 99.0614L142.316 92.8406L148.9 89.4623C149.431 89.1909 149.791 88.6997 149.894 88.1152C149.998 87.5292 149.824 86.9433 149.42 86.5055L144.391 81.0825L150.286 76.6097C150.761 76.2497 151.033 75.7022 151.033 75.1097C151.033 74.5139 150.761 73.9669 150.285 73.6069ZM149.383 75.4176L142.303 80.7867L142.174 80.8851L148.323 87.5189C148.408 87.6108 148.444 87.7331 148.423 87.8512C148.401 87.9755 148.327 88.0744 148.217 88.1297L140.168 92.2641L145.072 99.8667C145.14 99.9694 145.153 100.094 145.114 100.208C145.07 100.324 144.978 100.412 144.861 100.449L136.373 103.073L136.218 103.121L139.728 111.46C139.775 111.573 139.767 111.699 139.705 111.805C139.642 111.912 139.538 111.981 139.418 111.994L130.602 113.107L130.439 113.129L132.447 121.947C132.483 122.108 132.417 122.222 132.373 122.275C132.296 122.372 132.184 122.423 132.049 122.423L123.014 121.978L123.458 131.011C123.466 131.122 123.427 131.225 123.351 131.301C123.259 131.398 123.124 131.443 122.984 131.411L114.163 129.402L113.032 138.379C112.994 138.69 112.687 138.775 112.495 138.69L104.158 135.183L101.486 143.824C101.41 144.075 101.205 144.103 101.122 144.103C101.044 144.103 100.965 144.077 100.9 144.037L93.2994 139.134L89.1684 147.181C89.0873 147.337 88.9359 147.393 88.8201 147.393C88.7202 147.393 88.6335 147.359 88.5562 147.288L82.0405 141.248L81.9205 141.138L76.4526 148.346C76.3129 148.527 75.9712 148.527 75.8348 148.346L70.3663 141.137L63.7316 147.288C63.6379 147.375 63.5366 147.393 63.4691 147.393C63.3538 147.393 63.2019 147.338 63.1227 147.183L58.9898 139.134L51.3876 144.038C51.3229 144.078 51.2446 144.103 51.1654 144.103C51.0824 144.103 50.8809 144.074 50.803 143.826L48.1321 135.183L39.7935 138.69C39.5999 138.776 39.2962 138.689 39.2573 138.381L38.1257 129.403L29.3038 131.412C29.1721 131.442 29.0287 131.399 28.9345 131.301C28.8609 131.223 28.8229 131.121 28.829 131.013L29.2743 121.979L20.2162 122.424C20.0976 122.424 19.9879 122.371 19.9143 122.277C19.8707 122.222 19.8027 122.108 19.8393 121.949L21.8465 113.129L12.869 111.997C12.7466 111.981 12.6416 111.913 12.5812 111.806C12.5212 111.699 12.5123 111.574 12.5601 111.462L16.0691 103.121L7.42586 100.451C7.30726 100.413 7.21539 100.327 7.17414 100.211C7.13289 100.096 7.14648 99.9726 7.21305 99.8705L12.0285 92.4019L12.1171 92.2664L4.06867 88.1325C3.95898 88.0762 3.88398 87.9736 3.86336 87.8545C3.84227 87.7327 3.87836 87.6117 3.96133 87.5222L10.1109 80.8875L2.90055 75.4172C2.80258 75.3436 2.74633 75.2306 2.74633 75.1083C2.74633 74.9859 2.80258 74.873 2.90102 74.7984L10.109 69.33L3.96039 62.6939C3.87648 62.6034 3.84039 62.483 3.86195 62.363C3.88398 62.2416 3.95852 62.1412 4.06727 62.085L12.1157 57.9525L7.21164 50.348C7.14461 50.2462 7.13148 50.1216 7.1732 50.0048C7.21492 49.8891 7.3068 49.8028 7.42445 49.7658L16.0677 47.0934L12.5587 38.7548C12.5109 38.6423 12.5198 38.5148 12.5798 38.408C12.6402 38.3025 12.7462 38.2322 12.8685 38.2167L21.8451 37.087L19.8388 28.2651C19.8041 28.1142 19.8595 28.0026 19.9138 27.9351C19.9912 27.8391 20.1009 27.7903 20.2368 27.7903L29.2743 28.2356L28.829 19.1986C28.8243 19.0908 28.8609 18.9886 28.9335 18.9126C29.0273 18.8147 29.1712 18.7687 29.3038 18.8006L37.9654 20.7712L38.1257 20.8073L39.2573 11.8303C39.2952 11.527 39.6018 11.4403 39.7935 11.52L48.1326 15.0295L50.804 6.38577C50.8574 6.21233 50.9934 6.10921 51.1654 6.10921C51.2437 6.10921 51.3229 6.13171 51.3876 6.17389L58.9912 11.077L63.1237 3.02858C63.2029 2.87249 63.3548 2.81671 63.4701 2.81671C63.5699 2.81671 63.6585 2.85139 63.7326 2.92124L70.3677 9.07124L75.8357 1.86233C75.9721 1.68186 76.3176 1.68186 76.454 1.86233L81.921 9.07124L88.5552 2.9203C88.6312 2.85186 88.7212 2.81577 88.8205 2.81577C88.9368 2.81577 89.0868 2.87155 89.1684 3.02764L93.2259 10.9303L93.2999 11.0761L100.904 6.17249C100.967 6.13077 101.044 6.1078 101.125 6.1078C101.297 6.1078 101.434 6.20999 101.488 6.38296L104.11 14.8697L104.159 15.0267L112.497 11.5162C112.689 11.4347 112.996 11.5209 113.034 11.8261L114.144 20.6414L114.166 20.8041L122.988 18.7959C123.114 18.7664 123.26 18.8081 123.356 18.9094C123.429 18.9853 123.466 19.0861 123.462 19.1939L123.017 28.2309L132.074 27.7856C132.194 27.7856 132.302 27.8391 132.377 27.9328C132.421 27.9862 132.488 28.0997 132.451 28.26L130.478 36.9216L130.443 37.0819L139.421 38.212C139.544 38.2275 139.646 38.2969 139.708 38.4033C139.771 38.5097 139.777 38.6358 139.731 38.7497L136.221 47.0887L144.865 49.7606C144.983 49.7967 145.073 49.8844 145.115 49.9983C145.157 50.115 145.143 50.242 145.078 50.3437L140.26 57.8109L140.172 57.9478L148.221 62.0803C148.332 62.1366 148.405 62.2355 148.427 62.3569C148.449 62.4783 148.412 62.5992 148.329 62.6897L142.178 69.3248L149.386 74.7928C149.484 74.8678 149.541 74.9794 149.541 75.1031C149.537 75.2301 149.48 75.3431 149.383 75.4176Z" fill="#FAF0B6"/>
<path d="M115.288 75.1078C115.288 53.5223 97.7264 35.963 76.1414 35.963C54.5564 35.963 36.9971 53.5237 36.9971 75.1078C36.9971 96.6923 54.5574 114.252 76.1414 114.252C97.7264 114.252 115.288 96.6923 115.288 75.1078ZM76.1419 112.293C55.6383 112.293 38.9593 95.6123 38.9593 75.1083C38.9593 54.6047 55.6383 37.9251 76.1419 37.9251C96.6436 37.9251 113.325 54.6061 113.325 75.1083C113.325 95.6123 96.6436 112.293 76.1419 112.293Z" fill="#FAF0B6"/>
<path d="M93.4274 77.4436L78.3726 87.9436L77.9634 88.5244C77.9634 88.5244 77.2059 89.0358 76.1404 89.7544C75.0759 89.0358 74.3202 88.5244 74.3202 88.5244L73.911 87.9436L58.8566 77.4436C58.8566 77.4436 58.0091 78.9403 63.0388 82.9237C66.1232 85.3683 70.5121 89.0779 73.4488 91.5858C72.8245 92.0133 72.2006 92.4445 71.6329 92.8364C69.0435 94.6279 66.3534 97.6181 66.2048 97.6664C66.0567 97.7151 64.7095 95.6255 63.7645 95.3011C62.8181 94.9767 61.4245 95.279 60.1795 96.2962C58.934 97.3172 58.086 100.008 59.6568 101.577C61.2252 103.147 63.8151 101.801 65.0348 100.805C66.2559 99.8109 71.2106 95.0278 72.0084 94.5258C72.8038 94.0298 75.6946 94.2783 75.6946 94.2783C75.6946 94.2783 75.8615 94.14 76.1395 93.8972C76.4207 94.1414 76.5857 94.2783 76.5857 94.2783C76.5857 94.2783 79.476 94.0308 80.2706 94.5258C81.0665 95.0269 86.0254 99.81 87.2451 100.805C88.4657 101.8 91.0527 103.148 92.6221 101.577C94.191 100.005 93.3435 97.3172 92.1013 96.2962C90.8563 95.2805 89.459 94.9767 88.5135 95.3011C87.5681 95.625 86.2227 97.7151 86.0765 97.6664C85.9237 97.6181 83.2345 94.6294 80.6484 92.8364C80.0816 92.4445 79.4582 92.0179 78.8301 91.5858C81.771 89.0775 86.1571 85.3673 89.2424 82.9237C94.2716 78.9408 93.4274 77.4436 93.4274 77.4436ZM63.8212 100.352C62.7646 101.334 61.2102 101.381 60.3482 100.459C59.4881 99.5353 59.6479 97.9889 60.7045 97.0017C61.7582 96.0244 63.3135 95.9775 64.1746 96.8967C65.0362 97.822 64.8777 99.3684 63.8212 100.352ZM88.1081 96.8967C88.9687 95.9765 90.5249 96.0239 91.5787 97.0012C92.6371 97.9889 92.7946 99.5353 91.9368 100.458C91.0734 101.382 89.5204 101.334 88.4634 100.352C87.4059 99.3684 87.2484 97.822 88.1081 96.8967Z" fill="#FAF0B6"/>
<path d="M71.9238 64.5563C71.1682 66.1931 71.4002 67.5731 69.6518 68.5359C67.6141 69.6652 66.9668 72.3192 67.5391 74.415C68.3149 77.2388 70.8147 77.872 73.3985 76.965C74.2779 76.657 75.2355 76.2234 76.1824 76.2122C78.3944 76.1775 79.7749 78.2456 82.121 77.1539C83.8212 76.3505 84.9405 74.5566 84.9405 72.6713C84.9405 70.6055 83.5399 69.2156 81.8833 68.2172C81.5927 68.0405 81.3658 67.8169 81.1868 67.5619C80.5376 66.6441 80.4687 65.3325 79.8818 64.3575C79.0127 62.9109 77.6351 62.1314 75.9415 62.1314C74.3144 62.1295 72.618 63.0506 71.9238 64.5563Z" fill="#FAF0B6"/>
<path d="M69.3898 67.3153C71.0192 66.3225 71.0909 63.4711 69.5497 60.9445C68.0089 58.4194 65.4402 57.1777 63.8127 58.17C62.188 59.1624 62.1177 62.0147 63.6575 64.5394C65.1964 67.0659 67.7656 68.3105 69.3898 67.3153Z" fill="#FAF0B6"/>
<path d="M73.1746 61.3805C75.0402 60.9933 76.0686 58.3313 75.4682 55.4339C74.8658 52.5399 72.8689 50.4999 71.0047 50.8917C69.1391 51.2761 68.1107 53.9381 68.7116 56.8359C69.3093 59.7342 71.3099 61.7653 73.1746 61.3805Z" fill="#FAF0B6"/>
<path d="M82.8936 67.3153C84.5168 68.3095 87.0847 67.0659 88.624 64.5398C90.1681 62.0147 90.0997 59.1628 88.4712 58.1705C86.8456 57.1791 84.2773 58.4199 82.7389 60.945C81.1986 63.4716 81.2637 66.323 82.8936 67.3153Z" fill="#FAF0B6"/>
<path d="M79.1126 61.3805C80.9801 61.7649 82.9784 59.7338 83.5741 56.8359C84.1765 53.9381 83.1527 51.2761 81.2843 50.8917C79.4168 50.4999 77.4181 52.5399 76.8176 55.4339C76.2209 58.3313 77.2432 60.9942 79.1126 61.3805Z" fill="#FAF0B6"/>
<path d="M49.2618 112.543C49.199 112.534 49.0869 112.665 49.1132 112.726L49.2937 112.884C49.7193 113.256 49.6593 113.376 49.093 114.206L47.1899 117C46.6241 117.83 46.5168 117.954 46.0279 117.676L45.8216 117.559C45.7527 117.557 45.6735 117.71 45.704 117.765C46.1071 118.017 46.3785 118.19 46.6926 118.404C47.023 118.628 47.2841 118.82 47.6657 119.101C47.728 119.109 47.8401 118.978 47.8143 118.916L47.6287 118.765C47.1932 118.41 47.2677 118.267 47.834 117.436L49.7371 114.643C50.3034 113.812 50.3938 113.713 50.8949 113.974L51.1077 114.083C51.186 114.067 51.2563 113.933 51.2254 113.877C50.8223 113.625 50.5509 113.452 50.2209 113.225C49.9035 113.016 49.6438 112.826 49.2618 112.543Z" fill="#FAF0B6"/>
<path d="M44.0493 116.004C44.0432 115.707 44.167 115.55 44.3423 115.35L46.1479 113.283C46.4469 112.94 47.203 112.061 47.5288 111.889C47.6334 111.842 47.7852 111.899 47.9694 112.02L48.1804 112.166C48.2615 112.161 48.3421 112.056 48.3229 111.977C48.0609 111.772 47.8616 111.61 47.5598 111.349C47.2959 111.117 47.0507 110.891 46.7418 110.595C46.6616 110.586 46.5782 110.668 46.5707 110.761L46.7741 110.977C46.9401 111.149 47.0465 111.316 47.0212 111.432C46.9546 111.754 46.1493 112.691 45.8563 113.027L44.4937 114.585C44.3062 114.8 44.1557 114.958 44.0521 115.019L44.038 115.008C44.0249 114.719 44.0507 113.707 44.0521 113.315L44.0418 109.976C44.0385 108.724 44.0488 108.292 44.069 108.095C43.9907 108.026 43.9162 108.026 43.8651 108.056C43.724 108.26 42.9805 109.113 42.7935 109.327L41.2996 111.036C41.0127 111.364 40.2515 112.264 39.9046 112.416C39.8263 112.447 39.6327 112.38 39.3726 112.215L39.2601 112.141C39.1809 112.148 39.0927 112.248 39.119 112.334C39.374 112.535 39.5666 112.693 39.8741 112.958C40.146 113.196 40.3827 113.417 40.6991 113.718C40.7751 113.743 40.882 113.635 40.8698 113.547L40.7605 113.425C40.5065 113.142 40.4296 112.998 40.4432 112.897C40.4943 112.563 41.2996 111.626 41.5935 111.29L42.9299 109.757C43.0602 109.609 43.1615 109.492 43.221 109.483L43.2346 109.495C43.2707 110.131 43.2721 110.839 43.2848 111.821L43.2979 113.208C43.303 113.678 43.3232 115.36 43.1469 115.85C43.2529 115.921 43.3809 116.022 43.4948 116.121C43.6227 116.235 44.0029 116.565 44.2855 116.85C44.3676 116.867 44.4613 116.76 44.4566 116.678L44.3474 116.557C44.1899 116.389 44.0624 116.19 44.0493 116.004Z" fill="#FAF0B6"/>
<path d="M38.7903 110.211C38.5424 110.283 38.3202 110.345 38.0136 110.306C37.693 110.265 37.3428 109.878 37.0794 109.566L36.7419 109.165C36.5582 108.947 36.5661 108.942 36.7906 108.751L40.0377 106.014C40.8008 105.372 40.94 105.316 41.3258 105.699L41.5682 105.943C41.6539 105.969 41.7655 105.853 41.7496 105.788C41.3436 105.336 41.1219 105.088 40.8772 104.798C40.633 104.508 40.4319 104.255 40.0972 103.829C40.0386 103.804 39.8952 103.898 39.9036 103.968L40.0771 104.218C40.3963 104.67 40.2992 104.776 39.5357 105.419L36.3031 108.144C36.0636 108.346 36.0622 108.36 35.8794 108.142L35.4449 107.626C35.1083 107.225 34.9335 106.9 34.9171 106.629C34.9058 106.453 35.1308 106.175 35.2935 106C35.3066 105.928 35.2021 105.803 35.12 105.824C34.9208 106.029 34.2894 106.475 33.9238 106.644C33.9069 106.685 33.9678 106.77 34.0128 106.795C34.2927 106.745 34.363 106.798 34.6939 107.19L37.1741 110.132C37.4558 110.466 37.6653 110.7 37.4694 110.939C37.4661 110.979 37.5528 111.067 37.5861 111.076C37.9199 110.883 38.4763 110.6 38.9 110.442C38.9324 110.363 38.8836 110.231 38.7903 110.211Z" fill="#FAF0B6"/>
<path d="M33.968 103.718L36.8498 101.887C37.6903 101.353 37.8361 101.317 38.167 101.748L38.3588 101.995C38.4375 102.014 38.5556 101.917 38.5486 101.851C38.2317 101.39 38.0512 101.123 37.8319 100.779L37.3734 100.059C36.9211 99.3459 36.4763 98.6283 36.0333 97.8989C35.7506 97.9303 35.0077 98.1234 34.6917 98.2462C34.6411 98.3222 34.687 98.4516 34.763 98.4797C35.3109 98.4248 35.7295 98.4623 35.9002 98.5556C36.0998 98.6747 36.2798 98.8861 36.6717 99.5034C37.1194 100.209 37.1395 100.432 37.1044 100.59C37.0491 100.805 36.7927 101.002 36.368 101.27L35.2388 101.987C35.0311 102.12 35.0072 102.101 34.8539 101.86L34.5586 101.396C34.3598 101.083 34.2459 100.885 34.2066 100.754C34.1452 100.569 34.2295 100.436 34.3542 100.314L34.62 100.042C34.6425 99.9708 34.5562 99.8348 34.4803 99.8376C34.3041 99.9539 34.0195 100.178 33.7317 100.362C33.428 100.554 33.0961 100.721 32.903 100.844C32.8673 100.909 32.9541 101.043 33.0267 101.052L33.3961 100.908C33.6211 100.82 33.7055 100.845 33.7983 100.923C33.892 100.998 34.0655 101.236 34.2787 101.572L34.5745 102.037C34.7269 102.278 34.7433 102.302 34.5187 102.445L32.917 103.462C32.6133 103.655 32.5959 103.665 32.4445 103.426L32.0775 102.85C31.8544 102.497 31.6992 102.236 31.6322 102.042C31.4719 101.561 31.7067 101.31 32.0067 100.949C32.0287 100.879 31.9317 100.762 31.8628 100.76C31.5305 101.017 30.9839 101.43 30.8789 101.565C30.9642 101.646 31.2647 102.119 31.59 102.63L32.5467 104.137C32.7562 104.464 32.9213 104.742 33.1242 105.097C33.1786 105.128 33.3323 105.053 33.3337 104.986L33.2691 104.848C33.0258 104.341 33.135 104.248 33.968 103.718Z" fill="#FAF0B6"/>
<path d="M30.6815 98.1637L33.7762 96.7331C34.6828 96.3145 34.8019 96.2794 35.0929 96.7528L35.2176 96.9572C35.3025 96.9806 35.4234 96.9042 35.4258 96.839C35.2209 96.4425 35.069 96.1369 34.9022 95.7745C34.7428 95.4314 34.6158 95.1337 34.454 94.7386C34.4044 94.6964 34.2501 94.7465 34.2309 94.8173L34.2895 95.0119C34.4517 95.543 34.3556 95.6076 33.45 96.0262L32.3639 96.5278C32.1825 96.6117 32.1656 96.5991 31.9865 96.21C31.8272 95.865 31.8497 95.6873 31.979 95.4703C32.2439 95.0236 32.6747 94.3945 32.8908 94.0237C33.4786 93.0094 33.4898 92.468 33.1523 91.7348C33.0764 91.5712 32.9953 91.4419 32.9339 91.3758C32.8795 91.3491 32.8139 91.3884 32.8162 91.44C32.9067 91.6809 32.9128 91.9411 32.85 92.1478C32.6292 92.9616 32.1501 93.7364 31.357 94.942C31.3073 95.0161 31.2408 95.0995 31.17 95.0794C30.7983 94.7287 30.0501 94.2886 29.2308 94.6683C28.628 94.9458 28.379 95.4281 28.3551 95.94C28.3228 96.4364 28.514 96.9651 28.7606 97.4991C29.1511 98.3442 29.4534 98.9283 29.7187 99.3895C29.7853 99.443 29.9231 99.3797 29.9386 99.3L29.8458 99.008C29.7262 98.6353 29.8622 98.542 30.6815 98.1637ZM29.5701 97.8201C29.3292 97.9303 29.2828 97.9205 29.0344 97.3856C28.5914 96.4289 29.0442 95.7075 29.7253 95.3934C30.3117 95.1206 30.705 95.1811 30.9933 95.3283C31.2984 95.4914 31.4845 95.8017 31.6284 96.113C31.8314 96.5526 31.874 96.6895 31.86 96.7289C31.8375 96.7711 31.7423 96.8142 31.5886 96.8869L29.5701 97.8201Z" fill="#FAF0B6"/>
<path d="M32.1757 90.5915C32.2896 90.6079 32.3857 90.7373 32.4734 90.9394L32.5723 91.1775C32.6436 91.2159 32.7678 91.169 32.7954 91.094C32.6843 90.7781 32.6032 90.5358 32.4926 90.1509C32.3942 89.8125 32.3112 89.4909 32.21 89.0756C32.1453 89.0269 32.0342 89.0479 31.9761 89.1239L32.0304 89.415C32.0792 89.6484 32.0768 89.8462 31.9925 89.9315C31.7637 90.1655 30.5801 90.5179 30.1498 90.644L28.159 91.2206C27.8857 91.2998 27.672 91.3504 27.5525 91.3462L27.5478 91.3279C27.6926 91.0781 28.2626 90.2405 28.474 89.9114L30.2698 87.097C30.9429 86.039 31.1867 85.6828 31.3095 85.529C31.2814 85.4273 31.22 85.3861 31.159 85.3823C30.9303 85.4798 29.8437 85.7953 29.5695 85.874L27.3898 86.505C26.9698 86.6283 25.8429 86.9747 25.4689 86.9133C25.385 86.8997 25.2589 86.7384 25.1281 86.4581L25.0737 86.3339C25.0025 86.2959 24.8759 86.3325 24.8506 86.4187C24.9589 86.7211 25.0371 86.9545 25.1511 87.3464C25.2509 87.6942 25.332 88.0083 25.4361 88.4334C25.4848 88.5019 25.6334 88.4667 25.67 88.3865L25.6437 88.2267C25.5837 87.8484 25.595 87.6862 25.6625 87.6075C25.8861 87.3553 27.0706 87.0028 27.499 86.8781L29.4528 86.3114C29.6454 86.2556 29.7917 86.2144 29.847 86.2373L29.8517 86.2556C29.5386 86.8125 29.1561 87.4083 28.6362 88.2403L27.8975 89.4131C27.6471 89.8144 26.7546 91.2394 26.3412 91.5581C26.3942 91.6701 26.4486 91.822 26.4898 91.9683C26.5371 92.1333 26.6773 92.6175 26.7617 93.0103C26.8193 93.0726 26.9567 93.0333 26.9946 92.962L26.9684 92.8008C26.9323 92.5734 26.9323 92.3348 27.0242 92.1712C27.1779 91.9176 27.3668 91.8544 27.6223 91.7803L30.2618 91.0148C30.6987 90.8897 31.8101 90.5592 32.1757 90.5915Z" fill="#FAF0B6"/>
<path d="M27.8313 82.9603C28.9371 83.2172 29.5849 83.4 30.0401 83.5144C30.3963 83.602 30.5271 83.7937 30.5763 84.0187L30.6448 84.3267C30.7001 84.3773 30.8482 84.338 30.8777 84.2761C30.8351 84.0234 30.7723 83.6873 30.7315 83.377C30.6827 82.9322 30.6443 82.642 30.6316 82.3931C30.5829 82.312 30.4324 82.3317 30.394 82.4044L30.4062 82.7203C30.4165 82.9472 30.3668 83.003 30.2543 83.018C30.1502 83.0316 29.8873 82.9983 29.4443 82.9125L28.4126 82.7109C28.2059 82.6725 28.1698 82.6186 28.1393 82.3833L27.9532 80.9625C27.9162 80.6794 27.9396 80.6391 28.1384 80.5448L29.366 79.9626C29.5816 79.8567 29.7462 79.7887 29.8488 79.7751C29.944 79.7634 30.0176 79.8867 30.0616 80.0841L30.1254 80.3517C30.1816 80.4131 30.3312 80.3817 30.3584 80.303C30.3134 80.032 30.2468 79.6772 30.1877 79.2239C30.1329 78.8006 30.0987 78.4687 30.0663 78.0806C30.0223 78.038 29.869 78.038 29.8315 78.1106L29.8362 78.3684C29.8423 78.78 29.7162 78.9201 28.9427 79.2984L25.3249 81.0853C24.9293 81.2808 24.5154 81.4875 24.116 81.6633C24.0532 81.6909 24.0424 81.7594 24.0499 81.8161C24.1849 81.9042 24.3762 82.0411 24.4713 82.2595C24.6185 82.2108 24.8046 82.2436 25.1613 82.3322L27.8313 82.9603ZM25.804 81.6722L27.2721 80.9625C27.5159 80.8434 27.5562 80.858 27.5913 81.1317L27.7423 82.2909C27.776 82.5553 27.7681 82.5647 27.5431 82.5178L25.826 82.1386C25.5293 82.0706 25.2916 82.0078 25.2406 81.9853L25.2382 81.9656C25.3446 81.8958 25.5879 81.7776 25.804 81.6722Z" fill="#FAF0B6"/>
<path d="M25.0159 78.4167C24.7768 78.3159 24.5668 78.2245 24.354 77.999C24.1323 77.7647 24.1065 77.243 24.0995 76.8356L24.0906 76.3144C24.0868 76.0298 24.0957 76.0298 24.3901 76.0247L28.6332 75.9595C29.6303 75.9445 29.7728 75.9891 29.8281 76.53L29.8618 76.8708C29.9106 76.9448 30.0714 76.9247 30.0985 76.8661C30.0699 76.2586 30.0564 75.9272 30.0498 75.5475C30.0442 75.1673 30.0489 74.8444 30.0596 74.3034C30.0301 74.2476 29.859 74.2308 29.822 74.2898L29.7981 74.5936C29.7592 75.1439 29.6167 75.1659 28.6206 75.1805L24.3967 75.2451C24.0831 75.2503 24.0737 75.2606 24.0699 74.9747L24.0592 74.3006C24.0507 73.7789 24.122 73.417 24.2799 73.1962C24.3821 73.0528 24.7323 72.9801 24.9699 72.9483C25.0257 72.9 25.0229 72.7392 24.9465 72.7012C24.6634 72.7345 23.8918 72.6787 23.5018 72.5812C23.4634 72.6009 23.4554 72.705 23.4756 72.7523C23.7235 72.8906 23.7446 72.9755 23.7521 73.4878L23.8103 77.3334C23.8173 77.7694 23.8318 78.083 23.529 78.1439C23.5018 78.173 23.5121 78.2962 23.5314 78.3253C23.9115 78.3853 24.5214 78.5184 24.9512 78.6637C25.0271 78.6248 25.0717 78.4912 25.0159 78.4167Z" fill="#FAF0B6"/>
<path d="M24.1241 71.0658L24.1663 70.8314C24.2698 70.2783 24.4325 70.275 25.4347 70.3762L28.8013 70.7104C29.803 70.8103 29.9342 70.8426 29.9445 71.4061L29.9488 71.6461C29.9998 71.7094 30.1536 71.7037 30.1873 71.6508C30.2159 71.1759 30.238 70.8529 30.2778 70.4564C30.3158 70.0776 30.357 69.7575 30.4241 69.2859C30.4002 69.2273 30.2328 69.1903 30.1888 69.2442L30.1377 69.4776C30.0153 70.0293 29.8813 70.0345 28.8791 69.9351L25.5139 69.6C24.5098 69.5001 24.3514 69.465 24.3608 68.9034L24.3659 68.6653C24.3331 68.6043 24.1611 68.6067 24.1269 68.6601C24.0983 69.134 24.0758 69.457 24.0373 69.8348C23.9984 70.2323 23.9572 70.5529 23.8906 71.024C23.9112 71.0836 24.0805 71.1197 24.1241 71.0658Z" fill="#FAF0B6"/>
<path d="M27.4591 67.4494C29.1246 67.8276 30.8777 66.9216 31.3446 64.8666C31.7496 63.0801 30.7127 61.3458 28.8433 60.9201C27.2135 60.5498 25.4238 61.2731 24.9386 63.412C24.506 65.3189 25.6066 67.0298 27.4591 67.4494ZM25.1894 63.6337C25.5906 61.8661 27.3921 61.5633 28.9202 61.9111C30.7431 62.3255 31.3366 63.5681 31.0849 64.6805C30.671 66.5044 28.743 66.7669 27.3728 66.457C25.3441 65.9967 24.9714 64.597 25.1894 63.6337Z" fill="#FAF0B6"/>
<path d="M26.5742 58.4602L26.6525 58.3177C26.7668 58.1184 26.915 57.9323 27.0884 57.8611C27.3664 57.7603 27.5553 57.8259 27.8004 57.9281L30.3396 58.9753C30.7611 59.1492 31.8368 59.5819 32.1021 59.8359C32.1809 59.9208 32.1757 60.0825 32.1195 60.2953L32.0478 60.5433C32.0787 60.6178 32.2062 60.66 32.2746 60.6169C32.3843 60.3009 32.4725 60.0605 32.6248 59.6911C32.7593 59.3658 32.8943 59.062 33.0748 58.673C33.0556 58.5952 32.9539 58.5431 32.862 58.5666L32.7232 58.8281C32.6154 59.0405 32.4907 59.1952 32.3721 59.2069C32.0468 59.2472 30.9012 58.7855 30.4892 58.6144L28.5734 57.8245C28.3095 57.7158 28.1117 57.6239 28.0212 57.5456L28.0287 57.5278C28.2982 57.4233 29.2657 57.1233 29.6351 56.9986L32.795 55.9167C33.9809 55.5113 34.3934 55.3823 34.5856 55.3392C34.6254 55.2427 34.6034 55.1719 34.5584 55.1325C34.3184 55.0655 33.2736 54.6338 33.0101 54.525L30.9101 53.6597C30.5051 53.4923 29.4092 53.0616 29.1542 52.7808C29.0984 52.717 29.1012 52.5113 29.1734 52.2122L29.2067 52.0819C29.1757 52.0073 29.052 51.9572 28.9798 52.0083C28.8743 52.3073 28.7886 52.5403 28.6334 52.9191C28.4961 53.2519 28.3639 53.5481 28.1801 53.9456C28.1778 54.0314 28.3142 54.0975 28.392 54.0586L28.4703 53.9161C28.6592 53.5823 28.7703 53.4638 28.8706 53.4431C29.2025 53.3855 30.3481 53.8467 30.7615 54.0178L32.6421 54.7931C32.8264 54.8691 32.9675 54.9272 32.9965 54.9806L32.9886 54.9984C32.3961 55.237 31.7267 55.4648 30.8009 55.7925L29.4912 56.25C29.0459 56.4056 27.4601 56.9639 26.9389 56.9545C26.9089 57.0745 26.8564 57.2273 26.7987 57.3694C26.7326 57.5269 26.5409 57.9938 26.3623 58.3519C26.3675 58.4372 26.4996 58.4911 26.5742 58.4602Z" fill="#FAF0B6"/>
<path d="M31.2409 48.5676C31.3852 48.6211 31.5099 48.7636 31.734 49.0533L33.4323 51.2034C34.1377 52.0922 34.5291 52.6387 34.8165 53.0086C35.041 53.2997 35.0218 53.5312 34.921 53.7365L34.7846 54.0187C34.7949 54.0923 34.9351 54.1542 34.9965 54.1251C35.1202 53.9001 35.2805 53.5973 35.4418 53.3287C35.6809 52.9514 35.8318 52.6987 35.9752 52.4972C35.9865 52.4053 35.8562 52.327 35.7812 52.3594L35.5951 52.612C35.462 52.7976 35.3884 52.8094 35.2909 52.7512C35.2023 52.6978 35.0171 52.5075 34.7237 52.1653L34.0412 51.368C33.9043 51.2081 33.909 51.1448 34.0313 50.9419L34.7696 49.7128C34.9173 49.4686 34.9609 49.4508 35.1737 49.5019L36.4946 49.8089C36.7295 49.8609 36.8996 49.9087 36.9896 49.9622C37.0702 50.0109 37.052 50.1544 36.9648 50.3348L36.8476 50.5851C36.8541 50.6662 36.9891 50.7365 37.0613 50.6911C37.1954 50.4478 37.3641 50.1281 37.5995 49.7372C37.8202 49.3706 37.9984 49.0917 38.2154 48.7678C38.2065 48.712 38.087 48.6173 38.0115 48.6492L37.8563 48.8545C37.606 49.1803 37.419 49.2122 36.5776 49.0284L32.6387 48.1772C32.2084 48.083 31.7537 47.9887 31.3327 47.879C31.2666 47.8612 31.2155 47.9086 31.1855 47.9573C31.2385 48.112 31.3013 48.3394 31.2409 48.5676ZM32.0218 48.8161C32.1488 48.8259 32.4123 48.885 32.6462 48.9375L34.2362 49.2956C34.4996 49.3542 34.5221 49.3908 34.381 49.6261L33.7787 50.6269C33.6423 50.8547 33.6291 50.857 33.481 50.6803L32.3743 49.3172C32.1835 49.0819 32.0377 48.8831 32.0115 48.8334L32.0218 48.8161Z" fill="#FAF0B6"/>
<path d="M33.7574 44.617L33.9191 44.4426C34.3269 44.0006 34.4591 44.0808 35.2424 44.6986L37.9292 46.8187C38.713 47.4375 38.8049 47.5345 38.5082 48.0023L38.3539 48.2433C38.3633 48.3239 38.4941 48.4022 38.5522 48.375C38.8667 47.9456 39.0477 47.7009 39.2957 47.3873L39.8371 46.7011C40.4436 45.9333 41.0103 45.2292 41.3244 44.8598C41.2053 44.5964 40.6086 43.7869 40.5275 43.7226C40.4755 43.6809 40.3325 43.8 40.3353 43.8736C40.5988 44.3222 40.7146 44.7295 40.6855 44.9494C40.6578 45.1219 40.565 45.3019 40.0644 45.937C39.5989 46.5262 39.3974 46.598 39.2511 46.6148C39.0032 46.6373 38.7917 46.507 38.3216 46.1362L35.7242 44.0873C34.941 43.4686 34.8332 43.3594 35.1421 42.8906L35.2682 42.7003C35.2733 42.6314 35.1275 42.5404 35.0699 42.5681C34.791 42.9515 34.5974 43.2117 34.3686 43.5023C34.1333 43.8014 33.9257 44.0498 33.5797 44.4562C33.5694 44.5172 33.6917 44.6386 33.7574 44.617Z" fill="#FAF0B6"/>
<path d="M40.126 37.3561L40.3041 37.2422C40.6458 37.027 40.8104 37.1494 41.2407 37.6561L43.5746 40.409C44.2191 41.1703 44.2786 41.2697 43.9074 41.6836L43.7588 41.8458C43.7522 41.9264 43.8657 42.0304 43.9266 42.0159C44.2561 41.7131 44.5102 41.4839 44.8149 41.2261C45.0685 41.0114 45.5818 40.6767 46.0454 40.2834C46.6032 39.8109 47.1169 39.2128 47.3738 38.5598C47.8191 37.4109 47.5922 36.2461 46.8108 35.3264C45.9999 34.3697 44.8069 33.9618 43.5282 34.4362C42.9099 34.6617 42.3586 35.0545 41.7497 35.5692C41.1343 36.0904 40.5652 36.6108 39.9797 37.1686C39.9319 37.26 40.0369 37.3692 40.126 37.3561ZM41.9977 35.7445C43.8961 34.1358 45.4229 35.1586 46.0983 35.9545C47.2407 37.3022 47.3902 38.7562 45.9849 39.9483C45.5274 40.3354 45.1922 40.4958 44.8416 40.4067C44.5707 40.3378 44.3527 40.1245 44.0279 39.7397L41.7615 37.0659C41.4849 36.7411 41.3457 36.5461 41.3672 36.4533C41.3874 36.3619 41.5707 36.1069 41.9977 35.7445Z" fill="#FAF0B6"/>
<path d="M52.7444 35.5608C54.3213 34.6228 54.8664 32.6747 53.8844 31.0252C53.0303 29.5875 51.2711 28.7859 49.3834 29.9072C47.7016 30.907 47.2187 32.8861 48.1895 34.5197C49.0633 35.9892 50.9308 36.6384 52.7444 35.5608ZM49.3956 30.2428C50.9552 29.3152 52.4162 30.4162 53.2178 31.7639C54.1741 33.3736 53.68 34.6617 52.6994 35.2444C51.0906 36.2011 49.57 34.9823 48.8519 33.7725C47.7883 31.9828 48.5453 30.7467 49.3956 30.2428Z" fill="#FAF0B6"/>
<path d="M56.9575 32.1309C57.9086 32.5533 58.9853 32.468 60.0386 32.0559C60.5157 31.8698 61.1101 31.5136 61.5306 31.2075C61.6815 31.0973 61.8264 30.9998 61.9318 30.9581C61.9567 30.9178 61.937 30.8644 61.9 30.8484C61.7176 30.8484 61.5807 30.6576 61.442 30.3047L61.2484 29.8097C61.0731 29.3587 60.984 29.1084 61.337 28.9181L61.4715 28.8455C61.5128 28.7676 61.4523 28.6387 61.3764 28.628C61.0914 28.7606 60.7942 28.8876 60.4492 29.0217C59.9275 29.2261 59.4376 29.4075 59.1747 29.4905C59.1236 29.5401 59.1761 29.7028 59.2618 29.7098L59.6678 29.602C60.2401 29.4501 60.2875 29.4923 60.5786 30.2353L60.7168 30.5887C60.8275 30.8714 60.8457 31.0481 60.8251 31.1278C60.7867 31.3162 60.5045 31.5586 59.957 31.7737C58.1795 32.4689 56.7826 31.4766 56.1184 29.7787C55.5986 28.4531 55.8732 26.9391 57.5884 26.2673C58.4903 25.9148 59.2707 25.9556 59.8918 26.8134C59.9668 26.8458 60.1206 26.7745 60.1197 26.6934C59.8328 26.1947 59.5993 25.7545 59.4859 25.4639C59.3875 25.523 59.087 25.568 58.9061 25.5989C58.742 25.6228 58.2353 25.7081 57.7309 25.9055C56.3968 26.4281 55.6829 27.1861 55.3328 28.0364C55.0136 28.8342 55.0632 29.6916 55.3576 30.4425C55.6642 31.2211 56.2206 31.808 56.9575 32.1309Z" fill="#FAF0B6"/>
<path d="M66.7381 28.9945C67.5744 29.6142 68.645 29.7661 69.7606 29.594C70.2674 29.5167 70.925 29.2983 71.4027 29.0901C71.5738 29.0151 71.7364 28.9523 71.8489 28.9345C71.8827 28.9003 71.8738 28.845 71.8409 28.8201C71.6628 28.7812 71.57 28.5637 71.5133 28.1887L71.4327 27.6628C71.3591 27.1842 71.3277 26.9208 71.7149 26.8129L71.862 26.7717C71.9188 26.7047 71.8869 26.5659 71.8156 26.5383C71.5095 26.6029 71.1913 26.662 70.8252 26.7183C70.2725 26.8031 69.7545 26.8739 69.4794 26.8973C69.4175 26.9372 69.4344 27.1069 69.516 27.1326L69.9359 27.1167C70.5285 27.0914 70.565 27.1439 70.6864 27.9323L70.745 28.3073C70.7914 28.6073 70.7699 28.7831 70.7342 28.8567C70.656 29.0311 70.3274 29.2069 69.7452 29.2973C67.8589 29.5894 66.7114 28.3158 66.433 26.5129C66.2164 25.1053 66.8136 23.6878 68.6342 23.407C69.5914 23.2584 70.3442 23.4694 70.7628 24.4429C70.8285 24.4903 70.9958 24.4547 71.0127 24.375C70.8406 23.8256 70.7099 23.3456 70.6611 23.0372C70.5524 23.0723 70.2509 23.0522 70.0663 23.0419C69.9013 23.0283 69.3885 23.0025 68.8531 23.0859C67.437 23.3044 66.5764 23.8894 66.0481 24.6436C65.5616 25.3533 65.4242 26.2017 65.5475 26.9976C65.6741 27.824 66.0884 28.5187 66.7381 28.9945Z" fill="#FAF0B6"/>
<path d="M73.5249 23.1075C73.9159 23.1487 73.9454 23.3095 73.9595 24.2114L74.012 27.6197C74.027 28.6158 74.0096 28.7404 73.4602 28.815L73.2235 28.8478C73.1677 28.9148 73.1898 29.0564 73.2465 29.0845C73.6913 29.0583 74.034 29.0447 74.432 29.0372C74.8121 29.0315 75.1351 29.0358 75.5626 29.0494C75.6198 29.0198 75.6362 28.8581 75.578 28.8117L75.3784 28.7868C74.8262 28.7189 74.806 28.6064 74.7905 27.6094L74.7732 26.4136C74.7709 26.2143 74.7877 26.205 75.2162 26.1979C75.5959 26.1919 75.7487 26.2851 75.8945 26.4909C76.1949 26.9133 76.5938 27.5629 76.846 27.9098C77.5351 28.8581 78.023 29.0883 78.8302 29.0756C79.0093 29.0733 79.1607 29.0503 79.2465 29.0217C79.2948 28.9828 79.2826 28.9069 79.2352 28.8886C78.9798 28.8736 78.7407 28.7723 78.5771 28.6331C77.9227 28.1011 77.4085 27.3501 76.6304 26.137C76.5816 26.062 76.5334 25.9669 76.5798 25.9101C77.0513 25.7133 77.7545 25.2084 77.7418 24.3075C77.7315 23.6428 77.3945 23.2204 76.9337 22.9912C76.4931 22.7611 75.9329 22.7212 75.3441 22.7297C74.4127 22.7442 73.7593 22.7817 73.2282 22.8384C73.1537 22.8769 73.1546 23.0287 73.2221 23.0751L73.5249 23.1075ZM75.3366 23.0222C76.3913 23.0062 76.8676 23.7103 76.8784 24.4608C76.8882 25.1053 76.6759 25.4414 76.4204 25.6458C76.1495 25.8595 75.788 25.9017 75.4473 25.9083C74.963 25.9153 74.821 25.8984 74.7924 25.8698C74.7638 25.8323 74.7615 25.7273 74.7591 25.5562L74.7263 23.3353C74.7207 23.0709 74.7493 23.0311 75.3366 23.0222Z" fill="#FAF0B6"/>
<path d="M82.6096 29.6184C84.4241 29.8734 86.0652 28.6945 86.3333 26.7966C86.5658 25.1414 85.6958 23.4178 83.5246 23.1127C81.5877 22.8408 79.9771 24.0802 79.7094 25.9608C79.4737 27.652 80.5213 29.3241 82.6096 29.6184ZM80.6933 25.7911C80.983 23.7328 82.3462 23.2434 83.323 23.3813C85.1183 23.6339 85.5716 25.4039 85.3508 26.9545C85.0911 28.808 83.9005 29.5022 82.7727 29.3433C80.9202 29.0822 80.4974 27.1819 80.6933 25.7911Z" fill="#FAF0B6"/>
<path d="M90.1175 31.328C91.8664 31.8834 93.6837 30.9961 94.2659 29.1656C94.774 27.5719 94.2026 25.7259 92.1125 25.0608C90.2469 24.4669 88.4478 25.4222 87.8708 27.2334C87.3514 28.8614 88.107 30.6877 90.1175 31.328ZM88.8697 27.2292C89.5001 25.2455 90.9265 24.9919 91.8678 25.2909C93.597 25.8403 93.7475 27.6637 93.2731 29.1577C92.7036 30.9417 91.4131 31.4287 90.3256 31.0828C88.5401 30.517 88.4412 28.5694 88.8697 27.2292Z" fill="#FAF0B6"/>
<path d="M94.1614 32.5022C94.4543 32.6367 94.7614 32.7895 95.0304 32.9325C95.3492 33.1022 95.6712 33.2841 95.9468 33.4523C96.02 33.458 96.0978 33.3286 96.0678 33.247L95.7622 33.052C95.45 32.8537 95.4701 32.692 95.7987 32.0709C96.177 31.3584 96.6087 30.63 96.905 30.1317C97.1876 29.6587 97.4731 29.1848 97.7811 28.6833L97.7979 28.6926C97.7787 29.1773 97.7234 29.707 97.6925 30.1851L97.5879 32.2059C97.5622 32.7187 97.5279 33.7551 97.4351 34.2755C97.437 34.3092 97.474 34.3406 97.4932 34.3491C97.5251 34.3669 97.5631 34.3758 97.5926 34.3594C97.9498 34.0542 98.7457 33.4669 99.5154 32.9283L101.044 31.8567C101.385 31.6186 102.058 31.117 102.166 31.0561L102.184 31.0655L100.351 34.5755C100.066 35.1126 99.9931 35.2467 99.5618 35.0705L99.3036 34.9673C99.2276 34.9912 99.1728 35.1136 99.2098 35.1858C99.5618 35.3522 99.9429 35.5439 100.237 35.7C100.54 35.8598 100.879 36.0516 101.214 36.2508C101.289 36.2484 101.366 36.127 101.341 36.0501L101.086 35.8814C100.709 35.6376 100.839 35.4159 101.036 34.9842C101.611 33.7406 102.429 32.1844 102.882 31.2858C103.186 30.6947 103.338 30.57 103.893 30.8016L104.079 30.878C104.138 30.8672 104.214 30.7247 104.183 30.6637C103.912 30.5461 103.632 30.4078 103.421 30.2958C103.253 30.2072 103.078 30.1134 102.805 29.9367C102.584 30.3089 102.095 30.6412 101.312 31.2042L99.6715 32.3873C99.2356 32.7047 98.7936 33.0286 98.3595 33.3028L98.344 33.2944C98.3375 32.8181 98.3595 32.3344 98.375 31.8375L98.449 29.3925C98.4757 28.7166 98.5404 28.0851 98.7486 27.7762C98.4575 27.6581 98.2311 27.5376 98.0384 27.4345C97.8279 27.323 97.6306 27.2081 97.3892 27.0567C97.3034 27.052 97.2284 27.1734 97.2429 27.2461L97.3686 27.3333C97.8439 27.6731 97.8439 27.8339 97.5467 28.3537C97.2842 28.8056 96.8726 29.5017 96.4611 30.1744C95.9693 30.9787 95.6834 31.418 95.3384 31.9448C94.9756 32.505 94.8317 32.4928 94.4525 32.3569L94.2537 32.2823C94.1815 32.2997 94.1309 32.4351 94.1614 32.5022Z" fill="#FAF0B6"/>
<path d="M103.522 36.2376C102.935 37.0561 102.842 37.1531 102.348 36.8798L102.138 36.765C102.058 36.7776 101.985 36.9122 102.015 36.9694C102.411 37.23 102.68 37.4119 103.002 37.6444C103.313 37.8661 103.568 38.0625 103.944 38.3545C104.006 38.3648 104.119 38.2369 104.096 38.1731L103.92 38.0119C103.503 37.6308 103.568 37.5117 104.154 36.6937L106.127 33.9469C106.715 33.1289 106.825 33.0089 107.308 33.2976L107.513 33.4205C107.581 33.4233 107.664 33.2723 107.635 33.2166C107.239 32.9578 106.97 32.7764 106.662 32.5542C106.34 32.3212 106.082 32.1258 105.707 31.8333C105.644 31.8206 105.529 31.9486 105.553 32.0128L105.735 32.1675C106.163 32.5331 106.085 32.6751 105.496 33.4931L103.522 36.2376Z" fill="#FAF0B6"/>
<path d="M109.268 35.0451C109.265 35.3419 109.14 35.4937 108.957 35.6897L107.1 37.7109C106.791 38.047 106.013 38.9058 105.684 39.0684C105.578 39.1134 105.427 39.0511 105.249 38.9245L105.039 38.7722C104.959 38.7745 104.876 38.879 104.893 38.9597C105.152 39.1711 105.346 39.3375 105.641 39.608C105.899 39.8451 106.137 40.0781 106.438 40.3809C106.519 40.3903 106.604 40.313 106.612 40.2192L106.415 39.9994C106.252 39.825 106.152 39.6539 106.181 39.539C106.257 39.2194 107.086 38.3044 107.387 37.9758L108.789 36.4514C108.981 36.2409 109.137 36.0867 109.241 36.0304L109.255 36.0431C109.262 36.3319 109.208 37.3434 109.2 37.7325L109.125 41.0709C109.096 42.3215 109.073 42.7528 109.049 42.9497C109.125 43.0209 109.2 43.0247 109.253 42.9951C109.4 42.7936 110.164 41.962 110.357 41.7515L111.895 40.0804C112.191 39.7589 112.973 38.879 113.325 38.7361C113.403 38.7065 113.595 38.7792 113.851 38.9503L113.959 39.0262C114.041 39.0225 114.133 38.9255 114.108 38.8392C113.858 38.6287 113.667 38.467 113.368 38.1919C113.102 37.9472 112.87 37.7217 112.562 37.4119C112.487 37.387 112.376 37.4925 112.388 37.5792L112.494 37.7029C112.741 37.9945 112.817 38.1394 112.799 38.2415C112.738 38.5744 111.91 39.4898 111.608 39.8179L110.231 41.3142C110.096 41.4609 109.994 41.5725 109.932 41.5819L109.919 41.5692C109.899 40.9312 109.916 40.2253 109.929 39.2437L109.952 37.8581C109.96 37.3865 109.981 35.7056 110.171 35.22C110.068 35.1455 109.943 35.0423 109.83 34.9401C109.706 34.8234 109.334 34.4826 109.059 34.1925C108.979 34.1747 108.882 34.2801 108.886 34.3594L108.992 34.4831C109.136 34.6542 109.26 34.8572 109.268 35.0451Z" fill="#FAF0B6"/>
<path d="M115.186 41.594C114.328 41.519 113.524 41.8148 112.889 42.3131C112.231 42.8297 111.829 43.5323 111.735 44.333C111.605 45.3656 111.998 46.3725 112.697 47.2598C113.015 47.6625 113.525 48.1289 113.94 48.4439C114.09 48.5564 114.225 48.667 114.297 48.757C114.342 48.7687 114.385 48.7331 114.391 48.6937C114.338 48.5194 114.481 48.3328 114.78 48.098L115.198 47.7694C115.579 47.4703 115.794 47.3133 116.077 47.5973L116.186 47.7051C116.272 47.723 116.378 47.6264 116.367 47.5505C116.159 47.3128 115.951 47.0658 115.723 46.7751C115.376 46.335 115.061 45.9192 114.906 45.6905C114.842 45.6567 114.702 45.7556 114.721 45.8386L114.942 46.1958C115.255 46.7001 115.226 46.7573 114.601 47.2514L114.302 47.4853C114.062 47.6728 113.899 47.7422 113.817 47.7459C113.626 47.7633 113.311 47.5636 112.948 47.1014C111.767 45.6005 112.313 43.9762 113.747 42.8489C114.866 41.9676 116.394 41.7923 117.533 43.2408C118.133 44.0015 118.317 44.7614 117.677 45.6042C117.668 45.6834 117.781 45.8133 117.858 45.7884C118.253 45.368 118.606 45.0183 118.85 44.8242C118.767 44.7469 118.636 44.4736 118.553 44.309C118.485 44.1595 118.257 43.6987 117.92 43.2731C117.032 42.1467 116.101 41.6836 115.186 41.594Z" fill="#FAF0B6"/>
<path d="M121.095 50.91L117.967 52.4873C117.077 52.9369 116.964 52.9706 116.65 52.5122L116.534 52.3477C116.458 52.3228 116.331 52.4081 116.331 52.4709C116.535 52.8356 116.698 53.137 116.878 53.4919C117.049 53.8317 117.18 54.1149 117.407 54.6066C117.458 54.645 117.611 54.5888 117.628 54.5161L117.54 54.2742C117.324 53.7014 117.427 53.6297 118.316 53.1806L122.098 51.2742C122.369 51.1378 122.409 51.128 122.634 51.5784C123.079 52.4602 122.788 53.212 121.966 53.6278C121.229 53.9991 120.545 53.9292 119.912 53.0991C119.87 53.0564 119.743 53.1206 119.746 53.1928C119.922 53.5406 120.225 53.9517 120.592 54.2339C120.954 54.5081 121.589 54.7955 122.368 54.4027C122.952 54.1073 123.248 53.5964 123.296 53.0822C123.341 52.56 123.169 51.9877 122.815 51.2841C122.46 50.58 122.187 50.0588 121.9 49.6397C121.831 49.5891 121.701 49.6444 121.678 49.7302L121.798 50.0517C121.952 50.4577 121.816 50.5477 121.095 50.91Z" fill="#FAF0B6"/>
<path d="M119.067 57.4645L118.962 57.2494C118.88 57.2175 118.75 57.2826 118.742 57.3455C118.908 57.7612 119.03 58.0819 119.162 58.4583C119.289 58.8164 119.386 59.1253 119.511 59.5345C119.557 59.5786 119.716 59.5434 119.739 59.4731L119.7 59.2748C119.592 58.7301 119.691 58.6744 120.632 58.3425L121.763 57.9459C121.95 57.8794 121.965 57.8953 122.109 58.2975C122.233 58.6561 122.194 58.8319 122.043 59.0348C121.738 59.4553 121.248 60.0408 120.999 60.3895C120.316 61.3458 120.252 61.8806 120.52 62.6428C120.582 62.8125 120.649 62.9498 120.704 63.0211C120.755 63.0534 120.825 63.0201 120.828 62.9681C120.76 62.7197 120.779 62.4609 120.86 62.2617C121.158 61.4723 121.707 60.7444 122.614 59.6203C122.668 59.55 122.741 59.4741 122.813 59.4994C123.149 59.8851 123.851 60.3933 124.704 60.0942C125.331 59.8734 125.623 59.4178 125.696 58.9083C125.775 58.4166 125.634 57.8719 125.44 57.3164C125.131 56.4375 124.885 55.8286 124.665 55.342C124.603 55.2825 124.46 55.3336 124.438 55.4123L124.503 55.7114C124.589 56.0948 124.445 56.175 123.595 56.4745L120.374 57.6056C119.435 57.9394 119.311 57.9619 119.067 57.4645ZM122.286 57.7931C122.312 57.7542 122.412 57.7186 122.571 57.6628L124.67 56.9255C124.92 56.8373 124.967 56.8509 125.162 57.4073C125.513 58.403 124.995 59.0789 124.287 59.3283C123.676 59.5434 123.29 59.4473 123.017 59.2716C122.729 59.0798 122.571 58.7526 122.46 58.4297C122.298 57.9698 122.268 57.8301 122.286 57.7931Z" fill="#FAF0B6"/>
<path d="M123.78 62.4548C122.101 62.7778 120.859 64.313 121.256 66.3844C121.602 68.1853 123.251 69.3586 125.133 68.9963C126.776 68.6798 128.127 67.2984 127.711 65.1436C127.343 63.2208 125.646 62.0972 123.78 62.4548ZM127.393 65.0409C127.735 66.8227 126.206 67.822 124.667 68.1188C122.828 68.4717 121.784 67.5703 121.572 66.4509C121.217 64.6134 122.88 63.5972 124.258 63.3314C126.301 62.9391 127.207 64.0702 127.393 65.0409Z" fill="#FAF0B6"/>
<path d="M123.542 71.4014C122.544 71.4511 122.421 71.4389 122.328 70.8914L122.289 70.6552C122.228 70.6017 122.078 70.6275 122.052 70.6861C122.093 71.1309 122.12 71.4539 122.139 71.872C122.16 72.2517 122.164 72.5761 122.173 73.1362C122.204 73.1897 122.377 73.2009 122.412 73.1409L122.423 72.817C122.444 72.2545 122.586 72.2287 123.582 72.18L124.9 72.1148C125.148 72.1027 125.16 72.1303 125.172 72.4148L125.205 73.0608C125.222 73.4222 125.224 73.6589 125.193 73.7944C125.146 73.9772 125.017 74.0606 124.847 74.1159L124.483 74.2284C124.427 74.2983 124.434 74.4403 124.495 74.475C124.712 74.4666 125.071 74.4117 125.412 74.3944C125.765 74.377 126.145 74.3962 126.374 74.385C126.428 74.3423 126.422 74.1802 126.362 74.1356L125.98 74.0695C125.73 74.0241 125.678 73.9505 125.634 73.8483C125.59 73.7372 125.558 73.4339 125.536 73.0448L125.507 72.3998C125.49 72.1153 125.491 72.0867 125.747 72.0745L127.751 71.9747C128.112 71.9573 128.129 71.9559 128.143 72.2409L128.172 72.8203C128.192 73.2192 128.208 73.5323 128.162 73.7437C128.06 74.2242 127.714 74.3569 127.293 74.453C127.239 74.5219 127.275 74.6536 127.332 74.6794C127.693 74.6419 128.149 74.6105 128.584 74.5894C128.55 74.4666 128.523 73.9158 128.494 73.3083L128.406 71.5627C128.388 71.1816 128.382 70.8595 128.38 70.4592C128.35 70.4034 128.177 70.3927 128.143 70.4522L128.131 70.605C128.092 71.1581 127.959 71.1844 126.964 71.2341L123.542 71.4014Z" fill="#FAF0B6"/>
<path d="M128.327 76.5801L128.299 76.7292C128.191 77.2842 128.05 77.2931 127.064 77.2237L123.653 76.9823C122.659 76.9125 122.52 76.8539 122.511 76.3106L122.503 75.9947C122.451 75.9351 122.297 75.9436 122.264 75.9975C122.244 76.5586 122.232 76.8815 122.202 77.2884L122.141 78.1425C122.082 78.9848 122.014 79.8281 121.935 80.6784C122.18 80.8204 122.894 81.1078 123.221 81.1983C123.308 81.1683 123.346 81.0351 123.303 80.9662C122.828 80.6854 122.514 80.4065 122.433 80.2289C122.343 80.0133 122.324 79.7348 122.376 79.0078C122.436 78.1744 122.553 77.9822 122.676 77.8776C122.847 77.737 123.173 77.7309 123.674 77.7647L125.01 77.8603C125.256 77.8786 125.264 77.9067 125.243 78.1917L125.205 78.7411C125.178 79.1105 125.153 79.3369 125.106 79.4672C125.043 79.6528 124.898 79.7095 124.725 79.7358L124.35 79.7953C124.29 79.8379 124.278 79.9997 124.34 80.0414C124.549 80.0522 124.913 80.0395 125.254 80.0648C125.615 80.0911 125.98 80.1539 126.209 80.1722C126.278 80.1417 126.289 79.979 126.234 79.9279L125.852 79.8248C125.619 79.7601 125.568 79.6912 125.537 79.575C125.507 79.4569 125.508 79.162 125.537 78.764L125.576 78.2142C125.596 77.9311 125.599 77.9015 125.861 77.9208L127.758 78.0544C128.118 78.0801 128.136 78.0811 128.116 78.3665L128.068 79.0467C128.039 79.4658 128.009 79.7662 127.946 79.9622C127.787 80.4464 127.449 80.5078 126.994 80.6203C126.934 80.6625 126.944 80.8153 126.996 80.8575C127.417 80.8486 128.104 80.8392 128.267 80.7942C128.248 80.6779 128.287 80.1197 128.33 79.5136L128.457 77.7328C128.483 77.3437 128.516 77.0212 128.564 76.6158C128.539 76.5572 128.369 76.5244 128.327 76.5801Z" fill="#FAF0B6"/>
<path d="M126.428 83.0958C125.661 82.9495 125.026 83.3906 124.63 83.7984L123.883 84.5747C123.313 85.1709 122.841 85.1691 122.431 85.0917C121.871 84.9834 121.43 84.5048 121.579 83.7206C121.785 82.6392 122.773 82.4306 123.275 82.3814C123.339 82.3537 123.346 82.2112 123.29 82.1527C122.848 82.0884 122.163 82.0828 121.936 82.1555C121.798 82.3134 121.462 82.763 121.312 83.5467C121.083 84.7584 121.634 85.6664 122.661 85.8609C123.547 86.0316 124.198 85.5553 124.674 85.0355L125.283 84.3797C125.563 84.0759 126.041 83.7033 126.582 83.8055C127.011 83.8861 127.58 84.1992 127.405 85.1119C127.235 86.0091 126.582 86.1441 126.108 86.1797C126.043 86.2158 126.043 86.3714 126.092 86.4173C126.484 86.4928 127.022 86.5069 127.263 86.4661C127.277 86.392 127.319 86.2636 127.38 86.1511C127.493 85.9214 127.611 85.5947 127.666 85.3055C127.9 84.0909 127.313 83.2636 126.428 83.0958Z" fill="#FAF0B6"/>
<path d="M125.293 88.4198C124.549 88.1925 123.869 88.5609 123.431 88.9251L122.603 89.6184C121.974 90.1505 121.502 90.0966 121.102 89.9761C120.558 89.8092 120.171 89.2847 120.404 88.5201C120.726 87.4655 121.729 87.3637 122.236 87.3684C122.302 87.3497 122.324 87.2053 122.273 87.142C121.841 87.0309 121.159 86.9531 120.927 87.0019C120.773 87.142 120.391 87.5536 120.157 88.3162C119.797 89.498 120.248 90.4612 121.25 90.7655C122.114 91.0294 122.811 90.6262 123.343 90.1603L124.018 89.5715C124.33 89.2997 124.845 88.9795 125.373 89.1403C125.792 89.2673 126.324 89.6395 126.052 90.5301C125.786 91.403 125.119 91.4676 124.648 91.4545C124.578 91.4826 124.561 91.6364 124.606 91.6889C124.986 91.807 125.522 91.8787 125.765 91.8628C125.789 91.7901 125.845 91.6687 125.916 91.5609C126.052 91.342 126.206 91.0326 126.293 90.7505C126.653 89.5697 126.158 88.6837 125.293 88.4198Z" fill="#FAF0B6"/>
<path d="M124.895 93.7026L124.786 93.915C124.531 94.4151 124.374 94.3739 123.444 93.9923L120.316 92.714C119.385 92.3348 119.269 92.2673 119.417 91.7236L119.483 91.493C119.452 91.4189 119.303 91.3791 119.257 91.4208C119.094 91.8675 118.982 92.1708 118.831 92.5378C118.687 92.8903 118.559 93.1851 118.361 93.6164C118.366 93.6815 118.517 93.7626 118.574 93.7242L118.69 93.5147C118.963 93.0215 119.094 93.0558 120.025 93.435L123.152 94.7133C124.083 95.092 124.226 95.1722 124.059 95.7075L123.987 95.9334C124.002 96.0019 124.165 96.0478 124.214 96.0065C124.375 95.5589 124.488 95.2566 124.632 94.905C124.783 94.5361 124.914 94.2403 125.111 93.8081C125.102 93.7472 124.951 93.6642 124.895 93.7026Z" fill="#FAF0B6"/>
<path d="M120.679 96.2208C119.188 95.3826 117.249 95.7511 116.215 97.5876C115.317 99.1861 115.817 101.145 117.489 102.086C118.948 102.905 120.869 102.722 121.945 100.81C122.902 99.105 122.335 97.1512 120.679 96.2208ZM121.767 100.526C120.878 102.107 119.065 101.884 117.697 101.115C116.067 100.198 115.852 98.8336 116.412 97.8412C117.328 96.2109 119.253 96.5076 120.48 97.1967C122.291 98.2162 122.25 99.6661 121.767 100.526Z" fill="#FAF0B6"/>
<path d="M118.962 105.09L118.846 105.205C118.679 105.365 118.484 105.501 118.298 105.521C118.001 105.54 117.84 105.421 117.634 105.254L115.497 103.533C115.142 103.247 114.236 102.527 114.053 102.21C114.002 102.106 114.053 101.952 114.166 101.764L114.306 101.546C114.296 101.467 114.187 101.391 114.108 101.413C113.916 101.684 113.76 101.889 113.51 102.201C113.289 102.472 113.074 102.727 112.793 103.048C112.788 103.128 112.871 103.207 112.966 103.211L113.172 103C113.337 102.828 113.499 102.715 113.617 102.736C113.939 102.787 114.906 103.555 115.254 103.837L116.864 105.136C117.088 105.315 117.249 105.458 117.316 105.56L117.304 105.574C117.017 105.6 116.005 105.611 115.614 105.627L112.279 105.769C111.03 105.82 110.597 105.826 110.401 105.814C110.334 105.897 110.335 105.97 110.37 106.02C110.58 106.153 111.459 106.862 111.681 107.042L113.447 108.465C113.788 108.738 114.716 109.462 114.88 109.803C114.915 109.879 114.856 110.076 114.703 110.342L114.634 110.457C114.644 110.537 114.745 110.622 114.83 110.591C115.018 110.331 115.167 110.132 115.422 109.816C115.647 109.536 115.859 109.29 116.146 108.962C116.172 108.882 116.06 108.778 115.974 108.795L115.857 108.908C115.583 109.175 115.441 109.259 115.34 109.247C115.006 109.21 114.038 108.443 113.69 108.162L112.108 106.887C111.952 106.762 111.835 106.666 111.822 106.607L111.833 106.592C112.468 106.53 113.176 106.502 114.154 106.451L115.538 106.383C116.009 106.359 117.689 106.275 118.184 106.431C118.248 106.324 118.342 106.193 118.437 106.073C118.544 105.941 118.858 105.549 119.132 105.256C119.151 105.172 119.043 105.082 118.962 105.09Z" fill="#FAF0B6"/>
<path d="M110.341 110.113C109.916 109.06 109.691 108.425 109.523 107.987C109.389 107.646 109.473 107.429 109.626 107.26L109.839 107.027C109.85 106.953 109.732 106.854 109.664 106.864C109.483 107.046 109.244 107.291 109.012 107.504C108.678 107.797 108.46 107.998 108.266 108.15C108.228 108.235 108.331 108.349 108.412 108.337L108.662 108.146C108.843 108.006 108.917 108.017 108.993 108.099C109.065 108.176 109.189 108.41 109.374 108.82L109.803 109.78C109.889 109.973 109.868 110.032 109.692 110.194L108.636 111.164C108.426 111.358 108.377 111.362 108.188 111.252L107.006 110.583C106.797 110.467 106.645 110.372 106.575 110.297C106.511 110.227 106.57 110.096 106.703 109.945L106.887 109.738C106.903 109.657 106.794 109.553 106.713 109.576C106.515 109.769 106.263 110.027 105.928 110.336C105.611 110.625 105.361 110.845 105.061 111.095C105.051 111.155 105.141 111.278 105.224 111.269L105.432 111.116C105.765 110.874 105.951 110.895 106.708 111.311L110.251 113.24C110.638 113.452 111.046 113.668 111.419 113.894C111.48 113.93 111.54 113.899 111.582 113.861C111.578 113.699 111.579 113.464 111.702 113.26C111.579 113.167 111.498 112.996 111.365 112.654L110.341 110.113ZM111.021 112.804C110.901 112.758 110.665 112.629 110.454 112.512L109.03 111.719C108.792 111.589 108.78 111.546 108.982 111.36L109.845 110.57C110.039 110.391 110.053 110.391 110.146 110.602L110.823 112.223C110.938 112.503 111.024 112.735 111.036 112.791L111.021 112.804Z" fill="#FAF0B6"/>
<path d="M108.186 116.322L107.981 116.446C107.467 116.752 107.363 116.641 106.785 115.828L104.802 113.044C104.222 112.231 104.163 112.112 104.578 111.746L104.793 111.557C104.807 111.479 104.703 111.366 104.641 111.375C104.219 111.698 103.975 111.883 103.652 112.115L102.94 112.62C102.143 113.19 101.401 113.703 100.996 113.97C101.037 114.254 101.381 115.198 101.443 115.283C101.48 115.338 101.649 115.264 101.669 115.192C101.542 114.688 101.544 114.267 101.636 114.063C101.71 113.906 101.849 113.76 102.506 113.292C103.117 112.857 103.33 112.844 103.474 112.871C103.719 112.919 103.885 113.102 104.231 113.589L106.147 116.282C106.726 117.094 106.8 117.228 106.371 117.592L106.196 117.738C106.171 117.803 106.286 117.93 106.349 117.922C106.727 117.637 106.983 117.442 107.285 117.227C107.595 117.004 107.862 116.827 108.305 116.534C108.338 116.47 108.255 116.319 108.186 116.322Z" fill="#FAF0B6"/>
<path d="M76.1424 13.4752C42.159 13.4752 14.5098 41.1239 14.5098 75.1083C14.5098 109.093 42.159 136.74 76.1424 136.74C110.128 136.74 137.775 109.093 137.775 75.1083C137.775 41.1234 110.127 13.4752 76.1424 13.4752ZM76.1424 134.961C43.141 134.961 16.2901 108.111 16.2901 75.1078C16.2901 42.1059 43.1405 15.2555 76.1424 15.2555C109.145 15.2555 135.996 42.1059 135.996 75.1078C135.995 108.111 109.145 134.961 76.1424 134.961Z" fill="#FAF0B6"/>
<path d="M104.633 77.5495C105.769 77.1094 106.187 75.5086 106.278 74.3939C106.316 73.9237 106.304 73.447 106.248 72.9783C106.014 73.2661 105.808 73.5764 105.624 73.897C105.006 74.9845 104.557 76.2937 104.633 77.5495Z" fill="#FAF0B6"/>
<path d="M97.5107 90.2747C98.7121 90.9164 100.198 90.0028 101.135 89.2777C101.537 88.9472 101.906 88.5684 102.234 88.1616C101.842 88.1855 101.452 88.2483 101.072 88.3383C99.8114 88.635 98.3854 89.2997 97.5107 90.2747Z" fill="#FAF0B6"/>
<path d="M105.53 77.8528C104.738 78.743 103.947 80.0123 103.803 81.218C105.071 81.0319 105.733 79.5788 106.083 78.503C106.218 78.0356 106.305 77.5547 106.345 77.0691C106.053 77.3081 105.783 77.5739 105.53 77.8528Z" fill="#FAF0B6"/>
<path d="M100.189 87.6591C101.442 88.0186 102.754 86.8725 103.481 85.9894C103.796 85.6064 104.069 85.1864 104.296 84.7477C103.925 84.8419 103.565 84.9722 103.22 85.1273C102.013 85.6744 100.89 86.5275 100.189 87.6591Z" fill="#FAF0B6"/>
<path d="M102.316 84.5892C103.61 84.682 104.562 83.3878 105.127 82.3978C105.354 81.9666 105.541 81.5095 105.675 81.0403C105.337 81.2086 105.014 81.4102 104.71 81.6319C103.733 82.3387 102.703 83.4253 102.316 84.5892Z" fill="#FAF0B6"/>
<path d="M102.879 70.6233C102.624 70.4133 102.343 70.237 102.04 70.1044C102.325 71.2373 103.081 73.2891 104.191 73.7241C104.372 72.5747 103.752 71.3461 102.879 70.6233Z" fill="#FAF0B6"/>
<path d="M98.9433 86.5467C98.94 86.1886 98.8865 85.8314 98.7773 85.4883C98.0259 86.5017 96.6961 88.6256 97.1606 89.8378C98.2987 89.1998 98.9564 87.8269 98.9433 86.5467Z" fill="#FAF0B6"/>
<path d="M101.807 67.424C101.524 67.2595 101.219 67.1287 100.901 67.0467C101.396 68.1454 102.417 69.8854 103.579 70.1133C103.517 68.9404 102.792 68.0067 101.807 67.424Z" fill="#FAF0B6"/>
<path d="M104.087 77.4792C104.467 76.2844 104.112 74.9873 103.338 74.0292C103.119 73.7672 102.869 73.5342 102.586 73.3425C102.614 73.733 102.66 74.122 102.725 74.5087C102.896 75.5203 103.22 76.8844 104.087 77.4792Z" fill="#FAF0B6"/>
<path d="M100.076 83.9428C99.7005 84.9323 99.2608 86.2922 99.7624 87.2995C100.744 86.4267 101.145 85.1058 100.905 83.8265C100.836 83.4834 100.722 83.152 100.556 82.8408C100.379 83.2003 100.217 83.5673 100.076 83.9428Z" fill="#FAF0B6"/>
<path d="M100.115 64.4226C99.8129 64.3106 99.4989 64.237 99.1787 64.2089C99.8134 65.1544 101.15 66.7055 102.311 66.749C102.104 65.6686 101.111 64.7892 100.115 64.4226Z" fill="#FAF0B6"/>
<path d="M104.398 66.7064C104.264 66.2967 104.075 65.8922 103.862 65.5181C103.765 65.8598 103.698 66.2114 103.656 66.5653C103.514 67.7287 103.561 68.9175 104.109 69.9708C104.911 69.2452 104.695 67.6106 104.398 66.7064Z" fill="#FAF0B6"/>
<path d="M102.798 66.5095C103.412 65.6292 102.869 64.0898 102.394 63.2695C102.186 62.9105 101.94 62.5692 101.663 62.258C101.638 62.6044 101.643 62.955 101.67 63.3009C101.753 64.3645 102.083 65.6864 102.798 66.5095Z" fill="#FAF0B6"/>
<path d="M101.113 64.1728C101.144 62.8397 99.6777 61.5229 98.4229 61.0556C98.5649 61.3715 98.7261 61.68 98.9033 61.9776C99.3829 62.7764 100.201 63.8531 101.113 64.1728Z" fill="#FAF0B6"/>
<path d="M101.814 79.9144C101.467 81.0839 101.012 83.3616 101.833 84.3183C102.629 83.3864 102.728 81.9417 102.309 80.8237C102.186 80.498 102.022 80.1881 101.814 79.9144Z" fill="#FAF0B6"/>
<path d="M103.144 77.5308C102.969 77.2289 102.761 76.9537 102.51 76.7123C102.38 77.9212 102.324 80.2392 103.278 81.0436C103.89 79.9922 103.728 78.5559 103.144 77.5308Z" fill="#FAF0B6"/>
<path d="M104.737 73.6851C106.024 72.802 105.853 70.4517 105.398 69.105C105.231 69.4219 105.091 69.7533 104.976 70.0922C104.603 71.1722 104.399 72.5723 104.737 73.6851Z" fill="#FAF0B6"/>
<path d="M101.836 85.1156C103.763 81.7776 104.536 78.9384 104.596 75.0843C104.534 72.1636 104.066 69.975 102.901 67.297C102.377 66.1584 101.838 65.2181 101.125 64.1873C101.818 65.2261 102.34 66.1762 102.845 67.3209C103.961 69.9998 104.401 72.1814 104.432 75.0848C104.334 78.8953 103.548 81.6961 101.621 84.9839C99.6396 88.0837 97.5804 90.0384 94.376 91.8492C94.4247 91.9354 94.4702 92.0245 94.5199 92.1136C97.7608 90.2653 99.8439 88.2712 101.836 85.1156Z" fill="#FAF0B6"/>
<path d="M48.481 81.218C48.3361 80.0123 47.5482 78.7416 46.7536 77.8528C46.5024 77.5734 46.2314 77.3062 45.9385 77.0691C45.9769 77.5514 46.0641 78.0347 46.2005 78.5002C46.5525 79.5787 47.2135 81.03 48.481 81.218Z" fill="#FAF0B6"/>
<path d="M48.6296 66.5648C48.5856 66.2109 48.519 65.8594 48.4229 65.5176C48.2106 65.8917 48.0231 66.2967 47.8881 66.7059C47.59 67.6106 47.3739 69.2447 48.1773 69.9703C48.7234 68.918 48.7693 67.7297 48.6296 66.5648Z" fill="#FAF0B6"/>
<path d="M47.6506 77.5495C47.7265 76.2933 47.2779 74.9855 46.6629 73.897C46.4792 73.5755 46.2701 73.2661 46.0376 72.9783C45.979 73.447 45.9687 73.9219 46.0071 74.3939C46.0962 75.5091 46.5153 77.1094 47.6506 77.5495Z" fill="#FAF0B6"/>
<path d="M47.5474 73.6851C47.884 72.5719 47.6801 71.1722 47.3098 70.0917C47.1935 69.7537 47.0534 69.4209 46.886 69.1045C46.4309 70.4517 46.2598 72.803 47.5474 73.6851Z" fill="#FAF0B6"/>
<path d="M50.6149 63.3009C50.6421 62.9541 50.6454 62.6048 50.6219 62.258C50.3454 62.5692 50.0983 62.9105 49.8897 63.2695C49.4158 64.0898 48.873 65.6287 49.4843 66.5095C50.2015 65.6864 50.5305 64.3645 50.6149 63.3009Z" fill="#FAF0B6"/>
<path d="M50.0498 88.1625C50.3765 88.5708 50.7445 88.9472 51.1476 89.2776C52.0846 90.0037 53.5715 90.9173 54.772 90.2747C53.8959 89.2997 52.47 88.635 51.2114 88.3383C50.8326 88.2483 50.4417 88.1854 50.0498 88.1625Z" fill="#FAF0B6"/>
<path d="M52.1678 64.4226C51.1722 64.7897 50.1798 65.67 49.9727 66.749C51.1347 66.705 52.4702 65.1553 53.1058 64.2089C52.7856 64.237 52.4702 64.3101 52.1678 64.4226Z" fill="#FAF0B6"/>
<path d="M49.9665 84.5892C49.5803 83.4258 48.5523 82.3378 47.575 81.6328C47.2703 81.4092 46.9473 81.2109 46.6084 81.0412C46.7439 81.5119 46.9281 81.9665 47.1559 82.3997C47.7226 83.3901 48.6751 84.682 49.9665 84.5892Z" fill="#FAF0B6"/>
<path d="M52.0945 87.6591C51.3937 86.5275 50.2734 85.6748 49.0636 85.1273C48.7171 84.9722 48.3562 84.8423 47.9873 84.7477C48.2151 85.1873 48.4889 85.6064 48.8039 85.9894C49.5295 86.8734 50.8429 88.0181 52.0945 87.6591Z" fill="#FAF0B6"/>
<path d="M50.471 79.9144C50.2634 80.1881 50.0984 80.498 49.976 80.8233C49.5579 81.9408 49.654 83.3855 50.4518 84.3178C51.2717 83.3616 50.8179 81.0839 50.471 79.9144Z" fill="#FAF0B6"/>
<path d="M53.34 86.5467C53.3274 87.8264 53.986 89.1998 55.1246 89.8378C55.5891 88.6256 54.2592 86.5017 53.5064 85.4883C53.3986 85.8309 53.3438 86.1895 53.34 86.5467Z" fill="#FAF0B6"/>
<path d="M52.2077 83.9428C52.0666 83.5673 51.9049 83.2003 51.7263 82.8408C51.5622 83.1511 51.4483 83.4825 51.3794 83.8265C51.1371 85.1058 51.5383 86.4258 52.519 87.2995C53.0219 86.2931 52.585 84.9323 52.2077 83.9428Z" fill="#FAF0B6"/>
<path d="M50.2455 70.1044C49.9431 70.2361 49.6614 70.4119 49.4069 70.6233C48.5336 71.3461 47.9097 72.5761 48.0953 73.7241C49.203 73.2895 49.9614 71.2373 50.2455 70.1044Z" fill="#FAF0B6"/>
<path d="M53.3791 61.9767C53.5572 61.6795 53.7184 61.3706 53.8609 61.0542C52.6052 61.5229 51.1403 62.8387 51.1694 64.1719C52.0825 63.8531 52.9014 62.7764 53.3791 61.9767Z" fill="#FAF0B6"/>
<path d="M48.1971 77.4792C49.0647 76.8839 49.3863 75.5203 49.5574 74.5073C49.6235 74.1211 49.6689 73.732 49.6966 73.3416C49.4135 73.5333 49.1617 73.7662 48.9447 74.0283C48.1727 74.9869 47.8174 76.2844 48.1971 77.4792Z" fill="#FAF0B6"/>
<path d="M49.7734 76.7123C49.525 76.9537 49.3141 77.2298 49.1416 77.5308C48.5556 78.5559 48.3948 79.9922 49.0066 81.0436C49.9609 80.2369 49.9042 77.9198 49.7734 76.7123Z" fill="#FAF0B6"/>
<path d="M50.4778 67.424C49.4939 68.0062 48.7683 68.9395 48.7031 70.1142C49.8642 69.8854 50.8875 68.1478 51.3825 67.0476C51.0647 67.1297 50.7614 67.2595 50.4778 67.424Z" fill="#FAF0B6"/>
<path d="M50.6646 84.983C48.7366 81.6937 47.952 78.8925 47.8545 75.0825C47.884 72.1795 48.3232 69.998 49.4393 67.3186C49.9455 66.1744 50.4673 65.2242 51.162 64.185C50.4471 65.2144 49.9095 66.1552 49.3845 67.2947C48.2187 69.9722 47.7499 72.1608 47.6895 75.082C47.7485 78.9356 48.5215 81.7772 50.4495 85.1123C52.4407 88.2689 54.5243 90.262 57.7662 92.1117C57.8149 92.0236 57.8623 91.9341 57.911 91.8464C54.7071 90.0375 52.6465 88.0837 50.6646 84.983Z" fill="#FAF0B6"/>
<path d="M54.3191 121.65C55.1576 121.65 55.8373 120.97 55.8373 120.131C55.8373 119.293 55.1576 118.613 54.3191 118.613C53.4805 118.613 52.8008 119.293 52.8008 120.131C52.8008 120.97 53.4805 121.65 54.3191 121.65Z" fill="#FAF0B6"/>
<path d="M98.0603 122.007C98.8988 122.007 99.5786 121.327 99.5786 120.488C99.5786 119.65 98.8988 118.97 98.0603 118.97C97.2217 118.97 96.542 119.65 96.542 120.488C96.542 121.327 97.2217 122.007 98.0603 122.007Z" fill="#FAF0B6"/>
<path d="M63.6452 118.577C63.1596 118.433 62.7701 118.305 62.1991 118.111C62.1199 118.124 62.0355 118.326 62.0913 118.392L62.3726 118.501C63.0373 118.762 63.0021 118.964 62.6398 120.191L61.4219 124.304C61.0587 125.527 60.9874 125.684 60.2819 125.564L59.9829 125.514C59.8924 125.563 59.8619 125.754 59.921 125.809C60.5051 125.958 60.9016 126.062 61.3868 126.207C61.8499 126.343 62.2394 126.473 62.8104 126.666C62.8896 126.652 62.9749 126.45 62.9182 126.384L62.6402 126.262C61.9835 125.98 62.0074 125.812 62.3698 124.586L63.588 120.472C63.9509 119.248 64.0329 119.057 64.7313 119.201L65.028 119.264C65.111 119.24 65.149 119.025 65.0894 118.97C64.503 118.818 64.1069 118.713 63.6452 118.577Z" fill="#FAF0B6"/>
<path d="M72.5567 120.584C71.8123 120.206 70.9709 120.033 69.965 119.915C68.9478 119.796 67.9732 119.717 66.9486 119.656C66.8239 119.689 66.8121 119.882 66.9007 119.954L67.16 120.022C67.655 120.154 67.6845 120.412 67.5861 121.251L67.0489 125.801C66.9007 127.057 66.86 127.198 66.154 127.212L65.8742 127.216C65.7945 127.28 65.7959 127.474 65.8629 127.519C66.4282 127.561 66.8604 127.598 67.3639 127.66C67.7834 127.709 68.5381 127.894 69.3036 127.984C70.2265 128.093 71.2259 128.054 72.0537 127.725C73.5064 127.145 74.3909 125.925 74.57 124.404C74.7561 122.822 74.1031 121.362 72.5567 120.584ZM73.3695 124.287C73.1065 126.513 71.8854 127.911 69.5623 127.637C68.8072 127.549 68.367 127.373 68.1472 126.973C67.9775 126.66 67.9868 126.274 68.0614 125.639L68.5826 121.219C68.6468 120.681 68.7059 120.384 68.8095 120.323C68.9136 120.262 69.3078 120.211 70.0142 120.296C73.1534 120.667 73.5251 122.968 73.3695 124.287Z" fill="#FAF0B6"/>
<path d="M83.7763 124.612C83.068 124.681 82.4071 124.735 82.0579 124.746C81.9777 124.788 81.9876 125.006 82.0869 125.043L82.6218 125.051C83.3737 125.062 83.4173 125.129 83.5162 126.138L83.5644 126.615C83.6033 126.999 83.5644 127.224 83.5138 127.311C83.4013 127.53 82.9747 127.73 82.2313 127.803C79.8215 128.043 78.4518 126.349 78.2221 124.049C78.0435 122.25 78.8962 120.494 81.224 120.263C82.4451 120.139 83.3877 120.458 83.8522 121.72C83.9301 121.785 84.1452 121.75 84.1733 121.651C83.9924 120.941 83.8583 120.326 83.8185 119.931C83.6765 119.969 83.2977 119.921 83.0652 119.899C82.8566 119.87 82.2074 119.801 81.5244 119.869C79.7146 120.049 78.5812 120.733 77.8621 121.653C77.196 122.519 76.9649 123.584 77.0671 124.601C77.1712 125.657 77.6488 126.564 78.4401 127.214C79.4563 128.056 80.804 128.322 82.2313 128.18C82.8777 128.114 83.728 127.886 84.3468 127.654C84.569 127.571 84.7799 127.502 84.9229 127.488C84.9669 127.446 84.958 127.374 84.9201 127.342C84.6965 127.279 84.5962 126.999 84.5483 126.521L84.4799 125.849C84.419 125.235 84.3988 124.9 84.8966 124.788L85.0846 124.746C85.1615 124.666 85.1319 124.486 85.0433 124.447C84.6501 124.513 84.2427 124.565 83.7763 124.612Z" fill="#FAF0B6"/>
<path d="M90.854 118.377C90.21 118.206 89.4562 118.295 88.5004 118.583C87.5409 118.872 86.8298 119.101 86.2434 119.365C86.1642 119.439 86.2064 119.615 86.3081 119.659L86.7356 119.58C87.2728 119.482 87.3543 119.67 87.6506 120.651L88.935 124.909C89.2996 126.121 89.317 126.267 88.6771 126.56L88.446 126.668C88.3973 126.758 88.4756 126.936 88.5553 126.95C89.0559 126.774 89.4675 126.635 89.9521 126.491C90.4134 126.352 90.7992 126.248 91.462 126.072C91.5225 126.016 91.4868 125.813 91.3992 125.777L91.0767 125.836C90.314 125.98 90.2461 125.836 89.88 124.624L88.3289 119.477C88.2168 119.106 88.214 119.057 88.8271 118.874C90.0262 118.513 90.9028 119.04 91.2393 120.159C91.5421 121.164 91.3054 122.004 90.127 122.61C90.0651 122.654 90.1162 122.826 90.209 122.835C90.681 122.693 91.2618 122.405 91.6954 122.01C92.1182 121.62 92.6165 120.889 92.2978 119.827C92.0578 119.033 91.484 118.553 90.854 118.377Z" fill="#FAF0B6"/>
</g>
<defs>
<clipPath id="clip0_9407_8028">
<rect width="150" height="150" fill="white"/>
</clipPath>
</defs>
</svg>
