<?xml version="1.0" encoding="utf-8"?>
<svg version="1.1" xmlns="http://www.w3.org/2000/svg" xmlns:xlink="http://www.w3.org/1999/xlink" viewBox="0 0 160 160">
<path fill="#fff" d="M156.969,59.625c1.219-0.969,3.031-0.063,3.031,1.469V125c0,8.281-6.719,15-15,15H15
	c-8.281,0-15-6.719-15-15V61.125c0-1.563,1.781-2.438,3.031-1.469c7,5.438,16.281,12.344,48.156,35.5
	c6.594,4.813,17.719,14.938,28.813,14.875c11.156,0.094,22.5-10.25,28.844-14.875C140.719,72,149.969,65.063,156.969,59.625z
	 M80,100c7.25,0.125,17.688-9.125,22.938-12.938c41.469-30.094,44.625-32.719,54.188-40.219c1.813-1.406,2.875-3.594,2.875-5.906V35
	c0-8.281-6.719-15-15-15H15C6.719,20,0,26.719,0,35v5.938c0,2.313,1.063,4.469,2.875,5.906c9.563,7.469,12.719,10.125,54.188,40.219
	C62.313,90.875,72.75,100.125,80,100z"/>
</svg>
