<?xml version="1.0" encoding="utf-8"?>
<svg version="1.1" xmlns="http://www.w3.org/2000/svg" xmlns:xlink="http://www.w3.org/1999/xlink" viewBox="0 0 437.093 458.093">
<path fill="#FFFFFF" d="M418.352,83.563c-3.576-3.205-8.184-4.97-12.973-4.97c-0.887,0-1.78,0.062-2.658,0.184
  c-7.568,1.051-15.477,1.583-23.506,1.584c-37.285,0.001-92.93-11.415-146.279-65.805c-3.631-3.7-8.686-5.823-13.873-5.823
  l-0.391,0.004c-5.344,0.107-10.457,2.436-14.029,6.39C155.934,69.042,99.35,80.36,60.459,80.361c-8.864,0-17.649-0.59-26.111-1.753
  c-0.875-0.121-1.766-0.182-2.646-0.182c-4.793,0-9.396,1.762-12.965,4.96c-4.252,3.811-6.605,9.275-6.456,14.992
  c6.595,251.77,149.292,327.506,192.87,344.722c4.182,1.65,8.579,2.488,13.072,2.488h0.002c4.719,0,9.324-0.921,13.682-2.736
  c43.543-18.137,186.141-96.563,192.906-344.286C424.969,92.851,422.614,87.382,418.352,83.563z M321.199,180.407L199.734,301.372
  c-4.371,4.353-15.813,15.896-15.813,15.896s-12.434-11.517-16.796-15.819l-51.175-50.479c-3.08-3.036-11.279-11.701-11.279-11.701
  s8.201-8.427,11.281-11.463l10.041-9.901c3.063-3.021,11.669-11.397,11.669-11.397s8.247,8.431,11.329,11.551l31.127,31.524
  c1.213,1.228,4.777,4.265,4.777,4.265s3.248-2.999,4.48-4.226l99.971-99.556c3.068-3.057,10.574-10.797,10.574-10.797
  s8.314,7.364,11.215,9.741l8.895,7.289c3.551,2.91,12.391,11.471,12.391,11.471S324.453,177.167,321.199,180.407z"/>
</svg>
