<svg width="49" height="48" viewBox="0 0 49 48" fill="none" xmlns="http://www.w3.org/2000/svg">
<path d="M40.3335 44V8C40.3335 5.794 38.5395 4 36.3335 4H12.3335C10.1275 4 8.3335 5.794 8.3335 8V44L24.3335 34.856L40.3335 44ZM12.3335 8H36.3335V37.106L24.3335 30.25L12.3335 37.106V8Z" fill="#B5C3D1"/>
<path d="M31.1515 19.024C31.8735 18.28 32.3215 17.248 32.3215 16.112C32.3215 14.976 31.8755 13.946 31.1515 13.2C30.786 12.8195 30.3475 12.5165 29.8623 12.3093C29.3771 12.1021 28.8551 11.9949 28.3275 11.994C28.3275 11.994 26.3355 11.988 24.3335 14.052C22.3315 11.988 20.3395 11.994 20.3395 11.994C19.2355 11.994 18.2375 12.454 17.5155 13.2C16.7915 13.946 16.3455 14.974 16.3455 16.112C16.3455 17.25 16.7915 18.28 17.5155 19.024L24.3335 26.406L31.1515 19.024Z" fill="#B5C3D1"/>
</svg>
