<svg width="49" height="48" viewBox="0 0 49 48" fill="none" xmlns="http://www.w3.org/2000/svg">
<path d="M4.45357 29.36C4.59139 29.865 4.92169 30.2958 5.37357 30.56L9.19357 32.78V37.18C9.19357 37.7105 9.40429 38.2192 9.77936 38.5942C10.1544 38.9693 10.6631 39.18 11.1936 39.18H15.5936L17.8136 43C17.9881 43.3023 18.2387 43.5536 18.5404 43.7291C18.8421 43.9045 19.1845 43.9979 19.5336 44C19.8925 43.9999 20.2449 43.9032 20.5536 43.72L24.3536 41.52L28.1736 43.72C28.4006 43.8531 28.6518 43.94 28.9125 43.9759C29.1732 44.0117 29.4385 43.9957 29.693 43.9288C29.9476 43.8619 30.1864 43.7454 30.3959 43.5861C30.6053 43.4267 30.7812 43.2275 30.9136 43L33.1136 39.18H37.5136C38.044 39.18 38.5527 38.9693 38.9278 38.5942C39.3029 38.2192 39.5136 37.7105 39.5136 37.18V32.78L43.3336 30.56C43.791 30.2962 44.1256 29.8621 44.2642 29.3526C44.4029 28.843 44.3343 28.2993 44.0736 27.84L41.8536 24L44.0736 20.18C44.3343 19.7208 44.4029 19.1771 44.2642 18.6675C44.1256 18.1579 43.791 17.7239 43.3336 17.46L39.5136 15.26V10.86C39.5136 10.3296 39.3029 9.82089 38.9278 9.44582C38.5527 9.07075 38.044 8.86003 37.5136 8.86003H33.1136L30.9136 5.04003C30.6447 4.58398 30.206 4.25314 29.6936 4.12003C29.4395 4.05176 29.1745 4.03429 28.9137 4.06861C28.6528 4.10292 28.4013 4.18836 28.1736 4.32003L24.3336 6.52003L20.5336 4.32003C20.0768 4.05761 19.5348 3.98603 19.0256 4.12084C18.5163 4.25565 18.0807 4.58597 17.8136 5.04003L15.5936 8.86003H11.1936C10.6631 8.86003 10.1544 9.07075 9.77936 9.44582C9.40429 9.82089 9.19357 10.3296 9.19357 10.86V15.26L5.39357 17.46C5.1644 17.5907 4.96334 17.7654 4.80197 17.9741C4.6406 18.1828 4.52211 18.4213 4.45333 18.676C4.38455 18.9307 4.36683 19.1965 4.4012 19.458C4.43556 19.7196 4.52134 19.9718 4.65358 20.2L6.85357 24L4.65358 27.82C4.51925 28.0504 4.43235 28.3054 4.398 28.5698C4.36366 28.8343 4.38255 29.103 4.45357 29.36ZM10.8936 23.02L9.11357 20L12.2136 18.2C12.5121 18.023 12.7595 17.7714 12.9313 17.4698C13.1031 17.1682 13.1935 16.8271 13.1936 16.48V12.86H16.7536C17.106 12.8614 17.4525 12.7697 17.7581 12.5941C18.0636 12.4185 18.3174 12.1652 18.4936 11.86L20.3336 8.78003L23.4136 10.56C23.7176 10.7356 24.0625 10.828 24.4136 10.828C24.7646 10.828 25.1095 10.7356 25.4136 10.56L28.5136 8.78003L30.3336 11.86C30.5098 12.1652 30.7635 12.4185 31.0691 12.5941C31.3746 12.7697 31.7212 12.8614 32.0736 12.86H35.6136V16.42C35.6157 16.7691 35.7091 17.1115 35.8845 17.4132C36.06 17.7149 36.3113 17.9655 36.6136 18.14L39.6936 19.94L37.9136 23.02C37.738 23.3241 37.6456 23.669 37.6456 24.02C37.6456 24.3711 37.738 24.716 37.9136 25.02L39.6936 28.1L36.6136 29.9C36.3113 30.0745 36.06 30.3251 35.8845 30.6269C35.7091 30.9286 35.6157 31.271 35.6136 31.62V35.18H31.9536C31.6045 35.1821 31.2621 35.2756 30.9604 35.451C30.6587 35.6264 30.4081 35.8778 30.2336 36.18L28.4536 39.26L25.3536 37.48C25.0495 37.3045 24.7046 37.2121 24.3536 37.2121C24.0025 37.2121 23.6576 37.3045 23.3536 37.48L20.3336 39.26L18.5536 36.18C18.3774 35.8748 18.1236 35.6216 17.8181 35.446C17.5125 35.2704 17.166 35.1786 16.8136 35.18H13.1936V31.62C13.1767 31.2901 13.0784 30.9694 12.9074 30.6867C12.7364 30.404 12.498 30.1681 12.2136 30L9.11357 28.2L10.8936 25.12C11.0883 24.8044 11.1914 24.4409 11.1914 24.07C11.1914 23.6992 11.0883 23.3357 10.8936 23.02Z" fill="#BCBCCB"/>
</svg>
