<svg width="48" height="48" viewBox="0 0 48 48" fill="none" xmlns="http://www.w3.org/2000/svg">
<path d="M6.00006 25.9999H8.00006V39.9999C8.00006 42.2059 9.79406 43.9999 12.0001 43.9999H36.0001C38.2061 43.9999 40.0001 42.2059 40.0001 39.9999V25.9999H42.0001C42.3956 25.9998 42.7822 25.8825 43.111 25.6627C43.4398 25.4429 43.6961 25.1306 43.8474 24.7652C43.9988 24.3998 44.0384 23.9978 43.9612 23.6099C43.8841 23.2219 43.6937 22.8656 43.4141 22.5859L25.4141 4.58591C25.2285 4.40002 25.0081 4.25255 24.7654 4.15193C24.5228 4.0513 24.2627 3.99951 24.0001 3.99951C23.7374 3.99951 23.4773 4.0513 23.2347 4.15193C22.992 4.25255 22.7716 4.40002 22.5861 4.58591L4.58606 22.5859C4.30644 22.8656 4.11603 23.2219 4.0389 23.6099C3.96176 23.9978 4.00137 24.3998 4.15271 24.7652C4.30405 25.1306 4.56033 25.4429 4.88915 25.6627C5.21796 25.8825 5.60456 25.9998 6.00006 25.9999ZM24.0001 8.82791L36.0001 20.8279L36.0021 39.9999H12.0001V20.8279L24.0001 8.82791Z" fill="#BCBCCB"/>
<path d="M24.0001 35.9999C31.4061 35.9999 33.8021 28.9219 33.9001 28.6219L30.1001 27.3799C30.0841 27.4259 28.5381 31.9999 24.0001 31.9999C19.5241 31.9999 17.9601 27.5579 17.8981 27.3679L14.1001 28.6219C14.1981 28.9219 16.5941 35.9999 24.0001 35.9999Z" fill="#BCBCCB"/>
</svg>
