<svg width="49" height="48" viewBox="0 0 49 48" fill="none" xmlns="http://www.w3.org/2000/svg">
<g clip-path="url(#clip0_9313_13538)">
<g clip-path="url(#clip1_9313_13538)">
<path d="M27.6681 26.918L31.641 26.7428C38.1724 26.4573 43.1463 20.9178 42.7294 14.3938C42.5272 11.2276 41.1025 8.30261 38.7181 6.15757C36.3337 4.01252 33.2748 2.90409 30.1049 3.03672C23.5728 3.30976 18.5885 8.84099 18.9934 15.3649L20.0808 32.889C20.2724 35.9746 17.9153 38.5901 14.8258 38.7194C11.7314 38.8488 9.05306 36.4394 8.85566 33.3486C8.75702 31.804 9.29714 30.3762 10.2489 29.3182C11.2007 28.2602 12.557 27.5758 14.0997 27.5083L18.0467 27.3282L17.666 21.078L13.6893 21.261C7.15844 21.5459 2.18395 27.086 2.60063 33.6103C3.01803 40.1459 8.68126 45.2406 15.2248 44.9671C18.4948 44.8306 21.3767 43.376 23.389 41.1391C25.4013 38.9023 26.5387 35.8972 26.3363 32.6389L25.249 15.1149C25.0576 12.0295 27.415 9.41374 30.504 9.2845C32.0031 9.22177 33.4497 9.74589 34.5774 10.7604C35.7051 11.7748 36.3787 13.1581 36.4744 14.6555C36.6714 17.7409 34.3187 20.3609 31.2303 20.4958L27.2814 20.6716L27.6682 26.9186L27.6681 26.918Z" fill="#B5C3D1"/>
</g>
</g>
<defs>
<clipPath id="clip0_9313_13538">
<rect width="48" height="48" fill="white" transform="translate(0.666992)"/>
</clipPath>
<clipPath id="clip1_9313_13538">
<rect width="48" height="24" fill="white" transform="translate(-2.30566 33.8169) rotate(-48.0251)"/>
</clipPath>
</defs>
</svg>
