<svg width="49" height="48" viewBox="0 0 49 48" fill="none" xmlns="http://www.w3.org/2000/svg">
<path d="M6.66699 8V32C6.66699 34.206 8.46099 36 10.667 36H17.839L24.667 42.828L31.495 36H38.667C40.873 36 42.667 34.206 42.667 32V8C42.667 5.794 40.873 4 38.667 4H10.667C8.46099 4 6.66699 5.794 6.66699 8ZM10.667 8H38.667V32H29.839L24.667 37.172L19.495 32H10.667V8Z" fill="#BCBCCB"/>
<path d="M35.0811 14.4139L32.2531 11.5859L22.6671 21.1719L18.0811 16.5859L15.2531 19.4139L22.6671 26.8279L35.0811 14.4139Z" fill="#BCBCCB"/>
</svg>
