<?xml version="1.0" encoding="utf-8"?>
<svg version="1.1" xmlns="http://www.w3.org/2000/svg" xmlns:xlink="http://www.w3.org/1999/xlink" viewBox="0 0 160 160">
<g>
	<g>
		<g>
			<g>
				<path d="M74.686,44.102c2.157,1.652,3.238,3.864,3.238,6.634c0,2.932-1.16,5.569-3.479,7.911
					c-2.316,2.347-5.127,4.105-8.429,5.277c4.1,0.108,7.591,1.199,10.471,3.277c2.875,2.08,4.315,5.037,4.315,8.872
					c0,3.836-1.479,7.272-4.439,10.309c-2.956,3.04-6.712,5.395-11.268,7.077c-4.555,1.676-9.181,2.516-13.868,2.516v-1.44
					c3.784-0.105,7.353-0.892,10.71-2.358c3.356-1.467,6.074-3.57,8.152-6.312c2.078-2.744,3.118-6.007,3.118-9.792
					c0-3.144-0.772-5.74-2.319-7.792c-1.543-2.051-3.595-3.185-6.152-3.397c-0.215,0.108-0.761,0.333-1.638,0.679
					c-0.877,0.348-1.588,0.52-2.119,0.52c-0.852,0-1.279-0.347-1.279-1.04c0-0.479,0.2-0.85,0.599-1.119
					c0.4-0.266,0.893-0.4,1.479-0.4c0.32,0,0.759,0.04,1.32,0.121c0.56,0.082,1.053,0.148,1.479,0.201
					c2.078-1.599,3.623-3.382,4.634-5.357c1.014-1.969,1.52-4.021,1.52-6.154c0-2.449-0.614-4.261-1.838-5.434
					c-1.227-1.171-2.931-1.758-5.114-1.758c-2.238,0-4.266,0.6-6.076,1.798c-1.813,1.199-3.33,2.972-4.556,5.315l-1.359-0.641
					c3.092-6.66,7.968-9.989,14.627-9.989C69.77,41.625,72.527,42.452,74.686,44.102z"/>
			</g>
			<g>
				<path d="M104.504,47.371c-1.122-0.266-4.823-0.4-11.11-0.4h-8.472l-0.96,15.426c1.492-0.747,2.932-1.333,4.317-1.76
					c1.383-0.424,3.063-0.638,5.034-0.638c4.638,0,8.154,1.133,10.552,3.396c2.397,2.266,3.595,5.234,3.595,8.913
					c0,3.943-1.291,7.473-3.876,10.588c-2.583,3.119-5.911,5.528-9.988,7.235c-4.077,1.703-8.245,2.559-12.507,2.559v-1.44
					c3.247-0.055,6.296-0.774,9.148-2.158c2.852-1.387,5.167-3.438,6.954-6.155c1.783-2.719,2.676-5.994,2.676-9.831
					c0-3.358-0.877-5.979-2.632-7.872c-1.761-1.892-4.24-2.837-7.437-2.837c-1.278,0-2.371,0.107-3.276,0.32
					c-0.906,0.213-1.998,0.559-3.278,1.037l-0.798-0.478l1.517-23.818c1.067,0.212,2.504,0.319,4.317,0.319h9.033
					c1.438,0,2.517-0.119,3.237-0.359c0.718-0.241,1.213-0.641,1.476-1.2c0.27-0.56,0.479-1.398,0.643-2.517h1.517
					C104.185,41.137,104.291,45.025,104.504,47.371z"/>
			</g>
		</g>
	</g>
	<g>
		<g>
			<g>
				<path d="M70.222,145.423c0.317-0.316,0.669-0.589,1.044-0.818c0.374-0.232,0.768-0.411,1.172-0.574
					c0.404-0.163,0.814-0.292,1.219-0.39c0.101-0.025,0.201-0.048,0.302-0.07c0.099-0.022,0.198-0.045,0.297-0.066
					c0.197-0.041,0.393-0.079,0.58-0.106c0.378-0.063,0.735-0.093,1.059-0.124c0.322-0.03,0.609-0.045,0.849-0.048
					c0.476-0.006,0.753,0.03,0.71,0.06c-0.917,0.614-1.458,1.487-1.914,2.415c-0.458,0.92-0.829,1.907-1.439,2.754
					c-0.128,0.182-0.273,0.348-0.43,0.499c-0.157,0.149-0.327,0.284-0.505,0.406c-0.36,0.245-0.758,0.436-1.18,0.586
					c-0.42,0.152-0.863,0.241-1.307,0.311c-0.442,0.063-0.887,0.099-1.312,0.097c-0.427,0-0.835-0.022-1.206-0.057
					c-0.372-0.028-0.706-0.089-0.984-0.138c-0.558-0.104-0.897-0.206-0.878-0.216c1.161-0.674,1.686-1.367,2.16-2.115
					C68.93,147.078,69.35,146.288,70.222,145.423z"/>
				<path d="M70.858,139.255c0.219,0.373,0.491,0.696,0.795,0.985c0.307,0.287,0.646,0.549,1.004,0.757
					c0.359,0.21,0.736,0.389,1.115,0.538c0.095,0.038,0.189,0.072,0.283,0.105c0.095,0.035,0.188,0.063,0.283,0.091
					c0.189,0.057,0.374,0.106,0.556,0.15c0.363,0.085,0.713,0.157,1.028,0.194c0.314,0.038,0.598,0.06,0.833,0.069
					c0.468,0.018,0.742-0.009,0.698-0.041c-0.9-0.639-1.381-1.519-1.749-2.466c-0.368-0.953-0.63-1.962-1.07-2.852
					c-0.092-0.188-0.2-0.363-0.315-0.528c-0.114-0.165-0.239-0.318-0.373-0.462c-0.265-0.282-0.562-0.519-0.876-0.714
					c-0.313-0.194-0.644-0.37-0.979-0.501c-0.332-0.135-0.67-0.232-0.996-0.323c-0.324-0.084-0.638-0.147-0.925-0.189
					c-0.291-0.039-0.551-0.08-0.772-0.096c-0.442-0.038-0.723-0.022-0.713-0.006c0.696,0.929,0.955,1.747,1.17,2.573
					C70.078,137.366,70.253,138.221,70.858,139.255z"/>
			</g>
			<g>
				<path d="M59.928,143.577c0.36-0.267,0.75-0.483,1.155-0.654c0.403-0.17,0.82-0.29,1.245-0.393
					c0.424-0.099,0.848-0.163,1.263-0.201c0.415-0.039,0.821-0.066,1.204-0.066c0.764,0.003,1.441,0.047,1.913,0.113
					c0.472,0.069,0.743,0.138,0.692,0.16c-0.998,0.481-1.66,1.253-2.25,2.107c-0.589,0.845-1.103,1.763-1.833,2.509
					c-0.624,0.646-1.439,0.987-2.317,1.158c-0.44,0.089-0.89,0.111-1.339,0.111c-0.449-0.003-0.896-0.031-1.316-0.1
					c-0.421-0.063-0.823-0.147-1.185-0.235c-0.363-0.086-0.683-0.194-0.954-0.285c-0.536-0.185-0.856-0.335-0.837-0.345
					c1.251-0.492,1.873-1.098,2.455-1.768C58.403,145.019,58.937,144.301,59.928,143.577z"/>
				<path d="M61.479,137.574c0.161,0.399,0.38,0.76,0.64,1.094c0.258,0.331,0.555,0.639,0.879,0.896
					c0.323,0.262,0.67,0.495,1.022,0.699c0.35,0.206,0.712,0.365,1.058,0.509c0.691,0.292,1.341,0.445,1.799,0.536
					c0.46,0.094,0.737,0.097,0.698,0.06c-0.798-0.755-1.139-1.709-1.364-2.695c-0.224-0.993-0.333-2.034-0.632-2.979
					c-0.259-0.799-0.729-1.437-1.292-1.918c-0.28-0.237-0.581-0.462-0.891-0.639c-0.309-0.184-0.627-0.329-0.934-0.469
					c-0.307-0.133-0.607-0.24-0.887-0.326c-0.279-0.085-0.531-0.16-0.748-0.208c-0.432-0.102-0.71-0.13-0.703-0.114
					c0.549,1.024,0.681,1.869,0.772,2.717C60.991,135.589,61.035,136.461,61.479,137.574z"/>
			</g>
			<g>
				<path d="M50.026,140.205c0.394-0.202,0.813-0.364,1.238-0.47c0.426-0.11,0.858-0.166,1.291-0.202
					c0.435-0.036,0.863-0.036,1.279-0.011c0.105,0.006,0.208,0.016,0.309,0.023c0.103,0.006,0.204,0.014,0.305,0.023
					c0.2,0.019,0.398,0.044,0.586,0.07c0.754,0.118,1.415,0.265,1.873,0.399c0.229,0.066,0.406,0.13,0.522,0.179
					c0.115,0.044,0.166,0.075,0.14,0.083c-1.059,0.325-1.83,0.989-2.542,1.748c-0.709,0.743-1.355,1.575-2.189,2.206
					c-0.177,0.133-0.364,0.25-0.559,0.348c-0.194,0.096-0.396,0.176-0.604,0.238c-0.416,0.125-0.855,0.191-1.301,0.21
					c-0.447,0.016-0.896-0.025-1.342-0.094c-0.221-0.035-0.44-0.077-0.656-0.123c-0.213-0.053-0.423-0.113-0.627-0.174
					c-0.408-0.125-0.792-0.265-1.137-0.409c-0.344-0.147-0.647-0.294-0.899-0.426c-0.502-0.264-0.798-0.458-0.776-0.464
					c1.311-0.298,2.021-0.812,2.693-1.382C48.301,141.402,48.934,140.774,50.026,140.205z"/>
				<path d="M52.46,134.504c0.097,0.425,0.262,0.809,0.468,1.177c0.208,0.365,0.454,0.713,0.734,1.02
					c0.282,0.307,0.589,0.589,0.907,0.843c0.078,0.064,0.158,0.125,0.239,0.185c0.081,0.06,0.162,0.116,0.243,0.169
					c0.162,0.11,0.326,0.213,0.487,0.307c0.641,0.39,1.256,0.646,1.699,0.802c0.22,0.078,0.397,0.131,0.518,0.158
					c0.12,0.023,0.178,0.027,0.162,0.005c-0.675-0.868-0.87-1.858-0.943-2.869c-0.072-1.02-0.021-2.061-0.18-3.038
					c-0.031-0.21-0.082-0.408-0.144-0.597c-0.06-0.193-0.134-0.375-0.218-0.55c-0.17-0.35-0.383-0.665-0.624-0.943
					c-0.241-0.281-0.505-0.542-0.785-0.768c-0.139-0.113-0.281-0.219-0.427-0.316c-0.142-0.1-0.284-0.199-0.426-0.287
					c-0.285-0.177-0.568-0.329-0.831-0.453c-0.26-0.131-0.502-0.238-0.706-0.321c-0.414-0.165-0.686-0.233-0.679-0.216
					c0.389,1.094,0.396,1.944,0.354,2.803C52.275,132.471,52.188,133.339,52.46,134.504z"/>
			</g>
			<g>
				<path d="M40.745,135.388c0.838-0.285,1.741-0.36,2.597-0.285c0.433,0.035,0.86,0.094,1.268,0.179
					c0.205,0.044,0.404,0.094,0.598,0.143c0.196,0.048,0.388,0.102,0.571,0.155c0.367,0.109,0.705,0.231,1.006,0.348
					c0.303,0.114,0.569,0.227,0.785,0.329c0.432,0.197,0.668,0.351,0.614,0.36c-1.091,0.15-1.961,0.711-2.773,1.341
					c-0.814,0.63-1.577,1.357-2.496,1.855c-0.779,0.42-1.667,0.517-2.556,0.417c-0.881-0.11-1.77-0.404-2.534-0.777
					c-0.776-0.36-1.428-0.792-1.888-1.126c-0.461-0.329-0.717-0.578-0.696-0.578c0.333-0.019,0.632-0.063,0.905-0.125
					c0.273-0.06,0.521-0.135,0.75-0.219c0.454-0.172,0.837-0.389,1.212-0.621C38.854,136.325,39.58,135.79,40.745,135.388z"/>
				<path d="M44.001,130.117c0.069,0.866,0.406,1.645,0.86,2.354c0.231,0.351,0.496,0.669,0.771,0.968
					c0.139,0.147,0.278,0.292,0.423,0.423c0.144,0.133,0.291,0.257,0.437,0.376c0.288,0.236,0.572,0.448,0.84,0.624
					c0.266,0.169,0.512,0.313,0.72,0.423c0.413,0.219,0.671,0.313,0.646,0.267c-0.531-0.967-0.583-1.962-0.5-2.98
					s0.287-2.04,0.276-3.029c-0.005-0.851-0.27-1.589-0.664-2.217c-0.384-0.639-0.905-1.161-1.415-1.601
					c-0.515-0.43-1.021-0.774-1.407-0.997c-0.385-0.22-0.638-0.339-0.634-0.317c0.051,0.289,0.084,0.558,0.104,0.807
					c0.018,0.252,0.02,0.49,0.008,0.719c-0.024,0.458-0.096,0.877-0.18,1.3C44.118,128.085,43.908,128.923,44.001,130.117z"/>
			</g>
			<g>
				<path d="M36.29,124.514c-0.123,1.733,0.846,3.337,1.848,4.453c1.003,1.113,2.031,1.721,1.989,1.624
					c-0.193-0.517-0.265-1.025-0.26-1.525c0.005-0.5,0.092-1.004,0.208-1.5c0.232-0.993,0.582-1.968,0.723-2.954
					c0.062-0.421,0.055-0.824-0.006-1.205c-0.031-0.191-0.074-0.376-0.13-0.555c-0.054-0.182-0.116-0.361-0.19-0.533
					c-0.143-0.345-0.324-0.664-0.525-0.959c-0.198-0.304-0.416-0.581-0.638-0.833c-0.225-0.248-0.444-0.481-0.657-0.682
					c-0.211-0.202-0.413-0.371-0.587-0.511c-0.345-0.28-0.58-0.433-0.58-0.412c0.02,0.583-0.03,1.081-0.118,1.528
					s-0.222,0.851-0.367,1.257c-0.146,0.406-0.302,0.81-0.436,1.263C36.432,123.425,36.33,123.92,36.29,124.514z"/>
			</g>
			<g>
				<path d="M24.829,121.919c1.783-0.063,3.486,0.805,4.754,1.661c0.316,0.213,0.609,0.423,0.863,0.624
					c0.255,0.2,0.47,0.392,0.65,0.548c0.358,0.315,0.54,0.526,0.486,0.52c-1.103-0.16-2.081,0.101-3.046,0.467
					c-0.483,0.185-0.961,0.393-1.448,0.583c-0.485,0.191-0.972,0.357-1.483,0.461c-1.747,0.354-3.503-0.683-4.764-1.833
					c-0.313-0.292-0.592-0.586-0.841-0.863c-0.248-0.279-0.464-0.541-0.629-0.77c-0.337-0.458-0.516-0.763-0.495-0.758
					c0.652,0.15,1.195,0.188,1.678,0.158c0.488-0.03,0.919-0.127,1.345-0.24c0.428-0.113,0.85-0.241,1.322-0.348
					C23.693,122.022,24.208,121.944,24.829,121.919z"/>
				<path d="M29.492,117.833c-0.372,1.688,0.339,3.425,1.166,4.676c0.208,0.31,0.424,0.59,0.625,0.836
					c0.205,0.245,0.392,0.458,0.559,0.621c0.335,0.329,0.558,0.492,0.547,0.442c-0.24-1.07,0.021-2.053,0.394-2.999
					c0.189-0.473,0.406-0.937,0.61-1.401c0.206-0.467,0.404-0.937,0.545-1.414c0.122-0.406,0.172-0.805,0.168-1.189
					c-0.006-0.384-0.057-0.767-0.151-1.124c-0.194-0.715-0.519-1.384-0.89-1.945c-0.178-0.284-0.365-0.543-0.545-0.772
					c-0.18-0.23-0.358-0.426-0.505-0.592c-0.297-0.329-0.51-0.511-0.512-0.492c-0.064,0.578-0.188,1.062-0.347,1.493
					c-0.152,0.431-0.345,0.81-0.547,1.186c-0.201,0.379-0.417,0.755-0.613,1.185C29.797,116.773,29.615,117.252,29.492,117.833z"/>
			</g>
			<g>
				<path d="M18.541,113.564c1.784,0.198,3.316,1.326,4.46,2.347c0.14,0.129,0.27,0.26,0.399,0.386
					c0.127,0.122,0.247,0.244,0.358,0.363c0.224,0.232,0.415,0.452,0.563,0.635c0.301,0.372,0.456,0.602,0.403,0.587
					c-0.534-0.16-1.05-0.213-1.559-0.2c-0.511,0.016-1.019,0.102-1.524,0.213c-0.253,0.055-0.506,0.119-0.757,0.18
					c-0.254,0.061-0.505,0.124-0.758,0.18c-0.507,0.114-1.015,0.208-1.535,0.235c-1.783,0.094-3.364-1.197-4.44-2.523
					c-0.532-0.667-0.951-1.332-1.213-1.835c-0.267-0.5-0.398-0.829-0.378-0.821c0.624,0.246,1.155,0.362,1.641,0.404
					c0.482,0.045,0.92,0.016,1.361-0.033C16.443,113.584,17.319,113.421,18.541,113.564z"/>
				<path d="M23.757,110.217c-0.605,1.604-0.183,3.444,0.465,4.793c0.08,0.171,0.159,0.334,0.241,0.487
					c0.084,0.154,0.167,0.298,0.25,0.436c0.166,0.27,0.324,0.508,0.462,0.696c0.277,0.379,0.478,0.569,0.474,0.517
					c-0.042-0.542,0.045-1.053,0.199-1.534c0.156-0.481,0.381-0.931,0.636-1.369c0.127-0.221,0.262-0.438,0.398-0.653
					c0.139-0.213,0.277-0.433,0.416-0.646c0.274-0.432,0.535-0.865,0.746-1.314c0.713-1.531,0.325-3.117-0.228-4.34
					c-0.268-0.616-0.594-1.133-0.834-1.506c-0.247-0.37-0.434-0.578-0.438-0.561c-0.293,1.125-0.772,1.836-1.283,2.52
					C24.751,108.428,24.191,109.098,23.757,110.217z"/>
			</g>
			<g>
				<path d="M13.569,104.363c0.428,0.119,0.843,0.285,1.229,0.497c0.387,0.208,0.744,0.458,1.083,0.729
					c0.686,0.536,1.258,1.17,1.748,1.761c0.474,0.599,0.858,1.156,1.102,1.565c0.121,0.205,0.21,0.375,0.263,0.486
					c0.052,0.111,0.068,0.169,0.044,0.158c-0.997-0.483-2.015-0.519-3.051-0.448c-1.026,0.066-2.067,0.237-3.104,0.132
					c-0.446-0.042-0.862-0.169-1.252-0.36c-0.391-0.19-0.758-0.439-1.098-0.73c-0.337-0.292-0.64-0.627-0.921-0.978
					c-0.139-0.176-0.271-0.354-0.397-0.536c-0.121-0.185-0.233-0.371-0.341-0.555c-0.215-0.37-0.401-0.733-0.559-1.072
					c-0.15-0.341-0.273-0.655-0.369-0.923c-0.192-0.534-0.276-0.879-0.254-0.87c1.162,0.672,2.035,0.777,2.914,0.816
					C11.49,104.07,12.382,104.039,13.569,104.363z"/>
				<path d="M19.228,101.834c-0.218,0.378-0.358,0.771-0.456,1.182c-0.097,0.407-0.15,0.831-0.155,1.247
					c-0.004,0.832,0.136,1.664,0.354,2.379c0.208,0.721,0.485,1.325,0.703,1.742c0.109,0.207,0.202,0.37,0.271,0.467
					c0.069,0.101,0.114,0.145,0.115,0.116c0.097-1.095,0.626-1.956,1.257-2.749c0.643-0.794,1.387-1.524,1.935-2.35
					c0.233-0.351,0.401-0.718,0.514-1.089c0.112-0.371,0.168-0.744,0.182-1.114c0.016-0.373-0.001-0.743-0.053-1.097
					c-0.027-0.179-0.061-0.351-0.097-0.52c-0.035-0.174-0.076-0.342-0.119-0.503c-0.087-0.325-0.194-0.625-0.301-0.896
					c-0.101-0.274-0.206-0.516-0.3-0.716c-0.192-0.401-0.345-0.635-0.349-0.621c-0.463,1.068-1.03,1.695-1.648,2.297
					C20.473,100.214,19.82,100.793,19.228,101.834z"/>
			</g>
			<g>
				<path d="M10.032,94.52c0.204,0.091,0.4,0.194,0.587,0.307c0.19,0.113,0.375,0.235,0.549,0.367
					c0.352,0.267,0.671,0.564,0.962,0.885c0.295,0.318,0.57,0.652,0.811,0.992c0.12,0.17,0.232,0.34,0.34,0.511
					c0.112,0.169,0.217,0.337,0.313,0.501c0.196,0.329,0.363,0.648,0.501,0.94c0.146,0.289,0.267,0.552,0.356,0.774
					c0.182,0.44,0.25,0.711,0.207,0.68c-0.454-0.313-0.934-0.517-1.431-0.652c-0.495-0.135-1.006-0.204-1.516-0.248
					c-1.026-0.091-2.083-0.078-3.095-0.335c-0.857-0.219-1.573-0.755-2.159-1.432c-0.568-0.68-1.024-1.5-1.33-2.295
					c-0.155-0.396-0.293-0.782-0.391-1.142c-0.097-0.36-0.171-0.691-0.227-0.969c-0.056-0.279-0.091-0.506-0.109-0.664
					c-0.016-0.155-0.017-0.241-0.01-0.235c1.044,0.84,1.898,1.074,2.758,1.244C8.012,93.919,8.907,94.021,10.032,94.52z"/>
				<path d="M16.007,92.868c-0.133,0.169-0.252,0.348-0.359,0.533c-0.105,0.185-0.194,0.373-0.274,0.567
					c-0.155,0.39-0.264,0.797-0.337,1.211c-0.068,0.412-0.091,0.826-0.091,1.233c0,0.204,0.006,0.404,0.019,0.599
					c0.018,0.196,0.039,0.389,0.065,0.573c0.052,0.367,0.12,0.716,0.192,1.026c0.081,0.306,0.165,0.578,0.242,0.801
					c0.156,0.442,0.282,0.687,0.294,0.633c0.133-0.534,0.358-0.993,0.646-1.407c0.286-0.411,0.634-0.774,1.012-1.121
					c0.752-0.691,1.595-1.302,2.262-2.032c0.573-0.628,0.881-1.351,1.02-2.076c0.153-0.73,0.124-1.465,0.052-2.136
					c-0.038-0.332-0.103-0.646-0.162-0.931c-0.059-0.285-0.127-0.541-0.19-0.752c-0.065-0.213-0.126-0.382-0.174-0.499
					c-0.043-0.114-0.072-0.175-0.077-0.166c-0.621,0.987-1.272,1.52-1.971,2.024C17.474,91.457,16.75,91.928,16.007,92.868z"/>
			</g>
			<g>
				<path d="M8.012,84.259c0.187,0.119,0.366,0.25,0.533,0.389c0.172,0.141,0.334,0.292,0.487,0.448
					c0.31,0.313,0.581,0.658,0.819,1.017c0.243,0.359,0.465,0.73,0.653,1.102c0.094,0.188,0.181,0.373,0.26,0.558
					c0.082,0.184,0.163,0.364,0.235,0.542c0.142,0.354,0.26,0.694,0.355,1.004c0.096,0.309,0.178,0.584,0.233,0.816
					c0.114,0.464,0.144,0.743,0.104,0.705c-0.804-0.757-1.782-1.087-2.779-1.332c-1.002-0.243-2.047-0.387-3.011-0.793
					c-0.81-0.35-1.442-0.984-1.916-1.739c-0.463-0.758-0.789-1.636-0.973-2.468c-0.095-0.416-0.172-0.816-0.216-1.188
					c-0.042-0.37-0.066-0.707-0.079-0.99c-0.026-0.565,0-0.92,0.015-0.904c0.91,0.986,1.716,1.343,2.542,1.641
					C6.104,83.363,6.973,83.597,8.012,84.259z"/>
				<path d="M14.166,83.52c-0.157,0.147-0.304,0.307-0.436,0.473c-0.13,0.166-0.248,0.34-0.355,0.52
					c-0.212,0.36-0.382,0.749-0.515,1.147c-0.132,0.396-0.215,0.802-0.277,1.204c-0.029,0.201-0.052,0.401-0.07,0.599
					c-0.015,0.194-0.019,0.385-0.021,0.573c-0.004,0.375,0.012,0.727,0.036,1.043c0.03,0.318,0.076,0.599,0.118,0.828
					c0.088,0.46,0.177,0.722,0.197,0.672c0.421-1.019,1.167-1.678,2.018-2.252c0.848-0.569,1.773-1.047,2.54-1.67
					c0.666-0.533,1.072-1.2,1.32-1.897c0.263-0.702,0.343-1.434,0.372-2.107c0.014-0.335-0.005-0.655-0.021-0.945
					c-0.016-0.293-0.045-0.553-0.076-0.774c-0.067-0.44-0.14-0.71-0.152-0.697c-0.756,0.885-1.482,1.315-2.249,1.71
					C15.827,82.343,15.038,82.702,14.166,83.52z"/>
			</g>
			<g>
				<path d="M7.535,73.817c0.333,0.292,0.637,0.623,0.891,0.979c0.258,0.356,0.473,0.737,0.658,1.127
					c0.389,0.781,0.623,1.601,0.81,2.346c0.087,0.372,0.151,0.726,0.2,1.045c0.054,0.319,0.089,0.606,0.111,0.844
					c0.042,0.475,0.028,0.754-0.006,0.712c-0.341-0.435-0.738-0.77-1.171-1.046c-0.434-0.276-0.902-0.491-1.376-0.685
					c-0.954-0.388-1.966-0.687-2.857-1.232c-0.758-0.463-1.278-1.182-1.642-1.999C2.978,75.5,2.849,75.068,2.75,74.631
					c-0.049-0.218-0.091-0.438-0.125-0.655c-0.031-0.217-0.051-0.434-0.068-0.646c-0.034-0.424-0.043-0.832-0.038-1.205
					c0.007-0.372,0.039-0.708,0.066-0.99c0.062-0.564,0.137-0.909,0.148-0.892c0.761,1.107,1.494,1.579,2.272,1.996
					C5.789,72.652,6.607,73.011,7.535,73.817z"/>
				<path d="M13.731,73.993c-0.359,0.247-0.656,0.541-0.925,0.867c-0.264,0.327-0.494,0.685-0.682,1.059
					c-0.36,0.747-0.603,1.557-0.713,2.296c-0.061,0.369-0.098,0.722-0.121,1.039c-0.013,0.317-0.013,0.602-0.005,0.836
					c0.017,0.469,0.065,0.739,0.094,0.693c0.285-0.472,0.637-0.845,1.035-1.153c0.393-0.308,0.833-0.554,1.297-0.773
					c0.922-0.438,1.91-0.772,2.761-1.276c0.729-0.43,1.242-1.031,1.585-1.686c0.176-0.329,0.322-0.671,0.429-1.015
					c0.055-0.171,0.101-0.343,0.139-0.514c0.042-0.169,0.081-0.338,0.109-0.503c0.063-0.332,0.1-0.65,0.12-0.941
					c0.022-0.291,0.039-0.555,0.039-0.777c0.004-0.444-0.032-0.723-0.048-0.71c-0.875,0.764-1.665,1.083-2.478,1.36
					C15.557,73.075,14.717,73.312,13.731,73.993z"/>
			</g>
			<g>
				<path d="M8.605,63.418c0.293,0.338,0.536,0.71,0.736,1.1c0.202,0.392,0.351,0.798,0.485,1.213
					c0.133,0.415,0.228,0.833,0.297,1.244c0.068,0.412,0.127,0.816,0.156,1.196c0.055,0.762,0.062,1.438,0.03,1.915
					c-0.014,0.237-0.036,0.424-0.058,0.547c-0.02,0.123-0.038,0.179-0.052,0.156c-0.549-0.959-1.373-1.562-2.268-2.087
					c-0.886-0.524-1.84-0.969-2.64-1.638c-0.689-0.572-1.09-1.36-1.328-2.223c-0.03-0.108-0.056-0.217-0.081-0.327
					c-0.021-0.11-0.04-0.22-0.058-0.331c-0.034-0.222-0.056-0.446-0.072-0.67c-0.031-0.446-0.036-0.894,0-1.318
					c0.03-0.425,0.083-0.831,0.144-1.198c0.058-0.37,0.144-0.697,0.213-0.973c0.145-0.549,0.272-0.879,0.281-0.861
					c0.29,0.605,0.601,1.051,0.928,1.414c0.325,0.36,0.664,0.638,1.022,0.901C7.054,62.004,7.807,62.481,8.605,63.418z"/>
				<path d="M14.706,64.511c-0.384,0.191-0.729,0.437-1.042,0.72c-0.309,0.284-0.596,0.603-0.829,0.945
					c-0.237,0.342-0.441,0.705-0.62,1.071c-0.177,0.367-0.309,0.738-0.426,1.094c-0.238,0.712-0.347,1.369-0.401,1.834
					c-0.028,0.233-0.039,0.419-0.041,0.542c0.002,0.122,0.016,0.18,0.033,0.159c0.696-0.853,1.619-1.263,2.586-1.563
					c0.977-0.297,2.004-0.482,2.922-0.854c0.777-0.318,1.38-0.834,1.816-1.432c0.056-0.073,0.109-0.149,0.158-0.226
					c0.052-0.077,0.104-0.154,0.151-0.233c0.096-0.156,0.185-0.316,0.264-0.477c0.16-0.322,0.279-0.652,0.396-0.968
					c0.221-0.634,0.335-1.234,0.41-1.672c0.07-0.437,0.077-0.717,0.062-0.708c-0.979,0.625-1.816,0.819-2.653,0.974
					C16.649,63.874,15.783,63.985,14.706,64.511z"/>
			</g>
			<g>
				<path d="M11.217,53.29c0.237,0.377,0.426,0.783,0.566,1.199c0.068,0.208,0.128,0.418,0.176,0.63
					c0.046,0.212,0.085,0.426,0.121,0.641c0.067,0.429,0.1,0.859,0.107,1.275c0.005,0.416,0.002,0.824-0.026,1.206
					c-0.062,0.761-0.154,1.432-0.257,1.897c-0.103,0.465-0.192,0.73-0.21,0.68c-0.406-1.033-1.125-1.75-1.934-2.403
					c-0.797-0.652-1.674-1.234-2.364-2.016c-0.595-0.67-0.875-1.509-0.98-2.399c-0.055-0.445-0.043-0.896-0.01-1.344
					c0.036-0.447,0.101-0.89,0.2-1.304c0.094-0.416,0.207-0.809,0.322-1.165c0.116-0.355,0.245-0.667,0.356-0.929
					c0.225-0.521,0.399-0.83,0.406-0.809c0.396,1.285,0.957,1.952,1.58,2.581C9.897,51.659,10.571,52.244,11.217,53.29z"/>
				<path d="M17.088,55.286c-0.413,0.131-0.788,0.323-1.138,0.555c-0.176,0.118-0.345,0.245-0.505,0.379
					c-0.164,0.135-0.316,0.28-0.457,0.432c-0.285,0.303-0.544,0.631-0.774,0.966c-0.23,0.335-0.417,0.683-0.586,1.017
					c-0.342,0.668-0.544,1.303-0.67,1.755c-0.128,0.452-0.151,0.727-0.112,0.69c0.813-0.739,1.791-1.007,2.791-1.158
					c1.009-0.146,2.054-0.176,3.017-0.407c0.817-0.198,1.489-0.618,2.009-1.142c0.259-0.262,0.502-0.543,0.707-0.839
					c0.204-0.295,0.376-0.6,0.537-0.896c0.156-0.297,0.286-0.588,0.39-0.861c0.107-0.271,0.201-0.517,0.267-0.729
					c0.133-0.423,0.183-0.699,0.165-0.691c-1.063,0.469-1.914,0.538-2.77,0.564C19.104,54.949,18.229,54.927,17.088,55.286z"/>
			</g>
			<g>
				<path d="M15.326,43.67c0.173,0.407,0.296,0.836,0.374,1.269c0.077,0.433,0.106,0.869,0.104,1.301
					c0.008,0.872-0.134,1.714-0.292,2.465c-0.08,0.375-0.181,0.719-0.272,1.031c-0.088,0.311-0.182,0.584-0.266,0.808
					c-0.169,0.444-0.303,0.692-0.313,0.64c-0.238-1.079-0.852-1.901-1.548-2.666c-0.69-0.764-1.471-1.471-2.037-2.349
					c-0.485-0.75-0.636-1.623-0.61-2.518c0.023-0.444,0.093-0.892,0.194-1.33c0.051-0.219,0.108-0.435,0.173-0.645
					c0.069-0.209,0.144-0.414,0.219-0.613c0.156-0.396,0.322-0.771,0.493-1.103c0.172-0.33,0.342-0.622,0.491-0.863
					c0.149-0.242,0.278-0.432,0.372-0.56c0.092-0.126,0.151-0.189,0.153-0.179c0.195,1.326,0.659,2.076,1.174,2.787
					C14.255,41.857,14.838,42.539,15.326,43.67z"/>
				<path d="M20.827,46.524c-0.428,0.065-0.831,0.198-1.211,0.378c-0.38,0.178-0.74,0.402-1.072,0.656
					c-0.652,0.515-1.22,1.141-1.641,1.757c-0.212,0.307-0.408,0.604-0.557,0.884c-0.152,0.28-0.276,0.535-0.37,0.75
					c-0.19,0.428-0.263,0.695-0.216,0.665c0.921-0.605,1.918-0.728,2.934-0.725c1.021,0.006,2.057,0.133,3.043,0.05
					c0.84-0.072,1.567-0.388,2.158-0.828c0.305-0.217,0.579-0.462,0.825-0.724c0.123-0.13,0.236-0.266,0.35-0.401
					c0.112-0.134,0.218-0.269,0.317-0.405c0.199-0.27,0.367-0.542,0.516-0.793c0.15-0.25,0.273-0.483,0.372-0.682
					c0.096-0.201,0.165-0.366,0.21-0.482c0.047-0.115,0.066-0.179,0.058-0.177c-1.127,0.303-1.967,0.25-2.825,0.144
					C22.866,46.489,22.01,46.339,20.827,46.524z"/>
			</g>
			<g>
				<path d="M20.821,34.774c0.223,0.858,0.224,1.76,0.09,2.612c-0.071,0.425-0.157,0.851-0.273,1.25
					c-0.115,0.401-0.25,0.781-0.384,1.142c-0.136,0.358-0.281,0.687-0.424,0.979c-0.139,0.292-0.266,0.55-0.383,0.758
					c-0.231,0.417-0.401,0.64-0.403,0.586c-0.075-1.102-0.565-2.011-1.131-2.867c-0.569-0.858-1.238-1.676-1.668-2.628
					c-0.178-0.403-0.274-0.828-0.308-1.262c-0.03-0.433-0.005-0.881,0.085-1.314c0.088-0.437,0.222-0.87,0.386-1.288
					c0.163-0.418,0.369-0.812,0.577-1.183c0.105-0.186,0.213-0.365,0.321-0.536c0.106-0.171,0.223-0.329,0.331-0.48
					c0.219-0.302,0.429-0.567,0.611-0.784c0.181-0.218,0.34-0.385,0.453-0.494c0.112-0.112,0.177-0.166,0.177-0.155
					c-0.009,0.666,0.082,1.205,0.22,1.674c0.138,0.468,0.323,0.866,0.529,1.256c0.202,0.392,0.42,0.772,0.63,1.21
					C20.466,33.689,20.662,34.177,20.821,34.774z"/>
				<path d="M25.836,38.416c-0.867,0.004-1.675,0.28-2.412,0.682c-0.37,0.2-0.702,0.443-1.021,0.696
					c-0.318,0.253-0.612,0.522-0.866,0.795c-0.257,0.272-0.485,0.542-0.683,0.791c-0.195,0.251-0.351,0.489-0.476,0.688
					c-0.25,0.397-0.361,0.648-0.313,0.626c1.003-0.461,1.999-0.438,3.011-0.277c1.007,0.158,2.01,0.437,2.998,0.501
					c0.425,0.03,0.828-0.008,1.203-0.096c0.38-0.088,0.723-0.233,1.06-0.4c0.331-0.168,0.638-0.373,0.92-0.596
					c0.281-0.222,0.548-0.456,0.781-0.696c0.117-0.119,0.229-0.24,0.333-0.359c0.104-0.12,0.205-0.234,0.298-0.348
					c0.185-0.225,0.34-0.438,0.464-0.622c0.125-0.185,0.223-0.336,0.287-0.442c0.063-0.107,0.091-0.168,0.081-0.167
					c-0.583,0.061-1.077,0.053-1.531-0.003c-0.454-0.057-0.867-0.16-1.282-0.275c-0.414-0.114-0.833-0.243-1.292-0.338
					C26.938,38.479,26.432,38.411,25.836,38.416z"/>
			</g>
			<g>
				<path d="M27.575,26.795c0.189,1.769-0.544,3.538-1.305,4.863c-0.186,0.334-0.377,0.64-0.56,0.907
					c-0.09,0.135-0.179,0.26-0.263,0.374c-0.081,0.116-0.159,0.223-0.231,0.317c-0.288,0.379-0.489,0.577-0.485,0.523
					c0.043-0.553-0.022-1.071-0.153-1.569c-0.126-0.493-0.32-0.967-0.539-1.434c-0.434-0.934-0.984-1.849-1.258-2.846
					c-0.479-1.709,0.417-3.549,1.478-4.885c0.258-0.339,0.539-0.636,0.797-0.905c0.261-0.266,0.503-0.5,0.718-0.686
					c0.432-0.369,0.723-0.568,0.721-0.547c-0.208,1.317,0.02,2.175,0.307,3.009C27.089,24.752,27.434,25.561,27.575,26.795z"/>
				<path d="M31.997,31.14c-1.718-0.25-3.389,0.595-4.579,1.51c-0.291,0.232-0.557,0.465-0.789,0.686
					c-0.115,0.11-0.222,0.215-0.319,0.316c-0.095,0.102-0.182,0.2-0.257,0.289c-0.303,0.356-0.45,0.591-0.4,0.575
					c0.529-0.155,1.04-0.19,1.539-0.147c0.502,0.046,0.995,0.168,1.479,0.32c0.973,0.306,1.917,0.725,2.893,0.941
					c0.834,0.187,1.599,0.08,2.31-0.154c0.353-0.118,0.682-0.28,0.998-0.455c0.315-0.174,0.609-0.37,0.876-0.574
					c0.263-0.207,0.515-0.406,0.73-0.604c0.216-0.196,0.399-0.387,0.55-0.549c0.309-0.32,0.475-0.546,0.456-0.546
					c-0.582-0.021-1.079-0.112-1.516-0.232c-0.439-0.123-0.832-0.284-1.226-0.459C33.959,31.711,33.171,31.302,31.997,31.14z"/>
			</g>
			<g>
				<path d="M35.436,19.903c-0.066,1.789-1.068,3.411-2.008,4.619c-0.242,0.295-0.469,0.578-0.689,0.815
					c-0.218,0.24-0.421,0.443-0.595,0.606c-0.339,0.333-0.565,0.5-0.551,0.447c0.12-0.543,0.131-1.067,0.08-1.572
					c-0.052-0.507-0.175-1.005-0.323-1.502c-0.298-0.994-0.694-1.966-0.82-2.999c-0.054-0.44-0.026-0.876,0.07-1.304
					c0.099-0.421,0.263-0.832,0.47-1.227c0.105-0.197,0.22-0.39,0.343-0.579c0.126-0.186,0.262-0.364,0.402-0.538
					c0.283-0.347,0.586-0.675,0.897-0.966c0.627-0.576,1.255-1.05,1.738-1.346c0.479-0.303,0.797-0.459,0.79-0.438
					c-0.396,1.281-0.307,2.149-0.145,3.021C35.259,17.813,35.486,18.669,35.436,19.903z"/>
				<path d="M39.164,24.856c-1.65-0.49-3.445,0.079-4.747,0.818c-0.332,0.178-0.62,0.378-0.882,0.56
					c-0.258,0.184-0.484,0.359-0.662,0.51c-0.353,0.311-0.531,0.52-0.477,0.512c0.542-0.078,1.05-0.037,1.541,0.084
					c0.492,0.12,0.96,0.313,1.417,0.533c0.911,0.44,1.792,1.005,2.722,1.363c0.396,0.151,0.79,0.23,1.172,0.253
					c0.389,0.028,0.768,0.001,1.133-0.066c0.183-0.035,0.363-0.078,0.537-0.131c0.179-0.049,0.352-0.105,0.52-0.169
					c0.339-0.126,0.654-0.282,0.95-0.441c0.596-0.31,1.085-0.679,1.439-0.945c0.351-0.273,0.548-0.474,0.53-0.477
					c-1.147-0.212-1.889-0.633-2.609-1.091C41.022,25.713,40.307,25.197,39.164,24.856z"/>
			</g>
			<g>
				<path d="M44.237,14.255c-0.085,0.437-0.221,0.864-0.403,1.262c-0.179,0.402-0.404,0.772-0.644,1.135
					c-0.243,0.361-0.511,0.698-0.79,1.008c-0.277,0.309-0.557,0.606-0.838,0.866c-0.562,0.516-1.085,0.947-1.478,1.217
					c-0.394,0.27-0.636,0.408-0.618,0.356c0.1-0.261,0.172-0.52,0.225-0.772c0.053-0.256,0.081-0.512,0.092-0.768
					c0.021-0.511-0.026-1.022-0.1-1.536C39.54,16,39.294,14.98,39.32,13.937c0.019-0.895,0.383-1.701,0.912-2.424
					c0.263-0.364,0.576-0.687,0.904-0.993c0.33-0.303,0.679-0.583,1.033-0.82c0.352-0.241,0.701-0.453,1.027-0.635
					c0.325-0.18,0.632-0.322,0.893-0.438c0.518-0.229,0.855-0.338,0.846-0.319c-0.581,1.212-0.624,2.085-0.594,2.968
					C44.375,12.16,44.471,13.048,44.237,14.255z"/>
				<path d="M47.185,19.708c-0.391-0.185-0.795-0.298-1.213-0.367c-0.414-0.064-0.842-0.09-1.256-0.058
					c-0.414,0.027-0.825,0.093-1.223,0.183c-0.397,0.09-0.77,0.217-1.121,0.346c-0.706,0.257-1.285,0.586-1.686,0.831
					c-0.401,0.245-0.604,0.434-0.552,0.431c0.272,0,0.535,0.031,0.791,0.087c0.251,0.056,0.492,0.133,0.726,0.228
					c0.465,0.19,0.898,0.448,1.318,0.734c0.836,0.575,1.626,1.268,2.489,1.752c0.735,0.41,1.511,0.558,2.251,0.528
					c0.369-0.017,0.739-0.058,1.089-0.136c0.35-0.077,0.686-0.184,1.004-0.293c0.316-0.112,0.61-0.238,0.873-0.367
					c0.262-0.125,0.499-0.244,0.691-0.355c0.385-0.219,0.607-0.39,0.59-0.395c-1.099-0.377-1.769-0.902-2.415-1.467
					C48.893,20.831,48.267,20.222,47.185,19.708z"/>
			</g>
			<g>
				<path d="M89.029,145.423c-0.316-0.316-0.669-0.589-1.043-0.818c-0.375-0.232-0.771-0.411-1.174-0.574s-0.813-0.292-1.217-0.39
					c-0.101-0.025-0.204-0.048-0.301-0.07c-0.101-0.022-0.201-0.045-0.301-0.066c-0.197-0.041-0.39-0.079-0.58-0.106
					c-0.379-0.063-0.733-0.093-1.056-0.124c-0.323-0.03-0.611-0.045-0.849-0.048c-0.477-0.006-0.755,0.03-0.711,0.06
					c0.918,0.614,1.457,1.487,1.915,2.415c0.456,0.92,0.828,1.907,1.437,2.754c0.13,0.182,0.274,0.348,0.431,0.499
					c0.158,0.149,0.326,0.284,0.507,0.406c0.357,0.245,0.757,0.436,1.178,0.586c0.42,0.152,0.862,0.241,1.307,0.311
					c0.442,0.063,0.887,0.099,1.313,0.097c0.426,0,0.833-0.022,1.207-0.057c0.37-0.028,0.704-0.089,0.984-0.138
					c0.558-0.104,0.896-0.206,0.877-0.216c-1.163-0.674-1.688-1.367-2.162-2.115C90.32,147.078,89.9,146.288,89.029,145.423z"/>
				<path d="M88.393,139.255c-0.219,0.373-0.49,0.696-0.797,0.985c-0.303,0.287-0.643,0.549-1.004,0.757
					c-0.357,0.21-0.737,0.389-1.113,0.538c-0.096,0.038-0.191,0.072-0.285,0.105c-0.094,0.035-0.188,0.063-0.282,0.091
					c-0.188,0.057-0.376,0.106-0.555,0.15c-0.365,0.085-0.711,0.157-1.028,0.194c-0.316,0.038-0.599,0.06-0.833,0.069
					c-0.47,0.018-0.743-0.009-0.699-0.041c0.902-0.639,1.379-1.519,1.75-2.466c0.367-0.953,0.628-1.962,1.07-2.852
					c0.093-0.188,0.198-0.363,0.313-0.528s0.24-0.318,0.373-0.462c0.265-0.282,0.564-0.519,0.877-0.714
					c0.313-0.194,0.643-0.37,0.978-0.501c0.333-0.135,0.671-0.232,0.994-0.323c0.326-0.084,0.639-0.147,0.928-0.189
					c0.29-0.039,0.551-0.08,0.771-0.096c0.445-0.038,0.724-0.022,0.711-0.006c-0.692,0.929-0.953,1.747-1.169,2.573
					C89.173,137.366,89,138.221,88.393,139.255z"/>
			</g>
			<g>
				<path d="M99.324,143.577c-0.36-0.267-0.752-0.483-1.153-0.654c-0.408-0.17-0.824-0.29-1.248-0.393
					c-0.423-0.099-0.849-0.163-1.263-0.201c-0.414-0.039-0.824-0.066-1.204-0.066c-0.762,0.003-1.438,0.047-1.912,0.113
					c-0.473,0.069-0.743,0.138-0.696,0.16c1,0.481,1.664,1.253,2.253,2.107c0.589,0.845,1.103,1.763,1.83,2.509
					c0.627,0.646,1.438,0.987,2.319,1.158c0.442,0.089,0.89,0.111,1.338,0.111c0.448-0.003,0.896-0.031,1.316-0.1
					c0.423-0.063,0.824-0.147,1.185-0.235c0.367-0.086,0.683-0.194,0.953-0.285c0.539-0.185,0.858-0.335,0.84-0.345
					c-1.253-0.492-1.874-1.098-2.457-1.768C100.85,145.019,100.314,144.301,99.324,143.577z"/>
				<path d="M97.772,137.574c-0.163,0.399-0.382,0.76-0.639,1.094c-0.26,0.331-0.555,0.639-0.88,0.896
					c-0.323,0.262-0.671,0.495-1.022,0.699c-0.351,0.206-0.711,0.365-1.056,0.509c-0.692,0.292-1.341,0.445-1.802,0.536
					c-0.46,0.094-0.736,0.097-0.699,0.06c0.799-0.755,1.138-1.709,1.366-2.695c0.223-0.993,0.329-2.034,0.633-2.979
					c0.257-0.799,0.727-1.437,1.288-1.918c0.285-0.237,0.583-0.462,0.89-0.639c0.311-0.184,0.63-0.329,0.934-0.469
					c0.31-0.133,0.608-0.24,0.89-0.326c0.279-0.085,0.53-0.16,0.749-0.208c0.43-0.102,0.708-0.13,0.699-0.114
					c-0.549,1.024-0.68,1.869-0.768,2.717C98.262,135.589,98.214,136.461,97.772,137.574z"/>
			</g>
			<g>
				<path d="M109.224,140.205c-0.392-0.202-0.812-0.364-1.234-0.47c-0.43-0.11-0.859-0.166-1.292-0.202
					c-0.436-0.036-0.865-0.036-1.282-0.011c-0.104,0.006-0.204,0.016-0.307,0.023c-0.104,0.006-0.207,0.014-0.307,0.023
					c-0.2,0.019-0.395,0.044-0.586,0.07c-0.752,0.118-1.413,0.265-1.874,0.399c-0.226,0.066-0.404,0.13-0.52,0.179
					c-0.113,0.044-0.167,0.075-0.138,0.083c1.056,0.325,1.827,0.989,2.539,1.748c0.711,0.743,1.357,1.575,2.19,2.206
					c0.179,0.133,0.364,0.25,0.561,0.348c0.194,0.096,0.395,0.176,0.602,0.238c0.417,0.125,0.855,0.191,1.304,0.21
					c0.445,0.016,0.896-0.025,1.338-0.094c0.222-0.035,0.442-0.077,0.658-0.123c0.216-0.053,0.423-0.113,0.63-0.174
					c0.407-0.125,0.79-0.265,1.137-0.409c0.339-0.147,0.646-0.294,0.896-0.426c0.504-0.264,0.799-0.458,0.777-0.464
					c-1.313-0.298-2.021-0.812-2.692-1.382C110.951,141.402,110.314,140.774,109.224,140.205z"/>
				<path d="M106.792,134.504c-0.097,0.425-0.263,0.809-0.47,1.177c-0.204,0.365-0.451,0.713-0.733,1.02
					c-0.279,0.307-0.589,0.589-0.906,0.843c-0.078,0.064-0.16,0.125-0.241,0.185c-0.078,0.06-0.16,0.116-0.241,0.169
					c-0.163,0.11-0.326,0.213-0.489,0.307c-0.639,0.39-1.253,0.646-1.699,0.802c-0.219,0.078-0.395,0.131-0.517,0.158
					c-0.119,0.023-0.179,0.027-0.163,0.005c0.677-0.868,0.872-1.858,0.947-2.869c0.069-1.02,0.019-2.061,0.179-3.038
					c0.031-0.21,0.081-0.408,0.144-0.597c0.06-0.193,0.131-0.375,0.219-0.55c0.169-0.35,0.382-0.665,0.624-0.943
					c0.238-0.281,0.505-0.542,0.784-0.768c0.138-0.113,0.279-0.219,0.426-0.316c0.141-0.1,0.285-0.199,0.426-0.287
					c0.285-0.177,0.567-0.329,0.83-0.453c0.26-0.131,0.499-0.238,0.705-0.321c0.414-0.165,0.687-0.233,0.68-0.216
					c-0.392,1.094-0.398,1.944-0.354,2.803C106.977,132.471,107.064,133.339,106.792,134.504z"/>
			</g>
			<g>
				<path d="M118.506,135.388c-0.837-0.285-1.739-0.36-2.598-0.285c-0.433,0.035-0.858,0.094-1.266,0.179
					c-0.207,0.044-0.404,0.094-0.599,0.143c-0.194,0.048-0.385,0.102-0.57,0.155c-0.367,0.109-0.705,0.231-1.006,0.348
					c-0.304,0.114-0.57,0.227-0.787,0.329c-0.433,0.197-0.667,0.351-0.614,0.36c1.094,0.15,1.962,0.711,2.773,1.341
					c0.815,0.63,1.58,1.357,2.498,1.855c0.781,0.42,1.664,0.517,2.554,0.417c0.881-0.11,1.771-0.404,2.535-0.777
					c0.774-0.36,1.426-0.792,1.887-1.126c0.461-0.329,0.718-0.578,0.696-0.578c-0.332-0.019-0.63-0.063-0.902-0.125
					c-0.276-0.06-0.523-0.135-0.749-0.219c-0.458-0.172-0.84-0.389-1.216-0.621C120.396,136.325,119.672,135.79,118.506,135.388z"/>
				<path d="M115.25,130.117c-0.065,0.866-0.407,1.645-0.862,2.354c-0.229,0.351-0.495,0.669-0.768,0.968
					c-0.138,0.147-0.279,0.292-0.426,0.423c-0.144,0.133-0.288,0.257-0.433,0.376c-0.292,0.236-0.577,0.448-0.84,0.624
					c-0.27,0.169-0.514,0.313-0.721,0.423c-0.414,0.219-0.674,0.313-0.648,0.267c0.533-0.967,0.586-1.962,0.501-2.98
					c-0.081-1.019-0.285-2.04-0.275-3.029c0.006-0.851,0.27-1.589,0.664-2.217c0.382-0.639,0.906-1.161,1.414-1.601
					c0.514-0.43,1.019-0.774,1.404-0.997c0.386-0.22,0.639-0.339,0.639-0.317c-0.053,0.289-0.087,0.558-0.106,0.807
					c-0.019,0.252-0.019,0.49-0.006,0.719c0.022,0.458,0.094,0.877,0.179,1.3C115.134,128.085,115.344,128.923,115.25,130.117z"/>
			</g>
			<g>
				<path d="M122.959,124.514c0.122,1.733-0.843,3.337-1.843,4.453c-1.006,1.113-2.034,1.721-1.99,1.624
					c0.191-0.517,0.263-1.025,0.26-1.525c-0.006-0.5-0.094-1.004-0.21-1.5c-0.232-0.993-0.58-1.968-0.724-2.954
					c-0.063-0.421-0.053-0.824,0.006-1.205c0.032-0.191,0.075-0.376,0.129-0.555c0.056-0.182,0.119-0.361,0.191-0.533
					c0.144-0.345,0.323-0.664,0.526-0.959c0.198-0.304,0.414-0.581,0.636-0.833c0.226-0.248,0.445-0.481,0.658-0.682
					c0.213-0.202,0.414-0.371,0.589-0.511c0.345-0.28,0.577-0.433,0.577-0.412c-0.019,0.583,0.031,1.081,0.119,1.528
					c0.091,0.447,0.223,0.851,0.37,1.257c0.144,0.406,0.298,0.81,0.433,1.263C122.818,123.425,122.922,123.92,122.959,124.514z"/>
			</g>
			<g>
				<path d="M134.42,121.919c-1.78-0.063-3.482,0.805-4.751,1.661c-0.316,0.213-0.611,0.423-0.865,0.624
					c-0.257,0.2-0.47,0.392-0.652,0.548c-0.354,0.315-0.536,0.526-0.483,0.52c1.1-0.16,2.081,0.101,3.046,0.467
					c0.479,0.185,0.959,0.393,1.444,0.583c0.486,0.191,0.975,0.357,1.486,0.461c1.746,0.354,3.503-0.683,4.763-1.833
					c0.313-0.292,0.592-0.586,0.84-0.863c0.251-0.279,0.464-0.541,0.63-0.77c0.335-0.458,0.517-0.763,0.495-0.758
					c-0.652,0.15-1.194,0.188-1.676,0.158c-0.489-0.03-0.921-0.127-1.348-0.24c-0.429-0.113-0.853-0.241-1.323-0.348
					C135.558,122.022,135.041,121.944,134.42,121.919z"/>
				<path d="M129.76,117.833c0.37,1.688-0.338,3.425-1.166,4.676c-0.207,0.31-0.423,0.59-0.627,0.836
					c-0.201,0.245-0.389,0.458-0.558,0.621c-0.335,0.329-0.555,0.492-0.545,0.442c0.235-1.07-0.022-2.053-0.398-2.999
					c-0.185-0.473-0.404-0.937-0.608-1.401c-0.207-0.467-0.404-0.937-0.545-1.414c-0.122-0.406-0.172-0.805-0.169-1.189
					c0.01-0.384,0.057-0.767,0.154-1.124c0.191-0.715,0.517-1.384,0.887-1.945c0.179-0.284,0.367-0.543,0.545-0.772
					c0.182-0.23,0.36-0.426,0.504-0.592c0.298-0.329,0.514-0.511,0.517-0.492c0.06,0.578,0.185,1.062,0.345,1.493
					c0.154,0.431,0.345,0.81,0.545,1.186c0.204,0.379,0.417,0.755,0.617,1.185C129.453,116.773,129.638,117.252,129.76,117.833z"/>
			</g>
			<g>
				<path d="M140.709,113.564c-1.783,0.198-3.315,1.326-4.456,2.347c-0.145,0.129-0.273,0.26-0.401,0.386
					c-0.128,0.122-0.248,0.244-0.36,0.363c-0.223,0.232-0.414,0.452-0.564,0.635c-0.301,0.372-0.455,0.602-0.401,0.587
					c0.533-0.16,1.05-0.213,1.561-0.2c0.511,0.016,1.016,0.102,1.52,0.213c0.254,0.055,0.508,0.119,0.762,0.18
					c0.25,0.061,0.501,0.124,0.755,0.18c0.507,0.114,1.018,0.208,1.535,0.235c1.783,0.094,3.366-1.197,4.438-2.523
					c0.533-0.667,0.953-1.332,1.216-1.835c0.266-0.5,0.398-0.829,0.376-0.821c-0.624,0.246-1.153,0.362-1.639,0.404
					c-0.482,0.045-0.921,0.016-1.363-0.033C142.809,113.584,141.932,113.421,140.709,113.564z"/>
				<path d="M135.495,110.217c0.605,1.604,0.182,3.444-0.467,4.793c-0.078,0.171-0.157,0.334-0.238,0.487
					c-0.084,0.154-0.169,0.298-0.25,0.436c-0.166,0.27-0.326,0.508-0.464,0.696c-0.276,0.379-0.479,0.569-0.473,0.517
					c0.041-0.542-0.044-1.053-0.198-1.534c-0.156-0.481-0.382-0.931-0.636-1.369c-0.129-0.221-0.26-0.438-0.398-0.653
					c-0.141-0.213-0.279-0.433-0.417-0.646c-0.276-0.432-0.536-0.865-0.749-1.314c-0.711-1.531-0.32-3.117,0.229-4.34
					c0.269-0.616,0.595-1.133,0.836-1.506c0.248-0.37,0.433-0.578,0.439-0.561c0.292,1.125,0.771,1.836,1.282,2.52
					C134.501,108.428,135.063,109.098,135.495,110.217z"/>
			</g>
			<g>
				<path d="M145.683,104.363c-0.43,0.119-0.843,0.285-1.229,0.497c-0.389,0.208-0.743,0.458-1.081,0.729
					c-0.687,0.536-1.26,1.17-1.752,1.761c-0.473,0.599-0.859,1.156-1.1,1.565c-0.122,0.205-0.21,0.375-0.263,0.486
					s-0.069,0.169-0.044,0.158c0.994-0.483,2.015-0.519,3.049-0.448c1.028,0.066,2.068,0.237,3.105,0.132
					c0.445-0.042,0.862-0.169,1.25-0.36c0.392-0.19,0.758-0.439,1.1-0.73c0.338-0.292,0.639-0.627,0.921-0.978
					c0.138-0.176,0.272-0.354,0.395-0.536c0.123-0.185,0.238-0.371,0.342-0.555c0.216-0.37,0.404-0.733,0.561-1.072
					c0.15-0.341,0.272-0.655,0.367-0.923c0.194-0.534,0.276-0.879,0.254-0.87c-1.16,0.672-2.034,0.777-2.912,0.816
					C147.761,104.07,146.868,104.039,145.683,104.363z"/>
				<path d="M140.023,101.834c0.216,0.378,0.357,0.771,0.458,1.182c0.094,0.407,0.147,0.831,0.153,1.247
					c0.003,0.832-0.135,1.664-0.354,2.379c-0.207,0.721-0.486,1.325-0.702,1.742c-0.109,0.207-0.204,0.37-0.272,0.467
					c-0.072,0.101-0.113,0.145-0.116,0.116c-0.097-1.095-0.626-1.956-1.256-2.749c-0.64-0.794-1.385-1.524-1.934-2.35
					c-0.235-0.351-0.401-0.718-0.514-1.089c-0.113-0.371-0.169-0.744-0.182-1.114c-0.019-0.373,0.003-0.743,0.053-1.097
					c0.025-0.179,0.06-0.351,0.097-0.52c0.035-0.174,0.072-0.342,0.116-0.503c0.091-0.325,0.194-0.625,0.301-0.896
					c0.103-0.274,0.207-0.516,0.301-0.716c0.194-0.401,0.345-0.635,0.351-0.621c0.464,1.068,1.028,1.695,1.646,2.297
					C138.776,100.214,139.431,100.793,140.023,101.834z"/>
			</g>
			<g>
				<path d="M149.218,94.52c-0.2,0.091-0.398,0.194-0.586,0.307c-0.191,0.113-0.373,0.235-0.548,0.367
					c-0.354,0.267-0.674,0.564-0.962,0.885c-0.298,0.318-0.571,0.652-0.809,0.992c-0.125,0.17-0.235,0.34-0.345,0.511
					c-0.11,0.169-0.216,0.337-0.311,0.501c-0.197,0.329-0.363,0.648-0.501,0.94c-0.147,0.289-0.266,0.552-0.357,0.774
					c-0.182,0.44-0.251,0.711-0.207,0.68c0.458-0.313,0.937-0.517,1.432-0.652s1.006-0.204,1.517-0.248
					c1.024-0.091,2.081-0.078,3.09-0.335c0.858-0.219,1.576-0.755,2.162-1.432c0.571-0.68,1.022-1.5,1.332-2.295
					c0.154-0.396,0.292-0.782,0.389-1.142s0.172-0.691,0.226-0.969c0.057-0.279,0.091-0.506,0.11-0.664
					c0.016-0.155,0.016-0.241,0.009-0.235c-1.043,0.84-1.896,1.074-2.758,1.244C151.239,93.919,150.346,94.021,149.218,94.52z"/>
				<path d="M143.245,92.868c0.132,0.169,0.254,0.348,0.357,0.533c0.106,0.185,0.197,0.373,0.272,0.567
					c0.16,0.39,0.27,0.797,0.342,1.211c0.066,0.412,0.091,0.826,0.091,1.233c0,0.204-0.006,0.404-0.019,0.599
					c-0.019,0.196-0.041,0.389-0.066,0.573c-0.053,0.367-0.119,0.716-0.191,1.026c-0.082,0.306-0.166,0.578-0.241,0.801
					c-0.157,0.442-0.285,0.687-0.298,0.633c-0.131-0.534-0.357-0.993-0.646-1.407c-0.285-0.411-0.633-0.774-1.009-1.121
					c-0.755-0.691-1.599-1.302-2.263-2.032c-0.577-0.628-0.884-1.351-1.022-2.076c-0.153-0.73-0.122-1.465-0.05-2.136
					c0.038-0.332,0.104-0.646,0.16-0.931c0.06-0.285,0.128-0.541,0.191-0.752c0.065-0.213,0.128-0.382,0.175-0.499
					c0.041-0.114,0.072-0.175,0.075-0.166c0.624,0.987,1.272,1.52,1.974,2.024C141.778,91.457,142.502,91.928,143.245,92.868z"/>
			</g>
			<g>
				<path d="M151.242,84.259c-0.191,0.119-0.366,0.25-0.536,0.389c-0.172,0.141-0.335,0.292-0.489,0.448
					c-0.307,0.313-0.58,0.658-0.818,1.017c-0.245,0.359-0.467,0.73-0.652,1.102c-0.094,0.188-0.182,0.373-0.26,0.558
					c-0.084,0.184-0.163,0.364-0.235,0.542c-0.145,0.354-0.26,0.694-0.354,1.004c-0.097,0.309-0.179,0.584-0.235,0.816
					c-0.116,0.464-0.141,0.743-0.104,0.705c0.806-0.757,1.783-1.087,2.777-1.332c1.002-0.243,2.046-0.387,3.011-0.793
					c0.812-0.35,1.442-0.984,1.918-1.739c0.461-0.758,0.787-1.636,0.972-2.468c0.097-0.416,0.172-0.816,0.216-1.188
					c0.044-0.37,0.066-0.707,0.082-0.99c0.025-0.565,0-0.92-0.019-0.904c-0.909,0.986-1.714,1.343-2.539,1.641
					C153.148,83.363,152.28,83.597,151.242,84.259z"/>
				<path d="M145.087,83.52c0.157,0.147,0.301,0.307,0.436,0.473c0.132,0.166,0.248,0.34,0.351,0.52
					c0.213,0.36,0.386,0.749,0.517,1.147c0.132,0.396,0.216,0.802,0.276,1.204c0.031,0.201,0.053,0.401,0.072,0.599
					c0.012,0.194,0.019,0.385,0.022,0.573c0.003,0.375-0.013,0.727-0.038,1.043c-0.028,0.318-0.076,0.599-0.119,0.828
					c-0.085,0.46-0.176,0.722-0.194,0.672c-0.423-1.019-1.169-1.678-2.021-2.252c-0.846-0.569-1.774-1.047-2.539-1.67
					c-0.667-0.533-1.072-1.2-1.319-1.897c-0.263-0.702-0.345-1.434-0.373-2.107c-0.013-0.335,0.003-0.655,0.021-0.945
					c0.016-0.293,0.044-0.553,0.075-0.774c0.069-0.44,0.141-0.71,0.151-0.697c0.758,0.885,1.482,1.315,2.253,1.71
					C143.423,82.343,144.213,82.702,145.087,83.52z"/>
			</g>
			<g>
				<path d="M151.716,73.817c-0.333,0.292-0.636,0.623-0.89,0.979c-0.257,0.356-0.473,0.737-0.658,1.127
					c-0.389,0.781-0.624,1.601-0.809,2.346c-0.088,0.372-0.153,0.726-0.201,1.045c-0.053,0.319-0.091,0.606-0.109,0.844
					c-0.044,0.475-0.031,0.754,0.003,0.712c0.338-0.435,0.74-0.77,1.172-1.046c0.436-0.276,0.902-0.491,1.375-0.685
					c0.956-0.388,1.965-0.687,2.858-1.232c0.759-0.463,1.276-1.182,1.643-1.999c0.172-0.409,0.301-0.841,0.401-1.278
					c0.05-0.218,0.091-0.438,0.125-0.655c0.031-0.217,0.05-0.434,0.069-0.646c0.031-0.424,0.041-0.832,0.038-1.205
					c-0.006-0.372-0.038-0.708-0.069-0.99c-0.06-0.564-0.135-0.909-0.144-0.892c-0.762,1.107-1.495,1.579-2.275,1.996
					C153.461,72.652,152.646,73.011,151.716,73.817z"/>
				<path d="M145.52,73.993c0.36,0.247,0.655,0.541,0.924,0.867c0.263,0.327,0.495,0.685,0.68,1.059
					c0.36,0.747,0.605,1.557,0.718,2.296c0.06,0.369,0.097,0.722,0.119,1.039c0.016,0.317,0.016,0.602,0.003,0.836
					c-0.016,0.469-0.063,0.739-0.091,0.693c-0.285-0.472-0.636-0.845-1.034-1.153c-0.395-0.308-0.833-0.554-1.301-0.773
					c-0.921-0.438-1.905-0.772-2.761-1.276c-0.727-0.43-1.241-1.031-1.583-1.686c-0.179-0.329-0.323-0.671-0.429-1.015
					c-0.053-0.171-0.101-0.343-0.141-0.514c-0.041-0.169-0.079-0.338-0.106-0.503c-0.063-0.332-0.101-0.65-0.119-0.941
					c-0.022-0.291-0.041-0.555-0.041-0.777c-0.003-0.444,0.031-0.723,0.047-0.71c0.874,0.764,1.667,1.083,2.479,1.36
					C143.696,73.075,144.533,73.312,145.52,73.993z"/>
			</g>
			<g>
				<path d="M150.647,63.418c-0.294,0.338-0.539,0.71-0.736,1.1c-0.204,0.392-0.351,0.798-0.489,1.213
					c-0.129,0.415-0.226,0.833-0.295,1.244c-0.069,0.412-0.125,0.816-0.157,1.196c-0.053,0.762-0.06,1.438-0.028,1.915
					c0.016,0.237,0.038,0.424,0.059,0.547c0.016,0.123,0.035,0.179,0.05,0.156c0.552-0.959,1.373-1.562,2.269-2.087
					c0.887-0.524,1.839-0.969,2.639-1.638c0.689-0.572,1.09-1.36,1.329-2.223c0.028-0.108,0.053-0.217,0.079-0.327
					c0.022-0.11,0.041-0.22,0.06-0.331c0.034-0.222,0.056-0.446,0.072-0.67c0.028-0.446,0.038-0.894,0-1.318
					c-0.031-0.425-0.084-0.831-0.144-1.198c-0.057-0.37-0.144-0.697-0.213-0.973c-0.147-0.549-0.273-0.879-0.282-0.861
					c-0.292,0.605-0.602,1.051-0.924,1.414c-0.326,0.36-0.667,0.638-1.025,0.901C152.198,62.004,151.443,62.481,150.647,63.418z"/>
				<path d="M144.545,64.511c0.385,0.191,0.73,0.437,1.041,0.72c0.31,0.284,0.599,0.603,0.827,0.945
					c0.238,0.342,0.445,0.705,0.621,1.071c0.179,0.367,0.31,0.738,0.429,1.094c0.238,0.712,0.345,1.369,0.401,1.834
					c0.025,0.233,0.041,0.419,0.041,0.542c-0.003,0.122-0.016,0.18-0.031,0.159c-0.699-0.853-1.62-1.263-2.585-1.563
					c-0.981-0.297-2.006-0.482-2.927-0.854c-0.777-0.318-1.378-0.834-1.814-1.432c-0.053-0.073-0.106-0.149-0.16-0.226
					c-0.05-0.077-0.1-0.154-0.15-0.233c-0.094-0.156-0.182-0.316-0.263-0.477c-0.16-0.322-0.279-0.652-0.395-0.968
					c-0.219-0.634-0.332-1.234-0.411-1.672c-0.069-0.437-0.078-0.717-0.063-0.708c0.981,0.625,1.814,0.819,2.654,0.974
					C142.603,63.874,143.467,63.985,144.545,64.511z"/>
			</g>
			<g>
				<path d="M148.033,53.29c-0.238,0.377-0.426,0.783-0.564,1.199c-0.069,0.208-0.128,0.418-0.175,0.63
					c-0.047,0.212-0.088,0.426-0.123,0.641c-0.069,0.429-0.103,0.859-0.106,1.275c-0.006,0.416-0.003,0.824,0.025,1.206
					c0.063,0.761,0.154,1.432,0.257,1.897c0.103,0.465,0.191,0.73,0.21,0.68c0.404-1.033,1.125-1.75,1.934-2.403
					c0.799-0.652,1.673-1.234,2.363-2.016c0.599-0.67,0.875-1.509,0.981-2.399c0.053-0.445,0.044-0.896,0.009-1.344
					c-0.034-0.447-0.1-0.89-0.197-1.304c-0.097-0.416-0.21-0.809-0.323-1.165c-0.116-0.355-0.245-0.667-0.357-0.929
					c-0.226-0.521-0.398-0.83-0.407-0.809c-0.395,1.285-0.956,1.952-1.58,2.581C149.353,51.659,148.682,52.244,148.033,53.29z"/>
				<path d="M142.164,55.286c0.414,0.131,0.787,0.323,1.141,0.555c0.176,0.118,0.342,0.245,0.505,0.379
					c0.16,0.135,0.313,0.28,0.454,0.432c0.285,0.303,0.545,0.631,0.774,0.966c0.232,0.335,0.417,0.683,0.586,1.017
					c0.341,0.668,0.545,1.303,0.67,1.755c0.128,0.452,0.15,0.727,0.113,0.69c-0.814-0.739-1.792-1.007-2.792-1.158
					c-1.009-0.146-2.056-0.176-3.018-0.407c-0.815-0.198-1.489-0.618-2.009-1.142c-0.26-0.262-0.501-0.543-0.705-0.839
					c-0.207-0.295-0.379-0.6-0.536-0.896c-0.156-0.297-0.288-0.588-0.395-0.861c-0.106-0.271-0.198-0.517-0.263-0.729
					c-0.135-0.423-0.182-0.699-0.167-0.691c1.063,0.469,1.915,0.538,2.771,0.564C140.148,54.949,141.023,54.927,142.164,55.286z"/>
			</g>
			<g>
				<path d="M143.928,43.67c-0.176,0.407-0.301,0.836-0.376,1.269c-0.078,0.433-0.106,0.869-0.103,1.301
					c-0.01,0.872,0.131,1.714,0.291,2.465c0.079,0.375,0.182,0.719,0.27,1.031c0.091,0.311,0.185,0.584,0.267,0.808
					c0.172,0.444,0.304,0.692,0.313,0.64c0.238-1.079,0.852-1.901,1.548-2.666c0.689-0.764,1.473-1.471,2.037-2.349
					c0.486-0.75,0.636-1.623,0.611-2.518c-0.022-0.444-0.094-0.892-0.194-1.33c-0.05-0.219-0.107-0.435-0.172-0.645
					c-0.069-0.209-0.145-0.414-0.223-0.613c-0.153-0.396-0.32-0.771-0.489-1.103c-0.172-0.33-0.345-0.622-0.495-0.863
					c-0.147-0.242-0.276-0.432-0.37-0.56c-0.091-0.126-0.147-0.189-0.15-0.179c-0.194,1.326-0.661,2.076-1.175,2.787
					C144.997,41.857,144.414,42.539,143.928,43.67z"/>
				<path d="M138.425,46.524c0.43,0.065,0.831,0.198,1.21,0.378c0.379,0.178,0.739,0.402,1.075,0.656
					c0.649,0.515,1.219,1.141,1.639,1.757c0.213,0.307,0.404,0.604,0.558,0.884c0.15,0.28,0.273,0.535,0.367,0.75
					c0.191,0.428,0.263,0.695,0.216,0.665c-0.921-0.605-1.918-0.728-2.933-0.725c-1.019,0.006-2.056,0.133-3.043,0.05
					c-0.84-0.072-1.567-0.388-2.156-0.828c-0.304-0.217-0.583-0.462-0.827-0.724c-0.123-0.13-0.238-0.266-0.348-0.401
					c-0.113-0.134-0.223-0.269-0.316-0.405c-0.204-0.27-0.367-0.542-0.517-0.793c-0.15-0.25-0.276-0.483-0.373-0.682
					c-0.097-0.201-0.169-0.366-0.21-0.482c-0.047-0.115-0.066-0.179-0.056-0.177c1.125,0.303,1.965,0.25,2.823,0.144
					C136.385,46.489,137.244,46.339,138.425,46.524z"/>
			</g>
			<g>
				<path d="M138.431,34.774c-0.223,0.858-0.226,1.76-0.091,2.612c0.072,0.425,0.157,0.851,0.272,1.25
					c0.116,0.401,0.251,0.781,0.386,1.142c0.138,0.358,0.282,0.687,0.423,0.979c0.138,0.292,0.267,0.55,0.382,0.758
					c0.232,0.417,0.401,0.64,0.404,0.586c0.072-1.102,0.564-2.011,1.131-2.867c0.57-0.858,1.238-1.676,1.667-2.628
					c0.178-0.403,0.275-0.828,0.31-1.262c0.028-0.433,0.003-0.881-0.088-1.314c-0.087-0.437-0.219-0.87-0.385-1.288
					c-0.163-0.418-0.37-0.812-0.577-1.183c-0.106-0.186-0.216-0.365-0.323-0.536s-0.223-0.329-0.329-0.48
					c-0.219-0.302-0.429-0.567-0.611-0.784c-0.182-0.218-0.341-0.385-0.454-0.494c-0.11-0.112-0.176-0.166-0.176-0.155
					c0.01,0.666-0.081,1.205-0.222,1.674c-0.135,0.468-0.323,0.866-0.523,1.256c-0.207,0.392-0.423,0.772-0.633,1.21
					C138.785,33.689,138.588,34.177,138.431,34.774z"/>
				<path d="M133.414,38.416c0.868,0.004,1.676,0.28,2.413,0.682c0.37,0.2,0.705,0.443,1.021,0.696
					c0.316,0.253,0.611,0.522,0.865,0.795c0.257,0.272,0.486,0.542,0.684,0.791c0.194,0.251,0.348,0.489,0.476,0.688
					c0.251,0.397,0.36,0.648,0.313,0.626c-1.006-0.461-2-0.438-3.012-0.277c-1.009,0.158-2.012,0.437-2.999,0.501
					c-0.426,0.03-0.827-0.008-1.204-0.096c-0.376-0.088-0.721-0.233-1.056-0.4c-0.332-0.168-0.642-0.373-0.921-0.596
					c-0.282-0.222-0.549-0.456-0.784-0.696c-0.116-0.119-0.226-0.24-0.329-0.359c-0.106-0.12-0.207-0.234-0.301-0.348
					c-0.182-0.225-0.342-0.438-0.467-0.622c-0.123-0.185-0.22-0.336-0.285-0.442c-0.063-0.107-0.091-0.168-0.079-0.167
					c0.583,0.061,1.075,0.053,1.529-0.003c0.455-0.057,0.868-0.16,1.282-0.275c0.414-0.114,0.833-0.243,1.292-0.338
					C132.314,38.479,132.818,38.411,133.414,38.416z"/>
			</g>
			<g>
				<path d="M131.675,26.795c-0.185,1.769,0.545,3.538,1.307,4.863c0.188,0.334,0.376,0.64,0.558,0.907
					c0.091,0.135,0.179,0.26,0.267,0.374c0.082,0.116,0.157,0.223,0.229,0.317c0.291,0.379,0.489,0.577,0.485,0.523
					c-0.044-0.553,0.022-1.071,0.154-1.569c0.125-0.493,0.319-0.967,0.539-1.434c0.436-0.934,0.984-1.849,1.256-2.846
					c0.479-1.709-0.414-3.549-1.473-4.885c-0.26-0.339-0.542-0.636-0.799-0.905c-0.26-0.266-0.504-0.5-0.717-0.686
					c-0.433-0.369-0.724-0.568-0.721-0.547c0.207,1.317-0.019,2.175-0.307,3.009C132.16,24.752,131.819,25.561,131.675,26.795z"/>
				<path d="M127.256,31.14c1.714-0.25,3.388,0.595,4.579,1.51c0.292,0.232,0.555,0.465,0.787,0.686
					c0.116,0.11,0.223,0.215,0.32,0.316c0.097,0.102,0.182,0.2,0.257,0.289c0.304,0.356,0.448,0.591,0.398,0.575
					c-0.526-0.155-1.037-0.19-1.536-0.147c-0.504,0.046-0.993,0.168-1.482,0.32c-0.971,0.306-1.915,0.725-2.889,0.941
					c-0.833,0.187-1.602,0.08-2.313-0.154c-0.351-0.118-0.68-0.28-0.997-0.455c-0.316-0.174-0.611-0.37-0.877-0.574
					c-0.26-0.207-0.514-0.406-0.727-0.604c-0.216-0.196-0.401-0.387-0.551-0.549c-0.311-0.32-0.473-0.546-0.458-0.546
					c0.583-0.021,1.081-0.112,1.517-0.232c0.442-0.123,0.833-0.284,1.229-0.459C125.291,31.711,126.081,31.302,127.256,31.14z"/>
			</g>
			<g>
				<path d="M123.815,19.903c0.066,1.789,1.069,3.411,2.009,4.619c0.241,0.295,0.467,0.578,0.689,0.815
					c0.216,0.24,0.42,0.443,0.595,0.606c0.342,0.333,0.564,0.5,0.552,0.447c-0.122-0.543-0.132-1.067-0.082-1.572
					c0.053-0.507,0.176-1.005,0.323-1.502c0.298-0.994,0.693-1.966,0.821-2.999c0.053-0.44,0.028-0.876-0.072-1.304
					c-0.097-0.421-0.26-0.832-0.467-1.227c-0.106-0.197-0.223-0.39-0.345-0.579c-0.125-0.186-0.26-0.364-0.401-0.538
					c-0.285-0.347-0.586-0.675-0.896-0.966c-0.63-0.576-1.253-1.05-1.736-1.346c-0.482-0.303-0.799-0.459-0.796-0.438
					c0.398,1.281,0.31,2.149,0.144,3.021C123.99,17.813,123.765,18.669,123.815,19.903z"/>
				<path d="M120.085,24.856c1.655-0.49,3.447,0.079,4.748,0.818c0.332,0.178,0.621,0.378,0.884,0.56
					c0.26,0.184,0.482,0.359,0.661,0.51c0.351,0.311,0.533,0.52,0.479,0.512c-0.542-0.078-1.05-0.037-1.545,0.084
					c-0.489,0.12-0.959,0.313-1.414,0.533c-0.912,0.44-1.792,1.005-2.723,1.363c-0.395,0.151-0.79,0.23-1.172,0.253
					c-0.389,0.028-0.768,0.001-1.135-0.066c-0.182-0.035-0.36-0.078-0.536-0.131c-0.176-0.049-0.351-0.105-0.521-0.169
					c-0.335-0.126-0.652-0.282-0.946-0.441c-0.599-0.31-1.087-0.679-1.441-0.945c-0.351-0.273-0.545-0.474-0.527-0.477
					c1.144-0.212,1.887-0.633,2.607-1.091C118.23,25.713,118.945,25.197,120.085,24.856z"/>
			</g>
			<g>
				<path d="M115.015,14.255c0.084,0.437,0.219,0.864,0.401,1.262c0.179,0.402,0.404,0.772,0.646,1.135
					c0.241,0.361,0.511,0.698,0.79,1.008c0.276,0.309,0.558,0.606,0.837,0.866c0.564,0.516,1.084,0.947,1.479,1.217
					c0.395,0.27,0.636,0.408,0.614,0.356c-0.097-0.261-0.169-0.52-0.223-0.772c-0.05-0.256-0.082-0.512-0.091-0.768
					c-0.022-0.511,0.025-1.022,0.097-1.536c0.144-1.022,0.392-2.042,0.367-3.086c-0.019-0.895-0.382-1.701-0.912-2.424
					c-0.263-0.364-0.577-0.687-0.906-0.993c-0.329-0.303-0.677-0.583-1.031-0.82c-0.351-0.241-0.702-0.453-1.028-0.635
					c-0.326-0.18-0.633-0.322-0.893-0.438c-0.517-0.229-0.856-0.338-0.846-0.319c0.58,1.212,0.624,2.085,0.595,2.968
					C114.877,12.16,114.78,13.048,115.015,14.255z"/>
				<path d="M112.066,19.708c0.392-0.185,0.799-0.298,1.216-0.367c0.41-0.064,0.84-0.09,1.253-0.058
					c0.414,0.027,0.827,0.093,1.222,0.183c0.398,0.09,0.771,0.217,1.122,0.346c0.705,0.257,1.285,0.586,1.686,0.831
					c0.401,0.245,0.602,0.434,0.551,0.431c-0.272,0-0.536,0.031-0.787,0.087c-0.254,0.056-0.495,0.133-0.727,0.228
					c-0.467,0.19-0.902,0.448-1.319,0.734c-0.84,0.575-1.626,1.268-2.491,1.752c-0.733,0.41-1.511,0.558-2.25,0.528
					c-0.367-0.017-0.74-0.058-1.087-0.136c-0.351-0.077-0.687-0.184-1.006-0.293c-0.316-0.112-0.611-0.238-0.871-0.367
					c-0.263-0.125-0.498-0.244-0.692-0.355c-0.386-0.219-0.608-0.39-0.589-0.395c1.097-0.377,1.768-0.902,2.413-1.467
					C110.358,20.831,110.985,20.222,112.066,19.708z"/>
			</g>
		</g>
	</g>
	<path d="M32.503,129.465c1.75-0.316,3.568,0.28,4.947,0.938c1.38,0.657,2.339,1.374,2.23,1.38
		c-0.555-0.003-1.066,0.099-1.553,0.267c-0.487,0.169-0.939,0.393-1.392,0.647c-0.898,0.503-1.769,1.114-2.745,1.463
		c-1.665,0.602-3.575-0.146-4.979-1.109c-0.357-0.233-0.679-0.487-0.963-0.725c-0.285-0.242-0.534-0.469-0.737-0.666
		c-0.401-0.401-0.62-0.682-0.599-0.679c0.666,0.055,1.204,0.013,1.685-0.094c0.477-0.104,0.888-0.26,1.292-0.434
		c0.406-0.174,0.803-0.365,1.254-0.538C31.393,129.741,31.898,129.578,32.503,129.465z"/>
	<path d="M127.259,129.392c-1.749-0.318-3.566,0.28-4.949,0.938c-1.375,0.658-2.334,1.376-2.225,1.379
		c0.555-0.001,1.066,0.101,1.551,0.27c0.486,0.167,0.94,0.392,1.389,0.646c0.902,0.503,1.771,1.116,2.745,1.463
		c1.667,0.602,3.576-0.144,4.979-1.109c0.357-0.233,0.68-0.485,0.965-0.727c0.285-0.24,0.536-0.467,0.736-0.664
		c0.401-0.401,0.618-0.682,0.599-0.679c-0.664,0.055-1.203,0.011-1.686-0.094c-0.476-0.104-0.887-0.26-1.294-0.434
		c-0.401-0.174-0.802-0.365-1.248-0.539C128.372,129.669,127.867,129.506,127.259,129.392z"/>
	<g>
		<path d="M37.381,76.866h-0.943v-6.738h-0.022l-1.426,1.202l-0.562-0.685l2.134-1.729h0.82V76.866z"/>
		<path d="M45.782,73.553L45.76,73.53c-0.292,0.168-0.741,0.236-1.067,0.236c-1.381,0-2.403-1.011-2.403-2.493
			c0-1.55,1.157-2.493,2.662-2.493s2.662,0.943,2.662,2.493c0,0.921-0.326,1.55-0.752,2.235l-2.111,3.358h-1.101L45.782,73.553z
			 M46.669,71.273c0-1.033-0.764-1.685-1.718-1.685s-1.718,0.651-1.718,1.685s0.764,1.685,1.718,1.685S46.669,72.306,46.669,71.273z
			"/>
	</g>
	<g>
		<g>
			<path d="M119.83,68.341c1.28,0,2.269,0.831,2.269,2.078c0,0.752-0.494,1.539-1.303,1.752v0.022
				c0.955,0.202,1.572,1.044,1.572,2.044c0,1.449-1.123,2.325-2.538,2.325s-2.538-0.876-2.538-2.325c0-1,0.618-1.842,1.572-2.044
				v-0.022c-0.809-0.213-1.303-1-1.303-1.752C117.562,69.172,118.55,68.341,119.83,68.341z M119.83,75.753
				c0.887,0,1.595-0.651,1.595-1.583s-0.708-1.583-1.595-1.583s-1.595,0.651-1.595,1.583S118.943,75.753,119.83,75.753z
				 M119.83,71.778c0.786,0,1.325-0.562,1.325-1.314s-0.539-1.314-1.325-1.314s-1.325,0.562-1.325,1.314
				S119.044,71.778,119.83,71.778z"/>
			<path d="M129.905,73.732h1.146v0.876h-1.146v1.819h-0.943v-1.819h-3.369v-1.044l3.156-5.087h1.157V73.732z M128.961,69.577
				h-0.022l-2.538,4.155h2.561V69.577z"/>
		</g>
	</g>
	<g>
		<path d="M48.198,109.572l-3.414-5.197h2.028l2.232,3.619l2.259-3.619h1.925l-3.414,5.197v3.888h-1.617V109.572z"/>
		<path d="M61.767,104.375h6.019v1.463h-4.401v2.233h4.17v1.463h-4.17v2.464h4.632v1.463h-6.25V104.375z"/>
		<path d="M80.25,104.375h1.398l3.914,9.085h-1.848l-0.847-2.079h-3.939l-0.821,2.079h-1.81L80.25,104.375z M82.303,109.996
			l-1.399-3.696l-1.424,3.696H82.303z"/>
		<path d="M94.28,104.375h3.157c1.746,0,3.388,0.564,3.388,2.605c0,1.309-0.757,2.271-2.104,2.464l2.412,4.017h-1.95l-2.104-3.85
			h-1.181v3.85H94.28V104.375z M97.155,108.225c0.911,0,1.977-0.077,1.977-1.257c0-1.078-1.001-1.207-1.835-1.207h-1.398v2.464
			H97.155z"/>
		<path d="M114.522,106.326c-0.347-0.488-0.962-0.719-1.591-0.719c-0.744,0-1.489,0.333-1.489,1.167
			c0,1.822,4.312,0.783,4.312,4.017c0,1.95-1.54,2.9-3.324,2.9c-1.129,0-2.233-0.347-2.977-1.232l1.219-1.181
			c0.398,0.603,1.078,0.95,1.797,0.95c0.744,0,1.591-0.411,1.591-1.245c0-1.989-4.312-0.847-4.312-4.094
			c0-1.874,1.668-2.746,3.35-2.746c0.949,0,1.899,0.27,2.605,0.937L114.522,106.326z"/>
	</g>
</g>
<g>
</g>
<g>
</g>
<g>
</g>
<g>
</g>
<g>
</g>
<g>
</g>
</svg>
