<?xml version="1.0" encoding="utf-8"?>
<!-- Generator: Adobe Illustrator 16.0.3, SVG Export Plug-In . SVG Version: 6.00 Build 0)  -->
<!DOCTYPE svg PUBLIC "-//W3C//DTD SVG 1.1//EN" "http://www.w3.org/Graphics/SVG/1.1/DTD/svg11.dtd">
<svg version="1.1" id="Layer_1" xmlns="http://www.w3.org/2000/svg" xmlns:xlink="http://www.w3.org/1999/xlink" x="0px" y="0px"
	 width="824.579px" height="76.601px" viewBox="0 0 824.579 76.601" enable-background="new 0 0 824.579 76.601"
	 xml:space="preserve">
<g>
	<path fill="#57C3D7" d="M443.377,18.249c-0.708-0.778-1.734-1.608-3.077-2.493c-1.345-0.884-2.918-1.714-4.722-2.494
		c-1.803-0.777-3.785-1.414-5.941-1.91c-2.158-0.494-4.368-0.743-6.631-0.743c-5.023,0-8.718,0.92-11.087,2.759
		c-2.371,1.84-3.554,4.386-3.554,7.639c0,1.84,0.371,3.342,1.114,4.509s1.892,2.193,3.448,3.077
		c1.555,0.885,3.501,1.663,5.835,2.334c2.334,0.673,5.056,1.397,8.169,2.175c3.819,0.92,7.268,1.946,10.344,3.077
		c3.077,1.132,5.676,2.512,7.798,4.138c2.122,1.628,3.766,3.625,4.934,5.995c1.167,2.37,1.75,5.252,1.75,8.647
		c0,3.818-0.726,7.107-2.175,9.866c-1.451,2.759-3.432,5.005-5.941,6.737c-2.511,1.734-5.429,3.008-8.753,3.819
		c-3.325,0.813-6.896,1.22-10.716,1.22c-5.729,0-11.264-0.865-16.604-2.6c-5.341-1.731-10.169-4.26-14.482-7.585l5.411-10.186
		c0.918,0.92,2.245,1.946,3.979,3.077c1.732,1.132,3.749,2.175,6.048,3.129c2.297,0.955,4.791,1.77,7.479,2.441
		c2.688,0.672,5.48,1.008,8.382,1.008c4.668,0,8.275-0.813,10.822-2.44c2.546-1.626,3.819-4.032,3.819-7.215
		c0-1.909-0.478-3.501-1.432-4.774c-0.955-1.273-2.317-2.387-4.085-3.342c-1.769-0.955-3.925-1.82-6.472-2.6
		c-2.546-0.777-5.447-1.591-8.7-2.44c-3.75-0.99-7.021-2.033-9.813-3.13c-2.795-1.096-5.111-2.422-6.95-3.979
		c-1.84-1.555-3.236-3.377-4.19-5.464c-0.955-2.085-1.433-4.615-1.433-7.586c0-3.677,0.706-6.949,2.122-9.814
		c1.414-2.864,3.342-5.268,5.782-7.214c2.44-1.944,5.321-3.412,8.647-4.403C415.827,0.496,419.434,0,423.325,0
		c5.093,0,9.796,0.814,14.111,2.44c4.313,1.628,8.098,3.644,11.353,6.047L443.377,18.249z"/>
	<path fill="#57C3D7" d="M517.75,11.034h-25.038v64.825h-11.989V11.034h-25.145V0.53h62.172V11.034z"/>
	<path fill="#57C3D7" d="M558.598,65.673c3.96,0,7.249-0.777,9.867-2.334c2.615-1.555,4.721-3.589,6.313-6.101
		c1.591-2.51,2.722-5.374,3.395-8.594c0.672-3.218,1.008-6.525,1.008-9.92V0.53h11.989v38.195c0,5.164-0.602,10.026-1.804,14.589
		c-1.203,4.562-3.113,8.559-5.729,11.988c-2.617,3.432-5.994,6.137-10.132,8.116c-4.138,1.981-9.107,2.971-14.906,2.971
		c-6.013,0-11.087-1.042-15.226-3.13c-4.138-2.086-7.479-4.881-10.025-8.381c-2.547-3.502-4.387-7.516-5.518-12.043
		c-1.132-4.525-1.697-9.23-1.697-14.11V0.53h11.883v38.195c0,3.466,0.335,6.809,1.008,10.026c0.672,3.219,1.804,6.084,3.396,8.594
		c1.591,2.512,3.713,4.527,6.365,6.047C551.436,64.915,554.708,65.673,558.598,65.673z"/>
	<path fill="#57C3D7" d="M606.34,75.859V0.53h26.736c6.083,0,11.406,0.991,15.968,2.971c4.563,1.981,8.382,4.668,11.459,8.063
		c3.076,3.395,5.393,7.374,6.949,11.936c1.555,4.563,2.334,9.426,2.334,14.588c0,5.729-0.867,10.911-2.6,15.544
		c-1.733,4.633-4.19,8.594-7.374,11.883c-3.183,3.288-7.038,5.834-11.564,7.639c-4.527,1.803-9.585,2.705-15.172,2.705H606.34z
		 M657.692,38.088c0-3.96-0.549-7.603-1.645-10.928c-1.098-3.324-2.706-6.17-4.828-8.541c-2.121-2.369-4.704-4.226-7.745-5.57
		c-3.042-1.343-6.508-2.016-10.397-2.016h-14.854v54.321h14.854c3.961,0,7.48-0.689,10.557-2.068
		c3.077-1.379,5.658-3.289,7.745-5.729c2.086-2.44,3.661-5.321,4.722-8.647C657.161,45.586,657.692,41.979,657.692,38.088z"/>
	<path fill="#57C3D7" d="M681.668,75.859V0.53h11.883v75.329H681.668z"/>
	<path fill="#57C3D7" d="M761.559,65.355v10.504h-51.67V0.53h50.715v10.503h-38.832v21.432h33.633v9.867h-33.633v23.022H761.559z"/>
	<path fill="#57C3D7" d="M816.197,18.249c-0.707-0.778-1.733-1.608-3.076-2.493c-1.345-0.884-2.918-1.714-4.722-2.494
		c-1.804-0.777-3.784-1.414-5.941-1.91c-2.158-0.494-4.368-0.743-6.631-0.743c-5.023,0-8.718,0.92-11.087,2.759
		c-2.371,1.84-3.555,4.386-3.555,7.639c0,1.84,0.372,3.342,1.114,4.509c0.743,1.167,1.892,2.193,3.448,3.077
		c1.555,0.885,3.501,1.663,5.835,2.334c2.334,0.673,5.057,1.397,8.17,2.175c3.819,0.92,7.268,1.946,10.345,3.077
		c3.076,1.132,5.676,2.512,7.798,4.138c2.122,1.628,3.767,3.625,4.934,5.995c1.167,2.37,1.75,5.252,1.75,8.647
		c0,3.818-0.726,7.107-2.175,9.866c-1.45,2.759-3.432,5.005-5.941,6.737c-2.512,1.734-5.429,3.008-8.753,3.819
		c-3.325,0.813-6.896,1.22-10.716,1.22c-5.729,0-11.265-0.865-16.604-2.6c-5.341-1.731-10.168-4.26-14.481-7.585l5.411-10.186
		c0.918,0.92,2.244,1.946,3.979,3.077c1.732,1.132,3.748,2.175,6.047,3.129c2.298,0.955,4.791,1.77,7.48,2.441
		c2.687,0.672,5.48,1.008,8.381,1.008c4.669,0,8.276-0.813,10.822-2.44c2.546-1.626,3.819-4.032,3.819-7.215
		c0-1.909-0.478-3.501-1.433-4.774c-0.954-1.273-2.317-2.387-4.084-3.342c-1.77-0.955-3.926-1.82-6.473-2.6
		c-2.546-0.777-5.447-1.591-8.699-2.44c-3.75-0.99-7.021-2.033-9.814-3.13c-2.795-1.096-5.11-2.422-6.949-3.979
		c-1.84-1.555-3.235-3.377-4.19-5.464c-0.955-2.085-1.433-4.615-1.433-7.586c0-3.677,0.706-6.949,2.122-9.814
		c1.414-2.864,3.342-5.268,5.782-7.214c2.44-1.944,5.321-3.412,8.646-4.403C788.647,0.496,792.254,0,796.145,0
		c5.093,0,9.796,0.814,14.11,2.44c4.313,1.628,8.099,3.644,11.353,6.047L816.197,18.249z"/>
</g>
<g>
	<path fill="#2C2F38" d="M55.701,72.328c-2.617,1.345-5.394,2.371-8.329,3.077c-2.936,0.706-6.031,1.061-9.283,1.061
		c-5.729,0-10.928-1.077-15.596-3.235c-4.668-2.157-8.665-5.021-11.989-8.594c-3.326-3.571-5.907-7.656-7.745-12.254
		C0.918,47.785,0,43.045,0,38.165c0-4.95,0.955-9.724,2.865-14.323c1.91-4.597,4.579-8.664,8.01-12.201
		c3.43-3.536,7.497-6.348,12.201-8.435c4.703-2.085,9.849-3.13,15.437-3.13c5.729,0,10.928,1.114,15.596,3.342
		c4.668,2.228,8.664,5.146,11.989,8.753c3.324,3.607,5.889,7.71,7.692,12.307c1.803,4.599,2.705,9.302,2.705,14.111
		c0,4.668-0.832,9.143-2.493,13.421c-1.663,4.28-4.015,8.116-7.055,11.512l11.458,12.413h-19.31L55.701,72.328z M38.301,58.111
		c1.555,0,2.865-0.141,3.926-0.424L29.813,44.106h19.31l4.138,4.563c0.777-1.626,1.343-3.324,1.697-5.093
		c0.354-1.767,0.531-3.571,0.531-5.411c0-2.546-0.355-5.003-1.061-7.374c-0.708-2.369-1.787-4.473-3.236-6.313
		c-1.451-1.838-3.254-3.305-5.411-4.403c-2.158-1.096-4.687-1.645-7.586-1.645c-2.971,0-5.535,0.583-7.692,1.75
		c-2.158,1.167-3.944,2.689-5.358,4.563c-1.416,1.875-2.458,3.997-3.13,6.366c-0.673,2.371-1.008,4.792-1.008,7.268
		c0,2.546,0.353,5.005,1.061,7.374c0.706,2.37,1.767,4.475,3.183,6.313c1.414,1.84,3.2,3.307,5.358,4.402
		C32.766,57.564,35.33,58.111,38.301,58.111z"/>
	<path fill="#2C2F38" d="M80.527,37.634c0-4.597,0.866-9.125,2.6-13.581c1.732-4.456,4.26-8.451,7.586-11.989
		c3.324-3.536,7.355-6.401,12.095-8.594c4.738-2.192,10.149-3.289,16.233-3.289c7.284,0,13.597,1.503,18.938,4.509
		c5.339,3.007,9.318,6.985,11.936,11.936l-15.808,11.246c-0.708-1.838-1.645-3.358-2.812-4.562
		c-1.167-1.202-2.458-2.157-3.873-2.865c-1.416-0.706-2.883-1.202-4.403-1.485c-1.521-0.282-2.989-0.424-4.403-0.424
		c-2.971,0-5.535,0.583-7.692,1.751c-2.159,1.167-3.926,2.688-5.305,4.562c-1.379,1.875-2.405,3.997-3.077,6.366
		c-0.673,2.371-1.008,4.721-1.008,7.056c0,2.617,0.388,5.129,1.167,7.533c0.777,2.404,1.91,4.527,3.395,6.365
		c1.485,1.84,3.306,3.307,5.464,4.402c2.157,1.098,4.579,1.645,7.268,1.645c1.415,0,2.865-0.158,4.35-0.477s2.918-0.85,4.297-1.592
		c1.379-0.742,2.616-1.697,3.713-2.865c1.096-1.166,1.963-2.599,2.6-4.297l16.869,10.08c-1.132,2.758-2.848,5.234-5.146,7.427
		c-2.299,2.192-4.917,4.031-7.851,5.517c-2.936,1.485-6.084,2.617-9.443,3.396c-3.36,0.777-6.631,1.167-9.814,1.167
		c-5.588,0-10.699-1.114-15.331-3.342c-4.634-2.229-8.63-5.181-11.989-8.859c-3.36-3.677-5.959-7.852-7.798-12.52
		C81.446,47.183,80.527,42.445,80.527,37.634z"/>
	<path fill="#2C2F38" d="M180.575,75.935V0.606h32.466c3.677,0,7.072,0.761,10.185,2.281c3.112,1.521,5.782,3.501,8.01,5.941
		c2.228,2.44,3.979,5.235,5.252,8.381c1.273,3.148,1.91,6.313,1.91,9.496c0,3.326-0.602,6.562-1.804,9.708
		c-1.203,3.148-2.883,5.941-5.04,8.382c-2.158,2.439-4.774,4.386-7.851,5.834c-3.077,1.451-6.455,2.176-10.132,2.176h-12.307v23.129
		H180.575z M201.264,34.77h10.928c1.273,0,2.457-0.583,3.554-1.75c1.096-1.167,1.645-3.271,1.645-6.313
		c0-3.111-0.637-5.233-1.91-6.366c-1.273-1.13-2.546-1.697-3.82-1.697h-10.397V34.77z"/>
	<path fill="#2C2F38" d="M299.72,57.898v18.037h-53.685V0.606h52.73v18.037h-32.042v10.609h27.373v16.763h-27.373v11.883H299.72z"/>
	<path fill="#2C2F38" d="M367.408,18.643h-21.644v57.292h-20.689V18.643h-21.75V0.606h64.083V18.643z"/>
</g>
<g>
</g>
<g>
</g>
<g>
</g>
<g>
</g>
<g>
</g>
<g>
</g>
<g>
</g>
<g>
</g>
<g>
</g>
<g>
</g>
<g>
</g>
<g>
</g>
<g>
</g>
<g>
</g>
<g>
</g>
</svg>
