<?xml version="1.0" encoding="utf-8"?>
<svg version="1.1" xmlns="http://www.w3.org/2000/svg" xmlns:xlink="http://www.w3.org/1999/xlink" viewBox="0 0 824.579 76.602">
<g>
	<path fill="#57C3D7" d="M443.377,18.249c-0.709-0.777-1.734-1.607-3.078-2.493c-1.344-0.884-2.918-1.714-4.721-2.493
		c-1.803-0.777-3.785-1.414-5.941-1.91c-2.158-0.494-4.369-0.743-6.631-0.743c-5.023,0-8.719,0.92-11.087,2.759
		c-2.371,1.84-3.554,4.386-3.554,7.639c0,1.841,0.371,3.343,1.113,4.51c0.743,1.167,1.893,2.192,3.448,3.076
		c1.557,0.886,3.502,1.663,5.836,2.334c2.334,0.674,5.057,1.397,8.168,2.176c3.82,0.92,7.27,1.945,10.346,3.077
		s5.676,2.512,7.797,4.138c2.123,1.628,3.766,3.625,4.934,5.995s1.75,5.252,1.75,8.646c0,3.818-0.725,7.107-2.174,9.866
		c-1.451,2.759-3.432,5.005-5.941,6.737c-2.512,1.733-5.43,3.008-8.754,3.818c-3.324,0.813-6.895,1.221-10.715,1.221
		c-5.729,0-11.264-0.865-16.604-2.601c-5.342-1.73-10.169-4.26-14.482-7.585l5.411-10.186c0.918,0.92,2.245,1.945,3.979,3.077
		c1.732,1.132,3.749,2.175,6.049,3.129c2.297,0.955,4.791,1.77,7.478,2.44c2.689,0.672,5.48,1.008,8.383,1.008
		c4.668,0,8.275-0.813,10.822-2.439c2.545-1.626,3.818-4.032,3.818-7.215c0-1.909-0.479-3.501-1.432-4.774
		c-0.955-1.272-2.316-2.387-4.086-3.342c-1.768-0.955-3.924-1.82-6.471-2.6c-2.547-0.777-5.447-1.592-8.701-2.44
		c-3.75-0.99-7.02-2.033-9.812-3.13c-2.796-1.096-5.111-2.422-6.95-3.979c-1.84-1.555-3.236-3.377-4.19-5.464
		c-0.955-2.085-1.433-4.614-1.433-7.586c0-3.677,0.706-6.949,2.122-9.813c1.414-2.864,3.342-5.269,5.782-7.214
		c2.439-1.944,5.32-3.412,8.646-4.403C415.827,0.496,419.434,0,423.325,0c5.094,0,9.797,0.814,14.111,2.44
		c4.313,1.628,8.098,3.644,11.354,6.047L443.377,18.249z"/>
	<path fill="#57C3D7" d="M517.75,11.034h-25.039v64.825h-11.988V11.034h-25.145V0.53h62.172V11.034z"/>
	<path fill="#57C3D7" d="M558.598,65.673c3.959,0,7.248-0.776,9.867-2.334c2.615-1.555,4.721-3.589,6.313-6.101
		c1.592-2.51,2.723-5.374,3.395-8.594c0.672-3.219,1.008-6.525,1.008-9.92V0.53h11.99v38.195c0,5.164-0.602,10.025-1.805,14.589
		c-1.203,4.562-3.113,8.559-5.729,11.987c-2.617,3.433-5.994,6.138-10.133,8.116c-4.137,1.981-9.105,2.972-14.906,2.972
		c-6.012,0-11.086-1.042-15.225-3.131c-4.139-2.086-7.48-4.881-10.025-8.381c-2.547-3.502-4.387-7.516-5.518-12.043
		c-1.133-4.524-1.697-9.229-1.697-14.109V0.53h11.883v38.195c0,3.466,0.334,6.809,1.008,10.025c0.672,3.22,1.805,6.084,3.396,8.595
		c1.59,2.512,3.713,4.526,6.365,6.047C551.436,64.915,554.708,65.673,558.598,65.673z"/>
	<path fill="#57C3D7" d="M606.34,75.859V0.53h26.736c6.082,0,11.406,0.991,15.967,2.971c4.564,1.981,8.383,4.668,11.459,8.063
		c3.076,3.395,5.395,7.374,6.949,11.936c1.555,4.563,2.334,9.426,2.334,14.588c0,5.729-0.867,10.911-2.6,15.544
		c-1.732,4.634-4.189,8.595-7.373,11.884c-3.184,3.288-7.039,5.834-11.564,7.639c-4.527,1.803-9.586,2.705-15.172,2.705H606.34z
		 M657.692,38.088c0-3.96-0.549-7.603-1.645-10.928c-1.098-3.324-2.707-6.17-4.828-8.541c-2.121-2.369-4.705-4.226-7.746-5.57
		c-3.041-1.343-6.508-2.016-10.396-2.016h-14.854v54.321h14.854c3.961,0,7.48-0.689,10.557-2.068
		c3.078-1.379,5.658-3.289,7.746-5.729c2.086-2.44,3.66-5.321,4.721-8.647C657.161,45.586,657.692,41.979,657.692,38.088z"/>
	<path fill="#57C3D7" d="M681.668,75.859V0.53h11.883v75.329H681.668z"/>
	<path fill="#57C3D7" d="M761.559,65.355v10.504h-51.67V0.53h50.715v10.503h-38.832v21.432h33.633v9.867h-33.633v23.022
		L761.559,65.355L761.559,65.355z"/>
	<path fill="#57C3D7" d="M816.198,18.249c-0.707-0.777-1.734-1.607-3.076-2.493c-1.346-0.884-2.918-1.714-4.723-2.493
		c-1.805-0.777-3.783-1.414-5.941-1.91c-2.158-0.494-4.367-0.743-6.631-0.743c-5.023,0-8.717,0.92-11.086,2.759
		c-2.371,1.84-3.555,4.386-3.555,7.639c0,1.841,0.371,3.343,1.113,4.51s1.893,2.192,3.447,3.076
		c1.555,0.886,3.502,1.663,5.836,2.334c2.334,0.674,5.057,1.397,8.17,2.176c3.818,0.92,7.268,1.945,10.344,3.077
		s5.678,2.512,7.799,4.138c2.123,1.628,3.768,3.625,4.934,5.995c1.168,2.37,1.75,5.252,1.75,8.646c0,3.818-0.725,7.107-2.174,9.866
		c-1.451,2.759-3.434,5.005-5.941,6.737c-2.512,1.733-5.43,3.008-8.754,3.818c-3.324,0.813-6.895,1.221-10.715,1.221
		c-5.729,0-11.266-0.865-16.604-2.601c-5.342-1.73-10.17-4.26-14.482-7.585l5.412-10.186c0.918,0.92,2.244,1.945,3.979,3.077
		c1.732,1.132,3.748,2.175,6.047,3.129c2.299,0.955,4.791,1.77,7.48,2.44c2.686,0.672,5.479,1.008,8.381,1.008
		c4.668,0,8.275-0.813,10.822-2.439c2.545-1.626,3.818-4.032,3.818-7.215c0-1.909-0.479-3.501-1.434-4.774
		c-0.953-1.272-2.316-2.387-4.084-3.342c-1.77-0.955-3.926-1.82-6.473-2.6c-2.545-0.777-5.447-1.592-8.699-2.44
		c-3.75-0.99-7.021-2.033-9.814-3.13c-2.795-1.096-5.109-2.422-6.947-3.979c-1.842-1.555-3.236-3.377-4.191-5.464
		c-0.955-2.085-1.432-4.614-1.432-7.586c0-3.677,0.705-6.949,2.121-9.813c1.414-2.864,3.342-5.269,5.781-7.214
		c2.441-1.944,5.322-3.412,8.646-4.403C788.647,0.496,792.254,0,796.145,0c5.094,0,9.797,0.814,14.109,2.44
		c4.314,1.628,8.1,3.644,11.354,6.047L816.198,18.249z"/>
</g>
<g>
	<path fill="#FFFFFF" d="M55.701,72.328c-2.617,1.345-5.394,2.371-8.329,3.077c-2.936,0.706-6.031,1.061-9.283,1.061
		c-5.729,0-10.928-1.076-15.596-3.234c-4.668-2.157-8.665-5.021-11.989-8.594c-3.326-3.571-5.907-7.656-7.745-12.255
		C0.918,47.785,0,43.045,0,38.165c0-4.95,0.955-9.724,2.865-14.323c1.91-4.597,4.579-8.663,8.01-12.2
		c3.43-3.536,7.497-6.349,12.201-8.436c4.703-2.085,9.849-3.13,15.437-3.13c5.729,0,10.928,1.114,15.596,3.342
		c4.668,2.229,8.664,5.146,11.989,8.753c3.324,3.607,5.889,7.71,7.692,12.308c1.803,4.599,2.705,9.302,2.705,14.11
		c0,4.668-0.832,9.144-2.493,13.421c-1.663,4.28-4.015,8.116-7.055,11.513l11.458,12.413h-19.31L55.701,72.328z M38.301,58.111
		c1.555,0,2.865-0.141,3.926-0.424L29.813,44.106h19.31l4.138,4.563c0.777-1.626,1.343-3.323,1.697-5.093
		c0.354-1.767,0.531-3.571,0.531-5.411c0-2.546-0.355-5.003-1.061-7.374c-0.708-2.369-1.787-4.473-3.236-6.313
		c-1.451-1.838-3.254-3.306-5.411-4.403c-2.158-1.096-4.688-1.645-7.586-1.645c-2.971,0-5.535,0.583-7.692,1.75
		c-2.158,1.167-3.944,2.688-5.358,4.563c-1.416,1.875-2.458,3.997-3.13,6.366c-0.673,2.371-1.008,4.792-1.008,7.268
		c0,2.546,0.353,5.005,1.061,7.374c0.706,2.37,1.767,4.476,3.183,6.313c1.414,1.84,3.2,3.307,5.358,4.401
		C32.766,57.564,35.33,58.111,38.301,58.111z"/>
	<path fill="#FFFFFF" d="M80.527,37.634c0-4.597,0.866-9.125,2.6-13.58c1.732-4.456,4.26-8.451,7.586-11.989
		c3.324-3.536,7.355-6.401,12.095-8.594c4.738-2.192,10.149-3.289,16.233-3.289c7.284,0,13.597,1.503,18.938,4.509
		c5.339,3.007,9.318,6.984,11.936,11.936l-15.808,11.246c-0.708-1.838-1.645-3.357-2.812-4.562
		c-1.167-1.202-2.458-2.157-3.873-2.865c-1.416-0.706-2.883-1.202-4.403-1.485c-1.521-0.281-2.989-0.424-4.403-0.424
		c-2.971,0-5.535,0.583-7.692,1.751c-2.159,1.167-3.926,2.688-5.305,4.563c-1.379,1.875-2.405,3.997-3.077,6.365
		c-0.673,2.371-1.008,4.722-1.008,7.057c0,2.617,0.388,5.129,1.167,7.533c0.777,2.403,1.91,4.526,3.395,6.364
		c1.485,1.84,3.306,3.308,5.464,4.402c2.157,1.098,4.579,1.645,7.268,1.645c1.415,0,2.865-0.157,4.35-0.477
		c1.485-0.319,2.918-0.85,4.297-1.592s2.616-1.697,3.713-2.865c1.096-1.166,1.963-2.599,2.6-4.297l16.869,10.08
		c-1.132,2.758-2.848,5.233-5.146,7.427c-2.299,2.192-4.917,4.031-7.851,5.517c-2.936,1.485-6.084,2.617-9.443,3.396
		c-3.36,0.777-6.631,1.167-9.814,1.167c-5.588,0-10.699-1.114-15.331-3.342c-4.634-2.229-8.63-5.182-11.989-8.859
		c-3.36-3.677-5.959-7.852-7.798-12.52C81.446,47.183,80.527,42.445,80.527,37.634z"/>
	<path fill="#FFFFFF" d="M180.575,75.935V0.606h32.466c3.677,0,7.072,0.761,10.185,2.281c3.112,1.521,5.782,3.501,8.01,5.94
		c2.228,2.44,3.979,5.235,5.252,8.381c1.273,3.148,1.91,6.313,1.91,9.496c0,3.326-0.602,6.563-1.804,9.708
		c-1.203,3.148-2.883,5.941-5.04,8.382c-2.158,2.439-4.774,4.387-7.851,5.834c-3.077,1.451-6.455,2.177-10.132,2.177h-12.307v23.129
		L180.575,75.935L180.575,75.935z M201.264,34.77h10.928c1.273,0,2.457-0.583,3.554-1.75c1.096-1.167,1.645-3.271,1.645-6.313
		c0-3.11-0.637-5.232-1.91-6.366c-1.273-1.13-2.546-1.696-3.82-1.696h-10.397V34.77L201.264,34.77z"/>
	<path fill="#FFFFFF" d="M299.72,57.898v18.037h-53.685V0.606h52.73v18.037h-32.042v10.608h27.373v16.764h-27.373v11.883H299.72z"/>
	<path fill="#FFFFFF" d="M367.408,18.643h-21.645v57.292h-20.688V18.643h-21.75V0.606h64.083V18.643z"/>
</g>
</svg>
