<?xml version="1.0" encoding="utf-8"?>
<!-- Generator: Adobe Illustrator 16.0.0, SVG Export Plug-In . SVG Version: 6.00 Build 0)  -->
<!DOCTYPE svg PUBLIC "-//W3C//DTD SVG 1.1//EN" "http://www.w3.org/Graphics/SVG/1.1/DTD/svg11.dtd">
<svg version="1.1" id="Layer_1" xmlns="http://www.w3.org/2000/svg" xmlns:xlink="http://www.w3.org/1999/xlink" x="0px" y="0px"
	 width="2000px" height="454.45px" viewBox="0 0 2000 454.45" enable-background="new 0 0 2000 454.45" xml:space="preserve">
<g>
	<path fill="#E8E8E8" d="M1351.984,269.606c-6.482-0.336-9.885-1.702-10.567-7.836c-1.365-15.336-2.385-31.007-2.385-47.361
		c0-41.585,5.076-84.151,20.521-123.019c7.484-18.836,15.357-38.239,28.546-53.688c12.589-14.747,27.848-34.493,49.231-34.489
		c22.716,0.005,38.203,20.82,50.957,36.587c12.392,15.322,20.899,35.021,28.041,53.359c14.75,37.879,19.301,79.148,19.301,119.549
		c0,14.652-0.684,29.976-2.396,46.331c-0.671,7.164-4.421,9.2-10.902,9.885c-7.836,0.683-17.372,1.018-26.573,1.018
		c-11.238,0-22.142-0.335-29.294-1.018c-4.434-0.685-6.818-2.721-6.818-7.153c0-7.5,5.452-23.171,5.452-43.959
		c0-13.622-6.817-19.408-21.805-19.408c-20.104,0-37.477,7.835-37.477,27.256c0,15.324,3.75,27.928,3.75,36.793
		c0.334,3.75-1.031,5.786-5.452,6.471c-7.5,0.683-17.72,1.018-28.622,1.018C1366.973,269.941,1359.819,269.941,1351.984,269.606
		 M1440.571,153.762c8.171-0.683,13.622-1.018,17.708-1.701c4.098-1.019,5.451-3.403,5.451-8.171
		c0-21.47-10.902-50.428-21.122-65.081c-1.702-2.049-2.72-3.403-4.086-3.403c-1.701,0-3.067,1.019-5.116,3.403
		c-17.037,19.421-25.543,55.532-25.543,77.337c0,3.067,1.354,4.098,3.402,4.098C1415.352,160.244,1425.919,154.792,1440.571,153.762
		"/>
	<path fill="#E8E8E8" d="M394.64,452.262h-38.174v-80.86h37.029c15.909,0,23.991,10.048,23.991,23.171
		c0,7.861-3.913,13.295-8.646,16.508c5.075,3.451,9.449,10.629,9.449,18.011C418.289,443.614,408.037,452.262,394.64,452.262
		 M391.427,387.431h-17.532v16.848h16.609c7.827,0,11.518-4.271,11.518-8.406C402.022,391.6,399.253,387.431,391.427,387.431
		 M391.188,419.624h-17.293v16.608h16.49c7.946,0,11.295-3.93,11.295-7.859C401.68,423.998,398.809,419.624,391.188,419.624"/>
	<path fill="#E8E8E8" d="M490.707,452.261l-5.536-15.104h-32.057l-6.117,15.104h-17.652l33.56-81.098h13.842l32.073,81.098H490.707z
		 M469.245,395.394l-10.031,25.392h19.839L469.245,395.394z"/>
	<path fill="#E8E8E8" d="M567.944,452.262l-20.522-35.064c-2.649,2.871-5.195,5.776-7.844,8.544v26.521h-18.113l0.12-80.859h17.993
		v30.929c9.347-10.287,18.797-20.778,28.144-30.929h18.335v2.529l-26.759,29.869c9.347,15.003,19.155,30.587,28.382,45.692v2.769
		H567.944z"/>
	<path fill="#E8E8E8" d="M599.881,452.262l0.12-80.859h56.629v16.609h-38.636c0,5.297-0.12,10.629-0.12,16.027h32.758v16.165
		h-32.638v15.345h39.9v16.713H599.881z"/>
	<path fill="#E8E8E8" d="M721.563,452.262l-23.649-30.45h-5.776v30.45h-17.754l-0.119-80.859h38.293
		c16.046,0,24.453,9.706,24.453,24.469c0,11.996-9.33,21.429-19.719,24.437l21.462,27.921v4.033H721.563z M709.79,388.012h-17.652
		v16.507c6.015,0,16.729,0.102,16.729,0.102c7.741,0,10.731-4.271,10.731-8.544C719.598,391.941,717.531,388.012,709.79,388.012"/>
	<polygon fill="#E8E8E8" points="790.854,421.811 790.854,452.261 772.621,452.261 772.621,421.127 746.34,374.512 746.34,371.402 
		764.095,371.402 783.011,404.86 800.782,371.402 817.272,371.402 817.272,374.409 	"/>
	<path fill="#E8E8E8" d="M923.985,452.159l-7.963-9.125c-5.057,5.194-11.756,10.389-20.744,10.389
		c-11.432,0-28.964-2.426-28.964-26.075c0-11.996,9.005-19.274,16.968-23.308l-0.7-0.786l-3.469-5.092
		c-2.29-3.351-3.213-6.563-3.213-9.81c0-10.149,9.911-18.66,23.633-18.66c14.644,0,21.342,9.434,21.342,19.345
		c0,9.603-6.801,15.72-13.721,20.095c2.888,3.452,5.417,6.801,8.424,10.253c4.836-7.382,6.904-11.518,6.904-11.518l11.192,7.724
		c0,0-3.691,7.621-8.527,15.208c4.836,5.673,9.809,11.757,14.645,17.43v3.931H923.985z M893.655,416.274
		c-6.118,3.246-10.954,6.459-10.954,11.518c0,8.885,6.562,10.525,13.38,10.525c2.99,0,6.681-2.666,10.27-6.698L893.655,416.274z
		 M899.771,383.056c-4.614,0-7.04,2.666-7.04,5.776c0,1.367,0.461,2.768,1.264,3.896l3.93,5.194
		c3.572-2.289,7.724-7.142,7.724-8.988C905.65,386.405,904.505,383.056,899.771,383.056"/>
	<path fill="#E8E8E8" d="M1056.774,397.922c-3.23-2.632-10.39-6.562-13.499-7.929c-3.572-1.503-8.527-2.665-14.422-2.665
		c-12.561,0-21.565,9.228-21.565,23.752c0,15.105,9.569,24.674,21.565,24.674c7.039,0,14.422-2.631,19.258-6.561
		c0-2.871,0.119-5.195,0.119-8.066h-22.266v-15.822h38.312v33.458c-2.666,2.768-7.16,6.22-12.919,9.125
		c-5.656,2.869-13.499,5.535-22.504,5.535c-18.097,0-38.397-14.422-38.397-41.864c0-27.921,20.745-41.523,38.517-41.523
		c3.349,0,11.072,0.341,17.873,2.768c6.802,2.529,15.346,8.646,17.993,11.757L1056.774,397.922z"/>
	<path fill="#E8E8E8" d="M1128.252,452.262l-23.649-30.45h-5.775v30.45h-17.754l-0.12-80.859h38.294
		c16.046,0,24.453,9.706,24.453,24.469c0,11.996-9.33,21.429-19.72,24.437l21.463,27.921v4.033H1128.252z M1116.479,388.012h-17.651
		v16.507c6.015,0,16.729,0.102,16.729,0.102c7.741,0,10.731-4.271,10.731-8.544C1126.287,391.941,1124.22,388.012,1116.479,388.012"
		/>
	<path fill="#E8E8E8" d="M1195.578,454.448c-19.958,0-40.361-14.285-40.361-42.548c0-29.187,20.403-42.788,40.361-42.788
		c20.078,0,40.378,15.105,40.378,43.13C1235.956,440.505,1215.536,454.448,1195.578,454.448 M1195.578,386.645
		c-15.345,0-23.291,11.277-23.291,25.598c0,13.499,7.946,24.674,23.291,24.674s23.309-10.833,23.309-24.674
		C1218.887,398.161,1210.803,386.645,1195.578,386.645"/>
	<path fill="#E8E8E8" d="M1287.237,454.448c-19.958,0-40.361-14.285-40.361-42.548c0-29.187,20.403-42.788,40.361-42.788
		c20.077,0,40.378,15.105,40.378,43.13C1327.615,440.505,1307.195,454.448,1287.237,454.448 M1287.237,386.645
		c-15.346,0-23.291,11.277-23.291,25.598c0,13.499,7.945,24.674,23.291,24.674c15.345,0,23.308-10.833,23.308-24.674
		C1310.545,398.161,1302.462,386.645,1287.237,386.645"/>
	<polygon fill="#E8E8E8" points="1416.147,452.262 1412.114,409.576 1387.439,450.997 1380.16,450.997 1359.176,410.157 
		1355.485,452.262 1338.415,452.262 1344.174,371.402 1358.373,371.3 1385.355,422.974 1415.806,371.3 1427.221,371.402 
		1433.115,452.262 	"/>
	<rect x="1450.801" y="371.402" fill="#E8E8E8" width="17.994" height="80.858"/>
	<path fill="#E8E8E8" d="M1545.553,452.262l-40.84-46.034c0,15.344-0.119,30.792-0.119,46.034h-17.413v-80.859h10.852l38.856,43.949
		l0.12-43.949h17.19v80.859H1545.553z"/>
	<path fill="#E8E8E8" d="M1634.222,397.922c-3.23-2.632-10.39-6.562-13.499-7.929c-3.572-1.503-8.544-2.665-14.422-2.665
		c-12.577,0-21.565,9.228-21.565,23.752c0,15.105,9.569,24.674,21.565,24.674c7.04,0,14.422-2.631,19.274-6.561
		c0-2.871,0.103-5.195,0.103-8.066h-22.248v-15.822h38.275v33.458c-2.647,2.768-7.142,6.22-12.918,9.125
		c-5.639,2.869-13.481,5.535-22.486,5.535c-18.113,0-38.414-14.422-38.414-41.864c0-27.921,20.779-41.523,38.533-41.523
		c3.349,0,11.072,0.341,17.873,2.768c6.818,2.529,15.346,8.646,17.993,11.757L1634.222,397.922z"/>
	<path fill="#E8E8E8" d="M1190.165,139.129c0,54.17,14.998,71.204,37.471,71.204c17.382,0,26.234-9.883,26.234-27.252
		c0-12.95-5.103-20.101-16.687-23.168c-3.414-1.018-4.769-3.402-4.769-6.469c0-4.432,1.019-6.133,8.853-8.182
		c19.755-8.169,55.871-23.838,63.358-23.838c3.414,0,6.133,2.384,6.816,7.487c1.7,22.82,4.085,45.652,4.085,70.174
		c0,44.634-31.673,72.905-89.928,72.905c-67.454,0-104.926-43.269-104.926-116.162c0-84.825,38.153-154.663,117.527-154.663
		c51.439,0,72.223,28.618,72.223,60.638c0,7.499-3.414,12.95-8.182,17.718c-12.602,12.937-42.238,28.606-52.457,28.606
		c-3.414,0-5.45-2.037-5.45-5.786c0-3.067,0.335-6.816,0.335-10.218c0-13.633-5.103-31.338-20.101-31.338
		C1204.48,60.786,1190.165,88.039,1190.165,139.129"/>
	<path fill="#E8E8E8" d="M1588.147,266.881c-5.115-0.335-8.183-2.384-8.865-7.151c-5.103-34.751-7.151-76.307-7.151-115.143
		c0-59.273,4.769-113.096,10.565-130.13c1.701-4.432,4.768-7.499,9.536-8.182c6.815-0.335,14.649-0.683,22.484-0.683
		c7.499,0,14.986,0.348,20.784,0.683c3.402,0.348,6.121,2.049,8.853,5.798c13.968,19.754,40.201,66.425,71.875,141.366
		c1.029,2.049,2.049,2.732,3.414,2.732c2.037,0,3.75-2.049,3.75-5.116c0-71.875-18.065-126.38-18.065-137.964
		c0-3.749,2.384-6.468,6.134-6.816c7.151-0.683,17.717-1.018,28.271-1.018c8.864,0,17.718,0.335,24.198,1.018
		c4.768,0.348,7.834,2.384,8.853,7.835c6.133,34.416,9.2,89.939,9.2,142.743c0,37.471-1.701,74.259-5.115,100.146
		c-1.018,6.816-4.085,9.548-10.901,9.883c-7.151,0.684-19.07,0.684-29.972,0.684c-7.499,0-14.314,0-19.083-0.684
		c-7.487-1.018-9.535-2.384-11.236-9.534c-16.352-52.806-36.788-97.427-57.92-131.843c-2.036-3.055-3.736-4.42-5.45-4.42
		c-3.066,0-4.42,3.749-4.42,7.834c-1.365,57.224,12.603,126.38,12.603,131.148c0,5.115-2.732,6.48-6.817,6.815
		c-6.815,0.684-17.717,1.019-28.27,1.019C1605.182,267.899,1595.299,267.564,1588.147,266.881"/>
	<path fill="#E8E8E8" d="M1874.638,139.129c0,54.17,14.998,71.204,37.472,71.204c17.382,0,26.233-9.883,26.233-27.252
		c0-12.95-5.103-20.101-16.687-23.168c-3.414-1.018-4.769-3.402-4.769-6.469c0-4.432,1.02-6.133,8.854-8.182
		c19.754-8.169,55.871-23.838,63.357-23.838c3.414,0,6.134,2.384,6.816,7.487c1.701,22.82,4.085,45.652,4.085,70.174
		c0,44.634-31.673,72.905-89.928,72.905c-67.454,0-104.926-43.269-104.926-116.162c0-84.825,38.153-154.663,117.527-154.663
		c51.439,0,72.223,28.618,72.223,60.638c0,7.499-3.413,12.95-8.182,17.718c-12.602,12.937-42.238,28.606-52.457,28.606
		c-3.414,0-5.45-2.037-5.45-5.786c0-3.067,0.335-6.816,0.335-10.218c0-13.633-5.103-31.338-20.101-31.338
		C1888.953,60.786,1874.638,88.039,1874.638,139.129"/>
	<path fill="#E8E8E8" d="M407.521,37.543c12.61,20.242,11.003,45.986-3.59,57.502c-14.593,11.516-36.646,4.442-49.257-15.8
		c-12.61-20.242-11.003-45.986,3.59-57.502C372.859,10.227,394.912,17.301,407.521,37.543"/>
	<path fill="#E8E8E8" d="M357.868,103.414c16.013,12.899,21.632,35.494,12.551,50.467c-9.082,14.973-29.424,16.654-45.437,3.755
		c-16.013-12.899-21.632-35.494-12.55-50.467C321.513,92.196,341.855,90.515,357.868,103.414"/>
	<path fill="#E8E8E8" d="M428.988,33.601c-5.203,23.513,4.762,47.132,22.257,52.755c17.495,5.624,35.895-8.879,41.098-32.392
		c5.202-23.513-4.763-47.133-22.258-52.756C452.59-4.415,434.19,10.088,428.988,33.601"/>
	<path fill="#E8E8E8" d="M497.279,77.812c-10.811,17.825-8.671,41.059,4.78,51.894c13.45,10.835,33.118,5.169,43.929-12.656
		c10.811-17.825,8.671-41.059-4.78-51.894C527.758,54.321,508.09,59.987,497.279,77.812"/>
	<path fill="#E8E8E8" d="M476.456,263.225l-38.132,7.003c-33.118,7.232-64.129-7.633-68.503-47.434
		c-2.829-25.529,3.702-51.627,16.381-73.748c11.147-19.413,25.977-36.182,44.414-40.462c18.731-2.545,38.174,7.93,55.022,22.201
		c19.18,16.271,33.886,38.469,39.613,63.466C534.211,233.21,509.951,258.224,476.456,263.225"/>
	<path fill="#E8E8E8" d="M734.917,37.543c-12.61,20.242-11.003,45.986,3.59,57.502c14.593,11.516,36.646,4.442,49.257-15.8
		c12.61-20.242,11.003-45.986-3.59-57.502C769.58,10.227,747.527,17.301,734.917,37.543"/>
	<path fill="#E8E8E8" d="M784.571,103.414c-16.013,12.899-21.632,35.494-12.551,50.467c9.082,14.973,29.424,16.654,45.437,3.755
		c16.013-12.899,21.632-35.494,12.55-50.467C820.926,92.196,800.583,90.515,784.571,103.414"/>
	<path fill="#E8E8E8" d="M713.451,33.601c5.203,23.513-4.762,47.132-22.257,52.755c-17.495,5.624-35.895-8.879-41.098-32.392
		c-5.202-23.513,4.763-47.133,22.258-52.756C689.849-4.415,708.248,10.088,713.451,33.601"/>
	<path fill="#E8E8E8" d="M645.16,77.812c10.811,17.825,8.671,41.059-4.78,51.894c-13.45,10.835-33.118,5.169-43.929-12.656
		c-10.811-17.825-8.671-41.059,4.78-51.894C614.681,54.321,634.349,59.987,645.16,77.812"/>
	<path fill="#E8E8E8" d="M665.982,263.225l38.132,7.003c33.118,7.232,64.129-7.633,68.503-47.434
		c2.829-25.529-3.702-51.627-16.381-73.748c-11.147-19.413-25.977-36.182-44.414-40.462c-18.731-2.545-38.174,7.93-55.022,22.201
		c-19.18,16.271-33.886,38.469-39.613,63.466C608.228,233.21,632.487,258.224,665.982,263.225"/>
	<path fill="#E8E8E8" d="M875.997,269.43c-5.245-0.344-8.033-2.1-10.134-8.39c-4.889-14.666-8.377-56.934-8.377-106.534
		c0-47.501,3.832-100.946,13.622-143.57c1.044-4.532,5.233-6.289,9.078-6.633c18.867-1.744,42.267-2.444,65.667-2.444
		c22.356,0,42.624,0.344,59.035,2.088c5.945,0.7,6.989,3.501,6.989,6.989c0,14.323-5.589,49.601-12.922,63.923
		c-1.057,2.101-3.145,3.145-4.889,3.145c-2.1,0-4.201-0.7-6.989-1.744c-8.39-3.145-19.912-6.633-35.279-6.633
		c-8.733,0-13.978,1.044-17.823,4.888c-4.533,4.545-6.977,21.312-6.977,38.767c0,11.178,4.889,13.979,12.922,13.979
		c13.266,0,27.589-6.633,50.645-6.633c8.734,0,12.922,1.744,12.922,6.633c0,17.111-2.788,45.056-6.978,60.779
		c-1.056,2.8-2.8,3.844-5.245,3.844c-4.888,0-18.867-2.444-35.278-2.444c-15.023,0-23.4,4.189-23.4,18.167
		c0,19.212,11.178,48.901,11.178,54.49c0,4.545-3.145,6.633-9.434,7.333c-3.501,0.344-16.423,0.7-28.645,0.7
		C893.108,270.13,880.53,269.773,875.997,269.43"/>
	<path fill="#E8E8E8" d="M227.35,249.044c-4.264,6.342-9.92,16.112-17.317,19.54c-6.788,3.086-13.401,2.914-13.401,2.914
		c-1.045,0-5.657-0.171-10.965-2.656c-8.702-3.856-13.226-10.97-18.361-18.598c-4.852-7.206-14.991-28.594-23.531-30.858
		c-7.836-2.076-22.164,25.055-26.071,30.858c-5.135,7.628-9.66,14.741-18.362,18.598c-5.307,2.485-9.919,2.656-10.964,2.656
		c0,0-6.614,0.172-13.401-2.914c-7.396-3.428-13.053-13.198-17.317-19.54C9.712,178.339-8.911,92.722,3.968,9.162
		C4.665,4.62,8.406,2.22,12.235,1.877c7.659-0.685,17.404-0.685,27.499-0.685c8.006,0,16.011,0,22.19,0.685
		c6.265,0.343,8.355,3.172,8.355,7.97c0,4.543-4.874,46.023-4.874,91.446c0,42.851,10.094,67.448,19.493,82.018
		c1.74,2.399,3.132,3.77,4.873,3.77c1.392,0,2.784-1.371,3.829-3.77c13.14-21.512,18.361-45.337,18.361-82.018
		c0-43.624-4.525-85.617-4.525-92.474c0-4.542,1.741-6.256,6.961-6.942c5.047-0.685,14.881-0.77,27.499-0.685h1.218
		c12.617-0.085,22.452,0,27.498,0.685c5.222,0.686,6.961,2.4,6.961,6.942c0,6.857-4.524,48.85-4.524,92.474
		c0,36.681,5.221,60.506,18.362,82.018c1.044,2.399,2.436,3.77,3.828,3.77c1.741,0,3.134-1.371,4.874-3.77
		c9.398-14.57,19.492-39.167,19.492-82.018c0-45.423-4.874-86.903-4.874-91.446c0-4.798,2.089-7.627,8.355-7.97
		c6.178-0.685,14.184-0.685,22.19-0.685c10.094,0,19.841,0,27.498,0.685c3.83,0.343,7.571,2.743,8.268,7.285
		C293.921,92.722,275.298,178.339,227.35,249.044"/>
</g>
</svg>
