<svg width="80" height="80" viewBox="0 0 80 80" fill="none" xmlns="http://www.w3.org/2000/svg">
<g clip-path="url(#clip0_3603_109)">
<g clip-path="url(#clip1_3603_109)">
<path fill-rule="evenodd" clip-rule="evenodd" d="M45.5728 37.9607C45.3751 37.822 45.1847 37.6905 44.9869 37.5517C45.1334 37.2742 45.3018 37.0112 45.4117 36.7264C46.0636 35.0611 45.8072 33.5347 44.5987 32.2273C44.13 31.7233 43.5147 31.3435 42.9508 30.9199C42.1231 30.2991 41.2735 29.7002 40.4386 29.094C39.6036 28.4951 38.776 27.9035 37.9483 27.2973C37.2891 26.8152 36.608 26.3551 36.0513 25.7562C35.0552 24.6825 34.3961 23.4336 34.1324 21.9948C34.0225 21.4032 33.9566 20.797 33.9713 20.1981C34.0225 18.562 34.5792 17.0867 35.5533 15.7647C36.7252 14.1725 37.8751 12.573 39.0396 10.9807C39.2447 10.6959 39.4571 10.4111 39.6622 10.1262C39.7501 9.99474 39.8453 9.95092 39.9845 10.0678C40.1163 10.1773 40.2628 10.2723 40.358 10.3453C40.2408 10.7032 40.0797 11.0392 40.0138 11.3825C39.838 12.3758 40.1969 13.1792 41.0025 13.7708C42.1305 14.6107 43.2804 15.436 44.4229 16.2613C45.5142 17.0501 46.6202 17.8316 47.7115 18.6351C48.4879 19.1974 49.2789 19.7452 49.9893 20.3806C51.2638 21.5054 52.0108 22.9443 52.3185 24.6022C52.6773 26.5523 52.3404 28.4001 51.2857 30.0873C50.839 30.8031 50.3116 31.4677 49.8209 32.1543C49.191 33.0234 48.5538 33.8925 47.9239 34.7617C47.1695 35.7915 46.4298 36.8286 45.6754 37.8658C45.6534 37.895 45.6241 37.9242 45.5948 37.968L45.5728 37.9607Z" fill="#E1BC94"/>
<path fill-rule="evenodd" clip-rule="evenodd" d="M39.8892 45.6224C39.6329 45.4325 39.3839 45.2645 39.1568 45.0965C39.2301 44.8555 39.3326 44.6291 39.3546 44.4026C39.4058 43.8549 39.1715 43.4312 38.7247 43.1099C37.1939 42.007 35.6705 40.9042 34.1397 39.794C33.7003 39.4726 33.2535 39.1659 32.8507 38.8007C32.067 38.0922 31.547 37.2158 31.3126 36.1713C31.2027 35.7039 31.1514 35.2511 31.1588 34.7763C31.1734 33.6954 31.5103 32.7167 32.1329 31.8402C32.7774 30.9273 33.4513 30.0289 34.1104 29.1232C34.418 28.7069 34.7183 28.2906 35.026 27.8524C35.2823 28.035 35.5313 28.2103 35.773 28.3856C35.7144 28.5901 35.6265 28.7727 35.5899 28.9626C35.4874 29.5395 35.7071 29.9924 36.1685 30.3284C37.2232 31.1025 38.2779 31.8621 39.3399 32.629C40.1016 33.1914 40.8927 33.7246 41.6471 34.3089C43.1266 35.4483 43.8297 36.9674 43.7711 38.8299C43.7271 39.9693 43.3097 40.9626 42.6358 41.8755C41.984 42.7447 41.3541 43.6357 40.7169 44.5122C40.4532 44.8774 40.1822 45.2426 39.9039 45.6224H39.8892Z" fill="#E1BC94"/>
<path fill-rule="evenodd" clip-rule="evenodd" d="M43.0386 62.1215C43.2583 62.2238 43.4854 62.326 43.6978 62.4356C44.6572 62.9103 45.3018 63.6407 45.4629 64.7143C45.6314 65.8172 45.4702 66.847 44.6792 67.7016C44.1372 68.2932 43.4414 68.6145 42.6797 68.819C42.0205 68.987 41.354 69.0674 40.6729 69.0674C38.5781 69.0674 36.4907 69.0674 34.396 69.0674C34.1909 69.0674 34.1396 69.0089 34.1396 68.8117C34.1396 64.5683 34.1396 60.3248 34.1396 56.0813C34.1396 56.0156 34.1177 55.9426 34.1396 55.8841C34.1616 55.8257 34.2202 55.7527 34.2788 55.7454C34.4033 55.7235 34.5352 55.7381 34.667 55.7381H40.3066C41.061 55.7381 41.8008 55.8184 42.5039 56.0886C43.6465 56.5342 44.4595 57.2938 44.6865 58.5427C44.8696 59.6017 44.6865 60.595 43.8955 61.3911C43.6318 61.6541 43.3169 61.8659 43.0093 62.1069L43.0386 62.1215ZM37.0034 63.5531V66.292C37.0034 66.5622 36.9375 66.5695 37.2817 66.5695C38.3218 66.5695 39.3618 66.5841 40.3945 66.5622C40.7974 66.5549 41.2075 66.5038 41.5957 66.4088C42.2109 66.2627 42.5845 65.8172 42.6357 65.2475C42.7017 64.5464 42.4526 64.0497 41.8081 63.8087C41.4346 63.6626 41.0098 63.5896 40.6069 63.575C39.6401 63.5457 38.6733 63.5604 37.7065 63.5604H37.0107L37.0034 63.5531ZM37.0034 61.1355C38.1167 61.1355 39.208 61.1501 40.2993 61.1282C40.6582 61.1209 41.0024 60.9967 41.3247 60.8142C42.0864 60.3759 42.1011 59.0174 41.2881 58.5792C40.9146 58.382 40.5264 58.2944 40.1162 58.2871C39.1055 58.2725 38.1021 58.2871 37.0986 58.2871C37.0693 58.2871 37.04 58.2944 37.0107 58.3017V61.1428L37.0034 61.1355Z" fill="#E1BC94"/>
<path fill-rule="evenodd" clip-rule="evenodd" d="M55.7023 62.1141C55.7975 62.158 55.8561 62.1872 55.922 62.2091C56.6178 62.5158 57.2697 62.8883 57.7091 63.5384C58.0167 63.9912 58.1705 64.5025 58.1998 65.0502C58.2291 65.6272 58.1998 66.2042 57.9801 66.752C57.6359 67.6065 56.9987 68.1762 56.171 68.5414C55.2994 68.9285 54.3766 69.0673 53.4244 69.0673C51.3151 69.0673 49.2057 69.0673 47.089 69.0746C46.9132 69.0746 46.8473 69.0308 46.8473 68.8409C46.8546 64.539 46.8546 60.2371 46.8473 55.9352C46.8473 55.7818 46.8986 55.7453 47.0377 55.7453C49.1617 55.7453 51.2784 55.7307 53.3878 55.7526C54.3546 55.7672 55.2775 55.9863 56.0905 56.5487C56.9547 57.1549 57.4088 57.9729 57.4454 59.0393C57.4894 60.1056 57.1525 61.0113 56.2955 61.6832C56.1124 61.822 55.9147 61.9461 55.6876 62.1068L55.7023 62.1141ZM51.6373 63.553C51.066 63.553 50.4948 63.553 49.9235 63.5457C49.7184 63.5457 49.6671 63.6114 49.6744 63.8086C49.6818 64.6339 49.6744 65.4592 49.6744 66.2846C49.6744 66.5621 49.6744 66.5621 49.9454 66.5621C51.0221 66.5621 52.1061 66.5694 53.1827 66.5621C53.6295 66.5621 54.0836 66.5183 54.5084 66.3357C55.0577 66.102 55.3214 65.671 55.3434 65.0868C55.358 64.4951 55.087 64.0569 54.5451 63.8086C54.1569 63.626 53.7394 63.5676 53.3219 63.5603C52.7653 63.553 52.2013 63.5603 51.6447 63.5603L51.6373 63.553ZM51.3956 58.2797C50.8976 58.2797 50.3995 58.287 49.9015 58.2797C49.7184 58.2797 49.6744 58.3381 49.6744 58.5061C49.6818 59.3022 49.6744 60.091 49.6744 60.8871C49.6744 61.1646 49.6744 61.1719 49.9528 61.1719C50.9415 61.1719 51.923 61.1866 52.9117 61.1354C53.256 61.1208 53.6222 60.9967 53.9445 60.8506C54.4132 60.6315 54.5963 60.2006 54.5963 59.7039C54.5963 59.2072 54.3986 58.8201 53.9518 58.5645C53.6002 58.3673 53.212 58.2943 52.8165 58.2797C52.3405 58.2651 51.8717 58.2797 51.3956 58.2797Z" fill="#E1BC94"/>
<path fill-rule="evenodd" clip-rule="evenodd" d="M30.309 62.1069C30.5433 62.2164 30.7411 62.2968 30.9315 62.3917C31.7518 62.8007 32.4183 63.3777 32.6674 64.2907C32.9603 65.3497 32.8944 66.3869 32.2865 67.329C31.8104 68.0594 31.0927 68.4611 30.2797 68.7314C29.474 68.9943 28.639 69.0746 27.8041 69.0746C25.7753 69.0746 23.7538 69.0746 21.725 69.0746C21.5199 69.0746 21.476 69.0016 21.476 68.8117C21.4833 64.5317 21.4833 60.2444 21.476 55.9717C21.476 55.8038 21.5199 55.7453 21.6957 55.7453C23.7684 55.7526 25.8339 55.7453 27.9066 55.7526C28.8441 55.7599 29.745 55.9425 30.558 56.4538C31.5321 57.0673 32.0448 57.9437 32.0741 59.1123C32.1034 60.3686 31.5761 61.3035 30.5214 61.9681C30.4628 62.0046 30.4042 62.0484 30.309 62.1069ZM26.2513 63.553C25.6654 63.553 25.0795 63.553 24.4935 63.553C24.347 63.553 24.2811 63.5822 24.2885 63.7502C24.2958 64.634 24.2885 65.5177 24.2885 66.4015C24.2885 66.5183 24.3178 66.5622 24.4349 66.5622C25.5555 66.5622 26.6688 66.5768 27.7894 66.5548C28.2069 66.5402 28.6244 66.4745 29.0272 66.3649C29.5839 66.2189 29.8988 65.766 29.9354 65.1233C29.9647 64.5828 29.7597 64.1081 29.2177 63.8379C28.8222 63.6407 28.3973 63.5749 27.9652 63.5603C27.3939 63.5457 26.8153 63.5603 26.2513 63.5603V63.553ZM24.3031 61.1647C25.1674 61.1647 26.0096 61.172 26.8446 61.1647C27.35 61.1647 27.8627 61.1501 28.3388 60.9602C28.8954 60.7411 29.2103 60.3102 29.203 59.7259C29.1957 59.1781 29.0126 58.7252 28.39 58.4915C28.0751 58.3747 27.7308 58.3016 27.3939 58.2943C26.4345 58.2724 25.4823 58.2943 24.5228 58.2797C24.3544 58.2797 24.2958 58.3308 24.2958 58.5061C24.3031 59.3461 24.2958 60.1787 24.2958 61.0186C24.2958 61.0697 24.3031 61.1209 24.3031 61.1793V61.1647Z" fill="#E1BC94"/>
<path fill-rule="evenodd" clip-rule="evenodd" d="M27.6356 49.6906C27.8627 48.9602 28.0751 48.2591 28.2948 47.5433C28.2948 47.5287 28.3021 47.5214 28.3021 47.5068C28.4144 47.1611 28.6512 47.0004 29.0126 47.0247C29.1517 47.032 29.2836 47.0393 29.4301 47.0393C36.5712 47.0393 43.7123 47.0393 50.8607 47.0393C51.0731 47.0393 51.1903 47.0832 51.2489 47.3023C51.476 48.0911 51.7177 48.8799 51.9667 49.6906C51.8861 49.6979 51.8129 49.7052 51.747 49.7052C49.872 49.7052 47.997 49.7052 46.122 49.7052C45.9535 49.7052 45.8949 49.7636 45.851 49.9097C45.5214 51.0053 45.1698 52.1081 44.8475 53.211C44.7963 53.3863 44.7084 53.452 44.518 53.452C41.3759 53.4447 38.2338 53.4447 35.0844 53.452C34.8939 53.452 34.8207 53.3863 34.7694 53.2183C34.4325 52.1008 34.0809 50.9907 33.744 49.8732C33.7147 49.749 33.6635 49.7052 33.517 49.7052C31.598 49.7052 29.6864 49.7052 27.7748 49.7052C27.7382 49.7052 27.7089 49.7052 27.6429 49.6979L27.6356 49.6906Z" fill="#E1BC94"/>
</g>
</g>
<defs>
<clipPath id="clip0_3603_109">
<rect width="80" height="80" fill="white"/>
</clipPath>
<clipPath id="clip1_3603_109">
<rect width="142" height="214" fill="white" transform="translate(-31 -45)"/>
</clipPath>
</defs>
</svg>
