<svg width="80" height="80" viewBox="0 0 80 80" fill="none" xmlns="http://www.w3.org/2000/svg">
<g clip-path="url(#clip0_3603_474)">
<path d="M65.9112 25.2106C65.8633 24.7233 65.6934 24.2562 65.4173 23.853C65.1412 23.4498 64.768 23.1238 64.3326 22.9053L41.2876 11.3065C40.8874 11.105 40.4461 11 39.9986 11C39.551 11 39.1097 11.105 38.7095 11.3065L15.6645 22.9053C15.2303 23.125 14.8582 23.4515 14.5828 23.8544C14.3073 24.2574 14.1374 24.7239 14.0888 25.2106C14.0571 25.5209 11.3205 56.4316 38.8305 68.7467C39.198 68.9136 39.5967 69 40 69C40.4033 69 40.802 68.9136 41.1695 68.7467C68.6795 56.4316 65.9429 25.5238 65.9112 25.2106ZM40 62.898C20.5011 53.4101 19.5793 33.1616 19.7377 27.3419L40 17.1436L60.2479 27.3361C60.3545 33.1036 59.3031 53.4855 40 62.898Z" fill="#E1BC94"/>
<path d="M37.1194 41.6984L30.5142 35.0494L26.441 39.1496L37.1194 49.8988L53.5592 33.3502L49.486 29.25L37.1194 41.6984Z" fill="#E1BC94"/>
</g>
<defs>
<clipPath id="clip0_3603_474">
<rect width="80" height="80" fill="white"/>
</clipPath>
</defs>
</svg>
