<svg width="80" height="80" viewBox="0 0 80 80" fill="none" xmlns="http://www.w3.org/2000/svg">
<g clip-path="url(#clip0_3755_125)">
<path d="M74.2364 25.4491L56.824 42.8938L51.5474 37.6482L45.8245 43.4225L56.7834 54.4017L80 31.2233L74.2364 25.4491ZM8.11771 24.2698C8.06772 26.4195 8.4535 28.5571 9.25171 30.5531C10.0499 32.5492 11.244 34.3623 12.7617 35.8828C14.2793 37.4033 16.0891 38.5995 18.0814 39.3992C20.0738 40.1989 22.2074 40.5854 24.3531 40.5353C26.4989 40.5854 28.6324 40.1989 30.6248 39.3992C32.6172 38.5995 34.4269 37.4033 35.9446 35.8828C37.4623 34.3623 38.6563 32.5492 39.4545 30.5531C40.2527 28.5571 40.6385 26.4195 40.5885 24.2698C40.6385 22.1201 40.2527 19.9826 39.4545 17.9865C38.6563 15.9905 37.4623 14.1774 35.9446 12.6569C34.4269 11.1364 32.6172 9.94011 30.6248 9.14042C28.6324 8.34073 26.4989 7.95423 24.3531 8.00431C22.2074 7.95423 20.0738 8.34073 18.0814 9.14042C16.0891 9.94011 14.2793 11.1364 12.7617 12.6569C11.244 14.1774 10.0499 15.9905 9.25171 17.9865C8.4535 19.9826 8.06772 22.1201 8.11771 24.2698ZM32.4708 24.2698C32.523 25.3517 32.3488 26.4325 31.9593 27.4429C31.5698 28.4533 30.9737 29.3709 30.2092 30.1368C29.4448 30.9027 28.5289 31.4999 27.5203 31.8901C26.5118 32.2803 25.433 32.4549 24.3531 32.4026C23.2733 32.4549 22.1944 32.2803 21.1859 31.8901C20.1774 31.4999 19.2615 30.9027 18.497 30.1368C17.7325 29.3709 17.1364 28.4533 16.7469 27.4429C16.3574 26.4325 16.1832 25.3517 16.2354 24.2698C16.1832 23.188 16.3574 22.1071 16.7469 21.0967C17.1364 20.0863 17.7325 19.1687 18.497 18.4028C19.2615 17.637 20.1774 17.0397 21.1859 16.6495C22.1944 16.2593 23.2733 16.0848 24.3531 16.1371C25.433 16.0848 26.5118 16.2593 27.5203 16.6495C28.5289 17.0397 29.4448 17.637 30.2092 18.4028C30.9737 19.1687 31.5698 20.0863 31.9593 21.0967C32.3488 22.1071 32.523 23.188 32.4708 24.2698ZM8.11771 64.9336C8.11771 61.6982 9.40059 58.5953 11.6841 56.3075C13.9677 54.0197 17.0648 52.7345 20.2943 52.7345H28.412C31.6414 52.7345 34.7386 54.0197 37.0221 56.3075C39.3057 58.5953 40.5885 61.6982 40.5885 64.9336V69H48.7062V64.9336C48.7062 62.2636 48.1813 59.6197 47.1614 57.1529C46.1416 54.6862 44.6467 52.4448 42.7622 50.5568C40.8777 48.6688 38.6405 47.1712 36.1783 46.1494C33.716 45.1276 31.0771 44.6017 28.412 44.6017H20.2943C14.9119 44.6017 9.74997 46.7438 5.94405 50.5568C2.13814 54.3698 0 59.5413 0 64.9336V69H8.11771V64.9336Z" fill="#E1BC94"/>
</g>
<defs>
<clipPath id="clip0_3755_125">
<rect width="80" height="80" fill="white"/>
</clipPath>
</defs>
</svg>
