<?xml version="1.0" encoding="utf-8"?>
<!-- Generator: Adobe Illustrator 16.0.3, SVG Export Plug-In . SVG Version: 6.00 Build 0)  -->
<!DOCTYPE svg PUBLIC "-//W3C//DTD SVG 1.1//EN" "http://www.w3.org/Graphics/SVG/1.1/DTD/svg11.dtd">
<svg version="1.1" id="Layer_1" xmlns="http://www.w3.org/2000/svg" xmlns:xlink="http://www.w3.org/1999/xlink" x="0px" y="0px"
	 width="156.045px" height="143.733px" viewBox="0 0 156.045 143.733" enable-background="new 0 0 156.045 143.733"
	 xml:space="preserve">
<g>
	<g>
		<g>
			<path fill="#D1AE85" d="M73.024,36.221c2.183,1.672,3.277,3.91,3.277,6.712c0,2.966-1.174,5.636-3.521,8.005
				c-2.343,2.375-5.188,4.154-8.529,5.339c4.148,0.109,7.681,1.213,10.596,3.316c2.909,2.105,4.366,5.097,4.366,8.978
				c0,3.882-1.496,7.358-4.491,10.43c-2.991,3.076-6.792,5.46-11.402,7.161c-4.607,1.696-9.29,2.546-14.032,2.546v-1.457
				c3.83-0.106,7.44-0.903,10.838-2.387c3.396-1.484,6.146-3.611,8.248-6.387c2.104-2.776,3.154-6.079,3.154-9.907
				c0-3.182-0.78-5.809-2.346-7.885c-1.562-2.076-3.639-3.223-6.226-3.438c-0.218,0.11-0.77,0.337-1.658,0.687
				c-0.888,0.352-1.606,0.526-2.145,0.526c-0.861,0-1.293-0.351-1.293-1.052c0-0.485,0.201-0.86,0.605-1.132
				c0.405-0.269,0.903-0.405,1.496-0.405c0.324,0,0.769,0.041,1.336,0.122c0.566,0.082,1.065,0.15,1.496,0.203
				c2.103-1.618,3.666-3.422,4.689-5.42c1.026-1.992,1.538-4.068,1.538-6.227c0-2.478-0.622-4.312-1.859-5.499
				c-1.242-1.186-2.967-1.779-5.176-1.779c-2.265,0-4.316,0.606-6.148,1.819c-1.834,1.213-3.369,3.007-4.609,5.379l-1.376-0.648
				c3.129-6.739,8.063-10.108,14.802-10.108C68.05,33.715,70.841,34.552,73.024,36.221z"/>
		</g>
		<g>
			<path fill="#D1AE85" d="M103.196,39.53c-1.135-0.27-4.881-0.405-11.241-0.405h-8.573L82.41,54.734
				c1.51-0.756,2.966-1.349,4.367-1.782c1.401-0.429,3.102-0.645,5.097-0.645c4.691,0,8.249,1.146,10.675,3.437
				c2.426,2.292,3.637,5.296,3.637,9.018c0,3.99-1.306,7.562-3.922,10.714c-2.613,3.155-5.98,5.594-10.106,7.32
				c-4.124,1.724-8.343,2.59-12.654,2.59v-1.458c3.286-0.056,6.371-0.783,9.255-2.183c2.887-1.403,5.231-3.479,7.039-6.228
				c1.804-2.752,2.708-6.065,2.708-9.948c0-3.398-0.888-6.05-2.666-7.965c-1.78-1.915-4.29-2.871-7.522-2.871
				c-1.294,0-2.401,0.108-3.317,0.323c-0.916,0.215-2.021,0.566-3.317,1.049l-0.805-0.483l1.533-24.101
				c1.079,0.215,2.535,0.323,4.367,0.323h9.141c1.456,0,2.547-0.121,3.276-0.363c0.727-0.243,1.227-0.648,1.495-1.214
				c0.271-0.566,0.485-1.414,0.648-2.547h1.534C102.872,33.222,102.98,37.156,103.196,39.53z"/>
		</g>
	</g>
</g>
<g>
	<g>
		<g>
			<path fill="#D1AE85" d="M68.509,138.745c0.321-0.321,0.677-0.596,1.057-0.828c0.378-0.234,0.776-0.415,1.186-0.58
				c0.408-0.165,0.823-0.295,1.234-0.395c0.102-0.025,0.202-0.049,0.305-0.071c0.1-0.022,0.2-0.046,0.301-0.066
				c0.199-0.042,0.397-0.079,0.587-0.108c0.383-0.063,0.744-0.094,1.072-0.125c0.326-0.029,0.616-0.046,0.857-0.049
				c0.481-0.006,0.764,0.031,0.719,0.061c-0.928,0.622-1.475,1.505-1.936,2.444c-0.464,0.93-0.839,1.929-1.456,2.787
				c-0.13,0.184-0.276,0.352-0.437,0.504c-0.158,0.15-0.33,0.287-0.511,0.411c-0.364,0.248-0.768,0.441-1.194,0.593
				c-0.425,0.154-0.872,0.244-1.322,0.314c-0.447,0.063-0.897,0.1-1.327,0.098c-0.433,0-0.846-0.022-1.22-0.058
				c-0.377-0.028-0.715-0.09-0.996-0.139c-0.564-0.105-0.908-0.208-0.889-0.22c1.175-0.681,1.706-1.382,2.186-2.14
				C67.201,140.419,67.626,139.62,68.509,138.745z"/>
			<path fill="#D1AE85" d="M69.152,132.504c0.222,0.377,0.496,0.704,0.805,0.998c0.311,0.29,0.653,0.555,1.016,0.766
				c0.364,0.212,0.746,0.393,1.129,0.543c0.096,0.038,0.191,0.073,0.287,0.106c0.095,0.035,0.19,0.063,0.286,0.092
				c0.19,0.058,0.378,0.108,0.562,0.152c0.368,0.085,0.722,0.159,1.04,0.197c0.318,0.038,0.605,0.061,0.844,0.069
				c0.474,0.018,0.751-0.009,0.706-0.042c-0.911-0.646-1.396-1.536-1.77-2.495c-0.372-0.964-0.638-1.985-1.082-2.886
				c-0.094-0.19-0.203-0.367-0.32-0.534c-0.115-0.167-0.242-0.322-0.377-0.468c-0.269-0.285-0.568-0.524-0.887-0.723
				c-0.316-0.196-0.651-0.375-0.99-0.508c-0.336-0.136-0.678-0.234-1.007-0.326c-0.328-0.085-0.646-0.149-0.937-0.192
				c-0.294-0.041-0.558-0.081-0.781-0.097c-0.446-0.038-0.732-0.022-0.721-0.006c0.703,0.94,0.966,1.768,1.185,2.604
				C68.362,130.592,68.539,131.458,69.152,132.504z"/>
		</g>
		<g>
			<path fill="#D1AE85" d="M58.092,136.877c0.364-0.269,0.76-0.488,1.169-0.661c0.408-0.173,0.83-0.293,1.26-0.399
				c0.429-0.1,0.857-0.165,1.278-0.203c0.419-0.04,0.83-0.066,1.218-0.066c0.772,0.004,1.457,0.048,1.935,0.114
				c0.478,0.069,0.751,0.14,0.701,0.161c-1.01,0.487-1.68,1.27-2.277,2.133c-0.597,0.855-1.115,1.784-1.854,2.539
				c-0.632,0.653-1.457,0.999-2.346,1.172c-0.445,0.09-0.9,0.112-1.354,0.112c-0.454-0.003-0.906-0.031-1.332-0.102
				c-0.427-0.063-0.832-0.148-1.198-0.238c-0.367-0.087-0.691-0.196-0.965-0.289c-0.542-0.187-0.867-0.339-0.848-0.349
				c1.266-0.498,1.896-1.112,2.484-1.789C56.549,138.335,57.089,137.61,58.092,136.877z"/>
			<path fill="#D1AE85" d="M59.662,130.803c0.162,0.405,0.385,0.77,0.646,1.107c0.262,0.334,0.562,0.646,0.89,0.907
				c0.327,0.265,0.679,0.501,1.035,0.708c0.354,0.208,0.72,0.369,1.07,0.515c0.699,0.295,1.356,0.45,1.82,0.543
				c0.465,0.095,0.745,0.098,0.706,0.06c-0.808-0.764-1.152-1.729-1.38-2.727c-0.226-1.006-0.337-2.058-0.64-3.014
				c-0.262-0.809-0.738-1.454-1.307-1.941c-0.283-0.239-0.588-0.468-0.9-0.647c-0.313-0.186-0.636-0.333-0.945-0.474
				c-0.311-0.135-0.615-0.243-0.897-0.33c-0.283-0.086-0.538-0.161-0.757-0.211c-0.438-0.103-0.719-0.131-0.711-0.116
				c0.556,1.037,0.688,1.893,0.78,2.75C59.167,128.794,59.212,129.677,59.662,130.803z"/>
		</g>
		<g>
			<path fill="#D1AE85" d="M48.072,133.465c0.398-0.205,0.822-0.368,1.253-0.476c0.432-0.111,0.868-0.168,1.307-0.205
				c0.439-0.036,0.874-0.036,1.294-0.011c0.106,0.006,0.211,0.016,0.313,0.023c0.104,0.006,0.206,0.015,0.309,0.023
				c0.203,0.02,0.402,0.045,0.594,0.072c0.763,0.119,1.432,0.267,1.895,0.404c0.231,0.067,0.41,0.131,0.528,0.181
				c0.116,0.044,0.168,0.076,0.142,0.083c-1.07,0.329-1.852,1-2.572,1.768c-0.718,0.752-1.371,1.593-2.215,2.232
				c-0.18,0.135-0.368,0.254-0.566,0.352c-0.196,0.096-0.4,0.177-0.611,0.241c-0.42,0.126-0.865,0.193-1.316,0.212
				c-0.452,0.016-0.906-0.026-1.357-0.095c-0.224-0.035-0.445-0.078-0.664-0.124c-0.216-0.054-0.429-0.114-0.636-0.176
				c-0.412-0.127-0.801-0.268-1.149-0.414c-0.349-0.148-0.655-0.298-0.91-0.431c-0.509-0.267-0.809-0.463-0.785-0.469
				c1.325-0.301,2.044-0.821,2.725-1.399C46.327,134.676,46.968,134.041,48.072,133.465z"/>
			<path fill="#D1AE85" d="M50.536,127.697c0.098,0.43,0.265,0.818,0.473,1.191c0.211,0.369,0.46,0.721,0.742,1.032
				c0.286,0.311,0.597,0.597,0.919,0.854c0.078,0.065,0.16,0.127,0.242,0.187c0.082,0.061,0.163,0.117,0.245,0.171
				c0.163,0.11,0.33,0.215,0.493,0.311c0.648,0.395,1.271,0.653,1.719,0.812c0.223,0.079,0.401,0.133,0.524,0.16
				c0.121,0.023,0.18,0.027,0.163,0.004c-0.683-0.878-0.88-1.88-0.954-2.903c-0.072-1.031-0.021-2.084-0.182-3.074
				c-0.031-0.212-0.083-0.412-0.145-0.604c-0.062-0.195-0.136-0.379-0.222-0.556c-0.172-0.354-0.387-0.672-0.631-0.955
				c-0.243-0.284-0.512-0.548-0.793-0.777c-0.142-0.113-0.285-0.221-0.433-0.319c-0.144-0.102-0.288-0.202-0.431-0.291
				c-0.289-0.179-0.576-0.333-0.841-0.458c-0.264-0.133-0.508-0.241-0.714-0.325c-0.419-0.167-0.694-0.236-0.688-0.219
				c0.394,1.106,0.4,1.968,0.358,2.836C50.348,125.639,50.261,126.518,50.536,127.697z"/>
		</g>
		<g>
			<path fill="#D1AE85" d="M38.681,128.591c0.848-0.288,1.762-0.365,2.629-0.288c0.438,0.035,0.87,0.095,1.282,0.181
				c0.207,0.044,0.409,0.094,0.605,0.144c0.197,0.048,0.393,0.103,0.577,0.156c0.371,0.112,0.713,0.235,1.019,0.352
				c0.307,0.116,0.575,0.23,0.794,0.333c0.438,0.2,0.677,0.356,0.621,0.365c-1.104,0.152-1.984,0.72-2.806,1.357
				c-0.824,0.637-1.596,1.373-2.525,1.877c-0.789,0.425-1.687,0.523-2.586,0.422c-0.893-0.112-1.792-0.41-2.564-0.787
				c-0.785-0.364-1.445-0.802-1.91-1.14c-0.467-0.333-0.725-0.585-0.704-0.585c0.336-0.019,0.639-0.064,0.915-0.127
				c0.276-0.06,0.525-0.136,0.759-0.222c0.459-0.174,0.848-0.393,1.227-0.627C36.768,129.54,37.503,128.997,38.681,128.591z"/>
			<path fill="#D1AE85" d="M41.977,123.257c0.07,0.876,0.41,1.665,0.87,2.382c0.234,0.354,0.501,0.677,0.78,0.979
				c0.14,0.149,0.281,0.295,0.428,0.428c0.146,0.135,0.295,0.26,0.442,0.38c0.291,0.24,0.578,0.454,0.85,0.632
				c0.269,0.171,0.519,0.317,0.728,0.428c0.418,0.222,0.68,0.317,0.654,0.269c-0.538-0.978-0.59-1.985-0.507-3.016
				c0.083-1.03,0.29-2.064,0.28-3.064c-0.006-0.862-0.274-1.608-0.672-2.243c-0.389-0.647-0.917-1.176-1.433-1.621
				c-0.521-0.435-1.031-0.784-1.422-1.009c-0.391-0.221-0.646-0.342-0.642-0.319c0.051,0.292,0.084,0.564,0.104,0.816
				c0.02,0.255,0.021,0.496,0.009,0.728c-0.024,0.462-0.097,0.887-0.182,1.316C42.094,121.201,41.882,122.049,41.977,123.257z"/>
		</g>
		<g>
			<path fill="#D1AE85" d="M34.174,117.588c-0.126,1.753,0.854,3.376,1.869,4.505c1.015,1.126,2.055,1.741,2.013,1.643
				c-0.195-0.523-0.268-1.037-0.263-1.542c0.006-0.505,0.094-1.017,0.211-1.517c0.234-1.005,0.589-1.991,0.73-2.989
				c0.063-0.426,0.056-0.834-0.006-1.22c-0.031-0.193-0.076-0.38-0.132-0.561c-0.055-0.185-0.118-0.365-0.191-0.54
				c-0.146-0.349-0.329-0.672-0.532-0.97c-0.2-0.308-0.42-0.588-0.646-0.843c-0.228-0.25-0.449-0.487-0.664-0.689
				c-0.214-0.205-0.418-0.376-0.595-0.517c-0.349-0.284-0.586-0.438-0.586-0.417c0.02,0.59-0.032,1.095-0.12,1.546
				c-0.089,0.452-0.225,0.861-0.371,1.271c-0.147,0.411-0.305,0.82-0.441,1.278C34.317,116.486,34.214,116.986,34.174,117.588z"/>
		</g>
		<g>
			<path fill="#D1AE85" d="M22.577,114.962c1.803-0.063,3.526,0.815,4.81,1.681c0.32,0.216,0.617,0.429,0.874,0.631
				c0.259,0.203,0.476,0.396,0.658,0.556c0.362,0.319,0.546,0.532,0.492,0.526c-1.115-0.161-2.105,0.102-3.082,0.472
				c-0.489,0.188-0.974,0.398-1.466,0.59c-0.491,0.193-0.983,0.362-1.5,0.466c-1.768,0.358-3.545-0.691-4.821-1.855
				c-0.316-0.294-0.599-0.592-0.851-0.873c-0.251-0.283-0.47-0.547-0.636-0.779c-0.342-0.462-0.522-0.772-0.502-0.767
				c0.66,0.152,1.209,0.19,1.699,0.16c0.493-0.031,0.93-0.129,1.36-0.243c0.434-0.114,0.86-0.244,1.338-0.352
				C21.428,115.066,21.948,114.987,22.577,114.962z"/>
			<path fill="#D1AE85" d="M27.294,110.827c-0.376,1.707,0.344,3.466,1.181,4.731c0.21,0.314,0.428,0.598,0.632,0.847
				c0.207,0.248,0.396,0.463,0.565,0.627c0.339,0.333,0.564,0.498,0.554,0.448c-0.243-1.083,0.021-2.077,0.399-3.035
				c0.19-0.479,0.41-0.948,0.617-1.418c0.208-0.473,0.409-0.948,0.552-1.429c0.123-0.412,0.175-0.816,0.169-1.204
				c-0.006-0.389-0.057-0.776-0.151-1.137c-0.196-0.723-0.525-1.4-0.9-1.968c-0.18-0.287-0.37-0.55-0.552-0.781
				c-0.183-0.233-0.363-0.431-0.512-0.6c-0.301-0.333-0.516-0.517-0.519-0.498c-0.064,0.585-0.189,1.075-0.35,1.51
				c-0.155,0.437-0.35,0.82-0.555,1.201c-0.203,0.384-0.422,0.765-0.62,1.198C27.604,109.755,27.419,110.24,27.294,110.827z"/>
		</g>
		<g>
			<path fill="#D1AE85" d="M16.214,106.508c1.806,0.2,3.355,1.341,4.514,2.375c0.141,0.131,0.273,0.264,0.403,0.39
				c0.128,0.124,0.25,0.248,0.363,0.368c0.226,0.235,0.419,0.456,0.57,0.642c0.304,0.376,0.461,0.609,0.406,0.595
				c-0.539-0.162-1.063-0.216-1.577-0.204c-0.517,0.016-1.03,0.104-1.542,0.216c-0.256,0.056-0.512,0.121-0.766,0.183
				c-0.257,0.061-0.512,0.125-0.767,0.182c-0.513,0.116-1.027,0.211-1.554,0.238c-1.804,0.095-3.404-1.211-4.492-2.552
				c-0.539-0.676-0.962-1.348-1.228-1.857c-0.271-0.506-0.402-0.839-0.383-0.831c0.631,0.25,1.168,0.367,1.66,0.41
				c0.487,0.046,0.931,0.015,1.378-0.033C14.091,106.529,14.978,106.363,16.214,106.508z"/>
			<path fill="#D1AE85" d="M21.492,103.122c-0.613,1.623-0.185,3.485,0.47,4.85c0.081,0.173,0.161,0.338,0.244,0.493
				c0.085,0.156,0.17,0.302,0.253,0.441c0.169,0.273,0.329,0.514,0.469,0.704c0.279,0.383,0.482,0.575,0.479,0.523
				c-0.042-0.548,0.046-1.066,0.201-1.552c0.158-0.487,0.385-0.942,0.644-1.386c0.128-0.223,0.265-0.442,0.403-0.661
				c0.14-0.216,0.28-0.438,0.42-0.654c0.278-0.438,0.542-0.875,0.755-1.331c0.722-1.548,0.329-3.153-0.23-4.391
				c-0.271-0.624-0.6-1.147-0.843-1.524c-0.251-0.375-0.438-0.585-0.444-0.568c-0.296,1.139-0.781,1.859-1.297,2.55
				C22.497,101.311,21.931,101.989,21.492,103.122z"/>
		</g>
		<g>
			<path fill="#D1AE85" d="M11.184,97.198c0.433,0.121,0.853,0.289,1.243,0.503c0.392,0.211,0.752,0.463,1.097,0.737
				c0.693,0.542,1.272,1.184,1.768,1.782c0.479,0.605,0.868,1.17,1.114,1.584c0.122,0.208,0.213,0.379,0.267,0.492
				c0.052,0.112,0.069,0.171,0.045,0.16c-1.009-0.489-2.039-0.525-3.087-0.454c-1.038,0.066-2.092,0.239-3.141,0.133
				c-0.451-0.043-0.873-0.171-1.268-0.365c-0.396-0.192-0.767-0.444-1.111-0.739c-0.34-0.294-0.647-0.634-0.932-0.99
				c-0.14-0.177-0.274-0.358-0.402-0.542c-0.122-0.188-0.236-0.376-0.346-0.562c-0.217-0.374-0.406-0.742-0.565-1.084
				c-0.152-0.346-0.276-0.663-0.374-0.934c-0.194-0.541-0.279-0.89-0.256-0.879c1.176,0.68,2.059,0.786,2.948,0.825
				C9.079,96.901,9.982,96.87,11.184,97.198z"/>
			<path fill="#D1AE85" d="M16.909,94.638c-0.221,0.383-0.362,0.781-0.462,1.196c-0.098,0.412-0.15,0.84-0.156,1.262
				c-0.005,0.842,0.137,1.684,0.358,2.406c0.21,0.729,0.49,1.341,0.711,1.764c0.11,0.208,0.204,0.374,0.273,0.473
				c0.071,0.101,0.116,0.146,0.117,0.117c0.099-1.108,0.634-1.979,1.272-2.781c0.65-0.804,1.403-1.543,1.959-2.378
				c0.234-0.356,0.405-0.727,0.519-1.102c0.114-0.376,0.171-0.753,0.185-1.128c0.017-0.377-0.002-0.751-0.053-1.11
				c-0.028-0.18-0.063-0.355-0.099-0.526c-0.035-0.176-0.077-0.346-0.12-0.509c-0.089-0.328-0.197-0.633-0.305-0.907
				c-0.104-0.277-0.209-0.522-0.305-0.725c-0.194-0.406-0.349-0.642-0.354-0.628c-0.469,1.082-1.043,1.716-1.668,2.325
				C18.169,92.999,17.508,93.586,16.909,94.638z"/>
		</g>
		<g>
			<path fill="#D1AE85" d="M7.604,87.238c0.207,0.092,0.405,0.196,0.595,0.311c0.193,0.114,0.378,0.238,0.556,0.371
				c0.356,0.27,0.68,0.571,0.973,0.896c0.299,0.322,0.577,0.66,0.82,1.004c0.122,0.173,0.235,0.344,0.345,0.517
				c0.113,0.172,0.219,0.341,0.316,0.508c0.198,0.333,0.367,0.656,0.507,0.951c0.148,0.292,0.27,0.558,0.36,0.783
				c0.184,0.446,0.253,0.719,0.209,0.688c-0.46-0.317-0.944-0.523-1.447-0.66c-0.501-0.136-1.019-0.206-1.534-0.25
				c-1.039-0.092-2.107-0.079-3.131-0.339c-0.867-0.222-1.591-0.764-2.185-1.448c-0.575-0.689-1.036-1.518-1.345-2.324
				c-0.157-0.4-0.296-0.791-0.396-1.156c-0.099-0.364-0.173-0.699-0.229-0.979c-0.056-0.283-0.093-0.512-0.11-0.672
				c-0.016-0.157-0.018-0.244-0.01-0.238c1.056,0.85,1.92,1.086,2.791,1.259C5.561,86.63,6.465,86.734,7.604,87.238z"/>
			<path fill="#D1AE85" d="M13.649,85.566c-0.135,0.171-0.255,0.352-0.362,0.539c-0.106,0.187-0.196,0.377-0.278,0.574
				c-0.157,0.395-0.267,0.807-0.342,1.225c-0.068,0.417-0.092,0.835-0.092,1.248c0,0.206,0.007,0.409,0.02,0.605
				c0.019,0.198,0.039,0.394,0.065,0.581c0.052,0.371,0.121,0.725,0.194,1.039c0.081,0.309,0.167,0.584,0.245,0.81
				c0.157,0.446,0.285,0.694,0.298,0.64c0.134-0.541,0.362-1.005,0.654-1.424c0.289-0.415,0.641-0.783,1.023-1.133
				c0.761-0.699,1.613-1.318,2.288-2.056c0.58-0.636,0.892-1.367,1.032-2.101c0.155-0.739,0.125-1.483,0.054-2.162
				c-0.039-0.336-0.104-0.653-0.164-0.941c-0.06-0.289-0.129-0.547-0.192-0.761c-0.066-0.216-0.129-0.387-0.178-0.504
				c-0.043-0.116-0.073-0.178-0.077-0.168c-0.629,0.998-1.287,1.538-1.995,2.048C15.135,84.138,14.401,84.616,13.649,85.566z"/>
		</g>
		<g>
			<path fill="#D1AE85" d="M5.561,76.856c0.188,0.121,0.37,0.252,0.539,0.393c0.173,0.143,0.338,0.295,0.493,0.454
				c0.313,0.317,0.587,0.666,0.829,1.029c0.246,0.364,0.47,0.739,0.661,1.115c0.095,0.19,0.183,0.378,0.263,0.564
				c0.083,0.186,0.165,0.368,0.238,0.549c0.144,0.358,0.264,0.702,0.359,1.017c0.097,0.312,0.18,0.591,0.236,0.826
				c0.116,0.469,0.145,0.75,0.104,0.713c-0.813-0.766-1.804-1.1-2.812-1.348c-1.014-0.246-2.072-0.392-3.046-0.802
				c-0.82-0.354-1.46-0.996-1.938-1.76c-0.468-0.768-0.798-1.655-0.984-2.497c-0.096-0.42-0.174-0.826-0.218-1.202
				c-0.043-0.375-0.067-0.716-0.08-1.003c-0.027-0.571-0.001-0.93,0.015-0.915c0.92,0.998,1.736,1.359,2.572,1.66
				C3.63,75.949,4.508,76.186,5.561,76.856z"/>
			<path fill="#D1AE85" d="M11.786,76.107c-0.159,0.149-0.307,0.312-0.44,0.479c-0.131,0.168-0.251,0.344-0.359,0.527
				c-0.215,0.364-0.387,0.758-0.521,1.16c-0.133,0.401-0.218,0.812-0.28,1.218c-0.029,0.203-0.053,0.406-0.07,0.606
				c-0.016,0.196-0.02,0.39-0.022,0.58c-0.004,0.379,0.013,0.736,0.037,1.056c0.03,0.322,0.077,0.606,0.119,0.837
				c0.089,0.466,0.18,0.731,0.2,0.681c0.427-1.031,1.181-1.698,2.041-2.278c0.858-0.575,1.794-1.06,2.57-1.69
				c0.674-0.539,1.086-1.214,1.336-1.919c0.267-0.711,0.347-1.451,0.375-2.133c0.015-0.338-0.004-0.663-0.021-0.956
				c-0.017-0.296-0.047-0.559-0.077-0.783c-0.068-0.446-0.143-0.718-0.154-0.705c-0.765,0.896-1.5,1.331-2.274,1.731
				C13.468,74.917,12.67,75.28,11.786,76.107z"/>
		</g>
		<g>
			<path fill="#D1AE85" d="M5.077,66.29c0.337,0.296,0.645,0.63,0.902,0.99c0.261,0.36,0.478,0.745,0.666,1.14
				c0.394,0.791,0.631,1.62,0.819,2.374c0.088,0.377,0.153,0.734,0.203,1.058c0.054,0.323,0.09,0.613,0.111,0.853
				c0.043,0.482,0.028,0.764-0.005,0.721c-0.345-0.44-0.747-0.78-1.185-1.059c-0.438-0.279-0.913-0.497-1.392-0.693
				c-0.966-0.392-1.989-0.695-2.892-1.246c-0.767-0.469-1.293-1.196-1.662-2.023c-0.176-0.414-0.307-0.85-0.407-1.292
				c-0.05-0.221-0.092-0.442-0.127-0.663c-0.031-0.22-0.051-0.439-0.069-0.654c-0.034-0.429-0.044-0.842-0.038-1.219
				c0.007-0.376,0.04-0.717,0.067-1.002c0.062-0.571,0.139-0.92,0.15-0.902c0.77,1.12,1.512,1.598,2.299,2.02
				C3.311,65.11,4.139,65.474,5.077,66.29z"/>
			<path fill="#D1AE85" d="M11.348,66.467c-0.364,0.25-0.665,0.548-0.937,0.878c-0.267,0.33-0.499,0.692-0.69,1.071
				c-0.364,0.756-0.609,1.576-0.722,2.324c-0.062,0.373-0.099,0.73-0.123,1.051c-0.012,0.321-0.012,0.609-0.005,0.846
				c0.018,0.474,0.067,0.747,0.095,0.702c0.289-0.478,0.645-0.855,1.047-1.167c0.398-0.312,0.843-0.561,1.313-0.783
				c0.933-0.442,1.933-0.781,2.794-1.292c0.738-0.434,1.256-1.043,1.603-1.706c0.179-0.333,0.326-0.679,0.435-1.027
				c0.056-0.173,0.103-0.347,0.14-0.52c0.042-0.171,0.082-0.343,0.111-0.51c0.063-0.335,0.101-0.657,0.121-0.952
				c0.022-0.294,0.039-0.562,0.039-0.787c0.005-0.449-0.031-0.731-0.049-0.719c-0.885,0.773-1.684,1.096-2.506,1.376
				C13.194,65.539,12.345,65.778,11.348,66.467z"/>
		</g>
		<g>
			<path fill="#D1AE85" d="M6.16,55.767c0.297,0.343,0.542,0.719,0.746,1.113c0.204,0.396,0.355,0.807,0.491,1.227
				c0.135,0.419,0.23,0.843,0.3,1.259c0.069,0.417,0.128,0.826,0.158,1.211c0.055,0.771,0.063,1.455,0.03,1.937
				c-0.014,0.24-0.037,0.43-0.058,0.554c-0.02,0.124-0.038,0.181-0.053,0.158c-0.555-0.971-1.389-1.581-2.295-2.112
				c-0.896-0.53-1.862-0.979-2.67-1.657c-0.698-0.579-1.103-1.376-1.344-2.25c-0.03-0.109-0.057-0.22-0.082-0.33
				c-0.022-0.112-0.04-0.223-0.058-0.334C1.29,56.317,1.267,56.09,1.25,55.864c-0.03-0.452-0.036-0.905,0-1.335
				c0.031-0.429,0.084-0.84,0.146-1.212c0.059-0.374,0.146-0.705,0.216-0.984c0.146-0.555,0.275-0.89,0.285-0.871
				c0.293,0.613,0.608,1.064,0.938,1.43c0.328,0.364,0.671,0.646,1.034,0.913C4.591,54.336,5.353,54.818,6.16,55.767z"/>
			<path fill="#D1AE85" d="M12.333,56.873c-0.389,0.194-0.737,0.442-1.054,0.729c-0.313,0.288-0.604,0.611-0.839,0.957
				c-0.239,0.347-0.446,0.714-0.627,1.084c-0.18,0.371-0.313,0.747-0.432,1.107c-0.241,0.721-0.351,1.386-0.406,1.856
				c-0.028,0.236-0.04,0.424-0.041,0.548c0.002,0.123,0.016,0.182,0.033,0.161c0.705-0.862,1.638-1.278,2.617-1.581
				c0.989-0.3,2.028-0.488,2.957-0.865c0.787-0.322,1.396-0.844,1.837-1.448c0.057-0.075,0.111-0.152,0.16-0.229
				c0.053-0.078,0.105-0.156,0.153-0.235c0.098-0.158,0.188-0.32,0.267-0.483c0.162-0.326,0.283-0.659,0.401-0.979
				c0.224-0.642,0.339-1.25,0.414-1.692c0.072-0.442,0.078-0.726,0.063-0.716c-0.99,0.632-1.838,0.829-2.686,0.985
				C14.3,56.228,13.424,56.341,12.333,56.873z"/>
		</g>
		<g>
			<path fill="#D1AE85" d="M8.803,45.519c0.24,0.381,0.432,0.792,0.573,1.213c0.069,0.21,0.13,0.424,0.178,0.638
				c0.047,0.214,0.087,0.431,0.123,0.649c0.068,0.434,0.101,0.869,0.108,1.29c0.005,0.421,0.002,0.834-0.026,1.22
				c-0.063,0.77-0.156,1.449-0.26,1.92c-0.104,0.47-0.194,0.739-0.214,0.688c-0.41-1.045-1.137-1.771-1.957-2.431
				c-0.806-0.66-1.694-1.249-2.392-2.04c-0.602-0.678-0.884-1.526-0.992-2.427c-0.055-0.451-0.043-0.906-0.009-1.36
				c0.037-0.453,0.101-0.9,0.202-1.319c0.095-0.421,0.209-0.819,0.326-1.179c0.118-0.359,0.248-0.674,0.36-0.939
				c0.228-0.528,0.404-0.84,0.411-0.819c0.401,1.3,0.968,1.976,1.598,2.611C7.468,43.868,8.149,44.46,8.803,45.519z"/>
			<path fill="#D1AE85" d="M14.743,47.539c-0.417,0.132-0.797,0.327-1.151,0.562c-0.179,0.119-0.349,0.247-0.511,0.384
				c-0.166,0.137-0.32,0.283-0.462,0.437c-0.288,0.307-0.551,0.638-0.783,0.978c-0.233,0.339-0.422,0.69-0.593,1.029
				c-0.347,0.676-0.552,1.318-0.679,1.776c-0.13,0.458-0.153,0.736-0.114,0.698c0.823-0.748,1.813-1.019,2.824-1.171
				c1.021-0.148,2.079-0.178,3.053-0.412c0.827-0.201,1.507-0.625,2.033-1.156c0.263-0.265,0.509-0.55,0.716-0.849
				c0.206-0.298,0.381-0.607,0.543-0.907c0.157-0.3,0.289-0.595,0.395-0.871c0.108-0.275,0.203-0.523,0.271-0.737
				c0.134-0.428,0.185-0.708,0.167-0.7c-1.076,0.475-1.938,0.544-2.804,0.571C16.783,47.197,15.898,47.175,14.743,47.539z"/>
		</g>
		<g>
			<path fill="#D1AE85" d="M12.961,35.784c0.175,0.413,0.3,0.846,0.378,1.284c0.078,0.438,0.107,0.879,0.105,1.317
				c0.008,0.882-0.136,1.734-0.296,2.494c-0.08,0.379-0.184,0.728-0.275,1.043c-0.089,0.314-0.184,0.591-0.269,0.817
				c-0.171,0.45-0.307,0.7-0.317,0.647c-0.24-1.092-0.861-1.923-1.566-2.697c-0.698-0.773-1.488-1.488-2.06-2.376
				c-0.491-0.759-0.644-1.642-0.618-2.548c0.023-0.45,0.095-0.902,0.197-1.345c0.052-0.221,0.109-0.44,0.175-0.653
				c0.069-0.211,0.145-0.419,0.222-0.621c0.158-0.401,0.325-0.78,0.498-1.116c0.175-0.334,0.346-0.63,0.497-0.874
				c0.151-0.244,0.281-0.437,0.377-0.566c0.093-0.128,0.153-0.192,0.154-0.182c0.197,1.342,0.667,2.101,1.188,2.82
				C11.877,33.95,12.468,34.64,12.961,35.784z"/>
			<path fill="#D1AE85" d="M18.527,38.672c-0.434,0.066-0.841,0.2-1.226,0.382c-0.385,0.18-0.749,0.407-1.085,0.664
				c-0.659,0.521-1.233,1.154-1.659,1.778c-0.215,0.311-0.413,0.611-0.563,0.895c-0.154,0.283-0.279,0.542-0.375,0.759
				c-0.192,0.434-0.266,0.703-0.219,0.673c0.933-0.613,1.941-0.737,2.969-0.733c1.033,0.006,2.082,0.135,3.08,0.05
				c0.85-0.073,1.586-0.393,2.184-0.838c0.308-0.219,0.585-0.468,0.834-0.732c0.125-0.131,0.24-0.269,0.355-0.406
				c0.113-0.136,0.22-0.272,0.32-0.41c0.201-0.273,0.371-0.549,0.522-0.803c0.151-0.253,0.276-0.488,0.376-0.689
				c0.097-0.203,0.167-0.371,0.213-0.488c0.048-0.117,0.066-0.181,0.058-0.179c-1.14,0.307-1.99,0.253-2.858,0.145
				C20.59,38.637,19.725,38.485,18.527,38.672z"/>
		</g>
		<g>
			<path fill="#D1AE85" d="M18.521,26.783c0.227,0.868,0.228,1.781,0.091,2.643c-0.071,0.431-0.158,0.861-0.276,1.265
				c-0.115,0.406-0.253,0.791-0.389,1.156c-0.138,0.362-0.283,0.695-0.429,0.99c-0.14,0.295-0.269,0.557-0.388,0.768
				c-0.233,0.422-0.406,0.647-0.407,0.593c-0.076-1.115-0.572-2.035-1.145-2.901c-0.576-0.868-1.252-1.696-1.688-2.66
				c-0.18-0.408-0.277-0.838-0.312-1.277c-0.03-0.438-0.006-0.892,0.086-1.33c0.09-0.441,0.224-0.88,0.391-1.302
				c0.165-0.424,0.373-0.822,0.584-1.197c0.106-0.188,0.216-0.369,0.325-0.542c0.107-0.173,0.226-0.333,0.334-0.486
				c0.223-0.305,0.435-0.573,0.619-0.792c0.184-0.221,0.344-0.389,0.458-0.5c0.113-0.114,0.179-0.168,0.179-0.157
				c-0.009,0.673,0.083,1.218,0.224,1.693c0.14,0.474,0.326,0.876,0.534,1.272c0.205,0.396,0.425,0.781,0.638,1.225
				C18.162,25.686,18.359,26.179,18.521,26.783z"/>
			<path fill="#D1AE85" d="M23.596,30.468c-0.878,0.003-1.695,0.283-2.441,0.69c-0.374,0.202-0.71,0.448-1.033,0.704
				c-0.321,0.256-0.619,0.528-0.876,0.805c-0.26,0.275-0.49,0.548-0.69,0.8c-0.197,0.255-0.355,0.495-0.482,0.695
				c-0.252,0.402-0.364,0.657-0.315,0.634c1.015-0.467,2.022-0.443,3.046-0.28c1.02,0.159,2.034,0.441,3.034,0.506
				c0.43,0.031,0.838-0.008,1.218-0.097c0.384-0.088,0.73-0.235,1.071-0.404c0.335-0.171,0.646-0.377,0.932-0.604
				c0.283-0.225,0.554-0.461,0.79-0.705c0.118-0.121,0.232-0.243,0.337-0.364c0.105-0.121,0.208-0.237,0.302-0.352
				c0.188-0.227,0.345-0.443,0.47-0.629c0.126-0.188,0.226-0.34,0.29-0.448c0.064-0.108,0.092-0.17,0.082-0.168
				c-0.591,0.061-1.091,0.053-1.55-0.003s-0.878-0.162-1.296-0.278c-0.419-0.116-0.844-0.246-1.309-0.343
				C24.71,30.532,24.198,30.463,23.596,30.468z"/>
		</g>
		<g>
			<path fill="#D1AE85" d="M25.355,18.709c0.19,1.79-0.552,3.58-1.321,4.92c-0.188,0.339-0.382,0.648-0.566,0.918
				c-0.091,0.136-0.181,0.263-0.267,0.378c-0.081,0.118-0.16,0.226-0.233,0.321c-0.292,0.384-0.495,0.583-0.49,0.528
				c0.043-0.559-0.022-1.083-0.156-1.587c-0.128-0.499-0.323-0.978-0.546-1.451c-0.438-0.945-0.995-1.871-1.272-2.88
				c-0.484-1.73,0.422-3.591,1.495-4.943c0.261-0.343,0.546-0.644,0.806-0.915c0.265-0.27,0.51-0.506,0.728-0.694
				c0.437-0.374,0.731-0.576,0.729-0.554c-0.211,1.333,0.02,2.201,0.31,3.045C24.863,16.642,25.212,17.46,25.355,18.709z"/>
			<path fill="#D1AE85" d="M29.829,23.105c-1.738-0.252-3.429,0.603-4.634,1.529c-0.294,0.235-0.563,0.471-0.797,0.693
				c-0.116,0.111-0.226,0.217-0.322,0.32c-0.097,0.103-0.184,0.202-0.261,0.292c-0.307,0.36-0.455,0.598-0.405,0.582
				c0.535-0.157,1.053-0.192,1.558-0.149c0.508,0.046,1.007,0.17,1.497,0.323c0.985,0.311,1.939,0.733,2.928,0.953
				c0.844,0.189,1.616,0.081,2.337-0.156c0.357-0.119,0.69-0.284,1.01-0.459c0.319-0.177,0.616-0.375,0.886-0.581
				c0.267-0.209,0.521-0.411,0.739-0.612c0.219-0.198,0.403-0.392,0.557-0.555c0.312-0.324,0.48-0.553,0.46-0.553
				c-0.588-0.021-1.092-0.113-1.533-0.235c-0.445-0.124-0.842-0.287-1.24-0.465C31.814,23.684,31.018,23.27,29.829,23.105z"/>
		</g>
		<g>
			<path fill="#D1AE85" d="M33.31,11.735c-0.068,1.81-1.081,3.451-2.032,4.674c-0.245,0.299-0.475,0.584-0.697,0.825
				c-0.221,0.242-0.426,0.449-0.604,0.614c-0.343,0.337-0.571,0.506-0.557,0.452c0.121-0.549,0.133-1.08,0.08-1.59
				c-0.053-0.514-0.176-1.018-0.326-1.52c-0.302-1.006-0.702-1.99-0.83-3.035c-0.054-0.446-0.026-0.887,0.071-1.319
				c0.1-0.426,0.266-0.842,0.476-1.241c0.105-0.199,0.223-0.395,0.347-0.585c0.128-0.188,0.266-0.368,0.407-0.545
				c0.285-0.351,0.592-0.683,0.907-0.978c0.635-0.583,1.271-1.062,1.759-1.362c0.485-0.306,0.807-0.464,0.8-0.443
				c-0.4,1.296-0.311,2.175-0.146,3.058C33.131,9.621,33.359,10.488,33.31,11.735z"/>
			<path fill="#D1AE85" d="M37.081,16.747c-1.67-0.496-3.485,0.08-4.804,0.828c-0.335,0.18-0.626,0.383-0.893,0.567
				c-0.262,0.186-0.49,0.363-0.67,0.516c-0.356,0.314-0.537,0.526-0.482,0.519c0.548-0.08,1.063-0.037,1.559,0.084
				c0.498,0.121,0.973,0.316,1.434,0.54c0.922,0.445,1.813,1.017,2.755,1.378c0.4,0.153,0.799,0.233,1.186,0.256
				c0.394,0.029,0.776,0.001,1.146-0.067c0.186-0.035,0.367-0.078,0.543-0.132c0.181-0.05,0.355-0.107,0.525-0.171
				c0.343-0.128,0.662-0.286,0.961-0.447c0.603-0.313,1.098-0.687,1.456-0.957c0.355-0.277,0.555-0.479,0.537-0.482
				c-1.162-0.214-1.911-0.64-2.64-1.104C38.962,17.614,38.237,17.093,37.081,16.747z"/>
		</g>
		<g>
			<path fill="#D1AE85" d="M42.215,6.021c-0.086,0.441-0.224,0.874-0.408,1.277c-0.181,0.406-0.408,0.781-0.65,1.148
				c-0.246,0.366-0.518,0.707-0.8,1.02c-0.279,0.313-0.563,0.614-0.848,0.876c-0.568,0.522-1.099,0.958-1.495,1.232
				c-0.398,0.273-0.644,0.413-0.625,0.36c0.101-0.264,0.174-0.525,0.227-0.782c0.055-0.259,0.082-0.518,0.094-0.777
				c0.021-0.517-0.025-1.034-0.101-1.555c-0.146-1.034-0.396-2.067-0.369-3.123c0.019-0.905,0.388-1.721,0.923-2.453
				c0.266-0.368,0.583-0.694,0.915-1.004c0.333-0.307,0.688-0.59,1.045-0.83c0.356-0.243,0.709-0.458,1.039-0.643
				c0.329-0.182,0.64-0.326,0.904-0.443c0.523-0.232,0.865-0.342,0.856-0.322c-0.588,1.227-0.632,2.11-0.603,3.003
				C42.354,3.9,42.451,4.799,42.215,6.021z"/>
			<path fill="#D1AE85" d="M45.197,11.539c-0.396-0.187-0.805-0.302-1.229-0.371c-0.418-0.065-0.852-0.092-1.271-0.059
				c-0.419,0.028-0.835,0.094-1.237,0.185s-0.779,0.219-1.135,0.35c-0.714,0.26-1.3,0.593-1.706,0.84
				c-0.406,0.249-0.61,0.439-0.559,0.436c0.276,0,0.542,0.032,0.8,0.089c0.255,0.056,0.498,0.135,0.734,0.23
				c0.471,0.192,0.909,0.453,1.334,0.743c0.847,0.582,1.646,1.283,2.52,1.773c0.743,0.415,1.529,0.564,2.277,0.534
				c0.373-0.017,0.749-0.059,1.103-0.138c0.354-0.078,0.693-0.187,1.017-0.297c0.318-0.113,0.617-0.241,0.883-0.371
				c0.266-0.126,0.505-0.247,0.699-0.359c0.39-0.221,0.615-0.394,0.597-0.399c-1.11-0.381-1.788-0.913-2.442-1.485
				C46.927,12.674,46.293,12.058,45.197,11.539z"/>
		</g>
		<g>
			<path fill="#D1AE85" d="M87.537,138.745c-0.318-0.321-0.677-0.596-1.056-0.828c-0.379-0.234-0.778-0.415-1.188-0.58
				c-0.405-0.165-0.822-0.295-1.232-0.395c-0.1-0.025-0.204-0.049-0.302-0.071c-0.104-0.022-0.204-0.046-0.305-0.066
				c-0.2-0.042-0.396-0.079-0.589-0.108c-0.382-0.063-0.741-0.094-1.068-0.125c-0.327-0.029-0.618-0.046-0.859-0.049
				c-0.481-0.006-0.764,0.031-0.719,0.061c0.93,0.622,1.476,1.505,1.938,2.444c0.46,0.93,0.837,1.929,1.452,2.787
				c0.133,0.184,0.278,0.352,0.438,0.504c0.158,0.15,0.33,0.287,0.512,0.411c0.364,0.248,0.767,0.441,1.193,0.593
				c0.426,0.154,0.873,0.244,1.322,0.314c0.446,0.063,0.898,0.1,1.328,0.098c0.432,0,0.845-0.022,1.221-0.058
				c0.375-0.028,0.712-0.09,0.996-0.139c0.564-0.105,0.906-0.208,0.889-0.22c-1.178-0.681-1.709-1.382-2.188-2.14
				C88.846,140.419,88.421,139.62,87.537,138.745z"/>
			<path fill="#D1AE85" d="M86.894,132.504c-0.222,0.377-0.496,0.704-0.808,0.998c-0.306,0.29-0.649,0.555-1.014,0.766
				c-0.363,0.212-0.746,0.393-1.126,0.543c-0.099,0.038-0.193,0.073-0.288,0.106c-0.096,0.035-0.19,0.063-0.286,0.092
				c-0.191,0.058-0.381,0.108-0.563,0.152c-0.37,0.085-0.72,0.159-1.04,0.197c-0.319,0.038-0.606,0.061-0.842,0.069
				c-0.476,0.018-0.753-0.009-0.708-0.042c0.912-0.646,1.396-1.536,1.77-2.495c0.371-0.964,0.638-1.985,1.085-2.886
				c0.092-0.19,0.2-0.367,0.317-0.534c0.116-0.167,0.241-0.322,0.377-0.468c0.267-0.285,0.569-0.524,0.887-0.723
				c0.316-0.196,0.651-0.375,0.991-0.508c0.336-0.136,0.677-0.234,1.004-0.326c0.329-0.085,0.646-0.149,0.939-0.192
				c0.292-0.041,0.557-0.081,0.78-0.097c0.45-0.038,0.731-0.022,0.72-0.006c-0.702,0.94-0.965,1.768-1.184,2.604
				C87.684,130.592,87.508,131.458,86.894,132.504z"/>
		</g>
		<g>
			<path fill="#D1AE85" d="M97.954,136.877c-0.364-0.269-0.761-0.488-1.166-0.661c-0.412-0.173-0.835-0.293-1.263-0.399
				c-0.428-0.1-0.857-0.165-1.278-0.203c-0.418-0.04-0.832-0.066-1.218-0.066c-0.771,0.004-1.455,0.048-1.935,0.114
				c-0.477,0.069-0.75,0.14-0.702,0.161c1.011,0.487,1.683,1.27,2.278,2.133c0.597,0.855,1.116,1.784,1.854,2.539
				c0.633,0.653,1.456,0.999,2.346,1.172c0.447,0.09,0.9,0.112,1.354,0.112c0.455-0.003,0.907-0.031,1.332-0.102
				c0.428-0.063,0.834-0.148,1.198-0.238c0.371-0.087,0.693-0.196,0.964-0.289c0.546-0.187,0.869-0.339,0.851-0.349
				c-1.267-0.498-1.896-1.112-2.485-1.789C99.498,138.335,98.958,137.61,97.954,136.877z"/>
			<path fill="#D1AE85" d="M96.385,130.803c-0.163,0.405-0.386,0.77-0.646,1.107c-0.265,0.334-0.563,0.646-0.893,0.907
				c-0.326,0.265-0.677,0.501-1.034,0.708c-0.354,0.208-0.719,0.369-1.068,0.515c-0.7,0.295-1.357,0.45-1.823,0.543
				c-0.465,0.095-0.744,0.098-0.705,0.06c0.807-0.764,1.151-1.729,1.381-2.727c0.225-1.006,0.335-2.058,0.64-3.014
				c0.261-0.809,0.736-1.454,1.306-1.941c0.287-0.239,0.589-0.468,0.899-0.647c0.313-0.186,0.637-0.333,0.945-0.474
				c0.313-0.135,0.616-0.243,0.899-0.33c0.282-0.086,0.536-0.161,0.759-0.211c0.434-0.103,0.716-0.131,0.708-0.116
				c-0.555,1.037-0.689,1.893-0.778,2.75C96.88,128.794,96.833,129.677,96.385,130.803z"/>
		</g>
		<g>
			<path fill="#D1AE85" d="M107.972,133.465c-0.396-0.205-0.821-0.368-1.249-0.476c-0.436-0.111-0.869-0.168-1.308-0.205
				c-0.44-0.036-0.875-0.036-1.296-0.011c-0.104,0.006-0.206,0.016-0.311,0.023c-0.105,0.006-0.21,0.015-0.312,0.023
				c-0.202,0.02-0.398,0.045-0.593,0.072c-0.762,0.119-1.43,0.267-1.895,0.404c-0.23,0.067-0.41,0.131-0.528,0.181
				c-0.114,0.044-0.168,0.076-0.14,0.083c1.07,0.329,1.849,1,2.569,1.768c0.719,0.752,1.373,1.593,2.216,2.232
				c0.182,0.135,0.368,0.254,0.567,0.352c0.197,0.096,0.399,0.177,0.609,0.241c0.421,0.126,0.866,0.193,1.319,0.212
				c0.449,0.016,0.907-0.026,1.354-0.095c0.226-0.035,0.447-0.078,0.666-0.124c0.219-0.054,0.429-0.114,0.638-0.176
				c0.412-0.127,0.799-0.268,1.151-0.414c0.342-0.148,0.653-0.298,0.906-0.431c0.511-0.267,0.81-0.463,0.787-0.469
				c-1.329-0.301-2.046-0.821-2.725-1.399C109.719,134.676,109.075,134.041,107.972,133.465z"/>
			<path fill="#D1AE85" d="M105.511,127.697c-0.099,0.43-0.267,0.818-0.476,1.191c-0.206,0.369-0.456,0.721-0.741,1.032
				c-0.283,0.311-0.597,0.597-0.917,0.854c-0.079,0.065-0.162,0.127-0.244,0.187c-0.08,0.061-0.161,0.117-0.244,0.171
				c-0.165,0.11-0.33,0.215-0.494,0.311c-0.647,0.395-1.27,0.653-1.718,0.812c-0.224,0.079-0.401,0.133-0.523,0.16
				c-0.122,0.023-0.183,0.027-0.164,0.004c0.683-0.878,0.879-1.88,0.956-2.903c0.069-1.031,0.02-2.084,0.18-3.074
				c0.032-0.212,0.083-0.412,0.146-0.604c0.061-0.195,0.134-0.379,0.223-0.556c0.171-0.354,0.387-0.672,0.631-0.955
				c0.241-0.284,0.511-0.548,0.793-0.777c0.14-0.113,0.282-0.221,0.432-0.319c0.142-0.102,0.288-0.202,0.431-0.291
				c0.289-0.179,0.574-0.333,0.84-0.458c0.264-0.133,0.505-0.241,0.714-0.325c0.419-0.167,0.694-0.236,0.688-0.219
				c-0.396,1.106-0.402,1.968-0.358,2.836C105.698,125.639,105.787,126.518,105.511,127.697z"/>
		</g>
		<g>
			<path fill="#D1AE85" d="M117.364,128.591c-0.847-0.288-1.76-0.365-2.628-0.288c-0.438,0.035-0.87,0.095-1.282,0.181
				c-0.209,0.044-0.409,0.094-0.605,0.144c-0.196,0.048-0.391,0.103-0.577,0.156c-0.371,0.112-0.713,0.235-1.018,0.352
				c-0.308,0.116-0.577,0.23-0.796,0.333c-0.438,0.2-0.676,0.356-0.622,0.365c1.106,0.152,1.985,0.72,2.807,1.357
				c0.824,0.637,1.598,1.373,2.527,1.877c0.789,0.425,1.684,0.523,2.584,0.422c0.892-0.112,1.792-0.41,2.565-0.787
				c0.783-0.364,1.443-0.802,1.91-1.14c0.465-0.333,0.726-0.585,0.703-0.585c-0.336-0.019-0.637-0.064-0.913-0.127
				c-0.279-0.06-0.529-0.136-0.758-0.222c-0.463-0.174-0.851-0.393-1.23-0.627C119.276,129.54,118.544,128.997,117.364,128.591z"/>
			<path fill="#D1AE85" d="M114.069,123.257c-0.066,0.876-0.412,1.665-0.872,2.382c-0.231,0.354-0.501,0.677-0.776,0.979
				c-0.14,0.149-0.283,0.295-0.432,0.428c-0.146,0.135-0.292,0.26-0.438,0.38c-0.295,0.24-0.583,0.454-0.85,0.632
				c-0.272,0.171-0.521,0.317-0.729,0.428c-0.418,0.222-0.682,0.317-0.657,0.269c0.54-0.978,0.594-1.985,0.508-3.016
				c-0.083-1.03-0.289-2.064-0.278-3.064c0.006-0.862,0.272-1.608,0.672-2.243c0.387-0.647,0.916-1.176,1.43-1.621
				c0.521-0.435,1.03-0.784,1.421-1.009c0.391-0.221,0.646-0.342,0.646-0.319c-0.054,0.292-0.088,0.564-0.106,0.816
				c-0.021,0.255-0.021,0.496-0.008,0.728c0.022,0.462,0.096,0.887,0.182,1.316C113.953,121.201,114.165,122.049,114.069,123.257z"
				/>
		</g>
		<g>
			<path fill="#D1AE85" d="M121.871,117.588c0.123,1.753-0.854,3.376-1.865,4.505c-1.019,1.126-2.059,1.741-2.014,1.643
				c0.193-0.523,0.266-1.037,0.264-1.542c-0.007-0.505-0.096-1.017-0.213-1.517c-0.234-1.005-0.587-1.991-0.732-2.989
				c-0.063-0.426-0.054-0.834,0.006-1.22c0.032-0.193,0.077-0.38,0.13-0.561c0.058-0.185,0.121-0.365,0.193-0.54
				c0.146-0.349,0.327-0.672,0.533-0.97c0.2-0.308,0.419-0.588,0.644-0.843c0.229-0.25,0.45-0.487,0.666-0.689
				c0.215-0.205,0.419-0.376,0.596-0.517c0.35-0.284,0.584-0.438,0.584-0.417c-0.02,0.59,0.032,1.095,0.12,1.546
				c0.092,0.452,0.226,0.861,0.375,1.271c0.146,0.411,0.302,0.82,0.438,1.278C121.728,116.486,121.832,116.986,121.871,117.588z"/>
		</g>
		<g>
			<path fill="#D1AE85" d="M133.467,114.962c-1.801-0.063-3.523,0.815-4.808,1.681c-0.319,0.216-0.618,0.429-0.875,0.631
				c-0.261,0.203-0.476,0.396-0.66,0.556c-0.358,0.319-0.542,0.532-0.487,0.526c1.112-0.161,2.105,0.102,3.082,0.472
				c0.485,0.188,0.971,0.398,1.462,0.59c0.491,0.193,0.986,0.362,1.503,0.466c1.767,0.358,3.545-0.691,4.82-1.855
				c0.316-0.294,0.599-0.592,0.85-0.873c0.254-0.283,0.47-0.547,0.637-0.779c0.34-0.462,0.523-0.772,0.502-0.767
				c-0.66,0.152-1.208,0.19-1.697,0.16c-0.494-0.031-0.933-0.129-1.363-0.243c-0.435-0.114-0.862-0.244-1.338-0.352
				C134.617,115.066,134.095,114.987,133.467,114.962z"/>
			<path fill="#D1AE85" d="M128.752,110.827c0.373,1.707-0.343,3.466-1.181,4.731c-0.208,0.314-0.427,0.598-0.634,0.847
				c-0.203,0.248-0.393,0.463-0.564,0.627c-0.339,0.333-0.562,0.498-0.552,0.448c0.238-1.083-0.022-2.077-0.403-3.035
				c-0.186-0.479-0.408-0.948-0.614-1.418c-0.21-0.473-0.409-0.948-0.552-1.429c-0.123-0.412-0.175-0.816-0.171-1.204
				c0.009-0.389,0.057-0.776,0.154-1.137c0.193-0.723,0.524-1.4,0.897-1.968c0.182-0.287,0.371-0.55,0.552-0.781
				c0.185-0.233,0.365-0.431,0.511-0.6c0.302-0.333,0.521-0.517,0.523-0.498c0.06,0.585,0.187,1.075,0.349,1.51
				c0.156,0.437,0.35,0.82,0.552,1.201c0.206,0.384,0.422,0.765,0.625,1.198C128.44,109.755,128.628,110.24,128.752,110.827z"/>
		</g>
		<g>
			<path fill="#D1AE85" d="M139.831,106.508c-1.805,0.2-3.354,1.341-4.51,2.375c-0.146,0.131-0.275,0.264-0.405,0.39
				c-0.13,0.124-0.251,0.248-0.365,0.368c-0.225,0.235-0.418,0.456-0.57,0.642c-0.305,0.376-0.459,0.609-0.405,0.595
				c0.538-0.162,1.063-0.216,1.579-0.204c0.517,0.016,1.026,0.104,1.537,0.216c0.258,0.056,0.514,0.121,0.771,0.183
				c0.254,0.061,0.508,0.125,0.765,0.182c0.514,0.116,1.03,0.211,1.554,0.238c1.805,0.095,3.406-1.211,4.49-2.552
				c0.539-0.676,0.964-1.348,1.23-1.857c0.27-0.506,0.403-0.839,0.381-0.831c-0.632,0.25-1.168,0.367-1.659,0.41
				c-0.488,0.046-0.932,0.015-1.379-0.033C141.956,106.529,141.068,106.363,139.831,106.508z"/>
			<path fill="#D1AE85" d="M134.555,103.122c0.612,1.623,0.184,3.485-0.473,4.85c-0.079,0.173-0.158,0.338-0.241,0.493
				c-0.086,0.156-0.171,0.302-0.253,0.441c-0.169,0.273-0.331,0.514-0.47,0.704c-0.279,0.383-0.485,0.575-0.479,0.523
				c0.042-0.548-0.044-1.066-0.199-1.552c-0.159-0.487-0.387-0.942-0.645-1.386c-0.129-0.223-0.263-0.442-0.402-0.661
				c-0.143-0.216-0.282-0.438-0.422-0.654c-0.278-0.438-0.542-0.875-0.757-1.331c-0.721-1.548-0.324-3.153,0.231-4.391
				c0.272-0.624,0.602-1.147,0.846-1.524c0.251-0.375,0.438-0.585,0.444-0.568c0.295,1.139,0.78,1.859,1.297,2.55
				C133.549,101.311,134.117,101.989,134.555,103.122z"/>
		</g>
		<g>
			<path fill="#D1AE85" d="M144.863,97.198c-0.434,0.121-0.854,0.289-1.243,0.503c-0.394,0.211-0.752,0.463-1.094,0.737
				c-0.694,0.542-1.274,1.184-1.772,1.782c-0.479,0.605-0.868,1.17-1.113,1.584c-0.123,0.208-0.213,0.379-0.267,0.492
				c-0.054,0.112-0.069,0.171-0.044,0.16c1.006-0.489,2.039-0.525,3.086-0.454c1.039,0.066,2.093,0.239,3.143,0.133
				c0.45-0.043,0.871-0.171,1.265-0.365c0.396-0.192,0.768-0.444,1.113-0.739c0.342-0.294,0.646-0.634,0.932-0.99
				c0.14-0.177,0.276-0.358,0.399-0.542c0.124-0.188,0.242-0.376,0.346-0.562c0.219-0.374,0.409-0.742,0.568-1.084
				c0.152-0.346,0.275-0.663,0.371-0.934c0.196-0.541,0.279-0.89,0.257-0.879c-1.173,0.68-2.059,0.786-2.946,0.825
				C146.966,96.901,146.063,96.87,144.863,97.198z"/>
			<path fill="#D1AE85" d="M139.137,94.638c0.219,0.383,0.361,0.781,0.463,1.196c0.095,0.412,0.148,0.84,0.155,1.262
				c0.004,0.842-0.136,1.684-0.358,2.406c-0.209,0.729-0.491,1.341-0.71,1.764c-0.111,0.208-0.206,0.374-0.275,0.473
				c-0.074,0.101-0.114,0.146-0.118,0.117c-0.098-1.108-0.634-1.979-1.271-2.781c-0.646-0.804-1.401-1.543-1.957-2.378
				c-0.237-0.356-0.405-0.727-0.52-1.102c-0.114-0.376-0.172-0.753-0.184-1.128c-0.02-0.377,0.003-0.751,0.054-1.11
				c0.025-0.18,0.061-0.355,0.098-0.526c0.035-0.176,0.073-0.346,0.117-0.509c0.093-0.328,0.197-0.633,0.306-0.907
				c0.104-0.277,0.209-0.522,0.304-0.725c0.196-0.406,0.349-0.642,0.354-0.628c0.471,1.082,1.041,1.716,1.666,2.325
				C137.874,92.999,138.537,93.586,139.137,94.638z"/>
		</g>
		<g>
			<path fill="#D1AE85" d="M148.44,87.238c-0.203,0.092-0.403,0.196-0.593,0.311c-0.193,0.114-0.377,0.238-0.556,0.371
				c-0.358,0.27-0.682,0.571-0.973,0.896c-0.302,0.322-0.577,0.66-0.818,1.004c-0.127,0.173-0.238,0.344-0.349,0.517
				c-0.111,0.172-0.219,0.341-0.314,0.508c-0.199,0.333-0.368,0.656-0.508,0.951c-0.148,0.292-0.269,0.558-0.36,0.783
				c-0.185,0.446-0.254,0.719-0.21,0.688c0.463-0.317,0.949-0.523,1.449-0.66c0.502-0.136,1.019-0.206,1.535-0.25
				c1.037-0.092,2.105-0.079,3.126-0.339c0.87-0.222,1.596-0.764,2.188-1.448c0.577-0.689,1.033-1.518,1.348-2.324
				c0.155-0.4,0.295-0.791,0.394-1.156c0.098-0.364,0.175-0.699,0.228-0.979c0.058-0.283,0.093-0.512,0.111-0.672
				c0.016-0.157,0.016-0.244,0.01-0.238c-1.057,0.85-1.919,1.086-2.791,1.259C150.486,86.63,149.582,86.734,148.44,87.238z"/>
			<path fill="#D1AE85" d="M142.396,85.566c0.133,0.171,0.257,0.352,0.361,0.539c0.108,0.187,0.2,0.377,0.276,0.574
				c0.161,0.395,0.271,0.807,0.346,1.225c0.066,0.417,0.092,0.835,0.092,1.248c0,0.206-0.006,0.409-0.02,0.605
				c-0.02,0.198-0.041,0.394-0.066,0.581c-0.054,0.371-0.12,0.725-0.193,1.039c-0.083,0.309-0.168,0.584-0.244,0.81
				c-0.159,0.446-0.288,0.694-0.301,0.64c-0.134-0.541-0.362-1.005-0.654-1.424c-0.288-0.415-0.641-0.783-1.021-1.133
				c-0.764-0.699-1.617-1.318-2.29-2.056c-0.583-0.636-0.894-1.367-1.033-2.101c-0.155-0.739-0.123-1.483-0.051-2.162
				c0.038-0.336,0.104-0.653,0.161-0.941c0.061-0.289,0.131-0.547,0.193-0.761c0.067-0.216,0.131-0.387,0.179-0.504
				c0.04-0.116,0.072-0.178,0.075-0.168c0.632,0.998,1.288,1.538,1.998,2.048C140.912,84.138,141.646,84.616,142.396,85.566z"/>
		</g>
		<g>
			<path fill="#D1AE85" d="M150.488,76.856c-0.193,0.121-0.37,0.252-0.541,0.393c-0.175,0.143-0.34,0.295-0.496,0.454
				c-0.311,0.317-0.586,0.666-0.827,1.029c-0.247,0.364-0.473,0.739-0.659,1.115c-0.095,0.19-0.184,0.378-0.263,0.564
				c-0.086,0.186-0.165,0.368-0.238,0.549c-0.146,0.358-0.264,0.702-0.358,1.017c-0.099,0.312-0.181,0.591-0.238,0.826
				c-0.117,0.469-0.143,0.75-0.104,0.713c0.815-0.766,1.804-1.1,2.81-1.348c1.015-0.246,2.071-0.392,3.047-0.802
				c0.822-0.354,1.46-0.996,1.941-1.76c0.466-0.768,0.796-1.655,0.982-2.497c0.1-0.42,0.175-0.826,0.219-1.202
				c0.045-0.375,0.066-0.716,0.083-1.003c0.025-0.571,0-0.93-0.019-0.915c-0.92,0.998-1.735,1.359-2.569,1.66
				C152.417,75.949,151.538,76.186,150.488,76.856z"/>
			<path fill="#D1AE85" d="M144.261,76.107c0.159,0.149,0.305,0.312,0.44,0.479c0.134,0.168,0.251,0.344,0.355,0.527
				c0.216,0.364,0.39,0.758,0.523,1.16c0.133,0.401,0.219,0.812,0.279,1.218c0.031,0.203,0.054,0.406,0.072,0.606
				c0.013,0.196,0.02,0.39,0.022,0.58c0.003,0.379-0.013,0.736-0.037,1.056c-0.029,0.322-0.077,0.606-0.121,0.837
				c-0.085,0.466-0.178,0.731-0.197,0.681c-0.428-1.031-1.183-1.698-2.045-2.278c-0.856-0.575-1.795-1.06-2.568-1.69
				c-0.675-0.539-1.085-1.214-1.335-1.919c-0.267-0.711-0.35-1.451-0.377-2.133c-0.013-0.338,0.003-0.663,0.021-0.956
				c0.016-0.296,0.045-0.559,0.076-0.783c0.069-0.446,0.143-0.718,0.152-0.705c0.767,0.896,1.5,1.331,2.28,1.731
				C142.577,74.917,143.376,75.28,144.261,76.107z"/>
		</g>
		<g>
			<path fill="#D1AE85" d="M150.968,66.29c-0.336,0.296-0.644,0.63-0.9,0.99c-0.26,0.36-0.479,0.745-0.666,1.14
				c-0.394,0.791-0.631,1.62-0.818,2.374c-0.088,0.377-0.155,0.734-0.202,1.058c-0.055,0.323-0.093,0.613-0.112,0.853
				c-0.044,0.482-0.031,0.764,0.004,0.721c0.342-0.44,0.748-0.78,1.186-1.059c0.441-0.279,0.914-0.497,1.393-0.693
				c0.967-0.392,1.988-0.695,2.892-1.246c0.768-0.469,1.291-1.196,1.661-2.023c0.175-0.414,0.306-0.85,0.406-1.292
				c0.051-0.221,0.092-0.442,0.127-0.663c0.031-0.22,0.052-0.439,0.07-0.654c0.031-0.429,0.04-0.842,0.038-1.219
				c-0.007-0.376-0.038-0.717-0.07-1.002c-0.061-0.571-0.136-0.92-0.146-0.902c-0.771,1.12-1.512,1.598-2.301,2.02
				C152.733,65.11,151.909,65.474,150.968,66.29z"/>
			<path fill="#D1AE85" d="M144.698,66.467c0.365,0.25,0.663,0.548,0.936,0.878c0.267,0.33,0.502,0.692,0.688,1.071
				c0.366,0.756,0.612,1.576,0.727,2.324c0.061,0.373,0.099,0.73,0.121,1.051c0.016,0.321,0.016,0.609,0.003,0.846
				c-0.016,0.474-0.063,0.747-0.092,0.702c-0.288-0.478-0.645-0.855-1.047-1.167c-0.399-0.312-0.843-0.561-1.315-0.783
				c-0.933-0.442-1.929-0.781-2.794-1.292c-0.736-0.434-1.255-1.043-1.601-1.706c-0.182-0.333-0.327-0.679-0.436-1.027
				c-0.054-0.173-0.102-0.347-0.143-0.52c-0.041-0.171-0.079-0.343-0.107-0.51c-0.063-0.335-0.102-0.657-0.12-0.952
				c-0.022-0.294-0.042-0.562-0.042-0.787c-0.003-0.449,0.031-0.731,0.048-0.719c0.885,0.773,1.688,1.096,2.508,1.376
				C142.854,65.539,143.699,65.778,144.698,66.467z"/>
		</g>
		<g>
			<path fill="#D1AE85" d="M149.887,55.767c-0.298,0.343-0.546,0.719-0.746,1.113c-0.206,0.396-0.354,0.807-0.494,1.227
				c-0.13,0.419-0.229,0.843-0.298,1.259c-0.07,0.417-0.128,0.826-0.159,1.211c-0.054,0.771-0.061,1.455-0.027,1.937
				c0.015,0.24,0.037,0.43,0.059,0.554c0.017,0.124,0.035,0.181,0.052,0.158c0.558-0.971,1.389-1.581,2.296-2.112
				c0.897-0.53,1.861-0.979,2.67-1.657c0.697-0.579,1.104-1.376,1.345-2.25c0.028-0.109,0.054-0.22,0.079-0.33
				c0.022-0.112,0.041-0.223,0.061-0.334c0.035-0.225,0.057-0.452,0.072-0.678c0.029-0.452,0.038-0.905,0-1.335
				c-0.031-0.429-0.085-0.84-0.146-1.212c-0.057-0.374-0.146-0.705-0.216-0.984c-0.148-0.555-0.275-0.89-0.285-0.871
				c-0.295,0.613-0.609,1.064-0.936,1.43c-0.33,0.364-0.676,0.646-1.037,0.913C151.456,54.336,150.692,54.818,149.887,55.767z"/>
			<path fill="#D1AE85" d="M143.712,56.873c0.391,0.194,0.739,0.442,1.054,0.729c0.313,0.288,0.605,0.611,0.837,0.957
				c0.241,0.347,0.45,0.714,0.627,1.084c0.182,0.371,0.314,0.747,0.436,1.107c0.241,0.721,0.348,1.386,0.405,1.856
				c0.025,0.236,0.042,0.424,0.042,0.548c-0.004,0.123-0.017,0.182-0.032,0.161c-0.707-0.862-1.64-1.278-2.616-1.581
				c-0.992-0.3-2.029-0.488-2.962-0.865c-0.787-0.322-1.396-0.844-1.836-1.448c-0.054-0.075-0.107-0.152-0.161-0.229
				c-0.052-0.078-0.102-0.156-0.152-0.235c-0.096-0.158-0.185-0.32-0.267-0.483c-0.162-0.326-0.282-0.659-0.399-0.979
				c-0.223-0.642-0.336-1.25-0.416-1.692c-0.069-0.442-0.079-0.726-0.063-0.716c0.993,0.632,1.837,0.829,2.687,0.985
				C141.746,56.228,142.622,56.341,143.712,56.873z"/>
		</g>
		<g>
			<path fill="#D1AE85" d="M147.242,45.519c-0.242,0.381-0.432,0.792-0.571,1.213c-0.07,0.21-0.13,0.424-0.177,0.638
				c-0.048,0.214-0.09,0.431-0.125,0.649c-0.069,0.434-0.104,0.869-0.106,1.29c-0.008,0.421-0.004,0.834,0.024,1.22
				c0.063,0.77,0.155,1.449,0.261,1.92c0.104,0.47,0.193,0.739,0.212,0.688c0.409-1.045,1.139-1.771,1.956-2.431
				c0.809-0.66,1.693-1.249,2.392-2.04c0.605-0.678,0.885-1.526,0.992-2.427c0.055-0.451,0.045-0.906,0.01-1.36
				c-0.035-0.453-0.102-0.9-0.2-1.319c-0.098-0.421-0.212-0.819-0.327-1.179c-0.116-0.359-0.246-0.674-0.36-0.939
				c-0.229-0.528-0.402-0.84-0.412-0.819c-0.4,1.3-0.967,1.976-1.599,2.611C148.577,43.868,147.898,44.46,147.242,45.519z"/>
			<path fill="#D1AE85" d="M141.303,47.539c0.418,0.132,0.795,0.327,1.153,0.562c0.179,0.119,0.346,0.247,0.512,0.384
				c0.161,0.137,0.316,0.283,0.459,0.437c0.289,0.307,0.552,0.638,0.783,0.978c0.235,0.339,0.422,0.69,0.593,1.029
				c0.346,0.676,0.552,1.318,0.679,1.776c0.13,0.458,0.152,0.736,0.114,0.698c-0.824-0.748-1.813-1.019-2.825-1.171
				c-1.021-0.148-2.08-0.178-3.054-0.412c-0.824-0.201-1.506-0.625-2.032-1.156c-0.264-0.265-0.508-0.55-0.714-0.849
				c-0.209-0.298-0.384-0.607-0.542-0.907s-0.292-0.595-0.399-0.871c-0.108-0.275-0.2-0.523-0.267-0.737
				c-0.136-0.428-0.184-0.708-0.169-0.7c1.076,0.475,1.938,0.544,2.804,0.571C139.264,47.197,140.148,47.175,141.303,47.539z"/>
		</g>
		<g>
			<path fill="#D1AE85" d="M143.087,35.784c-0.177,0.413-0.304,0.846-0.38,1.284c-0.079,0.438-0.107,0.879-0.104,1.317
				c-0.01,0.882,0.133,1.734,0.295,2.494c0.079,0.379,0.184,0.728,0.272,1.043c0.092,0.314,0.188,0.591,0.27,0.817
				c0.175,0.45,0.308,0.7,0.317,0.647c0.24-1.092,0.862-1.923,1.566-2.697c0.698-0.773,1.49-1.488,2.062-2.376
				c0.491-0.759,0.644-1.642,0.618-2.548c-0.022-0.45-0.095-0.902-0.196-1.345c-0.051-0.221-0.108-0.44-0.175-0.653
				c-0.069-0.211-0.146-0.419-0.226-0.621c-0.154-0.401-0.323-0.78-0.494-1.116c-0.175-0.334-0.35-0.63-0.501-0.874
				c-0.148-0.244-0.279-0.437-0.374-0.566c-0.093-0.128-0.149-0.192-0.153-0.182c-0.196,1.342-0.668,2.101-1.188,2.82
				C144.169,33.95,143.579,34.64,143.087,35.784z"/>
			<path fill="#D1AE85" d="M137.52,38.672c0.434,0.066,0.84,0.2,1.224,0.382c0.384,0.18,0.749,0.407,1.088,0.664
				c0.656,0.521,1.233,1.154,1.658,1.778c0.216,0.311,0.409,0.611,0.564,0.895c0.152,0.283,0.276,0.542,0.371,0.759
				c0.193,0.434,0.267,0.703,0.219,0.673c-0.932-0.613-1.94-0.737-2.968-0.733c-1.031,0.006-2.08,0.135-3.079,0.05
				c-0.851-0.073-1.586-0.393-2.182-0.838c-0.308-0.219-0.59-0.468-0.837-0.732c-0.124-0.131-0.241-0.269-0.353-0.406
				c-0.114-0.136-0.225-0.272-0.32-0.41c-0.206-0.273-0.371-0.549-0.523-0.803c-0.151-0.253-0.278-0.488-0.377-0.689
				c-0.098-0.203-0.171-0.371-0.212-0.488c-0.048-0.117-0.067-0.181-0.058-0.179c1.139,0.307,1.988,0.253,2.856,0.145
				C135.455,38.637,136.324,38.485,137.52,38.672z"/>
		</g>
		<g>
			<path fill="#D1AE85" d="M137.526,26.783c-0.226,0.868-0.229,1.781-0.093,2.643c0.073,0.431,0.159,0.861,0.276,1.265
				c0.116,0.406,0.254,0.791,0.39,1.156c0.14,0.362,0.285,0.695,0.429,0.99c0.139,0.295,0.269,0.557,0.387,0.768
				c0.234,0.422,0.405,0.647,0.408,0.593c0.073-1.115,0.571-2.035,1.146-2.901c0.577-0.868,1.252-1.696,1.687-2.66
				c0.181-0.408,0.279-0.838,0.313-1.277c0.029-0.438,0.004-0.892-0.088-1.33c-0.089-0.441-0.223-0.88-0.39-1.302
				c-0.166-0.424-0.375-0.822-0.585-1.197c-0.106-0.188-0.219-0.369-0.325-0.542c-0.108-0.173-0.226-0.333-0.333-0.486
				c-0.223-0.305-0.436-0.573-0.619-0.792c-0.185-0.221-0.346-0.389-0.46-0.5c-0.11-0.114-0.177-0.168-0.177-0.157
				c0.009,0.673-0.083,1.218-0.226,1.693c-0.137,0.474-0.326,0.876-0.53,1.272c-0.208,0.396-0.427,0.781-0.64,1.225
				C137.884,25.686,137.685,26.179,137.526,26.783z"/>
			<path fill="#D1AE85" d="M132.449,30.468c0.878,0.003,1.696,0.283,2.441,0.69c0.374,0.202,0.714,0.448,1.034,0.704
				c0.32,0.256,0.618,0.528,0.875,0.805c0.26,0.275,0.491,0.548,0.691,0.8c0.196,0.255,0.352,0.495,0.481,0.695
				c0.254,0.402,0.364,0.657,0.317,0.634c-1.018-0.467-2.023-0.443-3.048-0.28c-1.021,0.159-2.035,0.441-3.034,0.506
				c-0.432,0.031-0.838-0.008-1.218-0.097c-0.381-0.088-0.729-0.235-1.068-0.404c-0.337-0.171-0.65-0.377-0.933-0.604
				c-0.285-0.225-0.556-0.461-0.793-0.705c-0.117-0.121-0.228-0.243-0.333-0.364c-0.107-0.121-0.209-0.237-0.305-0.352
				c-0.184-0.227-0.346-0.443-0.472-0.629c-0.124-0.188-0.222-0.34-0.288-0.448c-0.064-0.108-0.092-0.17-0.08-0.168
				c0.59,0.061,1.088,0.053,1.548-0.003c0.459-0.057,0.878-0.162,1.296-0.278c0.419-0.116,0.844-0.246,1.308-0.343
				C131.335,30.532,131.847,30.463,132.449,30.468z"/>
		</g>
		<g>
			<path fill="#D1AE85" d="M130.689,18.709c-0.188,1.79,0.552,3.58,1.322,4.92c0.189,0.339,0.381,0.648,0.564,0.918
				c0.092,0.136,0.181,0.263,0.269,0.378c0.083,0.118,0.159,0.226,0.231,0.321c0.295,0.384,0.495,0.583,0.491,0.528
				c-0.044-0.559,0.022-1.083,0.156-1.587c0.127-0.499,0.323-0.978,0.546-1.451c0.44-0.945,0.995-1.871,1.271-2.88
				c0.484-1.73-0.42-3.591-1.49-4.943c-0.264-0.343-0.55-0.644-0.809-0.915c-0.264-0.27-0.512-0.506-0.727-0.694
				c-0.438-0.374-0.732-0.576-0.729-0.554c0.209,1.333-0.019,2.201-0.311,3.045C131.181,16.642,130.835,17.46,130.689,18.709z"/>
			<path fill="#D1AE85" d="M126.218,23.105c1.734-0.252,3.428,0.603,4.634,1.529c0.294,0.235,0.561,0.471,0.795,0.693
				c0.117,0.111,0.226,0.217,0.323,0.32c0.099,0.103,0.184,0.202,0.261,0.292c0.308,0.36,0.453,0.598,0.402,0.582
				c-0.532-0.157-1.05-0.192-1.554-0.149c-0.511,0.046-1.006,0.17-1.5,0.323c-0.983,0.311-1.938,0.733-2.924,0.953
				c-0.844,0.189-1.62,0.081-2.341-0.156c-0.354-0.119-0.688-0.284-1.008-0.459c-0.319-0.177-0.618-0.375-0.888-0.581
				c-0.264-0.209-0.521-0.411-0.735-0.612c-0.219-0.198-0.406-0.392-0.559-0.555c-0.313-0.324-0.479-0.553-0.463-0.553
				c0.59-0.021,1.095-0.113,1.534-0.235c0.448-0.124,0.844-0.287,1.243-0.465C124.229,23.684,125.028,23.27,126.218,23.105z"/>
		</g>
		<g>
			<path fill="#D1AE85" d="M122.736,11.735c0.066,1.81,1.081,3.451,2.032,4.674c0.244,0.299,0.473,0.584,0.697,0.825
				c0.219,0.242,0.425,0.449,0.604,0.614c0.345,0.337,0.57,0.506,0.558,0.452c-0.124-0.549-0.133-1.08-0.082-1.59
				c0.054-0.514,0.177-1.018,0.326-1.52c0.301-1.006,0.7-1.99,0.831-3.035c0.054-0.446,0.028-0.887-0.073-1.319
				c-0.099-0.426-0.264-0.842-0.473-1.241c-0.107-0.199-0.225-0.395-0.349-0.585c-0.127-0.188-0.263-0.368-0.406-0.545
				c-0.288-0.351-0.593-0.683-0.906-0.978c-0.638-0.583-1.269-1.062-1.758-1.362c-0.487-0.306-0.808-0.464-0.805-0.443
				c0.402,1.296,0.313,2.175,0.146,3.058C122.913,9.621,122.686,10.488,122.736,11.735z"/>
			<path fill="#D1AE85" d="M118.962,16.747c1.675-0.496,3.488,0.08,4.805,0.828c0.336,0.18,0.628,0.383,0.894,0.567
				c0.264,0.186,0.489,0.363,0.67,0.516c0.354,0.314,0.539,0.526,0.485,0.519c-0.549-0.08-1.063-0.037-1.563,0.084
				c-0.494,0.121-0.971,0.316-1.431,0.54c-0.923,0.445-1.813,1.017-2.756,1.378c-0.399,0.153-0.799,0.233-1.186,0.256
				c-0.393,0.029-0.776,0.001-1.148-0.067c-0.184-0.035-0.364-0.078-0.542-0.132c-0.177-0.05-0.354-0.107-0.526-0.171
				c-0.339-0.128-0.659-0.286-0.957-0.447c-0.605-0.313-1.101-0.687-1.459-0.957c-0.355-0.277-0.552-0.479-0.533-0.482
				c1.158-0.214,1.909-0.64,2.639-1.104C117.085,17.614,117.809,17.093,118.962,16.747z"/>
		</g>
		<g>
			<path fill="#D1AE85" d="M113.832,6.021c0.086,0.441,0.222,0.874,0.405,1.277c0.181,0.406,0.409,0.781,0.653,1.148
				c0.244,0.366,0.517,0.707,0.8,1.02c0.278,0.313,0.564,0.614,0.846,0.876c0.571,0.522,1.098,0.958,1.497,1.232
				c0.399,0.273,0.644,0.413,0.622,0.36c-0.099-0.264-0.172-0.525-0.226-0.782c-0.051-0.259-0.082-0.518-0.092-0.777
				c-0.021-0.517,0.025-1.034,0.098-1.555c0.146-1.034,0.397-2.067,0.372-3.123c-0.02-0.905-0.388-1.721-0.923-2.453
				c-0.267-0.368-0.584-0.694-0.916-1.004c-0.334-0.307-0.686-0.59-1.045-0.83c-0.354-0.243-0.709-0.458-1.039-0.643
				c-0.33-0.182-0.641-0.326-0.904-0.443c-0.522-0.232-0.865-0.342-0.855-0.322c0.586,1.227,0.631,2.11,0.602,3.003
				C113.692,3.9,113.594,4.799,113.832,6.021z"/>
			<path fill="#D1AE85" d="M110.848,11.539c0.396-0.187,0.809-0.302,1.23-0.371c0.415-0.065,0.851-0.092,1.269-0.059
				c0.419,0.028,0.837,0.094,1.236,0.185c0.403,0.091,0.78,0.219,1.136,0.35c0.713,0.26,1.3,0.593,1.706,0.84
				c0.406,0.249,0.608,0.439,0.558,0.436c-0.276,0-0.542,0.032-0.796,0.089c-0.257,0.056-0.501,0.135-0.735,0.23
				c-0.473,0.192-0.913,0.453-1.336,0.743c-0.85,0.582-1.645,1.283-2.52,1.773c-0.742,0.415-1.529,0.564-2.278,0.534
				c-0.37-0.017-0.748-0.059-1.1-0.138c-0.354-0.078-0.694-0.187-1.019-0.297c-0.319-0.113-0.618-0.241-0.881-0.371
				c-0.267-0.126-0.504-0.247-0.7-0.359c-0.391-0.221-0.616-0.394-0.597-0.399c1.109-0.381,1.788-0.913,2.441-1.485
				C109.119,12.674,109.754,12.058,110.848,11.539z"/>
		</g>
	</g>
</g>
<path fill="#D1AE85" d="M30.342,122.598c1.771-0.32,3.611,0.284,5.006,0.95c1.396,0.665,2.367,1.39,2.256,1.396
	c-0.561-0.003-1.078,0.1-1.57,0.27c-0.492,0.171-0.951,0.398-1.408,0.654c-0.909,0.509-1.789,1.127-2.777,1.481
	c-1.685,0.609-3.618-0.148-5.039-1.123c-0.36-0.236-0.686-0.494-0.974-0.734c-0.289-0.245-0.54-0.474-0.746-0.674
	c-0.406-0.406-0.627-0.689-0.606-0.687c0.674,0.056,1.219,0.013,1.705-0.095c0.482-0.104,0.899-0.264,1.309-0.439
	c0.41-0.176,0.813-0.369,1.268-0.543C29.219,122.877,29.73,122.711,30.342,122.598z"/>
<path fill="#D1AE85" d="M126.221,122.523c-1.77-0.322-3.608,0.284-5.007,0.95c-1.392,0.666-2.362,1.392-2.252,1.396
	c0.563-0.002,1.079,0.101,1.57,0.272c0.491,0.169,0.951,0.396,1.405,0.653c0.913,0.509,1.791,1.129,2.777,1.481
	c1.687,0.609,3.618-0.146,5.039-1.123c0.36-0.236,0.688-0.492,0.977-0.736c0.288-0.242,0.542-0.472,0.745-0.672
	c0.405-0.405,0.625-0.689,0.605-0.686c-0.672,0.055-1.218,0.011-1.706-0.095c-0.481-0.104-0.897-0.263-1.31-0.439
	c-0.406-0.175-0.813-0.369-1.263-0.545C127.347,122.804,126.836,122.639,126.221,122.523z"/>
<g>
	<path fill="#D1AE85" d="M35.28,69.375h-0.955v-6.823h-0.023l-1.442,1.217l-0.57-0.694l2.161-1.751h0.83V69.375z"/>
	<path fill="#D1AE85" d="M43.781,66.021l-0.022-0.023c-0.296,0.17-0.75,0.239-1.08,0.239c-1.399,0-2.434-1.023-2.434-2.524
		c0-1.57,1.17-2.525,2.695-2.525c1.523,0,2.694,0.955,2.694,2.525c0,0.932-0.33,1.568-0.762,2.262l-2.138,3.4h-1.114L43.781,66.021z
		 M44.68,63.712c0-1.046-0.773-1.707-1.739-1.707c-0.967,0-1.74,0.66-1.74,1.707c0,1.045,0.773,1.705,1.74,1.705
		C43.906,65.417,44.68,64.757,44.68,63.712z"/>
</g>
<g>
	<g>
		<path fill="#D1AE85" d="M118.707,60.743c1.297,0,2.298,0.842,2.298,2.104c0,0.762-0.5,1.558-1.319,1.774v0.022
			c0.966,0.205,1.592,1.058,1.592,2.07c0,1.467-1.137,2.354-2.57,2.354s-2.568-0.887-2.568-2.354c0-1.012,0.624-1.865,1.592-2.07
			v-0.022c-0.819-0.216-1.319-1.012-1.319-1.774C116.411,61.584,117.41,60.743,118.707,60.743z M118.707,68.248
			c0.898,0,1.614-0.66,1.614-1.603c0-0.944-0.716-1.604-1.614-1.604c-0.897,0-1.613,0.66-1.613,1.604
			C117.094,67.588,117.81,68.248,118.707,68.248z M118.707,64.223c0.796,0,1.342-0.569,1.342-1.332c0-0.761-0.546-1.33-1.342-1.33
			c-0.795,0-1.341,0.568-1.341,1.33C117.366,63.654,117.912,64.223,118.707,64.223z"/>
		<path fill="#D1AE85" d="M128.902,66.202h1.16v0.886h-1.16v1.842h-0.954v-1.842h-3.413V66.03l3.196-5.15h1.171V66.202z
			 M127.948,61.994h-0.022l-2.57,4.208h2.593V61.994z"/>
	</g>
</g>
<g>
	<path fill="#D1AE85" d="M46.222,102.468L42.77,97.21h2.051l2.258,3.663l2.285-3.663h1.948l-3.453,5.258v3.936h-1.637V102.468z"/>
	<path fill="#D1AE85" d="M59.952,97.21h6.088v1.481h-4.452v2.259h4.219v1.48h-4.219v2.492h4.686v1.481h-6.321V97.21z"/>
	<path fill="#D1AE85" d="M78.653,97.21h1.414l3.961,9.194h-1.87l-0.856-2.104h-3.985l-0.83,2.104h-1.83L78.653,97.21z
		 M80.731,102.897l-1.415-3.738l-1.441,3.738H80.731z"/>
	<path fill="#D1AE85" d="M92.851,97.21h3.192c1.768,0,3.429,0.573,3.429,2.637c0,1.324-0.766,2.298-2.129,2.493l2.44,4.064h-1.973
		l-2.13-3.894h-1.193v3.894h-1.637V97.21z M95.758,101.106c0.924,0,2-0.077,2-1.272c0-1.089-1.014-1.22-1.856-1.22h-1.414v2.492
		H95.758z"/>
	<path fill="#D1AE85" d="M113.332,99.186c-0.35-0.495-0.974-0.729-1.611-0.729c-0.751,0-1.504,0.339-1.504,1.183
		c0,1.842,4.361,0.792,4.361,4.062c0,1.974-1.557,2.935-3.361,2.935c-1.143,0-2.26-0.35-3.012-1.246l1.233-1.193
		c0.402,0.608,1.091,0.96,1.817,0.96c0.751,0,1.608-0.415,1.608-1.259c0-2.014-4.361-0.858-4.361-4.142
		c0-1.896,1.687-2.778,3.389-2.778c0.96,0,1.921,0.272,2.635,0.947L113.332,99.186z"/>
</g>
</svg>
