<?xml version="1.0" encoding="utf-8"?>
<!-- Generator: Adobe Illustrator 16.0.3, SVG Export Plug-In . SVG Version: 6.00 Build 0)  -->
<!DOCTYPE svg PUBLIC "-//W3C//DTD SVG 1.1//EN" "http://www.w3.org/Graphics/SVG/1.1/DTD/svg11.dtd">
<svg version="1.1" id="Layer_1" xmlns="http://www.w3.org/2000/svg" xmlns:xlink="http://www.w3.org/1999/xlink" x="0px" y="0px"
	 width="24px" height="24px" viewBox="0 0 24 24" enable-background="new 0 0 24 24" xml:space="preserve">
<path fill="#53B8CB" d="M18.6,6.62c-1.439,0-2.8,0.56-3.77,1.53L7.8,14.391c-0.64,0.639-1.49,0.989-2.4,0.989
	C3.53,15.38,2,13.87,2,12s1.53-3.38,3.4-3.38c0.91,0,1.76,0.35,2.44,1.03l1.13,1l1.53-1.34L9.22,8.2C8.2,7.18,6.84,6.62,5.4,6.62
	C2.42,6.62,0,9.04,0,12s2.42,5.38,5.4,5.38c1.44,0,2.8-0.56,3.77-1.53l7.03-6.24c0.64-0.64,1.489-0.99,2.399-0.99
	c1.871,0,3.4,1.51,3.4,3.38s-1.529,3.38-3.4,3.38c-0.899,0-1.76-0.351-2.439-1.03L15,13.34l-1.5,1.34l1.279,1.12
	c1.021,1.011,2.371,1.57,3.82,1.57c2.98,0,5.4-2.41,5.4-5.37C24,9,21.58,6.62,18.6,6.62z"/>
</svg>
