<?xml version="1.0" encoding="utf-8"?>
<!-- Generator: Adobe Illustrator 16.0.3, SVG Export Plug-In . SVG Version: 6.00 Build 0)  -->
<!DOCTYPE svg PUBLIC "-//W3C//DTD SVG 1.1//EN" "http://www.w3.org/Graphics/SVG/1.1/DTD/svg11.dtd">
<svg version="1.1" id="Layer_1" xmlns="http://www.w3.org/2000/svg" xmlns:xlink="http://www.w3.org/1999/xlink" x="0px" y="0px"
	 width="381.584px" height="256px" viewBox="-151.292 -101.5 381.584 256" enable-background="new -151.292 -101.5 381.584 256"
	 xml:space="preserve">
<g>
	<defs>
		<rect id="SVGID_1_" x="-151.292" y="-101.5" width="381.584" height="256"/>
	</defs>
	<clipPath id="SVGID_2_">
		<use xlink:href="#SVGID_1_"  overflow="visible"/>
	</clipPath>
	<g clip-path="url(#SVGID_2_)">
		<path fill="#FFFFFF" d="M-49.587,18.302c-0.842-0.592-1.648-1.165-2.453-1.752c0.611-1.2,1.313-2.318,1.79-3.523
			c2.755-7.13,1.665-13.686-3.443-19.281c-1.979-2.167-4.58-3.794-6.948-5.589c-3.507-2.646-7.073-5.222-10.615-7.83
			c-3.51-2.566-7.024-5.111-10.514-7.684c-2.788-2.052-5.651-4.026-8.021-6.621c-4.193-4.611-6.981-9.959-8.104-16.118
			c-0.46-2.526-0.738-5.125-0.67-7.687c0.21-7.016,2.563-13.335,6.686-19.004c4.929-6.809,9.809-13.67,14.706-20.51
			c0.861-1.226,1.754-2.446,2.615-3.672c0.389-0.55,0.776-0.748,1.349-0.238c0.547,0.472,1.158,0.873,1.564,1.179
			c-0.505,1.547-1.172,2.962-1.439,4.441c-0.733,4.246,0.776,7.687,4.167,10.229c4.769,3.597,9.611,7.127,14.438,10.672
			c4.616,3.392,9.286,6.741,13.863,10.175C-37.354-62.09-34-59.75-31-57.04c5.375,4.807,8.531,10.986,9.83,18.08
			c1.507,8.361,0.087,16.267-4.368,23.493c-1.88,3.063-4.111,5.917-6.193,8.847c-2.672,3.736-5.356,7.446-8.024,11.179
			c-3.174,4.427-6.316,8.868-9.479,13.309C-49.34,18.002-49.446,18.125-49.587,18.302z"/>
		<path fill="#FFFFFF" d="M-73.578,51.132c-1.09-0.802-2.139-1.542-3.087-2.235c0.313-1.048,0.736-1.995,0.818-2.967
			c0.229-2.345-0.79-4.156-2.67-5.543c-6.455-4.727-12.896-9.467-19.358-14.224c-1.842-1.373-3.755-2.703-5.438-4.259
			c-3.3-3.054-5.496-6.795-6.493-11.271c-0.458-1.993-0.684-3.953-0.646-5.972c0.068-4.637,1.488-8.83,4.106-12.589
			c2.719-3.92,5.563-7.757,8.34-11.637c1.294-1.776,2.559-3.573,3.877-5.437c1.071,0.781,2.123,1.545,3.142,2.283
			c-0.262,0.861-0.616,1.653-0.776,2.483c-0.42,2.467,0.495,4.401,2.443,5.849c4.439,3.304,8.917,6.573,13.392,9.852
			c3.229,2.401,6.559,4.705,9.738,7.195c6.229,4.896,9.21,11.382,8.948,19.389c-0.174,4.887-1.948,9.149-4.792,13.045
			c-2.738,3.726-5.406,7.528-8.106,11.302C-71.262,47.953-72.387,49.51-73.578,51.132z"/>
		<path fill="#FFFFFF" d="M-60.292,121.84c0.929,0.443,1.88,0.868,2.79,1.349c4.038,2.043,6.776,5.16,7.46,9.773
			c0.703,4.727,0.033,9.151-3.302,12.812c-2.281,2.523-5.229,3.93-8.441,4.802c-2.769,0.727-5.585,1.062-8.46,1.062
			c-8.831-0.019-17.651-0.019-26.486,0.023c-0.863,0-1.071-0.255-1.071-1.104c0.019-18.184,0.019-36.377,0.019-54.557
			c0-0.283-0.092-0.604,0.014-0.835c0.106-0.25,0.354-0.552,0.597-0.59c0.528-0.08,1.09-0.033,1.649-0.033
			c7.934,0,15.887,0,23.816,0c3.179,0,6.326,0.335,9.288,1.51c4.828,1.906,8.269,5.156,9.198,10.505
			c0.79,4.552,0.014,8.792-3.335,12.207C-57.665,119.882-58.998,120.792-60.292,121.84z M-85.759,127.972c0,0.392,0,0.675,0,0.938
			c0,3.608,0,7.203,0,10.788c0,1.16-0.281,1.17,1.158,1.17c4.387,0.028,8.774,0.062,13.142-0.028
			c1.703-0.043,3.422-0.255,5.076-0.646c2.597-0.618,4.177-2.538,4.382-4.972c0.262-3.005-0.79-5.142-3.509-6.184
			c-1.576-0.618-3.368-0.943-5.073-1.015c-4.068-0.142-8.158-0.052-12.233-0.052C-83.743,127.972-84.672,127.972-85.759,127.972z
			 M-85.741,117.604c4.703,0,9.297,0.062,13.901-0.033c1.528-0.032,2.967-0.552,4.319-1.354c3.209-1.877,3.262-7.712-0.158-9.575
			c-1.562-0.858-3.229-1.227-4.951-1.245c-4.25-0.048-8.495-0.015-12.726-0.015c-0.125,0-0.267,0.033-0.387,0.052
			C-85.741,109.523-85.741,113.562-85.741,117.604z"/>
		<path fill="#FFFFFF" d="M-6.833,121.807c0.387,0.175,0.648,0.297,0.915,0.401c2.948,1.302,5.688,2.915,7.547,5.707
			c1.294,1.953,1.943,4.137,2.068,6.481c0.142,2.485,0.019,4.943-0.911,7.292c-1.458,3.66-4.144,6.108-7.634,7.68
			c-3.688,1.646-7.585,2.25-11.587,2.25c-8.917,0.019-17.813,0-26.731,0.042c-0.736,0-1.017-0.184-1.017-1
			c0.033-18.424,0.033-36.877,0.014-55.32c0-0.651,0.229-0.798,0.809-0.798c8.948,0,17.882-0.07,26.813,0.033
			c4.076,0.057,7.991,1,11.394,3.415c3.634,2.595,5.563,6.113,5.719,10.661c0.179,4.585-1.227,8.438-4.842,11.335
			C-5.045,120.599-5.884,121.132-6.833,121.807z M-23.981,127.986c0-0.015,0-0.015,0-0.015c-2.42,0-4.828,0.033-7.246-0.019
			c-0.863-0.02-1.071,0.283-1.057,1.117c0.033,3.538,0.019,7.071,0.019,10.609c0,1.179,0.014,1.188,1.139,1.188
			c4.547,0,9.111,0.037,13.653-0.01c1.896-0.019,3.813-0.179,5.604-0.962c2.335-1.02,3.437-2.858,3.507-5.35
			c0.054-2.547-1.071-4.405-3.37-5.49c-1.651-0.788-3.403-1.038-5.177-1.07C-19.257,127.953-21.625,127.986-23.981,127.986z
			 M-25.019,105.387c-2.104,0-4.21,0.033-6.316-0.019c-0.755-0.02-0.948,0.245-0.948,0.962c0.033,3.415,0.019,6.802,0.019,10.188
			c0,1.175,0,1.218,1.174,1.218c4.161-0.02,8.316,0.052,12.477-0.142c1.458-0.081,2.988-0.604,4.356-1.231
			c1.979-0.92,2.738-2.769,2.738-4.901c0-2.113-0.847-3.802-2.724-4.872c-1.493-0.85-3.123-1.156-4.79-1.203
			C-21.031,105.33-23.017,105.387-25.019,105.387z"/>
		<path fill="#FFFFFF" d="M-113.995,121.788c0.983,0.457,1.807,0.815,2.615,1.222c3.474,1.754,6.281,4.207,7.335,8.142
			c1.229,4.528,0.965,8.972-1.618,13.023c-1.998,3.127-5.052,4.867-8.456,6.005c-3.405,1.141-6.919,1.48-10.462,1.462
			c-8.566-0.019-17.097-0.019-25.661,0.019c-0.877,0-1.052-0.302-1.052-1.118c0.033-18.344,0.033-36.702,0-55.037
			c0-0.717,0.174-0.977,0.932-0.977c8.743,0.033,17.481-0.019,26.219,0.033c3.951,0.037,7.776,0.82,11.179,3.005
			c4.108,2.632,6.286,6.396,6.406,11.387c0.123,5.387-2.092,9.387-6.547,12.227C-113.347,121.34-113.597,121.519-113.995,121.788z
			 M-131.125,127.986c-2.477,0-4.934,0-7.41-0.015c-0.611,0-0.892,0.123-0.877,0.84c0.035,3.778,0.017,7.565,0.017,11.368
			c-0.017,0.5,0.125,0.693,0.632,0.693c4.722-0.015,9.443,0.07,14.148-0.033c1.755-0.057,3.524-0.358,5.227-0.821
			c2.352-0.642,3.687-2.575,3.828-5.311c0.142-2.331-0.752-4.359-3.019-5.51c-1.684-0.854-3.477-1.142-5.302-1.198
			C-126.297,127.934-128.722,127.986-131.125,127.986z M-139.358,117.755c3.648,0,7.196,0.037,10.743-0.019
			c2.139-0.02,4.281-0.071,6.297-0.888c2.339-0.924,3.67-2.773,3.634-5.297c-0.033-2.358-0.804-4.278-3.436-5.278
			c-1.34-0.495-2.792-0.812-4.215-0.854c-4.038-0.104-8.071-0.019-12.127-0.071c-0.719,0-0.962,0.218-0.95,0.963
			c0.035,3.59,0.017,7.175,0.017,10.769C-139.394,117.302-139.358,117.519-139.358,117.755z"/>
		<path fill="#FFFFFF" d="M-125.281,68.57c0.951-3.127,1.861-6.15,2.769-9.184c0-0.062,0.038-0.113,0.038-0.17
			c0.703-2.222,0.703-2.222,2.986-2.08c0.597,0.043,1.156,0.062,1.75,0.062c30.153,0,60.29,0.01,90.441-0.019
			c0.896,0,1.387,0.179,1.649,1.132c0.95,3.396,1.986,6.759,3.017,10.235c-0.349,0.038-0.651,0.057-0.932,0.057
			c-7.916,0.02-15.831,0.02-23.729-0.019c-0.698,0-0.946,0.245-1.139,0.887c-1.401,4.712-2.861,9.41-4.248,14.146
			c-0.227,0.764-0.58,1.033-1.389,1.033c-13.271-0.033-26.533-0.033-39.8,0c-0.809,0-1.104-0.283-1.32-1.02
			c-1.42-4.778-2.892-9.537-4.335-14.32c-0.139-0.52-0.349-0.727-0.962-0.708c-8.09,0.01-16.165,0.01-24.236,0
			C-124.863,68.604-125.002,68.585-125.281,68.57z"/>
		<path fill="#FFFFFF" d="M11.208,154.5c-2.627,0-4.79-2.165-4.79-4.849c0-2.685,2.163-4.859,4.79-4.859
			c2.653,0,4.797,2.17,4.797,4.859C16,152.335,13.858,154.5,11.208,154.5z M11.208,145.32c-2.347,0-4.267,1.953-4.267,4.331
			c0,2.382,1.915,4.32,4.267,4.32c2.37,0,4.283-1.938,4.283-4.32C15.491,147.273,13.578,145.32,11.208,145.32z"/>
		<path fill="#FFFFFF" d="M9.908,147.481c0.28-0.071,0.698-0.104,1.106-0.104c0.599,0,0.998,0.123,1.283,0.368
			c0.226,0.203,0.349,0.519,0.349,0.858c0,0.604-0.368,0.995-0.842,1.156v0.019c0.352,0.123,0.542,0.443,0.651,0.91
			c0.158,0.613,0.26,1.057,0.347,1.217h-0.597c-0.071-0.122-0.174-0.509-0.295-1.057c-0.123-0.627-0.37-0.858-0.896-0.877h-0.526
			v1.934H9.913v-4.424H9.908z M10.488,149.519h0.578c0.616,0,1-0.33,1-0.849c0-0.585-0.422-0.84-1.019-0.85
			c-0.281,0-0.474,0.028-0.562,0.071v1.627H10.488z"/>
		<path fill="none" stroke="#FFFFFF" stroke-miterlimit="10" d="M47.528-100.674v253.797"/>
		<path fill="#FFFFFF" d="M126.887-14.938h21.434l42.693,112.4h-21.957l-8.688-23.15h-45.302l-9.028,23.15H84.075L126.887-14.938z
			 M137.731,14.863l-14.892,38.58h29.698L137.731,14.863z"/>
		<path fill="#FFFFFF" d="M198.651,2.531v-19.26h12.674v19.26h18.967v12.833h-18.967v19.198h-12.674V15.363H179.68V2.531H198.651z"
			/>
	</g>
</g>
</svg>
