<svg width="80" height="80" viewBox="0 0 80 80" fill="none" xmlns="http://www.w3.org/2000/svg">
<g clip-path="url(#clip0_3758_133)">
<path d="M71.2 18.5789H59.5V10.7895C59.5 6.49358 56.0017 3 51.7 3H28.3C23.9983 3 20.5 6.49358 20.5 10.7895V18.5789H8.8C4.4983 18.5789 1 22.0725 1 26.3684V69.2105C1 73.5064 4.4983 77 8.8 77H71.2C75.5017 77 79 73.5064 79 69.2105V26.3684C79 22.0725 75.5017 18.5789 71.2 18.5789ZM51.7 10.7895V18.5789H28.3V10.7895H51.7ZM71.2 26.3684V38.0526H8.8V26.3684H71.2ZM8.8 69.2105V45.8421H32.2V53.6316H47.8V45.8421H71.2L71.2039 69.2105H8.8Z" fill="#E1BC94"/>
</g>
<defs>
<clipPath id="clip0_3758_133">
<rect width="80" height="80" fill="white"/>
</clipPath>
</defs>
</svg>
