<?xml version="1.0" encoding="utf-8"?>
<!-- Generator: Adobe Illustrator 16.0.3, SVG Export Plug-In . SVG Version: 6.00 Build 0)  -->
<!DOCTYPE svg PUBLIC "-//W3C//DTD SVG 1.1//EN" "http://www.w3.org/Graphics/SVG/1.1/DTD/svg11.dtd">
<svg xmlns="http://www.w3.org/2000/svg" xmlns:xlink="http://www.w3.org/1999/xlink" version="1.1" id="Layer_1" x="0px" y="0px" width="21.03px" height="21.02px" viewBox="0 0 21.03 21.02" xml:space="preserve">
<g>
	<path fill="#57C3D7" d="M9.38,16.07c-0.51,0.08-1.02,0.23-1.5,0.42c1.73,0.69,3.56,0.68,5.29,0C11.94,16,10.65,15.86,9.38,16.07z"/>
	<path fill="#57C3D7" d="M1.07,17.76c-0.11,0.2-0.2,0.4-0.3,0.61c-0.14,0.31-0.26,0.63-0.37,0.97C0.3,19.67,0.21,20,0.13,20.33   c-0.05,0.23-0.1,0.46-0.13,0.69h3.04c0.02-0.12,0.05-0.23,0.08-0.35c0.06-0.21,0.13-0.43,0.2-0.64c0.02-0.04,0.03-0.09,0.05-0.13   C2.57,19.29,1.7,18.57,1.07,17.76z"/>
	<path fill="#57C3D7" d="M13.63,12.62c-0.11-0.04-0.23-0.07-0.34-0.1l-1.3-1.57c0,0,0,0,0,0c-0.03-0.03-0.05-0.06-0.06-0.08   c-0.02-0.02-0.04-0.05-0.08-0.08v0l0,0c-0.14-0.13-0.4-0.3-0.51-0.55c-0.14-0.31-0.56-1.08-0.71-1.22   c-0.16-0.14-0.95-0.94-0.95-0.94S9.63,8.02,9.59,7.85c-0.07-0.29-0.45-1.21-0.56-0.7S8.81,7.75,8.57,7.79   C8.32,7.82,8.01,8.14,8.01,8.14s0,0-0.08,0.19C7.85,8.51,7.64,8.61,7.59,8.75C7.54,8.89,7.64,9.06,7.67,9.13   C7.7,9.21,7.73,9.54,7.81,9.6c0.08,0.06,0.54,0.03,0.81,0c0.26-0.03,0.53,0.17,0.56,0.31c0.03,0.12-0.19,0.69-0.3,1.06   c0,0,0.01,0,0.01,0C8.8,11.15,8.69,11.56,9,12.25c0,0,0,0,0,0c-0.09,0.01-0.18,0.03-0.27,0.04c-1.32,0.23-2.59,0.71-3.72,1.41   c0.5,0.87,1.2,1.6,2.02,2.13c0.77-0.4,1.62-0.66,2.49-0.78c0.82-0.11,1.67-0.08,2.51,0.09c0.36,0.07,0.71,0.17,1.05,0.29   c1.51,0.54,2.76,1.51,3.65,2.74c0.3,0.42,0.56,0.88,0.77,1.35c0.21,0.47,0.38,0.97,0.49,1.48h2.9c-0.2-1.28-0.64-2.51-1.28-3.62   C18.34,15.18,16.25,13.43,13.63,12.62z"/>
	<path fill="#57C3D7" d="M20.67,7.79c-0.75-2.8-2.57-5.04-4.9-6.38c-2.33-1.34-5.17-1.8-7.97-1.05C5.18,1.06,3.05,2.7,1.69,4.82   c-0.16,0.25-0.31,0.5-0.45,0.76c-1.2,2.26-1.58,4.97-0.87,7.65c0.75,2.8,2.57,5.04,4.9,6.38c2.33,1.34,5.17,1.8,7.97,1.05   c0.59-0.16,1.16-0.37,1.7-0.61c0.38-0.17,0.74-0.37,1.09-0.58c-0.49-0.85-1.18-1.58-2.02-2.13c-0.18,0.09-0.37,0.18-0.56,0.26   c-0.21,0.09-0.42,0.16-0.63,0.23c-0.23,0.07-0.46,0.13-0.69,0.18c-1.72,0.37-3.45,0.13-4.94-0.59c-0.29-0.14-0.57-0.3-0.84-0.48   c-1.46-0.95-2.6-2.39-3.15-4.17c-0.08-0.25-0.14-0.5-0.19-0.76c-0.37-1.88-0.02-3.75,0.88-5.31c0.81-1.4,2.15-2.6,3.71-3.27   c-0.35,0.6,0.15,1.1,0.37,1.26c-1.28,0.56-2.3,1.5-2.97,2.65c-0.79,1.37-1.08,3.04-0.67,4.69c0.02,0.07,0.03,0.13,0.05,0.2   c0.03,0.1,0.06,0.21,0.09,0.31c0.64-0.38,1.32-0.71,2.03-0.96c0.03-0.22,0.05-0.4,0.07-0.47c0.08-0.27,0.18-0.85,0.12-1.54   c-0.06-0.69,0-0.62,0.07-0.97c0.05-0.25,0.66-1.07,0.94-1.45c0.27-0.36,0.06-1.48,0.13-1.66C7.91,5.34,8,5.13,8.24,5.02   C8.5,5.45,8.98,5.85,9.19,6.08c0,0,1.08,0.95,1.48-0.04c0,0,0.24-0.5,0.26-1.9c0,0-0.01-0.35,0.05-0.58c0,0,0.37-0.34,0.36-0.64   c0.26,0.02,0.32,0.02,0.63,0.15c0.33,0.19,0.64,0.38,1.08,0.87c0.04,0.37,0.22,0.62,0.92,0.98c0.7,0.36,1.11,0.49,1.24,0.63   c0.13,0.13,0.03,0.55,0,0.69c-0.03,0.13-0.21,0.16-0.21,0.16S15,6.61,14.87,6.85c-0.13,0.24-0.51,0.18-0.58,0.21   c-0.22,0.18-0.34,0.12-0.51,0.25c-0.17,0.13-0.3,0.16-0.46,0.14c-0.17-0.02-0.29,0.01-0.29,0.01s-0.24,0.09-0.44,0.09   s-0.37-0.08-0.5-0.1c-0.13-0.02-0.1,0.28-0.1,0.34c0,0.06,0.39,0.46,0.39,1.02c0.01,0.55,0.06,1.46,0.21,1.91   c0.03,0.09,0.07,0.21,0.12,0.34c0.2,0.04,0.39,0.08,0.59,0.13c0.25,0.06,0.51,0.13,0.76,0.21c0.9,0.28,1.74,0.66,2.52,1.12   c0.16-0.46,0.26-0.95,0.3-1.45c0.06-0.72,0-1.47-0.19-2.21c-0.21-0.78-0.54-1.52-1.09-2.18c0.54-1.07-0.13-1.46-0.13-1.46   c-0.54-0.19-1.5-0.75-1.58-0.94c-0.23-0.5-0.57-0.77-0.81-1c0.45,0.16,0.89,0.36,1.3,0.6c1.7,0.98,3.02,2.61,3.57,4.65   c0.24,0.89,0.31,1.79,0.23,2.65c-0.06,0.72-0.23,1.42-0.49,2.08c0.81,0.62,1.54,1.34,2.16,2.13c0.53-1.01,0.9-2.11,1.08-3.25   C21.13,10.74,21.06,9.26,20.67,7.79z M10.81,2.91c0.31,0.05-0.13,0.48-0.21,0.56c-0.08,0.08,0.01,0.87-0.01,1.29   c-0.02,0.42-0.22,1.04-0.63,1.17C9.53,6.05,9.18,5.49,9.03,5.33C9,5.29,8.94,5.23,8.89,5.15l0,0l0,0C8.74,4.96,8.55,4.7,8.38,4.51   C8.33,4.45,8.28,4.4,8.24,4.36C8,4.14,7.98,3.7,8.15,3.55c0.12-0.11,0.29-0.28,1-0.56C9.15,3,9.88,2.75,10.81,2.91z M10.65,5.15   L10.65,5.15L10.65,5.15L10.65,5.15z M10.83,3.36C10.83,3.36,10.83,3.36,10.83,3.36L10.83,3.36L10.83,3.36z"/>
</g>
</svg>
