<svg width="80" height="80" viewBox="0 0 80 80" fill="none" xmlns="http://www.w3.org/2000/svg">
<g clip-path="url(#clip0_3769_120)">
<path d="M72 19.7778H60V11.8889C60 7.53817 56.412 4 52 4H28C23.588 4 20 7.53817 20 11.8889V19.7778H8C3.588 19.7778 0 23.3159 0 27.6667V67.1111C0 71.4618 3.588 75 8 75H72C76.412 75 80 71.4618 80 67.1111V27.6667C80 23.3159 76.412 19.7778 72 19.7778ZM28 11.8889H52V19.7778H28V11.8889ZM8 67.1111V27.6667H72L72.004 67.1111H8Z" fill="#E1BC94"/>
<path d="M44 31.6111H36V43.4444H24V51.3333H36V63.1667H44V51.3333H56V43.4444H44V31.6111Z" fill="#E1BC94"/>
</g>
<defs>
<clipPath id="clip0_3769_120">
<rect width="80" height="80" fill="white"/>
</clipPath>
</defs>
</svg>
