<?xml version="1.0" encoding="utf-8"?>
<!-- Generator: Adobe Illustrator 16.0.3, SVG Export Plug-In . SVG Version: 6.00 Build 0)  -->
<!DOCTYPE svg PUBLIC "-//W3C//DTD SVG 1.1//EN" "http://www.w3.org/Graphics/SVG/1.1/DTD/svg11.dtd">
<svg version="1.1" id="art" xmlns="http://www.w3.org/2000/svg" xmlns:xlink="http://www.w3.org/1999/xlink" x="0px" y="0px"
	 width="60px" height="59.998px" viewBox="0 0 60 59.998" enable-background="new 0 0 60 59.998" xml:space="preserve">
<g>
	<g>
		<g id="XMLID_15_">
			<path id="XMLID_16_" fill="#ED1A75" d="M19.668,35.928c-0.349-0.559-0.892-0.854-1.208-0.652
				c-0.317,0.194-0.29,0.808,0.055,1.367c0.353,0.564,0.894,0.859,1.208,0.661C20.042,37.103,20.017,36.49,19.668,35.928z"/>
		</g>
		<path fill="#ED1A75" d="M59.361,16.49c-2.413-0.021-3.862-0.025-5.599-0.025v0.063H43.47V0.648C43.47,0.288,43.182,0,42.825,0
			h-7.633h-8.363h-9.654C16.82,0,16.53,0.288,16.53,0.648v15.88H0.646C0.288,16.528,0,16.818,0,17.175v25.647
			c0,0.358,0.288,0.648,0.646,0.648h3.117c0.28,0,0.526-0.181,0.614-0.441c0.518-1.567,0.997-2.829,2.099-3.673
			c0.943-0.724,1.544-1.342,2.037-2.55c0.362-0.887,0.702-1.728,1.456-2.254c0.87-0.589,2.288-1.411,4.502-1.721
			c2.291-0.319,3.157-0.038,3.759,0.307l0.357,0.16c0.5,0.235,0.938,0.433,1.514,0.517c0.164,0.025,0.417,0.326,0.547,0.563
			c0.055,0.098,0.589,0.938,1.799,1.09l0.166,0.029c0.547,0.081,1.561,0.257,4.61,0.241c0.368,0.008,0.486,0.149,0.521,0.195
			c0.206,0.244,0.206,0.702,0.214,0.726c-0.034,0.102-0.326,1.035,0.139,2.158c0.08,0.221-0.051,1.342-0.677,2.512
			c-0.463,0.866-1.031,1.438-1.54,1.559c-1.249,0.254-1.611,0.699-1.853,1.095c-0.002,0.004-0.065,0.116-0.067,0.122
			c-0.137,0.237-0.322,0.564-0.915,0.78c-0.295,0.101-0.469,0.082-0.779,0.049c-0.934-0.136-1.611,0.188-2.015,0.946l-0.183,0.353
			c-0.389,0.725-1.117,2.078-1.594,3.286c-0.263,0.679-0.418,1.225-0.462,1.662c-0.086,0.744-0.617,2.7-1.454,5.371
			c-0.017,0.063-0.029,0.126-0.029,0.193v2.608c0,0.355,0.29,0.644,0.646,0.644h25.649c0.357,0,0.646-0.288,0.646-0.644V43.471
			h15.886c0.357,0,0.644-0.29,0.644-0.648V28.741V17.175v-0.038C60,16.78,59.714,16.49,59.361,16.49z"/>
	</g>
</g>
</svg>
