<svg width="80" height="80" viewBox="0 0 80 80" fill="none" xmlns="http://www.w3.org/2000/svg">
<g clip-path="url(#clip0_3603_341)">
<path d="M63.2 25.5556H54.5V19.7778C54.5 16.5913 51.8987 14 48.7 14H31.3C28.1013 14 25.5 16.5913 25.5 19.7778V25.5556H16.8C13.6013 25.5556 11 28.1469 11 31.3333V60.2222C11 63.4087 13.6013 66 16.8 66H63.2C66.3987 66 69 63.4087 69 60.2222V31.3333C69 28.1469 66.3987 25.5556 63.2 25.5556ZM31.3 19.7778H48.7V25.5556H31.3V19.7778ZM16.8 60.2222V31.3333H63.2L63.2029 60.2222H16.8Z" fill="#E1BC94"/>
<path d="M42.9 34.2222H37.1V42.8889H28.4V48.6667H37.1V57.3333H42.9V48.6667H51.6V42.8889H42.9V34.2222Z" fill="#E1BC94"/>
</g>
<defs>
<clipPath id="clip0_3603_341">
<rect width="80" height="80" fill="white"/>
</clipPath>
</defs>
</svg>
