<svg width="268" height="48" viewBox="0 0 268 48" fill="none" xmlns="http://www.w3.org/2000/svg">
<path d="M132.106 6.085C132.718 4.2709 135.284 4.2709 135.896 6.085L138.945 15.1216C139.217 15.9268 139.968 16.4724 140.818 16.482L150.354 16.5894C152.269 16.611 153.061 19.0512 151.525 20.194L143.873 25.8863C143.191 26.3936 142.904 27.2764 143.158 28.0876L146.003 37.1905C146.574 39.0179 144.498 40.5261 142.937 39.4183L135.158 33.8997C134.465 33.408 133.537 33.408 132.844 33.8997L125.065 39.4183C123.504 40.5261 121.428 39.0179 121.999 37.1905L124.844 28.0876C125.097 27.2764 124.811 26.3936 124.129 25.8863L116.477 20.194C114.94 19.0512 115.733 16.611 117.648 16.5894L127.184 16.482C128.034 16.4724 128.785 15.9268 129.057 15.1216L132.106 6.085Z" fill="#E81E4D"/>
<path d="M76.9828 6.085C77.5949 4.2709 80.1608 4.2709 80.7729 6.085L83.822 15.1216C84.0937 15.9268 84.8447 16.4724 85.6945 16.482L95.231 16.5894C97.1455 16.611 97.9384 19.0512 96.4022 20.194L88.7501 25.8863C88.0682 26.3936 87.7814 27.2764 88.0349 28.0876L90.8797 37.1905C91.4508 39.0179 89.375 40.5261 87.8135 39.4183L80.0351 33.8997C79.342 33.408 78.4137 33.408 77.7206 33.8997L69.9423 39.4183C68.3807 40.5261 66.3049 39.0179 66.876 37.1905L69.7208 28.0876C69.9743 27.2764 69.6875 26.3936 69.0056 25.8863L61.3535 20.194C59.8174 19.0512 60.6103 16.611 62.5247 16.5894L72.0612 16.482C72.911 16.4724 73.662 15.9268 73.9337 15.1216L76.9828 6.085Z" fill="#E81E4D"/>
<path d="M21.8617 6.085C22.4738 4.2709 25.0397 4.2709 25.6518 6.085L28.7009 15.1216C28.9726 15.9268 29.7236 16.4724 30.5734 16.482L40.1099 16.5894C42.0244 16.611 42.8173 19.0512 41.2811 20.194L33.629 25.8863C32.9472 26.3936 32.6603 27.2764 32.9138 28.0876L35.7586 37.1905C36.3297 39.0179 34.2539 40.5261 32.6924 39.4183L24.914 33.8997C24.2209 33.408 23.2926 33.408 22.5995 33.8997L14.8212 39.4183C13.2597 40.5261 11.1838 39.0179 11.7549 37.1905L14.5997 28.0876C14.8532 27.2764 14.5664 26.3936 13.8845 25.8863L6.23244 20.194C4.69627 19.0512 5.48916 16.611 7.40363 16.5894L16.9401 16.482C17.79 16.4724 18.5409 15.9268 18.8126 15.1216L21.8617 6.085Z" fill="#E81E4D"/>
<path d="M187.227 6.085C187.839 4.2709 190.405 4.2709 191.017 6.085L194.066 15.1216C194.338 15.9268 195.089 16.4724 195.939 16.482L205.475 16.5894C207.39 16.611 208.182 19.0512 206.646 20.194L198.994 25.8863C198.312 26.3936 198.026 27.2764 198.279 28.0876L201.124 37.1905C201.695 39.0179 199.619 40.5261 198.058 39.4183L190.279 33.8997C189.586 33.408 188.658 33.408 187.965 33.8997L180.186 39.4183C178.625 40.5261 176.549 39.0179 177.12 37.1905L179.965 28.0876C180.218 27.2764 179.932 26.3936 179.25 25.8863L171.598 20.194C170.062 19.0512 170.854 16.611 172.769 16.5894L182.305 16.482C183.155 16.4724 183.906 15.9268 184.178 15.1216L187.227 6.085Z" fill="#E81E4D"/>
<path d="M242.348 6.085C242.96 4.2709 245.526 4.2709 246.138 6.085L249.187 15.1216C249.459 15.9268 250.21 16.4724 251.06 16.482L260.596 16.5894C262.511 16.611 263.304 19.0512 261.767 20.194L254.115 25.8863C253.433 26.3936 253.147 27.2764 253.4 28.0876L256.245 37.1905C256.816 39.0179 254.74 40.5261 253.179 39.4183L245.4 33.8997C244.707 33.408 243.779 33.408 243.086 33.8997L235.307 39.4183C233.746 40.5261 231.67 39.0179 232.241 37.1905L235.086 28.0876C235.34 27.2764 235.053 26.3936 234.371 25.8863L226.719 20.194C225.183 19.0512 225.975 16.611 227.89 16.5894L237.426 16.482C238.276 16.4724 239.027 15.9268 239.299 15.1216L242.348 6.085Z" fill="#E81E4D"/>
</svg>
