<svg width="183" height="31" viewBox="0 0 183 31" fill="none" xmlns="http://www.w3.org/2000/svg">
<path d="M15.096 0.404053L18.4852 10.8351H29.4531L20.5799 17.2818L23.9691 27.7129L15.096 21.2662L6.22278 27.7129L9.61203 17.2818L0.738849 10.8351H11.7067L15.096 0.404053Z" fill="#57c3d7"/>
<path d="M53.2971 0.404053L56.6864 10.8351H67.6542L58.7811 17.2818L62.1703 27.7129L53.2971 21.2662L44.4239 27.7129L47.8132 17.2818L38.94 10.8351H49.9079L53.2971 0.404053Z" fill="#57c3d7"/>
<path d="M91.5003 0.404053L94.8895 10.8351H105.857L96.9842 17.2818L100.373 27.7129L91.5003 21.2662L82.6271 27.7129L86.0163 17.2818L77.1431 10.8351H88.111L91.5003 0.404053Z" fill="#57c3d7"/>
<path d="M129.701 0.404053L133.091 10.8351H144.059L135.185 17.2818L138.575 27.7129L129.701 21.2662L120.828 27.7129L124.217 17.2818L115.344 10.8351H126.312L129.701 0.404053Z" fill="#57c3d7"/>
<path d="M167.905 0.404053L171.294 10.8351H182.262L173.388 17.2818L176.778 27.7129L167.905 21.2662L159.031 27.7129L162.421 17.2818L153.547 10.8351H164.515L167.905 0.404053Z" fill="#57c3d7"/>
</svg>
