<?xml version="1.0" encoding="utf-8"?>
<!-- Generator: Adobe Illustrator 16.0.3, SVG Export Plug-In . SVG Version: 6.00 Build 0)  -->
<!DOCTYPE svg PUBLIC "-//W3C//DTD SVG 1.1//EN" "http://www.w3.org/Graphics/SVG/1.1/DTD/svg11.dtd">
<svg version="1.1" id="Layer_1" xmlns="http://www.w3.org/2000/svg" xmlns:xlink="http://www.w3.org/1999/xlink" x="0px" y="0px"
	 width="160px" height="160px" viewBox="0 0 160 160" enable-background="new 0 0 160 160" xml:space="preserve">
<path fill="#FFFFFF" d="M154.189,7.689l-32.5-7.5c-3.531-0.813-7.156,1.031-8.594,4.344l-15,35c-1.313,3.063-0.438,6.656,2.156,8.75
	l18.938,15.5c-11.25,23.969-30.906,43.906-55.375,55.375l-15.5-18.938c-2.125-2.594-5.688-3.469-8.75-2.156l-35,15
	c-3.344,1.469-5.188,5.094-4.375,8.625l7.5,32.5c0.781,3.375,3.781,5.813,7.313,5.813c80.031,0,145-64.844,145-145
	C160.002,11.501,157.596,8.47,154.189,7.689z"/>
</svg>
