<?xml version="1.0" encoding="utf-8"?>
<!-- Generator: Adobe Illustrator 16.0.3, SVG Export Plug-In . SVG Version: 6.00 Build 0)  -->
<!DOCTYPE svg PUBLIC "-//W3C//DTD SVG 1.1//EN" "http://www.w3.org/Graphics/SVG/1.1/DTD/svg11.dtd">
<svg version="1.1" id="Layer_1" xmlns="http://www.w3.org/2000/svg" xmlns:xlink="http://www.w3.org/1999/xlink" x="0px" y="0px"
	 width="160px" height="160px" viewBox="0 0 160 160" enable-background="new 0 0 160 160" xml:space="preserve">
<path fill="#FFFFFF" d="M82.5,2.5C39.701,2.5,5,37.213,5,80c0,42.812,34.701,77.5,77.5,77.5S160,122.812,160,80
	C160,37.213,125.299,2.5,82.5,2.5z M82.5,36.875c7.248,0,13.125,5.877,13.125,13.125S89.748,63.125,82.5,63.125
	S69.375,57.248,69.375,50S75.252,36.875,82.5,36.875z M100,116.25c0,2.07-1.68,3.75-3.75,3.75h-27.5c-2.07,0-3.75-1.68-3.75-3.75
	v-7.5c0-2.07,1.68-3.75,3.75-3.75h3.75V85h-3.75C66.68,85,65,83.32,65,81.25v-7.5c0-2.07,1.68-3.75,3.75-3.75h20
	c2.07,0,3.75,1.68,3.75,3.75V105h3.75c2.07,0,3.75,1.68,3.75,3.75V116.25z"/>
</svg>
