<svg width="80" height="80" viewBox="0 0 80 80" fill="none" xmlns="http://www.w3.org/2000/svg">
<g clip-path="url(#clip0_3755_119)">
<path d="M41 2C19.4954 2 2 19.4954 2 41C2 62.5046 19.4954 80 41 80C62.5046 80 80 62.5046 80 41C80 19.4954 62.5046 2 41 2ZM9.8 41C9.8 37.4939 10.4084 34.1282 11.4809 30.9809L25.4 44.9V52.7L37.1 64.4V71.9309C21.7379 70.0004 9.8 56.8808 9.8 41ZM65.687 60.0047C63.1403 57.9533 59.2793 56.6 56.6 56.6V52.7C56.6 50.6313 55.7782 48.6474 54.3154 47.1846C52.8526 45.7218 50.8687 44.9 48.8 44.9H33.2V33.2C35.2687 33.2 37.2526 32.3782 38.7154 30.9154C40.1782 29.4526 41 27.4687 41 25.4V21.5H44.9C46.9687 21.5 48.9526 20.6782 50.4154 19.2154C51.8782 17.7527 52.7 15.7687 52.7 13.7V12.0971C64.1192 16.7342 72.2 27.935 72.2 41C72.1993 47.8823 69.9079 54.5686 65.687 60.0047Z" fill="#E1BC94"/>
</g>
<defs>
<clipPath id="clip0_3755_119">
<rect width="80" height="80" fill="white"/>
</clipPath>
</defs>
</svg>
