<svg width="74" height="62" viewBox="0 0 74 62" fill="none" xmlns="http://www.w3.org/2000/svg">
<g clip-path="url(#clip0_1445_3000)">
<path d="M5.01172 61.9999H17.4359V39.1641L5.01172 48.7792V61.9999Z" fill="white"/>
<path d="M22.2461 35.52V61.9999H34.6703V34.9402L28.1976 30.3013L22.2461 35.52Z" fill="white"/>
<path d="M39.4805 62H51.9045V28.5474L39.4805 38.1625V62Z" fill="white"/>
<path d="M56.7129 24.9016V62H69.1371V24.9016L62.9249 19.4932L56.7129 24.9016Z" fill="white"/>
<path d="M65.2279 2.35528L56.4556 4.71055L60.773 9.02137L38.8715 26.6978L28.1267 18.8278L28.0482 18.7352L0 40.7588L2.72505 43.9643L28.219 24.1105L38.9882 31.998L38.9911 31.9942L38.9977 32.0023L63.7676 12.011L69.3088 17.5435L71.6544 8.77175L74 0L65.2279 2.35528Z" fill="white"/>
</g>
<defs>
<clipPath id="clip0_1445_3000">
<rect width="74" height="62" fill="white"/>
</clipPath>
</defs>
</svg>
