<svg width="58" height="69" viewBox="0 0 58 69" fill="none" xmlns="http://www.w3.org/2000/svg">
<path d="M29 0C12.8889 0 0 12.5455 0 28.2273V50.1818C0 52.6773 1.01845 55.0705 2.8313 56.8351C4.64415 58.5996 7.10291 59.5909 9.66667 59.5909H19.3333V34.5H6.44444V28.2273C6.44444 22.4046 8.82083 16.8203 13.0508 12.7031C17.2808 8.58579 23.0179 6.27273 29 6.27273C34.9821 6.27273 40.7192 8.58579 44.9492 12.7031C49.1792 16.8203 51.5556 22.4046 51.5556 28.2273V34.5H38.6667V59.5909H51.5556V62.7273H29V69H48.3333C50.8971 69 53.3559 68.0087 55.1687 66.2441C56.9816 64.4796 58 62.0864 58 59.5909V28.2273C58 12.5455 45.0144 0 29 0Z" fill="#E81E4D"/>
</svg>
