<svg version="1.1" xmlns="http://www.w3.org/2000/svg" xmlns:xlink="http://www.w3.org/1999/xlink" x="0px" y="0px" width="64px" height="64px" viewBox="0 0 64 64" enable-background="new 0 0 64 64" xml:space="preserve" id="nectar-svg-animation-instance-0" style="height: 50px; width: 50px;">
<g>
<path fill="none" stroke="#FF0000" stroke-width="2" stroke-miterlimit="10" d="M51.799,15.202
		c10.936,10.933,10.936,28.662,0,39.595c-10.935,10.938-28.664,10.938-39.598,0c-10.935-10.933-10.935-28.662,0-39.595
		C23.135,4.266,40.864,4.266,51.799,15.202z" style="stroke-dasharray: 176, 178; stroke-dashoffset: 0;"></path>
<path fill="none" stroke="#FF0000" stroke-width="2" stroke-miterlimit="10" d="M32,7L32,1L38,1" style="stroke-dasharray: 12, 14; stroke-dashoffset: 0;"></path>
<path fill="none" stroke="#FF0000" stroke-width="2" stroke-miterlimit="10" d="M26,1L32,1" style="stroke-dasharray: 6, 8; stroke-dashoffset: 0;"></path>
<path fill="none" stroke="#FF0000" stroke-width="2" stroke-miterlimit="10" d="M32,63L32,59" style="stroke-dasharray: 4, 6; stroke-dashoffset: 0;"></path>
<path fill="none" stroke="#FF0000" stroke-width="2" stroke-miterlimit="10" d="M32,11L32,7" style="stroke-dasharray: 4, 6; stroke-dashoffset: 0;"></path>
<path fill="none" stroke="#FF0000" stroke-width="2" stroke-miterlimit="10" d="M4,35L8,35" style="stroke-dasharray: 4, 6; stroke-dashoffset: 0;"></path>
<path fill="none" stroke="#FF0000" stroke-width="2" stroke-miterlimit="10" d="M56,35L60,35" style="stroke-dasharray: 4, 6; stroke-dashoffset: 0;"></path>
<path fill="none" stroke="#FF0000" stroke-width="2" stroke-miterlimit="10" d="M14.564,17.565L17.394,20.394" style="stroke-dasharray: 5, 7; stroke-dashoffset: 0;"></path>
<path fill="none" stroke="#FF0000" stroke-width="2" stroke-miterlimit="10" d="M46.606,49.606L49.436,52.436" style="stroke-dasharray: 5, 7; stroke-dashoffset: 0;"></path>
<path fill="none" stroke="#FF0000" stroke-width="2" stroke-miterlimit="10" d="M49.436,17.565L46.607,20.394" style="stroke-dasharray: 5, 7; stroke-dashoffset: 0;"></path>
<path fill="none" stroke="#FF0000" stroke-width="2" stroke-miterlimit="10" d="M17.395,49.606L14.564,52.436" style="stroke-dasharray: 5, 7; stroke-dashoffset: 0;"></path>
<path fill="none" stroke="#FF0000" stroke-width="2" stroke-miterlimit="10" d="M32,21L32,33" style="stroke-dasharray: 12, 14; stroke-dashoffset: 0;"></path>
<path fill="none" stroke="#FF0000" stroke-width="2" stroke-miterlimit="10" d="M29,35A3,3 0,1,1 35,35A3,3 0,1,1 29,35" style="stroke-dasharray: 19, 21; stroke-dashoffset: 0;"></path>
</g>
</svg>