<?xml version="1.0" encoding="utf-8"?>
<!-- Generator: Adobe Illustrator 16.0.3, SVG Export Plug-In . SVG Version: 6.00 Build 0)  -->
<!DOCTYPE svg PUBLIC "-//W3C//DTD SVG 1.1//EN" "http://www.w3.org/Graphics/SVG/1.1/DTD/svg11.dtd">
<svg version="1.1" id="Layer_1" xmlns="http://www.w3.org/2000/svg" xmlns:xlink="http://www.w3.org/1999/xlink" x="0px" y="0px"
	 width="320px" height="320px" viewBox="0 0 320 320" enable-background="new 0 0 320 320" xml:space="preserve">
<g>
	<path fill="#CA962C" d="M318.233,156.815l-12.517-9.493l10.678-11.518c0.859-0.925,1.228-2.169,1.007-3.412
		c-0.216-1.241-0.984-2.283-2.109-2.861l-13.978-7.174l8.519-13.199c0.684-1.06,0.824-2.348,0.396-3.536
		c-0.433-1.186-1.371-2.077-2.572-2.449l-15.004-4.638l6.09-14.478c0.49-1.16,0.408-2.454-0.223-3.552
		c-0.633-1.091-1.715-1.808-2.965-1.964l-15.582-1.963l3.487-15.315c0.269-1.192-0.012-2.425-0.774-3.38
		c-0.761-0.954-1.896-1.503-3.136-1.503l-15.872,0.777l0.772-15.688c0.051-1.107-0.341-2.155-1.099-2.948
		c-0.951-0.999-2.436-1.447-3.782-1.145l-15.313,3.485l-1.963-15.585c-0.252-1.993-1.959-3.497-3.967-3.497
		c-0.533,0-1.055,0.105-1.553,0.313l-14.471,6.092l-4.644-15.005c-0.521-1.686-2.058-2.817-3.82-2.817
		c-0.768,0-1.516,0.222-2.161,0.64l-13.203,8.513l-7.17-13.972c-0.688-1.34-2.052-2.173-3.562-2.173
		c-1.009,0-1.974,0.379-2.713,1.066L173.51,15.111L164.021,2.6c-0.764-1.005-1.926-1.583-3.187-1.583
		c-1.262,0-2.422,0.578-3.185,1.583l-9.491,12.513L136.64,4.438c-0.741-0.688-1.705-1.066-2.713-1.066
		c-1.51,0-2.873,0.833-3.558,2.173l-7.176,13.972l-13.197-8.513c-0.649-0.418-1.396-0.64-2.165-0.64c-1.765,0-3.3,1.132-3.823,2.817
		l-4.637,15.003l-14.479-6.09c-0.495-0.208-1.018-0.313-1.55-0.313c-2.011,0-3.715,1.504-3.965,3.498l-1.963,15.584L62.1,37.378
		c-1.344-0.301-2.833,0.146-3.784,1.145c-0.76,0.798-1.149,1.847-1.096,2.95l0.774,15.687L42.3,56.385l-0.193-0.005
		c-1.222,0-2.36,0.549-3.122,1.506c-0.762,0.955-1.044,2.188-0.772,3.382l3.486,15.313l-15.584,1.963
		c-1.251,0.156-2.332,0.873-2.961,1.965c-0.631,1.092-0.712,2.386-0.222,3.552l6.091,14.477l-15.005,4.638
		c-1.208,0.372-2.146,1.267-2.578,2.453c-0.431,1.185-0.286,2.472,0.399,3.532l8.514,13.199L6.38,129.529
		c-1.125,0.579-1.894,1.622-2.11,2.863c-0.219,1.241,0.146,2.485,1.004,3.41l10.677,11.521l-12.517,9.493
		c-1.005,0.762-1.581,1.923-1.581,3.186c0.001,1.261,0.577,2.421,1.581,3.185l12.517,9.492L5.272,184.193
		c-0.856,0.931-1.222,2.176-1.003,3.416c0.218,1.242,0.988,2.287,2.11,2.859l13.974,7.172l-8.514,13.207
		c-0.685,1.059-0.83,2.342-0.401,3.525c0.431,1.186,1.371,2.078,2.578,2.454l15.007,4.642l-6.091,14.473
		c-0.491,1.164-0.41,2.457,0.222,3.552c0.631,1.096,1.71,1.812,2.961,1.966l15.584,1.962l-3.486,15.313
		c-0.271,1.195,0.01,2.43,0.772,3.381c0.761,0.955,1.897,1.505,3.135,1.505l15.875-0.772l-0.774,15.682
		c-0.054,1.104,0.336,2.154,1.095,2.951c0.957,1.006,2.442,1.457,3.786,1.145l15.313-3.486l1.963,15.584
		c0.25,1.996,1.954,3.5,3.965,3.5c0.529,0,1.052-0.104,1.553-0.315l14.476-6.091l4.637,15.006c0.523,1.687,2.06,2.818,3.824,2.818
		c0.768,0,1.515-0.224,2.164-0.641l13.197-8.514l7.176,13.972c0.688,1.342,2.052,2.174,3.559,2.174c1.008,0,1.972-0.379,2.712-1.067
		l11.521-10.678l9.491,12.516c0.762,1.007,1.922,1.582,3.185,1.582c1.26,0,2.421-0.575,3.188-1.582l9.49-12.516l11.516,10.678
		c0.744,0.688,1.709,1.067,2.717,1.067c1.51,0,2.873-0.832,3.561-2.174l7.17-13.972L211.682,309
		c0.646,0.417,1.396,0.641,2.162,0.641c1.764,0,3.299-1.133,3.82-2.818l4.643-15.006l14.476,6.091
		c0.495,0.211,1.018,0.315,1.549,0.315c2.008,0,3.715-1.504,3.967-3.5l1.964-15.584l15.313,3.486
		c1.332,0.298,2.828-0.143,3.783-1.145c0.758-0.795,1.146-1.844,1.098-2.95l-0.773-15.683l15.693,0.769l0.193,0.005
		c1.221,0,2.356-0.547,3.121-1.502c0.764-0.957,1.043-2.189,0.774-3.385l-3.487-15.313l15.582-1.962
		c1.25-0.153,2.332-0.87,2.965-1.966c0.631-1.096,0.713-2.391,0.223-3.553l-6.09-14.471l15.004-4.643
		c1.207-0.376,2.145-1.27,2.572-2.451c0.434-1.188,0.288-2.475-0.396-3.529l-8.519-13.205l13.978-7.172
		c1.125-0.576,1.896-1.621,2.109-2.861c0.221-1.242-0.146-2.487-1.007-3.416l-10.678-11.516l12.517-9.492
		c1.008-0.765,1.584-1.926,1.584-3.186C319.817,158.738,319.241,157.578,318.233,156.815z M288.698,219.368l-0.335,0.101
		l7.453,17.705c0.103,0.239,0.084,0.506-0.047,0.732s-0.352,0.373-0.608,0.406l-18.716,2.355l-0.344,0.045l4.265,18.723
		c0.075,0.342-0.066,0.586-0.16,0.697c-0.164,0.208-0.399,0.313-0.688,0.313l-19.183-0.943l0.944,19.18
		c0.013,0.233-0.067,0.449-0.227,0.612c-0.199,0.209-0.484,0.304-0.779,0.235l-18.727-4.266l-2.4,19.059
		c-0.082,0.656-0.733,0.839-1.141,0.658l-17.703-7.451l-5.67,18.35c-0.162,0.532-0.592,0.588-0.771,0.588
		c-0.166,0-0.334-0.049-0.469-0.135l-16.137-10.41l-8.775,17.085c-0.172,0.332-0.491,0.45-0.735,0.45
		c-0.211,0-0.399-0.073-0.562-0.221l-13.83-12.823l-0.256-0.236l-11.604,15.308c-0.297,0.384-1.024,0.384-1.314,0l-11.607-15.308
		l-14.087,13.06c-0.198,0.183-0.412,0.222-0.557,0.222c-0.244,0-0.567-0.118-0.737-0.446l-8.773-17.089l-16.141,10.41
		c-0.135,0.086-0.301,0.135-0.47,0.135c-0.176,0-0.605-0.059-0.77-0.586l-5.672-18.351l-17.701,7.451
		c-0.411,0.18-1.057-0.006-1.139-0.657l-2.4-19.06l-18.728,4.266c-0.28,0.066-0.585-0.027-0.784-0.236
		c-0.155-0.164-0.235-0.382-0.224-0.611l0.947-19.181l-19.231,0.944c-0.251,0-0.484-0.112-0.641-0.312
		c-0.092-0.114-0.236-0.358-0.157-0.698l4.26-18.725l-19.057-2.4c-0.258-0.033-0.48-0.181-0.61-0.406
		c-0.129-0.225-0.146-0.493-0.046-0.732l7.45-17.705l-18.35-5.67c-0.25-0.079-0.445-0.264-0.533-0.51
		c-0.089-0.241-0.058-0.504,0.083-0.725l10.223-15.853l0.188-0.29l-17.088-8.775c-0.23-0.119-0.391-0.336-0.437-0.588
		c-0.045-0.26,0.031-0.518,0.211-0.709l13.054-14.086L5.351,160.654c-0.206-0.156-0.325-0.396-0.325-0.654s0.119-0.5,0.328-0.657
		l15.303-11.608L7.601,133.647c-0.178-0.192-0.254-0.449-0.209-0.704c0.046-0.258,0.206-0.471,0.437-0.59l17.088-8.772
		l-10.412-16.144c-0.142-0.219-0.171-0.482-0.081-0.728c0.089-0.245,0.283-0.43,0.532-0.506l18.35-5.674l-7.45-17.702
		c-0.101-0.24-0.083-0.509,0.046-0.734c0.13-0.226,0.353-0.373,0.611-0.405l19.056-2.399l-4.26-18.729
		c-0.074-0.321,0.046-0.558,0.157-0.7c0.164-0.204,0.397-0.308,0.685-0.308l19.188,0.946L60.39,41.315
		c-0.011-0.229,0.069-0.445,0.223-0.607c0.2-0.209,0.505-0.305,0.785-0.236l18.388,4.184l0.34,0.077l2.4-19.057
		c0.082-0.644,0.731-0.826,1.139-0.658l17.701,7.45l5.671-18.35c0.114-0.367,0.402-0.587,0.77-0.587c0.167,0,0.334,0.048,0.47,0.138
		l16.142,10.41l8.773-17.086c0.169-0.33,0.491-0.448,0.736-0.448c0.213,0,0.4,0.073,0.558,0.221l14.087,13.054L160.18,4.517
		c0.29-0.384,1.023-0.383,1.314,0.001L173.1,19.82l14.084-13.054c0.161-0.146,0.352-0.221,0.563-0.221
		c0.244,0,0.566,0.118,0.736,0.448l8.615,16.776l0.159,0.31l16.14-10.41c0.135-0.088,0.303-0.136,0.471-0.136
		c0.367,0,0.654,0.218,0.768,0.585l5.57,18.018l0.1,0.332l17.703-7.451c0.41-0.175,1.061,0.011,1.141,0.659l2.357,18.711
		l0.043,0.346l18.729-4.262c0.271-0.064,0.578,0.025,0.781,0.239c0.154,0.162,0.234,0.375,0.224,0.604l-0.945,19.185l19.229-0.944
		c0.252,0,0.485,0.112,0.643,0.311c0.094,0.113,0.236,0.355,0.16,0.695L276.18,78.95l-0.074,0.34l19.06,2.399
		c0.258,0.032,0.479,0.18,0.608,0.405c0.131,0.225,0.148,0.494,0.047,0.734l-7.452,17.702l18.352,5.674
		c0.25,0.076,0.445,0.262,0.535,0.504c0.086,0.247,0.055,0.515-0.082,0.731l-10.228,15.849l-0.188,0.293l17.086,8.774
		c0.236,0.117,0.392,0.327,0.439,0.586c0.043,0.257-0.033,0.516-0.211,0.707l-13.057,14.086l15.307,11.608
		c0.207,0.157,0.324,0.396,0.324,0.657c0,0.26-0.117,0.5-0.324,0.657l-15.029,11.396l-0.277,0.209l13.056,14.084
		c0.18,0.196,0.256,0.455,0.213,0.709c-0.049,0.26-0.203,0.471-0.439,0.59l-17.086,8.776l10.41,16.144
		c0.141,0.217,0.172,0.481,0.086,0.724c-0.09,0.243-0.287,0.431-0.535,0.51L288.698,219.368z"/>
	<path fill="#CA962C" d="M243.938,160.001c0-45.821-37.279-83.1-83.102-83.1c-45.822,0-83.1,37.278-83.1,83.1
		c0,45.819,37.277,83.101,83.1,83.101C206.657,243.102,243.938,205.82,243.938,160.001z M160.836,238.939
		c-43.527,0-78.938-35.412-78.938-78.938c0-43.525,35.41-78.937,78.938-78.937c43.521,0,78.938,35.411,78.938,78.937
		C239.771,203.527,204.357,238.939,160.836,238.939z"/>
	<path fill="#CA962C" d="M160.836,29.16C88.69,29.16,29.996,87.854,29.996,160c0,72.146,58.694,130.84,130.84,130.84
		c72.146,0,130.839-58.693,130.839-130.84C291.675,87.854,232.98,29.16,160.836,29.16z M160.836,287.061
		c-70.061,0-127.06-56.998-127.06-127.061c0-70.061,56.999-127.06,127.06-127.06c70.063,0,127.061,56.999,127.061,127.06
		C287.896,230.063,230.896,287.061,160.836,287.061z"/>
	<path fill="#CA962C" d="M220.159,165.033c0.807-2.535,0.051-5.289-1.589-7.324c-0.461-0.557-0.995-1.053-1.594-1.46
		c0.058,0.829,0.154,1.656,0.291,2.477C217.632,160.873,218.314,163.771,220.159,165.033z"/>
	<path fill="#CA962C" d="M217.593,150.478c-0.538-0.446-1.137-0.819-1.778-1.101c0.604,2.405,2.209,6.762,4.563,7.685
		C220.768,154.622,219.448,152.013,217.593,150.478z"/>
	<path fill="#CA962C" d="M215.333,170.204c-0.735,2.483-1.703,7.317,0.041,9.348c1.688-1.981,1.897-5.046,1.01-7.421
		C216.126,171.441,215.775,170.787,215.333,170.204z"/>
	<path fill="#CA962C" d="M211.729,137.314c-0.639-0.236-1.309-0.393-1.99-0.453c1.353,2.007,4.185,5.299,6.648,5.393
		C215.95,139.963,213.841,138.094,211.729,137.314z"/>
	<path fill="#CA962C" d="M215.314,143.69c-0.598-0.351-1.244-0.627-1.92-0.802c1.051,2.335,3.224,6.025,5.688,6.511
		C218.945,146.907,217.407,144.924,215.314,143.69z"/>
	<path fill="#CA962C" d="M205.454,191.271c2.416-1.355,3.813-4.271,3.787-6.986c-0.009-0.762-0.123-1.521-0.353-2.247
		C207.292,184.188,204.468,188.697,205.454,191.271z"/>
	<path fill="#CA962C" d="M211.645,178.754c-0.797,2.104-1.73,4.991-0.662,7.128c2.082-1.854,2.934-4.653,2.42-7.371
		c-0.144-0.731-0.387-1.436-0.736-2.092C212.286,177.182,211.943,177.959,211.645,178.754z"/>
	<path fill="#CA962C" d="M206.2,192.195c2.547,1.367,5.702-0.572,7.69-2.112c0.857-0.704,1.642-1.504,2.332-2.37
		c-0.832,0.049-1.66,0.182-2.467,0.374C211.085,188.717,208.059,190.127,206.2,192.195z"/>
	<path fill="#CA962C" d="M217.425,141.746c1.304-1.87,0.15-5.136-0.858-6.878c-0.439-0.765-0.961-1.486-1.553-2.147
		c-0.05,0.736-0.041,1.479,0.016,2.214C215.204,137.192,215.904,139.999,217.425,141.746z"/>
	<path fill="#CA962C" d="M218.154,165.145c-0.364-0.64-0.813-1.229-1.342-1.74c-0.278,2.566-0.396,7.486,1.631,9.197
		C219.741,170.369,219.396,167.32,218.154,165.145z"/>
	<path fill="#CA962C" d="M220.818,142.164c-0.289-0.87-0.688-1.729-1.137-2.522c-0.209,0.726-0.348,1.473-0.438,2.223
		c-0.302,2.472-0.203,4.995,0.961,7.231C221.909,147.553,221.448,144.085,220.818,142.164z"/>
	<path fill="#CA962C" d="M221.54,156.98c2.731-1.874,2.371-6.866,1.403-9.725c-0.354,0.672-0.653,1.377-0.899,2.096
		C221.257,151.646,220.823,154.617,221.54,156.98z"/>
	<path fill="#CA962C" d="M221.32,165.182c2.41-0.934,3.298-4.33,3.488-6.7c0.082-0.999,0.06-2.01-0.063-3.004
		c-0.5,0.61-0.938,1.27-1.33,1.951C222.109,159.739,221.154,162.52,221.32,165.182z"/>
	<path fill="#CA962C" d="M213.848,136.786c0.065-2.83-3.048-5.625-5.711-6.619c0.301,0.671,0.643,1.326,1.021,1.958
		C210.173,133.822,211.909,136.105,213.848,136.786z"/>
	<path fill="#CA962C" d="M216.4,180.127c2.744,0.2,4.767-2.547,5.968-4.648c0.485-0.918,0.875-1.886,1.161-2.881
		c-0.715,0.355-1.401,0.783-2.049,1.254C219.407,175.352,217.221,177.656,216.4,180.127z"/>
	<path fill="#CA962C" d="M223.225,165.828c-1.685,1.888-3.359,4.585-3.666,7.143c2.69-0.398,4.096-3.479,4.836-5.767
		c0.291-0.989,0.477-2.013,0.561-3.04C224.333,164.669,223.757,165.234,223.225,165.828z"/>
	<path fill="#CA962C" d="M211.884,186.645c2.658,0.764,5.445-1.668,6.986-3.543c0.668-0.813,1.25-1.703,1.733-2.637
		c-0.785,0.199-1.551,0.479-2.287,0.807C215.755,182.432,213.37,184.242,211.884,186.645z"/>
	<path fill="#CA962C" d="M215.38,181.242c4.091-7.083,5.731-13.112,5.856-21.294c-0.131-6.202-1.123-10.847-3.598-16.533
		c-1.115-2.418-2.256-4.414-3.771-6.599c1.473,2.206,2.582,4.222,3.651,6.651c2.369,5.687,3.303,10.316,3.367,16.48
		c-0.207,8.088-1.875,14.036-5.965,21.016c-4.207,6.579-8.582,10.729-15.381,14.573c0.102,0.185,0.201,0.374,0.303,0.562
		C206.729,192.175,211.15,187.943,215.38,181.242z"/>
	<path fill="#CA962C" d="M106.338,170.204c-0.441,0.583-0.792,1.237-1.05,1.927c-0.888,2.375-0.683,5.439,1.01,7.421
		C108.04,177.521,107.074,172.688,106.338,170.204z"/>
	<path fill="#CA962C" d="M104.857,163.404c-0.527,0.512-0.977,1.101-1.341,1.738c-1.244,2.178-1.585,5.227-0.288,7.459
		C105.256,170.891,105.136,165.971,104.857,163.404z"/>
	<path fill="#CA962C" d="M105.858,149.377c-0.643,0.281-1.24,0.654-1.779,1.101c-1.854,1.535-3.177,4.145-2.786,6.584
		C103.647,156.139,105.257,151.782,105.858,149.377z"/>
	<path fill="#CA962C" d="M112.43,184.285c-0.027,2.716,1.372,5.631,3.788,6.986c0.985-2.574-1.839-7.084-3.435-9.233
		C112.553,182.764,112.438,183.523,112.43,184.285z"/>
	<path fill="#CA962C" d="M106.354,143.69c-2.088,1.233-3.631,3.217-3.767,5.709c2.465-0.485,4.637-4.176,5.688-6.511
		C107.603,143.063,106.955,143.34,106.354,143.69z"/>
	<path fill="#CA962C" d="M112.513,132.125c0.377-0.632,0.721-1.287,1.023-1.958c-2.666,0.994-5.776,3.789-5.713,6.619
		C109.762,136.105,111.499,133.822,112.513,132.125z"/>
	<path fill="#CA962C" d="M101.513,165.033c1.842-1.264,2.525-4.16,2.888-6.308c0.139-0.82,0.237-1.647,0.295-2.477
		c-0.599,0.407-1.135,0.903-1.596,1.46C101.459,159.744,100.704,162.498,101.513,165.033z"/>
	<path fill="#CA962C" d="M109.94,137.314c-2.111,0.779-4.22,2.648-4.659,4.939c2.469-0.094,5.301-3.386,6.651-5.393
		C111.253,136.922,110.582,137.078,109.94,137.314z"/>
	<path fill="#CA962C" d="M109.785,186.645c-1.486-2.401-3.866-4.213-6.434-5.373c-0.736-0.328-1.502-0.606-2.284-0.807
		c0.483,0.934,1.064,1.823,1.733,2.637C104.342,184.977,107.13,187.407,109.785,186.645z"/>
	<path fill="#CA962C" d="M105.447,187.713c0.693,0.866,1.475,1.666,2.331,2.37c1.989,1.54,5.146,3.479,7.695,2.112
		c-1.86-2.068-4.887-3.479-7.559-4.108C107.106,187.895,106.277,187.762,105.447,187.713z"/>
	<path fill="#CA962C" d="M110.026,178.754c-0.3-0.795-0.644-1.572-1.022-2.335c-0.347,0.656-0.591,1.36-0.734,2.092
		c-0.514,2.718,0.338,5.519,2.42,7.371C111.756,183.745,110.825,180.857,110.026,178.754z"/>
	<path fill="#CA962C" d="M105.268,180.127c-0.819-2.471-3.003-4.775-5.076-6.275c-0.648-0.471-1.334-0.897-2.051-1.254
		c0.286,0.995,0.677,1.963,1.163,2.881C100.504,177.58,102.527,180.327,105.268,180.127z"/>
	<path fill="#CA962C" d="M102.114,172.971c-0.307-2.558-1.981-5.255-3.667-7.143c-0.533-0.594-1.109-1.159-1.729-1.664
		c0.083,1.027,0.269,2.051,0.558,3.04C98.019,169.49,99.423,172.57,102.114,172.971z"/>
	<path fill="#CA962C" d="M100.131,156.98c0.717-2.363,0.283-5.335-0.504-7.629c-0.246-0.719-0.544-1.424-0.901-2.096
		C97.763,150.114,97.399,155.106,100.131,156.98z"/>
	<path fill="#CA962C" d="M102.429,141.864c-0.092-0.75-0.233-1.497-0.438-2.223c-0.452,0.793-0.851,1.652-1.137,2.522
		c-0.634,1.921-1.092,5.389,0.613,6.932C102.632,146.859,102.729,144.336,102.429,141.864z"/>
	<path fill="#CA962C" d="M106.643,134.935c0.058-0.735,0.066-1.478,0.015-2.214c-0.588,0.661-1.111,1.383-1.555,2.147
		c-1.006,1.742-2.156,5.008-0.858,6.878C105.767,139.999,106.466,137.192,106.643,134.935z"/>
	<path fill="#CA962C" d="M100.352,165.182c0.162-2.662-0.792-5.441-2.097-7.752c-0.392-0.682-0.833-1.341-1.328-1.951
		c-0.123,0.994-0.146,2.005-0.065,3.004C97.052,160.852,97.941,164.248,100.352,165.182z"/>
	<path fill="#CA962C" d="M106.749,180.964c-4.091-6.979-5.757-12.928-5.965-21.016c0.063-6.164,0.995-10.794,3.364-16.48
		c1.074-2.43,2.183-4.445,3.655-6.651c-1.517,2.185-2.658,4.181-3.771,6.599c-2.475,5.687-3.471,10.331-3.599,16.533
		c0.126,8.182,1.768,14.211,5.859,21.294c4.227,6.702,8.649,10.933,15.532,14.854c0.103-0.187,0.203-0.377,0.307-0.561
		C115.331,191.691,110.957,187.543,106.749,180.964z"/>
	<circle fill="#CA962C" cx="114.507" cy="255.581" r="3.222"/>
	<path fill="#CA962C" d="M207.366,253.115c-1.777,0-3.226,1.441-3.226,3.225c0,1.779,1.447,3.223,3.226,3.223
		c1.78,0,3.225-1.442,3.225-3.223C210.591,254.559,209.146,253.115,207.366,253.115z"/>
	<path fill="#CA962C" d="M185.38,152.442c-1.049-1.219-1.964-0.737-3.351-0.011c-0.674,0.356-1.607,0.847-2.963,1.437
		c-3.91,1.704-6.871,2.097-12.193-0.481c-5.555-2.689-11.349-2.304-16.124,1.007l-0.326-0.102c-0.127-0.041-0.269-0.069-0.421-0.075
		c-1.741-0.124-4.317,2.336-7.872,7.465c-1.192,1.721-2.289,3.17-3.23,4.41c-2.439,3.227-3.911,5.169-3.428,7.125
		c0.14,0.565,0.428,1.085,0.906,1.596c0.56,0.604,1.41,1.197,2.595,1.836l-3.181,8.683c-0.16,0.438,0.065,0.926,0.504,1.086
		c0.117,0.04,0.234,0.058,0.352,0.048c0.322-0.021,0.617-0.229,0.733-0.553l3.113-8.495c0.018,0.009,0.032,0.017,0.051,0.024
		c0.091,0.041,0.187,0.068,0.286,0.078c0.063,0.01,6.341,0.625,10.753,2.836c2.407,1.203,4.506,1.172,5.761-0.088
		c1.536-1.547,1.352-4.539-0.506-8.209c-3.129-6.187-4.51-11.488-4.645-13.38c-0.021-0.292-0.229-1.773-0.496-2.887
		c4.3-3.007,9.379-3.333,14.438-0.881c5.883,2.849,9.321,2.38,13.605,0.508c0.146-0.064,0.27-0.121,0.404-0.183
		c0.34,0.988,1.055,2.445,2.47,3.125c0.601,0.287,1.251,0.406,1.95,0.357c0.521-0.037,1.07-0.179,1.643-0.402
		c0.577,6.417-6.719,13.222-11.909,18.054c-0.657,0.611-1.276,1.189-1.836,1.727c-6.362,6.092-5.661,15.922-5.63,16.338
		c0.036,0.463,0.439,0.811,0.904,0.775c0.002,0.003,0.004,0,0.006,0c0.465-0.036,0.813-0.443,0.775-0.908
		c-0.008-0.095-0.674-9.439,5.111-14.98c0.557-0.531,1.17-1.105,1.822-1.715C182.008,171.502,192.977,161.287,185.38,152.442z"/>
	<path fill="#CA962C" d="M170.268,159.7c0.186-0.261,0.125-0.614-0.134-0.797c-0.079-0.061-2.03-1.424-3.854-0.785
		c-0.172,0.06-0.342,0.136-0.496,0.231c-0.822,0.476-1.422,1.366-1.785,2.646c-0.09,0.303,0.086,0.62,0.395,0.709
		c0.305,0.088,0.414-0.517,0.709-0.396c1.86,0.756,2.597,0.693,3.303,0.452c1.259-0.446,1.05-1.932,1.063-1.923
		C169.729,160.022,170.087,159.959,170.268,159.7z"/>
	<path fill="#CA962C" d="M155.821,137.547c0.124,0.968,0.742,1.757,1.838,2.349c1.345,0.716,2.792,0.656,4.62,0.579
		c1.685-0.069,4.281-0.146,7.045,0.347c2.564,1.313,4.824,2.48,5.938,3.081c0.864,0.465,1.7,0.652,2.506,0.652
		c1.924,0,3.662-1.07,5.147-1.984c0.763-0.469,1.481-0.912,2.164-1.191c0.354-0.144,0.522-0.548,0.38-0.901
		c-0.146-0.354-0.552-0.527-0.902-0.378c-0.785,0.321-1.553,0.792-2.365,1.292c-2.082,1.279-4.047,2.49-6.272,1.291
		c-3.032-1.632-14.502-7.44-17.611-9.013c-0.002-0.001-0.004-0.002-0.005-0.002c-0.478-0.242-0.763-0.386-0.782-0.395
		c-0.058-0.029-0.119-0.051-0.183-0.063c-6.136-1.165-8.208-3.149-8.897-4.229c-0.351-0.549-0.501-1.115-0.42-1.568
		c0.967-0.468,6.354,0.875,10.308,1.861c4.204,1.046,8.967,2.233,12.425,2.546c8.219,0.739,13.743-4.673,13.975-4.902
		c0.271-0.271,0.271-0.708,0-0.979c-0.268-0.27-0.707-0.269-0.977-0.001c-0.053,0.052-5.314,5.184-12.875,4.505
		c-3.35-0.305-8.061-1.478-12.213-2.512c-5.82-1.451-9.269-2.262-10.889-1.877c-0.949-0.215-5.222-1.208-6.609-1.921
		c-1.273-0.656-3.035-0.475-4.007,0.414c-0.681,0.624-0.864,1.485-0.501,2.367c0.361,0.878,1.639,2.018,12.127,4.432
		c1.471,1.168,3.943,2.372,8.1,3.185C156.331,135.235,155.669,136.353,155.821,137.547z M158.167,135.15
		c1.641,0.83,4.653,2.356,7.748,3.933c-1.422-0.081-2.638-0.035-3.69,0.01c-1.687,0.067-2.901,0.121-3.911-0.418
		c-0.688-0.37-1.055-0.795-1.119-1.301C157.093,136.591,157.704,135.685,158.167,135.15z M137.936,126.388
		c-0.14-0.34-0.091-0.593,0.157-0.82c0.482-0.442,1.603-0.635,2.439-0.204c1.371,0.705,4.73,1.531,6.136,1.859
		c-0.118,0.734,0.058,1.541,0.511,2.322C139.36,127.655,138.095,126.714,137.936,126.388z"/>
	<path fill="#CA962C" d="M118.131,174.178l0.048,0.108c0.002,0.005,0,0.008,0.002,0.011c0.1,0.455,0.537,0.739,0.973,0.643
		c0.438-0.098,0.711-0.543,0.609-0.996c-0.001-0.002-0.002-0.004-0.002-0.004l0.014-0.002l-0.078-0.172
		c-2.021-4.408-3.312-9.057-3.838-13.817c-1.323-11.996,2.113-23.804,9.682-33.248c7.565-9.445,18.34-15.375,30.335-16.7
		c1.659-0.182,3.343-0.276,5.002-0.276c23.088,0,42.41,17.32,44.946,40.289c0.504,4.565,0.295,9.195-0.623,13.756l-0.028,0.142
		l0.015,0.002c-0.024,0.081-0.051,0.161-0.053,0.25c-0.011,0.485,0.338,0.885,0.777,0.894c0.393,0.012,0.713-0.3,0.789-0.712
		l0.017,0.009l0.033-0.168c0.968-4.763,1.192-9.589,0.668-14.348c-1.271-11.522-6.751-22.12-15.431-29.838
		c-8.612-7.663-19.662-11.882-31.111-11.882c-1.717,0-3.46,0.096-5.177,0.286c-12.422,1.372-23.577,7.513-31.413,17.292
		c-7.834,9.78-11.394,22.007-10.021,34.427C114.796,164.951,116.099,169.684,118.131,174.178z"/>
	<path fill="#CA962C" d="M205.289,166.695c-0.417-0.098-0.844,0.142-0.979,0.55c-2.088,6.375-8.336,8.007-10.687,8.621
		c-10.646,2.78-11.276,7.108-11.054,8.839c0.311,2.423,2.754,4.25,5.685,4.25c1.374,0,2.742-0.408,3.958-1.184
		c11.762-7.494,13.635-19.637,13.708-20.149C205.982,167.195,205.708,166.793,205.289,166.695z M191.32,186.372
		c-0.947,0.604-2.008,0.924-3.064,0.924c-2.063,0-3.838-1.231-4.039-2.803c-0.27-2.083,2.174-5.021,9.827-7.021
		c1.744-0.457,5.431-1.421,8.379-4.205C200.672,177.268,197.375,182.516,191.32,186.372z"/>
	<path fill="#CA962C" d="M133.702,188.128c0,0-3.273,14.089,38.016,40.03c0,0,4.458-8.653-3.032-29.049
		C168.686,199.109,138.022,194.689,133.702,188.128z"/>
	<path fill="#CA962C" d="M130.313,175.982c-1.661,2.316-1.175,4.781-0.22,6.728c-3.115-2.36-7.002-0.888-7.002-0.888
		c1.647,5.729,9.615,4.527,9.615,4.527l0.018-0.02C136.554,179.703,130.313,175.982,130.313,175.982z"/>
	<path fill="#CA962C" d="M106.335,241.128l-1.305-0.897l-1.316-0.957c-0.219-0.174-0.52-0.396-0.903-0.666
		c-0.036-0.025-0.079-0.004-0.13,0.068c-0.051,0.072-0.059,0.12-0.022,0.146c0.407,0.287,0.683,0.527,0.825,0.72
		c0.144,0.19,0.186,0.392,0.127,0.603c-0.059,0.209-0.22,0.5-0.482,0.871l-5.859,8.277c-0.254,0.359-0.475,0.604-0.664,0.729
		c-0.188,0.127-0.4,0.162-0.637,0.103c-0.237-0.06-0.553-0.229-0.947-0.509c-0.037-0.025-0.08-0.002-0.131,0.068
		c-0.051,0.072-0.059,0.121-0.022,0.146l0.911,0.617c0.543,0.349,1.001,0.654,1.372,0.917c0.335,0.237,0.758,0.555,1.267,0.95
		l0.922,0.68c0.035,0.025,0.079,0.002,0.13-0.069c0.051-0.071,0.059-0.12,0.022-0.146c-0.406-0.287-0.68-0.53-0.818-0.729
		c-0.138-0.197-0.186-0.404-0.139-0.623c0.047-0.219,0.197-0.508,0.451-0.865l5.885-8.314c0.254-0.359,0.479-0.602,0.674-0.723
		c0.193-0.123,0.405-0.148,0.633-0.077c0.229,0.071,0.546,0.251,0.953,0.538c0.035,0.025,0.079,0.003,0.13-0.068
		c0.051-0.072,0.058-0.121,0.022-0.146C106.888,241.491,106.571,241.277,106.335,241.128z"/>
	<path fill="#CA962C" d="M91.622,246.834c-0.127-0.352-0.193-0.829-0.203-1.432l6.474-7.137c0.522-0.576,1.049-0.9,1.58-0.975
		c0.531-0.072,1.03,0.104,1.497,0.527c0.033,0.029,0.078,0.012,0.138-0.055c0.06-0.065,0.073-0.111,0.04-0.143
		c-0.326-0.295-0.58-0.518-0.765-0.663l-0.976-0.854l-0.85-0.801c-0.143-0.148-0.359-0.355-0.653-0.621
		c-0.021-0.021-0.062,0.002-0.121,0.067c-0.06,0.063-0.078,0.106-0.056,0.127c0.434,0.396,0.627,0.847,0.58,1.356
		c-0.048,0.513-0.333,1.056-0.855,1.631l-6.015,6.634l0.411-15.813c-0.002-0.041-0.035-0.08-0.1-0.119
		c-0.064-0.039-0.111-0.041-0.141-0.01l-7.641,8.426c-0.521,0.576-1.043,0.91-1.563,1.004c-0.52,0.093-0.997-0.059-1.432-0.452
		c-0.021-0.021-0.063,0.003-0.121,0.067c-0.06,0.065-0.078,0.107-0.057,0.129l0.732,0.633c0.389,0.313,0.691,0.568,0.909,0.767
		c0.229,0.206,0.507,0.479,0.835,0.815l0.652,0.621c0.022,0.021,0.063-0.002,0.121-0.067c0.06-0.065,0.078-0.106,0.057-0.127
		c-0.424-0.386-0.609-0.835-0.557-1.353c0.052-0.517,0.34-1.063,0.862-1.639l5.231-5.77l-0.398,12.23l-0.082,0.876
		c-0.031,0.209-0.045,0.354-0.041,0.438c0.004,0.082,0.049,0.164,0.137,0.242c0.184,0.168,0.347,0.306,0.486,0.412l1.059,0.93
		c0.26,0.236,0.457,0.425,0.588,0.563l0.637,0.607c0.022,0.021,0.063-0.003,0.121-0.068c0.06-0.063,0.078-0.106,0.057-0.127
		C91.941,247.48,91.748,247.188,91.622,246.834z"/>
	<path fill="#CA962C" d="M81.501,232.738c-0.051-0.063-0.087-0.086-0.109-0.066c-1.061,0.463-1.986,0.643-2.778,0.539
		c-0.792-0.104-1.47-0.503-2.033-1.197c-0.249-0.308-0.405-0.559-0.469-0.752c-0.064-0.195-0.05-0.377,0.041-0.545
		c0.091-0.167,0.284-0.371,0.58-0.611l7.911-6.416c0.342-0.276,0.626-0.444,0.851-0.506c0.226-0.06,0.452-0.006,0.68,0.157
		c0.228,0.165,0.522,0.47,0.882,0.913c0.02,0.023,0.063,0.008,0.131-0.049s0.094-0.096,0.074-0.117
		c-0.342-0.421-0.615-0.747-0.82-0.979l-1.098-1.317l-1.119-1.415c-0.174-0.236-0.422-0.555-0.746-0.954
		c-0.027-0.034-0.075-0.022-0.144,0.032c-0.068,0.055-0.089,0.1-0.062,0.134c0.361,0.444,0.596,0.792,0.705,1.044
		s0.112,0.477,0.008,0.674s-0.332,0.438-0.686,0.727l-7.877,6.388c-0.309,0.249-0.554,0.406-0.738,0.472
		c-0.184,0.063-0.366,0.041-0.548-0.065c-0.182-0.106-0.401-0.32-0.661-0.64c-0.582-0.719-0.836-1.457-0.762-2.215
		c0.074-0.76,0.504-1.552,1.289-2.377c0.024-0.037,0.012-0.09-0.039-0.152c-0.051-0.062-0.094-0.079-0.128-0.053
		c-0.444,0.36-1.039,0.814-1.784,1.362c-0.746,0.548-1.309,0.948-1.689,1.2c-0.045,0.037-0.045,0.084,0,0.141
		c0.047,0.059,0.098,0.073,0.152,0.049c0.217-0.082,0.436-0.047,0.653,0.105c0.219,0.152,0.503,0.445,0.854,0.88l0.959,1.147
		c0.633,0.732,1.222,1.437,1.767,2.107c1.063,1.311,1.974,2.469,2.733,3.477c0.518,0.639,0.651,1.06,0.4,1.263
		c-0.057,0.046-0.06,0.101-0.009,0.163c0.051,0.063,0.104,0.07,0.161,0.023c0.354-0.285,0.904-0.685,1.65-1.195
		c0.747-0.512,1.361-0.924,1.842-1.238C81.561,232.846,81.552,232.801,81.501,232.738z"/>
	<path fill="#CA962C" d="M69.396,220.229l8.694-5.308c0.375-0.229,0.676-0.364,0.898-0.407c0.224-0.041,0.426,0.017,0.607,0.172
		c0.182,0.155,0.401,0.446,0.661,0.871c0.022,0.039,0.071,0.033,0.147-0.012c0.074-0.046,0.101-0.088,0.078-0.126l-4.976-8.149
		c-0.069-0.111-0.136-0.174-0.203-0.185c-0.067-0.011-0.149,0.015-0.251,0.075c-0.788,0.48-1.696,0.949-2.725,1.404
		c-0.012,0.009-0.018,0.033-0.018,0.076s0.012,0.084,0.035,0.12c0.03,0.05,0.059,0.067,0.083,0.054
		c1.902-0.543,3.366,0.023,4.39,1.701l0.563,0.92c0.244,0.4,0.332,0.729,0.266,0.984c-0.067,0.256-0.308,0.51-0.721,0.762
		l-4.263,2.604l-1.089-1.784c-0.855-1.401-0.746-2.433,0.331-3.089c0.024-0.016,0.015-0.061-0.031-0.137
		c-0.046-0.074-0.081-0.104-0.106-0.09c-0.25,0.153-0.568,0.364-0.953,0.635l-0.871,0.558l-1.646,0.979
		c-0.038,0.021-0.035,0.068,0.007,0.138s0.082,0.092,0.119,0.067c0.927-0.564,1.811-0.158,2.65,1.219l1.101,1.803l-3.831,2.338
		c-0.387,0.237-0.721,0.313-0.998,0.225c-0.277-0.09-0.553-0.358-0.828-0.811l-0.459-0.751c-0.879-1.438-0.696-2.745,0.547-3.917
		c0.031-0.035,0.019-0.083-0.036-0.145c-0.054-0.063-0.095-0.084-0.12-0.069l-2.418,1.528c-0.112,0.067-0.131,0.166-0.054,0.291
		l4.769,7.812c0.023,0.037,0.072,0.033,0.146-0.013c0.076-0.047,0.102-0.088,0.078-0.125c-0.252-0.413-0.404-0.741-0.458-0.983
		c-0.054-0.241-0.013-0.45,0.12-0.627C68.764,220.661,69.021,220.457,69.396,220.229z"/>
	<path fill="#CA962C" d="M62.542,208.279l9.348-4.047c0.403-0.174,0.721-0.265,0.95-0.268c0.23-0.004,0.425,0.084,0.581,0.264
		c0.158,0.18,0.336,0.498,0.534,0.955c0.018,0.041,0.066,0.043,0.147,0.008c0.08-0.033,0.112-0.071,0.095-0.111
		c-0.192-0.444-0.351-0.791-0.475-1.041l-0.649-1.445l-0.627-1.503c-0.092-0.248-0.232-0.594-0.426-1.038
		c-0.012-0.027-0.058-0.021-0.139,0.012c-0.08,0.035-0.115,0.066-0.104,0.094c0.199,0.458,0.309,0.806,0.332,1.043
		c0.023,0.238-0.043,0.435-0.2,0.591c-0.156,0.155-0.442,0.323-0.86,0.504l-4.502,1.949c-0.148-0.415-0.286-0.771-0.414-1.067
		c-0.07-0.16-0.183-0.385-0.338-0.669c1.42-2.036,2.486-3.709,3.198-5.017c0.713-1.307,1.002-2.115,0.868-2.426l-1.408-3.25
		c-0.017-0.041-0.066-0.043-0.146-0.008c-0.081,0.034-0.113,0.071-0.096,0.111c0.24,0.553,0.277,1.203,0.115,1.953
		c-0.163,0.75-0.542,1.691-1.137,2.829c-0.595,1.137-1.468,2.608-2.619,4.418c-0.646-0.535-1.355-0.879-2.125-1.033
		c-0.77-0.153-1.525-0.071-2.266,0.249c-0.82,0.355-1.321,0.952-1.502,1.789c-0.182,0.838-0.019,1.842,0.488,3.014
		c0.135,0.311,0.262,0.586,0.383,0.828c0.122,0.243,0.227,0.45,0.316,0.619c0.268,0.507,0.498,0.982,0.689,1.428
		c0.158,0.362,0.352,0.848,0.58,1.45l0.435,1.06c0.012,0.026,0.058,0.021,0.139-0.013s0.115-0.065,0.104-0.093
		c-0.192-0.443-0.298-0.79-0.317-1.038c-0.019-0.247,0.05-0.448,0.206-0.604C61.858,208.62,62.138,208.455,62.542,208.279z
		 M60.538,206.45c-0.291-0.138-0.551-0.47-0.777-0.994c-0.303-0.699-0.319-1.327-0.049-1.886c0.271-0.555,0.951-1.069,2.041-1.541
		c0.969-0.42,1.754-0.536,2.354-0.35c0.6,0.188,1.091,0.719,1.47,1.594c0.197,0.459,0.34,0.859,0.426,1.207l-4.26,1.844
		C61.231,206.546,60.83,206.588,60.538,206.45z"/>
	<path fill="#CA962C" d="M67.096,190.059c0.483,0.232,0.802,0.654,0.956,1.267c0.012,0.043,0.06,0.054,0.145,0.03
		c0.086-0.021,0.123-0.054,0.111-0.096c-0.107-0.427-0.197-0.752-0.27-0.976l-0.34-1.253l-0.266-1.137
		c-0.036-0.201-0.104-0.496-0.2-0.879c-0.007-0.029-0.054-0.031-0.139-0.011c-0.085,0.021-0.124,0.047-0.117,0.075
		c0.144,0.568,0.056,1.053-0.268,1.452c-0.321,0.399-0.86,0.694-1.614,0.886l-8.679,2.2l9.087-12.948
		c0.021-0.035,0.015-0.087-0.018-0.154c-0.031-0.066-0.069-0.096-0.111-0.084l-11.025,2.795c-0.754,0.19-1.373,0.182-1.857-0.028
		c-0.484-0.21-0.799-0.601-0.943-1.169c-0.007-0.027-0.053-0.031-0.139-0.01c-0.085,0.021-0.124,0.047-0.117,0.074l0.26,0.934
		c0.151,0.477,0.263,0.856,0.334,1.142c0.076,0.299,0.158,0.679,0.244,1.142l0.201,0.879c0.007,0.028,0.053,0.033,0.139,0.012
		c0.085-0.021,0.124-0.047,0.117-0.075c-0.141-0.555-0.047-1.032,0.283-1.435c0.329-0.4,0.871-0.697,1.624-0.889l7.55-1.914
		l-7.096,9.971l-0.553,0.685c-0.142,0.157-0.234,0.271-0.276,0.343s-0.05,0.163-0.021,0.277c0.062,0.242,0.121,0.445,0.178,0.613
		l0.367,1.358c0.088,0.341,0.146,0.605,0.18,0.794l0.195,0.858c0.007,0.028,0.053,0.032,0.139,0.011
		c0.085-0.021,0.124-0.047,0.117-0.074c-0.087-0.343-0.086-0.693,0.004-1.058c0.09-0.364,0.297-0.798,0.623-1.304l9.34-2.369
		C65.995,189.805,66.613,189.824,67.096,190.059z"/>
	<path fill="#CA962C" d="M63.035,174.717c0.439,0.229,0.751,0.473,0.937,0.736c0.185,0.264,0.295,0.602,0.33,1.009
		c0.006,0.073,0.053,0.106,0.141,0.099c0.088-0.006,0.129-0.047,0.123-0.121c-0.027-0.307-0.075-0.691-0.146-1.157
		c-0.075-0.523-0.13-0.982-0.163-1.378c-0.036-0.407-0.063-0.893-0.082-1.449c-0.014-0.499-0.032-0.881-0.055-1.145
		c-0.007-0.072-0.054-0.104-0.142-0.098s-0.128,0.048-0.122,0.12c0.057,0.658-0.029,1.181-0.262,1.569
		c-0.23,0.388-0.602,0.604-1.113,0.647c-0.352,0.03-0.754-0.03-1.209-0.183l-2.458-0.846l-0.46-5.306l3.23-1.959
		c0.504-0.294,0.865-0.45,1.085-0.469c0.22-0.021,0.386,0.065,0.497,0.255c0.112,0.188,0.187,0.495,0.223,0.919
		c0.006,0.06,0.053,0.084,0.14,0.076c0.088-0.008,0.129-0.041,0.124-0.101c-0.023-0.276-0.072-0.662-0.145-1.156
		c-0.073-0.494-0.125-0.924-0.156-1.289c-0.023-0.278-0.049-0.725-0.072-1.342c-0.023-0.615-0.049-1.063-0.072-1.34
		c-0.006-0.074-0.053-0.105-0.141-0.099c-0.088,0.008-0.129,0.048-0.123,0.121c0.035,0.396-0.127,0.78-0.484,1.157
		s-1.039,0.867-2.047,1.47l-10.361,6.31c-0.043,0.02-0.06,0.08-0.051,0.183c0.01,0.103,0.037,0.166,0.083,0.19l11.017,3.791
		C61.952,174.229,62.596,174.49,63.035,174.717z M52.94,170.492l4.889-2.965l0.416,4.801L52.94,170.492z"/>
	<path fill="#CA962C" d="M53.354,160.922c0.043,0.002,0.067-0.037,0.071-0.117c0.004-0.082-0.009-0.123-0.038-0.123
		c-1.099-0.362-1.908-0.845-2.431-1.45c-0.521-0.604-0.761-1.354-0.718-2.248c0.019-0.396,0.069-0.687,0.152-0.874
		c0.082-0.187,0.213-0.313,0.392-0.377c0.18-0.065,0.46-0.088,0.841-0.07l10.174,0.487c0.439,0.021,0.764,0.084,0.971,0.19
		c0.209,0.105,0.343,0.295,0.402,0.57c0.061,0.275,0.077,0.697,0.05,1.269c-0.001,0.03,0.042,0.046,0.13,0.05
		s0.133-0.008,0.134-0.038c0.026-0.542,0.039-0.967,0.039-1.275l0.06-1.715l0.109-1.801c0.028-0.292,0.055-0.694,0.08-1.208
		c0.002-0.044-0.041-0.068-0.129-0.072s-0.133,0.016-0.135,0.06c-0.028,0.571-0.084,0.987-0.17,1.248
		c-0.086,0.26-0.234,0.429-0.443,0.507s-0.541,0.106-0.995,0.084l-10.13-0.485c-0.396-0.019-0.684-0.066-0.863-0.141
		c-0.181-0.075-0.303-0.213-0.366-0.414s-0.086-0.507-0.066-0.917c0.044-0.923,0.347-1.643,0.907-2.159
		c0.561-0.516,1.409-0.821,2.544-0.914c0.044-0.012,0.069-0.059,0.073-0.14c0.004-0.08-0.017-0.122-0.061-0.124
		c-0.571-0.027-1.317-0.085-2.238-0.173c-0.921-0.088-1.607-0.165-2.06-0.229c-0.058-0.003-0.089,0.032-0.093,0.104
		c-0.004,0.074,0.023,0.119,0.082,0.136c0.216,0.084,0.354,0.256,0.415,0.516c0.062,0.26,0.078,0.668,0.052,1.225l-0.05,1.496
		c-0.017,0.968-0.046,1.884-0.088,2.749c-0.081,1.685-0.173,3.156-0.277,4.414c-0.04,0.82-0.22,1.223-0.542,1.208
		c-0.074-0.004-0.112,0.035-0.116,0.115c-0.004,0.081,0.031,0.123,0.104,0.126c0.454,0.021,1.13,0.091,2.027,0.207
		C52.053,160.734,52.786,160.836,53.354,160.922z"/>
	<path fill="#CA962C" d="M50.857,145.007c0.087,0.014,0.134,0,0.141-0.044c0.079-0.492,0.177-0.844,0.292-1.056
		c0.115-0.212,0.281-0.345,0.498-0.399c0.217-0.055,0.542-0.047,0.977,0.022l10.059,1.61c0.434,0.069,0.75,0.165,0.945,0.285
		c0.196,0.121,0.313,0.299,0.349,0.535c0.037,0.236,0.016,0.601-0.063,1.093c-0.007,0.043,0.033,0.072,0.12,0.086
		c0.087,0.014,0.134-0.001,0.141-0.044c0.077-0.478,0.13-0.855,0.159-1.133l0.229-1.568l0.279-1.604
		c0.059-0.272,0.125-0.641,0.199-1.104c0.007-0.043-0.033-0.072-0.12-0.086s-0.134,0.001-0.142,0.044
		c-0.078,0.493-0.172,0.845-0.279,1.058c-0.109,0.213-0.27,0.339-0.484,0.379c-0.215,0.041-0.547,0.024-0.995-0.048l-10.015-1.603
		c-0.435-0.069-0.75-0.161-0.947-0.274c-0.197-0.113-0.322-0.289-0.373-0.527c-0.051-0.238-0.038-0.597,0.039-1.074
		c0.006-0.043-0.033-0.072-0.121-0.086c-0.086-0.014-0.133,0.001-0.141,0.044l-0.151,1.09c-0.073,0.642-0.146,1.188-0.218,1.636
		c-0.064,0.405-0.162,0.925-0.293,1.557l-0.203,1.126C50.73,144.965,50.771,144.994,50.857,145.007z"/>
	<path fill="#CA962C" d="M55.39,135.341c0.82,1.035,1.956,1.764,3.406,2.188c1.238,0.362,2.463,0.419,3.675,0.169
		c1.212-0.249,2.272-0.794,3.183-1.636c0.911-0.841,1.559-1.917,1.941-3.226c0.387-1.323,0.436-2.642,0.148-3.957
		c-0.289-1.314-0.869-2.465-1.74-3.454c-0.873-0.988-1.949-1.67-3.23-2.045c-1.154-0.337-2.324-0.385-3.511-0.144
		c-1.187,0.242-2.241,0.777-3.163,1.608c-0.923,0.831-1.58,1.915-1.971,3.251c-0.351,1.197-0.433,2.445-0.247,3.744
		C54.065,133.14,54.569,134.307,55.39,135.341z M54.423,129.122c0.313-1.07,0.875-1.918,1.685-2.545
		c0.81-0.626,1.791-1.004,2.944-1.133c1.153-0.129,2.377-0.004,3.672,0.375c1.225,0.358,2.225,0.861,2.998,1.507
		c0.773,0.647,1.291,1.372,1.553,2.173c0.263,0.803,0.27,1.626,0.023,2.471c-0.289,0.986-0.854,1.779-1.693,2.381
		c-0.842,0.603-1.868,0.967-3.082,1.093c-1.213,0.126-2.488-0.006-3.826-0.397c-1.732-0.506-2.977-1.279-3.734-2.318
		C54.204,131.69,54.024,130.488,54.423,129.122z"/>
	<path fill="#CA962C" d="M57.836,117.879c0.079,0.039,0.125,0.045,0.138,0.019c0.154-0.317,0.383-0.585,0.686-0.805
		c0.303-0.22,0.741-0.418,1.316-0.595l8.665,4.216c0.699,0.34,1.157,0.755,1.376,1.245c0.219,0.49,0.189,1.018-0.086,1.585
		c-0.02,0.04,0.011,0.079,0.09,0.117s0.129,0.038,0.147-0.001c0.192-0.396,0.333-0.702,0.423-0.919l0.549-1.177l0.529-1.039
		c0.104-0.178,0.241-0.445,0.414-0.801c0.014-0.026-0.02-0.059-0.1-0.098c-0.078-0.039-0.125-0.044-0.137-0.018
		c-0.258,0.528-0.638,0.84-1.142,0.937c-0.504,0.098-1.105-0.024-1.805-0.364l-8.052-3.918l15.296-4.032
		c0.039-0.013,0.068-0.056,0.087-0.128c0.02-0.073,0.009-0.118-0.031-0.138l-10.227-4.976c-0.699-0.34-1.166-0.747-1.4-1.22
		c-0.235-0.473-0.225-0.973,0.032-1.501c0.013-0.026-0.021-0.059-0.099-0.097c-0.08-0.039-0.126-0.044-0.139-0.019l-0.404,0.88
		c-0.191,0.461-0.352,0.824-0.479,1.087c-0.135,0.277-0.317,0.62-0.55,1.029l-0.414,0.801c-0.014,0.027,0.02,0.059,0.1,0.098
		c0.078,0.038,0.125,0.044,0.138,0.018c0.25-0.515,0.63-0.819,1.142-0.913c0.51-0.094,1.115,0.029,1.814,0.369l7.002,3.408
		l-11.853,3.041l-0.864,0.167c-0.209,0.029-0.354,0.057-0.432,0.083c-0.078,0.027-0.144,0.094-0.195,0.199
		c-0.108,0.224-0.195,0.418-0.259,0.583l-0.597,1.276c-0.153,0.316-0.279,0.558-0.375,0.722l-0.405,0.782
		C57.724,117.809,57.757,117.841,57.836,117.879z"/>
	<path fill="#CA962C" d="M76.816,107.605c0.189,0.457,0.27,0.846,0.241,1.166c-0.029,0.321-0.162,0.649-0.398,0.984
		c-0.043,0.06-0.027,0.115,0.044,0.166c0.072,0.051,0.13,0.046,0.171-0.014c0.178-0.252,0.391-0.578,0.637-0.979
		c0.28-0.448,0.535-0.834,0.764-1.158c0.236-0.335,0.527-0.722,0.873-1.161c0.311-0.39,0.543-0.694,0.695-0.909
		c0.041-0.06,0.027-0.115-0.045-0.166c-0.072-0.051-0.129-0.046-0.172,0.014c-0.38,0.539-0.783,0.883-1.211,1.03
		c-0.428,0.147-0.85,0.073-1.27-0.223c-0.287-0.203-0.557-0.509-0.807-0.918l-1.332-2.232l3.068-4.351l3.732,0.587
		c0.576,0.101,0.953,0.214,1.133,0.341c0.18,0.127,0.252,0.299,0.215,0.516c-0.035,0.217-0.176,0.499-0.422,0.846
		c-0.033,0.048-0.015,0.097,0.058,0.148c0.071,0.051,0.124,0.052,0.158,0.004c0.161-0.228,0.373-0.554,0.636-0.978
		c0.264-0.424,0.502-0.787,0.713-1.086c0.16-0.228,0.431-0.585,0.81-1.071c0.38-0.486,0.649-0.844,0.81-1.071
		c0.043-0.06,0.027-0.115-0.045-0.166c-0.071-0.051-0.129-0.046-0.171,0.014c-0.228,0.324-0.601,0.515-1.116,0.572
		c-0.517,0.058-1.354-0.008-2.514-0.198l-11.986-1.861c-0.045-0.013-0.098,0.022-0.156,0.106c-0.059,0.084-0.079,0.15-0.061,0.2
		l5.975,10.003C76.303,106.534,76.627,107.148,76.816,107.605z M71.827,97.866l5.646,0.888l-2.777,3.937L71.827,97.866z"/>
	<path fill="#CA962C" d="M76.716,87.374c0.332-0.353,0.607-0.586,0.827-0.703c0.22-0.115,0.432-0.132,0.636-0.051
		c0.205,0.082,0.469,0.273,0.789,0.575l7.422,6.977c0.32,0.301,0.531,0.555,0.631,0.759c0.1,0.205,0.098,0.415-0.004,0.63
		c-0.104,0.216-0.324,0.505-0.666,0.869c-0.021,0.021,0.002,0.063,0.066,0.123c0.063,0.06,0.105,0.08,0.125,0.058l7.053-7.502
		c0.09-0.096,0.132-0.178,0.125-0.245c-0.008-0.067-0.055-0.141-0.14-0.221c-0.663-0.623-1.451-1.455-2.365-2.495
		c-0.032-0.03-0.075-0.021-0.132,0.028c-0.055,0.048-0.072,0.093-0.05,0.134c0.556,0.844,0.798,1.727,0.728,2.646
		c-0.07,0.921-0.461,1.76-1.175,2.519l-0.903,0.961c-0.292,0.31-0.524,0.515-0.697,0.613c-0.174,0.099-0.348,0.112-0.521,0.04
		c-0.173-0.073-0.404-0.245-0.692-0.516l-7.342-6.901c-0.321-0.301-0.531-0.554-0.631-0.758c-0.1-0.204-0.102-0.417-0.004-0.638
		c0.097-0.221,0.311-0.508,0.643-0.86c0.029-0.032,0.013-0.078-0.051-0.139c-0.064-0.06-0.111-0.074-0.143-0.042l-0.736,0.816
		c-0.421,0.491-0.782,0.896-1.084,1.216c-0.281,0.299-0.652,0.674-1.116,1.124l-0.784,0.803c-0.021,0.021,0.002,0.062,0.065,0.123
		C76.654,87.375,76.696,87.395,76.716,87.374z"/>
	<path fill="#CA962C" d="M91.022,73.27c0.393-0.282,0.709-0.458,0.946-0.53c0.237-0.071,0.449-0.047,0.635,0.073
		c0.185,0.12,0.405,0.358,0.662,0.716l5.935,8.279c0.256,0.357,0.41,0.648,0.463,0.873c0.053,0.225,0.008,0.432-0.135,0.624
		c-0.143,0.192-0.416,0.434-0.82,0.724c-0.024,0.017-0.011,0.061,0.041,0.133c0.051,0.071,0.088,0.099,0.112,0.082
		c0.405-0.291,0.717-0.523,0.935-0.697l1.257-0.928c0.346-0.248,0.66-0.464,0.942-0.648c0.283-0.185,0.518-0.335,0.705-0.452
		c0.515-0.314,0.957-0.604,1.326-0.869c1.084-0.777,1.907-1.732,2.467-2.865c0.561-1.132,0.79-2.334,0.689-3.607
		c-0.1-1.271-0.564-2.487-1.393-3.644c-0.735-1.025-1.656-1.763-2.766-2.214c-1.107-0.451-2.303-0.577-3.587-0.379
		c-1.283,0.199-2.533,0.733-3.749,1.605c-0.203,0.145-0.594,0.443-1.172,0.894c-0.464,0.386-0.934,0.75-1.41,1.092
		c-0.311,0.222-0.736,0.509-1.277,0.861l-0.961,0.661c-0.023,0.018-0.01,0.062,0.041,0.133C90.961,73.26,90.998,73.287,91.022,73.27
		z M95.025,70.698c0.231-0.256,0.598-0.564,1.099-0.923c0.822-0.589,1.717-0.865,2.682-0.827c0.967,0.039,1.916,0.351,2.85,0.935
		c0.934,0.585,1.768,1.39,2.503,2.416c0.769,1.073,1.251,2.122,1.444,3.147c0.193,1.025,0.111,1.963-0.244,2.813
		c-0.355,0.851-0.945,1.571-1.768,2.16c-0.727,0.521-1.29,0.768-1.689,0.738c-0.4-0.029-0.775-0.288-1.126-0.777l-5.768-8.046
		c-0.239-0.333-0.354-0.626-0.345-0.876C94.673,71.208,94.794,70.955,95.025,70.698z"/>
	<path fill="#CA962C" d="M111.08,71.811c1.003,0.725,2.122,1.138,3.357,1.24c1.235,0.103,2.466-0.148,3.689-0.75
		c1.236-0.609,2.241-1.464,3.016-2.565s1.23-2.307,1.369-3.618c0.14-1.311-0.087-2.565-0.677-3.763
		c-0.531-1.079-1.287-1.973-2.267-2.684s-2.087-1.126-3.323-1.245c-1.235-0.119-2.479,0.13-3.729,0.746
		c-1.118,0.551-2.094,1.334-2.926,2.349s-1.353,2.175-1.561,3.479c-0.207,1.304,0.022,2.634,0.69,3.989
		C109.291,70.146,110.077,71.087,111.08,71.811z M109.666,62.918c0.253-1.261,1.019-2.206,2.294-2.835
		c1-0.493,2.005-0.652,3.014-0.479c1.01,0.173,1.951,0.641,2.826,1.404c0.874,0.763,1.609,1.75,2.206,2.959
		c0.563,1.145,0.868,2.221,0.915,3.228c0.047,1.007-0.137,1.879-0.551,2.614s-1.017,1.297-1.806,1.687
		c-0.921,0.454-1.888,0.574-2.899,0.362c-1.013-0.213-1.975-0.723-2.889-1.532c-0.914-0.809-1.678-1.838-2.295-3.088
		C109.685,65.619,109.413,64.18,109.666,62.918z"/>
	<path fill="#CA962C" d="M126.918,64.525c0.927,0.848,2.067,1.399,3.421,1.653c1.354,0.254,2.825,0.144,4.414-0.331
		c1.391-0.416,2.912-1.085,4.566-2.007c0.09-0.057,0.145-0.104,0.164-0.141c0.02-0.036,0.018-0.097-0.008-0.181
		c-0.021-0.07-0.096-0.231-0.225-0.484c-0.13-0.252-0.289-0.695-0.478-1.327c-0.239-0.801-0.39-1.368-0.451-1.702
		c-0.062-0.333-0.052-0.57,0.029-0.709c0.081-0.139,0.265-0.243,0.55-0.313c0.07-0.021,0.09-0.081,0.061-0.179
		c-0.008-0.028-0.027-0.057-0.06-0.085c-0.033-0.028-0.062-0.039-0.09-0.031c-0.746,0.269-1.471,0.508-2.173,0.718
		c-0.703,0.21-1.648,0.454-2.836,0.732c-0.027,0.008-0.047,0.033-0.058,0.075c-0.011,0.042-0.009,0.083,0.003,0.125
		c0.033,0.113,0.093,0.156,0.178,0.131c0.717-0.214,1.232-0.314,1.551-0.303c0.317,0.013,0.562,0.15,0.731,0.413
		c0.171,0.263,0.365,0.76,0.583,1.49c0.211,0.703,0.293,1.26,0.247,1.671c-0.046,0.412-0.216,0.738-0.511,0.979
		c-0.295,0.241-0.746,0.452-1.35,0.633c-1.195,0.357-2.343,0.371-3.443,0.041c-1.102-0.329-2.058-0.942-2.869-1.841
		c-0.812-0.897-1.408-1.986-1.791-3.265c-0.36-1.208-0.45-2.341-0.269-3.398c0.182-1.057,0.597-1.95,1.243-2.679
		s1.455-1.239,2.426-1.528c1.236-0.37,2.357-0.303,3.365,0.2c1.008,0.503,1.791,1.153,2.351,1.95c0.03,0.052,0.083,0.06,0.156,0.022
		c0.073-0.038,0.103-0.077,0.091-0.119l-1.105-2.701c-0.068-0.178-0.12-0.286-0.154-0.321c-0.033-0.036-0.121-0.063-0.265-0.082
		c-0.485-0.085-1.077-0.083-1.778,0.003c-0.701,0.086-1.403,0.235-2.105,0.445c-1.532,0.458-2.832,1.156-3.898,2.094
		c-1.066,0.939-1.795,2.033-2.188,3.283s-0.387,2.549,0.017,3.898C125.339,62.621,125.991,63.677,126.918,64.525z"/>
	<path fill="#CA962C" d="M146.684,52.709c0.003,0.044,0.046,0.063,0.126,0.056c0.08-0.006,0.119-0.024,0.117-0.054
		c0.217-1.135,0.592-2.001,1.125-2.596c0.533-0.595,1.246-0.929,2.137-1.001c0.396-0.032,0.69-0.019,0.887,0.039
		c0.195,0.058,0.338,0.171,0.425,0.341s0.146,0.444,0.177,0.824l0.821,10.153c0.036,0.438,0.015,0.768-0.063,0.987
		c-0.078,0.22-0.25,0.377-0.514,0.472c-0.265,0.095-0.682,0.166-1.252,0.211c-0.029,0.002-0.041,0.047-0.033,0.135
		c0.007,0.088,0.025,0.13,0.055,0.128c0.541-0.043,0.964-0.085,1.27-0.125l1.709-0.161l1.8-0.123
		c0.294-0.009,0.696-0.035,1.208-0.076c0.043-0.004,0.063-0.049,0.055-0.137c-0.007-0.087-0.032-0.129-0.076-0.126
		c-0.57,0.046-0.99,0.043-1.259-0.009c-0.269-0.052-0.456-0.176-0.56-0.374c-0.104-0.197-0.176-0.523-0.212-0.976l-0.817-10.109
		c-0.031-0.395-0.022-0.686,0.029-0.875c0.051-0.188,0.172-0.326,0.363-0.416c0.191-0.089,0.492-0.15,0.9-0.183
		c0.922-0.075,1.674,0.133,2.258,0.623c0.584,0.49,0.994,1.292,1.232,2.405c0.018,0.043,0.066,0.061,0.147,0.055
		c0.08-0.007,0.119-0.032,0.115-0.076c-0.046-0.57-0.085-1.317-0.114-2.242c-0.031-0.924-0.043-1.615-0.035-2.072
		c-0.006-0.058-0.045-0.085-0.117-0.079c-0.073,0.006-0.115,0.039-0.125,0.098c-0.055,0.225-0.208,0.385-0.457,0.479
		c-0.25,0.094-0.653,0.163-1.209,0.208l-1.489,0.143c-0.962,0.107-1.875,0.196-2.737,0.266c-1.682,0.136-3.152,0.232-4.413,0.291
		c-0.819,0.066-1.241-0.062-1.267-0.383c-0.006-0.073-0.049-0.106-0.13-0.1c-0.081,0.006-0.118,0.046-0.112,0.119
		c0.037,0.454,0.055,1.132,0.055,2.037C146.702,51.395,146.696,52.134,146.684,52.709z"/>
	<path fill="#CA962C" d="M161.637,61.62c0.481,0.032,0.862,0.05,1.143,0.054l1.582,0.083l1.623,0.13
		c0.262,0.032,0.635,0.064,1.117,0.097c0.028,0.002,0.047-0.041,0.053-0.129s-0.006-0.133-0.035-0.135
		c-0.496-0.033-0.857-0.093-1.078-0.182c-0.223-0.088-0.367-0.237-0.434-0.448c-0.066-0.21-0.086-0.542-0.056-0.996l0.326-4.895
		c0.437,0.059,0.815,0.098,1.14,0.12c0.174,0.012,0.424,0.014,0.748,0.006c1.162,2.194,2.162,3.907,2.998,5.139
		c0.838,1.231,1.424,1.858,1.76,1.881l3.502,0.233c0.27,0.057,0.578,0.115,0.955,0.176c0.521,0.088,0.976,0.176,1.36,0.264
		c0.4,0.091,0.869,0.212,1.406,0.365c0.479,0.139,0.849,0.238,1.106,0.296c0.07,0.017,0.115-0.019,0.136-0.104
		c0.02-0.086-0.007-0.137-0.077-0.153c-0.645-0.146-1.115-0.389-1.414-0.727c-0.3-0.339-0.393-0.758-0.277-1.259
		c0.077-0.343,0.258-0.708,0.541-1.095l1.557-2.083l5.191,1.179l0.881,3.674c0.125,0.57,0.164,0.962,0.115,1.177
		c-0.049,0.214-0.181,0.346-0.395,0.396c-0.215,0.05-0.529,0.026-0.943-0.068c-0.059-0.013-0.096,0.023-0.115,0.109
		c-0.019,0.086,0,0.135,0.057,0.148c0.271,0.062,0.654,0.134,1.146,0.215c0.493,0.082,0.918,0.164,1.275,0.245
		c0.271,0.062,0.705,0.175,1.299,0.34c0.595,0.166,1.027,0.278,1.3,0.34c0.071,0.016,0.116-0.019,0.136-0.104
		c0.021-0.085-0.006-0.137-0.078-0.153c-0.385-0.087-0.703-0.359-0.953-0.814s-0.508-1.255-0.774-2.398l-2.851-11.792
		c-0.004-0.046-0.057-0.081-0.155-0.104c-0.101-0.023-0.17-0.016-0.208,0.021l-6.971,9.336c-0.541,0.72-0.984,1.254-1.336,1.603
		c-0.35,0.349-0.678,0.572-0.985,0.667c-0.308,0.095-0.661,0.098-1.062,0.007c-0.009-0.002-0.013,0.003-0.02,0.003
		c-0.531-0.08-1.063-0.326-1.587-0.759c-0.593-0.487-1.259-1.255-1.996-2.305c-0.737-1.048-1.647-2.498-2.729-4.349
		c0.771-0.331,1.401-0.803,1.891-1.417c0.49-0.614,0.762-1.324,0.814-2.129c0.059-0.893-0.242-1.611-0.904-2.155
		c-0.662-0.543-1.629-0.858-2.902-0.943c-0.336-0.022-0.641-0.035-0.912-0.039s-0.504-0.004-0.695-0.002
		c-0.572,0.006-1.102-0.007-1.584-0.039c-0.396-0.026-0.914-0.075-1.557-0.148l-1.139-0.098c-0.03-0.002-0.047,0.041-0.053,0.129
		c-0.006,0.087,0.004,0.132,0.035,0.134c0.481,0.032,0.838,0.097,1.065,0.192c0.229,0.096,0.377,0.25,0.442,0.459
		c0.066,0.21,0.086,0.535,0.058,0.974l-0.677,10.164c-0.028,0.439-0.096,0.762-0.196,0.968c-0.103,0.207-0.271,0.339-0.5,0.397
		c-0.231,0.058-0.597,0.07-1.095,0.037c-0.045-0.003-0.068,0.04-0.074,0.127S161.591,61.617,161.637,61.62z M185.042,53.282
		l1.332,5.559l-4.698-1.067L185.042,53.282z M166.227,49.975c0.037-0.556,0.184-0.932,0.438-1.128
		c0.256-0.196,0.67-0.275,1.24-0.237c0.762,0.051,1.326,0.324,1.699,0.819c0.371,0.495,0.518,1.335,0.438,2.521
		c-0.07,1.054-0.326,1.805-0.768,2.253c-0.441,0.449-1.137,0.641-2.088,0.578c-0.498-0.033-0.92-0.09-1.269-0.172L166.227,49.975z"
		/>
	<path fill="#CA962C" d="M193.197,66.979l1.498,0.513l1.525,0.569c0.258,0.107,0.607,0.24,1.051,0.398
		c0.041,0.015,0.076-0.019,0.105-0.102s0.023-0.131-0.018-0.146c-0.471-0.168-0.801-0.324-0.989-0.47s-0.284-0.327-0.283-0.545
		c-0.001-0.218,0.076-0.541,0.229-0.969l3.412-9.55c0.148-0.414,0.297-0.708,0.443-0.881s0.344-0.263,0.587-0.269
		c0.244-0.007,0.595,0.072,1.05,0.235c0.041,0.015,0.076-0.02,0.106-0.103c0.028-0.083,0.022-0.131-0.019-0.146l-1.043-0.349
		c-0.617-0.189-1.142-0.361-1.568-0.514c-0.387-0.138-0.879-0.33-1.477-0.575l-1.07-0.406c-0.041-0.015-0.076,0.02-0.106,0.102
		c-0.028,0.083-0.022,0.132,0.019,0.146c0.47,0.168,0.797,0.328,0.984,0.48c0.188,0.153,0.287,0.34,0.301,0.563
		c0.015,0.223-0.054,0.542-0.201,0.956l-3.428,9.591c-0.148,0.415-0.301,0.707-0.455,0.877c-0.154,0.171-0.351,0.252-0.59,0.245
		c-0.238-0.007-0.593-0.095-1.063-0.263c-0.041-0.015-0.076,0.019-0.106,0.102c-0.028,0.083-0.022,0.132,0.019,0.146
		C192.568,66.778,192.93,66.899,193.197,66.979z"/>
	<path fill="#CA962C" d="M200.82,68.816c-0.492,0.212-1.021,0.177-1.584-0.105c-0.039-0.02-0.079,0.01-0.118,0.088
		c-0.039,0.078-0.04,0.128,0,0.147c0.394,0.197,0.696,0.342,0.914,0.434l1.17,0.563l1.032,0.542
		c0.177,0.105,0.441,0.247,0.797,0.424c0.025,0.013,0.059-0.02,0.099-0.098c0.039-0.079,0.046-0.125,0.021-0.138
		c-0.524-0.263-0.832-0.647-0.924-1.152s0.037-1.105,0.387-1.8l4.016-8.003l3.846,15.344c0.014,0.039,0.057,0.068,0.127,0.088
		c0.072,0.02,0.119,0.01,0.14-0.029l5.1-10.166c0.349-0.695,0.761-1.157,1.237-1.386s0.977-0.212,1.5,0.051
		c0.025,0.013,0.061-0.02,0.1-0.098c0.038-0.078,0.045-0.125,0.02-0.138l-0.875-0.415c-0.459-0.197-0.819-0.362-1.081-0.493
		c-0.275-0.138-0.616-0.326-1.022-0.563l-0.797-0.424c-0.025-0.013-0.059,0.02-0.099,0.098c-0.039,0.079-0.046,0.125-0.021,0.138
		c0.512,0.256,0.812,0.641,0.898,1.152c0.087,0.511-0.042,1.115-0.391,1.81l-3.492,6.961l-2.896-11.889l-0.156-0.866
		c-0.025-0.21-0.052-0.354-0.078-0.433c-0.025-0.079-0.092-0.145-0.195-0.197c-0.225-0.112-0.416-0.201-0.58-0.267l-1.27-0.612
		c-0.313-0.158-0.554-0.286-0.718-0.385l-0.776-0.414c-0.025-0.013-0.06,0.02-0.099,0.098c-0.038,0.078-0.046,0.125-0.021,0.138
		c0.314,0.158,0.58,0.39,0.797,0.695c0.216,0.305,0.408,0.747,0.578,1.324l-4.321,8.613C201.732,68.15,201.313,68.604,200.82,68.816
		z"/>
	<path fill="#CA962C" d="M221.906,66.118c0.145,0.193,0.197,0.399,0.156,0.619c-0.041,0.22-0.183,0.513-0.426,0.879l-5.636,8.485
		c-0.243,0.367-0.461,0.614-0.651,0.743c-0.19,0.128-0.4,0.16-0.631,0.096c-0.229-0.065-0.554-0.235-0.969-0.511
		c-0.036-0.024-0.079,0-0.128,0.074c-0.049,0.074-0.056,0.122-0.019,0.146c0.403,0.268,0.726,0.473,0.965,0.615l1.332,0.858
		l1.345,0.919c0.224,0.167,0.53,0.379,0.922,0.639c0.037,0.024,0.08,0,0.129-0.074c0.048-0.073,0.056-0.122,0.019-0.146
		c-0.416-0.276-0.697-0.507-0.848-0.694c-0.148-0.187-0.195-0.386-0.144-0.598s0.204-0.507,0.456-0.886l5.609-8.448
		c0.244-0.367,0.459-0.616,0.644-0.749s0.396-0.173,0.635-0.12c0.237,0.052,0.56,0.212,0.962,0.48c0.036,0.024,0.079,0,0.128-0.074
		c0.05-0.074,0.056-0.122,0.019-0.146l-0.928-0.59c-0.556-0.333-1.021-0.625-1.399-0.876c-0.343-0.228-0.773-0.532-1.296-0.913
		l-0.939-0.651c-0.037-0.024-0.08,0-0.129,0.074c-0.048,0.073-0.055,0.122-0.018,0.146C221.48,65.69,221.762,65.925,221.906,66.118z
		"/>
	<path fill="#CA962C" d="M229.119,71.129c0.137,0.348,0.218,0.823,0.244,1.424l-6.26,7.325c-0.506,0.591-1.022,0.931-1.551,1.019
		c-0.529,0.088-1.033-0.073-1.514-0.482c-0.033-0.028-0.079-0.009-0.137,0.058c-0.057,0.067-0.068,0.115-0.035,0.143
		c0.335,0.286,0.596,0.5,0.783,0.641l1.002,0.826l0.871,0.774c0.146,0.145,0.371,0.346,0.672,0.603
		c0.021,0.019,0.063-0.005,0.119-0.072c0.058-0.067,0.074-0.11,0.053-0.129c-0.446-0.381-0.652-0.828-0.62-1.34
		c0.033-0.512,0.302-1.064,0.808-1.655l5.816-6.807l0.055,15.818c0.004,0.041,0.037,0.08,0.104,0.117
		c0.064,0.036,0.111,0.038,0.141,0.004l7.391-8.646c0.504-0.591,1.016-0.941,1.531-1.049c0.518-0.108,0.998,0.028,1.444,0.409
		c0.022,0.019,0.063-0.004,0.119-0.071c0.058-0.067,0.075-0.11,0.053-0.129l-0.75-0.612c-0.397-0.302-0.709-0.548-0.933-0.738
		c-0.233-0.2-0.521-0.464-0.857-0.791l-0.671-0.603c-0.022-0.019-0.063,0.005-0.12,0.072c-0.057,0.067-0.074,0.11-0.052,0.129
		c0.435,0.372,0.634,0.816,0.596,1.334c-0.037,0.518-0.31,1.072-0.813,1.663l-5.06,5.921l0.039-12.237l0.058-0.878
		c0.023-0.21,0.033-0.356,0.026-0.439s-0.055-0.162-0.144-0.238c-0.189-0.162-0.355-0.294-0.5-0.398l-1.084-0.898
		c-0.269-0.229-0.469-0.411-0.604-0.545l-0.653-0.588c-0.022-0.02-0.063,0.005-0.119,0.072c-0.059,0.067-0.075,0.109-0.053,0.129
		C228.779,70.493,228.982,70.781,229.119,71.129z"/>
	<path fill="#CA962C" d="M235.307,90.037c-0.406,1.188-0.455,2.454-0.146,3.797c0.31,1.342,0.998,2.646,2.067,3.912
		c0.938,1.109,2.16,2.236,3.668,3.382c0.088,0.059,0.152,0.091,0.193,0.094c0.042,0.003,0.096-0.023,0.163-0.08
		c0.056-0.047,0.174-0.181,0.354-0.4c0.18-0.219,0.521-0.542,1.024-0.968c0.64-0.54,1.099-0.904,1.38-1.094
		c0.28-0.19,0.502-0.276,0.661-0.257c0.16,0.019,0.328,0.145,0.507,0.378c0.049,0.056,0.11,0.051,0.188-0.016
		c0.022-0.019,0.041-0.048,0.055-0.089c0.015-0.041,0.011-0.072-0.008-0.094c-0.545-0.577-1.056-1.145-1.526-1.705
		c-0.475-0.56-1.076-1.329-1.807-2.305c-0.02-0.023-0.05-0.03-0.092-0.023c-0.042,0.007-0.08,0.024-0.113,0.053
		c-0.09,0.076-0.105,0.147-0.05,0.214c0.483,0.571,0.782,1.005,0.897,1.301c0.115,0.296,0.088,0.575-0.086,0.836
		c-0.173,0.261-0.55,0.638-1.133,1.13c-0.561,0.474-1.037,0.772-1.433,0.895s-0.763,0.098-1.103-0.077
		c-0.34-0.174-0.713-0.502-1.119-0.983c-0.806-0.952-1.277-1.999-1.416-3.139c-0.14-1.141,0.041-2.263,0.539-3.366
		s1.258-2.085,2.275-2.947c0.964-0.814,1.966-1.35,3.007-1.606s2.025-0.233,2.953,0.068c0.927,0.301,1.718,0.838,2.37,1.611
		c0.834,0.986,1.223,2.041,1.164,3.165s-0.34,2.103-0.848,2.934c-0.035,0.049-0.021,0.1,0.043,0.152
		c0.063,0.052,0.11,0.064,0.146,0.036l2.032-2.093c0.137-0.134,0.214-0.224,0.232-0.27c0.021-0.045,0.01-0.137-0.031-0.276
		c-0.115-0.478-0.354-1.021-0.715-1.628c-0.36-0.607-0.775-1.192-1.25-1.751c-1.031-1.221-2.191-2.132-3.479-2.734
		c-1.287-0.602-2.582-0.833-3.884-0.692c-1.304,0.141-2.491,0.666-3.566,1.575C236.421,87.828,235.713,88.848,235.307,90.037z"/>
	<path fill="#CA962C" d="M256.489,103.848l-8.925,4.91c-0.398,0.219-0.707,0.343-0.926,0.371c-0.22,0.028-0.414-0.036-0.584-0.193
		c-0.171-0.157-0.375-0.455-0.615-0.892c-0.021-0.039-0.07-0.037-0.147,0.006s-0.104,0.083-0.084,0.122
		c0.233,0.424,0.423,0.754,0.569,0.992l0.783,1.377l0.903,1.688c0.149,0.303,0.369,0.717,0.659,1.245
		c0.021,0.039,0.07,0.037,0.146-0.006c0.078-0.043,0.105-0.083,0.084-0.122c-0.324-0.591-0.524-1.046-0.601-1.365
		c-0.075-0.319-0.046-0.578,0.088-0.776c0.134-0.199,0.405-0.411,0.816-0.638l8.81-4.846c0.372-0.205,0.663-0.323,0.872-0.354
		c0.209-0.031,0.39,0.016,0.542,0.141s0.313,0.342,0.483,0.65c0.46,0.835,0.54,1.644,0.243,2.427
		c-0.299,0.783-0.955,1.454-1.969,2.012c-1.029,0.566-1.947,0.769-2.754,0.61c-0.807-0.158-1.395-0.572-1.762-1.24
		c-0.135-0.244-0.232-0.483-0.294-0.717c-0.002-0.033-0.026-0.048-0.076-0.046c-0.049,0.002-0.093,0.014-0.131,0.035
		c-0.063,0.036-0.086,0.072-0.063,0.111c0.068,0.279,0.203,0.599,0.4,0.959c0.375,0.681,0.882,1.269,1.521,1.762
		c0.639,0.493,1.356,0.793,2.151,0.9s1.599-0.063,2.407-0.508c1.118-0.615,1.744-1.441,1.877-2.477
		c0.133-1.036-0.15-2.19-0.85-3.462c-0.198-0.36-0.377-0.668-0.534-0.924s-0.285-0.458-0.384-0.605
		c-0.271-0.403-0.488-0.752-0.65-1.047c-0.191-0.347-0.43-0.81-0.715-1.39l-0.532-1.013c-0.021-0.039-0.069-0.037-0.147,0.006
		c-0.076,0.043-0.104,0.083-0.084,0.122c0.233,0.424,0.369,0.755,0.408,0.993s-0.012,0.442-0.152,0.611
		C257.139,103.445,256.875,103.636,256.489,103.848z"/>
	<path fill="#CA962C" d="M262.889,116.265l-9.521,3.616c-0.412,0.156-0.732,0.231-0.963,0.224c-0.229-0.007-0.42-0.104-0.568-0.29
		s-0.313-0.513-0.488-0.979c-0.017-0.041-0.064-0.046-0.147-0.015c-0.082,0.031-0.115,0.067-0.101,0.108
		c0.172,0.453,0.313,0.806,0.428,1.062l0.582,1.473l0.559,1.53c0.079,0.252,0.205,0.604,0.377,1.057
		c0.012,0.027,0.057,0.025,0.141-0.005c0.082-0.031,0.117-0.061,0.106-0.088c-0.177-0.466-0.271-0.818-0.284-1.057
		c-0.012-0.239,0.063-0.432,0.229-0.58c0.162-0.148,0.457-0.303,0.882-0.465l4.587-1.742c0.129,0.422,0.25,0.784,0.365,1.085
		c0.063,0.165,0.164,0.392,0.307,0.684c-1.512,1.97-2.652,3.592-3.424,4.865s-1.098,2.068-0.979,2.383l1.258,3.312
		c0.016,0.041,0.064,0.046,0.146,0.015s0.115-0.067,0.1-0.108c-0.213-0.563-0.222-1.214-0.023-1.956
		c0.195-0.742,0.618-1.667,1.264-2.775c0.646-1.108,1.586-2.54,2.817-4.293c0.622,0.564,1.313,0.94,2.075,1.129
		c0.763,0.189,1.521,0.141,2.274-0.146c0.837-0.317,1.364-0.891,1.583-1.719c0.219-0.829,0.102-1.839-0.352-3.032
		c-0.119-0.315-0.234-0.597-0.346-0.846c-0.11-0.249-0.205-0.459-0.287-0.632c-0.243-0.52-0.451-1.005-0.623-1.458
		c-0.141-0.37-0.313-0.862-0.514-1.476l-0.386-1.077c-0.011-0.028-0.057-0.025-0.14,0.006c-0.082,0.031-0.118,0.06-0.107,0.088
		c0.172,0.453,0.262,0.803,0.27,1.051c0.009,0.248-0.069,0.446-0.232,0.594C263.587,115.957,263.3,116.109,262.889,116.265z
		 M264.807,118.185c0.283,0.151,0.527,0.493,0.73,1.028c0.271,0.712,0.259,1.341-0.037,1.885c-0.296,0.543-0.999,1.026-2.109,1.448
		c-0.986,0.375-1.775,0.455-2.367,0.24c-0.592-0.215-1.057-0.768-1.396-1.659c-0.177-0.466-0.301-0.875-0.37-1.224l4.34-1.648
		C264.118,118.057,264.521,118.034,264.807,118.185z"/>
	<path fill="#CA962C" d="M262.878,130.915c-1.263,0.268-2.368,0.798-3.317,1.592c-0.947,0.793-1.623,1.776-2.026,2.949
		s-0.464,2.426-0.181,3.761c0.285,1.348,0.867,2.533,1.744,3.554c0.875,1.021,1.932,1.76,3.168,2.217
		c1.236,0.458,2.508,0.547,3.813,0.271c1.176-0.25,2.229-0.762,3.159-1.537c0.931-0.774,1.604-1.746,2.023-2.915
		c0.42-1.169,0.484-2.434,0.195-3.797c-0.259-1.22-0.777-2.358-1.557-3.415c-0.779-1.057-1.775-1.846-2.987-2.368
		C265.701,130.706,264.355,130.602,262.878,130.915z M268.527,133.326c1.16,0.556,1.889,1.529,2.184,2.921
		c0.23,1.09,0.139,2.103-0.277,3.039c-0.416,0.935-1.102,1.733-2.056,2.393c-0.955,0.66-2.092,1.13-3.412,1.41
		c-1.247,0.265-2.366,0.296-3.354,0.093c-0.986-0.203-1.786-0.596-2.396-1.178c-0.611-0.583-1.008-1.304-1.189-2.165
		c-0.213-1.004-0.092-1.971,0.363-2.9c0.455-0.929,1.187-1.736,2.194-2.422s2.194-1.174,3.558-1.463
		C265.906,132.679,267.368,132.77,268.527,133.326z"/>
	<path fill="#CA962C" d="M261.193,150.331c-0.438,0.028-0.768,0.006-0.984-0.068c-0.217-0.074-0.371-0.229-0.46-0.466
		c-0.089-0.236-0.149-0.618-0.185-1.145c-0.004-0.044-0.049-0.063-0.137-0.058c-0.088,0.006-0.131,0.031-0.128,0.075
		c0.032,0.497,0.064,0.885,0.099,1.162l0.125,1.601l0.119,2.153c0.006,0.337,0.029,0.806,0.068,1.406
		c0.002,0.029,0.047,0.041,0.135,0.036c0.088-0.006,0.131-0.023,0.129-0.053c-0.047-0.717-0.037-1.25,0.028-1.6
		s0.2-0.59,0.404-0.721c0.205-0.131,0.541-0.211,1.01-0.242l4.72-0.307l0.114,1.756c0.109,1.683-0.458,2.565-1.702,2.646
		c-0.044,0.003-0.063,0.048-0.057,0.136c0.006,0.087,0.029,0.13,0.074,0.127l1.14-0.096c0.22-0.029,0.556-0.058,1.009-0.088
		l1.934-0.104c0.029-0.002,0.041-0.047,0.035-0.134c-0.006-0.088-0.022-0.131-0.053-0.129c-1.098,0.071-1.699-0.713-1.806-2.352
		l-0.117-1.8l4.765-0.31c0.438-0.028,0.76,0.061,0.965,0.268s0.324,0.574,0.357,1.101l0.059,0.878
		c0.108,1.683-0.659,2.755-2.305,3.214c-0.044,0.018-0.056,0.066-0.035,0.146c0.021,0.08,0.045,0.119,0.073,0.117l2.853-0.229
		c0.132-0.008,0.191-0.086,0.183-0.232l-0.593-9.133c-0.003-0.044-0.049-0.063-0.137-0.057s-0.131,0.03-0.127,0.074
		c0.03,0.483,0.014,0.844-0.051,1.084c-0.066,0.239-0.199,0.406-0.397,0.5c-0.2,0.094-0.521,0.155-0.958,0.184L261.193,150.331z"/>
	<path fill="#CA962C" d="M273.423,161.006c-0.026,0.483-0.086,0.84-0.179,1.07c-0.094,0.229-0.245,0.38-0.454,0.449
		c-0.21,0.068-0.534,0.093-0.974,0.068l-10.172-0.548c-0.438-0.024-0.763-0.082-0.971-0.174s-0.343-0.254-0.402-0.483
		c-0.063-0.231-0.078-0.597-0.053-1.094c0.002-0.044-0.039-0.068-0.128-0.073c-0.088-0.005-0.133,0.015-0.136,0.059l-0.514,9.533
		c-0.008,0.133,0.014,0.222,0.063,0.269c0.048,0.047,0.131,0.073,0.249,0.079c0.922,0.05,1.937,0.178,3.041,0.385
		c0.015,0.001,0.034-0.017,0.06-0.052c0.022-0.036,0.037-0.075,0.039-0.119c0.002-0.06-0.011-0.089-0.039-0.091
		c-1.877-0.631-2.762-1.926-2.656-3.889l0.06-1.076c0.024-0.469,0.138-0.789,0.338-0.963c0.2-0.172,0.542-0.246,1.025-0.221
		l4.987,0.271l-0.113,2.087c-0.088,1.64-0.762,2.426-2.021,2.357c-0.029-0.002-0.046,0.041-0.051,0.129s0.007,0.134,0.037,0.136
		c0.292,0.016,0.674,0.021,1.145,0.018l1.033,0.033l1.91,0.125c0.044,0.003,0.068-0.037,0.072-0.117
		c0.005-0.081-0.016-0.122-0.061-0.124c-1.084-0.059-1.582-0.894-1.494-2.504l0.112-2.109l4.481,0.242
		c0.453,0.023,0.771,0.15,0.949,0.381c0.179,0.229,0.254,0.608,0.226,1.137l-0.048,0.879c-0.092,1.684-0.98,2.656-2.67,2.918
		c-0.043,0.013-0.062,0.061-0.051,0.141c0.011,0.081,0.029,0.123,0.06,0.125l2.858,0.109c0.131,0.007,0.201-0.063,0.209-0.209
		l0.492-9.139c0.002-0.045-0.041-0.068-0.129-0.073C273.471,160.943,273.425,160.962,273.423,161.006z"/>
	<path fill="#CA962C" d="M271.141,176.068c-0.447-0.51-1.047-0.83-1.798-0.961c-0.606-0.106-1.161-0.063-1.665,0.134
		c-0.503,0.194-0.943,0.46-1.322,0.796s-0.853,0.813-1.422,1.427c-0.586,0.627-1.072,1.119-1.463,1.476
		c-0.39,0.357-0.848,0.635-1.373,0.832c-0.525,0.199-1.106,0.242-1.742,0.133c-0.795-0.139-1.326-0.447-1.592-0.926
		c-0.268-0.479-0.346-1.028-0.236-1.649c0.166-0.953,0.686-1.671,1.559-2.149c0.873-0.481,1.95-0.854,3.232-1.123
		c0.061-0.005,0.094-0.043,0.1-0.117c0.005-0.072-0.021-0.114-0.079-0.125l-0.021-0.004l-3.317-0.444
		c-0.19-0.019-0.34,0.03-0.449,0.146c-0.288,0.291-0.569,0.745-0.841,1.36c-0.271,0.614-0.459,1.228-0.564,1.833
		c-0.156,0.896-0.133,1.723,0.068,2.48c0.203,0.756,0.561,1.377,1.071,1.86s1.135,0.79,1.872,0.919
		c0.65,0.113,1.242,0.063,1.777-0.146c0.537-0.213,1.008-0.502,1.414-0.87s0.905-0.88,1.496-1.536
		c0.538-0.605,0.993-1.081,1.366-1.426c0.372-0.346,0.788-0.614,1.246-0.811c0.459-0.195,0.955-0.246,1.49-0.152
		c0.649,0.113,1.129,0.395,1.438,0.843c0.31,0.448,0.406,0.998,0.294,1.647c-0.17,0.969-0.654,1.631-1.453,1.99
		c-0.801,0.359-1.666,0.605-2.599,0.742c-0.046,0.006-0.067,0.051-0.067,0.133s0.022,0.127,0.065,0.135l2.959,0.449
		c0.188,0.032,0.345-0.052,0.47-0.253c0.201-0.308,0.393-0.698,0.572-1.173c0.18-0.477,0.313-0.959,0.396-1.449
		c0.129-0.736,0.125-1.464-0.01-2.18C271.879,177.191,271.588,176.578,271.141,176.068z"/>
	<path fill="#CA962C" d="M266.902,187.391c-0.59-0.175-1.146-0.195-1.668-0.06c-0.521,0.136-0.99,0.349-1.405,0.64
		c-0.416,0.288-0.94,0.706-1.577,1.252c-0.654,0.555-1.195,0.986-1.625,1.297c-0.428,0.309-0.915,0.53-1.46,0.666
		c-0.546,0.138-1.128,0.113-1.746-0.069c-0.772-0.229-1.265-0.599-1.474-1.104c-0.211-0.507-0.225-1.062-0.045-1.666
		c0.275-0.928,0.875-1.58,1.798-1.955c0.922-0.377,2.036-0.623,3.341-0.74c0.061,0.002,0.098-0.032,0.111-0.104
		c0.013-0.071-0.008-0.116-0.063-0.134l-0.021-0.006l-3.243-0.826c-0.187-0.04-0.341-0.01-0.464,0.092
		c-0.32,0.258-0.651,0.676-0.991,1.255c-0.341,0.579-0.599,1.164-0.774,1.755c-0.259,0.873-0.33,1.695-0.218,2.473
		c0.114,0.775,0.396,1.434,0.849,1.973c0.451,0.54,1.037,0.916,1.754,1.129c0.633,0.188,1.228,0.208,1.783,0.061
		c0.557-0.148,1.059-0.383,1.506-0.7c0.445-0.319,1-0.771,1.664-1.354c0.604-0.539,1.11-0.959,1.521-1.258
		c0.409-0.299,0.854-0.52,1.332-0.66s0.978-0.134,1.497,0.021c0.633,0.188,1.076,0.521,1.33,1.004
		c0.256,0.48,0.289,1.038,0.102,1.671c-0.279,0.94-0.838,1.545-1.674,1.81s-1.725,0.409-2.665,0.437
		c-0.047,0.001-0.074,0.043-0.083,0.125c-0.009,0.081,0.008,0.128,0.05,0.141l2.888,0.789c0.183,0.054,0.348-0.012,0.494-0.196
		c0.236-0.283,0.471-0.648,0.705-1.1c0.233-0.451,0.422-0.916,0.563-1.395c0.213-0.717,0.294-1.438,0.241-2.166
		c-0.051-0.727-0.271-1.368-0.654-1.928C268.193,187.996,267.635,187.607,266.902,187.391z"/>
	<path fill="#CA962C" d="M266.314,199.458c-0.08-0.033-0.131-0.03-0.146,0.011c-0.188,0.463-0.362,0.783-0.522,0.965
		c-0.16,0.18-0.353,0.271-0.576,0.275c-0.223,0.004-0.537-0.077-0.945-0.242l-9.436-3.837c-0.408-0.165-0.693-0.329-0.857-0.489
		c-0.164-0.162-0.236-0.363-0.221-0.601c0.019-0.239,0.121-0.589,0.31-1.052c0.017-0.04-0.017-0.077-0.098-0.109
		c-0.081-0.033-0.13-0.029-0.146,0.012c-0.183,0.447-0.319,0.805-0.411,1.067l-0.576,1.476l-0.633,1.5
		c-0.119,0.252-0.267,0.596-0.442,1.031c-0.017,0.04,0.016,0.077,0.098,0.11c0.081,0.032,0.131,0.028,0.146-0.013
		c0.188-0.461,0.358-0.783,0.514-0.967c0.152-0.184,0.339-0.271,0.557-0.261c0.219,0.01,0.537,0.101,0.959,0.271l9.396,3.819
		c0.406,0.166,0.693,0.326,0.861,0.479c0.166,0.156,0.246,0.354,0.242,0.6c-0.004,0.243-0.097,0.59-0.279,1.038
		c-0.017,0.04,0.017,0.077,0.099,0.11c0.081,0.033,0.13,0.029,0.146-0.012l0.396-1.027c0.216-0.608,0.409-1.125,0.58-1.545
		c0.155-0.381,0.366-0.864,0.638-1.45l0.451-1.052C266.43,199.527,266.396,199.49,266.314,199.458z"/>
	<path fill="#CA962C" d="M256.898,204.941c-1.125-0.631-2.307-0.963-3.543-0.992c-1.235-0.029-2.393,0.263-3.47,0.878
		c-1.075,0.614-1.948,1.517-2.616,2.706c-0.676,1.201-1.021,2.476-1.035,3.82c-0.017,1.346,0.289,2.599,0.918,3.758
		c0.627,1.16,1.521,2.065,2.687,2.721c1.048,0.589,2.179,0.898,3.388,0.932c1.211,0.03,2.358-0.254,3.444-0.854
		c1.086-0.603,1.97-1.511,2.651-2.726c0.611-1.086,0.973-2.285,1.085-3.593c0.11-1.308-0.115-2.559-0.683-3.751
		C259.158,206.648,258.217,205.682,256.898,204.941z M259.266,214.118c-0.545,0.972-1.283,1.672-2.213,2.1
		c-0.931,0.429-1.972,0.575-3.123,0.441c-1.154-0.136-2.318-0.532-3.494-1.192c-1.113-0.625-1.974-1.339-2.582-2.144
		c-0.607-0.804-0.949-1.628-1.023-2.468s0.104-1.646,0.535-2.412c0.502-0.896,1.23-1.541,2.186-1.938s2.038-0.521,3.249-0.371
		c1.211,0.15,2.425,0.566,3.64,1.249c1.572,0.883,2.61,1.916,3.115,3.1C260.059,211.665,259.963,212.877,259.266,214.118z"/>
	<path fill="#CA962C" d="M253.288,224.243c-0.222,0.274-0.503,0.483-0.849,0.631c-0.344,0.146-0.815,0.241-1.416,0.285l-7.502-6.05
		c-0.604-0.487-0.959-0.994-1.063-1.521s0.043-1.034,0.439-1.526c0.026-0.033,0.006-0.078-0.063-0.133
		c-0.068-0.057-0.117-0.065-0.145-0.031c-0.276,0.343-0.482,0.608-0.619,0.802l-0.797,1.022l-0.75,0.896
		c-0.14,0.149-0.334,0.38-0.582,0.688c-0.02,0.021,0.007,0.062,0.074,0.116c0.068,0.056,0.112,0.071,0.131,0.048
		c0.369-0.455,0.81-0.676,1.322-0.656c0.512,0.018,1.071,0.271,1.678,0.759l6.97,5.62l-15.81,0.506
		c-0.043,0.005-0.08,0.039-0.115,0.105c-0.033,0.066-0.034,0.113,0,0.141l8.854,7.141c0.605,0.487,0.971,0.988,1.092,1.502
		c0.123,0.514,0.002,0.999-0.367,1.455c-0.019,0.023,0.006,0.063,0.074,0.117c0.069,0.056,0.112,0.07,0.131,0.049l0.592-0.768
		c0.289-0.406,0.526-0.725,0.711-0.952c0.193-0.24,0.447-0.533,0.767-0.88l0.583-0.688c0.02-0.022-0.007-0.062-0.074-0.116
		c-0.068-0.056-0.113-0.072-0.132-0.05c-0.358,0.445-0.798,0.657-1.315,0.634c-0.52-0.021-1.08-0.277-1.687-0.766l-6.063-4.889
		l12.232-0.311l0.88,0.03c0.212,0.021,0.357,0.024,0.439,0.017c0.082-0.009,0.161-0.06,0.233-0.15
		c0.156-0.194,0.284-0.364,0.383-0.51l0.867-1.11c0.221-0.274,0.396-0.479,0.528-0.62l0.569-0.671
		c0.019-0.022-0.008-0.062-0.075-0.117S253.307,224.221,253.288,224.243z"/>
	<path fill="#CA962C" d="M232.627,230.057c-0.083-0.488-0.074-0.886,0.025-1.19c0.1-0.308,0.302-0.597,0.606-0.871
		c0.056-0.05,0.054-0.106-0.006-0.172s-0.116-0.073-0.17-0.024c-0.229,0.206-0.509,0.477-0.839,0.813
		c-0.373,0.375-0.707,0.693-1.002,0.959c-0.305,0.273-0.676,0.587-1.109,0.938c-0.391,0.311-0.684,0.555-0.881,0.73
		c-0.054,0.05-0.052,0.107,0.007,0.173c0.06,0.065,0.115,0.073,0.171,0.024c0.49-0.44,0.961-0.687,1.409-0.734
		c0.449-0.049,0.847,0.117,1.188,0.5c0.234,0.263,0.429,0.619,0.58,1.074l0.803,2.475l-3.961,3.559l-3.508-1.404
		c-0.539-0.228-0.881-0.422-1.028-0.586c-0.146-0.162-0.179-0.346-0.095-0.549c0.082-0.205,0.283-0.447,0.6-0.731
		c0.044-0.039,0.036-0.093-0.021-0.157c-0.059-0.064-0.109-0.078-0.153-0.039c-0.207,0.186-0.487,0.456-0.839,0.813
		c-0.352,0.354-0.663,0.654-0.937,0.9c-0.206,0.186-0.55,0.473-1.028,0.862c-0.478,0.39-0.819,0.678-1.026,0.864
		c-0.056,0.049-0.054,0.105,0.006,0.172s0.116,0.072,0.17,0.023c0.295-0.265,0.7-0.367,1.218-0.309
		c0.516,0.059,1.316,0.311,2.404,0.753l11.271,4.483c0.041,0.022,0.099,0,0.175-0.067c0.077-0.067,0.11-0.129,0.104-0.183
		l-3.596-11.082C232.891,231.215,232.71,230.543,232.627,230.057z M235.32,240.661l-5.307-2.123l3.584-3.22L235.32,240.661z"/>
	<path fill="#CA962C" d="M228.211,249.807c-0.4,0.271-0.723,0.438-0.962,0.502c-0.24,0.063-0.451,0.032-0.632-0.093
		c-0.182-0.126-0.396-0.37-0.641-0.735l-5.681-8.457c-0.245-0.364-0.394-0.657-0.444-0.879c-0.052-0.223-0.004-0.426,0.144-0.613
		c0.147-0.188,0.43-0.422,0.843-0.699c0.023-0.016,0.014-0.061-0.037-0.134c-0.049-0.073-0.085-0.103-0.109-0.085l-8.547,5.74
		c-0.108,0.073-0.168,0.145-0.177,0.211c-0.008,0.067,0.021,0.149,0.087,0.248c0.508,0.754,1.09,1.74,1.75,2.959
		c0.023,0.037,0.068,0.037,0.133,0.002c0.065-0.035,0.092-0.074,0.08-0.119c-0.354-0.946-0.394-1.86-0.119-2.741
		c0.272-0.882,0.843-1.613,1.707-2.192l1.096-0.736c0.354-0.237,0.625-0.385,0.816-0.442c0.189-0.058,0.361-0.032,0.516,0.077
		c0.152,0.109,0.34,0.329,0.561,0.656l5.618,8.365c0.245,0.364,0.394,0.657,0.445,0.879c0.051,0.223,0.006,0.43-0.138,0.623
		c-0.145,0.193-0.418,0.426-0.818,0.695c-0.036,0.023-0.03,0.073,0.02,0.146c0.049,0.072,0.092,0.098,0.129,0.072l0.899-0.632
		c0.521-0.385,0.962-0.698,1.327-0.944c0.341-0.229,0.787-0.512,1.339-0.847l0.944-0.606c0.023-0.018,0.012-0.063-0.037-0.135
		C228.271,249.818,228.234,249.791,228.211,249.807z"/>
	<path fill="#CA962C" d="M135.521,252.303c-0.825-0.212-1.523-0.406-2.096-0.582c-0.518-0.158-1.178-0.382-1.979-0.669l-1.433-0.47
		c-0.057-0.018-0.101,0.029-0.135,0.141c-0.034,0.11-0.023,0.176,0.032,0.191c0.628,0.193,1.069,0.385,1.325,0.574
		c0.256,0.189,0.398,0.431,0.43,0.724c0.032,0.293-0.037,0.716-0.207,1.271l-3.941,12.836c-0.17,0.556-0.352,0.949-0.545,1.184
		c-0.193,0.234-0.447,0.354-0.762,0.357c-0.315,0.005-0.787-0.09-1.415-0.282c-0.056-0.019-0.101,0.028-0.134,0.141
		c-0.034,0.111-0.023,0.175,0.031,0.191c0.61,0.188,1.094,0.325,1.451,0.415l2.004,0.585l2.043,0.657
		c0.346,0.127,0.814,0.279,1.406,0.461c0.055,0.019,0.1-0.028,0.134-0.141c0.034-0.109,0.022-0.175-0.032-0.191
		c-0.629-0.192-1.072-0.379-1.33-0.561c-0.258-0.18-0.394-0.412-0.406-0.701c-0.014-0.287,0.068-0.717,0.244-1.289l3.924-12.781
		c0.17-0.553,0.347-0.948,0.531-1.187c0.184-0.235,0.436-0.366,0.756-0.39s0.786,0.061,1.396,0.246
		c0.055,0.018,0.1-0.029,0.134-0.141c0.034-0.11,0.023-0.176-0.032-0.191L135.521,252.303z"/>
	<path fill="#CA962C" d="M153.087,256.662c-1.416-0.961-3.103-1.566-5.059-1.816c-0.326-0.043-0.971-0.105-1.935-0.189
		c-0.794-0.045-1.574-0.114-2.341-0.213c-0.499-0.063-1.168-0.168-2.006-0.315l-1.521-0.224c-0.039-0.006-0.064,0.05-0.08,0.164
		c-0.014,0.115-0.003,0.176,0.035,0.181c0.633,0.081,1.096,0.194,1.39,0.339c0.293,0.146,0.476,0.357,0.547,0.641
		c0.071,0.283,0.069,0.711-0.004,1.287l-1.706,13.316c-0.074,0.576-0.186,0.995-0.337,1.259c-0.15,0.263-0.381,0.425-0.69,0.481
		s-0.791,0.045-1.441-0.039c-0.039-0.006-0.065,0.051-0.08,0.164c-0.016,0.115-0.004,0.177,0.035,0.182
		c0.652,0.083,1.161,0.139,1.528,0.166l2.046,0.232c0.557,0.072,1.053,0.146,1.492,0.221c0.438,0.076,0.801,0.143,1.086,0.197
		c0.778,0.158,1.465,0.275,2.06,0.353c1.745,0.224,3.396,0.04,4.953-0.55s2.858-1.544,3.904-2.862
		c1.046-1.317,1.688-2.907,1.927-4.768c0.211-1.648-0.016-3.188-0.68-4.618C155.544,258.818,154.503,257.623,153.087,256.662z
		 M153.73,265.105c-0.222,1.727-0.698,3.17-1.433,4.334c-0.733,1.162-1.654,1.996-2.761,2.496c-1.107,0.502-2.322,0.668-3.646,0.498
		c-1.17-0.149-1.935-0.418-2.294-0.806c-0.36-0.387-0.489-0.974-0.389-1.76l1.658-12.944c0.069-0.537,0.221-0.922,0.455-1.154
		c0.234-0.233,0.578-0.369,1.032-0.408c0.453-0.041,1.082-0.008,1.888,0.096c1.323,0.169,2.434,0.706,3.331,1.609
		c0.897,0.904,1.535,2.06,1.91,3.461C153.859,261.932,153.942,263.457,153.73,265.105z"/>
	<path fill="#CA962C" d="M177.1,254.243c-0.007-0.077-0.06-0.112-0.154-0.104c-0.096,0.008-0.15,0.051-0.164,0.129
		c-0.076,0.297-0.277,0.506-0.607,0.627s-0.861,0.211-1.594,0.266l-1.965,0.177c-1.27,0.134-2.473,0.244-3.611,0.329
		c-2.217,0.167-4.156,0.283-5.818,0.35c-1.08,0.082-1.635-0.09-1.666-0.515c-0.008-0.097-0.064-0.142-0.17-0.133
		c-0.106,0.009-0.156,0.062-0.148,0.157c0.045,0.598,0.063,1.492,0.056,2.686s-0.021,2.168-0.041,2.926
		c0.005,0.059,0.06,0.084,0.165,0.075c0.105-0.008,0.157-0.03,0.155-0.069c0.295-1.496,0.795-2.634,1.502-3.414
		c0.707-0.779,1.649-1.215,2.825-1.303c0.521-0.039,0.908-0.02,1.169,0.059c0.256,0.078,0.442,0.229,0.557,0.451
		c0.113,0.226,0.188,0.588,0.228,1.088l1.006,13.391c0.043,0.578,0.014,1.014-0.092,1.301c-0.104,0.289-0.33,0.495-0.681,0.618
		c-0.35,0.124-0.899,0.213-1.651,0.271c-0.039,0.002-0.053,0.063-0.045,0.178c0.01,0.115,0.033,0.173,0.069,0.17
		c0.714-0.055,1.272-0.105,1.677-0.155l2.254-0.198l2.373-0.148c0.387-0.01,0.918-0.04,1.594-0.092
		c0.057-0.004,0.082-0.063,0.072-0.18c-0.009-0.115-0.041-0.171-0.101-0.166c-0.752,0.057-1.306,0.049-1.658-0.021
		c-0.354-0.07-0.6-0.236-0.735-0.498c-0.135-0.262-0.228-0.689-0.271-1.288l-1-13.331c-0.039-0.521-0.025-0.904,0.043-1.152
		c0.07-0.246,0.23-0.429,0.482-0.545c0.254-0.115,0.65-0.193,1.188-0.234c1.216-0.092,2.205,0.188,2.974,0.839
		c0.766,0.649,1.301,1.71,1.604,3.181c0.022,0.057,0.088,0.08,0.192,0.072c0.105-0.008,0.158-0.041,0.152-0.1
		c-0.057-0.752-0.102-1.736-0.135-2.955C177.096,255.755,177.085,254.846,177.1,254.243z"/>
	<path fill="#CA962C" d="M192.271,252.21c-1.287-0.491-2.853-0.483-4.699,0.021c-0.521,0.143-0.973,0.274-1.35,0.397
		s-0.675,0.226-0.894,0.304c-0.603,0.225-1.115,0.396-1.545,0.512c-0.505,0.139-1.171,0.301-2.002,0.486l-1.462,0.368
		c-0.057,0.017-0.069,0.079-0.038,0.19c0.03,0.111,0.073,0.16,0.131,0.146c0.614-0.168,1.08-0.239,1.397-0.216
		c0.316,0.023,0.563,0.152,0.736,0.385c0.174,0.233,0.336,0.631,0.49,1.189l3.533,12.953c0.158,0.578,0.221,1.012,0.19,1.301
		c-0.032,0.289-0.176,0.52-0.43,0.688c-0.254,0.17-0.699,0.342-1.332,0.514c-0.058,0.017-0.067,0.08-0.039,0.191
		c0.031,0.111,0.074,0.159,0.131,0.146c0.615-0.168,1.099-0.31,1.447-0.425l2.006-0.578l2.44-0.637
		c0.435-0.099,1.033-0.252,1.8-0.461c0.057-0.016,0.067-0.078,0.036-0.19c-0.028-0.111-0.071-0.16-0.129-0.146
		c-0.856,0.234-1.502,0.351-1.934,0.348c-0.432-0.002-0.754-0.119-0.969-0.353c-0.213-0.231-0.402-0.646-0.564-1.243l-3.488-12.785
		c-0.147-0.541-0.211-0.949-0.186-1.228c0.023-0.276,0.141-0.494,0.348-0.651c0.209-0.156,0.535-0.297,0.984-0.418
		c1.211-0.33,2.273-0.186,3.186,0.438c0.91,0.623,1.568,1.672,1.972,3.145c0.405,1.493,0.385,2.731-0.067,3.717
		c-0.453,0.986-1.164,1.609-2.136,1.875c-0.354,0.097-0.69,0.148-1.01,0.154c-0.043-0.008-0.068,0.021-0.082,0.084
		c-0.015,0.063-0.013,0.122,0.004,0.18c0.024,0.093,0.065,0.132,0.121,0.115c0.381-0.002,0.832-0.076,1.354-0.219
		c0.987-0.27,1.897-0.738,2.729-1.404c0.831-0.668,1.436-1.494,1.818-2.48c0.381-0.985,0.412-2.066,0.092-3.241
		C194.421,253.757,193.559,252.7,192.271,252.21z"/>
</g>
</svg>
