<svg width="119" height="118" viewBox="0 0 119 118" fill="none" xmlns="http://www.w3.org/2000/svg">
<g clip-path="url(#clip0_159:42)">
<path d="M117.464 57.8255L112.877 54.325L116.79 50.0777C117.105 49.7366 117.24 49.2779 117.159 48.8195C117.08 48.3619 116.799 47.9777 116.387 47.7645L111.264 45.1191L114.386 40.252C114.637 39.8611 114.688 39.3862 114.531 38.9481C114.372 38.5108 114.029 38.1822 113.589 38.045L108.09 36.3348L110.322 30.996C110.502 30.5682 110.472 30.0911 110.24 29.6862C110.008 29.2839 109.612 29.0195 109.154 28.962L103.444 28.2381L104.721 22.5907C104.82 22.1512 104.717 21.6965 104.438 21.3443C104.159 20.9925 103.743 20.7901 103.289 20.7901L97.4721 21.0766L97.755 15.2917C97.7737 14.8835 97.63 14.497 97.3523 14.2046C97.0038 13.8362 96.4596 13.671 95.9663 13.7824L90.3547 15.0675L89.6354 9.32051C89.543 8.58559 88.9175 8.03099 88.1816 8.03099C87.9863 8.03099 87.795 8.06971 87.6125 8.14641L82.3095 10.3928L80.6076 4.85974C80.4167 4.23802 79.8534 3.82097 79.2077 3.82097C78.9263 3.82097 78.6522 3.90283 78.4158 4.05697L73.5775 7.19614L70.9499 2.04396C70.6978 1.54984 70.198 1.24267 69.6446 1.24267C69.2749 1.24267 68.9212 1.38242 68.6504 1.63576L64.4292 5.57216L60.9518 0.958731C60.6719 0.588137 60.246 0.375 59.7839 0.375C59.3214 0.375 58.8964 0.588137 58.6167 0.958731L55.1387 5.5729L50.9178 1.63649C50.6462 1.38279 50.293 1.24341 49.9236 1.24341C49.3702 1.24341 48.8708 1.55057 48.6197 2.0447L45.99 7.19687L41.1538 4.05771C40.916 3.90357 40.6423 3.82171 40.3605 3.82171C39.7137 3.82171 39.1511 4.23913 38.9595 4.86047L37.2602 10.3928L31.9542 8.14714C31.7728 8.07044 31.5812 8.03172 31.3862 8.03172C30.6493 8.03172 30.0248 8.58632 29.9332 9.32161L29.2139 15.0682L23.6019 13.7831C23.1094 13.6721 22.5637 13.837 22.2152 14.2053C21.9367 14.4996 21.7942 14.8864 21.8136 15.2931L22.0972 21.0777L16.346 20.7919L16.2753 20.7901C15.8275 20.7901 15.4104 20.9925 15.1312 21.3454C14.8519 21.6976 14.7486 22.1523 14.8483 22.5926L16.1258 28.2392L10.4148 28.9631C9.95641 29.0206 9.56026 29.285 9.32976 29.6877C9.09852 30.0903 9.06884 30.5675 9.24841 30.9975L11.4805 36.3359L5.98178 38.0461C5.5391 38.1833 5.19536 38.5133 5.03705 38.9507C4.87911 39.3876 4.93224 39.8622 5.18327 40.2531L8.30331 45.1202L3.18277 47.7638C2.7705 47.9773 2.48869 48.3619 2.40954 48.8195C2.32928 49.2771 2.46304 49.7359 2.77746 50.077L6.69015 54.3253L2.10318 57.8259C1.73488 58.1069 1.5238 58.535 1.5238 59.0007C1.52417 59.4657 1.73525 59.8935 2.10318 60.1752L6.69015 63.6754L2.77673 67.9211C2.46304 68.2644 2.32892 68.7235 2.40917 69.1808C2.48906 69.6388 2.77123 70.0241 3.1824 70.2351L8.30331 72.8797L5.18327 77.7498C4.93224 78.1403 4.87911 78.6134 5.03632 79.0496C5.19426 79.487 5.53874 79.8159 5.98105 79.9546L11.4805 81.6663L9.24841 87.0032C9.06847 87.4324 9.09816 87.9092 9.32976 88.313C9.561 88.7172 9.95641 88.9812 10.4148 89.038L16.1258 89.7615L14.8483 95.4081C14.749 95.8488 14.8519 96.3042 15.1312 96.6549C15.4101 97.007 15.8264 97.2098 16.28 97.2098L22.0976 96.9252L21.8139 102.708C21.7942 103.115 21.9371 103.502 22.2152 103.796C22.5659 104.167 23.1101 104.333 23.6026 104.218L29.2142 102.933L29.9336 108.679C30.0252 109.415 30.6496 109.97 31.3866 109.97C31.5805 109.97 31.7721 109.932 31.9557 109.854L37.2606 107.608L38.9599 113.141C39.1515 113.763 39.7148 114.18 40.3612 114.18C40.6426 114.18 40.9164 114.098 41.1542 113.944L45.9904 110.805L48.6201 115.957C48.8722 116.452 49.3721 116.758 49.9243 116.758C50.2937 116.758 50.647 116.619 50.9182 116.365L55.1401 112.427L58.6182 117.043C58.8975 117.414 59.3225 117.626 59.7854 117.626C60.2471 117.626 60.6726 117.414 60.9537 117.043L64.4314 112.427L68.6515 116.365C68.9242 116.619 69.2778 116.758 69.6472 116.758C70.2005 116.758 70.7 116.452 70.9521 115.957L73.5797 110.805L78.4177 113.944C78.6544 114.097 78.9292 114.18 79.2099 114.18C79.8564 114.18 80.4189 113.762 80.6098 113.141L82.3113 107.607L87.6162 109.854C87.7976 109.931 87.9892 109.97 88.1838 109.97C88.9197 109.97 89.5452 109.415 89.6376 108.679L90.3573 102.932L95.9689 104.218C96.457 104.328 97.0052 104.165 97.3552 103.796C97.633 103.503 97.7752 103.116 97.7576 102.708L97.4743 96.9248L103.225 97.2084L103.296 97.2102C103.743 97.2102 104.159 97.0085 104.44 96.6564C104.72 96.3035 104.822 95.8492 104.723 95.4081L103.445 89.7615L109.156 89.038C109.614 88.9816 110.01 88.7172 110.242 88.313C110.473 87.9089 110.503 87.4313 110.324 87.0029L108.092 81.6667L113.59 79.9546C114.033 79.8159 114.377 79.4863 114.533 79.0508C114.692 78.6127 114.639 78.1381 114.388 77.7494L111.266 72.8801L116.388 70.2354C116.801 70.023 117.083 69.6377 117.161 69.1804C117.242 68.7224 117.108 68.2633 116.792 67.9208L112.879 63.6743L117.466 60.1741C117.836 59.892 118.047 59.4639 118.047 58.9992C118.045 58.5346 117.834 58.1069 117.464 57.8255ZM106.641 80.8919L106.518 80.9292L109.249 87.4579C109.287 87.546 109.28 87.6445 109.232 87.7278C109.184 87.8112 109.103 87.8654 109.009 87.8775L102.151 88.7459L102.025 88.7625L103.588 95.6666C103.615 95.7927 103.563 95.8827 103.529 95.9236C103.469 96.0003 103.383 96.0391 103.277 96.0391L96.247 95.6913L96.593 102.764C96.5977 102.85 96.5684 102.93 96.5098 102.99C96.4368 103.067 96.3324 103.102 96.2243 103.076L89.3616 101.503L88.4821 108.531C88.4521 108.773 88.2135 108.841 88.064 108.774L81.5765 106.026L79.4987 112.793C79.4393 112.989 79.2818 113.01 79.2162 113.01C79.1553 113.01 79.0938 112.992 79.0443 112.96L73.1307 109.121L69.9151 115.421C69.852 115.544 69.7351 115.587 69.6457 115.587C69.5684 115.587 69.4995 115.56 69.4398 115.506L64.3716 110.777L64.2778 110.69L60.0254 116.335C59.9166 116.477 59.6502 116.477 59.5439 116.335L55.2904 110.69L50.1281 115.506C50.0555 115.574 49.9771 115.588 49.924 115.588C49.8345 115.588 49.7162 115.544 49.6539 115.424L46.4389 109.122L40.5239 112.961C40.4744 112.992 40.4136 113.01 40.3517 113.01C40.2872 113.01 40.13 112.989 40.0695 112.794L37.9909 106.027L31.5042 108.775C31.3536 108.841 31.1169 108.773 31.0868 108.533L30.2073 101.504L23.3443 103.077C23.2417 103.102 23.1299 103.067 23.057 102.99C23.0002 102.93 22.9709 102.85 22.9749 102.765L23.3219 95.6921L16.2745 96.0402C16.1826 96.0402 16.0972 95.9989 16.0396 95.9251C16.0059 95.8831 15.9532 95.7931 15.9821 95.6677L17.5432 88.7629L10.5596 87.8779C10.4651 87.8657 10.3837 87.8112 10.3361 87.7282C10.2888 87.6452 10.2826 87.5464 10.3192 87.4583L13.0493 80.9295L6.32479 78.8387C6.23318 78.8096 6.16172 78.7414 6.12947 78.6507C6.09685 78.5618 6.10821 78.4648 6.15988 78.3833L9.9062 72.5375L9.9751 72.4306L3.71303 69.1948C3.62875 69.1509 3.56975 69.0709 3.55289 68.978C3.5364 68.8821 3.56425 68.787 3.63021 68.7165L8.41398 63.5223L2.80568 59.2411C2.73019 59.1836 2.68658 59.0951 2.68658 59C2.68658 58.9048 2.73019 58.8156 2.80678 58.7577L8.41471 54.4773L3.63021 49.2823C3.56498 49.2115 3.53713 49.1167 3.55362 49.0227C3.57048 48.9276 3.62911 48.849 3.71377 48.8051L9.97583 45.5705L6.16025 39.6174C6.10821 39.5366 6.09759 39.4396 6.13057 39.3489C6.16318 39.2586 6.23428 39.1904 6.32552 39.1623L13.0501 37.07L10.3199 30.5424C10.2829 30.4539 10.2895 30.3547 10.3368 30.2718C10.3844 30.1884 10.4662 30.1342 10.5607 30.1224L17.544 29.2378L15.9828 22.3315C15.9557 22.2131 15.9997 22.1257 16.0404 22.0734C16.1005 21.9981 16.1859 21.9598 16.2914 21.9598L23.323 22.3086L22.9752 15.2349C22.9712 15.1504 23.0005 15.0708 23.057 15.0111C23.1303 14.934 23.242 14.8986 23.3446 14.924L30.0831 16.4669L30.2077 16.4953L31.0872 9.46801C31.1173 9.23053 31.3551 9.16342 31.5046 9.22537L37.9913 11.9726L40.0695 5.20599C40.1113 5.07066 40.2168 4.98954 40.3517 4.98954C40.4129 4.98954 40.4741 5.00724 40.5239 5.04042L46.4393 8.87911L49.6542 2.57865C49.7162 2.45696 49.8342 2.41345 49.924 2.41345C50.002 2.41345 50.0705 2.44037 50.1284 2.49494L55.2908 7.30861L59.5443 1.66563C59.6505 1.52403 59.9191 1.52439 60.0258 1.66599L64.2789 7.30861L69.4401 2.49494C69.4991 2.44111 69.5691 2.41345 69.6464 2.41345C69.7359 2.41345 69.8539 2.45696 69.9162 2.57865L73.0732 8.7648L73.1315 8.87911L79.0461 5.04042C79.0956 5.00797 79.1572 4.99027 79.2187 4.99027C79.3532 4.99027 79.4584 5.07066 79.5002 5.20599L81.5414 11.8501L81.578 11.9726L88.0654 9.225C88.2157 9.16047 88.4543 9.22906 88.4836 9.46801L89.3473 16.3677L89.3631 16.4953L96.2265 14.9237C96.3258 14.9001 96.4383 14.9329 96.5127 15.0118C96.5691 15.0715 96.5985 15.1501 96.5948 15.2345L96.2485 22.309L103.295 21.9609C103.387 21.9609 103.473 22.0022 103.531 22.0756C103.565 22.1172 103.617 22.2065 103.589 22.3318L102.054 29.1128L102.026 29.2382L109.011 30.1228C109.106 30.1346 109.187 30.1892 109.234 30.2721C109.282 30.3551 109.288 30.4543 109.251 30.5428L106.52 37.0704L113.246 39.1627C113.337 39.1907 113.409 39.2593 113.442 39.3486C113.473 39.4396 113.462 39.5385 113.412 39.6181L109.663 45.4624L109.595 45.5705L115.856 48.8059C115.942 48.849 116 48.9265 116.017 49.022C116.033 49.1167 116.005 49.2122 115.939 49.2827L111.155 54.4769L116.764 58.7573C116.84 58.8152 116.883 58.9034 116.883 58.9996C116.883 59.0955 116.84 59.184 116.764 59.2419L111.256 63.4442L111.155 63.5212L115.939 68.7147C116.005 68.787 116.033 68.8825 116.018 68.9761C116 69.072 115.943 69.1498 115.857 69.1937L109.595 72.4299L113.41 78.383C113.462 78.463 113.473 78.5603 113.442 78.6499C113.409 78.7395 113.336 78.8089 113.246 78.838L106.641 80.8919Z" fill="#F1E1C1"/>
<path d="M90.2384 59.0005C90.2384 42.1041 76.5771 28.3574 59.7848 28.3574C42.9929 28.3574 29.332 42.1037 29.332 59.0005C29.332 75.8963 42.9925 89.644 59.7848 89.644C76.5764 89.644 90.2384 75.8963 90.2384 59.0005ZM59.7848 88.1089C43.8339 88.1089 30.8572 75.0508 30.8572 59.0005C30.8572 42.9507 43.8336 29.8925 59.7848 29.8925C75.7335 29.8925 88.7124 42.9503 88.7124 59.0005C88.7113 75.0508 75.7335 88.1089 59.7848 88.1089Z" fill="#F1E1C1"/>
<path d="M59.7846 10.7529C33.346 10.7529 11.837 32.3963 11.837 59.0002C11.837 85.604 33.346 107.247 59.7846 107.247C86.2232 107.247 107.732 85.6044 107.732 59.0002C107.732 32.3963 86.2225 10.7529 59.7846 10.7529ZM59.7846 105.854C34.1101 105.854 13.2223 84.8359 13.2223 59.0002C13.2223 33.1652 34.1101 12.1468 59.7846 12.1468C85.4599 12.1468 106.347 33.1652 106.347 59.0002C106.347 84.8359 85.4588 105.854 59.7846 105.854Z" fill="#F1E1C1"/>
<path d="M81.5241 60.8558C81.8198 59.921 81.5428 58.9055 80.9418 58.1551C80.7729 57.9497 80.5772 57.7668 80.3577 57.6167C80.3789 57.9224 80.4141 58.2274 80.4643 58.5301C80.5981 59.3218 80.848 60.3904 81.5241 60.8558Z" fill="#F1E1C1"/>
<path d="M80.5838 55.4885C80.3867 55.3241 80.1672 55.1865 79.9323 55.0825C80.1536 55.9694 80.7418 57.576 81.6044 57.9164C81.7473 57.0166 81.2636 56.0545 80.5838 55.4885Z" fill="#F1E1C1"/>
<path d="M79.7556 62.7627C79.4862 63.6783 79.1315 65.4609 79.7706 66.2098C80.3892 65.4793 80.4658 64.3491 80.1407 63.4733C80.0462 63.2188 79.9175 62.9777 79.7556 62.7627Z" fill="#F1E1C1"/>
<path d="M78.4347 50.6343C78.2005 50.5473 77.955 50.4894 77.7054 50.4673C78.2013 51.2074 79.2391 52.4213 80.1417 52.456C79.9815 51.6111 79.2087 50.922 78.4347 50.6343Z" fill="#F1E1C1"/>
<path d="M79.7486 52.9857C79.5295 52.8562 79.2928 52.7545 79.045 52.6899C79.4302 53.551 80.2265 54.9117 81.1295 55.0909C81.0793 54.1719 80.5156 53.4407 79.7486 52.9857Z" fill="#F1E1C1"/>
<path d="M76.1354 70.5311C77.0208 70.0315 77.5327 68.9562 77.5232 67.955C77.5199 67.6741 77.4781 67.3942 77.3938 67.1265C76.809 67.9193 75.7741 69.582 76.1354 70.5311Z" fill="#F1E1C1"/>
<path d="M78.4041 65.9157C78.112 66.6916 77.7701 67.7561 78.1615 68.5442C78.9244 67.8605 79.2367 66.8284 79.0483 65.8261C78.9955 65.5566 78.9065 65.2966 78.7786 65.0547C78.639 65.336 78.5133 65.6226 78.4041 65.9157Z" fill="#F1E1C1"/>
<path d="M76.4086 70.872C77.3419 71.3761 78.4981 70.6611 79.2266 70.0932C79.5407 69.8336 79.8284 69.5386 80.0812 69.2192C79.7763 69.2373 79.4729 69.2864 79.1772 69.3572C78.1987 69.5895 77.0898 70.1094 76.4086 70.872Z" fill="#F1E1C1"/>
<path d="M80.5222 52.2689C81.0001 51.5793 80.5772 50.375 80.2078 49.7326C80.0469 49.4505 79.8556 49.1847 79.6387 48.9409C79.6204 49.2123 79.6237 49.4863 79.6445 49.7573C79.7083 50.5896 79.9648 51.6247 80.5222 52.2689Z" fill="#F1E1C1"/>
<path d="M80.7893 60.897C80.656 60.661 80.4914 60.4438 80.2976 60.2554C80.1957 61.2016 80.1524 63.0158 80.8952 63.6468C81.3709 62.8233 81.2445 61.699 80.7893 60.897Z" fill="#F1E1C1"/>
<path d="M81.7656 52.4232C81.6596 52.1023 81.5134 51.7856 81.3489 51.4932C81.2723 51.7609 81.2214 52.0363 81.1884 52.3129C81.0777 53.2244 81.114 54.1548 81.5405 54.9793C82.1654 54.4103 81.9964 53.1315 81.7656 52.4232Z" fill="#F1E1C1"/>
<path d="M82.0303 57.8864C83.0311 57.1953 82.8992 55.3545 82.5444 54.3003C82.4147 54.5481 82.3051 54.8081 82.215 55.0732C81.9266 55.9195 81.7675 57.015 82.0303 57.8864Z" fill="#F1E1C1"/>
<path d="M81.9496 60.9109C82.8328 60.5665 83.1582 59.3142 83.2278 58.4402C83.2579 58.0719 83.2498 57.6991 83.2047 57.3325C83.0215 57.5575 82.861 57.8008 82.7174 58.052C82.2388 58.9038 81.8888 59.9293 81.9496 60.9109Z" fill="#F1E1C1"/>
<path d="M79.2113 50.4398C79.2351 49.3962 78.0943 48.3656 77.1184 47.999C77.2287 48.2465 77.354 48.488 77.4926 48.721C77.8645 49.3468 78.5007 50.1887 79.2113 50.4398Z" fill="#F1E1C1"/>
<path d="M80.1467 66.4218C81.1523 66.4956 81.8936 65.4826 82.3338 64.7079C82.5115 64.3694 82.6544 64.0124 82.7592 63.6455C82.4972 63.7764 82.2458 63.9342 82.0083 64.1079C81.2487 64.661 80.4476 65.5106 80.1467 66.4218Z" fill="#F1E1C1"/>
<path d="M82.6476 61.1492C82.0302 61.8454 81.4167 62.84 81.3042 63.7832C82.29 63.6365 82.8052 62.5003 83.0764 61.6566C83.183 61.2919 83.2512 60.9144 83.282 60.5356C83.0537 60.7219 82.8426 60.9302 82.6476 61.1492Z" fill="#F1E1C1"/>
<path d="M78.4918 68.8253C79.4659 69.107 80.4872 68.2102 81.0519 67.5188C81.2967 67.219 81.51 66.8908 81.687 66.5464C81.3993 66.6198 81.1186 66.723 80.8489 66.844C79.9104 67.2717 79.0364 67.9392 78.4918 68.8253Z" fill="#F1E1C1"/>
<path d="M79.7729 66.8328C81.272 64.2209 81.873 61.9977 81.9188 58.9806C81.8708 56.6936 81.5073 54.9808 80.6003 52.8841C80.1917 51.9924 79.7736 51.2564 79.2184 50.4507C79.7582 51.2641 80.1646 52.0075 80.5563 52.9032C81.4245 55.0003 81.7668 56.7073 81.7902 58.9802C81.7144 61.9627 81.1031 64.156 79.6043 66.7299C78.0626 69.1559 76.4593 70.6862 73.9678 72.1037C74.0052 72.1719 74.0414 72.2416 74.0788 72.3109C76.6026 70.8643 78.2227 69.3038 79.7729 66.8328Z" fill="#F1E1C1"/>
<path d="M39.8133 62.7627C39.6517 62.9777 39.5231 63.2188 39.4285 63.4733C39.1031 64.3491 39.1782 65.4789 39.7987 66.2098C40.437 65.4609 40.083 63.6787 39.8133 62.7627Z" fill="#F1E1C1"/>
<path d="M39.2706 60.2554C39.0775 60.4442 38.9126 60.6614 38.7792 60.8963C38.3233 61.6994 38.1984 62.8237 38.6737 63.6468C39.4168 63.0162 39.3729 61.202 39.2706 60.2554Z" fill="#F1E1C1"/>
<path d="M39.6375 55.0825C39.4019 55.1861 39.1831 55.3237 38.9856 55.4885C38.3062 56.0545 37.8214 57.017 37.9647 57.9164C38.8273 57.576 39.4173 55.9694 39.6375 55.0825Z" fill="#F1E1C1"/>
<path d="M42.0458 67.955C42.0359 68.9566 42.5486 70.0315 43.4339 70.5311C43.7949 69.582 42.76 67.9189 42.1752 67.1265C42.0909 67.3942 42.0487 67.6741 42.0458 67.955Z" fill="#F1E1C1"/>
<path d="M39.8193 52.9857C39.0541 53.4403 38.4887 54.1719 38.4388 55.0909C39.3422 54.912 40.1381 53.551 40.5233 52.6899C40.277 52.7545 40.0395 52.8566 39.8193 52.9857Z" fill="#F1E1C1"/>
<path d="M42.0761 48.721C42.2143 48.488 42.3403 48.2465 42.451 47.999C41.474 48.3656 40.3343 49.3962 40.3574 50.4398C41.068 50.1887 41.7045 49.3468 42.0761 48.721Z" fill="#F1E1C1"/>
<path d="M38.045 60.8557C38.72 60.3896 38.9703 59.3217 39.1033 58.5296C39.1543 58.2272 39.1902 57.9223 39.2115 57.6162C38.9919 57.7663 38.7955 57.9492 38.6266 58.1546C38.0252 58.9054 37.7485 59.9209 38.045 60.8557Z" fill="#F1E1C1"/>
<path d="M41.1332 50.6347C40.3596 50.922 39.5868 51.6112 39.4259 52.456C40.3307 52.4213 41.3685 51.2074 41.8632 50.4673C41.6144 50.4901 41.3685 50.5477 41.1332 50.6347Z" fill="#F1E1C1"/>
<path d="M41.0766 68.8253C40.5321 67.9399 39.6599 67.2717 38.7188 66.844C38.4491 66.723 38.1684 66.6205 37.8818 66.5464C38.0588 66.8908 38.2717 67.2186 38.5169 67.5188C39.082 68.2102 40.1037 69.1063 41.0766 68.8253Z" fill="#F1E1C1"/>
<path d="M39.4867 69.2192C39.7407 69.5386 40.0272 69.8336 40.3409 70.0932C41.0698 70.6611 42.2267 71.3761 43.1608 70.872C42.4792 70.1094 41.3699 69.5891 40.3908 69.3572C40.0947 69.2864 39.7909 69.2373 39.4867 69.2192Z" fill="#F1E1C1"/>
<path d="M41.1649 65.9157C41.055 65.6226 40.9289 65.336 40.7904 65.0547C40.6632 65.2966 40.5738 65.5562 40.5214 65.8261C40.333 66.8284 40.6453 67.8612 41.4082 68.5442C41.7989 67.7561 41.4577 66.6912 41.1649 65.9157Z" fill="#F1E1C1"/>
<path d="M39.4212 66.4218C39.1211 65.5106 38.3207 64.661 37.5611 64.1079C37.3236 63.9342 37.0722 63.7772 36.8094 63.6455C36.9143 64.0124 37.0575 64.3694 37.2356 64.7079C37.6754 65.4826 38.4167 66.4956 39.4212 66.4218Z" fill="#F1E1C1"/>
<path d="M38.2653 63.7832C38.1528 62.84 37.5393 61.8454 36.9214 61.1492C36.7261 60.9302 36.515 60.7219 36.2878 60.5356C36.3183 60.9144 36.3864 61.2919 36.4923 61.6566C36.7646 62.4996 37.2791 63.6354 38.2653 63.7832Z" fill="#F1E1C1"/>
<path d="M37.5386 57.8864C37.8013 57.015 37.6423 55.9191 37.3539 55.0732C37.2637 54.8081 37.1545 54.5481 37.0237 54.3003C36.6708 55.3545 36.5374 57.1953 37.5386 57.8864Z" fill="#F1E1C1"/>
<path d="M38.381 52.3124C38.3473 52.0358 38.2956 51.7604 38.2205 51.4927C38.0549 51.7851 37.9086 52.1018 37.8038 52.4227C37.5715 53.131 37.4037 54.4099 38.0285 54.9788C38.4554 54.1543 38.4909 53.224 38.381 52.3124Z" fill="#F1E1C1"/>
<path d="M39.9252 49.7573C39.9464 49.4863 39.9494 49.2123 39.9307 48.9409C39.7152 49.1847 39.5235 49.4509 39.3608 49.7326C38.9922 50.375 38.5707 51.5793 39.0464 52.2689C39.6042 51.6247 39.8603 50.5896 39.9252 49.7573Z" fill="#F1E1C1"/>
<path d="M37.6197 60.911C37.6791 59.9294 37.3295 58.9046 36.8513 58.0524C36.7076 57.8009 36.546 57.5579 36.3646 57.333C36.3195 57.6995 36.3111 58.0724 36.3408 58.4407C36.4104 59.3143 36.7362 60.5666 37.6197 60.911Z" fill="#F1E1C1"/>
<path d="M39.9639 66.7304C38.4647 64.1569 37.8541 61.9632 37.7779 58.9807C37.801 56.7078 38.1425 55.0004 39.0107 52.9037C39.4043 52.0077 39.8107 51.2646 40.3501 50.4512C39.7942 51.2569 39.376 51.9929 38.9682 52.8846C38.0612 54.9816 37.6962 56.6941 37.6493 58.9811C37.6955 61.9982 38.2972 64.2214 39.7964 66.8333C41.3454 69.3046 42.9659 70.8648 45.4882 72.3107C45.526 72.2417 45.5626 72.1717 45.6007 72.1038C43.1088 70.686 41.5059 69.1564 39.9639 66.7304Z" fill="#F1E1C1"/>
<path d="M42.8068 95.4338C43.4589 95.4338 43.9876 94.9019 43.9876 94.2457C43.9876 93.5895 43.4589 93.0576 42.8068 93.0576C42.1547 93.0576 41.6261 93.5895 41.6261 94.2457C41.6261 94.9019 42.1547 95.4338 42.8068 95.4338Z" fill="#F1E1C1"/>
<path d="M76.836 93.3359C76.1848 93.3359 75.6538 93.8673 75.6538 94.5252C75.6538 95.1812 76.1841 95.7136 76.836 95.7136C77.4883 95.7136 78.0178 95.1819 78.0178 94.5252C78.0178 93.8684 77.4883 93.3359 76.836 93.3359Z" fill="#F1E1C1"/>
<path d="M68.7792 56.213C68.3948 55.7635 68.0595 55.9412 67.5512 56.2089C67.3042 56.3402 66.9623 56.5212 66.4654 56.7388C65.0325 57.3671 63.9474 57.5121 61.9971 56.5614C59.9614 55.5699 57.8382 55.7118 56.0883 56.9328L55.9689 56.8951C55.9223 56.88 55.8703 56.8697 55.8146 56.8675C55.1766 56.8218 54.2326 57.7289 52.9298 59.6202C52.493 60.2548 52.091 60.7891 51.7462 61.2464C50.8524 62.4363 50.3129 63.1525 50.4899 63.8737C50.5412 64.0821 50.6468 64.2738 50.8219 64.4623C51.0272 64.685 51.3387 64.9037 51.7729 65.1393L50.6072 68.3411C50.5486 68.5027 50.631 68.6826 50.7919 68.7416C50.8348 68.7564 50.8776 68.763 50.9209 68.7593C51.0389 68.7516 51.147 68.6749 51.1895 68.5554L52.3303 65.4229C52.3369 65.4262 52.342 65.4291 52.349 65.4317C52.3823 65.4468 52.4175 65.4568 52.4538 65.4605C52.4769 65.4642 54.7775 65.6909 56.3943 66.5062C57.2764 66.9498 58.0456 66.9384 58.5055 66.4738C59.0684 65.9033 59.001 64.8 58.3201 63.4467C57.1734 61.1653 56.6673 59.2105 56.6179 58.5129C56.6102 58.4052 56.534 57.8591 56.4361 57.4483C58.0119 56.3394 59.8731 56.2192 61.727 57.1234C63.8829 58.174 65.1428 58.001 66.7127 57.3107C66.7662 57.2871 66.8117 57.2661 66.8608 57.2432C66.9854 57.6076 67.2474 58.1448 67.7659 58.3956C67.9862 58.5014 68.2244 58.5453 68.4805 58.5272C68.6715 58.5136 68.8726 58.4612 69.0826 58.379C69.2941 60.7453 66.6204 63.2546 64.7185 65.0364C64.4777 65.2617 64.2509 65.4748 64.0456 65.6732C61.7142 67.9197 61.9711 71.5445 61.9825 71.6979C61.9957 71.8686 62.1433 71.9969 62.3137 71.9837C62.3145 71.9848 62.3152 71.9837 62.3159 71.9837C62.4864 71.9704 62.6139 71.8203 62.6 71.6488C62.597 71.6138 62.353 68.1682 64.4729 66.125C64.677 65.9291 64.9017 65.7175 65.1406 65.4925C67.5435 63.2413 71.5632 59.4746 68.7792 56.213Z" fill="#F1E1C1"/>
<path d="M63.241 58.8892C63.3092 58.793 63.2868 58.6628 63.1919 58.5954C63.163 58.5729 62.448 58.0702 61.7796 58.3059C61.7165 58.328 61.6542 58.356 61.5978 58.3911C61.2966 58.5666 61.0767 58.8948 60.9437 59.3668C60.9107 59.4785 60.9752 59.5954 61.0884 59.6282C61.2002 59.6607 61.2401 59.4376 61.3483 59.4822C62.0299 59.761 62.3 59.7377 62.5587 59.6489C63.02 59.4844 62.9435 58.9364 62.9482 58.9398C63.0435 59.008 63.1747 58.9848 63.241 58.8892Z" fill="#F1E1C1"/>
<path d="M57.947 50.7206C57.9924 51.0776 58.2189 51.3685 58.6206 51.5868C59.1134 51.8508 59.6437 51.8287 60.3136 51.8003C60.9311 51.7749 61.8824 51.7465 62.8953 51.9283C63.8349 52.4125 64.6631 52.8428 65.0713 53.0644C65.388 53.2359 65.6943 53.3048 65.9897 53.3048C66.6948 53.3048 67.3317 52.9103 67.8759 52.5732C68.1555 52.4003 68.4186 52.2369 68.6689 52.134C68.7986 52.0809 68.8602 51.932 68.8081 51.8018C68.7546 51.6713 68.6058 51.6075 68.4776 51.6624C68.1899 51.7808 67.9085 51.9545 67.6109 52.1388C66.8479 52.6105 66.1278 53.057 65.3125 52.6149C64.2014 52.0131 59.9981 49.8714 58.8588 49.2914C58.858 49.291 58.8573 49.2906 58.8569 49.2906C58.6818 49.2014 58.5773 49.1483 58.5703 49.145C58.5491 49.1343 58.5267 49.1262 58.5033 49.1217C56.2547 48.6921 55.4954 47.9605 55.2429 47.5623C55.1143 47.3598 55.0593 47.1511 55.089 46.9841C55.4433 46.8115 57.4175 47.3067 58.8664 47.6703C60.407 48.056 62.1525 48.4937 63.4197 48.6092C66.4316 48.8817 68.456 46.886 68.541 46.8016C68.6403 46.7016 68.6403 46.5405 68.541 46.4405C68.4428 46.341 68.2819 46.3414 68.1829 46.4402C68.1635 46.4594 66.2356 48.3518 63.4648 48.1014C62.2371 47.9889 60.5107 47.5564 58.9892 47.1751C56.8564 46.64 55.5925 46.341 54.9988 46.483C54.6511 46.4037 53.0852 46.0375 52.5769 45.7746C52.1104 45.5327 51.4647 45.5994 51.1085 45.9272C50.8589 46.1573 50.7919 46.4748 50.9249 46.8001C51.0572 47.1238 51.5255 47.5442 55.369 48.4344C55.908 48.8651 56.8139 49.3091 58.3373 49.6088C58.1339 49.8681 57.8913 50.2803 57.947 50.7206ZM58.8067 49.8367C59.4081 50.1428 60.5118 50.7055 61.646 51.287C61.1249 51.2572 60.6793 51.2741 60.2938 51.2907C59.6756 51.3154 59.2307 51.3353 58.8606 51.1366C58.6085 51.0001 58.474 50.8434 58.4505 50.6568C58.4131 50.3681 58.637 50.034 58.8067 49.8367ZM51.3929 46.6057C51.3416 46.4804 51.3595 46.3871 51.4504 46.3034C51.627 46.1404 52.0378 46.0692 52.3442 46.2281C52.8466 46.4881 54.0776 46.7927 54.5928 46.9137C54.5496 47.1843 54.614 47.4819 54.7801 47.7699C51.9147 47.073 51.4511 46.726 51.3929 46.6057Z" fill="#F1E1C1"/>
<path d="M44.1351 64.2279L44.1527 64.2677C44.1534 64.2696 44.1527 64.2707 44.1534 64.2718C44.1901 64.4396 44.3502 64.5443 44.51 64.5089C44.6705 64.4728 44.7705 64.3087 44.7332 64.1416C44.7328 64.1409 44.7324 64.1401 44.7324 64.1401L44.7376 64.1394L44.709 64.076C43.9684 62.4505 43.4953 60.7362 43.3025 58.981C42.8177 54.5574 44.0768 50.2032 46.8506 46.7208C49.6228 43.2379 53.5714 41.0512 57.9671 40.5626C58.5751 40.4955 59.1922 40.4609 59.8002 40.4609C68.261 40.4609 75.3417 46.8476 76.2711 55.3174C76.4557 57.0008 76.3792 58.7081 76.0427 60.39L76.0325 60.4423L76.038 60.4431C76.0292 60.4729 76.0193 60.5024 76.0186 60.5352C76.0145 60.7141 76.1424 60.8616 76.3033 60.8649C76.4473 60.8693 76.5646 60.7543 76.5924 60.6024L76.5987 60.6057L76.6108 60.5437C76.9655 58.7874 77.0476 57.0078 76.8556 55.2529C76.3898 51.0042 74.3816 47.0961 71.2007 44.2501C68.0448 41.4244 63.9954 39.8687 59.7998 39.8687C59.1706 39.8687 58.5318 39.9041 57.9026 39.9741C53.3505 40.48 49.2626 42.7445 46.391 46.3505C43.5202 49.9569 42.2156 54.4656 42.7187 59.0455C42.913 60.8254 43.3904 62.5707 44.1351 64.2279Z" fill="#F1E1C1"/>
<path d="M76.0748 61.469C75.922 61.4329 75.7655 61.5214 75.7161 61.6718C74.9509 64.0226 72.6613 64.6244 71.7997 64.8508C67.8984 65.8759 67.6675 67.4719 67.7489 68.1102C67.8628 69.0037 68.7581 69.6774 69.8322 69.6774C70.3357 69.6774 70.837 69.5269 71.2826 69.2408C75.593 66.4774 76.2793 61.9996 76.3061 61.8108C76.3288 61.6534 76.2284 61.5051 76.0748 61.469ZM70.9558 68.7249C70.6087 68.9476 70.2199 69.0656 69.8329 69.0656C69.0769 69.0656 68.4265 68.6117 68.3528 68.032C68.2539 67.2639 69.1495 66.1805 71.954 65.443C72.5931 65.2745 73.9442 64.919 75.0246 63.8924C74.3829 65.3678 73.1747 67.303 70.9558 68.7249Z" fill="#F1E1C1"/>
<path d="M49.8412 69.3721C49.8412 69.3721 48.6418 74.5674 63.7725 84.1331C63.7725 84.1331 65.4062 80.9423 62.6614 73.4213C62.6614 73.4213 51.4243 71.7914 49.8412 69.3721Z" fill="#F1E1C1"/>
<path d="M48.5993 64.8936C47.9906 65.7476 48.1687 66.6566 48.5187 67.3745C47.3772 66.5043 45.9528 67.0471 45.9528 67.0471C46.5563 69.1596 49.4763 68.7164 49.4763 68.7164L49.4829 68.709C50.8864 66.2657 48.5993 64.8936 48.5993 64.8936Z" fill="#F1E1C1"/>
<path d="M39.8122 88.9159L39.3339 88.5851L38.8517 88.2322C38.7714 88.1681 38.6611 88.0862 38.5208 87.9866C38.5076 87.9774 38.4918 87.9852 38.4731 88.0117C38.4544 88.0383 38.4515 88.056 38.4651 88.0655C38.6142 88.1714 38.7154 88.2599 38.7674 88.331C38.8202 88.4011 38.8356 88.4756 38.8139 88.5534C38.7923 88.6305 38.7333 88.7378 38.6373 88.8746L36.4902 91.9267C36.3971 92.0591 36.3161 92.1494 36.2469 92.1955C36.178 92.2424 36.1003 92.2553 36.0134 92.2335C35.9266 92.2114 35.8108 92.1491 35.6664 92.0458C35.6529 92.0366 35.6371 92.0451 35.6184 92.0709C35.5997 92.0974 35.5968 92.1155 35.6103 92.1247L35.9442 92.3523C36.1432 92.4809 36.311 92.5934 36.447 92.6904C36.5697 92.7778 36.7247 92.895 36.9113 93.0407L37.2492 93.2915C37.262 93.3007 37.2781 93.2922 37.2968 93.266C37.3155 93.2398 37.3184 93.2218 37.3049 93.2122C37.1561 93.1063 37.0557 93.0167 37.0051 92.9434C36.9545 92.8707 36.9369 92.7944 36.9542 92.7136C36.9714 92.6329 37.0263 92.5263 37.1194 92.3947L39.276 89.3289C39.3691 89.1965 39.4516 89.1069 39.523 89.0623C39.5938 89.0169 39.6715 89.0077 39.755 89.0339C39.8389 89.0601 39.9551 89.1264 40.1042 89.2323C40.1171 89.2415 40.1332 89.2334 40.1519 89.2072C40.1706 89.1806 40.1731 89.1626 40.1599 89.1534C40.0148 89.0497 39.8987 88.9708 39.8122 88.9159Z" fill="#F1E1C1"/>
<path d="M34.4205 91.02C34.3739 90.8902 34.3497 90.7143 34.3461 90.492L36.7185 87.8602C36.9098 87.6478 37.1029 87.5283 37.2975 87.5007C37.4921 87.4741 37.675 87.539 37.8461 87.695C37.8582 87.7057 37.8747 87.6994 37.8967 87.6747C37.9187 87.6507 37.9234 87.6338 37.9113 87.622C37.7919 87.5132 37.6988 87.431 37.631 87.3775L37.2733 87.0626L36.9619 86.7672C36.9094 86.7127 36.8303 86.6363 36.7226 86.5382C36.7149 86.5305 36.6998 86.539 36.6782 86.5629C36.6562 86.5862 36.6496 86.602 36.6577 86.6098C36.8167 86.7558 36.8875 86.9221 36.8702 87.1098C36.8526 87.299 36.7482 87.4992 36.5569 87.7112L34.3527 90.1575L34.5033 84.3265C34.5025 84.3114 34.4904 84.297 34.4666 84.2826C34.4432 84.2682 34.426 84.2675 34.415 84.2789L31.6148 87.386C31.4239 87.5984 31.2326 87.7216 31.0421 87.7562C30.8515 87.7905 30.6767 87.7345 30.5173 87.5895C30.5096 87.5818 30.4942 87.5906 30.4729 87.6142C30.451 87.6382 30.4444 87.6537 30.4521 87.6618L30.7203 87.8952C30.8629 88.0107 30.9735 88.1047 31.0534 88.1781C31.1373 88.254 31.2392 88.3547 31.3594 88.4786L31.5983 88.7076C31.6064 88.7153 31.6214 88.7069 31.6427 88.6829C31.6647 88.6589 31.6713 88.6438 31.6636 88.6361C31.5082 88.4937 31.4404 88.3281 31.4595 88.1371C31.4785 87.9465 31.5841 87.7452 31.7753 87.5328L33.6923 85.4051L33.5464 89.9149L33.5164 90.2379C33.505 90.315 33.4999 90.3684 33.5014 90.3994C33.5028 90.4297 33.5193 90.4599 33.5516 90.4887C33.619 90.5506 33.6787 90.6015 33.7297 90.6406L34.1178 90.9835C34.213 91.0705 34.2852 91.1402 34.3332 91.1911L34.5667 91.4149C34.5747 91.4227 34.5898 91.4138 34.611 91.3899C34.633 91.3666 34.6396 91.3508 34.6319 91.343C34.5374 91.2582 34.4666 91.1506 34.4205 91.02Z" fill="#F1E1C1"/>
<path d="M30.7117 85.8222C30.693 85.799 30.6798 85.7905 30.6717 85.7979C30.2829 85.9686 29.9439 86.035 29.6537 85.9966C29.3635 85.9583 29.115 85.8111 28.9087 85.5552C28.8174 85.4417 28.7603 85.3491 28.7368 85.2779C28.7134 85.206 28.7185 85.1389 28.7518 85.077C28.7852 85.0154 28.8559 84.9402 28.9644 84.8517L31.8635 82.4858C31.9888 82.384 32.0929 82.322 32.1753 82.2992C32.2581 82.277 32.3409 82.297 32.4245 82.3571C32.5081 82.4179 32.6158 82.5304 32.7477 82.6937C32.755 82.7022 32.7708 82.6967 32.7957 82.6757C32.8206 82.6546 32.8302 82.6403 32.8228 82.6325C32.6975 82.4773 32.5975 82.3571 32.5223 82.2715L32.12 81.7859L31.7099 81.2641C31.6461 81.1771 31.5553 81.0594 31.4365 80.9123C31.4266 80.8998 31.409 80.9042 31.3838 80.9241C31.3588 80.9444 31.3511 80.961 31.361 80.9735C31.4933 81.1372 31.5794 81.2656 31.6194 81.3585C31.6593 81.4514 31.6604 81.5344 31.6223 81.607C31.5842 81.6797 31.5007 81.7685 31.3709 81.8751L28.4843 84.2307C28.3711 84.3225 28.2813 84.3804 28.2139 84.4047C28.1465 84.428 28.0798 84.4198 28.0131 84.3808C27.9464 84.3417 27.8661 84.2628 27.7708 84.1448C27.5576 83.8796 27.4645 83.6075 27.4916 83.328C27.5187 83.0477 27.6763 82.7557 27.964 82.4515C27.9728 82.4378 27.9684 82.4183 27.9497 82.3954C27.931 82.3725 27.9152 82.3663 27.9028 82.3759C27.74 82.5086 27.522 82.676 27.249 82.8781C26.9756 83.0802 26.7693 83.2277 26.63 83.3206C26.6136 83.3342 26.6136 83.3516 26.63 83.3726C26.6473 83.3944 26.666 83.3995 26.6857 83.3907C26.7653 83.3604 26.8455 83.3733 26.925 83.4294C27.0053 83.4854 27.1094 83.5935 27.238 83.7539L27.5894 84.1768C27.8214 84.4468 28.0372 84.7067 28.237 84.9538C28.6265 85.4372 28.9604 85.8642 29.2385 86.2359C29.4283 86.4716 29.4771 86.6268 29.3851 86.7017C29.3642 86.7186 29.3631 86.7389 29.3818 86.7618C29.4005 86.785 29.4199 86.7876 29.4408 86.7703C29.5705 86.6652 29.7721 86.5177 30.0454 86.3296C30.3192 86.1408 30.5442 85.9889 30.7205 85.8731C30.7337 85.862 30.7304 85.8454 30.7117 85.8222Z" fill="#F1E1C1"/>
<path d="M26.2755 81.2096L29.4615 79.2522C29.5989 79.1678 29.7092 79.118 29.7906 79.1022C29.8726 79.087 29.9467 79.1084 30.013 79.1656C30.0797 79.2227 30.1599 79.3301 30.2552 79.4868C30.2633 79.5011 30.2812 79.4989 30.3091 79.4823C30.3362 79.4654 30.3461 79.4499 30.3377 79.4359L28.5142 76.4309C28.4889 76.39 28.4643 76.3668 28.4398 76.3627C28.4152 76.3587 28.3852 76.3683 28.3478 76.3904C28.059 76.5674 27.7263 76.7403 27.3492 76.9081C27.3448 76.9114 27.3426 76.9203 27.3426 76.9361C27.3426 76.952 27.347 76.9671 27.3554 76.9804C27.3664 76.9988 27.3771 77.0051 27.3858 77.0003C28.0829 76.8001 28.6193 77.0088 28.9946 77.6275L29.2009 77.9668C29.2903 78.1143 29.3226 78.2356 29.2984 78.3296C29.2738 78.424 29.1855 78.5177 29.0342 78.6106L27.472 79.5708L27.0729 78.913C26.7596 78.3964 26.7995 78.0158 27.1942 77.7739C27.203 77.768 27.1997 77.7514 27.1828 77.7234C27.166 77.6961 27.1531 77.6851 27.144 77.6902C27.0524 77.7466 26.9358 77.8244 26.7947 77.9244L26.4756 78.1301L25.8724 78.4911C25.8584 78.4989 25.8595 78.5162 25.8749 78.542C25.8903 78.5678 25.905 78.576 25.9185 78.5667C26.2582 78.3588 26.5822 78.5085 26.8897 79.0162L27.2931 79.6811L25.8892 80.5432C25.7474 80.6306 25.625 80.6587 25.5235 80.6262C25.422 80.593 25.3208 80.4942 25.2201 80.3271L25.0519 80.0502C24.7297 79.52 24.7968 79.038 25.2523 78.6058C25.2637 78.5929 25.2593 78.5752 25.2391 78.5524C25.2193 78.5291 25.2043 78.5214 25.1951 78.5269L24.3091 79.0904C24.268 79.1151 24.261 79.1516 24.2893 79.1977L26.0369 82.0783C26.0453 82.092 26.0633 82.0905 26.0904 82.0735C26.1183 82.0562 26.1278 82.0411 26.119 82.0275C26.0266 81.8752 25.9709 81.7542 25.9512 81.665C25.9314 81.5761 25.9464 81.499 25.9951 81.4338C26.0439 81.3689 26.1381 81.2936 26.2755 81.2096Z" fill="#F1E1C1"/>
<path d="M23.7639 76.8031L27.1896 75.3108C27.3373 75.2466 27.4538 75.2131 27.5377 75.2119C27.622 75.2105 27.6935 75.2429 27.7506 75.3093C27.8085 75.3757 27.8738 75.4929 27.9463 75.6614C27.9529 75.6766 27.9705 75.6773 28.0002 75.6644C28.0295 75.6522 28.0412 75.6382 28.035 75.6235C27.9647 75.4597 27.9064 75.3318 27.8609 75.2396L27.6231 74.7068L27.3933 74.1525C27.3596 74.0611 27.3083 73.9335 27.2372 73.7698C27.2328 73.7598 27.216 73.762 27.1863 73.7742C27.157 73.7871 27.1441 73.7985 27.1482 73.8088C27.2211 73.9777 27.2614 74.1061 27.2698 74.1935C27.2783 74.2812 27.2541 74.3539 27.1966 74.4114C27.1394 74.4685 27.0346 74.5305 26.8814 74.5972L25.2316 75.3159C25.1774 75.1629 25.1268 75.0316 25.0799 74.9225C25.0542 74.8635 25.0128 74.7805 24.956 74.6758C25.4764 73.925 25.867 73.3081 26.128 72.8258C26.3892 72.3438 26.4951 72.0459 26.446 71.9312L25.9301 70.7327C25.9238 70.7176 25.9059 70.7169 25.8766 70.7298C25.8469 70.7423 25.8352 70.756 25.8414 70.7707C25.9293 70.9746 25.9429 71.2143 25.8835 71.4909C25.8238 71.7674 25.6849 72.1144 25.4669 72.5341C25.2488 72.9533 24.9289 73.4958 24.5071 74.1632C24.2704 73.9659 24.0106 73.8391 23.7284 73.7823C23.4462 73.7259 23.1695 73.7561 22.898 73.8741C22.5975 74.005 22.4139 74.2252 22.3476 74.5338C22.2809 74.8428 22.3406 75.2131 22.5264 75.6452C22.5759 75.7599 22.6224 75.8613 22.6667 75.9505C22.7115 76.0402 22.7499 76.1165 22.7825 76.1788C22.8808 76.3658 22.965 76.5409 23.035 76.7054C23.0929 76.8389 23.164 77.0181 23.2476 77.2401L23.407 77.6309C23.4114 77.6405 23.4283 77.6387 23.4579 77.6262C23.4876 77.6136 23.5001 77.6022 23.496 77.5919C23.4257 77.4285 23.3868 77.3005 23.3799 77.2091C23.3729 77.118 23.3982 77.0439 23.4554 76.9864C23.5133 76.9288 23.6159 76.868 23.7639 76.8031ZM23.0295 76.1287C22.9229 76.0778 22.8276 75.9553 22.7448 75.7621C22.6338 75.5044 22.6279 75.2728 22.7268 75.0667C22.8262 74.862 23.0754 74.6725 23.4748 74.4984C23.8299 74.3435 24.1176 74.3008 24.3374 74.3693C24.5573 74.4387 24.7372 74.6345 24.8761 74.9571C24.9483 75.1264 25.0007 75.2739 25.0322 75.4022L23.4711 76.0822C23.2835 76.1641 23.1365 76.1795 23.0295 76.1287Z" fill="#F1E1C1"/>
<path d="M25.4328 70.0842C25.6098 70.1697 25.7267 70.3254 25.7831 70.5514C25.7875 70.5673 25.8051 70.5713 25.8363 70.5625C25.8678 70.5547 25.8814 70.5425 25.877 70.5271C25.8377 70.3696 25.8048 70.2498 25.778 70.1672L25.6534 69.7051L25.5559 69.2858C25.5427 69.2117 25.5178 69.1029 25.4826 68.9617C25.4801 68.951 25.4629 68.9503 25.4317 68.9577C25.4006 68.9654 25.3863 68.975 25.3888 68.9853C25.4416 69.1948 25.4094 69.3736 25.2906 69.5207C25.173 69.6679 24.9755 69.7767 24.6992 69.8475L21.5187 70.6587L24.8487 65.8841C24.8564 65.8712 24.8542 65.852 24.8421 65.8273C24.8307 65.803 24.8168 65.7919 24.8014 65.7964L20.7612 66.827C20.4849 66.8971 20.258 66.8941 20.0807 66.8167C19.9033 66.7393 19.7879 66.5951 19.7351 66.3856C19.7325 66.3757 19.7157 66.3742 19.6842 66.3819C19.653 66.3897 19.6387 66.3993 19.6413 66.4092L19.7366 66.7536C19.7919 66.9295 19.8329 67.0693 19.859 67.1748C19.8868 67.285 19.9169 67.4251 19.9484 67.5959L20.022 67.92C20.0246 67.9303 20.0415 67.9322 20.073 67.9244C20.1041 67.9167 20.1184 67.9071 20.1158 67.8968C20.0642 67.6921 20.0986 67.5162 20.2196 67.3676C20.3401 67.2201 20.5387 67.1106 20.8147 67.0398L23.5815 66.334L20.9811 70.0108L20.7784 70.2634C20.7264 70.3213 20.6927 70.3633 20.6773 70.3899C20.6619 70.4164 20.6589 70.45 20.6696 70.492C20.6923 70.5813 20.7139 70.6561 20.7348 70.7181L20.8693 71.2188C20.9015 71.3446 20.9228 71.4419 20.9353 71.5116L21.0067 71.828C21.0093 71.8383 21.0261 71.8398 21.0577 71.8321C21.0888 71.8243 21.1031 71.8147 21.1005 71.8048C21.0686 71.6783 21.069 71.5492 21.102 71.4146C21.135 71.2804 21.2108 71.1204 21.3303 70.9338L24.753 70.0602C25.0293 69.9905 25.2558 69.9975 25.4328 70.0842Z" fill="#F1E1C1"/>
<path d="M23.9446 64.4269C24.1055 64.5114 24.2199 64.6014 24.288 64.6983C24.3558 64.7957 24.3961 64.9203 24.409 65.0704C24.4111 65.0973 24.4284 65.1095 24.4606 65.1069C24.4929 65.1047 24.5079 65.0896 24.5057 65.0623C24.4958 64.9491 24.4782 64.8075 24.4522 64.6357C24.4247 64.4428 24.4046 64.2735 24.3925 64.1275C24.3793 63.9774 24.3694 63.7982 24.3624 63.5932C24.3573 63.4092 24.3507 63.2683 24.3423 63.171C24.3397 63.1444 24.3225 63.1326 24.2902 63.1348C24.258 63.1371 24.2433 63.1525 24.2455 63.1791C24.2664 63.4217 24.2349 63.6146 24.1495 63.7577C24.0652 63.9007 23.9289 63.9804 23.7416 63.9962C23.6126 64.0073 23.4653 63.9852 23.2986 63.9288L22.3978 63.6168L22.2292 61.6602L23.4129 60.9378C23.5976 60.8294 23.7299 60.7719 23.8105 60.7649C23.8911 60.7571 23.952 60.7889 23.9927 60.8589C24.0337 60.9282 24.0612 61.0415 24.0744 61.1978C24.0766 61.2199 24.0938 61.2288 24.1257 61.2258C24.1579 61.2229 24.173 61.2107 24.1711 61.1886C24.1627 61.0868 24.1447 60.9445 24.118 60.7623C24.0912 60.5802 24.0722 60.4216 24.0608 60.287C24.0524 60.1845 24.0429 60.0196 24.0344 59.7921C24.026 59.5653 24.0165 59.4001 24.008 59.298C24.0058 59.2707 23.9886 59.2593 23.9564 59.2615C23.9241 59.2644 23.9091 59.2792 23.9113 59.3061C23.9241 59.4521 23.8648 59.5937 23.7339 59.7328C23.6031 59.8718 23.3532 60.0525 22.9838 60.2748L19.1869 62.6016C19.1711 62.609 19.1649 62.6311 19.1682 62.6691C19.1719 62.7071 19.1818 62.7303 19.1986 62.7392L23.2359 64.1371C23.5478 64.247 23.7838 64.3432 23.9446 64.4269ZM20.2452 62.869L22.0369 61.7756L22.1893 63.546L20.2452 62.869Z" fill="#F1E1C1"/>
<path d="M20.3967 59.3398C20.4125 59.3405 20.4213 59.3262 20.4227 59.2967C20.4242 59.2664 20.4194 59.2513 20.4088 59.2513C20.0061 59.1178 19.7096 58.9397 19.5179 58.7166C19.327 58.4939 19.2391 58.2173 19.2548 57.8877C19.2618 57.7416 19.2801 57.6343 19.3105 57.5654C19.3406 57.4964 19.3886 57.45 19.4542 57.4264C19.5201 57.4024 19.6227 57.3939 19.7624 57.4005L23.4907 57.5801C23.6516 57.5879 23.7707 57.6111 23.8465 57.6502C23.9231 57.6889 23.9722 57.759 23.9939 57.8604C24.0162 57.9618 24.0221 58.1174 24.0122 58.3283C24.0118 58.3394 24.0276 58.3453 24.0598 58.3468C24.0921 58.3482 24.1086 58.3438 24.1089 58.3327C24.1185 58.1329 24.1232 57.9762 24.1232 57.8626L24.1452 57.2302L24.1852 56.5661C24.1954 56.4584 24.2053 56.3101 24.2145 56.1206C24.2152 56.1044 24.1995 56.0955 24.1672 56.0941C24.135 56.0926 24.1185 56.1 24.1177 56.1162C24.1075 56.3267 24.0869 56.4801 24.0554 56.5764C24.0239 56.6723 23.9697 56.7346 23.8931 56.7633C23.8165 56.7921 23.6948 56.8024 23.5285 56.7943L19.8162 56.6155C19.6711 56.6085 19.5656 56.5911 19.5 56.5635C19.4336 56.5358 19.3889 56.4849 19.3658 56.4108C19.3428 56.3367 19.3343 56.2239 19.3417 56.0727C19.3578 55.7323 19.4688 55.4668 19.674 55.2765C19.8796 55.0863 20.1904 54.9738 20.6063 54.9395C20.6224 54.9351 20.6316 54.9177 20.6331 54.8879C20.6345 54.8584 20.6268 54.8429 20.6107 54.8422C20.4015 54.8322 20.1281 54.8108 19.7906 54.7784C19.4531 54.7459 19.2017 54.7175 19.0357 54.6939C19.0144 54.6928 19.0031 54.7057 19.0016 54.7323C19.0001 54.7596 19.01 54.7761 19.0316 54.7824C19.1108 54.8134 19.1614 54.8768 19.1837 54.9727C19.2064 55.0686 19.2123 55.219 19.2028 55.4244L19.1845 55.9761C19.1782 56.333 19.1676 56.6708 19.1522 56.9898C19.1225 57.6111 19.0888 58.1535 19.0507 58.6174C19.036 58.9198 18.9701 59.0684 18.8521 59.0629C18.825 59.0614 18.811 59.0758 18.8096 59.1053C18.8081 59.1351 18.8209 59.1506 18.8477 59.1517C19.014 59.1595 19.2618 59.1853 19.5905 59.2281C19.9199 59.2705 20.1885 59.3081 20.3967 59.3398Z" fill="#F1E1C1"/>
<path d="M19.4818 53.4713C19.5137 53.4764 19.5309 53.4713 19.5335 53.455C19.5624 53.2736 19.5983 53.1438 19.6405 53.0656C19.6826 52.9875 19.7435 52.9384 19.823 52.9185C19.9025 52.8982 20.0216 52.9012 20.181 52.9266L23.8672 53.5203C24.0263 53.5458 24.1421 53.5812 24.2135 53.6254C24.2854 53.67 24.3282 53.7357 24.3414 53.8227C24.355 53.9097 24.3473 54.0443 24.3183 54.2257C24.3158 54.2416 24.3304 54.2523 24.3623 54.2574C24.3942 54.2626 24.4114 54.2571 24.414 54.2412C24.4422 54.065 24.4616 53.9259 24.4722 53.8234L24.5562 53.2452L24.6584 52.6537C24.68 52.5534 24.7042 52.4174 24.7313 52.2466C24.7339 52.2308 24.7192 52.2201 24.6874 52.2149C24.6555 52.2098 24.6383 52.2153 24.6353 52.2312C24.6067 52.4129 24.5723 52.5427 24.5331 52.6213C24.4931 52.6998 24.4341 52.7463 24.3557 52.761C24.2769 52.7762 24.1553 52.7699 23.9911 52.7434L20.321 52.1522C20.1616 52.1268 20.0461 52.0929 19.974 52.0512C19.9018 52.0095 19.856 51.9446 19.8373 51.8569C19.8186 51.7691 19.8233 51.6367 19.8516 51.4608C19.8538 51.445 19.8395 51.4343 19.8072 51.4291C19.7757 51.424 19.7585 51.4295 19.7555 51.4453L19.7002 51.8473C19.6735 52.084 19.6467 52.2854 19.6203 52.4506C19.5969 52.5999 19.561 52.7917 19.5129 53.0247L19.4386 53.4399C19.4353 53.4558 19.4503 53.4665 19.4818 53.4713Z" fill="#F1E1C1"/>
<path d="M21.143 49.907C21.4435 50.2887 21.8598 50.5575 22.3912 50.7138C22.8449 50.8473 23.2938 50.8683 23.7379 50.7761C24.1821 50.6843 24.5705 50.4834 24.9044 50.1729C25.2382 49.8628 25.4757 49.466 25.6157 48.9833C25.7575 48.4954 25.7754 48.009 25.6699 47.5241C25.564 47.0396 25.3514 46.6152 25.0323 46.2505C24.7123 45.8861 24.318 45.6347 23.8486 45.4964C23.4257 45.3721 22.9969 45.3544 22.5619 45.4433C22.127 45.5325 21.7407 45.7298 21.4028 46.0362C21.0646 46.3427 20.8238 46.7424 20.6805 47.235C20.5519 47.6764 20.5219 48.1366 20.59 48.6156C20.6575 49.0954 20.8422 49.5257 21.143 49.907ZM20.7887 47.6137C20.9034 47.2192 21.1093 46.9065 21.4061 46.6753C21.703 46.4444 22.0625 46.305 22.485 46.2575C22.9075 46.2099 23.3561 46.256 23.8306 46.3958C24.2795 46.5278 24.646 46.7133 24.9293 46.9515C25.2126 47.19 25.4024 47.4574 25.4984 47.7528C25.5948 48.0489 25.5973 48.3524 25.5068 48.6639C25.4009 49.0275 25.1939 49.32 24.8864 49.5419C24.5778 49.7643 24.2019 49.8985 23.757 49.945C23.3125 49.9914 22.8452 49.9428 22.3549 49.7986C21.7202 49.612 21.2639 49.327 20.9865 48.9438C20.7084 48.5607 20.6424 48.1175 20.7887 47.6137Z" fill="#F1E1C1"/>
<path d="M22.0394 43.4679C22.0683 43.4823 22.0852 43.4845 22.0899 43.4749C22.1464 43.358 22.2303 43.2592 22.3413 43.178C22.4524 43.0969 22.6129 43.0239 22.8236 42.9586L25.9989 44.5133C26.2551 44.6387 26.4229 44.7917 26.5032 44.9724C26.5835 45.1531 26.5725 45.3478 26.4717 45.5568C26.4644 45.5716 26.4757 45.586 26.5047 45.6C26.5336 45.614 26.5519 45.614 26.5585 45.5996C26.6289 45.4536 26.6806 45.3408 26.7135 45.2607L26.9147 44.8267L27.1086 44.4436C27.1467 44.378 27.1969 44.2795 27.2603 44.1482C27.2654 44.1386 27.253 44.1265 27.2237 44.1121C27.1951 44.0977 27.1778 44.0959 27.1735 44.1055C27.0789 44.3002 26.9397 44.4152 26.755 44.451C26.5703 44.4871 26.35 44.4421 26.0935 44.3167L23.1428 42.872L28.7481 41.3852C28.7624 41.3804 28.773 41.3645 28.78 41.338C28.7873 41.3111 28.7833 41.2945 28.7686 41.2871L25.0209 39.4522C24.7647 39.3268 24.5936 39.1767 24.5078 39.0023C24.4217 38.8279 24.4254 38.6435 24.5196 38.4488C24.5243 38.4392 24.5119 38.4271 24.4833 38.4131C24.454 38.3987 24.4371 38.3968 24.4323 38.4061L24.2843 38.7305C24.2143 38.9005 24.1553 39.0344 24.1088 39.1314C24.0593 39.2335 23.9926 39.36 23.9072 39.5108L23.7555 39.8062C23.7504 39.8161 23.7628 39.8279 23.7921 39.8423C23.8207 39.8563 23.8379 39.8586 23.8427 39.849C23.9343 39.6591 24.0736 39.547 24.2612 39.5123C24.4481 39.4776 24.6698 39.523 24.926 39.6484L27.4919 40.9051L23.1483 42.0264L22.8316 42.088C22.755 42.0987 22.7019 42.109 22.6733 42.1186C22.6447 42.1286 22.6206 42.1533 22.6019 42.192C22.5623 42.2746 22.5304 42.3461 22.507 42.407L22.2882 42.8775C22.2321 42.994 22.1859 43.0833 22.1508 43.1437L22.0023 43.4321C21.9983 43.4421 22.0104 43.4539 22.0394 43.4679Z" fill="#F1E1C1"/>
<path d="M28.9947 39.6795C29.0639 39.8481 29.0936 39.9915 29.083 40.1095C29.0724 40.2279 29.0236 40.3488 28.9371 40.4724C28.9214 40.4945 28.9272 40.5148 28.9533 40.5336C28.9796 40.5524 29.0009 40.5505 29.0159 40.5284C29.0812 40.4355 29.1592 40.3153 29.2494 40.1674C29.352 40.0022 29.4454 39.8599 29.5293 39.7404C29.6158 39.6169 29.7225 39.4741 29.8493 39.3123C29.9632 39.1685 30.0482 39.0564 30.1039 38.9771C30.119 38.9549 30.1138 38.9347 30.0874 38.9159C30.0611 38.8971 30.0402 38.8989 30.0244 38.921C29.8852 39.1198 29.7375 39.2466 29.5806 39.3008C29.4238 39.355 29.2691 39.3278 29.1152 39.2186C29.0101 39.1437 28.9111 39.0309 28.8195 38.8801L28.3314 38.057L29.4557 36.4526L30.8233 36.6691C31.0344 36.7063 31.1725 36.748 31.2385 36.7948C31.3045 36.8416 31.3308 36.9051 31.3173 36.9851C31.3045 37.0651 31.2528 37.1691 31.1626 37.297C31.1506 37.3147 31.1571 37.3328 31.1839 37.3516C31.2099 37.3704 31.2293 37.3708 31.2418 37.3531C31.3008 37.269 31.3785 37.1488 31.4749 36.9925C31.5716 36.8361 31.6588 36.7023 31.7362 36.592C31.7948 36.5079 31.8941 36.3763 32.033 36.1971C32.1722 36.0179 32.2708 35.8858 32.3298 35.8021C32.3456 35.78 32.3397 35.7597 32.3133 35.7409C32.2873 35.7221 32.2661 35.724 32.2507 35.7461C32.1671 35.8656 32.0304 35.936 31.8417 35.957C31.6522 35.9784 31.3455 35.9541 30.9204 35.884L26.528 35.1978C26.5115 35.193 26.4921 35.2059 26.4709 35.2368C26.4492 35.2678 26.4419 35.2922 26.4485 35.3106L28.6381 38.9992C28.8067 39.2846 28.9254 39.511 28.9947 39.6795ZM27.1664 36.0883L29.2354 36.4157L28.2178 37.8675L27.1664 36.0883Z" fill="#F1E1C1"/>
<path d="M28.958 32.2189C29.0797 32.0888 29.1805 32.0028 29.2611 31.9597C29.3417 31.9173 29.4194 31.911 29.4942 31.9409C29.5693 31.9711 29.666 32.0416 29.7833 32.1529L32.5032 34.7257C32.6204 34.8367 32.6977 34.9303 32.7344 35.0056C32.771 35.0812 32.7703 35.1586 32.7329 35.2379C32.6948 35.3175 32.6142 35.4241 32.4889 35.5583C32.4812 35.5661 32.4896 35.5816 32.513 35.6037C32.5361 35.6258 32.5515 35.6332 32.5589 35.6251L35.1435 32.8587C35.1765 32.8233 35.1919 32.7931 35.1893 32.7684C35.1864 32.7437 35.1691 32.7164 35.138 32.6869C34.895 32.4571 34.6063 32.1503 34.2713 31.7668C34.2596 31.7558 34.2438 31.7591 34.2229 31.7772C34.2028 31.7949 34.1966 31.8115 34.2046 31.8266C34.4084 32.1378 34.4971 32.4634 34.4714 32.8023C34.4458 33.1419 34.3025 33.4513 34.0408 33.7312L33.7099 34.0855C33.6029 34.1999 33.5179 34.2754 33.4545 34.3116C33.3907 34.3481 33.327 34.3529 33.2636 34.3263C33.2002 34.2994 33.1155 34.236 33.01 34.1361L30.3194 31.5913C30.2018 31.4803 30.1248 31.387 30.0882 31.3118C30.0515 31.2366 30.0508 31.158 30.0867 31.0765C30.1223 30.9951 30.2007 30.8892 30.3224 30.7594C30.333 30.7476 30.3271 30.7307 30.3037 30.7082C30.2802 30.686 30.263 30.6809 30.2513 30.6927L29.9815 30.9936C29.8273 31.1746 29.695 31.324 29.5843 31.442C29.4813 31.5522 29.3454 31.6905 29.1753 31.8565L28.888 32.1526C28.8803 32.1603 28.8888 32.1754 28.9118 32.1979C28.9353 32.2193 28.9507 32.2267 28.958 32.2189Z" fill="#F1E1C1"/>
<path d="M34.2007 27.0181C34.3447 26.9141 34.4605 26.8492 34.5474 26.8226C34.6342 26.7964 34.7119 26.8053 34.7801 26.8495C34.8479 26.8938 34.9285 26.9815 35.0227 27.1136L37.1976 30.1664C37.2914 30.2981 37.3479 30.4054 37.3673 30.4884C37.3867 30.5713 37.3702 30.6477 37.3178 30.7185C37.2654 30.7893 37.1654 30.8785 37.0173 30.9854C37.0085 30.9917 37.0133 31.0079 37.0323 31.0345C37.051 31.0607 37.0646 31.071 37.0734 31.0647C37.2218 30.9574 37.3361 30.8719 37.416 30.8077L37.8767 30.4655C38.0035 30.374 38.1185 30.2944 38.2219 30.2265C38.3256 30.1583 38.4117 30.103 38.4802 30.0599C38.6689 29.9441 38.8309 29.8371 38.9661 29.7394C39.3634 29.4529 39.665 29.1008 39.8702 28.683C40.0758 28.2655 40.1597 27.8223 40.1227 27.3529C40.086 26.8842 39.916 26.4358 39.6122 26.0092C39.3429 25.6312 39.0054 25.359 38.5986 25.1927C38.1929 25.0264 37.7546 24.98 37.2841 25.053C36.8139 25.1264 36.3559 25.3233 35.9102 25.6448C35.8359 25.6983 35.6926 25.8082 35.4808 25.9745C35.3107 26.1168 35.1385 26.2511 34.964 26.3772C34.8501 26.459 34.6943 26.5649 34.4961 26.6947L34.1439 26.9384C34.1355 26.945 34.1402 26.9613 34.1589 26.9874C34.1784 27.0144 34.1919 27.0243 34.2007 27.0181ZM35.6676 26.0696C35.7523 25.9752 35.8868 25.8617 36.0704 25.7293C36.3716 25.5121 36.6996 25.4103 37.0532 25.4243C37.4076 25.4387 37.7554 25.5537 38.0976 25.7691C38.4399 25.9848 38.7455 26.2817 39.0149 26.66C39.2967 27.0557 39.4733 27.4425 39.5441 27.8205C39.6148 28.1984 39.5847 28.5443 39.4546 28.8577C39.3245 29.1716 39.1083 29.437 38.8067 29.6542C38.5403 29.8464 38.334 29.9374 38.1878 29.9264C38.0412 29.9157 37.9038 29.8202 37.7752 29.6399L35.6614 26.6729C35.5738 26.5501 35.5317 26.4421 35.535 26.3499C35.5387 26.2577 35.583 26.1644 35.6676 26.0696Z" fill="#F1E1C1"/>
<path d="M41.5509 26.4801C41.9185 26.7474 42.3286 26.8997 42.7811 26.9373C43.2337 26.9753 43.6848 26.8827 44.133 26.6607C44.586 26.4362 44.9543 26.1209 45.2383 25.7149C45.5223 25.3089 45.689 24.8642 45.7399 24.3808C45.7912 23.8973 45.7081 23.4349 45.4918 22.9932C45.2973 22.5953 45.0202 22.2656 44.6611 22.0034C44.302 21.7412 43.8963 21.5882 43.4433 21.5443C42.9908 21.5005 42.5349 21.5923 42.0768 21.8194C41.6671 22.0226 41.3094 22.3113 41.0046 22.6856C40.6997 23.0599 40.5087 23.4876 40.4325 23.9685C40.3567 24.4493 40.4406 24.9398 40.6854 25.4394C40.8954 25.8661 41.1834 26.2131 41.5509 26.4801ZM41.0328 23.2008C41.1255 22.7358 41.4062 22.3873 41.8734 22.1554C42.2399 21.9736 42.6082 21.9149 42.9779 21.9787C43.3481 22.0425 43.6929 22.2151 44.0136 22.4964C44.3338 22.7778 44.6032 23.1418 44.822 23.5876C45.0283 24.0098 45.14 24.4066 45.1573 24.7779C45.1745 25.1492 45.1071 25.4708 44.9554 25.7418C44.8036 26.0128 44.5827 26.2201 44.2935 26.3639C43.956 26.5313 43.6017 26.5756 43.2312 26.4974C42.8599 26.4188 42.5074 26.2308 42.1725 25.9325C41.8375 25.6341 41.5575 25.2547 41.3314 24.7938C41.0397 24.1968 40.9401 23.6661 41.0328 23.2008Z" fill="#F1E1C1"/>
<path d="M47.355 23.7934C47.6947 24.1061 48.1124 24.3093 48.6086 24.4029C49.1048 24.4966 49.6439 24.456 50.2262 24.2809C50.7359 24.1275 51.2933 23.8808 51.8994 23.5408C51.9324 23.5198 51.9526 23.5024 51.9595 23.4888C51.9669 23.4755 51.9661 23.453 51.9566 23.4221C51.9489 23.3962 51.9214 23.3369 51.8741 23.2436C51.8265 23.1507 51.7682 22.9873 51.699 22.7542C51.6114 22.4589 51.5561 22.2498 51.5337 22.1266C51.511 22.0038 51.5147 21.9164 51.5443 21.8652C51.574 21.8139 51.6414 21.7756 51.7459 21.7498C51.7715 21.742 51.7789 21.7199 51.7682 21.6838C51.7653 21.6734 51.7583 21.6627 51.7463 21.6524C51.7342 21.6421 51.7235 21.638 51.7133 21.641C51.4399 21.7402 51.1742 21.8283 50.917 21.9058C50.6593 21.9832 50.313 22.0732 49.8777 22.1757C49.8678 22.1786 49.8605 22.1878 49.8564 22.2033C49.8524 22.2188 49.8531 22.2339 49.8575 22.2494C49.8696 22.2911 49.8916 22.307 49.9228 22.2977C50.1855 22.2188 50.3742 22.1819 50.4911 22.186C50.6073 22.1908 50.6971 22.2413 50.759 22.3383C50.8217 22.4353 50.8928 22.6185 50.9727 22.8877C51.05 23.147 51.08 23.3524 51.0632 23.5039C51.0463 23.6558 50.984 23.7761 50.8759 23.8649C50.7678 23.9538 50.6025 24.0316 50.3812 24.0983C49.9433 24.23 49.5226 24.2351 49.1195 24.1135C48.7156 23.9921 48.3653 23.7661 48.0681 23.4346C47.7705 23.1038 47.5521 22.7023 47.4118 22.2306C47.2798 21.7852 47.2469 21.3674 47.3132 20.9776C47.3799 20.5878 47.532 20.2585 47.7687 19.9897C48.0054 19.7209 48.3019 19.5328 48.6577 19.4263C49.1107 19.2898 49.5215 19.3145 49.8909 19.5C50.2603 19.6855 50.5472 19.9252 50.7524 20.2191C50.7634 20.2383 50.7828 20.2412 50.8096 20.2272C50.8363 20.2132 50.8473 20.1988 50.8429 20.1833L50.438 19.1873C50.4131 19.1217 50.394 19.0819 50.3816 19.069C50.3695 19.0557 50.3372 19.0457 50.2844 19.0387C50.1067 19.0074 49.8898 19.0081 49.6329 19.0398C49.376 19.0715 49.1187 19.1265 48.8615 19.2039C48.3001 19.3728 47.8237 19.6302 47.433 19.9761C47.0424 20.3223 46.7752 20.7258 46.6312 21.1867C46.4872 21.6476 46.4894 22.1266 46.6374 22.6241C46.7763 23.0913 47.0153 23.4807 47.355 23.7934Z" fill="#F1E1C1"/>
<path d="M54.5985 19.4362C54.5996 19.4524 54.6154 19.4594 54.6447 19.4569C54.674 19.4546 54.6883 19.448 54.6876 19.4369C54.7671 19.0184 54.9045 18.6991 55.0998 18.4797C55.2951 18.2603 55.5564 18.1371 55.8829 18.1105C56.0281 18.0987 56.1358 18.1035 56.208 18.1249C56.2795 18.1463 56.3319 18.188 56.3637 18.2507C56.3956 18.3134 56.4172 18.4144 56.4286 18.5545L56.7295 22.2984C56.7427 22.46 56.735 22.5816 56.7064 22.6624C56.6778 22.7435 56.6148 22.8014 56.518 22.8364C56.4209 22.8715 56.2681 22.8977 56.0592 22.9143C56.0486 22.915 56.0442 22.9316 56.0471 22.964C56.0497 22.9965 56.0563 23.012 56.0673 23.0112C56.2655 22.9954 56.4205 22.9799 56.5327 22.9651L57.159 22.9058L57.8186 22.8604C57.9263 22.8571 58.0736 22.8475 58.2613 22.8324C58.277 22.8309 58.2843 22.8143 58.2814 22.7819C58.2789 22.7498 58.2697 22.7343 58.2536 22.7354C58.0447 22.7524 57.8908 22.7513 57.7922 22.7321C57.6936 22.7129 57.6251 22.6672 57.587 22.5942C57.5489 22.5215 57.5225 22.4013 57.5093 22.2343L57.2099 18.5066C57.1985 18.3609 57.2018 18.2536 57.2205 18.1839C57.2392 18.1146 57.2836 18.0637 57.3535 18.0305C57.4235 17.9977 57.5338 17.9752 57.6834 17.9631C58.0212 17.9354 58.2968 18.0121 58.5108 18.1928C58.7248 18.3735 58.8751 18.6692 58.9623 19.0796C58.9689 19.0955 58.9865 19.1021 59.0162 19.0999C59.0455 19.0973 59.0598 19.0881 59.0583 19.0719C59.0415 18.8617 59.0272 18.5862 59.0165 18.2451C59.0052 17.9044 59.0008 17.6496 59.0037 17.4811C59.0015 17.4597 58.9872 17.4497 58.9608 17.452C58.9341 17.4542 58.9187 17.4663 58.915 17.4881C58.8949 17.5711 58.8388 17.6301 58.7476 17.6647C58.6559 17.6994 58.5083 17.7248 58.3045 17.7414L57.7588 17.7942C57.4063 17.8336 57.0717 17.8664 56.7559 17.8922C56.1395 17.9424 55.6008 17.9778 55.1387 17.9996C54.8385 18.0239 54.6839 17.9767 54.6744 17.8583C54.6722 17.8314 54.6564 17.8192 54.6267 17.8215C54.597 17.8237 54.5835 17.8384 54.5857 17.8653C54.5992 18.0327 54.6058 18.2828 54.6058 18.6165C54.6051 18.9517 54.6029 19.2242 54.5985 19.4362Z" fill="#F1E1C1"/>
<path d="M60.078 22.7221C60.2543 22.7339 60.3939 22.7405 60.4969 22.742L61.0766 22.7726L61.6714 22.8206C61.7674 22.8324 61.9041 22.8442 62.0807 22.8563C62.091 22.8571 62.098 22.8412 62.1002 22.8088C62.1024 22.7763 62.098 22.7597 62.0873 22.759C61.9056 22.7468 61.7733 22.7247 61.6923 22.6919C61.6106 22.6594 61.5578 22.6045 61.5333 22.5267C61.5091 22.4492 61.5017 22.3268 61.5127 22.1594L61.6322 20.3544C61.7923 20.3761 61.9309 20.3905 62.05 20.3986C62.1137 20.403 62.2053 20.4038 62.3241 20.4008C62.7499 21.2099 63.1164 21.8415 63.4227 22.2958C63.7298 22.7498 63.9446 22.981 64.0677 22.9895L65.351 23.0754C65.45 23.0964 65.5628 23.1178 65.701 23.1403C65.8919 23.1727 66.0587 23.2052 66.1994 23.2376C66.346 23.2712 66.5178 23.3158 66.7146 23.3722C66.8902 23.4235 67.0257 23.46 67.1199 23.4814C67.1456 23.4876 67.1621 23.4744 67.1698 23.443C67.1771 23.4113 67.1672 23.3925 67.1415 23.3866C66.9052 23.3328 66.7329 23.2432 66.6234 23.1185C66.5134 22.9935 66.4794 22.839 66.5219 22.6543C66.5501 22.5278 66.6164 22.3932 66.7201 22.2505L67.2907 21.4824L69.193 21.9171L69.5158 23.2719C69.5616 23.4821 69.5759 23.6267 69.558 23.7059C69.54 23.7848 69.4916 23.8335 69.4132 23.852C69.3344 23.8704 69.2194 23.8615 69.0677 23.8269C69.046 23.8221 69.0325 23.8354 69.0255 23.8671C69.0186 23.8988 69.0255 23.9169 69.0464 23.9217C69.1457 23.9445 69.2861 23.9711 69.4664 24.0009C69.647 24.0312 69.8028 24.0614 69.9336 24.0913C70.0329 24.1141 70.192 24.1558 70.4096 24.2167C70.6277 24.2779 70.786 24.3192 70.886 24.342C70.9121 24.3479 70.9285 24.335 70.9359 24.3037C70.9436 24.2723 70.9337 24.2532 70.9073 24.2473C70.7662 24.2152 70.6497 24.1149 70.558 23.9471C70.4664 23.7793 70.3719 23.4843 70.2744 23.0628L69.2296 18.7145C69.2282 18.6976 69.2087 18.6847 69.1728 18.6762C69.1358 18.6677 69.1105 18.6703 69.0966 18.6839L66.542 22.1266C66.3438 22.3921 66.1814 22.589 66.0524 22.7177C65.9242 22.8464 65.804 22.9286 65.6915 22.9636C65.5786 22.9987 65.4492 22.9998 65.3023 22.9662C65.299 22.9655 65.2975 22.9673 65.295 22.9673C65.1004 22.9378 64.9054 22.8471 64.7134 22.6874C64.4961 22.5079 64.252 22.2247 63.9819 21.8375C63.7119 21.451 63.3784 20.9163 62.9819 20.2338C63.2644 20.1117 63.4953 19.9377 63.6748 19.7113C63.8544 19.4849 63.9541 19.223 63.9731 18.9262C63.9948 18.5969 63.8845 18.3321 63.6419 18.1315C63.3993 17.9313 63.0449 17.8152 62.5784 17.7838C62.4553 17.7757 62.3435 17.7709 62.2442 17.7694C62.1449 17.768 62.0595 17.768 61.9895 17.7687C61.7799 17.7709 61.5857 17.7661 61.409 17.7543C61.2639 17.7447 61.0741 17.7267 60.8385 17.6997L60.4211 17.6636C60.4101 17.6629 60.4038 17.6787 60.4016 17.7112C60.3994 17.7432 60.4031 17.7598 60.4145 17.7606C60.5907 17.7724 60.7215 17.7963 60.8047 17.8314C60.8887 17.8668 60.9429 17.9236 60.9667 18.0006C60.9909 18.0781 60.9982 18.1979 60.988 18.3598L60.7399 22.1078C60.7296 22.2697 60.7047 22.3888 60.668 22.4647C60.6303 22.5411 60.5687 22.5897 60.4848 22.6111C60.4002 22.6325 60.266 22.6369 60.0835 22.6248C60.067 22.6237 60.0586 22.6395 60.0564 22.6716C60.0542 22.7037 60.0612 22.721 60.078 22.7221ZM68.655 19.6475L69.1431 21.6974L67.4215 21.3039L68.655 19.6475ZM61.7601 18.428C61.7737 18.223 61.8275 18.0843 61.9206 18.0121C62.0144 17.9398 62.1661 17.9107 62.375 17.9247C62.6543 17.9435 62.8609 18.0441 62.9976 18.2267C63.1336 18.4092 63.1875 18.719 63.1581 19.1563C63.1325 19.545 63.0387 19.8219 62.8767 19.9871C62.7151 20.1527 62.46 20.2235 62.1115 20.2002C61.929 20.1881 61.7744 20.167 61.6465 20.1368L61.7601 18.428Z" fill="#F1E1C1"/>
<path d="M71.6437 24.6984L72.1926 24.8875L72.7515 25.0974C72.846 25.1368 72.9739 25.1859 73.1366 25.2441C73.1517 25.2497 73.1645 25.2371 73.1751 25.2065C73.1857 25.1759 73.1835 25.1582 73.1685 25.1527C72.9959 25.0907 72.875 25.0332 72.8061 24.9794C72.7372 24.9255 72.702 24.8588 72.7024 24.7784C72.702 24.698 72.7302 24.5789 72.7863 24.4211L74.0367 20.8995C74.0909 20.7468 74.1455 20.6384 74.199 20.5746C74.2525 20.5108 74.3251 20.4777 74.4141 20.4754C74.5035 20.4729 74.6322 20.502 74.7989 20.5621C74.8139 20.5676 74.8267 20.5547 74.8377 20.5241C74.848 20.4935 74.8458 20.4758 74.8308 20.4703L74.4486 20.3416C74.2225 20.2719 74.0301 20.2085 73.8739 20.1521C73.7321 20.1012 73.5518 20.0304 73.3327 19.94L72.9406 19.7903C72.9255 19.7848 72.9127 19.7977 72.9017 19.8279C72.8915 19.8585 72.8937 19.8766 72.9087 19.8818C73.0809 19.9437 73.2008 20.0027 73.2693 20.0588C73.3382 20.1152 73.3745 20.1841 73.3796 20.2664C73.3851 20.3486 73.3598 20.4662 73.3059 20.6189L72.0497 24.1556C71.9955 24.3086 71.9394 24.4163 71.883 24.479C71.8265 24.542 71.7543 24.5719 71.6668 24.5693C71.5795 24.5667 71.4495 24.5343 71.2772 24.4723C71.2622 24.4668 71.2494 24.4793 71.2384 24.5099C71.2281 24.5406 71.2303 24.5586 71.2453 24.5638C71.4132 24.6243 71.5458 24.6689 71.6437 24.6984Z" fill="#F1E1C1"/>
<path d="M74.4372 25.3759C74.2569 25.4541 74.063 25.4412 73.8567 25.3372C73.8424 25.3299 73.8278 25.3409 73.8135 25.3697C73.7992 25.3984 73.7988 25.4169 73.8135 25.4239C73.9579 25.4965 74.0685 25.55 74.1484 25.5839L74.5772 25.7915L74.9554 25.9914C75.0202 26.0301 75.117 26.0825 75.2474 26.1477C75.2566 26.1525 75.269 26.1404 75.2837 26.1116C75.298 26.0825 75.3006 26.0655 75.2914 26.0607C75.0994 25.9637 74.9865 25.8221 74.9528 25.6359C74.9191 25.4497 74.9664 25.2284 75.0946 24.9722L76.5663 22.0211L77.9757 27.6792C77.9808 27.6935 77.9966 27.7042 78.0223 27.7116C78.0486 27.719 78.0659 27.7153 78.0736 27.7009L79.9425 23.9522C80.0704 23.6959 80.2214 23.5256 80.3958 23.4411C80.5702 23.3567 80.7538 23.3629 80.9455 23.4599C80.9547 23.4647 80.9679 23.4525 80.9821 23.4238C80.9961 23.395 80.9986 23.3777 80.9895 23.3729L80.6688 23.2199C80.5006 23.1472 80.3687 23.0864 80.2727 23.0381C80.1719 22.9872 80.0469 22.9179 79.8982 22.8305L79.6061 22.6741C79.5969 22.6693 79.5845 22.6815 79.5698 22.7103C79.5555 22.7394 79.553 22.7563 79.5621 22.7611C79.7497 22.8555 79.8597 22.9975 79.8912 23.1859C79.9231 23.3744 79.8758 23.5971 79.7479 23.8534L78.4682 26.4202L77.407 22.0362L77.3498 21.7168C77.3406 21.6394 77.3307 21.5863 77.3212 21.5572C77.3121 21.528 77.2875 21.5037 77.2498 21.4845C77.1673 21.4432 77.0973 21.4104 77.0372 21.3861L76.5718 21.1604C76.4571 21.1021 76.3688 21.0549 76.3087 21.0184L76.0243 20.8658C76.0152 20.861 76.0023 20.8731 75.988 20.9019C75.9741 20.9307 75.9712 20.948 75.9803 20.9528C76.0954 21.0111 76.1929 21.0966 76.2724 21.2091C76.3516 21.3215 76.4219 21.4845 76.4842 21.6973L74.9008 24.8733C74.7714 25.1304 74.6179 25.2978 74.4372 25.3759Z" fill="#F1E1C1"/>
<path d="M82.1644 24.3808C82.2175 24.4519 82.2366 24.5279 82.2215 24.609C82.2065 24.6902 82.1545 24.7982 82.0654 24.9332L80 28.062C79.911 28.1973 79.8311 28.2884 79.7615 28.336C79.6919 28.3832 79.6149 28.395 79.5302 28.3714C79.4463 28.3474 79.3272 28.2847 79.1751 28.183C79.162 28.1741 79.1462 28.1829 79.1282 28.2102C79.1103 28.2375 79.1077 28.2552 79.1213 28.2641C79.269 28.3629 79.3873 28.4385 79.4749 28.4909L79.963 28.8072L80.4559 29.1461C80.538 29.2077 80.6501 29.2859 80.7938 29.3818C80.8074 29.3906 80.8231 29.3818 80.8411 29.3545C80.8587 29.3276 80.8616 29.3095 80.848 29.3006C80.6956 29.1989 80.5926 29.1137 80.5373 29.0447C80.483 28.9758 80.4658 28.9024 80.4845 28.8242C80.5032 28.746 80.5593 28.6372 80.6516 28.4975L82.7071 25.3823C82.7965 25.247 82.8753 25.1551 82.9431 25.1061C83.0109 25.0571 83.0882 25.0423 83.1758 25.0619C83.2626 25.081 83.381 25.14 83.5283 25.2389C83.5415 25.2477 83.5573 25.2389 83.5752 25.2116C83.5936 25.1843 83.5958 25.1666 83.5822 25.1577L83.2421 24.9402C83.0384 24.8174 82.868 24.7097 82.7294 24.6171C82.6037 24.5331 82.4462 24.421 82.2545 24.2805L81.9104 24.0404C81.8968 24.0316 81.8811 24.0404 81.8631 24.0677C81.8455 24.0946 81.843 24.1127 81.8565 24.1215C82.0082 24.2229 82.1116 24.3096 82.1644 24.3808Z" fill="#F1E1C1"/>
<path d="M84.8075 26.2287C84.8577 26.357 84.8874 26.5322 84.8969 26.7538L82.6029 29.4549C82.4175 29.6728 82.2284 29.7982 82.0345 29.8306C81.8407 29.8631 81.656 29.8037 81.4797 29.6529C81.4676 29.6426 81.4508 29.6496 81.4295 29.6743C81.4086 29.699 81.4046 29.7167 81.4167 29.727C81.5394 29.8325 81.6351 29.9114 81.7036 29.9634L82.0708 30.268L82.39 30.5534C82.4435 30.6069 82.5259 30.681 82.6363 30.7757C82.6439 30.7828 82.6593 30.7739 82.6799 30.7492C82.7011 30.7245 82.707 30.7086 82.6993 30.7016C82.5358 30.5611 82.4604 30.3963 82.4721 30.2075C82.4842 30.0187 82.5828 29.8152 82.7682 29.5972L84.8995 27.0871L84.9197 32.92C84.9211 32.9351 84.9332 32.9495 84.9578 32.9632C84.9812 32.9764 84.9985 32.9772 85.0094 32.9646L87.7179 29.7764C87.9026 29.5585 88.0903 29.4294 88.279 29.3896C88.4688 29.3498 88.6447 29.3999 88.8082 29.5404C88.8162 29.5474 88.8313 29.539 88.8518 29.5143C88.873 29.4895 88.8793 29.4737 88.8712 29.4667L88.5963 29.241C88.4509 29.1296 88.3365 29.0389 88.2544 28.9689C88.1691 28.8951 88.0635 28.7978 87.9404 28.6772L87.6945 28.4548C87.6864 28.4478 87.6714 28.4567 87.6505 28.4814C87.6296 28.5061 87.6234 28.5219 87.6315 28.5289C87.7909 28.6661 87.8638 28.8298 87.8499 29.0209C87.8363 29.2119 87.7363 29.4162 87.5519 29.6341L85.6977 31.8175L85.712 27.3051L85.7332 26.9813C85.7416 26.9039 85.7453 26.85 85.7427 26.8194C85.7402 26.7888 85.7226 26.7597 85.69 26.7317C85.6207 26.6719 85.5599 26.6232 85.5067 26.5849L85.1095 26.2538C85.0109 26.1693 84.9376 26.1022 84.8881 26.0528L84.6489 25.836C84.6408 25.8286 84.6258 25.8378 84.6052 25.8625C84.5836 25.8872 84.5778 25.9027 84.5858 25.9101C84.6829 25.9942 84.7573 26.1004 84.8075 26.2287Z" fill="#F1E1C1"/>
<path d="M87.0753 33.201C86.9265 33.6391 86.9086 34.1059 87.0218 34.6011C87.1354 35.096 87.3875 35.5768 87.7793 36.0437C88.123 36.4526 88.5708 36.8682 89.1235 37.2908C89.1557 37.3125 89.1792 37.3243 89.1942 37.3255C89.2096 37.3266 89.2294 37.317 89.2539 37.296C89.2744 37.2786 89.3177 37.2292 89.3837 37.1485C89.4496 37.0677 89.5746 36.9486 89.7589 36.7915C89.9934 36.5924 90.1616 36.4582 90.2646 36.3881C90.3672 36.318 90.4486 36.2863 90.5069 36.2933C90.5655 36.3003 90.6271 36.3468 90.6926 36.4327C90.7106 36.4534 90.733 36.4515 90.7615 36.4268C90.7696 36.4198 90.7766 36.4091 90.7817 36.394C90.7872 36.3789 90.7857 36.3674 90.7788 36.3593C90.579 36.1466 90.3918 35.9371 90.2195 35.7306C90.0455 35.5241 89.8252 35.2405 89.5574 34.8806C89.55 34.8722 89.539 34.8696 89.5236 34.8722C89.5083 34.8747 89.4943 34.881 89.4822 34.8917C89.4493 34.9197 89.4438 34.9459 89.4639 34.9706C89.6409 35.1812 89.7505 35.3412 89.7926 35.4504C89.8348 35.5595 89.8249 35.6624 89.7611 35.7586C89.6977 35.8549 89.5596 35.9939 89.3459 36.1753C89.1403 36.3501 88.9659 36.46 88.8208 36.5054C88.6757 36.5507 88.5412 36.5415 88.4166 36.477C88.292 36.4128 88.1553 36.2919 88.0065 36.1145C87.7111 35.7634 87.5385 35.3774 87.4876 34.957C87.4363 34.5362 87.5026 34.1225 87.6851 33.7158C87.8676 33.309 88.1461 32.9469 88.5188 32.6291C88.8721 32.3289 89.2393 32.1312 89.6208 32.0368C90.0022 31.9424 90.3628 31.9509 90.7029 32.0619C91.0426 32.1729 91.3325 32.3709 91.5714 32.656C91.8771 33.0196 92.0196 33.4086 91.998 33.8231C91.9764 34.2375 91.8734 34.5985 91.6872 34.905C91.6744 34.923 91.6795 34.9419 91.703 34.961C91.7261 34.9802 91.7433 34.9846 91.7565 34.9743L92.5011 34.2025C92.5513 34.1531 92.5796 34.1199 92.5862 34.103C92.5938 34.0864 92.5898 34.0524 92.5748 34.0012C92.5326 33.8249 92.4451 33.6247 92.3128 33.4009C92.1808 33.177 92.0288 32.9613 91.8547 32.7552C91.4769 32.3049 91.0518 31.969 90.5798 31.747C90.1081 31.525 89.6336 31.4398 89.1564 31.4918C88.6786 31.5438 88.2436 31.7374 87.8497 32.0726C87.4836 32.3864 87.2241 32.7625 87.0753 33.201Z" fill="#F1E1C1"/>
<path d="M94.8377 38.2941L91.567 40.1046C91.4212 40.1854 91.3079 40.2311 91.2277 40.2414C91.147 40.2518 91.0759 40.2282 91.0137 40.1703C90.951 40.1124 90.8762 40.0025 90.7883 39.8413C90.7806 39.827 90.7626 39.8277 90.7344 39.8436C90.7062 39.8594 90.6963 39.8742 90.7036 39.8885C90.789 40.0449 90.8586 40.1666 90.9121 40.2543L91.1991 40.7621L91.53 41.3846C91.5846 41.4963 91.6652 41.649 91.7715 41.8437C91.7792 41.858 91.7971 41.8573 91.825 41.8414C91.8536 41.8256 91.8635 41.8108 91.8558 41.7965C91.737 41.5785 91.6638 41.4107 91.6355 41.2931C91.6081 41.1755 91.6187 41.08 91.6678 41.007C91.7169 40.9336 91.8162 40.8554 91.9668 40.7717L95.1953 38.9847C95.3317 38.9091 95.4383 38.8656 95.5149 38.8542C95.5915 38.8428 95.6578 38.8601 95.7135 38.9062C95.7692 38.9523 95.8282 39.0323 95.8905 39.1459C96.0591 39.4538 96.0884 39.7521 95.9796 40.0408C95.87 40.3296 95.6296 40.577 95.258 40.7828C94.8809 40.9915 94.5445 41.0663 94.2488 41.0077C93.953 40.9494 93.7376 40.7968 93.6031 40.5504C93.5536 40.4605 93.518 40.3723 93.4953 40.2861C93.4946 40.2739 93.4858 40.2684 93.4675 40.2691C93.4495 40.2698 93.4334 40.2743 93.4195 40.282C93.3964 40.2953 93.388 40.3085 93.3964 40.3229C93.4213 40.4258 93.4708 40.5438 93.543 40.6766C93.6804 40.9277 93.8662 41.1445 94.1004 41.3263C94.3345 41.5081 94.5973 41.6187 94.8886 41.6582C95.1799 41.6976 95.4746 41.6349 95.7707 41.4708C96.1804 41.2441 96.4098 40.9395 96.4585 40.5575C96.5073 40.1754 96.4036 39.7499 96.147 39.2808C96.0745 39.1481 96.0089 39.0345 95.9513 38.9401C95.8938 38.8457 95.8469 38.7712 95.8106 38.717C95.7113 38.5684 95.6318 38.4397 95.5724 38.3309C95.5024 38.203 95.4148 38.0322 95.3104 37.8184L95.1155 37.4448C95.1078 37.4304 95.0902 37.4312 95.0616 37.447C95.0337 37.4629 95.0235 37.4776 95.0308 37.492C95.1162 37.6484 95.166 37.7704 95.1803 37.8582C95.1946 37.946 95.1759 38.0212 95.1246 38.0835C95.0759 38.1455 94.9791 38.2159 94.8377 38.2941Z" fill="#F1E1C1"/>
<path d="M97.1832 42.8725L93.6941 44.2059C93.5431 44.2635 93.4258 44.2911 93.3412 44.2885C93.2573 44.286 93.1873 44.2502 93.133 44.1816C93.0788 44.113 93.0183 43.9924 92.9542 43.8206C92.948 43.8055 92.9308 43.8036 92.9003 43.8151C92.8703 43.8265 92.8582 43.8398 92.8633 43.8549C92.9264 44.0219 92.978 44.1521 93.0202 44.2465L93.2334 44.7897L93.4383 45.3539C93.4673 45.4468 93.5134 45.5766 93.5765 45.7436C93.5809 45.7536 93.5973 45.7528 93.6281 45.7418C93.6582 45.7304 93.671 45.7193 93.667 45.7093C93.6021 45.5375 93.5677 45.4077 93.5629 45.3196C93.5585 45.2314 93.586 45.1603 93.6468 45.1057C93.7062 45.0511 93.8143 44.994 93.97 44.9342L95.651 44.2919C95.6983 44.4475 95.7426 44.581 95.7847 44.692C95.8078 44.7528 95.8448 44.8365 95.8972 44.9442C95.3432 45.6706 94.9254 46.2687 94.6425 46.7381C94.3596 47.2076 94.2401 47.5007 94.2837 47.6169L94.7447 48.8382C94.7506 48.8533 94.7682 48.8551 94.7982 48.8437C94.8283 48.8323 94.8404 48.819 94.8349 48.8039C94.7568 48.5963 94.7535 48.3562 94.8265 48.0826C94.8979 47.809 95.0529 47.4679 95.2897 47.0593C95.5264 46.6508 95.8709 46.1227 96.322 45.4763C96.5499 45.6843 96.8031 45.8229 97.0824 45.8926C97.362 45.9623 97.6398 45.9446 97.9157 45.8388C98.2224 45.7219 98.4156 45.5102 98.4958 45.2049C98.5761 44.8992 98.5332 44.5268 98.3668 44.0868C98.3232 43.9707 98.2811 43.8667 98.24 43.7749C98.1997 43.6831 98.1649 43.6056 98.1348 43.5418C98.0458 43.3501 97.9696 43.1712 97.9065 43.0042C97.8549 42.8677 97.7918 42.6863 97.7182 42.4599L97.5767 42.0628C97.5727 42.0524 97.5558 42.0535 97.5254 42.065C97.4954 42.0764 97.4822 42.0871 97.4862 42.0974C97.5492 42.2645 97.5822 42.3935 97.5852 42.485C97.5885 42.5764 97.5599 42.6494 97.5001 42.704C97.4389 42.759 97.3338 42.815 97.1832 42.8725ZM97.886 43.5805C97.9897 43.6362 98.0791 43.7623 98.1535 43.9596C98.2528 44.2222 98.2485 44.4541 98.14 44.6547C98.0315 44.8549 97.7739 45.033 97.3671 45.1887C97.0058 45.3269 96.7166 45.3564 96.4997 45.2772C96.2828 45.1979 96.1124 44.994 95.9881 44.6654C95.9233 44.4936 95.8778 44.3427 95.8525 44.2141L97.443 43.6064C97.6335 43.5333 97.7812 43.5249 97.886 43.5805Z" fill="#F1E1C1"/>
<path d="M97.1789 48.2749C96.7161 48.3738 96.3112 48.5692 95.9634 48.862C95.6164 49.1544 95.3686 49.5169 95.2209 49.9494C95.0733 50.382 95.0509 50.844 95.1546 51.3363C95.2591 51.8334 95.4723 52.2703 95.7937 52.6468C96.1144 53.0233 96.5017 53.2958 96.9547 53.4643C97.4076 53.6332 97.8738 53.6661 98.352 53.5643C98.7829 53.4721 99.1688 53.2833 99.5096 52.9975C99.8508 52.7121 100.097 52.3537 100.251 51.9226C100.405 51.4915 100.428 51.0251 100.322 50.5225C100.228 50.0726 100.038 49.653 99.7518 49.2632C99.4664 48.8734 99.1014 48.5825 98.6572 48.39C98.2135 48.1979 97.7202 48.1595 97.1789 48.2749ZM99.2491 49.164C99.6742 49.369 99.9413 49.7278 100.049 50.2411C100.134 50.643 100.1 51.0166 99.9479 51.3617C99.7955 51.7065 99.5441 52.0008 99.1945 52.2442C98.8445 52.4875 98.4278 52.6608 97.9441 52.7641C97.4871 52.8618 97.0771 52.8732 96.715 52.7984C96.3537 52.7235 96.0605 52.5786 95.837 52.364C95.6131 52.149 95.4676 51.8832 95.4012 51.5657C95.3232 51.1954 95.3675 50.8388 95.5343 50.4963C95.701 50.1537 95.9693 49.8561 96.3383 49.6032C96.7073 49.3502 97.1423 49.1703 97.6421 49.0637C98.2886 48.9254 98.8243 48.959 99.2491 49.164Z" fill="#F1E1C1"/>
<path d="M96.5614 55.4347C96.4009 55.4451 96.28 55.4369 96.2008 55.4097C96.1213 55.3824 96.0649 55.3252 96.0323 55.2378C95.9996 55.1508 95.9777 55.0099 95.9645 54.8156C95.963 54.7994 95.9465 54.7924 95.9143 54.7942C95.882 54.7964 95.8663 54.8056 95.8674 54.8219C95.8791 55.0051 95.8908 55.1482 95.9036 55.2504L95.9495 55.8407L95.9931 56.6346C95.9953 56.7589 96.0037 56.9319 96.018 57.1531C96.0187 57.1638 96.0352 57.1682 96.0674 57.1664C96.0997 57.1642 96.1155 57.1579 96.1147 57.1468C96.0975 56.8824 96.1012 56.6859 96.125 56.5568C96.1488 56.4278 96.1983 56.3393 96.273 56.291C96.3482 56.2427 96.4713 56.2132 96.6431 56.2017L98.3728 56.0885L98.4146 56.736C98.4546 57.3567 98.2468 57.6819 97.7909 57.7118C97.7748 57.7129 97.7678 57.7295 97.77 57.7619C97.7722 57.794 97.7806 57.8098 97.7971 57.8087L98.2149 57.7733C98.2955 57.7626 98.4187 57.752 98.5847 57.7409L99.2934 57.7025C99.304 57.7018 99.3084 57.6852 99.3062 57.6531C99.304 57.6207 99.2982 57.6048 99.2868 57.6056C98.8844 57.6317 98.6642 57.3426 98.625 56.7383L98.5821 56.0745L100.328 55.9602C100.489 55.9499 100.607 55.9827 100.682 56.059C100.757 56.1354 100.801 56.2707 100.813 56.465L100.834 56.7888C100.874 57.4094 100.593 57.8047 99.9897 57.9739C99.9735 57.9806 99.9691 57.9983 99.9768 58.0278C99.9845 58.0573 99.9933 58.0717 100.004 58.0709L101.049 57.9865C101.097 57.9835 101.119 57.9548 101.116 57.9009L100.899 54.5331C100.898 54.5169 100.881 54.5099 100.849 54.5121C100.816 54.5143 100.801 54.5232 100.802 54.5394C100.813 54.7175 100.807 54.8506 100.783 54.9391C100.759 55.0273 100.71 55.0888 100.638 55.1235C100.565 55.1582 100.447 55.1807 100.287 55.1914L96.5614 55.4347Z" fill="#F1E1C1"/>
<path d="M101.043 59.3708C101.034 59.5489 101.012 59.6806 100.978 59.7654C100.943 59.8498 100.888 59.9055 100.811 59.9309C100.734 59.956 100.616 59.9652 100.454 59.956L96.7267 59.7539C96.5662 59.7451 96.4471 59.7237 96.3709 59.6898C96.2947 59.6558 96.2452 59.5961 96.2236 59.5117C96.2005 59.4265 96.195 59.2915 96.2041 59.1083C96.2049 59.092 96.1899 59.0832 96.1572 59.0813C96.125 59.0795 96.1085 59.0869 96.1074 59.1031L95.919 62.6184C95.9161 62.6674 95.9242 62.7002 95.9421 62.7176C95.9597 62.7349 95.9901 62.7445 96.0334 62.7467C96.3713 62.7651 96.7432 62.8123 97.1478 62.8887C97.1533 62.889 97.1602 62.8824 97.1698 62.8695C97.1778 62.8562 97.1833 62.8418 97.1841 62.8256C97.1848 62.8035 97.18 62.7928 97.1698 62.7921C96.4819 62.5594 96.1576 62.0819 96.1965 61.358L96.2184 60.9612C96.2272 60.7883 96.269 60.6703 96.3423 60.6061C96.4156 60.5427 96.5409 60.5154 96.7179 60.5246L98.5455 60.6246L98.504 61.3941C98.4718 61.9989 98.2248 62.2887 97.7634 62.2633C97.7528 62.2625 97.7466 62.2784 97.7447 62.3108C97.7429 62.3433 97.7473 62.3603 97.7583 62.361C97.8653 62.3669 98.0053 62.3687 98.1779 62.3676L98.5565 62.3798L99.2564 62.4259C99.2725 62.427 99.2813 62.4123 99.2828 62.3828C99.2846 62.3529 99.2769 62.3378 99.2604 62.337C98.8632 62.3153 98.6807 62.0074 98.7129 61.4137L98.754 60.636L100.396 60.7252C100.562 60.7337 100.679 60.7805 100.744 60.8657C100.809 60.9502 100.837 61.0899 100.827 61.285L100.809 61.6091C100.775 62.2301 100.45 62.5885 99.8306 62.6851C99.8149 62.6899 99.8079 62.7076 99.8119 62.7371C99.816 62.767 99.8226 62.7825 99.8339 62.7832L100.881 62.8234C100.929 62.826 100.955 62.8002 100.958 62.7463L101.138 59.3763C101.139 59.3597 101.123 59.3513 101.091 59.3494C101.061 59.3476 101.044 59.3546 101.043 59.3708Z" fill="#F1E1C1"/>
<path d="M100.207 64.9248C100.043 64.7368 99.8233 64.6188 99.5481 64.5705C99.326 64.5314 99.1226 64.5472 98.938 64.6199C98.7536 64.6914 98.5924 64.7895 98.4535 64.9134C98.3146 65.0373 98.1409 65.2132 97.9324 65.4396C97.7176 65.6708 97.5395 65.8522 97.3963 65.9839C97.2533 66.1155 97.0855 66.218 96.8931 66.2907C96.7007 66.3641 96.4878 66.3799 96.2547 66.3397C95.9634 66.2885 95.7688 66.1749 95.6713 65.9983C95.5731 65.8216 95.5445 65.6192 95.5849 65.3902C95.6457 65.0388 95.8362 64.774 96.1562 64.5977C96.4761 64.4204 96.8708 64.2828 97.3406 64.1836C97.3629 64.1818 97.375 64.1678 97.3772 64.1405C97.379 64.1139 97.3695 64.0985 97.3483 64.0944L97.3406 64.0929L96.125 63.9292C96.0554 63.9222 96.0004 63.9403 95.9605 63.983C95.8549 64.0904 95.752 64.2578 95.6523 64.4845C95.553 64.711 95.4841 64.9374 95.4456 65.1605C95.3884 65.4909 95.3969 65.7958 95.4705 66.075C95.5449 66.3537 95.6761 66.5827 95.863 66.7608C96.0499 66.9389 96.2789 67.0521 96.549 67.0997C96.7872 67.1414 97.0041 67.1229 97.2002 67.0459C97.397 66.9673 97.5696 66.8608 97.7184 66.7251C97.8672 66.5894 98.05 66.4006 98.2666 66.1587C98.4638 65.9356 98.6305 65.76 98.7672 65.6328C98.9035 65.5052 99.056 65.4064 99.2238 65.3338C99.392 65.2619 99.5738 65.2431 99.7698 65.2777C100.008 65.3194 100.184 65.4234 100.297 65.5886C100.41 65.7538 100.446 65.9566 100.405 66.1959C100.342 66.5532 100.165 66.7973 99.8721 66.9297C99.5785 67.0621 99.2615 67.1528 98.9196 67.2033C98.9028 67.2055 98.8951 67.2221 98.8951 67.2524C98.8951 67.2826 98.9031 67.2992 98.9189 67.3022L100.003 67.4677C100.072 67.4795 100.13 67.4486 100.175 67.3744C100.249 67.2609 100.32 67.117 100.385 66.9419C100.451 66.766 100.5 66.5883 100.53 66.4076C100.577 66.1362 100.576 65.8677 100.527 65.6037C100.477 65.3389 100.371 65.1129 100.207 64.9248Z" fill="#F1E1C1"/>
<path d="M98.6536 69.1002C98.4374 69.0357 98.2337 69.0283 98.0424 69.0781C97.8514 69.1283 97.6796 69.2068 97.5275 69.3141C97.375 69.4203 97.183 69.5744 96.9496 69.7758C96.7099 69.9804 96.5117 70.1394 96.3541 70.254C96.1972 70.368 96.0188 70.4495 95.819 70.4996C95.619 70.5505 95.4057 70.5413 95.1792 70.4742C94.8963 70.3897 94.7156 70.2533 94.639 70.0671C94.5617 69.8801 94.5566 69.6755 94.6226 69.4528C94.7233 69.1106 94.9432 68.8701 95.2815 68.7318C95.6193 68.5928 96.0276 68.5021 96.5058 68.459C96.5281 68.4597 96.5417 68.4472 96.5465 68.4206C96.5512 68.3944 96.5435 68.3778 96.5234 68.3712L96.5157 68.369L95.3273 68.0644C95.2587 68.0497 95.2023 68.0607 95.1572 68.0983C95.0399 68.1935 94.9187 68.3476 94.7941 68.5611C94.6691 68.7746 94.5745 68.9903 94.5104 69.2083C94.4155 69.5302 94.3895 69.8333 94.4305 70.1202C94.4723 70.406 94.5756 70.649 94.7417 70.8477C94.9069 71.0469 95.1217 71.1855 95.3844 71.2641C95.6164 71.3334 95.8344 71.3408 96.0378 71.2865C96.2419 71.232 96.4259 71.1453 96.5897 71.0284C96.7528 70.9108 96.9562 70.7441 97.1995 70.5291C97.4208 70.3304 97.6063 70.1755 97.7569 70.0652C97.9068 69.955 98.0698 69.8735 98.245 69.8219C98.4202 69.7702 98.6034 69.7725 98.7936 69.8296C99.0256 69.8989 99.1879 70.0217 99.281 70.1998C99.3748 70.3768 99.3869 70.5826 99.3184 70.816C99.2161 71.1626 99.0113 71.3857 98.7049 71.4835C98.3986 71.5812 98.0728 71.6343 97.7283 71.6446C97.7111 71.645 97.7012 71.6605 97.6979 71.6907C97.6946 71.7206 97.7008 71.7379 97.7162 71.7427L98.7745 72.0336C98.8416 72.0535 98.9021 72.0292 98.9556 71.9614C99.0421 71.857 99.1282 71.7224 99.2139 71.5557C99.2993 71.3894 99.3686 71.218 99.4202 71.0413C99.4983 70.7769 99.528 70.5111 99.5086 70.2426C99.4899 69.9745 99.4093 69.7382 99.2689 69.5317C99.1267 69.3233 98.9222 69.1799 98.6536 69.1002Z" fill="#F1E1C1"/>
<path d="M98.438 73.55C98.4087 73.5378 98.39 73.5389 98.3845 73.554C98.3156 73.7247 98.2518 73.8428 98.1932 73.9099C98.1346 73.9762 98.0639 74.0098 97.9821 74.0113C97.9004 74.0127 97.7853 73.9829 97.6358 73.922L94.1779 72.5071C94.0284 72.4463 93.9239 72.3858 93.8638 72.3268C93.8037 72.2671 93.7774 72.193 93.7828 72.1052C93.7898 72.0171 93.8272 71.888 93.8965 71.7173C93.9027 71.7025 93.8902 71.6889 93.8605 71.6771C93.8309 71.6649 93.8129 71.6664 93.807 71.6815C93.74 71.8463 93.6901 71.9784 93.6564 72.075L93.4453 72.6192L93.2134 73.1724C93.1698 73.2653 93.1155 73.3921 93.0514 73.5525C93.0452 73.5673 93.0573 73.5809 93.0873 73.5931C93.117 73.6049 93.1353 73.6034 93.1408 73.5883C93.2097 73.4183 93.272 73.2996 93.3292 73.2317C93.3849 73.1639 93.4534 73.1318 93.5333 73.1355C93.6135 73.1392 93.7301 73.1727 93.8847 73.2354L97.328 74.6437C97.4768 74.7049 97.582 74.7639 97.6435 74.8203C97.7044 74.8778 97.7337 74.9508 97.7322 75.0416C97.7307 75.1312 97.6967 75.2591 97.63 75.4243C97.6237 75.4391 97.6362 75.4527 97.6662 75.4649C97.6959 75.4771 97.7139 75.4756 97.7197 75.4605L97.8649 75.0818C97.944 74.8576 98.0147 74.6669 98.0774 74.512C98.1342 74.3715 98.2115 74.1934 98.3112 73.9773L98.4765 73.5894C98.4805 73.5754 98.4681 73.5618 98.438 73.55Z" fill="#F1E1C1"/>
<path d="M94.9875 75.5721C94.5753 75.3394 94.1421 75.217 93.6892 75.2063C93.2366 75.1956 92.8122 75.3033 92.4175 75.5301C92.0236 75.7565 91.7037 76.0894 91.4589 76.5279C91.2112 76.9708 91.0847 77.4409 91.0796 77.9365C91.0734 78.4329 91.1855 78.8949 91.416 79.3223C91.6458 79.75 91.9734 80.0837 92.4007 80.3256C92.7847 80.5428 93.1992 80.6568 93.6422 80.6693C94.086 80.6804 94.5064 80.5757 94.9043 80.3544C95.3023 80.1321 95.6263 79.7972 95.8758 79.3492C96.0997 78.9487 96.2324 78.5066 96.2734 78.0243C96.3137 77.542 96.2313 77.0806 96.0231 76.6411C95.8157 76.2015 95.4709 75.8453 94.9875 75.5721ZM95.8553 78.9561C95.6556 79.3145 95.3851 79.5727 95.0443 79.7305C94.7032 79.8887 94.3217 79.9425 93.8999 79.8931C93.477 79.843 93.0504 79.6969 92.6195 79.4536C92.2116 79.2231 91.8961 78.9598 91.6733 78.663C91.4508 78.3665 91.3255 78.0626 91.2984 77.7529C91.2713 77.4431 91.3365 77.1459 91.4944 76.8635C91.6784 76.5331 91.9452 76.2952 92.2955 76.1488C92.6458 76.0024 93.0424 75.9567 93.4861 76.012C93.9299 76.0673 94.3748 76.2207 94.8201 76.4726C95.3961 76.7982 95.7765 77.1791 95.9616 77.6157C96.1459 78.0516 96.1107 78.4985 95.8553 78.9561Z" fill="#F1E1C1"/>
<path d="M93.6645 82.6897C93.5831 82.7907 93.4801 82.8678 93.3533 82.9223C93.2273 82.9762 93.0547 83.0112 92.8344 83.0274L90.0853 80.7965C89.8639 80.6169 89.7338 80.4299 89.6957 80.2356C89.6576 80.0413 89.7115 79.8543 89.8566 79.6729C89.8661 79.6607 89.8588 79.6441 89.8335 79.6239C89.8086 79.6028 89.7906 79.5999 89.7804 79.6124C89.6792 79.7389 89.6037 79.8366 89.5535 79.9082L89.2615 80.285L88.9866 80.6154C88.9353 80.6704 88.8642 80.7556 88.7733 80.8691C88.766 80.8769 88.7759 80.892 88.8005 80.9119C88.8254 80.9326 88.8415 80.9381 88.8485 80.9296C88.9837 80.7618 89.1453 80.6803 89.3329 80.6877C89.5205 80.6943 89.7254 80.7876 89.9478 80.9676L92.5021 83.04L86.7083 83.2266C86.6926 83.2284 86.679 83.2409 86.6662 83.2653C86.6541 83.2896 86.6537 83.3069 86.6662 83.3173L89.9108 85.9505C90.1325 86.1301 90.2667 86.3148 90.311 86.5044C90.3561 86.6939 90.3117 86.8728 90.1765 87.0409C90.1695 87.0494 90.1787 87.0641 90.2036 87.0841C90.2289 87.1047 90.2447 87.1099 90.2516 87.1021L90.4686 86.8189C90.5745 86.6692 90.6613 86.5516 90.7291 86.4679C90.7999 86.3794 90.8929 86.2713 91.0102 86.1434L91.2238 85.8897C91.2312 85.8816 91.2213 85.8668 91.1967 85.8469C91.1718 85.8262 91.1553 85.8203 91.1484 85.8285C91.0172 85.9926 90.8559 86.0707 90.6665 86.0622C90.4759 86.0545 90.2707 85.9601 90.0482 85.7798L87.8264 83.977L92.3089 83.8623L92.6314 83.8733C92.7091 83.8811 92.7622 83.8822 92.7923 83.8796C92.8223 83.8763 92.8513 83.8575 92.8777 83.8243C92.9348 83.7528 92.9818 83.6901 93.018 83.6362L93.3358 83.2269C93.4167 83.1259 93.4809 83.0503 93.5292 82.9983L93.7378 82.7509C93.7447 82.7428 93.7348 82.728 93.7103 82.7077C93.6857 82.6874 93.6714 82.6815 93.6645 82.6897Z" fill="#F1E1C1"/>
<path d="M86.0931 84.8333C86.0627 84.6533 86.066 84.5066 86.1023 84.3945C86.1389 84.2809 86.2129 84.1743 86.3243 84.0733C86.3449 84.0549 86.3441 84.0342 86.3221 84.0099C86.3001 83.9855 86.2796 83.983 86.2598 84.001C86.1759 84.077 86.0733 84.1769 85.9524 84.3008C85.8157 84.4391 85.6933 84.5564 85.5852 84.6544C85.4734 84.7551 85.3375 84.8709 85.1788 85.0003C85.0355 85.115 84.9281 85.205 84.8559 85.2695C84.8361 85.288 84.8369 85.309 84.8585 85.3333C84.8805 85.3573 84.9006 85.3602 84.9212 85.3422C85.1007 85.1799 85.2733 85.0888 85.4375 85.0715C85.602 85.0534 85.7479 85.1146 85.8729 85.2559C85.9586 85.3529 86.0301 85.4841 86.0854 85.6519L86.3797 86.5646L84.9281 87.877L83.6426 87.3592C83.4451 87.2751 83.3197 87.2036 83.2659 87.1431C83.2124 87.0834 83.2003 87.0156 83.231 86.9407C83.2611 86.8651 83.3348 86.7759 83.4509 86.6711C83.467 86.6568 83.4641 86.6368 83.4432 86.6132C83.4216 86.5896 83.4033 86.5845 83.3872 86.5989C83.3113 86.6675 83.2087 86.767 83.0797 86.8987C82.9507 87.0292 82.8367 87.1398 82.7363 87.2305C82.6608 87.2991 82.5348 87.4049 82.3596 87.5484C82.1844 87.6922 82.0595 87.7984 81.9836 87.867C81.9631 87.8851 81.9638 87.9057 81.9858 87.9304C82.0078 87.9551 82.0283 87.957 82.0481 87.9389C82.1562 87.8412 82.3046 87.8036 82.4945 87.825C82.6836 87.8467 82.9767 87.9396 83.3754 88.1026L87.5058 89.7557C87.5208 89.7638 87.5421 89.7557 87.5699 89.731C87.5982 89.7063 87.6102 89.6835 87.608 89.6635L86.2903 85.5771C86.1898 85.2603 86.1235 85.0125 86.0931 84.8333ZM87.08 88.7435L85.1352 87.9607L86.4486 86.7733L87.08 88.7435Z" fill="#F1E1C1"/>
<path d="M84.4749 92.1161C84.3283 92.216 84.2099 92.2776 84.1223 92.3012C84.0344 92.3245 83.957 92.313 83.8907 92.2669C83.824 92.2205 83.7456 92.1305 83.6558 91.9959L81.574 88.8774C81.4842 88.7432 81.4296 88.6351 81.4112 88.5533C81.3922 88.471 81.4098 88.3962 81.464 88.3272C81.5179 88.2579 81.6216 88.1716 81.7729 88.0694C81.7814 88.0635 81.7781 88.047 81.7594 88.02C81.7414 87.9931 81.7282 87.9821 81.7194 87.9887L78.5873 90.1053C78.5477 90.1322 78.5257 90.1588 78.5224 90.1831C78.5195 90.2078 78.5301 90.2381 78.5543 90.2746C78.7405 90.5526 78.9538 90.9162 79.1956 91.3657C79.2041 91.3794 79.2206 91.3794 79.2444 91.3664C79.2682 91.3535 79.2781 91.3392 79.2737 91.3226C79.144 90.9737 79.1293 90.6367 79.2301 90.3118C79.3298 89.9866 79.539 89.717 79.8556 89.5035L80.2573 89.2321C80.387 89.1447 80.4863 89.0902 80.5563 89.0691C80.6256 89.0477 80.6886 89.0573 80.7454 89.0975C80.8011 89.1377 80.87 89.2188 80.951 89.3394L83.0097 92.424C83.0995 92.5582 83.1541 92.6663 83.1728 92.7481C83.1915 92.8304 83.175 92.9067 83.1223 92.9779C83.0691 93.0491 82.9691 93.135 82.8225 93.2342C82.8093 93.2426 82.8115 93.2611 82.8298 93.288C82.8478 93.3146 82.8635 93.3241 82.8771 93.3146L83.2065 93.0815C83.3975 92.9395 83.5591 92.8241 83.6928 92.7334C83.8178 92.649 83.9812 92.5446 84.1835 92.4211L84.5295 92.1976C84.5379 92.191 84.5339 92.1744 84.5159 92.1478C84.4968 92.1202 84.4833 92.1102 84.4749 92.1161Z" fill="#F1E1C1"/>
<path d="M50.5077 93.0369C50.2054 92.9587 49.9496 92.8872 49.7396 92.8223C49.5498 92.764 49.3079 92.6814 49.0144 92.5756L48.4893 92.4023C48.4684 92.3956 48.4523 92.413 48.4398 92.4543C48.4273 92.4948 48.4314 92.5192 48.4515 92.5247C48.6817 92.5959 48.8433 92.6667 48.9371 92.7363C49.0309 92.806 49.0829 92.8953 49.0947 93.0033C49.1064 93.1114 49.0811 93.2673 49.0188 93.472L47.5746 98.2053C47.5123 98.4103 47.4456 98.5552 47.3749 98.6419C47.3041 98.7282 47.2111 98.7724 47.0956 98.7735C46.9802 98.7754 46.8072 98.7403 46.5771 98.6695C46.5566 98.6625 46.5401 98.6799 46.528 98.7215C46.5155 98.7625 46.5195 98.7861 46.5393 98.792C46.7629 98.8613 46.9402 98.9118 47.0711 98.945L47.8055 99.1607L48.5541 99.403C48.6809 99.4498 48.8524 99.5059 49.0694 99.573C49.0895 99.58 49.106 99.5626 49.1185 99.521C49.1309 99.4808 49.1265 99.4564 49.1068 99.4505C48.8762 99.3797 48.7139 99.3108 48.6194 99.2437C48.5248 99.1773 48.475 99.0917 48.4706 98.9852C48.4655 98.8793 48.4955 98.7208 48.56 98.5099L49.998 93.7969C50.0603 93.5929 50.1251 93.4473 50.1926 93.3592C50.26 93.2725 50.3524 93.2242 50.4696 93.2154C50.5869 93.2065 50.7577 93.2378 50.9812 93.3061C51.0014 93.3127 51.0178 93.2954 51.0303 93.2541C51.0428 93.2135 51.0387 93.1892 51.0186 93.1836L50.5077 93.0369Z" fill="#F1E1C1"/>
<path d="M56.945 94.6442C56.4261 94.2899 55.8079 94.0668 55.0911 93.9746C54.9716 93.9587 54.7353 93.9359 54.382 93.9049C54.091 93.8883 53.8052 93.8629 53.5241 93.8264C53.3413 93.8031 53.0961 93.7644 52.789 93.7102L52.2316 93.6276C52.2173 93.6254 52.2082 93.646 52.2023 93.6881C52.1972 93.7305 52.2012 93.753 52.2151 93.7548C52.4471 93.7847 52.6168 93.8264 52.7245 93.8798C52.8319 93.9337 52.899 94.0115 52.925 94.1162C52.951 94.2206 52.9503 94.3784 52.9235 94.5908L52.2983 99.5011C52.2712 99.7135 52.2302 99.868 52.1748 99.9653C52.1199 100.062 52.0352 100.122 51.922 100.143C51.8087 100.163 51.6321 100.159 51.3939 100.128C51.3796 100.126 51.3701 100.147 51.3646 100.189C51.3587 100.231 51.3631 100.254 51.3774 100.256C51.6163 100.286 51.8029 100.307 51.9374 100.317L52.6871 100.403C52.8913 100.429 53.073 100.456 53.2339 100.484C53.3944 100.512 53.5274 100.537 53.6319 100.557C53.917 100.615 54.1687 100.658 54.3868 100.687C55.0263 100.77 55.6313 100.702 56.2019 100.484C56.7724 100.267 57.2492 99.9148 57.6325 99.4288C58.0158 98.9431 58.2511 98.3568 58.3387 97.6706C58.416 97.0629 58.3328 96.495 58.0895 95.9677C57.8454 95.4393 57.4639 94.9986 56.945 94.6442ZM57.1807 97.7576C57.0993 98.3944 56.9249 98.9265 56.6555 99.3558C56.3869 99.7842 56.0494 100.092 55.6437 100.276C55.2381 100.461 54.7928 100.522 54.3076 100.46C53.8789 100.405 53.5985 100.306 53.467 100.163C53.335 100.02 53.2878 99.8034 53.3244 99.5136L53.932 94.7405C53.9573 94.5425 54.013 94.4005 54.0987 94.315C54.1845 94.229 54.3106 94.1789 54.4769 94.1645C54.6429 94.1494 54.8734 94.1616 55.1688 94.1999C55.6536 94.2622 56.0608 94.4602 56.3895 94.7932C56.7182 95.1266 56.952 95.5528 57.0894 96.0695C57.2279 96.5876 57.2584 97.1499 57.1807 97.7576Z" fill="#F1E1C1"/>
<path d="M65.7449 93.7521C65.7423 93.7237 65.7229 93.7108 65.6884 93.7138C65.6532 93.7167 65.6334 93.7326 65.6283 93.7614C65.6005 93.8709 65.5268 93.9479 65.4059 93.9926C65.2849 94.0372 65.0904 94.0704 64.8217 94.0906L64.1016 94.1559C63.6362 94.2053 63.1954 94.2459 62.7784 94.2772C61.9659 94.3388 61.2554 94.3816 60.6463 94.4063C60.2505 94.4365 60.0471 94.3731 60.0358 94.2164C60.0328 94.1806 60.0123 94.164 59.9735 94.1674C59.9346 94.1707 59.9163 94.1902 59.9192 94.2252C59.9357 94.4458 59.9423 94.7754 59.9398 95.2157C59.9372 95.656 59.9321 96.0152 59.9247 96.2947C59.9266 96.3164 59.9467 96.3257 59.9852 96.3223C60.0237 96.3194 60.0427 96.3113 60.042 96.2969C60.1501 95.7452 60.3333 95.3256 60.5924 95.038C60.8515 94.7507 61.1967 94.5899 61.6277 94.5575C61.8186 94.5431 61.9604 94.5501 62.0561 94.5792C62.1499 94.608 62.218 94.6637 62.2602 94.7456C62.3016 94.8289 62.3291 94.9624 62.3437 95.1468L62.7124 100.085C62.7282 100.298 62.7175 100.459 62.6787 100.564C62.6406 100.671 62.5578 100.747 62.4291 100.792C62.3009 100.838 62.0997 100.871 61.8241 100.892C61.8098 100.893 61.8047 100.915 61.8076 100.958C61.8113 101 61.8197 101.022 61.8329 101.021C62.0946 101 62.299 100.982 62.4475 100.963L63.2735 100.89L64.1431 100.836C64.2849 100.832 64.4795 100.821 64.7272 100.802C64.7481 100.8 64.7572 100.779 64.7536 100.736C64.7503 100.693 64.7386 100.672 64.7166 100.674C64.441 100.695 64.238 100.692 64.109 100.667C63.9793 100.641 63.8891 100.58 63.8396 100.483C63.7902 100.386 63.7561 100.229 63.7403 100.008L63.3739 95.0922C63.3596 94.9001 63.3647 94.7588 63.3896 94.6674C63.4153 94.5767 63.4739 94.5092 63.5663 94.4664C63.6593 94.424 63.8045 94.3952 64.0016 94.3801C64.4472 94.3462 64.8096 94.4494 65.0915 94.6895C65.3722 94.9288 65.5682 95.3201 65.6793 95.8625C65.6873 95.8835 65.7115 95.892 65.7496 95.889C65.7881 95.8861 65.8075 95.8739 65.8053 95.8522C65.7844 95.5749 65.7679 95.212 65.7558 94.7625C65.7434 94.3097 65.7394 93.9745 65.7449 93.7521Z" fill="#F1E1C1"/>
<path d="M71.3045 93.0024C70.8329 92.8213 70.259 92.8243 69.5825 93.0101C69.3916 93.0629 69.2259 93.1112 69.0878 93.1565C68.9496 93.2019 68.8404 93.2399 68.7602 93.2686C68.5392 93.3516 68.3516 93.4147 68.194 93.4574C68.0089 93.5087 67.7649 93.5684 67.4603 93.6366L66.9246 93.7723C66.9037 93.7786 66.8993 93.8015 66.9107 93.8424C66.9216 93.8833 66.9374 93.9014 66.9587 93.8962C67.1837 93.8343 67.3544 93.8081 67.4706 93.8166C67.5864 93.8251 67.6769 93.8726 67.7403 93.9586C67.8041 94.0445 67.8634 94.1912 67.9199 94.397L69.2146 99.1734C69.2725 99.3866 69.2956 99.5466 69.2842 99.6532C69.2725 99.7597 69.2197 99.8449 69.1266 99.9069C69.0335 99.9696 68.8705 100.033 68.6385 100.096C68.6173 100.103 68.614 100.126 68.6242 100.167C68.6356 100.208 68.6513 100.225 68.6722 100.221C68.8976 100.159 69.075 100.106 69.2025 100.064L69.9376 99.8508L70.8318 99.6159C70.9912 99.5794 71.2103 99.523 71.4914 99.4459C71.5123 99.44 71.5159 99.4172 71.5046 99.3759C71.4943 99.3349 71.4786 99.3169 71.4573 99.322C71.1436 99.4083 70.9069 99.4515 70.7486 99.4504C70.5903 99.4496 70.4723 99.4065 70.3935 99.3202C70.3154 99.235 70.2462 99.082 70.1868 98.8618L68.9086 94.1474C68.8547 93.9479 68.8313 93.7974 68.8404 93.6945C68.8489 93.5928 68.8921 93.5124 68.968 93.4545C69.0445 93.397 69.164 93.345 69.3285 93.3003C69.7723 93.1787 70.1615 93.2318 70.4961 93.4619C70.8296 93.6916 71.0707 94.0784 71.2187 94.6216C71.3672 95.1721 71.3598 95.6286 71.1942 95.9922C71.0282 96.3558 70.7676 96.5855 70.4114 96.6836C70.2817 96.7194 70.1586 96.7382 70.0413 96.7404C70.0256 96.7375 70.0164 96.7482 70.0113 96.7714C70.0058 96.7946 70.0065 96.8164 70.0127 96.8378C70.0215 96.8721 70.0366 96.8864 70.0571 96.8802C70.1967 96.8794 70.362 96.8521 70.5533 96.7994C70.9149 96.6998 71.2484 96.5273 71.5533 96.2817C71.8579 96.0354 72.0796 95.7308 72.2196 95.3672C72.3592 95.004 72.3705 94.6054 72.2533 94.1721C72.0924 93.5729 71.7765 93.1831 71.3045 93.0024Z" fill="#F1E1C1"/>
</g>
<defs>
<clipPath id="clip0_159:42">
<rect width="117.267" height="118" fill="white" transform="translate(0.844727)"/>
</clipPath>
</defs>
</svg>
