<svg width="44" height="43" viewBox="0 0 44 43" fill="none" xmlns="http://www.w3.org/2000/svg">
<path d="M22.0049 10.4755C15.762 10.4755 10.7265 15.3976 10.7265 21.5C10.7265 27.6024 15.762 32.5245 22.0049 32.5245C28.2478 32.5245 33.2832 27.6024 33.2832 21.5C33.2832 15.3976 28.2478 10.4755 22.0049 10.4755ZM22.0049 28.6675C17.9705 28.6675 14.6723 25.4531 14.6723 21.5C14.6723 17.5469 17.9607 14.3325 22.0049 14.3325C26.049 14.3325 29.3374 17.5469 29.3374 21.5C29.3374 25.4531 26.0393 28.6675 22.0049 28.6675ZM36.3753 10.0245C36.3753 11.454 35.1974 12.5959 33.7447 12.5959C32.2822 12.5959 31.114 11.4445 31.114 10.0245C31.114 8.60442 32.2919 7.45303 33.7447 7.45303C35.1974 7.45303 36.3753 8.60442 36.3753 10.0245ZM43.8455 12.6343C43.6787 9.18964 42.8736 6.1386 40.2919 3.62458C37.72 1.11055 34.5987 0.323925 31.0747 0.151062C27.4427 -0.0503542 16.557 -0.0503542 12.9252 0.151062C9.41132 0.314406 6.28971 1.10104 3.70805 3.61506C1.12639 6.12908 0.331384 9.18012 0.154541 12.6248C-0.0515138 16.175 -0.0515138 26.8157 0.154541 30.3657C0.321647 33.8104 1.12671 36.8614 3.70805 39.3754C6.28939 41.8894 9.40126 42.6761 12.9252 42.8489C16.5573 43.0504 27.443 43.0504 31.0747 42.8489C34.5987 42.6859 37.72 41.899 40.2919 39.3754C42.8639 36.8614 43.6686 33.8104 43.8455 30.3657C44.0515 26.8154 44.0515 16.1843 43.8455 12.6343ZM39.1533 34.1748C38.3875 36.0554 36.9055 37.5043 34.9716 38.2624C32.0758 39.3849 25.2047 39.1261 22.0049 39.1261C18.805 39.1261 11.9239 39.3757 9.03816 38.2624C7.11424 37.5139 5.63196 36.0652 4.85643 34.1748C3.70805 31.3442 3.97284 24.6278 3.97284 21.5C3.97284 18.3722 3.71747 11.6459 4.85643 8.82518C5.62223 6.94458 7.10419 5.49567 9.03816 4.73759C11.9339 3.61506 18.805 3.87389 22.0049 3.87389C25.2047 3.87389 32.0859 3.62427 34.9716 4.73759C36.8955 5.48615 38.3778 6.93475 39.1533 8.82518C40.3017 11.6558 40.0369 18.3722 40.0369 21.5C40.0369 24.6278 40.3017 31.3541 39.1533 34.1748Z" fill="#E81E4D"/>
</svg>
