<svg width="39" height="38" viewBox="0 0 39 38" fill="none" xmlns="http://www.w3.org/2000/svg">
<path d="M38.3334 15.3333V22.3183C37.2151 21.6767 35.9868 21.2367 34.6668 20.9983V19H5.33344V33.6667H21.9984C22.2184 34.9867 22.6768 36.215 23.3184 37.3333H5.33344C3.31677 37.3333 1.66677 35.7017 1.66677 33.6667V15.3333H38.3334ZM28.6351 9.96167L23.6118 3.49L20.0001 4.205L25.0418 10.6767L28.6351 9.96167ZM37.6368 8.18333L36.2068 0.996666L29.0018 2.42667L34.0251 8.91667L37.6368 8.18333ZM19.6518 11.7583L14.6284 5.25L11.0168 6.00167L16.0584 12.4733L19.6518 11.7583ZM5.62677 7.08333L3.83011 7.43167C1.85011 7.81667 0.54844 9.76 0.951774 11.74L1.66677 15.3333L10.6501 13.555L5.62677 7.08333ZM29.1668 37.3333L38.3334 31.8333L29.1668 26.3333V37.3333Z" fill="white"/>
</svg>
