<?xml version="1.0" encoding="utf-8"?>
<!-- Generator: Adobe Illustrator 16.0.3, SVG Export Plug-In . SVG Version: 6.00 Build 0)  -->
<!DOCTYPE svg PUBLIC "-//W3C//DTD SVG 1.1//EN" "http://www.w3.org/Graphics/SVG/1.1/DTD/svg11.dtd">
<svg version="1.1" id="Layer_1" xmlns="http://www.w3.org/2000/svg" xmlns:xlink="http://www.w3.org/1999/xlink" x="0px" y="0px"
	 width="53.268px" height="52.076px" viewBox="0.732 0.627 53.268 52.076" enable-background="new 0.732 0.627 53.268 52.076"
	 xml:space="preserve">
<linearGradient id="SVGID_1_" gradientUnits="userSpaceOnUse" x1="190.5078" y1="-282.0527" x2="218.5666" y2="-315.4919" gradientTransform="matrix(1 0 0 -1 -176 -269.876)">
	<stop  offset="0" style="stop-color:#596A89"/>
	<stop  offset="0.73" style="stop-color:#4B5B74"/>
	<stop  offset="1" style="stop-color:#485870"/>
</linearGradient>
<path fill="url(#SVGID_1_)" d="M50.764,32.756l-23.852-0.014l6.866,6.877c-2.246,1.263-4.834,1.996-7.593,1.994
	c-8.553-0.008-15.506-6.979-15.497-15.53c0.007-8.556,6.973-15.508,15.523-15.5c7.165,0.007,13.185,4.895,14.958,11.507
	l10.156,0.008C49.404,9.946,38.917,0.638,26.219,0.627C12.159,0.615,0.746,12.008,0.732,26.074
	C0.721,40.14,12.114,51.554,26.175,51.563c5.521,0.007,10.618-1.765,14.794-4.745l5.863,5.885l7.044-7.037l-6.085-6.108
	C49.092,37.476,50.295,35.348,50.764,32.756z"/>
<path fill="#677A91" d="M40.935,46.818l5.864,5.883L54,45.719l-6.243-6.159c1.301-2.085,2.31-4.37,2.973-6.797l-23.851-0.021
	l6.865,6.877"/>
<linearGradient id="SVGID_2_" gradientUnits="userSpaceOnUse" x1="40.7705" y1="36.1523" x2="50.7773" y2="36.1523">
	<stop  offset="0" style="stop-color:#485870"/>
	<stop  offset="1" style="stop-color:#485870"/>
</linearGradient>
<path fill="url(#SVGID_2_)" d="M47.757,39.56l-6.986-6.804l10.007-0.011C50.777,32.745,50.22,36.24,47.757,39.56z"/>
</svg>
