<svg width="62" height="62" viewBox="0 0 62 62" fill="none" xmlns="http://www.w3.org/2000/svg">
<path d="M15.9652 40.4033C17.4588 40.4033 18.8912 40.9966 19.9474 42.0528C21.0035 43.1089 21.5968 44.5414 21.5968 46.035C21.5968 49.0833 19.0652 51.6666 15.9652 51.6666C12.9168 51.6666 10.3335 49.0833 10.3335 46.035C10.3335 44.5414 10.9268 43.1089 11.983 42.0528C13.0391 40.9966 14.4716 40.4033 15.9652 40.4033V40.4033ZM10.3335 11.47C20.9943 11.47 31.2185 15.705 38.7568 23.2433C46.2952 30.7816 50.5302 41.0058 50.5302 51.6666H43.2193C43.2193 47.348 42.3687 43.0717 40.716 39.0818C39.0634 35.0919 36.641 31.4666 33.5873 28.4128C30.5336 25.3591 26.9083 22.9368 22.9184 21.2841C18.9285 19.6314 14.6521 18.7808 10.3335 18.7808V11.47ZM10.3335 26.0916C17.1164 26.0916 23.6215 28.7861 28.4178 33.5824C33.214 38.3786 35.9085 44.8837 35.9085 51.6666H28.5977C28.5977 46.8227 26.6734 42.1771 23.2482 38.7519C19.823 35.3267 15.1775 33.4025 10.3335 33.4025V26.0916Z" fill="#E81E4D"/>
</svg>
