<?xml version="1.0" encoding="utf-8"?>
<!-- Generator: Adobe Illustrator 16.0.3, SVG Export Plug-In . SVG Version: 6.00 Build 0)  -->
<!DOCTYPE svg PUBLIC "-//W3C//DTD SVG 1.1//EN" "http://www.w3.org/Graphics/SVG/1.1/DTD/svg11.dtd">
<svg version="1.1" id="Layer_1" xmlns="http://www.w3.org/2000/svg" xmlns:xlink="http://www.w3.org/1999/xlink" x="0px" y="0px"
	 width="987px" height="256px" viewBox="0 0 987 256" enable-background="new 0 0 987 256" xml:space="preserve">
<g>
	<g>
		<path fill="#FFFFFF" d="M224.82,71.46c-5.89-13.94-14.33-26.45-25.07-37.19c-10.74-10.74-23.26-19.18-37.19-25.07
			C148.13,3.09,132.8,0,117.01,0c-15.79,0-31.12,3.09-45.55,9.2c-13.93,5.89-26.45,14.33-37.19,25.07
			C23.53,45.02,15.09,57.53,9.2,71.46C3.09,85.89,0,101.22,0,117.01c0,15.79,3.09,31.12,9.2,45.55
			c5.89,13.94,14.33,26.45,25.07,37.19c10.74,10.74,23.26,19.18,37.19,25.07c14.43,6.1,29.76,9.2,45.55,9.2
			c15.79,0,31.12-3.1,45.55-9.2c13.94-5.89,26.45-14.33,37.19-25.07c10.74-10.74,19.18-23.26,25.07-37.19
			c6.1-14.43,9.2-29.76,9.2-45.55C234.02,101.22,230.93,85.89,224.82,71.46z M117.57,218.46c3.82-9,5.93-18.83,5.93-29.11
			c0-12.63-3.17-24.57-8.81-35.14c1.7-2.16,3.28-4.43,4.7-6.85c6.88-11.71,9.11-25.63,7.9-39.04c-1.01-11.19-4.15-22.13-8.62-32.4
			c-2.16-4.96-4.51-9.96-7.44-14.53c0,0,0,0,0-0.01c-2.9-4.5-9.64-1.25-8.35,3.8c2.43,9.53,3.77,19.27,3.41,29.12
			c-0.15,4.12-0.54,7.22-1.43,11.51c-0.37,1.79-0.82,3.55-1.33,5.3c-0.25,0.84-0.52,1.68-0.8,2.52c-0.14,0.41-0.28,0.82-0.43,1.23
			c-0.04,0.12-0.4,1.06-0.43,1.14c-1.22,3.06-2.69,6.01-4.36,8.84c-0.78,1.32-1.62,2.61-2.49,3.87c-0.14,0.19-0.27,0.39-0.41,0.58
			c-0.05,0.07-0.19,0.26-0.29,0.4c-14.58-11.75-33.52-18.86-54.22-18.86c-8.53,0-16.76,1.21-24.52,3.45
			c1.44-54.7,46.38-98.76,101.42-98.76c55.94,0,101.46,45.51,101.46,101.46C218.47,172.77,173.26,218.16,117.57,218.46z"/>
	</g>
	<g>
		<path fill="#FFFFFF" d="M165.92,90.42l3.74-21.49h-5.61v-21.3h15.51v21.3l-5.61,21.49H165.92z"/>
	</g>
	<g>
		<path fill="#FFFFFF" d="M136.03,109.41l4.78-27.47h-7.17V54.72h19.82v27.23l-7.17,27.47H136.03z"/>
	</g>
</g>
<g>
	<path fill="#FFFFFF" d="M295.04,155.29h11.44l29.79,76.64h-12.74l-7.49-20.83H285.4l-7.52,20.83h-12.84L295.04,155.29z
		 M312.83,202.14l-12.07-33.57l-12.12,33.57H312.83z"/>
	<path fill="#FFFFFF" d="M383.55,231.93v-76.64h33.35c3.45,0,6.62,0.72,9.5,2.16c2.88,1.44,5.38,3.35,7.5,5.72
		c2.12,2.38,3.78,5.04,4.97,7.99c1.19,2.95,1.78,5.97,1.78,9.07c0,3.38-0.61,6.62-1.83,9.71c-1.22,3.1-2.97,5.76-5.24,7.99
		c-2.27,2.23-4.91,3.85-7.93,4.86l18.03,29.15h-13.6l-16.62-26.66h-17.81v26.66H383.55z M395.64,194.58h21.16
		c2.23,0,4.21-0.65,5.94-1.94c1.73-1.3,3.09-3.04,4.1-5.24c1.01-2.19,1.51-4.59,1.51-7.18c0-2.66-0.58-5.05-1.73-7.18
		c-1.15-2.12-2.64-3.83-4.48-5.13s-3.83-1.94-5.99-1.94h-20.51V194.58z"/>
	<path fill="#FFFFFF" d="M524.31,232.47c-5.54,0-10.54-1.08-15-3.24c-4.46-2.16-8.31-5.09-11.55-8.8c-3.24-3.71-5.74-7.88-7.5-12.52
		c-1.76-4.64-2.64-9.41-2.64-14.3c0-5.11,0.93-9.98,2.81-14.63c1.87-4.64,4.46-8.78,7.77-12.41c3.31-3.63,7.21-6.51,11.71-8.64
		c4.5-2.12,9.37-3.18,14.63-3.18c5.47,0,10.45,1.12,14.95,3.35c4.5,2.23,8.35,5.22,11.55,8.96c3.2,3.74,5.68,7.92,7.45,12.52
		c1.76,4.61,2.64,9.32,2.64,14.14c0,5.11-0.92,9.98-2.75,14.63c-1.83,4.64-4.41,8.78-7.72,12.41c-3.31,3.63-7.22,6.5-11.71,8.58
		C534.44,231.43,529.56,232.47,524.31,232.47z M499.91,193.61c0,3.6,0.58,7.09,1.73,10.47c1.15,3.38,2.79,6.39,4.91,9.01
		c2.12,2.63,4.7,4.7,7.72,6.21s6.4,2.27,10.15,2.27c3.89,0,7.34-0.79,10.36-2.37c3.02-1.58,5.56-3.72,7.61-6.42
		c2.05-2.7,3.62-5.72,4.7-9.07c1.08-3.35,1.62-6.71,1.62-10.09c0-3.6-0.56-7.07-1.67-10.42c-1.12-3.35-2.75-6.33-4.91-8.96
		c-2.16-2.63-4.73-4.7-7.72-6.21c-2.99-1.51-6.31-2.27-9.98-2.27c-3.89,0-7.34,0.79-10.36,2.37c-3.02,1.58-5.58,3.71-7.66,6.37
		c-2.09,2.66-3.69,5.65-4.8,8.96C500.47,186.77,499.91,190.15,499.91,193.61z"/>
	<path fill="#FFFFFF" d="M643.37,232.47c-6.12,0-11.28-1.04-15.49-3.13c-4.21-2.09-7.59-4.93-10.15-8.53
		c-2.56-3.6-4.43-7.7-5.61-12.31c-1.19-4.6-1.78-9.39-1.78-14.36v-38.86h12.09v38.86c0,3.53,0.36,6.93,1.08,10.2
		c0.72,3.28,1.87,6.21,3.45,8.8c1.58,2.59,3.72,4.64,6.42,6.15c2.7,1.51,6.03,2.27,9.99,2.27c4.03,0,7.39-0.77,10.09-2.32
		c2.7-1.55,4.82-3.63,6.37-6.26c1.55-2.63,2.68-5.56,3.4-8.8c0.72-3.24,1.08-6.58,1.08-10.04v-38.86h12.2v38.86
		c0,5.25-0.63,10.2-1.89,14.84c-1.26,4.64-3.2,8.71-5.83,12.2c-2.63,3.49-6.03,6.24-10.2,8.26
		C654.42,231.46,649.34,232.47,643.37,232.47z"/>
	<path fill="#FFFFFF" d="M742.46,177.74v54.19h-12.09v-76.64h9.93l43.39,55.38V155.4h12.2v76.53h-10.58L742.46,177.74z"/>
	<path fill="#FFFFFF" d="M850.95,231.93v-76.64h27.2c8.28,0,15.18,1.71,20.73,5.13c5.54,3.42,9.7,8.02,12.47,13.82
		c2.77,5.79,4.16,12.22,4.16,19.27c0,7.77-1.53,14.54-4.59,20.29c-3.06,5.76-7.39,10.22-13.01,13.39
		c-5.61,3.17-12.2,4.75-19.75,4.75H850.95z M903.19,193.5c0-5.4-0.99-10.16-2.97-14.3c-1.98-4.14-4.82-7.38-8.53-9.71
		c-3.71-2.34-8.22-3.51-13.55-3.51h-15.11v55.27h15.11c5.4,0,9.95-1.22,13.66-3.67c3.71-2.45,6.53-5.76,8.47-9.93
		C902.22,203.47,903.19,198.75,903.19,193.5z"/>
</g>
<g>
	<path fill="#FFFFFF" d="M346.22,41.42c-0.34-0.57-1.54-1.45-3.59-2.65c-2.05-1.2-4.62-2.48-7.69-3.85
		c-3.08-1.37-6.44-2.56-10.08-3.59c-3.65-1.03-7.29-1.54-10.94-1.54c-4.79,0-8.49,0.82-11.11,2.46c-2.62,1.64-3.93,4.16-3.93,7.55
		c0,2.72,1,4.87,2.99,6.45c1.99,1.59,4.87,2.97,8.63,4.16c3.76,1.19,8.38,2.57,13.84,4.16c7.75,2.04,14.47,4.5,20.17,7.38
		c5.7,2.89,10.06,6.59,13.08,11.12c3.02,4.53,4.53,10.52,4.53,17.99c0,6.79-1.26,12.54-3.76,17.23c-2.51,4.7-5.9,8.49-10.17,11.37
		c-4.27,2.88-9.14,4.98-14.61,6.28s-11.11,1.95-16.92,1.95c-5.93,0-11.99-0.6-18.2-1.79c-6.21-1.2-12.17-2.91-17.86-5.13
		c-5.7-2.22-10.94-4.93-15.73-8.12l12.31-24.44c0.45,0.57,1.94,1.62,4.44,3.16c2.5,1.54,5.61,3.14,9.32,4.79
		c3.7,1.65,7.83,3.11,12.39,4.36c4.56,1.25,9.17,1.88,13.84,1.88c5.01,0,8.74-0.78,11.2-2.34c2.45-1.56,3.67-3.74,3.67-6.53
		c0-3.06-1.28-5.44-3.85-7.14c-2.56-1.7-6.04-3.23-10.43-4.59c-4.39-1.36-9.43-2.89-15.13-4.59c-7.41-2.27-13.53-4.82-18.37-7.65
		c-4.84-2.83-8.43-6.29-10.77-10.37c-2.34-4.08-3.5-9.18-3.5-15.3c0-8.5,2.02-15.66,6.07-21.5c4.04-5.84,9.49-10.26,16.32-13.26
		c6.84-3,14.3-4.51,22.39-4.51c5.7,0,11.2,0.68,16.49,2.05s10.25,3.08,14.87,5.13c4.62,2.05,8.74,4.1,12.39,6.15L346.22,41.42z"/>
	<path fill="#FFFFFF" d="M406.55,57.66v69.39h-28.03V5.7h22.22l56.23,71.44V5.7H485v121.35h-22.9L406.55,57.66z"/>
	<path fill="#FFFFFF" d="M508.25,127.05V5.7h28.03v121.35H508.25z"/>
	<path fill="#FFFFFF" d="M559.52,127.05V5.7h82.38v24.61h-54.35v26.15h44.78V79.2h-44.78v47.86H559.52z"/>
	<path fill="#FFFFFF" d="M656.77,127.05V5.7h82.38v24.61H684.8v26.15h44.78V79.2H684.8v47.86H656.77z"/>
	<path fill="#FFFFFF" d="M754.02,127.05V5.7h28.03v121.35H754.02z"/>
	<path fill="#FFFFFF" d="M833.33,57.66v69.39H805.3V5.7h22.22l56.23,71.44V5.7h28.03v121.35h-22.9L833.33,57.66z"/>
	<path fill="#FFFFFF" d="M926.31,48.94l4.1-21.71h-7.69V2.28h27.86v25.64l-6.5,21.02H926.31z"/>
</g>
</svg>
