<svg width="80" height="80" viewBox="0 0 80 80" fill="none" xmlns="http://www.w3.org/2000/svg">
<g clip-path="url(#clip0_3766_110)">
<path d="M17.3868 47.4401L11.6503 72.2755C11.4726 73.0275 11.526 73.8156 11.8033 74.5369C12.0806 75.2581 12.569 75.879 13.2048 76.3184C13.8405 76.7578 14.594 76.9953 15.3669 76.9999C16.1398 77.0045 16.896 76.776 17.5369 76.3442L38.5003 62.3713L59.4637 76.3442C60.1195 76.7795 60.8929 77.0036 61.6799 76.9863C62.4669 76.9691 63.2297 76.7113 63.8658 76.2476C64.5019 75.784 64.9807 75.1367 65.2378 74.3929C65.495 73.649 65.5181 72.8443 65.3042 72.0869L58.2625 47.4516L75.7262 31.7389C76.2855 31.2354 76.6849 30.579 76.8751 29.8509C77.0653 29.1228 77.0378 28.355 76.7961 27.6423C76.5544 26.9297 76.1091 26.3035 75.5152 25.8412C74.9213 25.3789 74.205 25.1008 73.4547 25.0412L51.5057 23.2937L42.0077 2.27286C41.7048 1.59599 41.2125 1.02122 40.5901 0.617911C39.9678 0.214604 39.242 0 38.5003 0C37.7587 0 37.0329 0.214604 36.4105 0.617911C35.7881 1.02122 35.2958 1.59599 34.9929 2.27286L25.4949 23.2937L3.54597 25.0374C2.80852 25.0958 2.10351 25.3654 1.5153 25.8139C0.927078 26.2624 0.480557 26.8709 0.229151 27.5665C-0.0222546 28.2621 -0.0678988 29.0153 0.0976797 29.7362C0.263258 30.457 0.633048 31.1149 1.16281 31.6312L17.3868 47.4401Z" fill="#E1BC94"/>
</g>
<defs>
<clipPath id="clip0_3766_110">
<rect width="80" height="80" fill="white"/>
</clipPath>
</defs>
</svg>
