<?xml version="1.0" encoding="utf-8"?>
<!-- Generator: Adobe Illustrator 16.0.3, SVG Export Plug-In . SVG Version: 6.00 Build 0)  -->
<!DOCTYPE svg PUBLIC "-//W3C//DTD SVG 1.1//EN" "http://www.w3.org/Graphics/SVG/1.1/DTD/svg11.dtd">
<svg version="1.1" id="Layer_1" xmlns="http://www.w3.org/2000/svg" xmlns:xlink="http://www.w3.org/1999/xlink" x="0px" y="0px"
	 width="90.33px" height="90.33px" viewBox="0 0 90.33 90.33" enable-background="new 0 0 90.33 90.33" xml:space="preserve">
<g>
	<path fill-rule="evenodd" clip-rule="evenodd" fill="#FF0074" d="M50.552,69.866c-0.021,0.041-0.055,0.085-0.086,0.128l-1.54,2.693
		l4.503-0.952c0.396-0.096,0.801,0.13,0.93,0.525l1.454,4.396l5.208-9.026l-0.225-0.032l0,0l0,0l-0.063-0.021l-0.225-0.032
		l-0.011-0.009l-0.065-0.011l-0.202-0.044l-0.01-0.011h-0.021l-0.044-0.011l-0.042-0.011l-0.033-0.011l-0.139-0.033l-0.021-0.011
		l-0.053-0.009l-0.044-0.021h-0.031l-0.063-0.021l0,0l-0.065-0.021l-0.214-0.076l0,0l-0.063-0.02l-0.075-0.021l-0.053-0.021
		l-0.011-0.011l-0.064-0.022l-0.011-0.011l-0.064-0.021l-0.064-0.021l-0.063-0.03l0,0l-0.064-0.033h-0.021L58.85,67.01l-0.042-0.021
		l-0.021-0.011l-0.065-0.032h-0.01l-0.063-0.03l-0.011-0.012l-0.055-0.021L58.54,66.86l-0.021-0.011l-0.064-0.032l0,0l-0.063-0.033
		l-0.064-0.03l-0.043-0.021l-0.011-0.011l-0.064-0.032l-0.01-0.012l-0.055-0.032l-0.032-0.011l-0.031-0.021l-0.053-0.03h-0.012
		l-0.064-0.044l-0.01-0.011l-0.054-0.021l-0.021-0.021l-0.032-0.021l-0.053-0.03H57.77l-0.053-0.044l-0.021-0.011l-0.075-0.055
		h-0.011l-0.021-0.011l-0.054-0.041l0,0l-0.054-0.043l-0.021-0.011l-0.042-0.033l-0.044-0.032l-0.021-0.011L57.3,66.102l0,0
		l-0.054-0.044l-0.021-0.021l-0.032-0.021l-0.054-0.03l-0.011-0.011l-0.053-0.044v-0.011l-0.086-0.054l-0.021-0.033l-0.043-0.03
		l-0.021-0.011l-0.043-0.043l-0.021-0.011l-0.021-0.033l-0.043-0.03v-0.011l-0.128-0.119h-0.021l-0.032-0.03l-0.033-0.032
		l-0.011-0.011l-0.031-0.044l-0.031-0.021l-0.011-0.021l-0.044-0.041h-0.011l0,0v-0.012h-0.011L56.39,65.31l-0.042-0.043v-0.011
		l-0.128-0.128l-0.033-0.033l-0.031-0.041h-0.011l-0.055-0.076l-0.021-0.021l-0.042-0.032l-0.011-0.021l-0.118-0.139l-0.021-0.02
		l-0.043-0.055l0,0c-0.096-0.117-0.192-0.247-0.277-0.375l-0.021-0.011l-0.011-0.03l-0.032-0.055l0,0
		c-0.064-0.076-0.106-0.16-0.172-0.236L55.3,63.931l-0.021-0.032l-0.021-0.022l-0.021-0.043l-0.021-0.021l-0.043-0.085l0,0
		l-0.031-0.054l-0.011-0.031l-0.022-0.021l-0.021-0.043l-0.011-0.011l-0.021-0.044l-0.032-0.041v-0.011l-0.043-0.087l-0.011-0.021
		l-0.031-0.041v-0.011l-0.021-0.044l-0.021-0.054l0,0l-0.022-0.053l-0.021-0.032l-0.021-0.021l-0.021-0.065l0,0L54.786,63
		l-0.021-0.043v-0.021l-0.022-0.055l-0.021-0.02v-0.032L54.7,62.774h-0.011l-0.021-0.052L50.552,69.866L50.552,69.866z
		 M62.122,51.578c-2.203,0-4.202,0.889-5.656,2.32l-0.044,0.043c-1.465,1.455-2.363,3.477-2.363,5.699
		c0,0.3,0.021,0.609,0.043,0.909l-4.727,8.193H16.277c-0.867,0-1.658-0.354-2.235-0.92c-0.567-0.579-0.92-1.37-0.92-2.236V26.255
		c0-0.877,0.353-1.669,0.92-2.235l0,0c0.577-0.578,1.368-0.931,2.235-0.931h58.455c0.865,0,1.656,0.353,2.234,0.931
		c0.577,0.566,0.92,1.357,0.92,2.235v39.332c0,0.866-0.343,1.657-0.92,2.236l0,0c-0.545,0.533-1.284,0.887-2.106,0.92l-4.727-8.193
		c0.032-0.3,0.053-0.609,0.053-0.909c0-2.223-0.898-4.244-2.362-5.699C66.356,52.476,64.347,51.578,62.122,51.578L62.122,51.578z
		 M69.565,62.723l-0.042,0.106l-0.022,0.032v0.02l-0.021,0.065l-0.011,0.011L69.447,63l-0.054,0.106l-0.01,0.032l-0.011,0.021
		l-0.021,0.053l-0.011,0.011l-0.021,0.043l-0.021,0.044v0.011l-0.032,0.041l-0.021,0.032l-0.01,0.022l-0.032,0.054v0.011
		l-0.021,0.041l-0.021,0.044v0.011l-0.032,0.054l-0.011,0.022l-0.021,0.02l-0.031,0.054v0.011l-0.033,0.044l-0.021,0.03v0.021
		l-0.032,0.043l-0.01,0.022l-0.021,0.032l-0.043,0.052l0,0l-0.021,0.044l-0.021,0.032l-0.011,0.021l-0.031,0.052l-0.021,0.011
		l-0.012,0.033l-0.031,0.043v0.011l-0.043,0.044l-0.021,0.03v0.021l-0.043,0.043l-0.011,0.012l-0.021,0.032l-0.031,0.052l0,0
		l-0.044,0.044l-0.021,0.032l-0.011,0.021l-0.031,0.041l-0.021,0.011l-0.021,0.033l-0.033,0.043V64.7l-0.032,0.044l-0.021,0.02
		l-0.021,0.021l-0.043,0.043v0.011l-0.043,0.033l-0.021,0.041l-0.011,0.011l-0.032,0.043l-0.021,0.022l-0.021,0.021l-0.043,0.043
		v0.009l-0.044,0.032l-0.021,0.033l-0.011,0.011l-0.042,0.043l-0.021,0.021l-0.012,0.02l-0.043,0.044h-0.011l-0.031,0.043
		l-0.043,0.033h0.012c-1.167,1.164-2.686,1.967-4.375,2.255h-0.011c-0.074,0.011-0.139,0.021-0.225,0.032l5.22,9.026l1.442-4.396
		c0.13-0.396,0.535-0.621,0.931-0.525l4.513,0.952l-1.561-2.715c-0.022-0.021-0.043-0.065-0.064-0.098L69.565,62.723L69.565,62.723z
		 M66.699,55.054c1.177,1.176,1.904,2.791,1.904,4.587c0,0.321-0.021,0.643-0.065,0.952l-0.011,0.032l-0.011,0.044v0.041v0.032
		l-0.021,0.044v0.032c-0.021,0.085-0.042,0.193-0.063,0.288l0,0l-0.012,0.074H68.41l-0.011,0.065v0.021l-0.011,0.043l-0.011,0.03
		l-0.011,0.044l-0.021,0.075l-0.011,0.031l-0.011,0.032c-0.321,1.039-0.878,1.958-1.626,2.706v-0.011
		c-0.93,0.941-2.16,1.594-3.508,1.817H63.16l-0.055,0.011h-0.021l-0.063,0.011l0,0l-0.075,0.011h-0.011l-0.063,0.012h-0.01
		l-0.076,0.011l-0.064,0.011H62.7h-0.064h-0.022h-0.042l-0.031,0.011h-0.044h-0.043h-0.031l-0.054,0.011h-0.021h-0.054h-0.021
		h-0.064h-0.021h-0.064h-0.085l0,0h-0.064h-0.021h-0.064h-0.021l-0.042-0.011H61.78h-0.043h-0.043l-0.021-0.011H61.62h-0.032h-0.055
		h-0.011l-0.063-0.011h-0.021l-0.065-0.011l0,0L61.3,66.068h-0.011l-0.065-0.011h-0.021l-0.054-0.011h-0.011l-0.064-0.011h-0.022
		l-0.042-0.011h-0.042l-0.032-0.011l-0.043-0.011H60.86l-0.042-0.011l-0.022-0.009l-0.063-0.011h-0.011l-0.075-0.021l0,0
		l-0.063-0.012l0,0l-0.075-0.021h-0.011l-0.065-0.011l-0.021-0.011l-0.042-0.011l-0.021-0.011l-0.149-0.044l-0.044-0.008
		l-0.042-0.012l-0.021-0.011l-0.054-0.021h-0.011l-0.065-0.021v-0.011l-0.073-0.021l-0.065-0.022h-0.011l-0.063-0.03h-0.011
		l-0.055-0.021l-0.021-0.011L59.6,65.62l-0.044-0.021l-0.032-0.022l-0.031-0.011l-0.044-0.021h-0.021l-0.043-0.021l-0.086-0.041l0,0
		l-0.063-0.033l0,0l-0.064-0.032l0,0H59.16l-0.064-0.043l-0.054-0.02l-0.021-0.011l-0.043-0.022l-0.021-0.011l-0.032-0.021
		l-0.032-0.021l-0.032-0.021l-0.032-0.022l-0.031-0.011l-0.044-0.03l-0.011-0.011l-0.053-0.032h-0.011l-0.054-0.033l-0.011-0.011
		l-0.053-0.032h-0.011l-0.042-0.041h-0.022l-0.043-0.032l-0.021-0.022l-0.043-0.021l-0.021-0.021l-0.032-0.021l-0.032-0.02
		l-0.021-0.021l-0.032-0.022l-0.021-0.021l-0.042-0.032l-0.021-0.011l-0.044-0.03l-0.011-0.012l-0.042-0.043h-0.01l-0.055-0.043l0,0
		l-0.053-0.044l-0.011-0.011l-0.043-0.041l-0.011-0.011l-0.043-0.032l-0.011-0.012l-0.042-0.032l-0.022-0.021l-0.031-0.03
		l-0.098-0.098l-0.042-0.032l-0.021-0.02l-0.033-0.033v-0.011h-0.011l-0.043-0.054h-0.01l-0.011-0.011
		c-0.45-0.471-0.845-1.016-1.145-1.614l-0.011-0.021c-0.032-0.076-0.074-0.16-0.107-0.247l-0.021-0.03l-0.011-0.032l-0.032-0.065
		l-0.021-0.052v-0.011l-0.022-0.065h-0.011l-0.021-0.065v-0.009l-0.031-0.064l0,0l-0.021-0.076l0,0l-0.021-0.063l-0.011-0.011
		l-0.012-0.055l-0.011-0.032L55.94,61.6l-0.021-0.033v-0.043l-0.021-0.032V61.46l-0.021-0.043v-0.032l-0.021-0.044v-0.03
		l-0.022-0.043v-0.021l-0.011-0.065l-0.021-0.074l0,0l-0.011-0.075H55.78l-0.011-0.074v-0.011l-0.021-0.065V60.87l-0.011-0.052
		v-0.032l-0.012-0.076l-0.01-0.041l-0.011-0.044c-0.043-0.32-0.064-0.652-0.064-0.984c0-1.796,0.717-3.411,1.893-4.587l0.033-0.043
		c1.175-1.143,2.78-1.86,4.555-1.86C63.908,53.15,65.522,53.877,66.699,55.054L66.699,55.054z M48.465,70.326H16.277
		c-1.305,0-2.492-0.536-3.348-1.391c-0.855-0.856-1.39-2.043-1.39-3.349V26.255c0-1.305,0.535-2.492,1.39-3.348l0,0v-0.011h0.011
		c0.866-0.855,2.042-1.39,3.336-1.39h58.455c1.315,0,2.491,0.535,3.346,1.39c0.856,0.866,1.392,2.043,1.392,3.358v39.332
		c0,1.306-0.535,2.481-1.392,3.349l0,0c-0.641,0.629-1.454,1.091-2.362,1.282l1.85,3.198l0,0c0.086,0.161,0.128,0.362,0.086,0.556
		c-0.086,0.427-0.503,0.696-0.931,0.609l-5.572-1.154l-1.774,5.39l0,0c-0.054,0.182-0.171,0.343-0.354,0.438
		c-0.374,0.215-0.855,0.087-1.08-0.288l-5.817-10.095l-5.839,10.095c-0.214,0.375-0.695,0.503-1.069,0.288
		c-0.171-0.095-0.299-0.256-0.354-0.438H54.85l-1.764-5.39l-5.571,1.154c-0.418,0.087-0.834-0.183-0.92-0.609
		c-0.053-0.215,0-0.428,0.107-0.588L48.465,70.326L48.465,70.326z M46.702,73.384l0.491-0.343
		C46.979,73.084,46.809,73.213,46.702,73.384L46.702,73.384z M24.575,56.882h20.929c0.438,0,0.79-0.354,0.79-0.78
		s-0.352-0.78-0.79-0.78H24.575c-0.438,0-0.791,0.354-0.791,0.78S24.137,56.882,24.575,56.882L24.575,56.882z M45.504,48.958H24.575
		c-0.438,0-0.791,0.354-0.791,0.792c0,0.448,0.353,0.802,0.791,0.802h20.929c0.438,0,0.79-0.354,0.79-0.802
		C46.294,49.312,45.942,48.958,45.504,48.958L45.504,48.958z M24.575,34.777h41.867c0.429,0,0.781-0.352,0.781-0.792
		c0-0.438-0.353-0.791-0.781-0.791H24.575c-0.438,0-0.791,0.353-0.791,0.791C23.784,34.425,24.137,34.777,24.575,34.777z"/>
</g>
</svg>
