<?xml version="1.0" encoding="utf-8"?>
<!-- Generator: Adobe Illustrator 16.0.3, SVG Export Plug-In . SVG Version: 6.00 Build 0)  -->
<!DOCTYPE svg PUBLIC "-//W3C//DTD SVG 1.1//EN" "http://www.w3.org/Graphics/SVG/1.1/DTD/svg11.dtd">
<svg version="1.1" id="Layer_1" xmlns="http://www.w3.org/2000/svg" xmlns:xlink="http://www.w3.org/1999/xlink" x="0px" y="0px"
	 width="90.33px" height="90.33px" viewBox="0 0 90.33 90.33" enable-background="new 0 0 90.33 90.33" xml:space="preserve">
<path fill-rule="evenodd" clip-rule="evenodd" fill="#FF0074" d="M73.243,22.411l7.754,7.752v-5.295c0-0.676-0.275-1.3-0.725-1.741
	s-1.064-0.716-1.74-0.716H73.243L73.243,22.411z M76.093,41.571c0.332,0,0.615,0.275,0.615,0.617c0,0.34-0.283,0.616-0.615,0.616
	H51.22c-0.342,0-0.615-0.275-0.615-0.616c0-0.342,0.273-0.617,0.615-0.617H76.093L76.093,41.571z M76.093,34.751
	c0.332,0,0.615,0.267,0.615,0.608c0,0.333-0.283,0.608-0.615,0.608H51.22c-0.342,0-0.615-0.275-0.615-0.608
	c0-0.342,0.273-0.608,0.615-0.608H76.093L76.093,34.751z M76.093,55.235c0.332,0,0.615,0.276,0.615,0.617
	c0,0.342-0.283,0.616-0.615,0.616H51.21c-0.332,0-0.605-0.274-0.605-0.616c0-0.341,0.273-0.617,0.605-0.617H76.093L76.093,55.235z
	 M76.093,48.408c0.332,0,0.615,0.274,0.615,0.607c0,0.341-0.283,0.615-0.615,0.615H51.21c-0.332,0-0.605-0.274-0.605-0.615
	c0-0.333,0.273-0.607,0.605-0.607H76.093L76.093,48.408z M26.497,39.464l-2.465-1.49l-3.73,2.806
	c-0.183,0.125-0.399,0.149-0.599,0.075l0,0l-3.781-1.491v2.698h10.576V39.464L26.497,39.464z M15.921,38.048v-3.297h10.576v3.281
	l-2.19-1.324c-0.233-0.141-0.525-0.108-0.725,0.059l-3.747,2.822L15.921,38.048L15.921,38.048z M15.305,33.527h11.808
	c0.342,0,0.616,0.267,0.616,0.607v8.544c0,0.34-0.274,0.614-0.616,0.614H15.305c-0.341,0-0.616-0.274-0.616-0.614v-8.544
	C14.688,33.794,14.963,33.527,15.305,33.527L15.305,33.527z M31.001,42.804c-0.341,0-0.616-0.275-0.616-0.616
	c0-0.342,0.274-0.617,0.616-0.617h9.176c0.342,0,0.609,0.275,0.609,0.617c0,0.34-0.267,0.616-0.609,0.616H31.001L31.001,42.804z
	 M31.001,35.967c-0.341,0-0.616-0.275-0.616-0.608c0-0.342,0.274-0.608,0.616-0.608h9.176c0.342,0,0.609,0.267,0.609,0.608
	c0,0.333-0.267,0.608-0.609,0.608H31.001L31.001,35.967z M15.305,56.469c-0.341,0-0.616-0.274-0.616-0.616
	c0-0.341,0.275-0.617,0.616-0.617h24.873c0.342,0,0.609,0.276,0.609,0.617c0,0.342-0.267,0.616-0.609,0.616H15.305L15.305,56.469z
	 M15.305,49.631c-0.341,0-0.616-0.274-0.616-0.615c0-0.333,0.275-0.607,0.616-0.607h24.873c0.342,0,0.609,0.274,0.609,0.607
	c0,0.341-0.267,0.615-0.609,0.615H15.305L15.305,49.631z M12.857,68.802c-0.683,0-1.291-0.276-1.732-0.717
	c-0.449-0.449-0.732-1.065-0.732-1.741V24.868c0-0.684,0.283-1.3,0.725-1.741h0.008c0.434-0.45,1.05-0.716,1.732-0.716h32.225
	v46.391H12.857L12.857,68.802z M45.698,70.033H12.857c-1.016,0-1.94-0.417-2.607-1.083c-0.666-0.666-1.082-1.591-1.082-2.606V24.868
	c0-1.017,0.408-1.932,1.074-2.599l0.008-0.008l0,0l0,0c0.676-0.666,1.591-1.083,2.607-1.083h32.841h32.834
	c1.025,0,1.941,0.417,2.605,1.083c0.666,0.666,1.082,1.59,1.082,2.607v6.669c0.018,0.083,0.018,0.158,0,0.241v34.565
	c0,1.016-0.416,1.94-1.082,2.599v0.008c-0.664,0.666-1.59,1.083-2.605,1.083H45.698L45.698,70.033z M80.997,32.27v34.074
	c0,0.676-0.275,1.292-0.725,1.741l0,0c-0.449,0.44-1.057,0.717-1.74,0.717H46.315V22.411h24.84v6.17c0,1.016,0.416,1.94,1.08,2.606
	c0.668,0.674,1.592,1.082,2.607,1.082H80.997L80.997,32.27z M80.14,31.046h-5.297c-0.682,0-1.291-0.284-1.73-0.725
	c-0.449-0.45-0.734-1.057-0.734-1.74v-5.304L80.14,31.046z"/>
</svg>
