<?xml version="1.0" encoding="utf-8"?>
<!-- Generator: Adobe Illustrator 16.0.3, SVG Export Plug-In . SVG Version: 6.00 Build 0)  -->
<!DOCTYPE svg PUBLIC "-//W3C//DTD SVG 1.1//EN" "http://www.w3.org/Graphics/SVG/1.1/DTD/svg11.dtd">
<svg version="1.1" id="Layer_1" xmlns="http://www.w3.org/2000/svg" xmlns:xlink="http://www.w3.org/1999/xlink" x="0px" y="0px"
	 width="90.333px" height="90.334px" viewBox="0 0 90.333 90.334" enable-background="new 0 0 90.333 90.334" xml:space="preserve">
<path fill-rule="evenodd" clip-rule="evenodd" fill="#FF0074" d="M9.457,68.672h71.426c0.276,0,0.534-0.11,0.717-0.294
	c0.185-0.185,0.295-0.442,0.295-0.718v-1.462c0-0.285-0.11-0.533-0.295-0.718l-0.019-0.027c-0.183-0.166-0.432-0.276-0.698-0.276
	H77.25H13.082H9.457c-0.294,0-0.542,0.11-0.734,0.304c-0.175,0.185-0.294,0.433-0.294,0.718v1.462c0,0.275,0.119,0.533,0.294,0.718
	h0.008C8.915,68.562,9.163,68.672,9.457,68.672L9.457,68.672z M14.773,21.178h60.776c0.662,0,1.25,0.257,1.691,0.69
	c0.424,0.432,0.689,1.03,0.689,1.683v40.265h2.953c0.625,0,1.205,0.259,1.637,0.663c0.019,0.019,0.019,0.027,0.037,0.036
	c0.433,0.441,0.699,1.03,0.699,1.684v1.462c0,0.653-0.267,1.251-0.699,1.675c-0.423,0.432-1.021,0.698-1.674,0.698H9.457
	c-0.662,0-1.25-0.267-1.691-0.698h0.009H7.766c-0.423-0.433-0.689-1.03-0.689-1.675v-1.462c0-0.653,0.267-1.242,0.689-1.684h0.009
	c0.432-0.422,1.021-0.699,1.682-0.699H12.4V23.551c0-0.653,0.268-1.251,0.7-1.674l0,0v-0.009
	C13.523,21.435,14.121,21.178,14.773,21.178L14.773,21.178z M75.549,22.53H14.773c-0.276,0-0.533,0.12-0.716,0.303l0,0
	c-0.185,0.184-0.294,0.441-0.294,0.718v40.265h62.816V23.551c0-0.276-0.119-0.534-0.303-0.718
	C76.091,22.649,75.843,22.53,75.549,22.53L75.549,22.53z M33.729,67.494c-0.377,0-0.672-0.313-0.672-0.68
	c0-0.368,0.294-0.682,0.672-0.682h22.414c0.377,0,0.681,0.313,0.681,0.682c0,0.367-0.304,0.68-0.681,0.68H33.729L33.729,67.494z
	 M16.513,24.443c-0.378,0-0.672,0.303-0.672,0.671v36.118c0,0.377,0.294,0.681,0.672,0.681H73.82c0.368,0,0.68-0.304,0.68-0.681
	V25.114c0-0.368-0.312-0.671-0.68-0.671H16.513L16.513,24.443z M73.139,25.794H17.193v34.766h55.946V25.794z"/>
</svg>
