<?xml version="1.0" encoding="utf-8"?>
<!-- Generator: Adobe Illustrator 16.0.3, SVG Export Plug-In . SVG Version: 6.00 Build 0)  -->
<!DOCTYPE svg PUBLIC "-//W3C//DTD SVG 1.1//EN" "http://www.w3.org/Graphics/SVG/1.1/DTD/svg11.dtd">
<svg version="1.1" id="Layer_1" xmlns="http://www.w3.org/2000/svg" xmlns:xlink="http://www.w3.org/1999/xlink" x="0px" y="0px"
	 width="247px" height="70px" viewBox="0 0 247 70" enable-background="new 0 0 247 70" xml:space="preserve">
<g>
	<path fill="#FFFFFF" d="M243,4v61H5V4H243 M247,0H0v70h247V0L247,0z"/>
</g>
<g>
	<rect x="5.125" y="28.25" fill="none" width="237.75" height="12"/>
	<path fill="#F2F2F2" d="M38.641,28.57l3.072,8.592l3.04-8.592h2.32l-4.432,11.36h-1.856l-4.464-11.36H38.641z"/>
	<path fill="#F2F2F2" d="M48.289,39.93V28.57h2.208v11.36H48.289z"/>
	<path fill="#F2F2F2" d="M60.752,37.994v1.936h-7.888V28.57h7.744v1.936h-5.536v2.736h4.784v1.792h-4.784v2.961H60.752z"/>
	<path fill="#F2F2F2" d="M66.401,28.602h2.032l1.28,3.76l1.28-3.76h2.048l-1.936,5.168l1.44,3.633l3.216-8.833h2.4l-4.624,11.36
		h-1.856l-1.968-4.768l-1.968,4.768h-1.856l-4.592-11.36h2.368l3.232,8.833l1.408-3.633L66.401,28.602z"/>
	<path fill="#F2F2F2" d="M82.625,39.93V28.57h4.816c0.522,0,1.005,0.109,1.448,0.328c0.442,0.219,0.824,0.507,1.144,0.864
		c0.32,0.357,0.57,0.763,0.752,1.216c0.182,0.454,0.272,0.91,0.272,1.368c0,0.48-0.086,0.947-0.256,1.4
		c-0.171,0.454-0.411,0.856-0.721,1.208s-0.683,0.634-1.12,0.848s-0.917,0.319-1.439,0.319h-2.688v3.809H82.625z M84.833,34.186
		h2.56c0.405,0,0.744-0.165,1.016-0.496c0.272-0.33,0.408-0.778,0.408-1.344c0-0.288-0.043-0.546-0.128-0.776
		c-0.086-0.229-0.197-0.424-0.336-0.584c-0.139-0.16-0.302-0.28-0.488-0.36c-0.187-0.08-0.376-0.12-0.567-0.12h-2.464V34.186z"/>
	<path fill="#F2F2F2" d="M95.104,28.57h1.952l4.32,11.36h-2.272l-1.056-2.832H94.08l-1.04,2.832h-2.271L95.104,28.57z
		 M97.648,35.546l-1.568-4.464l-1.632,4.464H97.648z"/>
	<path fill="#F2F2F2" d="M102.576,28.57l2.8,5.472l2.849-5.472h2.384l-4.128,7.392v3.968h-2.192v-4l-4.111-7.36H102.576z"/>
	<path fill="#F2F2F2" d="M121.12,39.93v-7.52l-2.929,5.6h-1.199l-2.929-5.6v7.52h-2.208V28.57h2.368l3.36,6.463l3.392-6.463h2.353
		v11.36H121.12z"/>
	<path fill="#F2F2F2" d="M133.584,37.994v1.936h-7.889V28.57h7.744v1.936h-5.536v2.736h4.784v1.792h-4.784v2.961H133.584z"/>
	<path fill="#F2F2F2" d="M137.52,32.65v7.28h-2.208V28.57h1.713l5.92,7.456v-7.44h2.208V39.93h-1.792L137.52,32.65z"/>
	<path fill="#F2F2F2" d="M156.016,30.506h-3.632v9.424h-2.191v-9.424h-3.633V28.57h9.456V30.506z"/>
	<path fill="#F2F2F2" d="M160.815,39.93V28.57h4.816c0.522,0,1.005,0.109,1.448,0.328c0.442,0.219,0.824,0.507,1.144,0.864
		c0.32,0.357,0.57,0.763,0.752,1.216c0.182,0.454,0.272,0.91,0.272,1.368c0,0.48-0.086,0.947-0.256,1.4
		c-0.171,0.454-0.411,0.856-0.721,1.208s-0.683,0.634-1.12,0.848s-0.917,0.319-1.439,0.319h-2.688v3.809H160.815z M163.023,34.186
		h2.561c0.405,0,0.744-0.165,1.016-0.496c0.272-0.33,0.408-0.778,0.408-1.344c0-0.288-0.043-0.546-0.128-0.776
		c-0.086-0.229-0.197-0.424-0.336-0.584c-0.139-0.16-0.302-0.28-0.488-0.36c-0.187-0.08-0.376-0.12-0.567-0.12h-2.465V34.186z"/>
	<path fill="#F2F2F2" d="M170.783,39.93V28.57h2.208v9.424h5.792v1.936H170.783z"/>
	<path fill="#F2F2F2" d="M183.359,28.57h1.952l4.32,11.36h-2.272l-1.056-2.832h-3.969l-1.04,2.832h-2.271L183.359,28.57z
		 M185.903,35.546l-1.568-4.464l-1.632,4.464H185.903z"/>
	<path fill="#F2F2F2" d="M193.087,32.65v7.28h-2.208V28.57h1.713l5.92,7.456v-7.44h2.208V39.93h-1.792L193.087,32.65z"/>
	<path fill="#F2F2F2" d="M209.855,31.546c-0.075-0.075-0.211-0.176-0.408-0.304s-0.438-0.253-0.72-0.376
		c-0.283-0.123-0.59-0.227-0.92-0.312c-0.331-0.085-0.667-0.128-1.008-0.128c-0.608,0-1.062,0.112-1.36,0.336
		s-0.448,0.539-0.448,0.944c0,0.235,0.056,0.43,0.168,0.584c0.112,0.155,0.274,0.291,0.488,0.408
		c0.213,0.118,0.482,0.224,0.808,0.32c0.325,0.096,0.701,0.198,1.128,0.304c0.555,0.149,1.059,0.31,1.513,0.48
		c0.453,0.171,0.837,0.384,1.151,0.64c0.314,0.256,0.558,0.562,0.729,0.919c0.17,0.357,0.256,0.798,0.256,1.32
		c0,0.607-0.115,1.128-0.344,1.561c-0.229,0.432-0.539,0.781-0.929,1.047c-0.39,0.268-0.837,0.462-1.344,0.584
		c-0.507,0.123-1.037,0.185-1.592,0.185c-0.854,0-1.696-0.128-2.528-0.384s-1.578-0.619-2.24-1.088l0.977-1.904
		c0.096,0.096,0.27,0.222,0.52,0.376c0.251,0.155,0.547,0.31,0.889,0.464c0.341,0.154,0.72,0.285,1.136,0.393
		c0.416,0.106,0.843,0.16,1.28,0.16c1.216,0,1.823-0.39,1.823-1.168c0-0.246-0.069-0.453-0.208-0.625
		c-0.139-0.17-0.336-0.319-0.592-0.447c-0.256-0.129-0.565-0.246-0.928-0.353c-0.363-0.106-0.768-0.224-1.216-0.352
		c-0.544-0.149-1.017-0.312-1.416-0.488c-0.4-0.176-0.733-0.384-1-0.624c-0.267-0.24-0.467-0.517-0.601-0.832
		c-0.133-0.314-0.199-0.69-0.199-1.128c0-0.576,0.106-1.088,0.319-1.536c0.214-0.448,0.51-0.821,0.889-1.12
		c0.378-0.299,0.818-0.525,1.319-0.68c0.502-0.154,1.04-0.232,1.616-0.232c0.8,0,1.536,0.125,2.208,0.376s1.259,0.547,1.76,0.888
		L209.855,31.546z"/>
</g>
<g>
</g>
<g>
</g>
<g>
</g>
<g>
</g>
<g>
</g>
<g>
</g>
<g>
</g>
<g>
</g>
<g>
</g>
<g>
</g>
<g>
</g>
<g>
</g>
<g>
</g>
<g>
</g>
<g>
</g>
</svg>
