<svg width="80" height="80" viewBox="0 0 80 80" fill="none" xmlns="http://www.w3.org/2000/svg">
<g clip-path="url(#clip0_3767_114)">
<path d="M58.2739 79.9999C59.3362 80.006 60.389 79.8005 61.371 79.3953C62.353 78.9902 63.2444 78.3935 63.9933 77.6401L74.8322 66.8013C75.5771 66.0519 75.9952 65.0382 75.9952 63.9816C75.9952 62.9249 75.5771 61.9112 74.8322 61.1619L58.8339 45.1636C58.0845 44.4186 57.0708 44.0005 56.0142 44.0005C54.9575 44.0005 53.9438 44.4186 53.1945 45.1636L46.7952 51.5229C42.3646 50.3416 38.2613 48.1668 34.7964 45.1636C31.8012 41.6932 29.6275 37.5918 28.4371 33.1648L34.7964 26.7655C35.5414 26.0162 35.9595 25.0025 35.9595 23.9458C35.9595 22.8892 35.5414 21.8755 34.7964 21.1261L18.7981 5.12783C18.0488 4.38291 17.0351 3.96479 15.9784 3.96479C14.9218 3.96479 13.9081 4.38291 13.1587 5.12783L2.35988 16.0067C1.60649 16.7556 1.00981 17.647 0.604655 18.629C0.199503 19.611 -0.00600238 20.6638 0.000133453 21.7261C0.362987 37.0936 6.50374 51.76 17.1983 62.8017C28.24 73.4963 42.9064 79.637 58.2739 79.9999ZM15.9984 13.6469L26.3573 24.0058L21.1979 29.1653C20.7092 29.623 20.3433 30.1961 20.1336 30.832C19.924 31.4679 19.8774 32.1463 19.998 32.8049C21.4929 39.4857 24.658 45.6781 29.197 50.803C34.3179 55.3479 40.5119 58.5137 47.1951 60.002C47.8438 60.1376 48.5159 60.1099 49.1512 59.9214C49.7865 59.7329 50.365 59.3895 50.8347 58.9221L55.9942 53.6427L66.3531 64.0016L58.3539 72.0007C45.0903 71.6592 32.4347 66.3658 22.8777 57.1623C13.6503 47.6014 8.34168 34.9291 7.99928 21.6461L15.9984 13.6469ZM71.9925 36.0045H79.9916C80.0953 31.2491 79.2351 26.5218 77.4629 22.1077C75.6906 17.6935 73.043 13.6839 69.6795 10.3205C66.3161 6.95702 62.3065 4.30938 57.8924 2.53712C53.4782 0.764858 48.751 -0.0953365 43.9955 0.00837763V8.00753C47.7067 7.87915 51.4046 8.51551 54.8595 9.87706C58.3143 11.2386 61.4522 13.2962 64.078 15.922C66.7038 18.5478 68.7614 21.6857 70.1229 25.1405C71.4845 28.5954 72.1209 32.2933 71.9925 36.0045Z" fill="white"/>
<path d="M43.9956 24.0057C52.3947 24.0057 55.9943 27.6054 55.9943 36.0045H63.9934C63.9934 23.1258 56.8742 16.0066 43.9956 16.0066V24.0057Z" fill="white"/>
</g>
<defs>
<clipPath id="clip0_3767_114">
<rect width="80" height="80" fill="white"/>
</clipPath>
</defs>
</svg>
