<?xml version="1.0" encoding="utf-8"?>
<svg version="1.1" xmlns="http://www.w3.org/2000/svg" xmlns:xlink="http://www.w3.org/1999/xlink" viewBox="0 0 150.657 76.602">
<g id="Isolation_Mode">
	<path fill="#FFFFFF" d="M55.701,72.328c-2.617,1.345-5.394,2.371-8.329,3.077c-2.936,0.705-6.031,1.061-9.283,1.061
		c-5.729,0-10.928-1.076-15.596-3.234c-4.668-2.156-8.665-5.021-11.989-8.594c-3.326-3.571-5.907-7.656-7.745-12.255
		C0.918,47.785,0,43.045,0,38.165c0-4.95,0.955-9.725,2.865-14.323c1.91-4.597,4.579-8.663,8.01-12.2
		c3.43-3.536,7.497-6.349,12.201-8.436c4.703-2.085,9.849-3.13,15.437-3.13c5.729,0,10.928,1.113,15.596,3.342
		s8.664,5.146,11.989,8.753c3.324,3.606,5.889,7.71,7.692,12.308c1.803,4.6,2.705,9.303,2.705,14.11
		c0,4.668-0.832,9.144-2.493,13.421c-1.663,4.28-4.015,8.116-7.055,11.513l11.458,12.413h-19.31L55.701,72.328z M38.301,58.111
		c1.555,0,2.865-0.141,3.926-0.424L29.813,44.106h19.31l4.138,4.563c0.777-1.626,1.343-3.323,1.697-5.093
		c0.354-1.768,0.531-3.571,0.531-5.411c0-2.546-0.355-5.003-1.061-7.374c-0.708-2.369-1.787-4.474-3.236-6.313
		c-1.451-1.838-3.254-3.306-5.411-4.402c-2.158-1.097-4.688-1.646-7.586-1.646c-2.971,0-5.535,0.583-7.692,1.75
		c-2.158,1.167-3.944,2.688-5.358,4.563c-1.416,1.875-2.458,3.997-3.13,6.365c-0.673,2.371-1.008,4.792-1.008,7.269
		c0,2.546,0.353,5.005,1.061,7.374c0.706,2.37,1.767,4.476,3.183,6.313c1.414,1.841,3.2,3.308,5.358,4.401
		C32.766,57.564,35.33,58.111,38.301,58.111z"/>
	<path fill="#FFFFFF" d="M80.527,37.634c0-4.597,0.866-9.125,2.6-13.58c1.732-4.456,4.26-8.451,7.586-11.989
		c3.324-3.535,7.355-6.4,12.095-8.594c4.738-2.191,10.149-3.289,16.233-3.289c7.284,0,13.597,1.503,18.938,4.509
		c5.339,3.008,9.318,6.984,11.936,11.937l-15.808,11.246c-0.708-1.838-1.645-3.357-2.812-4.563
		c-1.167-1.202-2.458-2.156-3.873-2.864c-1.416-0.706-2.883-1.202-4.403-1.485c-1.521-0.281-2.989-0.424-4.403-0.424
		c-2.971,0-5.535,0.583-7.692,1.751c-2.159,1.167-3.926,2.688-5.305,4.563s-2.405,3.997-3.077,6.365
		c-0.673,2.371-1.008,4.722-1.008,7.057c0,2.617,0.388,5.129,1.167,7.533c0.777,2.403,1.91,4.526,3.395,6.364
		c1.485,1.84,3.306,3.308,5.464,4.402c2.157,1.098,4.579,1.645,7.268,1.645c1.415,0,2.865-0.157,4.35-0.477
		c1.485-0.319,2.918-0.851,4.297-1.593c1.379-0.741,2.616-1.696,3.713-2.864c1.096-1.166,1.963-2.6,2.6-4.298l16.869,10.08
		c-1.132,2.759-2.848,5.233-5.146,7.428c-2.299,2.191-4.917,4.03-7.851,5.517c-2.936,1.485-6.084,2.617-9.443,3.396
		c-3.36,0.776-6.631,1.167-9.814,1.167c-5.588,0-10.699-1.114-15.331-3.343c-4.634-2.229-8.63-5.182-11.989-8.858
		c-3.36-3.678-5.959-7.853-7.798-12.521C81.446,47.183,80.527,42.445,80.527,37.634z"/>
</g>
</svg>
