<?xml version="1.0" encoding="utf-8"?>
<!-- Generator: Adobe Illustrator 16.0.3, SVG Export Plug-In . SVG Version: 6.00 Build 0)  -->
<!DOCTYPE svg PUBLIC "-//W3C//DTD SVG 1.1//EN" "http://www.w3.org/Graphics/SVG/1.1/DTD/svg11.dtd">
<svg version="1.1" id="Layer_1" xmlns="http://www.w3.org/2000/svg" xmlns:xlink="http://www.w3.org/1999/xlink" x="0px" y="0px"
	 width="109.327px" height="63.772px" viewBox="0 0 109.327 63.772" enable-background="new 0 0 109.327 63.772"
	 xml:space="preserve">
<g>
	<defs>
		<rect id="SVGID_1_" y="0.001" width="109.327" height="63.77"/>
	</defs>
	<clipPath id="SVGID_2_">
		<use xlink:href="#SVGID_1_"  overflow="visible"/>
	</clipPath>
	<rect y="58.867" clip-path="url(#SVGID_2_)" fill="#CB2027" width="109.327" height="4.904"/>
	<rect y="53.961" clip-path="url(#SVGID_2_)" fill="#FFFFFF" width="109.327" height="4.905"/>
	<rect y="49.06" clip-path="url(#SVGID_2_)" fill="#CB2027" width="109.327" height="4.901"/>
	<rect y="44.155" clip-path="url(#SVGID_2_)" fill="#FFFFFF" width="109.327" height="4.905"/>
	<rect y="39.247" clip-path="url(#SVGID_2_)" fill="#CB2027" width="109.327" height="4.908"/>
	<rect y="34.345" clip-path="url(#SVGID_2_)" fill="#FFFFFF" width="109.327" height="4.901"/>
	<rect y="29.435" clip-path="url(#SVGID_2_)" fill="#CB2027" width="109.327" height="4.911"/>
	<rect y="24.532" clip-path="url(#SVGID_2_)" fill="#FFFFFF" width="109.327" height="4.902"/>
	<rect y="19.627" clip-path="url(#SVGID_2_)" fill="#CB2027" width="109.327" height="4.905"/>
	<rect y="14.72" clip-path="url(#SVGID_2_)" fill="#FFFFFF" width="109.327" height="4.907"/>
	<rect y="9.814" clip-path="url(#SVGID_2_)" fill="#CB2027" width="109.327" height="4.905"/>
	<rect y="4.909" clip-path="url(#SVGID_2_)" fill="#FFFFFF" width="109.327" height="4.905"/>
	<rect y="0.001" clip-path="url(#SVGID_2_)" fill="#CB2027" width="109.327" height="4.908"/>
	<rect y="0.001" clip-path="url(#SVGID_2_)" fill="#2B3660" width="49.928" height="34.344"/>
	<polygon clip-path="url(#SVGID_2_)" fill="#FFFFFF" points="4.511,3.786 4.937,5.088 6.305,5.088 5.198,5.89 5.618,7.188 
		4.511,6.386 3.403,7.188 3.837,5.89 2.729,5.088 4.085,5.088 	"/>
	<polygon clip-path="url(#SVGID_2_)" fill="#FFFFFF" points="4.511,9.521 4.937,10.816 6.305,10.816 5.198,11.614 5.618,12.919 
		4.511,12.114 3.403,12.919 3.837,11.614 2.729,10.816 4.085,10.816 	"/>
	<polygon clip-path="url(#SVGID_2_)" fill="#FFFFFF" points="4.511,15.254 4.937,16.549 6.305,16.549 5.198,17.351 5.618,18.651 
		4.511,17.847 3.403,18.651 3.837,17.351 2.729,16.549 4.085,16.549 	"/>
	<polygon clip-path="url(#SVGID_2_)" fill="#FFFFFF" points="4.511,20.982 4.937,22.283 6.305,22.283 5.198,23.085 5.618,24.38 
		4.511,23.581 3.403,24.38 3.837,23.085 2.729,22.283 4.085,22.283 	"/>
	<polygon clip-path="url(#SVGID_2_)" fill="#FFFFFF" points="4.511,26.715 4.937,28.019 6.305,28.019 5.198,28.813 5.618,30.112 
		4.511,29.311 3.403,30.112 3.837,28.813 2.729,28.019 4.085,28.019 	"/>
	<polygon clip-path="url(#SVGID_2_)" fill="#FFFFFF" points="8.506,6.806 8.913,8.106 10.287,8.106 9.187,8.911 9.601,10.206 
		8.506,9.407 7.405,10.206 7.819,8.911 6.718,8.106 8.086,8.106 	"/>
	<polygon clip-path="url(#SVGID_2_)" fill="#FFFFFF" points="8.506,12.54 8.913,13.835 10.287,13.835 9.187,14.64 9.601,15.935 
		8.506,15.14 7.405,15.935 7.819,14.64 6.718,13.835 8.086,13.835 	"/>
	<polygon clip-path="url(#SVGID_2_)" fill="#FFFFFF" points="8.506,18.272 8.913,19.57 10.287,19.57 9.187,20.372 9.601,21.67 
		8.506,20.868 7.405,21.67 7.819,20.372 6.718,19.57 8.086,19.57 	"/>
	<polygon clip-path="url(#SVGID_2_)" fill="#FFFFFF" points="8.506,24.007 8.913,25.302 10.287,25.302 9.187,26.104 9.601,27.398 
		8.506,26.594 7.405,27.398 7.819,26.104 6.718,25.302 8.086,25.302 	"/>
	<polygon clip-path="url(#SVGID_2_)" fill="#FFFFFF" points="12.54,3.786 12.966,5.088 14.333,5.088 13.227,5.89 13.653,7.188 
		12.54,6.386 11.445,7.188 11.864,5.89 10.759,5.088 12.12,5.088 	"/>
	<polygon clip-path="url(#SVGID_2_)" fill="#FFFFFF" points="12.54,9.521 12.966,10.816 14.333,10.816 13.227,11.614 13.653,12.919 
		12.54,12.114 11.445,12.919 11.864,11.614 10.759,10.816 12.12,10.816 	"/>
	<polygon clip-path="url(#SVGID_2_)" fill="#FFFFFF" points="12.54,15.254 12.966,16.549 14.333,16.549 13.227,17.351 
		13.653,18.651 12.54,17.847 11.445,18.651 11.864,17.351 10.759,16.549 12.12,16.549 	"/>
	<polygon clip-path="url(#SVGID_2_)" fill="#FFFFFF" points="12.54,20.982 12.966,22.283 14.333,22.283 13.227,23.085 13.653,24.38 
		12.54,23.581 11.445,24.38 11.864,23.085 10.759,22.283 12.12,22.283 	"/>
	<polygon clip-path="url(#SVGID_2_)" fill="#FFFFFF" points="12.54,26.715 12.966,28.019 14.333,28.019 13.227,28.813 
		13.653,30.112 12.54,29.311 11.445,30.112 11.864,28.813 10.759,28.019 12.12,28.019 	"/>
	<polygon clip-path="url(#SVGID_2_)" fill="#FFFFFF" points="16.534,6.806 16.954,8.106 18.329,8.106 17.216,8.911 17.642,10.206 
		16.534,9.407 15.435,10.206 15.86,8.911 14.747,8.106 16.114,8.106 	"/>
	<polygon clip-path="url(#SVGID_2_)" fill="#FFFFFF" points="16.534,12.54 16.954,13.835 18.329,13.835 17.216,14.64 17.642,15.935 
		16.534,15.14 15.435,15.935 15.86,14.64 14.747,13.835 16.114,13.835 	"/>
	<polygon clip-path="url(#SVGID_2_)" fill="#FFFFFF" points="16.534,18.272 16.954,19.57 18.329,19.57 17.216,20.372 17.642,21.67 
		16.534,20.868 15.435,21.67 15.86,20.372 14.747,19.57 16.114,19.57 	"/>
	<polygon clip-path="url(#SVGID_2_)" fill="#FFFFFF" points="16.534,24.007 16.954,25.302 18.329,25.302 17.216,26.104 
		17.642,27.398 16.534,26.594 15.435,27.398 15.86,26.104 14.747,25.302 16.114,25.302 	"/>
	<polygon clip-path="url(#SVGID_2_)" fill="#FFFFFF" points="20.581,3.786 21.007,5.088 22.362,5.088 21.255,5.89 21.694,7.188 
		20.581,6.386 19.474,7.188 19.894,5.89 18.8,5.088 20.161,5.088 	"/>
	<polygon clip-path="url(#SVGID_2_)" fill="#FFFFFF" points="20.581,9.521 21.007,10.816 22.362,10.816 21.255,11.614 
		21.694,12.919 20.581,12.114 19.474,12.919 19.894,11.614 18.8,10.816 20.161,10.816 	"/>
	<polygon clip-path="url(#SVGID_2_)" fill="#FFFFFF" points="20.581,15.254 21.007,16.549 22.362,16.549 21.255,17.351 
		21.694,18.651 20.581,17.847 19.474,18.651 19.894,17.351 18.8,16.549 20.161,16.549 	"/>
	<polygon clip-path="url(#SVGID_2_)" fill="#FFFFFF" points="20.581,20.982 21.007,22.283 22.362,22.283 21.255,23.085 
		21.694,24.38 20.581,23.581 19.474,24.38 19.894,23.085 18.8,22.283 20.161,22.283 	"/>
	<polygon clip-path="url(#SVGID_2_)" fill="#FFFFFF" points="20.581,26.715 21.007,28.019 22.362,28.019 21.255,28.813 
		21.694,30.112 20.581,29.311 19.474,30.112 19.894,28.813 18.8,28.019 20.161,28.019 	"/>
	<polygon clip-path="url(#SVGID_2_)" fill="#FFFFFF" points="24.575,6.806 24.996,8.106 26.356,8.106 25.257,8.911 25.67,10.206 
		24.575,9.407 23.476,10.206 23.889,8.911 22.788,8.106 24.149,8.106 	"/>
	<polygon clip-path="url(#SVGID_2_)" fill="#FFFFFF" points="24.575,12.54 24.996,13.835 26.356,13.835 25.257,14.64 25.67,15.935 
		24.575,15.14 23.476,15.935 23.889,14.64 22.788,13.835 24.149,13.835 	"/>
	<polygon clip-path="url(#SVGID_2_)" fill="#FFFFFF" points="24.575,18.272 24.996,19.57 26.356,19.57 25.257,20.372 25.67,21.67 
		24.575,20.868 23.476,21.67 23.889,20.372 22.788,19.57 24.149,19.57 	"/>
	<polygon clip-path="url(#SVGID_2_)" fill="#FFFFFF" points="24.575,24.007 24.996,25.302 26.356,25.302 25.257,26.104 
		25.67,27.398 24.575,26.594 23.476,27.398 23.889,26.104 22.788,25.302 24.149,25.302 	"/>
	<polygon clip-path="url(#SVGID_2_)" fill="#FFFFFF" points="28.608,3.786 29.036,5.088 30.397,5.088 29.296,5.89 29.723,7.188 
		28.608,6.386 27.515,7.188 27.929,5.89 26.828,5.088 28.188,5.088 	"/>
	<polygon clip-path="url(#SVGID_2_)" fill="#FFFFFF" points="28.608,9.521 29.036,10.816 30.397,10.816 29.296,11.614 
		29.723,12.919 28.608,12.114 27.515,12.919 27.929,11.614 26.828,10.816 28.188,10.816 	"/>
	<polygon clip-path="url(#SVGID_2_)" fill="#FFFFFF" points="28.608,15.254 29.036,16.549 30.397,16.549 29.296,17.351 
		29.723,18.651 28.608,17.847 27.515,18.651 27.929,17.351 26.828,16.549 28.188,16.549 	"/>
	<polygon clip-path="url(#SVGID_2_)" fill="#FFFFFF" points="28.608,20.982 29.036,22.283 30.397,22.283 29.296,23.085 
		29.723,24.38 28.608,23.581 27.515,24.38 27.929,23.085 26.828,22.283 28.188,22.283 	"/>
	<polygon clip-path="url(#SVGID_2_)" fill="#FFFFFF" points="28.608,26.715 29.036,28.019 30.397,28.019 29.296,28.813 
		29.723,30.112 28.608,29.311 27.515,30.112 27.929,28.813 26.828,28.019 28.188,28.019 	"/>
	<polygon clip-path="url(#SVGID_2_)" fill="#FFFFFF" points="32.604,6.806 33.024,8.106 34.398,8.106 33.292,8.911 33.712,10.206 
		32.604,9.407 31.503,10.206 31.931,8.911 30.823,8.106 32.19,8.106 	"/>
	<polygon clip-path="url(#SVGID_2_)" fill="#FFFFFF" points="32.604,12.54 33.024,13.835 34.398,13.835 33.292,14.64 33.712,15.935 
		32.604,15.14 31.503,15.935 31.931,14.64 30.823,13.835 32.19,13.835 	"/>
	<polygon clip-path="url(#SVGID_2_)" fill="#FFFFFF" points="32.604,18.272 33.024,19.57 34.398,19.57 33.292,20.372 33.712,21.67 
		32.604,20.868 31.503,21.67 31.931,20.372 30.823,19.57 32.19,19.57 	"/>
	<polygon clip-path="url(#SVGID_2_)" fill="#FFFFFF" points="32.604,24.007 33.024,25.302 34.398,25.302 33.292,26.104 
		33.712,27.398 32.604,26.594 31.503,27.398 31.931,26.104 30.823,25.302 32.19,25.302 	"/>
	<polygon clip-path="url(#SVGID_2_)" fill="#FFFFFF" points="36.65,3.786 37.077,5.088 38.438,5.088 37.337,5.89 37.751,7.188 
		36.65,6.386 35.557,7.188 35.97,5.89 34.869,5.088 36.23,5.088 	"/>
	<polygon clip-path="url(#SVGID_2_)" fill="#FFFFFF" points="36.65,9.521 37.077,10.816 38.438,10.816 37.337,11.614 37.751,12.919 
		36.65,12.114 35.557,12.919 35.97,11.614 34.869,10.816 36.23,10.816 	"/>
	<polygon clip-path="url(#SVGID_2_)" fill="#FFFFFF" points="36.65,15.254 37.077,16.549 38.438,16.549 37.337,17.351 
		37.751,18.651 36.65,17.847 35.557,18.651 35.97,17.351 34.869,16.549 36.23,16.549 	"/>
	<polygon clip-path="url(#SVGID_2_)" fill="#FFFFFF" points="36.65,20.982 37.077,22.283 38.438,22.283 37.337,23.085 37.751,24.38 
		36.65,23.581 35.557,24.38 35.97,23.085 34.869,22.283 36.23,22.283 	"/>
	<polygon clip-path="url(#SVGID_2_)" fill="#FFFFFF" points="36.65,26.715 37.077,28.019 38.438,28.019 37.337,28.813 
		37.751,30.112 36.65,29.311 35.557,30.112 35.97,28.813 34.869,28.019 36.23,28.019 	"/>
	<polygon clip-path="url(#SVGID_2_)" fill="#FFFFFF" points="40.646,6.806 41.06,8.106 42.427,8.106 41.333,8.911 41.739,10.206 
		40.646,9.407 39.532,10.206 39.958,8.911 38.864,8.106 40.22,8.106 	"/>
	<polygon clip-path="url(#SVGID_2_)" fill="#FFFFFF" points="40.646,12.54 41.06,13.835 42.427,13.835 41.333,14.64 41.739,15.935 
		40.646,15.14 39.532,15.935 39.958,14.64 38.864,13.835 40.22,13.835 	"/>
	<polygon clip-path="url(#SVGID_2_)" fill="#FFFFFF" points="40.646,18.272 41.06,19.57 42.427,19.57 41.333,20.372 41.739,21.67 
		40.646,20.868 39.532,21.67 39.958,20.372 38.864,19.57 40.22,19.57 	"/>
	<polygon clip-path="url(#SVGID_2_)" fill="#FFFFFF" points="40.646,24.007 41.06,25.302 42.427,25.302 41.333,26.104 
		41.739,27.398 40.646,26.594 39.532,27.398 39.958,26.104 38.864,25.302 40.22,25.302 	"/>
	<polygon clip-path="url(#SVGID_2_)" fill="#FFFFFF" points="44.679,3.786 45.112,5.088 46.467,5.088 45.366,5.89 45.792,7.188 
		44.679,6.386 43.585,7.188 43.999,5.89 42.897,5.088 44.259,5.088 	"/>
	<polygon clip-path="url(#SVGID_2_)" fill="#FFFFFF" points="44.679,9.521 45.112,10.816 46.467,10.816 45.366,11.614 
		45.792,12.919 44.679,12.114 43.585,12.919 43.999,11.614 42.897,10.816 44.259,10.816 	"/>
	<polygon clip-path="url(#SVGID_2_)" fill="#FFFFFF" points="44.679,15.254 45.112,16.549 46.467,16.549 45.366,17.351 
		45.792,18.651 44.679,17.847 43.585,18.651 43.999,17.351 42.897,16.549 44.259,16.549 	"/>
	<polygon clip-path="url(#SVGID_2_)" fill="#FFFFFF" points="44.679,20.982 45.112,22.283 46.467,22.283 45.366,23.085 
		45.792,24.38 44.679,23.581 43.585,24.38 43.999,23.085 42.897,22.283 44.259,22.283 	"/>
	<polygon clip-path="url(#SVGID_2_)" fill="#FFFFFF" points="44.679,26.715 45.112,28.019 46.467,28.019 45.366,28.813 
		45.792,30.112 44.679,29.311 43.585,30.112 43.999,28.813 42.897,28.019 44.259,28.019 	"/>
</g>
<g display="none">
	<defs>
		<rect id="SVGID_3_" x="0.003" width="109.32" height="63.772"/>
	</defs>
	<clipPath id="SVGID_4_" display="inline">
		<use xlink:href="#SVGID_3_"  overflow="visible"/>
	</clipPath>
	<rect x="0.003" display="inline" clip-path="url(#SVGID_4_)" fill="#2C2A7C" width="109.32" height="63.772"/>
	<polygon display="inline" clip-path="url(#SVGID_4_)" fill="#FFFFFF" points="28.752,39.069 30.431,44.25 35.508,42.325 
		32.512,46.85 37.175,49.624 31.767,50.094 32.512,55.473 28.752,51.54 25.024,55.473 25.769,50.094 20.349,49.624 25.024,46.85 
		22.015,42.325 27.104,44.25 	"/>
	<polygon display="inline" clip-path="url(#SVGID_4_)" fill="#FFFFFF" points="86.269,48.383 87.076,50.848 89.493,49.936 
		88.069,52.092 90.288,53.413 87.7,53.635 88.069,56.196 86.269,54.319 84.499,56.196 84.856,53.635 82.28,53.413 84.499,52.092 
		83.075,49.936 85.492,50.848 	"/>
	<polygon display="inline" clip-path="url(#SVGID_4_)" fill="#FFFFFF" points="71.903,25.619 72.692,28.081 75.11,27.161 
		73.685,29.324 75.905,30.645 73.329,30.86 73.685,33.427 71.903,31.551 70.116,33.427 70.472,30.86 67.896,30.645 70.116,29.324 
		68.69,27.161 71.108,28.081 	"/>
	<polygon display="inline" clip-path="url(#SVGID_4_)" fill="#FFFFFF" points="86.269,10.039 87.076,12.504 89.493,11.591 
		88.069,13.741 90.288,15.064 87.7,15.291 88.069,17.848 86.269,15.978 84.499,17.848 84.856,15.291 82.28,15.064 84.499,13.741 
		83.075,11.591 85.492,12.504 	"/>
	<polygon display="inline" clip-path="url(#SVGID_4_)" fill="#FFFFFF" points="99.068,21.786 99.851,24.248 102.287,23.332 
		100.843,25.488 103.076,26.802 100.487,27.03 100.856,29.598 99.068,27.718 97.287,29.598 97.644,27.03 95.06,26.802 
		97.287,25.488 95.862,23.332 98.279,24.248 	"/>
	<polygon display="inline" clip-path="url(#SVGID_4_)" fill="#FFFFFF" points="92.032,33.319 92.662,34.856 94.31,34.975 
		93.05,36.045 93.438,37.657 92.032,36.78 90.632,37.657 91.021,36.045 89.755,34.975 91.409,34.856 	"/>
	<polygon display="inline" clip-path="url(#SVGID_4_)" fill="#FFFFFF" points="23.974,0 23.974,9.591 0.003,9.591 0.003,19.178 
		23.974,19.178 23.974,28.765 33.548,28.765 33.548,19.178 57.532,19.178 57.532,9.591 33.548,9.591 33.548,0 	"/>
	<polygon display="inline" clip-path="url(#SVGID_4_)" fill="#FFFFFF" points="0.003,0 0.003,3.216 51.095,28.765 57.52,28.765 
		57.52,25.549 6.435,0 	"/>
	<polygon display="inline" clip-path="url(#SVGID_4_)" fill="#FFFFFF" points="51.095,0 0.003,25.549 0.003,28.765 6.435,28.765 
		57.52,3.216 57.52,0 	"/>
	<polygon display="inline" clip-path="url(#SVGID_4_)" fill="#E91E26" points="25.882,0 25.882,11.505 0.003,11.505 0.003,17.259 
		25.882,17.259 25.882,28.765 31.634,28.765 31.634,17.259 57.52,17.259 57.52,11.505 31.634,11.505 31.634,0 	"/>
	<path display="inline" clip-path="url(#SVGID_4_)" fill="#E91E26" d="M0.003,0v2.147l14.874,7.443h4.3L0.003,0z M53.231,0
		L34.063,9.591h4.288L57.52,0H53.231z"/>
	<path display="inline" clip-path="url(#SVGID_4_)" fill="#E91E26" d="M19.177,19.178L0.003,28.765H4.29l19.175-9.587H19.177z
		 M38.352,19.178l19.181,9.587V26.62L42.64,19.178H38.352z"/>
</g>
<g display="none">
	<defs>
		<rect id="SVGID_5_" x="0.003" y="0.003" width="109.321" height="63.766"/>
	</defs>
	<clipPath id="SVGID_6_" display="inline">
		<use xlink:href="#SVGID_5_"  overflow="visible"/>
	</clipPath>
	<rect x="0.003" y="0.003" display="inline" clip-path="url(#SVGID_6_)" fill="#FFFFFF" width="109.321" height="63.766"/>
	<polygon display="inline" clip-path="url(#SVGID_6_)" fill="#BD1F38" points="73.201,23.058 109.324,2.837 109.324,0.003 
		106.834,0.003 65.646,23.058 	"/>
	<polygon display="inline" clip-path="url(#SVGID_6_)" fill="#BD1F38" points="71.496,41.994 109.324,63.162 109.324,58.931 
		79.055,41.994 	"/>
	<polygon display="inline" clip-path="url(#SVGID_6_)" fill="#BD1F38" points="0.003,4.856 32.363,23.058 39.923,23.058 
		0.003,0.623 	"/>
	<polygon display="inline" clip-path="url(#SVGID_6_)" fill="#BD1F38" points="38.208,41.994 0.003,63.4 0.003,63.769 6.905,63.769 
		45.773,41.994 	"/>
	<polygon display="inline" clip-path="url(#SVGID_6_)" fill="#2C3077" points="101.842,0.003 63.566,0.003 63.566,21.438 	"/>
	<polygon display="inline" clip-path="url(#SVGID_6_)" fill="#2C3077" points="46.667,0.003 8.544,0.003 46.667,21.438 	"/>
	<polygon display="inline" clip-path="url(#SVGID_6_)" fill="#2C3077" points="109.324,23.058 109.324,8.429 83.357,23.058 	"/>
	<polygon display="inline" clip-path="url(#SVGID_6_)" fill="#2C3077" points="109.324,56.466 109.324,41.994 83.357,41.994 	"/>
	<polygon display="inline" clip-path="url(#SVGID_6_)" fill="#2C3077" points="10.706,63.769 46.667,63.769 46.667,43.619 	"/>
	<polygon display="inline" clip-path="url(#SVGID_6_)" fill="#2C3077" points="63.566,63.769 99.641,63.769 63.566,43.619 	"/>
	<polygon display="inline" clip-path="url(#SVGID_6_)" fill="#2C3077" points="0.003,41.994 0.003,57.119 26.872,41.994 	"/>
	<polygon display="inline" clip-path="url(#SVGID_6_)" fill="#2C3077" points="0.003,23.058 26.872,23.058 0.003,7.91 	"/>
	<polygon display="inline" clip-path="url(#SVGID_6_)" fill="#BD1F38" points="50.048,0.003 50.048,26.847 0.003,26.847 
		0.003,38.214 50.048,38.214 50.048,63.769 60.186,63.769 60.186,38.214 109.324,38.214 109.324,26.847 60.186,26.847 60.186,0.003 
			"/>
</g>
<g display="none">
	<defs>
		<rect id="SVGID_7_" x="0.003" y="0.001" width="109.32" height="63.77"/>
	</defs>
	<clipPath id="SVGID_8_" display="inline">
		<use xlink:href="#SVGID_7_"  overflow="visible"/>
	</clipPath>
	<polygon display="inline" clip-path="url(#SVGID_8_)" fill="#2C3077" points="54.686,0.001 54.686,2.031 54.686,2.725 
		54.686,3.049 42.55,9.111 54.686,9.111 54.686,10.938 54.686,13.673 54.686,16.405 54.686,18.225 42.55,18.225 54.686,24.294 
		54.686,25.312 54.686,27.345 54.686,27.52 50.95,27.52 49.554,27.52 48.912,27.52 31.888,19.004 31.888,27.52 30.063,27.52 
		27.33,27.52 24.601,27.52 22.774,27.52 22.774,19.004 5.754,27.52 3.715,27.52 0.003,27.52 0.003,63.771 109.323,63.771 
		109.323,0.001 	"/>
	<polygon display="inline" clip-path="url(#SVGID_8_)" fill="#2C3077" points="0.003,18.225 0.003,24.281 12.112,18.225 	"/>
	<polygon display="inline" clip-path="url(#SVGID_8_)" fill="#2C3077" points="31.888,0.001 31.888,8.342 48.553,0.001 	"/>
	<polygon display="inline" clip-path="url(#SVGID_8_)" fill="#2C3077" points="22.774,0.001 6.113,0.001 22.774,8.342 	"/>
	<polygon display="inline" clip-path="url(#SVGID_8_)" fill="#2C3077" points="0.003,9.111 12.112,9.111 0.003,3.064 	"/>
	<polygon display="inline" clip-path="url(#SVGID_8_)" fill="#FFFFFF" points="54.663,0.001 36.442,9.111 32.361,9.111 
		50.582,0.001 48.553,0.001 31.888,8.342 31.888,0.001 30.063,0.001 30.063,9.248 30.063,10.267 30.063,10.938 32.794,10.938 
		36.872,10.938 38.266,10.938 38.905,10.938 54.686,10.938 54.686,9.111 42.55,9.111 54.686,3.049 54.686,2.725 54.686,2.031 
		54.686,0.001 	"/>
	<polygon display="inline" clip-path="url(#SVGID_8_)" fill="#FFFFFF" points="22.774,0.001 22.774,8.342 6.113,0.001 0.003,0.001 
		18.223,9.111 14.148,9.111 0.003,2.047 0.003,3.064 12.112,9.111 0.003,9.111 0.003,10.938 15.751,10.938 17.794,10.938 
		21.861,10.938 24.601,10.938 24.601,10.267 24.601,9.573 24.601,9.248 24.601,0.001 	"/>
	<polygon display="inline" clip-path="url(#SVGID_8_)" fill="#FFFFFF" points="36.872,16.405 32.794,16.405 30.063,16.405 
		30.063,17.073 30.063,17.77 30.063,18.091 30.063,27.52 31.888,27.52 31.888,19.004 48.912,27.52 49.554,27.52 50.95,27.52 
		54.686,27.52 54.686,27.345 36.442,18.225 40.515,18.225 54.686,25.312 54.686,24.294 42.55,18.225 54.686,18.225 54.686,16.405 
		38.905,16.405 	"/>
	<polygon display="inline" clip-path="url(#SVGID_8_)" fill="#FFFFFF" points="21.861,16.405 17.794,16.405 16.397,16.405 
		15.751,16.405 0.003,16.405 0.003,18.225 12.112,18.225 0.003,24.281 0.003,27.331 18.223,18.225 22.294,18.225 3.715,27.52 
		5.754,27.52 22.774,19.004 22.774,27.52 24.601,27.52 24.601,18.091 24.601,17.073 24.601,16.405 	"/>
	<polygon display="inline" clip-path="url(#SVGID_8_)" fill="#BD1F38" points="18.223,18.225 0.003,27.331 0.003,27.52 3.715,27.52 
		22.294,18.225 	"/>
	<polygon display="inline" clip-path="url(#SVGID_8_)" fill="#BD1F38" points="0.003,2.047 14.148,9.111 18.223,9.111 0.003,0.001 	
		"/>
	<polygon display="inline" clip-path="url(#SVGID_8_)" fill="#BD1F38" points="54.663,0.001 50.582,0.001 32.361,9.111 
		36.442,9.111 	"/>
	<polygon display="inline" clip-path="url(#SVGID_8_)" fill="#BD1F38" points="36.442,18.225 54.686,27.345 54.686,25.312 
		40.515,18.225 	"/>
	<polygon display="inline" clip-path="url(#SVGID_8_)" fill="#BD1F38" points="24.601,0.001 24.601,9.248 24.601,9.573 
		24.601,10.267 24.601,10.938 21.861,10.938 17.794,10.938 15.751,10.938 0.003,10.938 0.003,16.405 15.751,16.405 16.397,16.405 
		17.794,16.405 21.861,16.405 24.601,16.405 24.601,17.073 24.601,18.091 24.601,27.52 27.33,27.52 30.063,27.52 30.063,18.091 
		30.063,17.77 30.063,17.073 30.063,16.405 32.794,16.405 36.872,16.405 38.905,16.405 54.686,16.405 54.686,13.673 54.686,10.938 
		38.905,10.938 38.266,10.938 36.872,10.938 32.794,10.938 30.063,10.938 30.063,10.267 30.063,9.248 30.063,0.001 	"/>
	<polygon display="inline" clip-path="url(#SVGID_8_)" fill="#FFFFFF" points="75.889,18.613 78.854,18.613 79.779,15.788 
		80.695,18.613 83.656,18.613 81.262,20.362 82.175,23.187 79.779,21.438 77.364,23.187 78.29,20.362 	"/>
	<polygon display="inline" clip-path="url(#SVGID_8_)" fill="#BD1F38" points="77.206,19.046 79.165,19.046 79.779,17.179 
		80.38,19.046 82.34,19.046 80.759,20.2 81.36,22.07 79.779,20.916 78.186,22.07 78.793,20.2 	"/>
	<polygon display="inline" clip-path="url(#SVGID_8_)" fill="#FFFFFF" points="63.999,30.573 66.967,30.573 67.893,27.742 
		68.809,30.573 71.779,30.573 69.381,32.313 70.29,35.14 67.893,33.394 65.494,35.14 66.407,32.313 	"/>
	<polygon display="inline" clip-path="url(#SVGID_8_)" fill="#BD1F38" points="65.319,30.999 67.281,30.999 67.893,29.129 
		68.497,30.999 70.469,30.999 68.875,32.154 69.482,34.024 67.893,32.863 66.299,34.024 66.912,32.154 	"/>
	<polygon display="inline" clip-path="url(#SVGID_8_)" fill="#FFFFFF" points="86.497,27.608 89.144,27.608 89.965,25.092 
		90.778,27.608 93.415,27.608 91.281,29.15 92.102,31.671 89.965,30.121 87.82,31.671 88.641,29.15 	"/>
	<polygon display="inline" clip-path="url(#SVGID_8_)" fill="#BD1F38" points="87.671,27.987 89.427,27.987 89.965,26.323 
		90.502,27.987 92.255,27.987 90.836,29.018 91.374,30.678 89.965,29.65 88.546,30.678 89.09,29.018 	"/>
	<polygon display="inline" clip-path="url(#SVGID_8_)" fill="#FFFFFF" points="75.456,49.331 78.752,49.331 79.779,46.191 
		80.794,49.331 84.096,49.331 81.427,51.274 82.441,54.413 79.779,52.473 77.11,54.413 78.125,51.274 	"/>
	<polygon display="inline" clip-path="url(#SVGID_8_)" fill="#BD1F38" points="76.92,49.81 79.102,49.81 79.779,47.733 80.45,49.81 
		82.629,49.81 80.87,51.092 81.545,53.175 79.779,51.887 78.014,53.175 78.691,51.092 	"/>
</g>
<g display="none">
	<defs>
		<rect id="SVGID_9_" x="0.003" y="0.001" width="109.32" height="63.77"/>
	</defs>
	<clipPath id="SVGID_10_" display="inline">
		<use xlink:href="#SVGID_9_"  overflow="visible"/>
	</clipPath>
	<rect x="0.003" y="0.001" display="inline" clip-path="url(#SVGID_10_)" fill="#E91E26" width="25.718" height="63.77"/>
	<rect x="83.605" y="0.001" display="inline" clip-path="url(#SVGID_10_)" fill="#E91E26" width="25.718" height="63.77"/>
	<rect x="25.721" y="0.001" display="inline" clip-path="url(#SVGID_10_)" fill="#FFFFFF" width="57.885" height="63.77"/>
	<g display="inline" clip-path="url(#SVGID_10_)">
		<defs>
			<rect id="SVGID_11_" x="0.003" y="0.001" width="109.32" height="63.77"/>
		</defs>
		<clipPath id="SVGID_12_">
			<use xlink:href="#SVGID_11_"  overflow="visible"/>
		</clipPath>
		<path clip-path="url(#SVGID_12_)" fill="#E91E26" d="M54.663,8.269l-3.794,7.366c-0.43,0.802-1.199,0.719-1.973,0.276
			l-2.748-1.484l2.048,11.323c0.433,2.071-0.95,2.071-1.632,1.177l-4.79-5.588l-0.779,2.834c-0.087,0.368-0.48,0.766-1.075,0.671
			l-6.057-1.333l1.591,6.027c0.347,1.346,0.604,1.902-0.343,2.256l-2.16,1.055l10.433,8.827c0.407,0.337,0.624,0.929,0.468,1.477
			l-0.91,3.123c3.588-0.43,6.814-0.824,10.396-1.257c0.317,0,0.853,0.283,0.849,0.665l-0.477,11.433h1.75l-0.28-11.407
			c0-0.372,0.483-0.69,0.795-0.69c3.595,0.433,6.813,0.827,10.405,1.257l-0.92-3.123c-0.14-0.548,0.07-1.14,0.477-1.477
			l10.431-8.827l-2.159-1.055c-0.951-0.354-0.685-0.91-0.344-2.256l1.594-6.027l-6.061,1.333c-0.594,0.095-0.985-0.303-1.074-0.671
			l-0.776-2.834l-4.794,5.588c-0.681,0.895-2.061,0.895-1.629-1.177l2.043-11.323l-2.739,1.484
			c-0.776,0.442-1.549,0.525-1.972-0.276L54.663,8.269z"/>
	</g>
</g>
<g>
</g>
<g>
</g>
<g>
</g>
<g>
</g>
<g>
</g>
<g>
</g>
</svg>
