<svg width="161" height="43" xmlns="http://www.w3.org/2000/svg" viewBox="0 0 403.4 106.7" role="img" aria-label="DaySmart Pet">
  <path fill="#151515" d="M109.6 21.4h14c12.9 0 21.2 6.8 21.2 23.2S136.5 68 123.5 68h-13.9zm14 41c9.5 0 15-4.3 15-17.8S133 27 123.6 27h-7.8v35.3zm37.7-14.2l12.3-.5V46c0-4.8-2.5-7.5-8.4-7.5s-8.3 2.7-8.5 6.2h-6c.3-6.3 4.8-11.3 14.4-11.3s14.1 5 14.1 13v21.5h-5.7v-3.6a.4.4 0 00-.4-.4c-.2 0-.4.1-.7.5-2.4 3.1-5.7 4.5-10.3 4.5-8.3 0-13.1-4.4-13.1-10.8 0-5.8 4-9.4 12.3-9.8zm1.6 15.6c6.5 0 10.7-3.7 10.7-10.8v-.4l-12.3.6c-4.5.2-6.4 2-6.4 4.9 0 3.5 2.8 5.7 8 5.7zm19.5-29.5h5.8l9.7 28.4c.2.4.2.5.7.5s.5-.2.6-.5l9.7-28.4h5.8v1.3l-12.5 36.1c-2.2 6.3-5.5 8.4-12.5 8.4h-6.2V75h10.4c.6 0 1-.2 1.2-.7l1.9-5c.1-.5.2-.8 0-1s-.3-.4-.8-.4h-2.6l-11.2-32.3zm70.9.4H247c-.3-6-4.6-8.8-11-8.8s-10.4 2.6-10.4 7.6 4.1 6.6 8.8 7.4l5.9 1c6.8 1.2 13.4 4.3 13.4 13.1s-7.4 13.8-17 13.8-18.3-5-18.6-16.1h6.3c.4 7.5 5.6 10.6 12.4 10.6s10.9-3 10.9-8.2-4.6-6.8-9.4-7.7l-5.9-1c-6.2-1.1-12.8-4.2-12.8-12.8s7.5-13.2 16.6-13.2 16.7 4.5 17 14.3zm6.5-.4h5.8v3.8c0 .3.2.4.4.4s.4-.1.7-.6c1.8-2.8 5-4.6 9.5-4.6 5.2 0 8.8 2.3 10.6 5.9.2.3.3.5.7.5s.4-.2.6-.7c1.8-3.7 5.2-5.8 11-5.8 7.7 0 12.2 5.2 12.2 13.3v21.3h-5.8V47.2c0-5.8-2.9-8.7-8.4-8.7-4.5 0-8.7 3-8.7 10.3v19h-5.8V47.2c0-5.8-2.8-8.7-8.4-8.7-4.5 0-8.7 3-8.7 10.3v19h-5.8V34.3zm69.1 13.9l12.2-.5V46c0-4.8-2.4-7.5-8.4-7.5s-8.3 2.7-8.4 6.2h-6c.2-6.3 4.7-11.3 14.4-11.3s14 5 14 13v21.5H341v-3.6a.4.4 0 00-.4-.4c-.3 0-.4.1-.7.5-2.4 3.1-5.8 4.5-10.3 4.5-8.3 0-13.2-4.4-13.2-10.8.2-5.8 4-9.4 12.5-9.8zm1.6 15.6c6.4 0 10.6-3.7 10.6-10.8v-.4l-12.2.6c-4.6.2-6.5 2-6.5 4.9 0 3.5 2.9 5.7 8 5.7zm22.3-29.5h5.7V39c0 .3.2.4.5.4.4 0 .5-.2.6-.5 1.5-3.3 3.8-4.6 8.4-4.6h3.8V40h-4.6c-5.6 0-8.6 2.5-8.6 9v19h-5.8V34.3zm21.7 0h7.7v-9h5.8v9h9.6v5.2H388v22.3a.8.8 0 00.3.7.8.8 0 00.6.2h8.7V68H392c-6.5 0-9.6-3-9.6-9.6V39.5h-7.7v-5.2zm-29.7 71.9V79.6h9.3a11.3 11.3 0 015.2 1 7.2 7.2 0 013 2.8 8.7 8.7 0 010 8.1 6.9 6.9 0 01-3 2.9 11.3 11.3 0 01-5.2 1h-5.3v10.8zm4-14h5.2a5.6 5.6 0 004-1.3 4.5 4.5 0 001.2-3.3A4.6 4.6 0 00358 84a5.6 5.6 0 00-4-1.2h-5zm25.4 14.5a9.7 9.7 0 01-4.9-1.3 8.8 8.8 0 01-3.3-3.4 10.5 10.5 0 01-1.2-5.1 10.9 10.9 0 011.2-5.2 8.7 8.7 0 013.3-3.5 9.7 9.7 0 015-1.3 9.1 9.1 0 014.8 1.3 8.7 8.7 0 013.2 3.2 9.1 9.1 0 011.2 4.6v1.8h-14.8a5.8 5.8 0 001.8 4.2 5.5 5.5 0 003.7 1.4 5 5 0 002.9-.8 4.7 4.7 0 001.7-2.1h4a8.5 8.5 0 01-3 4.4 8.8 8.8 0 01-5.6 1.8zm0-16.5a5.7 5.7 0 00-3.5 1.2 5.2 5.2 0 00-2 3.6h10.7a4.8 4.8 0 00-1.6-3.5 5.2 5.2 0 00-3.6-1.3zm20.1 16a6.7 6.7 0 01-4.4-1.4q-1.7-1.3-1.7-4.8v-9.3H385v-3.4h3.2l.5-4.7h3.6v4.7h5.3v3.4h-5.3v9.3a2.8 2.8 0 00.6 2.1 3.5 3.5 0 002.3.6h2.2v3.5z"></path>
  <circle fill="#d3d3d3" cx="10.1" cy="26.1" r="9.4"></circle>
  <circle fill="#d3d3d3" cx="29" cy="9.4" r="9.4"></circle>
  <circle fill="#d3d3d3" cx="72.8" cy="26.1" r="9.4"></circle>
  <circle fill="#d3d3d3" cx="53.9" cy="9.4" r="9.4"></circle>
  <path class="logo-mark-1" fill="#8f8f8f" d="M70.4 46.6l-3.5-6a7.2 7.2 0 10-12.4 7.2l3.4 6c3.2 5.5 1.9 12-3.2 16.3a20 20 0 01-13.2 4.7 20 20 0 01-13.2-4.7A12.7 12.7 0 0125 53.8l3.5-6A7.2 7.2 0 1016 40.6l-3.5 6a26.9 26.9 0 00-3.2 18A28 28 0 0018.8 81a34.4 34.4 0 0022.6 8.2A34.4 34.4 0 0064.1 81a28.1 28.1 0 009.5-16.3 26.9 26.9 0 00-3.2-18z"></path>
  <path fill="#131313" d="M41.4 58a7.8 7.8 0 01-7.8-7.8V29.5a7.8 7.8 0 0115.7 0V50a7.8 7.8 0 01-7.9 7.9z"></path>
  <path fill="#151515" d="M395.5 26.1v-4H394v-.7h3.6v.7h-1.4v4zm2.8 0v-4.7h1l1.5 3 1.5-3h1v4.7h-.9V23l-1.3 2.6h-.6l-1.3-2.6v3z"></path>
</svg>
