<svg width="129" height="52" xmlns="http://www.w3.org/2000/svg" viewBox="-1.001 0 129 52" role="img" aria-label="MyTime">
  <path fill="#B4B4B4" d="M69.693,15.182c-0.803,0-1.457,0.655-1.457,1.458c0,0.805,0.654,1.458,1.457,1.458	c0.804,0,1.458-0.654,1.458-1.458C71.151,15.837,70.497,15.182,69.693,15.182" />
  <path fill="#8F8F8F" d="M32.524,34.131v-7.286c0-0.995-0.193-1.956-0.577-2.855c-0.377-0.883-0.903-1.663-1.563-2.318 c-0.659-0.65-1.446-1.169-2.341-1.545c-0.891-0.373-1.879-0.571-2.86-0.571c-0.72,0-1.427,0.104-2.104,0.309 c-0.662,0.204-1.287,0.493-1.86,0.857c-0.569,0.364-1.088,0.795-1.547,1.283c-0.09,0.099-0.179,0.198-0.262,0.299 c-0.081-0.099-0.166-0.196-0.254-0.292c-0.444-0.489-0.956-0.922-1.52-1.286c-0.568-0.368-1.197-0.658-1.873-0.863 c-0.677-0.203-1.387-0.305-2.109-0.305c-0.987,0-1.97,0.197-2.842,0.571c-0.875,0.375-1.658,0.892-2.327,1.535 c-0.673,0.647-1.214,1.426-1.605,2.317c-0.393,0.894-0.592,1.857-0.592,2.864v7.286h3.227v-7.286c0-0.554,0.109-1.083,0.325-1.574 c0.224-0.501,0.525-0.944,0.897-1.312c0.371-0.369,0.816-0.668,1.323-0.888c0.978-0.42,2.208-0.42,3.184,0 c0.51,0.223,0.956,0.521,1.326,0.889c0.37,0.365,0.671,0.807,0.896,1.312c0.217,0.489,0.326,1.018,0.326,1.574v7.286h3.228v-7.286 c0-0.554,0.11-1.083,0.328-1.574c0.221-0.504,0.522-0.946,0.894-1.311c0.374-0.37,0.82-0.668,1.325-0.888 c0.975-0.42,2.209-0.42,3.183,0c0.506,0.22,0.953,0.519,1.327,0.887c0.37,0.367,0.671,0.808,0.895,1.313 c0.216,0.488,0.326,1.018,0.326,1.574v7.286H32.524z" />
  <g transform="translate(0.000000, 0.108000)">
    <path fill="#8F8F8F" d="M45.443,26.794c0,0.555-0.107,1.086-0.318,1.58c-0.212,0.5-0.502,0.941-0.862,1.313 c-0.357,0.367-0.788,0.666-1.278,0.889c-0.939,0.423-2.135,0.423-3.076,0c-0.488-0.22-0.918-0.518-1.278-0.889 c-0.358-0.368-0.649-0.812-0.866-1.318c-0.209-0.488-0.315-1.018-0.315-1.574v-7.307h-3.116v7.307c0,1.008,0.193,1.974,0.573,2.87 c0.377,0.89,0.897,1.672,1.551,2.324c0.646,0.644,1.401,1.162,2.246,1.537c0.854,0.382,1.778,0.575,2.745,0.575 c0.951,0,1.861-0.189,2.708-0.561c-3.043,8.623-11.025,14.792-20.37,14.792C11.888,48.332,2.2,38.335,2.1,26.007 C2.2,13.678,11.888,3.681,23.785,3.681c7.623,0,14.339,4.105,18.208,10.3h3.581C41.363,5.967,33.172,0.498,23.785,0.498 c-13.543,0-24.582,11.321-24.781,25.315c-0.005,0.064-0.003,0.128-0.002,0.193c-0.001,0.063-0.003,0.128-0.003,0.192 c0.204,13.993,11.243,25.315,24.786,25.315c13.138,0,23.938-10.709,24.751-24.125c0.013-0.197,0.022-0.395,0.022-0.596v-7.307 h-3.115V26.794z" />
  </g>
  <path fill="#B4B4B4" d="M64.097,26.489c0,0.761-0.143,1.49-0.425,2.165c-0.284,0.679-0.671,1.278-1.149,1.78 c-0.479,0.5-1.049,0.906-1.697,1.203c-0.644,0.297-1.338,0.447-2.063,0.447s-1.42-0.15-2.063-0.447 c-0.648-0.298-1.22-0.703-1.697-1.203c-0.479-0.502-0.865-1.102-1.148-1.78c-0.283-0.675-0.426-1.403-0.426-2.165v-2.653h3.787 v-2.047h-3.787V16.64h-1.953v9.849c0,1.075,0.191,2.087,0.569,3.011c0.375,0.92,0.895,1.733,1.545,2.415 c0.648,0.679,1.423,1.226,2.302,1.618c0.882,0.398,1.849,0.598,2.872,0.598c0.987,0,1.929-0.199,2.802-0.598 c0.869-0.395,1.647-0.938,2.313-1.615c0.668-0.68,1.203-1.492,1.59-2.415c0.387-0.925,0.584-1.939,0.584-3.014v-0.288h-1.953V26.489 z" />
  <polygon fill="#B4B4B4" points="68.709,34.132 70.679,34.132 70.679,21.013 68.709,21.013" />
  <path fill="#B4B4B4" d="M98.881,21.669c-0.661-0.648-1.455-1.168-2.36-1.544c-0.907-0.378-1.886-0.57-2.908-0.57 c-0.711,0-1.411,0.102-2.082,0.307c-0.67,0.203-1.304,0.491-1.884,0.859c-0.58,0.367-1.107,0.802-1.567,1.292 c-0.342,0.364-0.642,0.757-0.893,1.17c-0.25-0.412-0.545-0.804-0.879-1.167c-0.45-0.492-0.969-0.927-1.539-1.294 c-0.571-0.368-1.205-0.658-1.885-0.861c-0.682-0.204-1.396-0.306-2.125-0.306c-1.005,0-1.965,0.191-2.854,0.57 c-0.883,0.375-1.676,0.894-2.354,1.541c-0.681,0.65-1.225,1.429-1.618,2.318c-0.395,0.892-0.594,1.853-0.594,2.858v7.288h1.988 v-7.288c0-0.724,0.146-1.419,0.433-2.064c0.29-0.648,0.683-1.219,1.169-1.696c0.488-0.479,1.069-0.866,1.729-1.149 c0.656-0.282,1.363-0.426,2.102-0.426s1.445,0.144,2.102,0.426c0.66,0.283,1.241,0.67,1.728,1.149 c0.486,0.476,0.88,1.047,1.171,1.696c0.287,0.647,0.433,1.341,0.433,2.064v7.288h1.988v-7.288c0-0.723,0.146-1.418,0.434-2.064 c0.289-0.648,0.684-1.219,1.17-1.696c0.486-0.479,1.067-0.866,1.728-1.149c0.656-0.282,1.364-0.426,2.102-0.426 s1.445,0.144,2.102,0.426c0.659,0.283,1.241,0.67,1.728,1.149c0.486,0.478,0.881,1.048,1.17,1.696 c0.288,0.647,0.434,1.341,0.434,2.064v7.288h1.988v-7.288c0-1.005-0.194-1.965-0.579-2.856 C100.071,23.099,99.542,22.32,98.881,21.669" />
  <path fill="#B4B4B4" d="M106.527,24.323c0.308-0.574,0.706-1.072,1.185-1.478c0.48-0.409,1.025-0.738,1.621-0.979 c0.592-0.237,1.232-0.359,1.903-0.359c0.653,0,1.29,0.122,1.891,0.36c0.605,0.241,1.156,0.57,1.634,0.978 c0.476,0.405,0.875,0.901,1.185,1.478c0.261,0.484,0.452,1.004,0.569,1.544h-10.557C106.075,25.324,106.268,24.806,106.527,24.323 M114.25,31.275c-0.866,0.6-1.88,0.903-3.014,0.903c-0.673,0-1.313-0.12-1.903-0.358c-0.595-0.24-1.141-0.568-1.621-0.979 c-0.479-0.408-0.877-0.9-1.186-1.466c-0.261-0.478-0.453-1-0.57-1.557h12.568v-0.977c0-1.006-0.191-1.967-0.568-2.856 c-0.378-0.89-0.898-1.669-1.545-2.317c-0.649-0.648-1.429-1.168-2.318-1.545c-0.891-0.377-1.851-0.569-2.856-0.569 c-1.023,0-1.99,0.192-2.872,0.569c-0.879,0.376-1.653,0.897-2.301,1.545c-0.648,0.649-1.17,1.428-1.545,2.317 c-0.379,0.89-0.57,1.851-0.57,2.856c0,1.025,0.191,1.991,0.57,2.872c0.375,0.879,0.896,1.654,1.545,2.303 c0.647,0.648,1.422,1.168,2.301,1.544c0.883,0.379,1.85,0.57,2.872,0.57c0.794,0,1.57-0.133,2.309-0.396 c0.732-0.26,1.413-0.617,2.021-1.061c0.608-0.445,1.147-0.983,1.602-1.604c0.384-0.522,0.698-1.094,0.938-1.703h-2.183 C115.52,30.141,114.961,30.781,114.25,31.275" />
  <g>
    <path fill="#B4B4B4" d="M121.598,20.186h-0.908v-3.527h-1.163v-0.756h3.234v0.756h-1.163V20.186z" />
    <path fill="#B4B4B4" d="M125.233,20.186l-1.031-3.36h-0.026c0.037,0.684,0.056,1.14,0.056,1.368v1.992h-0.812v-4.283h1.236 l1.014,3.275h0.018l1.075-3.275h1.236v4.283h-0.847v-2.027c0-0.096,0.002-0.206,0.004-0.331c0.004-0.125,0.017-0.457,0.04-0.996 h-0.026l-1.104,3.354H125.233z" />
  </g>
</svg>
