<?xml version="1.0" encoding="utf-8"?>
<svg version="1.1" xmlns="http://www.w3.org/2000/svg" xmlns:xlink="http://www.w3.org/1999/xlink" viewBox="0 0 320 320">
<g>
	<g>
		<g>
			<path fill="#CA962C" d="M317.209,157.066l-12.793-9.703l10.912-11.773c0.793-0.853,1.131-1.998,0.928-3.145
				c-0.199-1.143-0.91-2.104-1.941-2.634l-14.287-7.332l8.705-13.492c0.631-0.979,0.76-2.164,0.365-3.257
				c-0.398-1.091-1.264-1.913-2.371-2.256l-15.336-4.741l6.227-14.799c0.451-1.072,0.373-2.265-0.205-3.271
				c-0.584-1.005-1.58-1.664-2.732-1.809l-15.926-2.006l3.564-15.654c0.248-1.099-0.014-2.234-0.715-3.113
				c-0.701-0.88-1.75-1.386-2.875-1.386L262.51,57.49l0.789-16.035c0.049-1.017-0.309-1.983-1.01-2.718
				c-0.885-0.929-2.232-1.338-3.484-1.053l-15.652,3.563l-2.004-15.93c-0.234-1.838-1.809-3.222-3.656-3.222
				c-0.492,0-0.973,0.097-1.43,0.289l-14.795,6.227l-4.742-15.337c-0.482-1.553-1.891-2.597-3.52-2.597
				c-0.705,0-1.395,0.203-1.992,0.59l-13.492,8.701l-7.332-14.28c-0.633-1.235-1.889-2.002-3.279-2.002
				c-0.928,0-1.818,0.349-2.5,0.982l-11.775,10.912L162.936,2.79c-0.703-0.927-1.773-1.458-2.934-1.458
				c-1.162,0-2.232,0.533-2.934,1.458l-9.703,12.791L135.592,4.669c-0.684-0.634-1.572-0.982-2.5-0.982
				c-1.387,0-2.646,0.767-3.277,2.002l-7.334,14.28l-13.49-8.701c-0.598-0.387-1.289-0.59-1.994-0.59
				c-1.627,0-3.041,1.043-3.521,2.597l-4.74,15.335l-14.799-6.225c-0.457-0.192-0.938-0.289-1.428-0.289
				c-1.854,0-3.424,1.386-3.652,3.223L76.85,41.247l-15.654-3.563c-1.254-0.283-2.602,0.124-3.486,1.053
				c-0.701,0.736-1.059,1.701-1.008,2.719l0.791,16.034l-16.035-0.792l-0.186-0.005c-1.125,0-2.174,0.506-2.875,1.388
				c-0.703,0.88-0.961,2.015-0.711,3.114l3.563,15.653L25.32,78.854c-1.154,0.145-2.148,0.805-2.729,1.811
				c-0.582,1.007-0.656,2.197-0.205,3.271l6.227,14.797l-15.338,4.741c-1.111,0.343-1.977,1.165-2.375,2.259
				c-0.396,1.092-0.262,2.278,0.369,3.254l8.701,13.492l-14.283,7.331c-1.033,0.531-1.742,1.49-1.943,2.635
				c-0.201,1.146,0.135,2.291,0.926,3.144l10.912,11.774l-12.793,9.703c-0.926,0.701-1.457,1.772-1.457,2.935
				c0.002,1.163,0.533,2.229,1.457,2.933l12.793,9.702L4.668,184.407c-0.789,0.857-1.125,2.004-0.924,3.147
				c0.201,1.143,0.908,2.104,1.943,2.635l14.283,7.331l-8.701,13.497c-0.631,0.975-0.766,2.158-0.369,3.248
				c0.396,1.093,1.262,1.915,2.375,2.263l15.338,4.742l-6.227,14.795c-0.451,1.069-0.377,2.264,0.205,3.271
				c0.58,1.006,1.574,1.669,2.729,1.811l15.928,2.006l-3.563,15.65c-0.25,1.101,0.008,2.237,0.711,3.116
				c0.701,0.881,1.748,1.387,2.873,1.387l16.223-0.791l-0.791,16.03c-0.051,1.019,0.307,1.982,1.008,2.719
				c0.885,0.931,2.223,1.344,3.486,1.053l15.654-3.563l2.006,15.928c0.229,1.838,1.799,3.224,3.652,3.224
				c0.49,0,0.971-0.097,1.432-0.289l14.795-6.228l4.74,15.338c0.48,1.553,1.895,2.597,3.521,2.597c0.705,0,1.396-0.205,1.994-0.59
				l13.49-8.7l7.334,14.281c0.633,1.233,1.891,2.002,3.279,2.002c0.928,0,1.814-0.351,2.498-0.985l11.773-10.912l9.703,12.792
				c0.701,0.927,1.771,1.458,2.934,1.458c1.16,0,2.229-0.531,2.934-1.458l9.699-12.792l11.773,10.912
				c0.684,0.635,1.572,0.985,2.502,0.985c1.389,0,2.646-0.769,3.279-2.002l7.332-14.281l13.492,8.7
				c0.598,0.385,1.287,0.59,1.992,0.59c1.629,0,3.037-1.044,3.52-2.597l4.742-15.338l14.797,6.228
				c0.455,0.192,0.936,0.289,1.428,0.289c1.852,0,3.422-1.383,3.656-3.224l2.004-15.928l15.652,3.563
				c1.252,0.285,2.6-0.125,3.484-1.053c0.701-0.736,1.059-1.7,1.01-2.719l-0.789-16.03l16.033,0.785l0.186,0.006
				c1.125,0,2.174-0.506,2.875-1.384c0.701-0.882,0.963-2.016,0.715-3.119l-3.564-15.65l15.926-2.006
				c1.152-0.142,2.148-0.805,2.732-1.811c0.578-1.004,0.656-2.198,0.205-3.271l-6.227-14.795l15.336-4.742
				c1.111-0.348,1.975-1.17,2.371-2.26c0.395-1.09,0.266-2.276-0.365-3.251l-8.705-13.497l14.287-7.331
				c1.031-0.53,1.742-1.492,1.941-2.635c0.203-1.146-0.135-2.29-0.928-3.147l-10.912-11.771l12.793-9.702
				c0.926-0.703,1.459-1.772,1.459-2.934S318.135,157.768,317.209,157.066z M315.674,160.908l-15.029,11.397l12.82,13.83
				c0.246,0.268,0.352,0.622,0.289,0.977c-0.064,0.354-0.281,0.649-0.605,0.814l-16.775,8.616l10.221,15.851
				c0.197,0.302,0.238,0.67,0.119,1.006c-0.127,0.338-0.396,0.591-0.738,0.699l-18.02,5.57l7.318,17.383
				c0.141,0.332,0.115,0.701-0.064,1.012c-0.18,0.313-0.486,0.518-0.844,0.561l-18.715,2.358l4.188,18.384
				c0.105,0.469-0.092,0.809-0.221,0.969c-0.219,0.27-0.539,0.427-0.941,0.427c0,0-0.006,0-0.008,0l-18.836-0.927l0.928,18.832
				c0.016,0.317-0.092,0.618-0.313,0.845c-0.273,0.289-0.691,0.42-1.078,0.327l-18.387-4.189l-2.357,18.713
				c-0.105,0.854-0.965,1.168-1.574,0.911l-17.381-7.314l-5.57,18.016c-0.262,0.849-1.158,0.979-1.711,0.624l-15.848-10.224
				l-8.615,16.778c-0.234,0.455-0.678,0.619-1.016,0.619c-0.203,0-0.498-0.054-0.773-0.305l-13.83-12.822l-11.396,15.027
				c-0.436,0.576-1.381,0.579-1.816,0l-11.398-15.027l-13.832,12.822c-0.271,0.251-0.568,0.305-0.77,0.305
				c-0.338,0-0.783-0.164-1.018-0.619l-8.615-16.778l-15.85,10.224c-0.555,0.355-1.447,0.222-1.711-0.623l-5.568-18.017
				l-17.381,7.314c-0.611,0.257-1.467-0.058-1.574-0.909l-2.357-18.715l-18.387,4.189c-0.396,0.09-0.807-0.038-1.082-0.327
				c-0.217-0.227-0.328-0.527-0.313-0.842l0.93-18.835l-18.898,0.927c-0.346,0-0.67-0.154-0.887-0.427
				c-0.127-0.16-0.326-0.5-0.219-0.966l4.184-18.387l-18.711-2.358c-0.357-0.043-0.666-0.248-0.846-0.561
				c-0.178-0.311-0.201-0.68-0.063-1.012l7.314-17.383l-18.018-5.57c-0.344-0.108-0.613-0.361-0.734-0.701
				c-0.123-0.334-0.08-0.702,0.115-1.002l10.221-15.853L6.85,187.927c-0.32-0.165-0.539-0.46-0.604-0.814
				c-0.063-0.357,0.043-0.711,0.289-0.977l12.818-13.83L4.326,160.907C4.039,160.69,3.875,160.36,3.875,160
				c0-0.357,0.164-0.69,0.453-0.908l15.025-11.397L6.535,133.861c-0.246-0.265-0.352-0.62-0.289-0.975
				c0.064-0.354,0.281-0.649,0.604-0.813l16.777-8.614l-10.223-15.852c-0.195-0.301-0.236-0.669-0.113-1.005
				c0.123-0.338,0.391-0.594,0.734-0.7l18.018-5.57L24.729,82.95c-0.139-0.333-0.115-0.702,0.063-1.015
				c0.18-0.311,0.488-0.516,0.846-0.56l18.711-2.356l-4.184-18.389c-0.107-0.468,0.092-0.805,0.219-0.966
				c0.217-0.272,0.539-0.428,0.943-0.428c0.002,0,0.004,0,0.004,0l18.838,0.93l-0.93-18.837c-0.014-0.314,0.096-0.613,0.311-0.84
				c0.277-0.289,0.686-0.417,1.084-0.327l18.387,4.185l2.357-18.712c0.107-0.848,0.971-1.157,1.572-0.908l17.383,7.314l5.568-18.017
				c0.264-0.847,1.158-0.98,1.711-0.622l15.85,10.224l8.615-16.778c0.234-0.457,0.68-0.619,1.016-0.619
				c0.201,0,0.5,0.052,0.771,0.306l13.832,12.817l11.398-15.025c0.436-0.576,1.381-0.575,1.816,0l11.396,15.025l13.83-12.819
				c0.275-0.252,0.57-0.304,0.773-0.304c0.338,0,0.781,0.162,1.016,0.619l8.615,16.778l15.848-10.224
				c0.553-0.357,1.449-0.225,1.711,0.622l5.57,18.017l17.381-7.314c0.605-0.26,1.469,0.061,1.574,0.908l2.357,18.712l18.387-4.185
				c0.395-0.092,0.805,0.038,1.078,0.328c0.221,0.227,0.328,0.525,0.313,0.839l-0.928,18.837l18.896-0.928
				c0.348,0,0.67,0.155,0.889,0.428c0.129,0.159,0.326,0.497,0.221,0.964L275.65,79.02l18.715,2.356
				c0.357,0.044,0.664,0.249,0.844,0.56c0.18,0.313,0.205,0.682,0.064,1.015l-7.318,17.382l18.02,5.57
				c0.342,0.106,0.611,0.362,0.738,0.7c0.119,0.336,0.078,0.705-0.113,1.008l-10.227,15.849l16.775,8.614
				c0.324,0.164,0.541,0.46,0.605,0.815c0.063,0.355-0.043,0.709-0.289,0.974l-12.82,13.832l15.029,11.397
				c0.285,0.217,0.451,0.548,0.451,0.908S315.959,160.69,315.674,160.908z"/>
			<path fill="#CA962C" d="M160.002,318.983c-1.264,0-2.424-0.576-3.186-1.582l-9.49-12.516l-11.521,10.677
				c-0.74,0.689-1.703,1.068-2.711,1.068c-1.508,0-2.871-0.832-3.559-2.174l-7.176-13.972l-13.197,8.514
				c-0.65,0.417-1.398,0.64-2.166,0.64c-1.764,0-3.301-1.132-3.824-2.818l-4.637-15.006l-14.475,6.091
				c-0.502,0.211-1.023,0.316-1.553,0.316c-2.012,0-3.715-1.504-3.965-3.501l-1.963-15.583l-15.314,3.486
				c-1.344,0.313-2.828-0.139-3.785-1.144c-0.76-0.797-1.148-1.847-1.096-2.951l0.775-15.682l-15.875,0.772l0,0
				c-1.238,0-2.375-0.549-3.135-1.505c-0.764-0.951-1.045-2.185-0.773-3.381l3.486-15.313l-15.584-1.962
				c-1.25-0.154-2.33-0.87-2.961-1.966c-0.631-1.094-0.713-2.388-0.221-3.552l6.09-14.472l-15.006-4.642
				c-1.207-0.376-2.148-1.27-2.578-2.454c-0.43-1.184-0.283-2.468,0.4-3.526l8.514-13.206L5.545,190.47
				c-1.123-0.573-1.893-1.617-2.111-2.86c-0.219-1.24,0.146-2.485,1.004-3.416l10.678-11.516l-12.518-9.493
				c-1.004-0.763-1.58-1.923-1.58-3.184c0-1.263,0.576-2.424,1.58-3.186l12.518-9.493l-10.678-11.52
				c-0.857-0.925-1.223-2.169-1.004-3.41c0.217-1.241,0.986-2.284,2.111-2.863l13.973-7.172l-8.514-13.199
				c-0.686-1.061-0.83-2.348-0.398-3.532c0.432-1.187,1.369-2.081,2.578-2.453l15.004-4.638l-6.09-14.477
				c-0.49-1.166-0.41-2.46,0.221-3.552c0.629-1.092,1.711-1.809,2.961-1.965l15.584-1.963l-3.486-15.313
				c-0.271-1.194,0.012-2.427,0.773-3.382c0.762-0.957,1.9-1.506,3.121-1.506l0.193,0.005l15.695,0.775l-0.775-15.687
				c-0.053-1.104,0.336-2.152,1.096-2.95c0.951-0.999,2.441-1.445,3.785-1.145l15.314,3.485l1.963-15.584
				c0.25-1.994,1.953-3.498,3.965-3.498c0.531,0,1.055,0.105,1.549,0.313l14.479,6.09l4.637-15.003
				c0.523-1.686,2.059-2.817,3.824-2.817c0.768,0,1.516,0.222,2.166,0.64l13.197,8.513l7.176-13.972
				c0.684-1.34,2.047-2.173,3.557-2.173c1.008,0,1.973,0.379,2.713,1.066l11.521,10.675l9.49-12.513
				c0.764-1.005,1.924-1.583,3.186-1.583c1.26,0,2.422,0.578,3.186,1.583l9.49,12.513l11.52-10.675
				c0.74-0.688,1.705-1.066,2.713-1.066c1.51,0,2.873,0.833,3.561,2.173l7.17,13.972l13.203-8.513
				c0.646-0.418,1.395-0.64,2.162-0.64c1.764,0,3.299,1.132,3.82,2.817l4.643,15.005l14.471-6.092
				c0.498-0.208,1.02-0.313,1.553-0.313c2.008,0,3.715,1.504,3.967,3.497l1.963,15.585l15.313-3.485
				c1.348-0.303,2.832,0.146,3.783,1.145c0.758,0.793,1.148,1.841,1.098,2.948l-0.773,15.688l15.873-0.777l0,0
				c1.238,0,2.375,0.549,3.135,1.503c0.764,0.955,1.043,2.188,0.775,3.38l-3.488,15.315l15.582,1.963
				c1.25,0.156,2.332,0.873,2.965,1.964c0.631,1.098,0.713,2.392,0.223,3.552l-6.09,14.478l15.004,4.638
				c1.201,0.372,2.141,1.264,2.572,2.449c0.43,1.188,0.289,2.477-0.395,3.536l-8.518,13.199l13.977,7.174
				c1.125,0.578,1.895,1.62,2.109,2.861c0.221,1.243-0.146,2.487-1.006,3.412l-10.678,11.518l12.516,9.493
				c1.008,0.763,1.584,1.923,1.584,3.185c0,1.26-0.576,2.421-1.584,3.185l-12.516,9.493l10.678,11.516
				c0.859,0.928,1.227,2.173,1.006,3.416c-0.215,1.24-0.984,2.284-2.109,2.86l-13.977,7.172l8.518,13.206
				c0.684,1.056,0.828,2.341,0.395,3.529c-0.428,1.182-1.365,2.075-2.572,2.451l-15.004,4.642l6.09,14.472
				c0.49,1.161,0.408,2.457-0.223,3.552c-0.633,1.096-1.715,1.812-2.965,1.966l-15.582,1.962l3.488,15.313
				c0.268,1.194-0.012,2.427-0.775,3.384c-0.764,0.955-1.9,1.502-3.121,1.502l-0.193-0.005l-15.693-0.768l0.773,15.682
				c0.049,1.107-0.34,2.155-1.098,2.951c-0.955,1.002-2.451,1.441-3.783,1.144l-15.313-3.486l-1.963,15.583
				c-0.252,1.997-1.959,3.501-3.967,3.501c-0.531,0-1.053-0.105-1.549-0.316l-14.475-6.091l-4.643,15.006
				c-0.521,1.687-2.057,2.818-3.82,2.818c-0.768,0-1.516-0.223-2.162-0.64l-13.203-8.514l-7.17,13.972
				c-0.688,1.342-2.051,2.174-3.561,2.174c-1.008,0-1.973-0.379-2.717-1.068l-11.516-10.677l-9.49,12.516
				C162.422,318.407,161.26,318.983,160.002,318.983z M147.406,303.951l9.912,13.07c0.643,0.848,1.619,1.332,2.684,1.332
				c1.059,0,2.039-0.484,2.684-1.335l9.908-13.067l12.029,11.149c0.623,0.58,1.439,0.899,2.287,0.899
				c1.271,0,2.42-0.701,2.998-1.828l7.492-14.593l13.783,8.889c0.549,0.354,1.178,0.541,1.822,0.541
				c1.484,0,2.777-0.956,3.221-2.375l4.842-15.671l15.119,6.362c0.418,0.177,0.857,0.266,1.305,0.266
				c1.691,0,3.129-1.268,3.342-2.948l2.051-16.273l15.988,3.641c1.139,0.256,2.387-0.121,3.188-0.962
				c0.639-0.672,0.969-1.556,0.924-2.489l-0.807-16.376l16.559,0.807c1.021,0,1.979-0.461,2.621-1.265
				c0.643-0.805,0.879-1.847,0.652-2.853l-3.641-15.988l0.346-0.044l15.926-2.005c1.053-0.131,1.965-0.733,2.498-1.657
				c0.531-0.923,0.6-2.014,0.188-2.99l-6.361-15.116l0.33-0.102l15.338-4.742c1.018-0.317,1.807-1.07,2.168-2.067
				c0.363-0.999,0.242-2.082-0.33-2.973l-8.895-13.788l14.596-7.491c0.945-0.485,1.594-1.364,1.773-2.407
				c0.186-1.049-0.125-2.097-0.848-2.88l-11.148-12.027l0.277-0.209l12.793-9.701c0.846-0.645,1.334-1.623,1.334-2.684
				c0-1.062-0.488-2.04-1.334-2.683l-13.07-9.914l11.148-12.027c0.723-0.779,1.033-1.827,0.848-2.876
				c-0.18-1.044-0.828-1.922-1.775-2.407l-14.594-7.491l0.186-0.293l8.705-13.492c0.576-0.892,0.697-1.978,0.334-2.979
				c-0.365-0.996-1.152-1.748-2.168-2.061l-15.668-4.845l6.361-15.119c0.412-0.978,0.344-2.067-0.188-2.992
				c-0.531-0.919-1.445-1.521-2.498-1.653l-16.271-2.049l0.076-0.34l3.564-15.654c0.229-1.004-0.01-2.043-0.652-2.847
				c-0.643-0.806-1.6-1.268-2.629-1.268l-16.551,0.813l0.807-16.385c0.045-0.932-0.285-1.813-0.924-2.483
				c-0.799-0.839-2.049-1.225-3.188-0.964l-15.988,3.64l-0.043-0.345l-2.008-15.93c-0.213-1.68-1.65-2.946-3.342-2.946
				c-0.451,0-0.889,0.089-1.309,0.265l-15.115,6.362l-0.1-0.332l-4.742-15.337c-0.443-1.42-1.736-2.375-3.221-2.375
				c-0.646,0-1.277,0.186-1.822,0.539l-13.783,8.89l-0.16-0.31l-7.332-14.28c-0.578-1.13-1.727-1.831-2.998-1.831
				c-0.852,0-1.66,0.319-2.285,0.899l-12.031,11.148L162.686,2.98c-0.645-0.848-1.621-1.333-2.684-1.333s-2.041,0.485-2.684,1.333
				l-9.912,13.068L135.377,4.9c-0.625-0.58-1.436-0.899-2.285-0.899c-1.271,0-2.42,0.701-2.996,1.83l-7.492,14.591l-13.785-8.89
				c-0.545-0.354-1.176-0.539-1.822-0.539c-1.486,0-2.781,0.953-3.221,2.375l-4.844,15.668l-15.117-6.361
				c-0.418-0.176-0.859-0.265-1.307-0.265c-1.693,0-3.131,1.268-3.34,2.947l-2.049,16.273l-0.34-0.076l-15.654-3.563
				c-1.133-0.258-2.389,0.123-3.189,0.964c-0.639,0.672-0.967,1.556-0.92,2.485l0.809,16.383l-16.561-0.815
				c-1.021,0-1.979,0.463-2.621,1.27c-0.643,0.804-0.879,1.842-0.65,2.849l3.639,15.992l-16.271,2.049
				c-1.055,0.132-1.963,0.734-2.494,1.655c-0.531,0.919-0.602,2.011-0.188,2.992l6.361,15.117l-15.67,4.845
				c-1.018,0.313-1.809,1.065-2.172,2.064c-0.361,0.998-0.24,2.082,0.336,2.976l8.891,13.785l-14.592,7.489
				c-0.947,0.486-1.594,1.365-1.777,2.409c-0.186,1.048,0.125,2.095,0.846,2.875l11.15,12.028l-13.07,9.914
				c-0.848,0.643-1.334,1.619-1.334,2.684c0.002,1.061,0.488,2.039,1.334,2.683l13.07,9.91L4.9,184.621
				c-0.721,0.783-1.031,1.834-0.846,2.88c0.184,1.046,0.832,1.925,1.777,2.407l14.592,7.491l-0.189,0.291l-8.701,13.497
				c-0.576,0.894-0.697,1.977-0.336,2.971c0.361,0.997,1.154,1.752,2.172,2.069l15.67,4.844l-6.361,15.116
				c-0.414,0.979-0.346,2.07,0.188,2.99c0.531,0.924,1.439,1.526,2.492,1.657l16.273,2.049l-3.639,15.988
				c-0.229,1.009,0.008,2.048,0.65,2.85c0.641,0.806,1.6,1.268,2.627,1.268l16.555-0.807l-0.809,16.376
				c-0.047,0.934,0.281,1.814,0.92,2.489c0.805,0.843,2.051,1.223,3.189,0.962l15.994-3.641l2.049,16.273
				c0.209,1.681,1.646,2.948,3.34,2.948c0.445,0,0.885-0.089,1.309-0.266l15.115-6.362l4.844,15.671
				c0.439,1.419,1.734,2.375,3.221,2.375c0.646,0,1.275-0.188,1.822-0.541l13.785-8.889l7.492,14.593
				c0.578,1.127,1.729,1.828,2.998,1.828c0.848,0,1.658-0.319,2.283-0.899L147.406,303.951z M160,316.422
				c-0.469,0-0.891-0.204-1.158-0.56l-11.188-14.75l-13.576,12.587c-0.348,0.322-0.729,0.39-0.984,0.39
				c-0.43,0-0.998-0.208-1.299-0.793l-8.455-16.467l-15.559,10.035c-0.234,0.15-0.523,0.234-0.811,0.234
				c-0.646,0-1.174-0.394-1.371-1.028l-5.465-17.686l-17.063,7.178c-0.176,0.074-0.365,0.114-0.564,0.114
				c-0.617,0-1.334-0.399-1.443-1.273l-2.314-18.37l-18.047,4.113c-0.492,0.112-1.033-0.052-1.381-0.419
				c-0.275-0.288-0.418-0.672-0.398-1.073l0.912-18.488l-18.549,0.911c-0.002,0-0.002,0-0.002,0c-0.461,0-0.873-0.198-1.15-0.546
				c-0.16-0.205-0.416-0.635-0.277-1.233l4.107-18.047l-18.367-2.314c-0.455-0.057-0.85-0.317-1.078-0.716
				c-0.229-0.396-0.258-0.866-0.08-1.29l7.178-17.063l-17.686-5.468c-0.441-0.139-0.781-0.466-0.938-0.896
				c-0.156-0.425-0.104-0.893,0.148-1.279l10.033-15.56l-16.471-8.456c-0.408-0.21-0.688-0.589-0.77-1.039
				c-0.078-0.458,0.055-0.91,0.369-1.248l12.58-13.573l-14.75-11.189c-0.365-0.277-0.576-0.699-0.576-1.158s0.211-0.881,0.578-1.159
				l14.748-11.188l-12.58-13.578c-0.314-0.335-0.447-0.788-0.369-1.242c0.082-0.455,0.363-0.832,0.771-1.04l16.469-8.456
				l-10.035-15.558c-0.25-0.385-0.303-0.854-0.145-1.284c0.156-0.433,0.498-0.759,0.938-0.895l17.684-5.467l-7.178-17.062
				c-0.178-0.423-0.148-0.894,0.08-1.293c0.229-0.398,0.623-0.659,1.08-0.716l18.365-2.313l-4.107-18.049
				c-0.137-0.595,0.117-1.028,0.279-1.231c0.285-0.358,0.695-0.547,1.189-0.547l18.51,0.912l-0.912-18.488
				c-0.018-0.404,0.123-0.785,0.396-1.073c0.355-0.369,0.889-0.524,1.383-0.417l18.047,4.107l2.314-18.368
				c0.145-1.142,1.281-1.461,2.006-1.16l17.064,7.181l5.465-17.685c0.197-0.635,0.723-1.029,1.371-1.029
				c0.287,0,0.576,0.084,0.813,0.236l15.557,10.035l8.455-16.469c0.299-0.583,0.867-0.791,1.297-0.791
				c0.26,0,0.643,0.068,0.988,0.391l13.574,12.58l11.188-14.748c0.525-0.695,1.789-0.698,2.318,0l11.188,14.748l13.574-12.583
				c0.277-0.253,0.621-0.388,0.988-0.388c0.43,0,0.996,0.207,1.297,0.789l8.455,16.471l15.557-10.035
				c0.234-0.152,0.523-0.235,0.813-0.235c0.65,0,1.174,0.394,1.369,1.029l5.469,17.684l17.057-7.18
				c0.721-0.306,1.869,0.01,2.012,1.159l2.313,18.368l18.051-4.107c0.482-0.116,1.027,0.051,1.377,0.419
				c0.275,0.283,0.416,0.665,0.396,1.07l-0.91,18.489l18.551-0.911l0,0c0.457,0,0.871,0.2,1.148,0.546
				c0.131,0.163,0.42,0.608,0.283,1.229l-4.111,18.052l18.369,2.313c0.455,0.057,0.85,0.317,1.078,0.715
				c0.229,0.4,0.258,0.873,0.082,1.295l-7.184,17.061l17.686,5.467c0.439,0.138,0.781,0.462,0.941,0.893
				c0.152,0.436,0.1,0.901-0.143,1.286l-10.039,15.558l16.465,8.456c0.408,0.205,0.691,0.584,0.773,1.038
				c0.078,0.454-0.055,0.907-0.367,1.244l-12.584,13.578l14.75,11.188c0.367,0.276,0.576,0.7,0.576,1.159
				c0,0.457-0.209,0.88-0.574,1.159l-14.752,11.188l12.584,13.573c0.313,0.345,0.445,0.797,0.367,1.245
				c-0.082,0.456-0.365,0.835-0.773,1.042l-16.465,8.456l10.035,15.56c0.246,0.379,0.301,0.847,0.148,1.279
				c-0.162,0.434-0.504,0.758-0.939,0.896l-17.689,5.468l7.184,17.062c0.18,0.424,0.146,0.894-0.082,1.292s-0.623,0.659-1.078,0.716
				l-18.369,2.314l4.111,18.047c0.133,0.602-0.119,1.028-0.283,1.233c-0.291,0.357-0.701,0.546-1.188,0.546l-18.512-0.911
				l0.91,18.486c0.02,0.408-0.121,0.79-0.4,1.078c-0.346,0.368-0.893,0.54-1.379,0.413l-18.045-4.11l-2.313,18.367
				c-0.143,1.161-1.281,1.469-2.012,1.162l-17.057-7.178l-5.469,17.683c-0.195,0.635-0.719,1.031-1.373,1.031
				c-0.285,0-0.572-0.084-0.809-0.234l-15.557-10.035l-8.455,16.467c-0.301,0.585-0.867,0.793-1.297,0.793
				c-0.256,0-0.633-0.067-0.986-0.387l-13.576-12.59l-11.188,14.75C160.896,316.212,160.463,316.422,160,316.422z M147.736,300.178
				l11.607,15.307c0.291,0.384,1.018,0.384,1.314,0l11.605-15.307l0.256,0.236l13.83,12.823c0.16,0.147,0.35,0.221,0.561,0.221
				c0.244,0,0.564-0.118,0.736-0.45l8.775-17.085l16.137,10.41c0.135,0.086,0.303,0.135,0.469,0.135c0.18,0,0.609-0.056,0.771-0.588
				l5.67-18.349l17.703,7.451c0.406,0.18,1.059-0.003,1.141-0.659l2.4-19.058l18.727,4.266c0.295,0.066,0.58-0.027,0.779-0.236
				c0.158-0.163,0.238-0.379,0.227-0.612l-0.945-19.18l19.182,0.944c0.289,0,0.525-0.105,0.689-0.313
				c0.094-0.112,0.236-0.355,0.16-0.698l-4.264-18.722l0.344-0.045l18.715-2.356c0.258-0.032,0.479-0.18,0.609-0.406
				c0.131-0.228,0.148-0.493,0.047-0.732l-7.453-17.705l0.334-0.101l18.018-5.569c0.248-0.079,0.445-0.267,0.535-0.51
				c0.086-0.241,0.055-0.507-0.086-0.724l-10.41-16.143l17.086-8.776c0.236-0.12,0.391-0.33,0.439-0.591
				c0.043-0.253-0.033-0.512-0.213-0.709l-13.055-14.083l0.277-0.209l15.029-11.397c0.207-0.157,0.324-0.397,0.324-0.657
				c0-0.261-0.117-0.5-0.324-0.657l-15.307-11.608l13.057-14.086c0.178-0.191,0.254-0.45,0.211-0.707
				c-0.049-0.259-0.203-0.469-0.439-0.586l-17.086-8.774l0.188-0.293l10.227-15.849c0.137-0.217,0.168-0.484,0.082-0.731
				c-0.09-0.242-0.285-0.428-0.535-0.504l-18.352-5.674l7.453-17.702c0.102-0.24,0.084-0.509-0.047-0.734s-0.352-0.373-0.609-0.405
				l-19.059-2.399l0.074-0.34l4.189-18.389c0.076-0.34-0.066-0.582-0.16-0.695c-0.156-0.198-0.391-0.311-0.643-0.311L259.5,60.499
				l0.945-19.185c0.012-0.229-0.068-0.442-0.223-0.604c-0.203-0.214-0.512-0.304-0.781-0.239l-18.729,4.262l-0.043-0.346
				l-2.357-18.711c-0.08-0.648-0.73-0.834-1.141-0.659l-17.703,7.451l-0.1-0.332l-5.57-18.018c-0.113-0.367-0.4-0.585-0.768-0.585
				c-0.168,0-0.336,0.048-0.471,0.136l-16.139,10.41l-0.16-0.31l-8.615-16.776c-0.17-0.33-0.492-0.448-0.736-0.448
				c-0.211,0-0.4,0.075-0.563,0.221l-14.084,13.054L160.658,4.518c-0.291-0.384-1.023-0.385-1.314-0.001l-11.607,15.303
				L133.65,6.766c-0.158-0.147-0.346-0.221-0.559-0.221c-0.244,0-0.566,0.118-0.736,0.448l-8.773,17.086l-16.143-10.41
				c-0.135-0.09-0.303-0.138-0.469-0.138c-0.367,0-0.656,0.22-0.77,0.587l-5.672,18.35l-17.701-7.45
				c-0.406-0.168-1.057,0.015-1.139,0.658l-2.4,19.057l-0.34-0.077l-18.387-4.184c-0.281-0.068-0.586,0.027-0.785,0.236
				c-0.154,0.162-0.234,0.379-0.223,0.607l0.947,19.184l-19.188-0.946c-0.287,0-0.521,0.104-0.686,0.308
				c-0.111,0.143-0.23,0.379-0.156,0.7l4.26,18.729l-19.057,2.399c-0.258,0.032-0.48,0.18-0.611,0.405
				c-0.129,0.226-0.146,0.494-0.045,0.734l7.449,17.702l-18.35,5.674c-0.248,0.076-0.443,0.261-0.531,0.506
				c-0.09,0.245-0.061,0.509,0.08,0.728l10.412,16.144l-17.088,8.772c-0.23,0.119-0.391,0.332-0.436,0.59
				c-0.045,0.255,0.031,0.512,0.209,0.704l13.055,14.087L4.518,159.343C4.309,159.5,4.189,159.74,4.189,160s0.119,0.498,0.326,0.655
				l15.305,11.608L6.768,186.35c-0.18,0.192-0.256,0.45-0.211,0.709c0.045,0.253,0.205,0.47,0.436,0.588l17.088,8.776l-0.188,0.29
				L13.67,212.565c-0.141,0.22-0.172,0.482-0.084,0.724c0.088,0.246,0.283,0.431,0.533,0.51l18.35,5.67l-7.449,17.705
				c-0.102,0.239-0.084,0.508,0.045,0.732c0.131,0.227,0.354,0.374,0.611,0.406l19.057,2.401l-4.26,18.725
				c-0.08,0.34,0.064,0.583,0.156,0.698c0.156,0.198,0.391,0.311,0.641,0.311l19.232-0.944l-0.947,19.181
				c-0.012,0.229,0.068,0.447,0.223,0.611c0.199,0.209,0.504,0.303,0.785,0.236l18.727-4.266l2.4,19.06
				c0.082,0.651,0.729,0.837,1.139,0.657l17.701-7.451l5.672,18.351c0.164,0.527,0.594,0.586,0.77,0.586
				c0.17,0,0.336-0.049,0.471-0.135l16.141-10.41l8.773,17.088c0.17,0.329,0.494,0.447,0.738,0.447c0.145,0,0.357-0.039,0.557-0.221
				L147.736,300.178z"/>
		</g>
		<path fill="#CA962C" d="M160.002,76.901c-45.822,0-83.102,37.278-83.102,83.1c0,45.82,37.279,83.101,83.102,83.101
			c45.82,0,83.1-37.28,83.1-83.101C243.102,114.18,205.822,76.901,160.002,76.901z M160.002,238.939
			c-43.527,0-78.939-35.411-78.939-78.938c0-43.525,35.412-78.937,78.939-78.937c43.521,0,78.936,35.411,78.936,78.937
			C238.938,203.528,203.523,238.939,160.002,238.939z"/>
	</g>
	<path fill="#CA962C" d="M160.002,290.84C87.855,290.84,29.16,232.147,29.16,160c0-72.146,58.695-130.84,130.842-130.84
		c72.145,0,130.838,58.694,130.838,130.84C290.84,232.147,232.146,290.84,160.002,290.84z M160.002,32.94
		C89.939,32.94,32.941,89.939,32.941,160c0,70.063,56.998,127.06,127.061,127.06c70.061,0,127.059-56.997,127.059-127.06
		C287.061,89.939,230.063,32.94,160.002,32.94z"/>
	<path fill="#CA962C" d="M104.449,251.582c0,1.779,1.443,3.221,3.223,3.221s3.223-1.441,3.223-3.221
		c0-1.782-1.443-3.224-3.223-3.224S104.449,249.8,104.449,251.582z"/>
	<path fill="#CA962C" d="M209.307,252.34c0,1.779,1.447,3.222,3.225,3.222c1.781,0,3.225-1.442,3.225-3.222
		c0-1.782-1.443-3.225-3.225-3.225C210.754,249.115,209.307,250.558,209.307,252.34z"/>
	<g>
		<path fill="#CA962C" d="M93.02,232.147c0.09-0.211,0.072-0.424-0.053-0.642c-0.123-0.217-0.375-0.502-0.76-0.854
			c-0.033-0.031-0.02-0.08,0.043-0.148c0.061-0.067,0.109-0.086,0.143-0.055c0.363,0.332,0.645,0.602,0.85,0.811l1.238,1.167
			l1.234,1.104c0.227,0.185,0.525,0.448,0.896,0.791c0.035,0.031,0.021,0.08-0.041,0.148c-0.063,0.067-0.111,0.086-0.145,0.055
			c-0.385-0.353-0.689-0.581-0.916-0.686c-0.227-0.104-0.449-0.104-0.668-0.004c-0.219,0.102-0.482,0.322-0.793,0.66l-7.203,7.846
			c-0.311,0.338-0.504,0.617-0.582,0.839c-0.078,0.22-0.057,0.441,0.061,0.665c0.119,0.223,0.371,0.51,0.754,0.862
			c0.033,0.032,0.02,0.081-0.043,0.148c-0.063,0.068-0.109,0.087-0.145,0.056l-0.865-0.826c-0.475-0.479-0.873-0.863-1.189-1.153
			c-0.35-0.322-0.781-0.7-1.301-1.134l-0.863-0.76c-0.033-0.031-0.02-0.081,0.043-0.148c0.063-0.068,0.111-0.086,0.145-0.055
			c0.373,0.342,0.678,0.56,0.914,0.652c0.238,0.093,0.463,0.086,0.676-0.021s0.475-0.329,0.785-0.668l7.17-7.812
			C92.727,232.637,92.932,232.356,93.02,232.147z"/>
		<path fill="#CA962C" d="M69.795,226.419c0.07-0.059,0.115-0.077,0.135-0.053c0.396,0.468,0.871,0.689,1.422,0.666
			c0.551-0.025,1.137-0.299,1.758-0.824l9.082-7.675c0.037-0.029,0.084-0.02,0.146,0.029c0.061,0.049,0.09,0.095,0.086,0.138
			l-2.613,16.33l7.15-6.043c0.621-0.523,0.992-1.048,1.111-1.57c0.121-0.523-0.018-1.019-0.414-1.488
			c-0.02-0.021,0.006-0.064,0.076-0.124s0.115-0.076,0.135-0.054c0.268,0.317,0.465,0.563,0.592,0.735l0.77,0.946l0.893,1.021
			c0.17,0.178,0.404,0.441,0.701,0.794c0.029,0.034,0.008,0.081-0.063,0.141c-0.068,0.06-0.119,0.071-0.148,0.037
			c-0.426-0.504-0.918-0.755-1.479-0.753c-0.563,0.002-1.152,0.266-1.773,0.79l-7.693,6.502c-0.074,0.624-0.072,1.128,0.012,1.51
			c0.082,0.382,0.24,0.714,0.479,0.996c0.02,0.023-0.006,0.064-0.076,0.124s-0.115,0.076-0.135,0.054l-0.576-0.718
			c-0.117-0.162-0.295-0.384-0.531-0.665l-0.969-1.109c-0.131-0.13-0.279-0.296-0.447-0.494c-0.08-0.095-0.115-0.185-0.107-0.271
			c0.006-0.086,0.041-0.236,0.102-0.448l0.207-0.897l2.105-12.618l-6.221,5.255c-0.619,0.524-0.994,1.051-1.119,1.579
			c-0.127,0.528,0.004,1.021,0.391,1.477c0.02,0.024-0.006,0.065-0.076,0.124c-0.07,0.061-0.115,0.078-0.135,0.055l-0.592-0.735
			c-0.293-0.396-0.543-0.715-0.752-0.961c-0.197-0.233-0.477-0.54-0.836-0.919l-0.672-0.758
			C69.699,226.521,69.725,226.479,69.795,226.419z"/>
		<path fill="#CA962C" d="M68.07,221.489c0.805,0.223,1.789,0.172,2.953-0.153c0.027-0.017,0.063,0.013,0.105,0.085
			c0.043,0.071,0.045,0.119,0.006,0.144c-0.543,0.256-1.24,0.594-2.088,1.015c-0.848,0.42-1.475,0.753-1.883,0.998
			c-0.064,0.039-0.119,0.023-0.162-0.05c-0.045-0.071-0.033-0.127,0.033-0.167c0.289-0.174,0.211-0.629-0.23-1.364
			c-0.641-1.153-1.416-2.486-2.324-3.997c-0.467-0.774-0.975-1.588-1.521-2.439l-0.826-1.328c-0.301-0.5-0.553-0.844-0.758-1.035
			c-0.203-0.189-0.424-0.259-0.66-0.206c-0.061,0.02-0.111-0.005-0.15-0.07c-0.039-0.066-0.033-0.114,0.02-0.146
			c0.432-0.205,1.072-0.538,1.924-0.997c0.852-0.458,1.533-0.842,2.045-1.149c0.041-0.024,0.082,0,0.125,0.073
			c0.043,0.072,0.049,0.127,0.018,0.163c-0.932,0.74-1.492,1.497-1.68,2.272c-0.188,0.774-0.031,1.576,0.467,2.403
			c0.221,0.368,0.418,0.621,0.59,0.759c0.174,0.138,0.359,0.187,0.559,0.146c0.201-0.039,0.479-0.166,0.832-0.379l9.086-5.467
			c0.406-0.246,0.68-0.463,0.816-0.652c0.135-0.189,0.166-0.423,0.088-0.697c-0.076-0.277-0.268-0.671-0.576-1.184
			c-0.023-0.04,0.004-0.083,0.082-0.131c0.078-0.047,0.131-0.051,0.154-0.012c0.277,0.461,0.488,0.825,0.633,1.097l0.951,1.627
			l0.945,1.526c0.18,0.267,0.416,0.645,0.709,1.131c0.016,0.026-0.018,0.063-0.096,0.109c-0.078,0.048-0.125,0.059-0.143,0.032
			c-0.309-0.513-0.568-0.87-0.779-1.073c-0.211-0.204-0.439-0.291-0.682-0.262c-0.24,0.028-0.559,0.162-0.953,0.399l-9.125,5.491
			c-0.342,0.205-0.572,0.388-0.689,0.549c-0.119,0.16-0.158,0.346-0.121,0.557c0.037,0.209,0.162,0.492,0.375,0.848
			C66.621,220.755,67.266,221.267,68.07,221.489z"/>
		<path fill="#CA962C" d="M65.195,195.225c-0.018-0.043-0.023-0.085-0.018-0.13c0.006-0.044,0.016-0.069,0.029-0.075
			c1.133-0.315,2.145-0.663,3.033-1.042c0.113-0.049,0.203-0.062,0.27-0.04c0.068,0.021,0.127,0.096,0.182,0.222l3.914,9.184
			c0.018,0.042-0.016,0.082-0.1,0.118c-0.084,0.035-0.137,0.032-0.154-0.01c-0.205-0.479-0.389-0.813-0.553-1.003
			c-0.164-0.188-0.363-0.277-0.602-0.269c-0.238,0.01-0.568,0.105-0.99,0.285l-9.797,4.176c-0.424,0.18-0.717,0.351-0.883,0.512
			c-0.164,0.163-0.236,0.372-0.217,0.632c0.018,0.259,0.125,0.62,0.324,1.085c0.018,0.043-0.016,0.083-0.1,0.118
			c-0.084,0.036-0.137,0.033-0.154-0.009l-3.752-8.802c-0.059-0.142-0.025-0.239,0.102-0.293l2.732-1.215
			c0.027-0.012,0.066,0.018,0.113,0.09c0.047,0.071,0.053,0.123,0.016,0.154c-1.463,1.025-1.85,2.348-1.158,3.971l0.361,0.845
			c0.215,0.508,0.461,0.829,0.734,0.962c0.273,0.134,0.629,0.107,1.066-0.079l4.316-1.839l-0.865-2.031
			c-0.662-1.551-1.516-2.104-2.559-1.66c-0.043,0.019-0.08-0.012-0.113-0.09c-0.033-0.077-0.027-0.125,0.014-0.143l1.85-0.764
			l0.986-0.444c0.439-0.221,0.799-0.393,1.082-0.512c0.027-0.013,0.061,0.024,0.096,0.108c0.037,0.085,0.041,0.133,0.012,0.146
			c-1.213,0.517-1.482,1.565-0.809,3.146l0.857,2.009l4.803-2.046c0.465-0.199,0.752-0.426,0.859-0.68
			c0.109-0.254,0.066-0.607-0.127-1.059l-0.441-1.037c-0.805-1.89-2.232-2.697-4.283-2.425
			C65.246,195.304,65.219,195.28,65.195,195.225z"/>
		<path fill="#CA962C" d="M63.666,177.071c0.088-0.023,0.139-0.013,0.15,0.033l0.945,3.578c0.09,0.343-0.334,1.133-1.275,2.371
			c-0.941,1.24-2.305,2.803-4.094,4.686c0.117,0.318,0.199,0.566,0.246,0.744c0.086,0.326,0.174,0.715,0.26,1.168l4.959-1.31
			c0.461-0.12,0.783-0.249,0.969-0.387c0.186-0.136,0.285-0.328,0.299-0.578s-0.045-0.626-0.18-1.131
			c-0.008-0.028,0.033-0.056,0.123-0.079c0.088-0.023,0.137-0.02,0.145,0.01c0.129,0.488,0.223,0.869,0.277,1.14l0.412,1.651
			l0.445,1.596c0.09,0.277,0.199,0.661,0.328,1.15c0.012,0.044-0.027,0.078-0.117,0.102c-0.088,0.023-0.139,0.013-0.15-0.031
			c-0.133-0.504-0.268-0.861-0.402-1.072c-0.135-0.209-0.32-0.331-0.559-0.363s-0.58,0.011-1.025,0.128l-10.297,2.72
			c-0.443,0.117-0.76,0.244-0.945,0.381c-0.186,0.135-0.289,0.334-0.307,0.592c-0.02,0.259,0.035,0.633,0.164,1.122
			c0.008,0.029-0.033,0.057-0.121,0.08c-0.09,0.023-0.137,0.021-0.145-0.01l-0.283-1.162c-0.143-0.659-0.268-1.19-0.373-1.591
			c-0.129-0.488-0.293-1.017-0.49-1.583c-0.064-0.188-0.141-0.418-0.229-0.688s-0.176-0.576-0.266-0.918
			c-0.342-1.289-0.354-2.353-0.035-3.19c0.318-0.837,0.93-1.375,1.834-1.614c0.816-0.215,1.609-0.183,2.381,0.097
			c0.771,0.28,1.451,0.747,2.035,1.401c1.473-1.688,2.605-3.074,3.398-4.156s1.332-1.996,1.619-2.747
			c0.285-0.749,0.348-1.427,0.188-2.035C63.539,177.129,63.578,177.095,63.666,177.071z M59.047,188.497
			c-0.254-0.964-0.678-1.589-1.27-1.877c-0.59-0.288-1.42-0.291-2.488-0.01c-1.199,0.317-1.984,0.742-2.35,1.275
			c-0.367,0.533-0.449,1.186-0.246,1.956c0.152,0.578,0.369,0.961,0.648,1.149c0.279,0.188,0.701,0.207,1.266,0.059l4.691-1.239
			C59.264,189.438,59.18,189.001,59.047,188.497z"/>
		<path fill="#CA962C" d="M48.141,162.161c0.092-0.008,0.139,0.003,0.141,0.032c0.057,0.611,0.318,1.064,0.785,1.36
			c0.465,0.296,1.104,0.407,1.912,0.333l11.84-1.089c0.047-0.005,0.08,0.031,0.104,0.105c0.021,0.076,0.02,0.13-0.008,0.163
			l-11.496,11.89l9.322-0.857c0.809-0.074,1.412-0.291,1.811-0.651s0.568-0.845,0.514-1.456c-0.004-0.031,0.041-0.05,0.133-0.059
			s0.139,0.002,0.141,0.033c0.039,0.412,0.061,0.726,0.064,0.94l0.088,1.217l0.148,1.349c0.037,0.243,0.076,0.594,0.119,1.052
			c0.004,0.046-0.039,0.072-0.131,0.081c-0.092,0.008-0.141-0.01-0.145-0.056c-0.061-0.656-0.32-1.145-0.781-1.464
			c-0.461-0.32-1.096-0.442-1.904-0.369l-10.031,0.924c-0.418,0.469-0.705,0.884-0.855,1.244c-0.152,0.361-0.211,0.725-0.178,1.09
			c0.004,0.031-0.041,0.051-0.133,0.059c-0.092,0.009-0.139-0.002-0.143-0.033l-0.061-0.918c-0.002-0.199-0.021-0.482-0.055-0.849
			l-0.158-1.465c-0.031-0.182-0.061-0.401-0.084-0.661c-0.012-0.123,0.012-0.217,0.066-0.283c0.057-0.067,0.17-0.17,0.342-0.309
			l0.682-0.617l8.953-9.139l-8.107,0.745c-0.809,0.075-1.416,0.293-1.822,0.653s-0.582,0.838-0.527,1.435
			c0.004,0.03-0.041,0.05-0.133,0.059c-0.092,0.007-0.139-0.003-0.141-0.033l-0.064-0.941c-0.014-0.491-0.037-0.897-0.066-1.218
			c-0.027-0.306-0.08-0.717-0.158-1.233l-0.115-1.006C48.004,162.188,48.049,162.169,48.141,162.161z"/>
		<path fill="#CA962C" d="M63.453,144.17c0.092,0.007,0.135,0.049,0.129,0.125c-0.021,0.29-0.074,0.755-0.154,1.396
			c-0.08,0.64-0.133,1.105-0.156,1.396c-0.029,0.382-0.049,0.834-0.059,1.356s-0.025,0.928-0.049,1.219
			c-0.006,0.061-0.053,0.088-0.145,0.08c-0.092-0.007-0.137-0.041-0.131-0.102c0.035-0.443,0.01-0.771-0.072-0.986
			c-0.084-0.214-0.24-0.33-0.469-0.348c-0.23-0.019-0.629,0.081-1.201,0.298l-3.666,1.468l-0.434,5.549l2.391,1.293
			c0.443,0.235,0.848,0.367,1.215,0.396c0.535,0.041,0.955-0.119,1.26-0.479s0.484-0.886,0.539-1.573
			c0.006-0.075,0.055-0.111,0.146-0.104s0.133,0.049,0.129,0.125c-0.023,0.275-0.068,0.672-0.141,1.189
			c-0.074,0.578-0.129,1.082-0.162,1.51c-0.033,0.412-0.055,0.896-0.068,1.447c-0.008,0.492-0.023,0.898-0.049,1.22
			c-0.006,0.076-0.055,0.11-0.146,0.104s-0.135-0.048-0.129-0.126c0.033-0.427-0.021-0.793-0.168-1.098
			c-0.145-0.303-0.424-0.609-0.838-0.918c-0.416-0.309-1.035-0.688-1.861-1.137l-10.715-5.797c-0.043-0.033-0.061-0.104-0.053-0.211
			s0.037-0.166,0.084-0.178l11.766-4.735c1.143-0.448,1.93-0.837,2.363-1.164s0.666-0.698,0.699-1.111
			C63.313,144.197,63.361,144.163,63.453,144.17z M56.494,155.323l0.391-5.022l-5.549,2.221L56.494,155.323z"/>
		<path fill="#CA962C" d="M51.254,140.505c0.428,0.717,1.176,1.36,2.242,1.929c0.029,0.007,0.035,0.052,0.018,0.134
			s-0.051,0.118-0.096,0.108c-0.57-0.19-1.307-0.427-2.209-0.707c-0.904-0.281-1.588-0.474-2.051-0.577
			c-0.076-0.018-0.104-0.066-0.086-0.148c0.02-0.082,0.066-0.115,0.141-0.099c0.33,0.073,0.588-0.309,0.775-1.146
			c0.334-1.276,0.691-2.775,1.078-4.496c0.197-0.883,0.393-1.821,0.584-2.815l0.318-1.531c0.127-0.568,0.184-0.992,0.168-1.271
			c-0.018-0.278-0.129-0.48-0.336-0.605c-0.057-0.027-0.078-0.079-0.061-0.154c0.018-0.074,0.057-0.105,0.115-0.092
			c0.453,0.148,1.146,0.352,2.08,0.607c0.932,0.256,1.689,0.449,2.273,0.579c0.045,0.011,0.059,0.057,0.041,0.14
			c-0.02,0.082-0.053,0.125-0.102,0.131c-1.186-0.109-2.113,0.053-2.783,0.484c-0.67,0.43-1.111,1.117-1.322,2.06
			c-0.094,0.419-0.125,0.738-0.096,0.958c0.029,0.218,0.131,0.382,0.303,0.49c0.172,0.11,0.459,0.21,0.863,0.301l10.346,2.317
			c0.465,0.104,0.811,0.136,1.041,0.092c0.23-0.043,0.412-0.19,0.547-0.443c0.135-0.252,0.268-0.671,0.398-1.253
			c0.01-0.046,0.061-0.059,0.15-0.038s0.129,0.053,0.119,0.098c-0.117,0.523-0.217,0.934-0.299,1.229l-0.436,1.834l-0.369,1.757
			c-0.055,0.317-0.145,0.753-0.27,1.307c-0.006,0.03-0.055,0.035-0.145,0.015s-0.131-0.045-0.125-0.074
			c0.131-0.584,0.191-1.022,0.178-1.316c-0.014-0.293-0.117-0.514-0.313-0.659c-0.195-0.146-0.518-0.27-0.965-0.37l-10.393-2.327
			c-0.389-0.087-0.682-0.114-0.877-0.08c-0.197,0.036-0.355,0.142-0.473,0.319c-0.119,0.179-0.223,0.469-0.314,0.873
			C50.713,138.974,50.824,139.789,51.254,140.505z"/>
		<path fill="#CA962C" d="M67.768,126.264c0.229-0.002,0.416-0.103,0.566-0.302c0.152-0.199,0.313-0.545,0.484-1.038
			c0.014-0.043,0.066-0.05,0.152-0.02s0.123,0.067,0.107,0.11c-0.16,0.464-0.297,0.831-0.406,1.101l-0.582,1.601l-0.521,1.57
			c-0.082,0.281-0.205,0.66-0.373,1.138c-0.014,0.044-0.064,0.05-0.152,0.021c-0.086-0.031-0.123-0.068-0.107-0.111
			c0.172-0.492,0.26-0.863,0.266-1.113c0.006-0.249-0.08-0.454-0.262-0.614c-0.18-0.16-0.486-0.315-0.92-0.467l-10.059-3.499
			c-0.434-0.151-0.768-0.219-1-0.203c-0.234,0.017-0.43,0.123-0.586,0.32c-0.158,0.196-0.324,0.541-0.494,1.033
			c-0.016,0.043-0.066,0.05-0.152,0.02c-0.088-0.03-0.123-0.066-0.109-0.11l0.416-1.122c0.25-0.627,0.447-1.143,0.588-1.549
			c0.156-0.449,0.33-0.996,0.523-1.645l0.355-1.094c0.016-0.043,0.066-0.049,0.152-0.02c0.088,0.03,0.125,0.067,0.109,0.11
			c-0.168,0.478-0.246,0.845-0.236,1.1c0.008,0.255,0.104,0.458,0.285,0.61c0.184,0.153,0.49,0.305,0.926,0.456l10.014,3.485
			C67.201,126.188,67.539,126.266,67.768,126.264z"/>
		<path fill="#CA962C" d="M70.586,119.355c-1.096,0.696-2.289,1.058-3.58,1.088c-1.293,0.03-2.543-0.258-3.75-0.861
			c-1.412-0.708-2.443-1.67-3.094-2.888c-0.65-1.217-0.949-2.512-0.896-3.884c0.053-1.37,0.371-2.64,0.953-3.806
			c0.652-1.302,1.531-2.293,2.637-2.975c1.104-0.682,2.289-1.035,3.553-1.063c1.266-0.026,2.461,0.242,3.586,0.805
			c1.246,0.625,2.227,1.527,2.939,2.707c0.713,1.181,1.094,2.474,1.145,3.879c0.049,1.406-0.248,2.754-0.893,4.042
			C72.547,117.675,71.68,118.661,70.586,119.355z M73.48,112.908c-0.119-0.874-0.518-1.716-1.191-2.525s-1.609-1.514-2.801-2.111
			c-1.262-0.632-2.498-0.988-3.709-1.072c-1.209-0.083-2.289,0.122-3.24,0.615c-0.949,0.493-1.686,1.261-2.207,2.303
			c-0.666,1.329-0.707,2.6-0.121,3.81c0.586,1.211,1.721,2.239,3.406,3.084c1.303,0.652,2.592,1.027,3.863,1.124
			s2.396-0.086,3.373-0.548c0.979-0.463,1.707-1.173,2.188-2.133C73.453,114.631,73.6,113.782,73.48,112.908z"/>
		<path fill="#CA962C" d="M75.527,86.33c0.074,0.056,0.102,0.096,0.084,0.12c-0.367,0.492-0.475,1.004-0.326,1.534
			c0.148,0.532,0.549,1.04,1.201,1.526l9.537,7.103c0.037,0.027,0.037,0.077,0.004,0.146c-0.033,0.071-0.07,0.11-0.113,0.116
			L69.418,98.04l7.506,5.592c0.652,0.484,1.246,0.727,1.783,0.725c0.537-0.001,0.988-0.248,1.354-0.74
			c0.02-0.024,0.066-0.01,0.139,0.045c0.074,0.056,0.102,0.096,0.084,0.119c-0.248,0.332-0.441,0.58-0.582,0.743l-0.746,0.964
			l-0.793,1.103c-0.135,0.206-0.338,0.493-0.613,0.862c-0.027,0.037-0.078,0.027-0.152-0.027c-0.072-0.055-0.096-0.102-0.068-0.138
			c0.393-0.528,0.525-1.065,0.396-1.611s-0.52-1.062-1.17-1.546l-8.08-6.019c-0.625,0.07-1.115,0.188-1.469,0.354
			c-0.354,0.167-0.641,0.398-0.859,0.693c-0.02,0.025-0.066,0.01-0.139-0.045c-0.074-0.056-0.102-0.096-0.084-0.12l0.568-0.724
			c0.131-0.15,0.307-0.374,0.527-0.669l0.859-1.194c0.098-0.156,0.225-0.34,0.381-0.549c0.072-0.098,0.152-0.153,0.238-0.166
			s0.24-0.014,0.461-0.002l0.92-0.003l12.766-0.815l-6.529-4.863c-0.652-0.485-1.248-0.729-1.791-0.732s-0.994,0.236-1.352,0.715
			c-0.018,0.025-0.063,0.01-0.139-0.045c-0.072-0.056-0.1-0.095-0.082-0.12l0.582-0.742c0.318-0.375,0.572-0.692,0.766-0.95
			c0.184-0.246,0.418-0.587,0.705-1.023l0.586-0.826C75.408,86.261,75.455,86.276,75.527,86.33z"/>
		<path fill="#CA962C" d="M98.941,83.175c0.063,0.067,0.066,0.127,0.012,0.18c-0.211,0.201-0.559,0.514-1.047,0.936
			c-0.486,0.422-0.838,0.733-1.047,0.934c-0.277,0.266-0.596,0.589-0.951,0.971c-0.357,0.382-0.641,0.673-0.852,0.874
			c-0.043,0.042-0.098,0.03-0.16-0.037c-0.064-0.065-0.074-0.121-0.029-0.163c0.322-0.307,0.523-0.566,0.604-0.782
			c0.082-0.215,0.043-0.405-0.115-0.572c-0.16-0.167-0.523-0.359-1.094-0.579l-3.709-1.358l-4.027,3.841l0.914,2.56
			c0.174,0.471,0.387,0.839,0.641,1.104c0.371,0.39,0.789,0.551,1.258,0.486c0.467-0.064,0.951-0.335,1.451-0.811
			c0.055-0.053,0.115-0.047,0.178,0.02s0.066,0.127,0.012,0.18c-0.199,0.19-0.5,0.455-0.898,0.791
			c-0.441,0.381-0.818,0.719-1.129,1.016c-0.301,0.285-0.639,0.63-1.018,1.032c-0.334,0.361-0.617,0.652-0.852,0.874
			c-0.055,0.054-0.113,0.047-0.178-0.02c-0.063-0.067-0.066-0.127-0.012-0.18c0.311-0.296,0.514-0.605,0.607-0.93
			c0.094-0.322,0.092-0.737-0.01-1.244c-0.104-0.507-0.311-1.203-0.625-2.089l-4.102-11.47c-0.01-0.055,0.023-0.119,0.102-0.193
			c0.078-0.073,0.139-0.1,0.182-0.076l11.918,4.336c1.15,0.43,1.996,0.666,2.537,0.711c0.541,0.047,0.961-0.074,1.262-0.359
			C98.818,83.103,98.877,83.109,98.941,83.175z M86.311,86.826l3.646-3.476l-5.611-2.054L86.311,86.826z"/>
		<path fill="#CA962C" d="M101.785,79.136c0.238,0.337,0.439,0.563,0.602,0.672c0.162,0.111,0.344,0.134,0.541,0.069
			c0.199-0.064,0.48-0.226,0.842-0.482l1.129-0.796c0.889-0.627,1.465-1.405,1.73-2.334c0.264-0.928,0.201-1.882-0.191-2.863
			c-0.014-0.046,0.012-0.088,0.078-0.127c0.068-0.037,0.115-0.037,0.143,0c0.719,1.258,1.352,2.273,1.9,3.051
			c0.07,0.101,0.102,0.186,0.096,0.256c-0.008,0.07-0.066,0.145-0.18,0.225l-8.793,6.208c-0.025,0.019-0.064-0.011-0.117-0.086
			s-0.068-0.122-0.043-0.14c0.426-0.301,0.715-0.551,0.865-0.75c0.148-0.2,0.193-0.414,0.135-0.645s-0.221-0.534-0.486-0.91
			l-6.143-8.699c-0.266-0.376-0.494-0.627-0.686-0.754c-0.193-0.127-0.414-0.154-0.664-0.082c-0.248,0.073-0.58,0.255-0.992,0.547
			c-0.025,0.018-0.064-0.012-0.117-0.086c-0.055-0.075-0.068-0.121-0.043-0.139l0.973-0.658c0.568-0.363,1.027-0.67,1.379-0.918
			c0.375-0.265,0.83-0.604,1.363-1.019l0.926-0.683c0.039-0.026,0.084-0.002,0.137,0.073s0.061,0.126,0.023,0.152
			c-0.414,0.292-0.693,0.541-0.84,0.747c-0.145,0.207-0.188,0.424-0.129,0.654c0.061,0.23,0.223,0.533,0.488,0.91L101.785,79.136z"
			/>
		<path fill="#CA962C" d="M119.414,71.005c-0.217,0.077-0.49,0.181-0.82,0.308s-0.697,0.279-1.105,0.457l-1.486,0.675
			c-0.262,0.131-0.631,0.3-1.109,0.509c-0.027,0.012-0.061-0.024-0.098-0.108c-0.035-0.084-0.041-0.133-0.012-0.145
			c0.477-0.209,0.811-0.396,0.996-0.562c0.188-0.165,0.279-0.368,0.275-0.608c-0.006-0.24-0.1-0.572-0.283-0.993l-4.262-9.76
			c-0.184-0.422-0.357-0.714-0.52-0.877c-0.164-0.163-0.375-0.233-0.633-0.213c-0.26,0.021-0.621,0.132-1.084,0.335
			c-0.029,0.012-0.061-0.023-0.098-0.107c-0.037-0.085-0.041-0.133-0.014-0.146l1.127-0.467c0.631-0.242,1.129-0.442,1.494-0.603
			c0.563-0.245,1.121-0.514,1.68-0.809c0.691-0.334,1.154-0.554,1.395-0.658c1.434-0.626,2.828-0.899,4.184-0.822
			c1.355,0.078,2.551,0.467,3.584,1.17c1.035,0.703,1.816,1.658,2.344,2.867c0.596,1.363,0.805,2.706,0.629,4.029
			c-0.174,1.322-0.672,2.502-1.492,3.537c-0.818,1.036-1.867,1.832-3.146,2.391C120.523,70.596,120.008,70.796,119.414,71.005z
			 M122.842,68.253c0.551-0.792,0.838-1.733,0.863-2.824c0.025-1.09-0.236-2.268-0.789-3.532c-0.527-1.209-1.205-2.214-2.031-3.016
			c-0.828-0.802-1.73-1.327-2.709-1.577c-0.98-0.251-1.955-0.164-2.924,0.26c-0.59,0.257-1.031,0.492-1.324,0.703
			s-0.471,0.443-0.535,0.697c-0.066,0.255-0.012,0.579,0.16,0.973l4.141,9.485c0.252,0.576,0.578,0.923,0.98,1.04
			s1.033-0.012,1.891-0.387C121.533,69.652,122.293,69.045,122.842,68.253z"/>
		<path fill="#CA962C" d="M133.223,64.949c-1.24-0.382-2.289-1.055-3.15-2.02c-0.861-0.964-1.453-2.103-1.775-3.412
			c-0.377-1.534-0.313-2.943,0.191-4.228c0.506-1.285,1.297-2.353,2.375-3.202c1.078-0.849,2.25-1.429,3.516-1.741
			c1.414-0.348,2.738-0.322,3.975,0.076c1.234,0.399,2.271,1.071,3.113,2.018c0.84,0.945,1.41,2.029,1.711,3.25
			c0.334,1.354,0.283,2.686-0.154,3.994c-0.436,1.307-1.174,2.436-2.211,3.386s-2.256,1.597-3.654,1.941
			C135.773,65.353,134.461,65.331,133.223,64.949z M140.008,62.972c0.588-0.657,0.971-1.506,1.15-2.545
			c0.178-1.038,0.107-2.205-0.211-3.5c-0.336-1.37-0.865-2.543-1.588-3.519c-0.721-0.975-1.578-1.663-2.568-2.067
			c-0.992-0.403-2.055-0.467-3.186-0.188c-1.443,0.356-2.438,1.149-2.979,2.38c-0.543,1.231-0.588,2.762-0.137,4.594
			c0.348,1.414,0.896,2.637,1.648,3.668c0.75,1.031,1.619,1.769,2.605,2.213c0.984,0.444,1.998,0.538,3.041,0.282
			C138.678,64.069,139.42,63.63,140.008,62.972z"/>
		<path fill="#CA962C" d="M150.99,61.542c-1.322-0.572-2.357-1.398-3.105-2.478c-0.75-1.079-1.17-2.308-1.262-3.684
			c-0.098-1.47,0.197-2.795,0.887-3.979c0.688-1.184,1.686-2.13,2.99-2.84s2.791-1.121,4.459-1.232
			c0.764-0.052,1.514-0.04,2.25,0.033c0.734,0.073,1.338,0.21,1.813,0.408c0.143,0.053,0.227,0.101,0.252,0.145
			c0.025,0.045,0.053,0.166,0.082,0.364l0.502,3.009c0.002,0.046-0.037,0.079-0.121,0.101c-0.082,0.021-0.135,0.001-0.152-0.06
			c-0.387-0.942-1.035-1.786-1.945-2.532c-0.91-0.745-2.039-1.073-3.385-0.982c-1.057,0.07-1.998,0.402-2.826,0.996
			c-0.83,0.594-1.459,1.407-1.889,2.443c-0.43,1.035-0.602,2.211-0.514,3.526c0.094,1.393,0.451,2.64,1.07,3.743
			s1.451,1.951,2.498,2.541c1.047,0.591,2.219,0.843,3.52,0.756c0.658-0.045,1.166-0.155,1.521-0.333
			c0.357-0.177,0.607-0.471,0.75-0.88c0.141-0.409,0.186-0.996,0.135-1.761c-0.053-0.796-0.137-1.347-0.25-1.655
			c-0.111-0.307-0.33-0.504-0.65-0.59s-0.871-0.103-1.65-0.051c-0.092,0.006-0.143-0.052-0.15-0.174
			c-0.004-0.047,0.006-0.089,0.025-0.129c0.021-0.04,0.047-0.061,0.078-0.063c1.273-0.009,2.293-0.039,3.059-0.09
			s1.559-0.128,2.383-0.229c0.029-0.002,0.059,0.017,0.084,0.053s0.039,0.07,0.041,0.101c0.006,0.107-0.027,0.163-0.104,0.168
			c-0.309,0.006-0.52,0.069-0.633,0.192c-0.115,0.124-0.18,0.362-0.195,0.717c-0.014,0.354,0.008,0.968,0.066,1.839
			c0.047,0.689,0.105,1.177,0.18,1.464c0.072,0.286,0.111,0.469,0.117,0.546c0.006,0.091-0.006,0.153-0.035,0.186
			c-0.027,0.033-0.094,0.068-0.199,0.106c-1.9,0.557-3.605,0.888-5.121,0.988C153.836,62.343,152.311,62.114,150.99,61.542z"/>
		<path fill="#CA962C" d="M184.176,50.215c0.111,0.08,0.178,0.149,0.199,0.207s0.033,0.18,0.035,0.366l-0.203,3.042
			c-0.008,0.046-0.051,0.07-0.127,0.072c-0.078,0.004-0.129-0.027-0.148-0.093c-0.197-1.305-0.635-2.344-1.311-3.119
			c-0.678-0.774-1.59-1.254-2.742-1.436c-1.105-0.176-2.137-0.057-3.096,0.358s-1.762,1.103-2.41,2.063
			c-0.65,0.96-1.084,2.13-1.303,3.508c-0.217,1.362-0.152,2.619,0.195,3.769c0.344,1.148,0.916,2.09,1.717,2.822
			c0.799,0.732,1.76,1.188,2.881,1.365c1.105,0.176,2.07,0.029,2.898-0.438c0.826-0.466,1.621-1.291,2.383-2.474
			c0.023-0.044,0.07-0.051,0.145-0.023c0.072,0.027,0.107,0.056,0.104,0.086l-0.729,2.68c-0.045,0.179-0.088,0.288-0.135,0.327
			c-0.045,0.039-0.133,0.08-0.264,0.121c-1.451,0.344-2.941,0.396-4.471,0.152c-1.621-0.257-3.02-0.793-4.193-1.608
			s-2.029-1.836-2.564-3.062c-0.535-1.227-0.689-2.559-0.461-3.997c0.227-1.423,0.799-2.637,1.719-3.64s2.072-1.717,3.461-2.141
			c1.387-0.425,2.875-0.511,4.465-0.259C181.902,49.133,183.219,49.583,184.176,50.215z"/>
		<path fill="#CA962C" d="M199.496,69.329c-0.029,0.087-0.08,0.117-0.152,0.093c-0.275-0.093-0.715-0.259-1.314-0.495
			s-1.037-0.401-1.313-0.495c-0.363-0.123-0.797-0.254-1.299-0.394c-0.506-0.139-0.895-0.255-1.17-0.349
			c-0.059-0.02-0.072-0.073-0.043-0.159c0.029-0.088,0.072-0.122,0.131-0.102c0.422,0.143,0.746,0.201,0.975,0.173
			s0.379-0.15,0.453-0.368s0.076-0.63,0.008-1.236l-0.516-3.916l-5.27-1.792l-1.846,1.996c-0.336,0.371-0.563,0.731-0.682,1.08
			c-0.174,0.509-0.123,0.954,0.152,1.339c0.273,0.385,0.736,0.688,1.391,0.91c0.072,0.025,0.094,0.08,0.064,0.168
			c-0.029,0.087-0.082,0.118-0.154,0.094c-0.26-0.089-0.633-0.232-1.117-0.43c-0.541-0.216-1.016-0.393-1.422-0.531
			c-0.393-0.133-0.854-0.274-1.387-0.423c-0.475-0.129-0.863-0.245-1.17-0.35c-0.072-0.024-0.094-0.08-0.064-0.167
			c0.031-0.087,0.082-0.118,0.154-0.094c0.406,0.139,0.775,0.175,1.105,0.108c0.33-0.065,0.695-0.261,1.098-0.586
			s0.922-0.832,1.563-1.522l8.266-8.947c0.043-0.033,0.115-0.033,0.217,0.002c0.102,0.034,0.152,0.075,0.152,0.125l1.678,12.57
			c0.152,1.219,0.334,2.078,0.545,2.578c0.209,0.501,0.512,0.817,0.902,0.951C199.504,69.186,199.525,69.242,199.496,69.329z
			 M190.412,59.826l4.768,1.621l-0.779-5.925L190.412,59.826z"/>
		<path fill="#CA962C" d="M213.756,76.731c-0.043,0.081-0.084,0.111-0.125,0.09l-3.283-1.715c-0.313-0.164-0.609-1.01-0.891-2.542
			c-0.279-1.53-0.514-3.591-0.701-6.18c-0.313-0.13-0.551-0.236-0.713-0.321c-0.301-0.156-0.646-0.355-1.039-0.595l-2.377,4.545
			c-0.221,0.422-0.342,0.747-0.367,0.977c-0.025,0.229,0.051,0.433,0.227,0.61c0.174,0.179,0.492,0.388,0.955,0.63
			c0.027,0.014,0.02,0.062-0.023,0.144c-0.043,0.081-0.076,0.115-0.104,0.101c-0.449-0.234-0.793-0.422-1.029-0.563l-1.498-0.809
			l-1.479-0.747c-0.266-0.122-0.621-0.3-1.07-0.533c-0.041-0.021-0.039-0.073,0.002-0.155c0.043-0.081,0.084-0.111,0.125-0.09
			c0.463,0.241,0.816,0.383,1.064,0.426c0.244,0.042,0.461-0.014,0.645-0.169c0.184-0.154,0.383-0.435,0.596-0.843l4.934-9.438
			c0.213-0.407,0.332-0.727,0.357-0.955c0.023-0.229-0.053-0.439-0.232-0.627c-0.178-0.188-0.49-0.4-0.939-0.635
			c-0.027-0.014-0.018-0.062,0.023-0.144c0.043-0.081,0.078-0.114,0.105-0.101l1.049,0.574c0.584,0.34,1.059,0.605,1.426,0.797
			c0.449,0.235,0.949,0.471,1.5,0.706c0.184,0.079,0.404,0.178,0.662,0.296c0.26,0.117,0.545,0.258,0.857,0.421
			c1.182,0.618,1.975,1.327,2.379,2.126c0.404,0.8,0.391,1.614-0.043,2.443c-0.391,0.747-0.949,1.312-1.678,1.692
			c-0.727,0.382-1.527,0.567-2.406,0.559c0.256,2.228,0.514,3.997,0.779,5.312c0.264,1.315,0.576,2.331,0.938,3.048
			c0.361,0.716,0.82,1.219,1.377,1.511C213.799,76.599,213.799,76.649,213.756,76.731z M208.432,65.618
			c0.883,0.461,1.629,0.57,2.242,0.328c0.609-0.243,1.172-0.854,1.682-1.832c0.576-1.101,0.791-1.967,0.645-2.597
			s-0.572-1.13-1.279-1.499c-0.529-0.277-0.959-0.375-1.285-0.295c-0.328,0.079-0.627,0.377-0.896,0.894l-2.248,4.301
			C207.588,65.143,207.969,65.376,208.432,65.618z"/>
		<path fill="#CA962C" d="M224.74,80.573c0.035,0.027,0.063,0.062,0.08,0.103c0.018,0.042,0.021,0.068,0.014,0.08
			c-0.809,0.854-1.496,1.671-2.064,2.452c-0.072,0.1-0.143,0.158-0.211,0.174c-0.068,0.017-0.158-0.016-0.27-0.097l-8.08-5.863
			c-0.037-0.027-0.029-0.077,0.025-0.151c0.053-0.075,0.1-0.099,0.137-0.072c0.422,0.307,0.752,0.499,0.99,0.576
			c0.236,0.077,0.455,0.051,0.654-0.079c0.197-0.131,0.432-0.382,0.703-0.754l6.254-8.618c0.271-0.373,0.434-0.671,0.492-0.895
			c0.057-0.223,0.014-0.44-0.137-0.653c-0.148-0.212-0.428-0.467-0.838-0.764c-0.037-0.027-0.027-0.078,0.025-0.152
			c0.055-0.075,0.1-0.099,0.137-0.071l7.744,5.62c0.123,0.09,0.145,0.191,0.064,0.303l-1.719,2.446
			c-0.018,0.025-0.066,0.02-0.145-0.018c-0.076-0.038-0.107-0.079-0.092-0.125c0.729-1.631,0.379-2.965-1.049-4.001l-0.744-0.54
			c-0.445-0.324-0.822-0.473-1.125-0.447c-0.303,0.027-0.594,0.232-0.873,0.616l-2.756,3.798l1.787,1.297
			c1.363,0.991,2.379,1.027,3.047,0.109c0.027-0.038,0.074-0.031,0.143,0.018c0.068,0.05,0.09,0.094,0.063,0.13l-1.195,1.606
			l-0.615,0.888c-0.264,0.416-0.486,0.747-0.666,0.995c-0.018,0.025-0.064,0.011-0.139-0.043c-0.074-0.055-0.102-0.094-0.084-0.118
			c0.775-1.067,0.467-2.106-0.924-3.114l-1.768-1.283l-3.066,4.225c-0.299,0.41-0.428,0.752-0.389,1.025
			c0.037,0.274,0.254,0.555,0.652,0.844l0.912,0.661c1.662,1.207,3.303,1.167,4.92-0.123
			C224.654,80.532,224.689,80.538,224.74,80.573z"/>
		<path fill="#CA962C" d="M232.02,91.095c-0.084,0.236-0.047,0.506,0.113,0.809c0.158,0.305,0.479,0.713,0.961,1.226
			c0.031,0.034,0.014,0.082-0.053,0.146c-0.066,0.063-0.115,0.078-0.146,0.045c-0.432-0.459-0.762-0.821-0.992-1.089l-1.354-1.474
			l-1.15-1.191c-0.211-0.201-0.49-0.487-0.836-0.855c-0.033-0.034-0.014-0.082,0.053-0.146c0.066-0.063,0.115-0.077,0.146-0.044
			c0.357,0.38,0.643,0.628,0.855,0.742c0.215,0.116,0.428,0.131,0.643,0.045c0.213-0.086,0.494-0.291,0.84-0.617l7.762-7.292
			c0.334-0.315,0.551-0.577,0.648-0.786c0.1-0.208,0.098-0.428-0.002-0.658c-0.102-0.232-0.326-0.531-0.672-0.9
			c-0.033-0.033-0.014-0.082,0.053-0.145s0.117-0.078,0.148-0.045l0.801,0.888c0.439,0.513,0.803,0.92,1.086,1.222
			c0.242,0.258,0.553,0.554,0.932,0.891c0.139,0.125,0.318,0.295,0.547,0.514c0.225,0.219,0.484,0.484,0.779,0.797
			c1.041,1.106,1.627,2.201,1.762,3.284c0.135,1.084-0.283,2.083-1.256,2.996c-0.705,0.661-1.473,1.042-2.305,1.142
			c-0.834,0.099-1.639-0.019-2.414-0.352c-0.775-0.334-1.443-0.796-1.998-1.389c-0.295-0.313-0.514-0.602-0.658-0.866
			c-0.031-0.034-0.02-0.076,0.037-0.13c0.033-0.031,0.074-0.054,0.123-0.068c0.051-0.016,0.08-0.006,0.09,0.027
			c0.123,0.22,0.285,0.437,0.484,0.648c0.545,0.581,1.248,0.848,2.105,0.798c0.859-0.049,1.736-0.493,2.629-1.334
			c0.883-0.829,1.373-1.68,1.471-2.55s-0.195-1.668-0.877-2.395c-0.252-0.268-0.473-0.446-0.66-0.533s-0.383-0.088-0.584-0.002
			c-0.205,0.086-0.469,0.281-0.791,0.586l-7.66,7.198C232.322,90.573,232.102,90.859,232.02,91.095z"/>
		<path fill="#CA962C" d="M246.123,110.452c-0.076,0.053-0.127,0.061-0.152,0.022l-2.119-3.037c-0.201-0.29-0.072-1.178,0.385-2.665
			c0.459-1.488,1.201-3.424,2.232-5.806c-0.217-0.259-0.379-0.464-0.484-0.615c-0.193-0.276-0.408-0.612-0.646-1.007l-4.207,2.934
			c-0.391,0.271-0.648,0.504-0.777,0.695c-0.127,0.192-0.154,0.407-0.082,0.646c0.074,0.238,0.26,0.572,0.559,1
			c0.018,0.024-0.012,0.063-0.088,0.116c-0.074,0.053-0.121,0.066-0.139,0.041c-0.291-0.415-0.508-0.74-0.652-0.976l-0.955-1.409
			l-0.967-1.346c-0.18-0.229-0.412-0.552-0.703-0.968c-0.025-0.037,0-0.082,0.074-0.135c0.076-0.053,0.127-0.061,0.152-0.022
			c0.299,0.427,0.547,0.717,0.746,0.868c0.199,0.15,0.416,0.201,0.65,0.148c0.234-0.052,0.541-0.209,0.92-0.472l8.734-6.091
			c0.377-0.264,0.629-0.49,0.758-0.683c0.127-0.192,0.156-0.413,0.084-0.662s-0.25-0.581-0.541-0.997
			c-0.018-0.025,0.012-0.064,0.088-0.117c0.074-0.052,0.121-0.066,0.139-0.041l0.666,0.994c0.359,0.571,0.66,1.027,0.896,1.366
			c0.289,0.415,0.623,0.855,1.004,1.319c0.125,0.154,0.277,0.344,0.451,0.568c0.176,0.224,0.363,0.479,0.566,0.77
			c0.762,1.094,1.137,2.089,1.127,2.984c-0.012,0.896-0.4,1.611-1.168,2.146c-0.691,0.483-1.449,0.725-2.27,0.728
			c-0.82,0.002-1.617-0.203-2.393-0.617c-0.801,2.093-1.391,3.783-1.764,5.071c-0.371,1.288-0.564,2.333-0.574,3.136
			c-0.012,0.802,0.162,1.461,0.521,1.977C246.223,110.354,246.197,110.399,246.123,110.452z M246.535,98.136
			c0.57,0.817,1.182,1.26,1.836,1.327s1.434-0.216,2.34-0.847c1.02-0.71,1.609-1.379,1.771-2.005
			c0.16-0.627,0.014-1.267-0.443-1.921c-0.342-0.49-0.676-0.775-1.004-0.856c-0.326-0.08-0.729,0.046-1.207,0.379l-3.98,2.776
			C246.008,97.326,246.236,97.708,246.535,98.136z"/>
		<path fill="#CA962C" d="M248.018,113.158c0.115-1.291,0.557-2.458,1.32-3.501s1.754-1.857,2.969-2.445
			c1.422-0.688,2.813-0.92,4.176-0.692c1.361,0.227,2.568,0.778,3.625,1.656c1.055,0.878,1.867,1.903,2.434,3.077
			c0.635,1.311,0.885,2.611,0.752,3.902s-0.574,2.446-1.324,3.465c-0.752,1.02-1.691,1.803-2.824,2.351
			c-1.256,0.608-2.568,0.835-3.938,0.679c-1.369-0.154-2.627-0.641-3.771-1.457c-1.146-0.817-2.031-1.875-2.66-3.172
			C248.154,115.737,247.902,114.449,248.018,113.158z M251.363,119.384c0.766,0.438,1.676,0.637,2.729,0.596s2.18-0.353,3.381-0.934
			c1.27-0.614,2.305-1.376,3.109-2.284c0.805-0.909,1.301-1.891,1.49-2.944c0.188-1.054,0.027-2.104-0.48-3.153
			c-0.648-1.339-1.631-2.146-2.945-2.42c-1.318-0.273-2.824,0-4.521,0.821c-1.313,0.635-2.395,1.427-3.246,2.376
			s-1.393,1.951-1.623,3.008c-0.229,1.058-0.111,2.068,0.357,3.034C250.014,118.313,250.598,118.945,251.363,119.384z"/>
		<path fill="#CA962C" d="M266.727,132.301c-0.029,0.009-0.064-0.025-0.104-0.101c-0.039-0.076-0.039-0.129,0-0.156
			c1.561-0.869,2.078-2.147,1.557-3.831l-0.273-0.878c-0.164-0.527-0.375-0.871-0.633-1.032c-0.26-0.161-0.607-0.173-1.047-0.036
			l-4.768,1.479l0.561,1.802c0.508,1.64,1.313,2.289,2.41,1.948c0.029-0.009,0.057,0.03,0.084,0.118s0.027,0.137-0.002,0.146
			l-1.939,0.578c-0.455,0.141-0.789,0.253-1.004,0.335l-1.137,0.377c-0.043,0.014-0.078-0.023-0.105-0.111s-0.02-0.139,0.025-0.152
			c1.244-0.386,1.605-1.422,1.082-3.105l-0.545-1.758l-4.723,1.467c-0.469,0.146-0.791,0.309-0.967,0.492
			c-0.178,0.184-0.254,0.461-0.236,0.832c0.02,0.371,0.141,0.916,0.363,1.634c0.008,0.029-0.029,0.058-0.117,0.085
			c-0.09,0.026-0.137,0.025-0.146-0.004c-0.186-0.6-0.324-1.071-0.414-1.412l-0.646-2.159l-0.52-1.597
			c-0.102-0.274-0.229-0.66-0.385-1.158c-0.014-0.044,0.025-0.079,0.111-0.106c0.088-0.027,0.139-0.019,0.152,0.024
			c0.164,0.527,0.32,0.9,0.469,1.119c0.148,0.22,0.342,0.34,0.582,0.361c0.238,0.022,0.578-0.035,1.018-0.171l10.172-3.157
			c0.438-0.137,0.748-0.277,0.928-0.422c0.18-0.144,0.273-0.346,0.281-0.604c0.008-0.26-0.063-0.631-0.213-1.114
			c-0.014-0.045,0.023-0.079,0.111-0.107c0.088-0.027,0.139-0.019,0.152,0.025l2.838,9.138c0.045,0.146,0,0.24-0.131,0.281
			L266.727,132.301z"/>
		<path fill="#CA962C" d="M261.982,147.319c0.008,0.045,0.004,0.088-0.012,0.131c-0.018,0.041-0.031,0.063-0.047,0.066
			c-1.174,0.052-2.236,0.162-3.189,0.33c-0.119,0.021-0.211,0.014-0.271-0.022s-0.104-0.121-0.127-0.257l-1.738-9.829
			c-0.008-0.046,0.031-0.076,0.123-0.093c0.092-0.016,0.139-0.002,0.148,0.043c0.09,0.515,0.193,0.881,0.311,1.102
			s0.293,0.354,0.525,0.398c0.234,0.043,0.578,0.026,1.031-0.054l10.486-1.855c0.453-0.081,0.777-0.181,0.973-0.301
			c0.197-0.121,0.316-0.31,0.355-0.565c0.041-0.256,0.018-0.633-0.07-1.131c-0.008-0.046,0.033-0.077,0.123-0.093
			c0.092-0.017,0.141-0.002,0.148,0.044l1.668,9.422c0.025,0.15-0.029,0.238-0.164,0.262l-2.938,0.566
			c-0.031,0.006-0.061-0.032-0.09-0.112s-0.023-0.132,0.02-0.155c1.656-0.667,2.332-1.869,2.023-3.605l-0.158-0.905
			c-0.096-0.544-0.264-0.911-0.5-1.103c-0.236-0.192-0.588-0.247-1.057-0.164l-4.619,0.817l0.385,2.175
			c0.293,1.66,0.998,2.393,2.115,2.194c0.047-0.008,0.076,0.029,0.09,0.112c0.016,0.083,0,0.129-0.045,0.137l-1.975,0.326
			l-1.061,0.211c-0.479,0.115-0.867,0.2-1.17,0.254c-0.029,0.005-0.053-0.037-0.07-0.128c-0.016-0.091-0.008-0.139,0.023-0.144
			c1.297-0.23,1.797-1.19,1.498-2.882l-0.381-2.151l-5.141,0.91c-0.498,0.088-0.83,0.243-0.992,0.467
			c-0.162,0.223-0.201,0.576-0.115,1.06l0.195,1.11c0.359,2.023,1.566,3.133,3.627,3.329
			C261.951,147.231,261.971,147.259,261.982,147.319z"/>
		<path fill="#CA962C" d="M269.234,152.976c-0.424,0.305-0.785,0.676-1.086,1.113s-0.654,1.027-1.063,1.77
			c-0.451,0.805-0.842,1.442-1.172,1.912c-0.33,0.469-0.744,0.873-1.24,1.213c-0.498,0.34-1.09,0.527-1.779,0.562
			c-0.781,0.038-1.488-0.13-2.121-0.505c-0.633-0.376-1.141-0.927-1.521-1.651c-0.383-0.727-0.596-1.563-0.643-2.513
			c-0.033-0.644,0.018-1.31,0.152-2c0.135-0.689,0.314-1.217,0.543-1.581c0.086-0.143,0.227-0.227,0.426-0.251l3.484-0.313
			l0.023-0.001c0.061-0.003,0.096,0.033,0.107,0.109c0.012,0.075-0.012,0.123-0.072,0.142c-1.246,0.568-2.26,1.199-3.037,1.891
			c-0.781,0.691-1.145,1.542-1.094,2.553c0.031,0.658,0.24,1.201,0.623,1.627c0.381,0.426,0.994,0.619,1.836,0.576
			c0.674-0.033,1.254-0.212,1.746-0.535c0.49-0.324,0.893-0.713,1.209-1.166c0.314-0.454,0.699-1.067,1.15-1.842
			c0.438-0.76,0.811-1.354,1.121-1.783c0.309-0.43,0.697-0.803,1.164-1.118c0.469-0.314,1.023-0.488,1.666-0.521
			c0.797-0.039,1.482,0.148,2.055,0.565c0.574,0.417,1.014,0.975,1.316,1.673c0.303,0.699,0.475,1.439,0.514,2.22
			c0.025,0.521,0.002,1.044-0.072,1.569c-0.072,0.525-0.178,0.969-0.313,1.328c-0.08,0.234-0.221,0.357-0.42,0.367l-3.121,0.224
			c-0.045,0.003-0.078-0.038-0.098-0.121s-0.006-0.134,0.039-0.151c0.918-0.354,1.744-0.805,2.477-1.356
			c0.732-0.551,1.074-1.339,1.021-2.364c-0.033-0.689-0.262-1.228-0.68-1.613s-0.971-0.562-1.66-0.527
			C270.15,152.504,269.654,152.671,269.234,152.976z"/>
		<path fill="#CA962C" d="M269.293,166.002c-0.455,0.252-0.859,0.577-1.211,0.975c-0.35,0.397-0.773,0.94-1.268,1.628
			c-0.545,0.744-1.01,1.33-1.393,1.757c-0.385,0.426-0.844,0.777-1.379,1.055s-1.146,0.392-1.834,0.343
			c-0.779-0.056-1.463-0.309-2.045-0.757c-0.582-0.449-1.02-1.057-1.311-1.823c-0.293-0.766-0.404-1.623-0.336-2.571
			c0.045-0.642,0.176-1.298,0.393-1.966c0.217-0.67,0.459-1.171,0.729-1.506c0.104-0.131,0.254-0.197,0.453-0.198l3.498,0.111
			l0.021,0.001c0.063,0.005,0.094,0.045,0.096,0.122s-0.027,0.121-0.09,0.133c-1.305,0.413-2.387,0.917-3.244,1.51
			c-0.855,0.592-1.32,1.394-1.393,2.402c-0.047,0.657,0.094,1.222,0.422,1.69s0.912,0.733,1.754,0.793
			c0.672,0.048,1.271-0.059,1.799-0.321c0.525-0.263,0.973-0.6,1.34-1.012c0.367-0.411,0.822-0.976,1.365-1.689
			c0.525-0.7,0.969-1.245,1.326-1.635c0.359-0.39,0.789-0.713,1.291-0.97c0.502-0.256,1.076-0.361,1.719-0.315
			c0.795,0.057,1.451,0.326,1.971,0.809c0.52,0.483,0.887,1.09,1.105,1.819c0.215,0.73,0.297,1.486,0.242,2.266
			c-0.039,0.52-0.125,1.037-0.262,1.55c-0.137,0.512-0.293,0.938-0.471,1.28c-0.107,0.223-0.262,0.327-0.461,0.313l-3.125-0.153
			c-0.045-0.003-0.072-0.047-0.082-0.133s0.01-0.133,0.057-0.146c0.955-0.24,1.828-0.589,2.621-1.047
			c0.793-0.459,1.227-1.201,1.299-2.225c0.051-0.688-0.109-1.25-0.479-1.684s-0.896-0.675-1.586-0.724
			C270.26,165.645,269.75,165.75,269.293,166.002z"/>
		<path fill="#CA962C" d="M258.172,178.085c-0.225,0.039-0.395,0.168-0.512,0.389c-0.115,0.222-0.219,0.588-0.309,1.103
			c-0.008,0.045-0.057,0.06-0.148,0.044c-0.09-0.016-0.131-0.046-0.123-0.092c0.084-0.483,0.158-0.867,0.223-1.151l0.316-1.673
			l0.262-1.635c0.035-0.29,0.096-0.685,0.184-1.182c0.006-0.047,0.055-0.061,0.146-0.046c0.09,0.017,0.131,0.047,0.125,0.092
			c-0.09,0.514-0.117,0.895-0.082,1.142c0.033,0.248,0.152,0.436,0.355,0.564s0.531,0.232,0.984,0.312l10.492,1.828
			c0.453,0.079,0.793,0.091,1.02,0.037c0.229-0.053,0.404-0.19,0.527-0.41s0.23-0.586,0.32-1.1c0.008-0.046,0.057-0.06,0.146-0.044
			c0.092,0.016,0.133,0.047,0.125,0.092l-0.229,1.174c-0.146,0.66-0.256,1.2-0.328,1.623c-0.082,0.469-0.166,1.037-0.252,1.708
			l-0.174,1.137c-0.008,0.045-0.059,0.06-0.148,0.044s-0.133-0.046-0.125-0.092c0.088-0.498,0.105-0.872,0.057-1.122
			c-0.051-0.25-0.178-0.436-0.383-0.558c-0.203-0.121-0.533-0.221-0.984-0.3l-10.447-1.819
			C258.742,178.067,258.396,178.046,258.172,178.085z"/>
		<path fill="#CA962C" d="M256.486,185.319c0.963-0.869,2.078-1.428,3.348-1.675s2.549-0.174,3.84,0.219
			c1.512,0.46,2.689,1.235,3.535,2.326s1.359,2.316,1.537,3.677c0.18,1.361,0.08,2.664-0.299,3.912
			c-0.424,1.393-1.123,2.519-2.098,3.377c-0.975,0.857-2.082,1.405-3.326,1.645c-1.242,0.239-2.465,0.176-3.668-0.19
			c-1.334-0.406-2.453-1.131-3.352-2.175c-0.902-1.043-1.496-2.254-1.781-3.631s-0.221-2.755,0.199-4.134
			C254.838,187.306,255.525,186.188,256.486,185.319z M254.719,192.162c0.264,0.841,0.797,1.604,1.598,2.29
			c0.803,0.684,1.842,1.22,3.117,1.608c1.35,0.411,2.629,0.556,3.836,0.434s2.236-0.506,3.09-1.151
			c0.855-0.646,1.451-1.526,1.789-2.641c0.434-1.424,0.26-2.683-0.521-3.777c-0.781-1.096-2.072-1.916-3.877-2.466
			c-1.395-0.424-2.727-0.577-3.996-0.458c-1.271,0.118-2.348,0.487-3.234,1.107c-0.885,0.62-1.484,1.443-1.797,2.471
			C254.455,190.459,254.453,191.319,254.719,192.162z"/>
		<path fill="#CA962C" d="M257.033,218.73c-0.082-0.042-0.115-0.076-0.1-0.104c0.279-0.546,0.303-1.069,0.068-1.567
			c-0.234-0.5-0.713-0.937-1.436-1.308l-10.576-5.438c-0.039-0.021-0.051-0.068-0.029-0.144c0.023-0.076,0.053-0.119,0.094-0.133
			l16.082-3.861l-8.326-4.28c-0.723-0.372-1.348-0.512-1.877-0.423c-0.529,0.09-0.934,0.408-1.215,0.953
			c-0.014,0.027-0.061,0.021-0.143-0.022c-0.082-0.041-0.117-0.076-0.102-0.104c0.189-0.369,0.34-0.645,0.451-0.828l0.578-1.074
			l0.6-1.217c0.098-0.225,0.254-0.542,0.465-0.951c0.02-0.041,0.072-0.041,0.152,0.002c0.082,0.042,0.113,0.084,0.092,0.124
			c-0.301,0.586-0.344,1.138-0.127,1.655c0.217,0.516,0.688,0.961,1.41,1.332l8.959,4.607c0.604-0.172,1.068-0.369,1.391-0.592
			c0.32-0.223,0.564-0.498,0.734-0.824c0.014-0.027,0.061-0.02,0.143,0.021c0.082,0.042,0.117,0.076,0.104,0.105l-0.441,0.807
			c-0.105,0.17-0.242,0.418-0.41,0.746l-0.652,1.319c-0.072,0.171-0.166,0.372-0.285,0.604c-0.057,0.109-0.125,0.177-0.209,0.203
			c-0.082,0.025-0.232,0.053-0.453,0.076l-0.906,0.155l-12.459,2.903l7.24,3.725c0.723,0.371,1.352,0.514,1.889,0.427
			c0.535-0.086,0.939-0.396,1.213-0.927c0.014-0.027,0.063-0.021,0.145,0.021c0.082,0.042,0.115,0.076,0.102,0.104l-0.451,0.829
			c-0.252,0.422-0.451,0.776-0.6,1.063c-0.141,0.273-0.316,0.647-0.525,1.125l-0.443,0.911
			C257.162,218.78,257.115,218.772,257.033,218.73z"/>
		<path fill="#CA962C" d="M234.455,225.698c-0.074-0.055-0.088-0.114-0.041-0.176c0.174-0.232,0.469-0.597,0.879-1.093
			s0.705-0.861,0.879-1.095c0.23-0.307,0.49-0.678,0.779-1.111c0.289-0.436,0.521-0.77,0.695-1.002
			c0.037-0.051,0.092-0.047,0.166,0.009c0.072,0.056,0.092,0.106,0.055,0.156c-0.268,0.354-0.424,0.646-0.467,0.871
			c-0.045,0.226,0.023,0.407,0.207,0.545c0.184,0.139,0.576,0.269,1.174,0.393l3.881,0.73l3.344-4.45l-1.322-2.375
			c-0.248-0.436-0.52-0.764-0.813-0.984c-0.43-0.322-0.869-0.414-1.32-0.272c-0.451,0.14-0.883,0.487-1.297,1.038
			c-0.047,0.062-0.107,0.064-0.182,0.01c-0.072-0.056-0.086-0.114-0.041-0.176c0.166-0.221,0.418-0.53,0.756-0.929
			c0.375-0.447,0.689-0.842,0.949-1.186c0.248-0.331,0.525-0.727,0.832-1.186c0.271-0.412,0.504-0.745,0.695-1.003
			c0.047-0.062,0.107-0.064,0.18-0.009c0.074,0.056,0.088,0.113,0.043,0.175c-0.258,0.343-0.408,0.682-0.447,1.017
			c-0.041,0.334,0.031,0.743,0.215,1.226c0.184,0.483,0.502,1.136,0.959,1.959l5.93,10.64c0.018,0.052-0.006,0.121-0.07,0.207
			c-0.063,0.085-0.119,0.121-0.166,0.106l-12.469-2.322c-1.203-0.233-2.078-0.329-2.619-0.285c-0.541,0.045-0.936,0.232-1.184,0.563
			C234.588,225.751,234.527,225.753,234.455,225.698z M246.314,220.023l-3.027,4.027l5.875,1.104L246.314,220.023z"/>
		<path fill="#CA962C" d="M232.309,230.146c-0.291-0.294-0.525-0.483-0.703-0.566c-0.178-0.082-0.359-0.075-0.545,0.021
			c-0.186,0.097-0.436,0.301-0.752,0.613l-0.982,0.97c-0.775,0.764-1.217,1.626-1.328,2.585c-0.109,0.959,0.111,1.891,0.656,2.793
			c0.021,0.045,0.004,0.091-0.057,0.139c-0.061,0.049-0.105,0.057-0.139,0.023c-0.914-1.123-1.705-2.022-2.373-2.699
			c-0.086-0.088-0.133-0.166-0.137-0.236c-0.004-0.072,0.043-0.155,0.141-0.252l7.662-7.56c0.021-0.022,0.064,0,0.131,0.065
			c0.064,0.065,0.086,0.109,0.063,0.131c-0.371,0.366-0.615,0.66-0.729,0.881c-0.115,0.222-0.125,0.441-0.029,0.659
			s0.305,0.49,0.629,0.817l7.479,7.581c0.324,0.327,0.59,0.536,0.801,0.632c0.211,0.093,0.434,0.083,0.668-0.029
			c0.232-0.112,0.529-0.346,0.891-0.701c0.021-0.021,0.064,0.001,0.129,0.066s0.088,0.108,0.064,0.13l-0.852,0.808
			c-0.5,0.451-0.904,0.829-1.211,1.13c-0.328,0.323-0.719,0.732-1.18,1.229l-0.801,0.823c-0.033,0.032-0.082,0.016-0.146-0.05
			c-0.066-0.065-0.082-0.114-0.049-0.146c0.361-0.355,0.596-0.646,0.705-0.874c0.111-0.228,0.117-0.449,0.021-0.667
			c-0.096-0.217-0.305-0.489-0.629-0.816L232.309,230.146z"/>
	</g>
	<g>
		<path fill="#CA962C" d="M128.067,268.119c0.01,0.287,0.144,0.522,0.399,0.705c0.256,0.184,0.697,0.374,1.324,0.573
			c0.055,0.018,0.065,0.082,0.03,0.192s-0.08,0.157-0.136,0.14c-0.59-0.188-1.057-0.347-1.4-0.476l-2.037-0.678l-1.998-0.605
			c-0.356-0.093-0.838-0.235-1.446-0.429c-0.056-0.018-0.065-0.082-0.03-0.192s0.08-0.157,0.136-0.14
			c0.626,0.199,1.097,0.299,1.412,0.297c0.315-0.001,0.569-0.118,0.766-0.351c0.195-0.231,0.381-0.624,0.557-1.177l4.067-12.796
			c0.176-0.553,0.249-0.976,0.221-1.269c-0.029-0.293-0.17-0.536-0.424-0.729c-0.253-0.191-0.693-0.388-1.318-0.587
			c-0.057-0.018-0.066-0.081-0.031-0.191c0.035-0.111,0.08-0.157,0.136-0.14l1.429,0.484c0.799,0.295,1.456,0.523,1.973,0.688
			c0.57,0.182,1.268,0.383,2.09,0.604l1.391,0.412c0.056,0.018,0.065,0.081,0.03,0.191c-0.035,0.111-0.08,0.157-0.136,0.14
			c-0.607-0.193-1.072-0.28-1.393-0.26c-0.321,0.02-0.574,0.147-0.761,0.382c-0.187,0.235-0.367,0.629-0.543,1.182l-4.05,12.741
			C128.143,267.403,128.057,267.832,128.067,268.119z"/>
		<path fill="#CA962C" d="M142.102,272.517c-0.284-0.059-0.646-0.128-1.084-0.208c-0.438-0.08-0.934-0.158-1.489-0.235l-2.044-0.253
			c-0.366-0.031-0.875-0.092-1.525-0.182c-0.039-0.005-0.051-0.065-0.034-0.181c0.016-0.114,0.042-0.169,0.081-0.164
			c0.65,0.09,1.131,0.107,1.441,0.053s0.543-0.213,0.695-0.475c0.153-0.262,0.27-0.681,0.35-1.255l1.837-13.301
			c0.079-0.574,0.085-1.003,0.017-1.285c-0.068-0.283-0.249-0.498-0.541-0.646c-0.291-0.147-0.754-0.266-1.385-0.353
			c-0.039-0.006-0.05-0.065-0.034-0.181c0.017-0.115,0.043-0.17,0.081-0.164l1.52,0.238c0.836,0.155,1.504,0.267,2.002,0.336
			c0.766,0.105,1.546,0.184,2.34,0.235c0.962,0.094,1.605,0.163,1.932,0.208c1.953,0.27,3.634,0.893,5.041,1.867
			c1.407,0.976,2.436,2.181,3.087,3.617c0.65,1.437,0.862,2.979,0.634,4.626c-0.256,1.857-0.914,3.44-1.973,4.748
			s-2.369,2.249-3.932,2.823c-1.563,0.574-3.217,0.741-4.959,0.501C143.564,272.807,142.879,272.683,142.102,272.517z
			 M147.601,271.813c1.112-0.49,2.04-1.313,2.786-2.47c0.744-1.156,1.236-2.596,1.475-4.319c0.227-1.646,0.16-3.174-0.202-4.58
			s-0.987-2.566-1.876-3.479s-1.994-1.461-3.314-1.644c-0.805-0.111-1.434-0.149-1.888-0.114s-0.8,0.168-1.036,0.398
			s-0.393,0.614-0.467,1.15l-1.785,12.928c-0.108,0.785,0.016,1.373,0.371,1.764s1.118,0.667,2.287,0.828
			C145.271,272.457,146.488,272.303,147.601,271.813z"/>
		<path fill="#CA962C" d="M176.043,255.539c0.16,0.065,0.262,0.13,0.307,0.194c0.043,0.064,0.094,0.211,0.15,0.438l0.648,3.789
			c0.004,0.058-0.041,0.101-0.137,0.127c-0.094,0.027-0.164,0.004-0.209-0.07c-0.625-1.541-1.467-2.687-2.525-3.438
			c-1.059-0.75-2.32-1.067-3.783-0.952c-1.408,0.11-2.639,0.562-3.689,1.353c-1.055,0.791-1.836,1.871-2.35,3.24
			c-0.512,1.368-0.699,2.93-0.561,4.684c0.137,1.734,0.586,3.256,1.35,4.563c0.762,1.308,1.74,2.292,2.938,2.954
			c1.197,0.661,2.508,0.937,3.934,0.824c1.408-0.111,2.549-0.574,3.426-1.391c0.875-0.815,1.607-2.062,2.191-3.736
			c0.016-0.06,0.072-0.083,0.17-0.071s0.148,0.037,0.15,0.075l-0.102,3.499c-0.002,0.232-0.023,0.38-0.066,0.441
			c-0.045,0.062-0.141,0.138-0.289,0.227c-1.678,0.85-3.49,1.352-5.436,1.505c-2.064,0.163-3.936-0.082-5.615-0.735
			c-1.68-0.652-3.029-1.651-4.047-2.997c-1.018-1.345-1.6-2.933-1.742-4.764c-0.145-1.812,0.201-3.468,1.033-4.969
			c0.83-1.501,2.035-2.716,3.609-3.645s3.375-1.474,5.398-1.634C172.936,254.882,174.686,255.045,176.043,255.539z"/>
		<path fill="#CA962C" d="M190.031,269.063c0.217,0.23,0.539,0.345,0.971,0.343s1.076-0.124,1.932-0.367
			c0.057-0.016,0.1,0.032,0.131,0.145c0.031,0.111,0.02,0.175-0.035,0.19c-0.764,0.217-1.361,0.376-1.795,0.479l-2.436,0.66
			l-2,0.598c-0.348,0.119-0.828,0.266-1.443,0.439c-0.055,0.016-0.1-0.032-0.131-0.144s-0.02-0.175,0.037-0.191
			c0.631-0.179,1.074-0.354,1.326-0.526c0.254-0.173,0.395-0.403,0.422-0.692c0.029-0.289-0.039-0.723-0.201-1.3l-3.664-12.917
			c-0.158-0.559-0.326-0.952-0.502-1.185c-0.176-0.23-0.422-0.356-0.74-0.378c-0.316-0.02-0.783,0.057-1.396,0.23
			c-0.055,0.016-0.1-0.032-0.131-0.144s-0.02-0.175,0.035-0.191l1.459-0.383c0.83-0.195,1.496-0.364,1.998-0.506
			c0.428-0.122,0.939-0.298,1.537-0.527c0.219-0.081,0.516-0.186,0.893-0.313c0.375-0.127,0.824-0.265,1.344-0.412
			c1.842-0.522,3.408-0.544,4.699-0.066c1.291,0.479,2.166,1.526,2.625,3.145c0.332,1.172,0.313,2.253-0.061,3.242
			c-0.373,0.99-0.971,1.823-1.793,2.498c-0.824,0.676-1.729,1.153-2.713,1.433c-0.521,0.147-0.973,0.226-1.352,0.232
			c-0.057,0.016-0.098-0.022-0.123-0.116c-0.016-0.056-0.018-0.115-0.006-0.179s0.039-0.091,0.082-0.084
			c0.318-0.01,0.654-0.064,1.008-0.165c0.967-0.274,1.672-0.906,2.115-1.896s0.453-2.229,0.031-3.717
			c-0.416-1.469-1.084-2.511-2.002-3.125s-1.98-0.749-3.189-0.406c-0.447,0.126-0.773,0.27-0.979,0.428
			c-0.207,0.159-0.32,0.377-0.342,0.654c-0.023,0.278,0.043,0.687,0.195,1.226l3.617,12.75
			C189.623,268.421,189.816,268.834,190.031,269.063z"/>
	</g>
	<g>
		<g>
			<path fill="#CA962C" d="M142.576,181.538v23.494h36.412v-23.57c0,0,0.586-17.258-17.898-17.258
				C142.604,164.204,142.576,181.538,142.576,181.538z M168.525,181.233c1.029,0.625,1.074,2.43,0.098,4.029
				c-0.975,1.598-2.6,2.385-3.629,1.756c-1.029-0.627-1.072-2.432-0.098-4.031C165.871,181.392,167.494,180.603,168.525,181.233z
				 M161.148,179.501c0.383-1.834,1.646-3.121,2.826-2.877c1.184,0.246,1.832,1.93,1.451,3.764
				c-0.379,1.832-1.645,3.119-2.826,2.875C161.42,183.019,160.771,181.335,161.148,179.501z M163.088,185.147
				c0.369,0.615,0.412,1.447,0.826,2.027c0.113,0.16,0.258,0.301,0.441,0.416c1.047,0.629,1.934,1.512,1.934,2.814
				c0,1.197-0.707,2.334-1.783,2.838c-1.486,0.693-2.359-0.615-3.76-0.596c-0.6,0.008-1.205,0.279-1.762,0.477
				c-1.633,0.574-3.217,0.174-3.707-1.615c-0.361-1.324,0.049-3.004,1.34-3.717c1.104-0.609,0.959-1.486,1.434-2.52
				c0.443-0.951,1.514-1.535,2.545-1.535C161.666,183.737,162.539,184.229,163.088,185.147z M157.467,176.624
				c1.184-0.244,2.449,1.043,2.826,2.877c0.383,1.834-0.268,3.518-1.449,3.762c-1.18,0.244-2.445-1.043-2.824-2.875
				C155.639,178.554,156.287,176.87,157.467,176.624z M152.92,181.233c1.029-0.631,2.654,0.158,3.631,1.754
				c0.975,1.6,0.93,3.404-0.1,4.031c-1.031,0.629-2.652-0.158-3.629-1.756C151.848,183.663,151.891,181.858,152.92,181.233z"/>
			<g>
				<path fill="#CA962C" d="M205.5,177.88l-44.451-39.868l-44.879,39.612l1.555,1.758l11.932-10.529v47.963h2.35v-3.521h57.553
					v3.521h2.35v-47.969l12.023,10.779L205.5,177.88z M189.559,210.942h-57.553v-44.164l29.031-25.621l28.521,25.582V210.942z"/>
				<path fill="#CA962C" d="M191.908,217.243h-2.35c-0.234,0-0.426-0.191-0.426-0.428v-3.096h-56.699v3.096
					c0,0.236-0.191,0.428-0.428,0.428h-2.35c-0.236,0-0.428-0.191-0.428-0.428V169.8l-11.221,9.902
					c-0.176,0.156-0.447,0.141-0.604-0.035l-1.555-1.76c-0.076-0.086-0.113-0.197-0.105-0.311c0.006-0.113,0.059-0.219,0.143-0.295
					l44.879-39.611c0.162-0.143,0.406-0.143,0.568,0.003l44.451,39.868c0.084,0.076,0.137,0.182,0.143,0.295
					s-0.033,0.225-0.109,0.309l-1.568,1.748c-0.158,0.176-0.428,0.189-0.605,0.033l-11.307-10.143v47.012
					C192.338,217.052,192.145,217.243,191.908,217.243z M189.986,216.39h1.496v-47.543c0-0.17,0.098-0.322,0.254-0.391
					c0.154-0.066,0.332-0.041,0.459,0.072l11.703,10.496l0.998-1.111l-43.852-39.329l-44.271,39.077l0.99,1.119l11.611-10.246
					c0.125-0.113,0.303-0.139,0.457-0.07c0.152,0.07,0.252,0.223,0.252,0.389v47.537h1.494v-3.096c0-0.236,0.191-0.428,0.428-0.428
					h57.553c0.238,0,0.428,0.191,0.428,0.428V216.39z M189.559,211.37h-57.553c-0.236,0-0.428-0.191-0.428-0.428v-44.164
					c0-0.121,0.053-0.24,0.145-0.32l29.031-25.621c0.162-0.145,0.406-0.143,0.568,0.002l28.521,25.582
					c0.092,0.082,0.143,0.195,0.143,0.318v44.203C189.986,211.179,189.797,211.37,189.559,211.37z M132.434,210.517h56.699v-43.586
					l-28.098-25.201l-28.602,25.242V210.517z"/>
			</g>
		</g>
		<g>
			<g>
				<path fill="#CA962C" d="M147.338,125.245c0.102,0.249,0.393,0.365,0.629,0.262c0.246-0.102,0.365-0.383,0.266-0.629l0,0
					c0-0.003,0-0.003,0-0.003l-3.756-9.12l-6.078-14.775c-0.078-0.188-0.258-0.301-0.447-0.301c0,0,0,0-0.004,0l0,0
					c-0.061,0-0.121,0.012-0.182,0.036c-0.246,0.101-0.365,0.382-0.264,0.63l6.08,14.775L147.338,125.245z"/>
				<path fill="#CA962C" d="M155.951,122.828c0.033,0.265,0.295,0.46,0.541,0.411c0.133-0.012,0.242-0.082,0.32-0.181
					c0.074-0.101,0.113-0.226,0.098-0.356l-1.814-14.019l-1.498-11.612c-0.016-0.119-0.08-0.227-0.168-0.301
					c-0.082-0.075-0.193-0.119-0.314-0.119c-0.02,0-0.041,0.004-0.061,0.006c-0.264,0.033-0.449,0.274-0.418,0.539l1.5,11.61
					L155.951,122.828z"/>
				<path fill="#CA962C" d="M165.313,123.263c0.289,0.046,0.506-0.149,0.541-0.416l3.436-25.609c0.035-0.262-0.15-0.51-0.414-0.542
					c-0.023-0.005-0.043-0.005-0.064-0.005c-0.238,0-0.443,0.176-0.479,0.418l-3.436,25.614
					C164.863,122.986,165.047,123.228,165.313,123.263z"/>
				<path fill="#CA962C" d="M174.455,125.309l9.949-23.856c0.102-0.242-0.014-0.526-0.258-0.627
					c-0.063-0.027-0.125-0.037-0.189-0.037c-0.188,0-0.367,0.107-0.443,0.293l-9.945,23.854c-0.104,0.244,0.014,0.532,0.258,0.632
					C174.076,125.665,174.355,125.553,174.455,125.309z"/>
				<path fill="#CA962C" d="M181.455,129.991c0.213,0.164,0.514,0.126,0.68-0.085l15.777-20.464
					c0.162-0.211,0.123-0.516-0.088-0.678c-0.086-0.068-0.189-0.104-0.295-0.104c-0.143,0-0.285,0.068-0.383,0.189l-15.777,20.467
					C181.207,129.528,181.246,129.831,181.455,129.991z"/>
				<path fill="#CA962C" d="M187.682,136.246c0.158,0.21,0.463,0.255,0.674,0.089l20.537-15.684
					c0.213-0.162,0.252-0.463,0.092-0.678c-0.098-0.122-0.236-0.188-0.385-0.188c-0.1,0-0.205,0.03-0.289,0.098l-20.539,15.687
					C187.557,135.733,187.52,136.036,187.682,136.246z"/>
				<path fill="#CA962C" d="M124.004,128.972l9.387,7.241c0.209,0.163,0.514,0.122,0.678-0.092c0.08-0.104,0.111-0.234,0.094-0.356
					c-0.018-0.125-0.078-0.236-0.184-0.32l-11.08-8.541l-9.385-7.238c-0.09-0.068-0.193-0.1-0.295-0.1
					c-0.145,0-0.287,0.062-0.383,0.184l0,0c0,0.002-0.002,0-0.002,0.002c-0.16,0.212-0.121,0.516,0.088,0.678L124.004,128.972z"/>
				<path fill="#CA962C" d="M132.533,120.497l7.109,9.313c0.16,0.211,0.465,0.252,0.676,0.09c0.105-0.081,0.168-0.198,0.184-0.324
					c0.018-0.117-0.016-0.248-0.094-0.353l-7.111-9.31l-8.572-11.229c-0.096-0.124-0.238-0.193-0.383-0.193
					c-0.102,0-0.205,0.036-0.291,0.104l0,0h-0.002c-0.217,0.161-0.252,0.462-0.092,0.673L132.533,120.497z"/>
				<path fill="#CA962C" d="M121.055,134.345l9.854,5.689c0.223,0.134,0.523,0.057,0.656-0.178c0.066-0.11,0.08-0.244,0.051-0.363
					c-0.033-0.12-0.111-0.229-0.229-0.295l-9.854-5.688c-0.074-0.048-0.156-0.066-0.24-0.066c-0.166,0-0.326,0.088-0.418,0.242
					c-0.066,0.116-0.078,0.246-0.047,0.365C120.861,134.17,120.939,134.278,121.055,134.345z"/>
				<path fill="#CA962C" d="M128.205,124.815l8.047,8.046c0.188,0.188,0.494,0.188,0.682,0c0.096-0.097,0.141-0.218,0.141-0.343
					s-0.045-0.246-0.141-0.342l-8.045-8.045c-0.094-0.095-0.219-0.143-0.342-0.143s-0.244,0.048-0.342,0.143
					c-0.094,0.094-0.139,0.219-0.139,0.342S128.111,124.724,128.205,124.815z"/>
				<path fill="#CA962C" d="M137.584,117.464l5.688,9.852c0.139,0.23,0.436,0.309,0.66,0.178c0.115-0.07,0.191-0.178,0.223-0.297
					s0.021-0.25-0.047-0.363l-5.688-9.855c-0.09-0.154-0.252-0.24-0.418-0.24c-0.082,0-0.164,0.021-0.242,0.064
					c-0.113,0.068-0.189,0.175-0.225,0.293C137.506,117.214,137.518,117.347,137.584,117.464z"/>
				<path fill="#CA962C" d="M151.49,123.774c0.068,0.258,0.334,0.401,0.592,0.342c0.256-0.07,0.406-0.333,0.338-0.591l0,0l0,0
					l-2.945-10.991c-0.055-0.213-0.252-0.356-0.463-0.356c-0.041,0-0.084,0.005-0.123,0.015c-0.26,0.069-0.412,0.335-0.346,0.592
					l0,0l0,0L151.49,123.774z"/>
				<path fill="#CA962C" d="M160.824,122.967c0.27,0,0.484-0.22,0.484-0.487l0,0v-11.372v-0.003c0-0.268-0.215-0.486-0.484-0.486
					c-0.264,0-0.482,0.219-0.482,0.486v0.003v11.372l0,0C160.342,122.747,160.561,122.967,160.824,122.967z"/>
				<path fill="#CA962C" d="M169.574,124.116c0.248,0.06,0.518-0.084,0.586-0.342l2.945-10.99c0.068-0.257-0.082-0.522-0.342-0.588
					c-0.039-0.012-0.08-0.019-0.125-0.019c-0.213,0-0.408,0.144-0.463,0.36l-2.945,10.987
					C169.158,123.783,169.313,124.046,169.574,124.116z"/>
				<path fill="#CA962C" d="M183.891,116.802c-0.074-0.043-0.16-0.064-0.24-0.064c-0.164,0-0.33,0.088-0.418,0.244l-5.689,9.852
					c-0.131,0.227-0.053,0.525,0.178,0.66c0.227,0.131,0.523,0.053,0.658-0.178l5.689-9.852
					C184.201,117.233,184.121,116.938,183.891,116.802z"/>
				<path fill="#CA962C" d="M185.398,132.861l8.047-8.046c0.188-0.188,0.188-0.494,0-0.68c-0.094-0.099-0.219-0.141-0.34-0.141
					c-0.123,0-0.248,0.042-0.34,0.141l-8.047,8.041c-0.191,0.192-0.191,0.496,0,0.685
					C184.906,133.049,185.209,133.049,185.398,132.861z"/>
				<path fill="#CA962C" d="M190.746,140.034l9.854-5.689c0.23-0.132,0.309-0.426,0.176-0.656c-0.09-0.156-0.252-0.244-0.416-0.244
					c-0.086,0-0.168,0.022-0.242,0.068l-9.854,5.688c-0.23,0.133-0.311,0.426-0.18,0.656
					C190.227,140.091,190.523,140.168,190.746,140.034z"/>
			</g>
			<path fill="#CA962C" d="M160.842,122.236c19.033,0,34.52,15.483,34.52,34.517c0,0.487-0.395,0.881-0.881,0.881
				c-0.484,0-0.879-0.394-0.879-0.881c0-18.061-14.695-32.756-32.76-32.756c-18.063,0-32.758,14.695-32.758,32.756
				c0,0.487-0.395,0.881-0.879,0.881c-0.488,0-0.883-0.394-0.883-0.881C126.322,137.72,141.809,122.236,160.842,122.236z"/>
		</g>
	</g>
</g>
</svg>
