<?xml version="1.0" encoding="utf-8"?>
<svg version="1.1" xmlns="http://www.w3.org/2000/svg" xmlns:xlink="http://www.w3.org/1999/xlink" viewBox="0 0 119 118">
<g>
	<g>
		<g>
			<path fill="#F1E1C1" d="M117.881,57.91l-4.75-3.603l4.053-4.372c0.294-0.316,0.419-0.742,0.344-1.168
				c-0.073-0.423-0.337-0.781-0.721-0.978l-5.306-2.723l3.233-5.011c0.233-0.363,0.281-0.803,0.135-1.209
				c-0.147-0.405-0.469-0.71-0.881-0.838l-5.695-1.76l2.313-5.496c0.168-0.398,0.139-0.841-0.075-1.215
				c-0.218-0.374-0.587-0.619-1.016-0.672l-5.913-0.745l1.322-5.813c0.093-0.408-0.005-0.83-0.266-1.156
				c-0.26-0.327-0.649-0.515-1.066-0.515l-6.023,0.295l0.293-5.956c0.019-0.377-0.114-0.736-0.375-1.008
				c-0.328-0.346-0.829-0.497-1.294-0.392l-5.813,1.323l-0.745-5.916c-0.086-0.683-0.671-1.196-1.357-1.196
				c-0.182,0-0.361,0.036-0.53,0.107l-5.495,2.312l-1.761-5.695c-0.178-0.577-0.702-0.964-1.308-0.964
				c-0.261,0-0.517,0.076-0.739,0.219l-5.01,3.231l-2.723-5.303c-0.236-0.459-0.702-0.744-1.218-0.744
				c-0.346,0-0.676,0.13-0.929,0.365l-4.373,4.052l-3.603-4.75c-0.261-0.344-0.659-0.542-1.089-0.542
				c-0.431,0-0.829,0.198-1.089,0.542l-3.604,4.75l-4.372-4.052c-0.254-0.235-0.584-0.365-0.928-0.365
				c-0.514,0-0.982,0.285-1.217,0.744l-2.724,5.303l-5.01-3.231c-0.222-0.144-0.478-0.219-0.74-0.219
				c-0.604,0-1.13,0.387-1.308,0.964l-1.76,5.695l-5.497-2.312c-0.169-0.071-0.348-0.107-0.531-0.107
				c-0.687,0-1.271,0.514-1.355,1.197l-0.746,5.915l-5.813-1.323c-0.466-0.105-0.967,0.046-1.295,0.392
				c-0.26,0.273-0.393,0.631-0.374,1.009l0.294,5.955l-5.955-0.294l-0.069-0.002c-0.417,0-0.807,0.188-1.067,0.516
				c-0.262,0.326-0.357,0.748-0.265,1.156l1.324,5.813l-5.915,0.745c-0.428,0.053-0.798,0.298-1.013,0.672
				c-0.216,0.374-0.245,0.816-0.077,1.215l2.313,5.495l-5.695,1.76c-0.413,0.128-0.734,0.433-0.882,0.839
				c-0.148,0.406-0.098,0.846,0.136,1.208l3.231,5.011l-5.305,2.723c-0.383,0.197-0.646,0.553-0.721,0.978
				c-0.075,0.425,0.051,0.851,0.344,1.167l4.052,4.373l-4.75,3.603C0.773,58.171,0.577,58.569,0.577,59
				c0.001,0.433,0.199,0.828,0.542,1.09l4.75,3.604l-4.052,4.371c-0.293,0.318-0.418,0.744-0.344,1.168
				c0.075,0.424,0.338,0.781,0.721,0.98l5.305,2.721l-3.231,5.014c-0.234,0.361-0.285,0.801-0.136,1.205
				c0.147,0.406,0.468,0.711,0.882,0.84l5.695,1.762l-2.313,5.494c-0.167,0.396-0.139,0.842,0.077,1.215
				c0.215,0.373,0.585,0.619,1.013,0.672l5.915,0.744l-1.324,5.813c-0.092,0.408,0.003,0.832,0.265,1.158
				c0.26,0.326,0.649,0.514,1.067,0.514l6.024-0.293l-0.294,5.953c-0.019,0.379,0.114,0.736,0.374,1.01
				c0.329,0.346,0.825,0.498,1.295,0.391l5.813-1.324l0.746,5.916c0.084,0.684,0.668,1.197,1.355,1.197
				c0.183,0,0.361-0.035,0.532-0.107l5.496-2.313l1.76,5.695c0.178,0.576,0.704,0.965,1.308,0.965c0.262,0,0.518-0.076,0.74-0.219
				l5.01-3.23l2.724,5.303c0.234,0.457,0.703,0.742,1.219,0.742c0.343,0,0.672-0.129,0.926-0.363l4.372-4.053l3.604,4.75
				c0.26,0.344,0.658,0.541,1.089,0.541c0.43,0,0.827-0.197,1.089-0.541l3.603-4.75l4.372,4.053c0.254,0.234,0.584,0.363,0.93,0.363
				c0.515,0,0.981-0.285,1.218-0.742l2.723-5.303l5.01,3.23c0.223,0.143,0.479,0.219,0.739,0.219c0.605,0,1.13-0.389,1.308-0.965
				l1.761-5.695l5.496,2.313c0.168,0.072,0.348,0.107,0.529,0.107c0.688,0,1.271-0.514,1.357-1.197l0.745-5.916l5.813,1.324
				c0.465,0.105,0.966-0.047,1.294-0.391c0.261-0.273,0.394-0.631,0.375-1.01l-0.293-5.953l5.954,0.291l0.069,0.002
				c0.417,0,0.807-0.188,1.066-0.514c0.261-0.326,0.358-0.748,0.266-1.158l-1.322-5.813l5.913-0.744
				c0.429-0.053,0.798-0.299,1.016-0.672c0.214-0.373,0.243-0.816,0.075-1.215l-2.313-5.494l5.695-1.762
				c0.413-0.129,0.734-0.434,0.881-0.838c0.146-0.406,0.099-0.846-0.135-1.207l-3.233-5.014l5.306-2.721
				c0.384-0.199,0.647-0.557,0.721-0.98c0.075-0.426-0.05-0.85-0.344-1.168l-4.053-4.371l4.75-3.604
				c0.345-0.262,0.542-0.659,0.542-1.09S118.226,58.171,117.881,57.91z M117.312,59.337l-5.581,4.233l4.761,5.137
				c0.092,0.098,0.131,0.23,0.106,0.361c-0.022,0.133-0.104,0.242-0.225,0.303l-6.229,3.201l3.796,5.885
				c0.073,0.113,0.088,0.248,0.044,0.373c-0.047,0.125-0.146,0.221-0.274,0.26l-6.692,2.068l2.719,6.457
				c0.053,0.121,0.043,0.26-0.023,0.375s-0.181,0.191-0.314,0.209l-6.948,0.875l1.555,6.826c0.038,0.174-0.034,0.301-0.082,0.361
				c-0.082,0.1-0.201,0.156-0.351,0.156c0,0-0.001,0-0.002,0l-6.995-0.344l0.344,6.994c0.006,0.119-0.034,0.23-0.115,0.314
				c-0.102,0.107-0.258,0.156-0.4,0.121l-6.828-1.555l-0.876,6.949c-0.039,0.314-0.357,0.434-0.584,0.336l-6.455-2.715l-2.068,6.689
				c-0.098,0.316-0.431,0.365-0.636,0.232l-5.885-3.797l-3.2,6.23c-0.086,0.17-0.251,0.23-0.376,0.23
				c-0.076,0-0.187-0.02-0.287-0.113l-5.137-4.762l-4.232,5.58c-0.162,0.215-0.513,0.215-0.675,0l-4.232-5.58l-5.136,4.762
				c-0.102,0.094-0.211,0.113-0.285,0.113c-0.126,0-0.292-0.061-0.379-0.23l-3.199-6.23l-5.885,3.797
				c-0.207,0.133-0.539,0.082-0.637-0.232l-2.067-6.689l-6.455,2.715c-0.227,0.098-0.545-0.021-0.584-0.336l-0.876-6.949
				l-6.83,1.555c-0.146,0.033-0.299-0.014-0.401-0.121c-0.08-0.084-0.122-0.195-0.116-0.313l0.345-6.996l-7.018,0.344
				c-0.128,0-0.249-0.057-0.33-0.156c-0.046-0.061-0.121-0.188-0.081-0.359l1.554-6.828l-6.948-0.875
				c-0.133-0.018-0.247-0.094-0.314-0.209c-0.066-0.115-0.075-0.254-0.023-0.375l2.716-6.457l-6.69-2.068
				c-0.127-0.039-0.228-0.135-0.273-0.26c-0.046-0.125-0.03-0.26,0.042-0.373l3.795-5.885l-6.229-3.201
				c-0.119-0.061-0.2-0.17-0.224-0.303c-0.023-0.133,0.016-0.264,0.107-0.361l4.76-5.137l-5.581-4.233
				C1.583,59.256,1.521,59.134,1.521,59c0-0.132,0.062-0.256,0.168-0.337l5.58-4.232l-4.76-5.137
				c-0.091-0.099-0.13-0.23-0.107-0.362c0.024-0.131,0.104-0.241,0.224-0.302l6.229-3.199L5.06,39.543
				c-0.073-0.112-0.088-0.249-0.042-0.373c0.046-0.125,0.146-0.221,0.273-0.26l6.69-2.068l-2.716-6.455
				c-0.051-0.124-0.042-0.26,0.023-0.377c0.067-0.115,0.181-0.191,0.314-0.207l6.948-0.875l-1.554-6.83
				c-0.04-0.174,0.034-0.298,0.081-0.358c0.081-0.101,0.202-0.159,0.351-0.159c0.001,0,0.001,0,0.001,0l6.997,0.345l-0.345-6.995
				c-0.005-0.117,0.036-0.228,0.116-0.312c0.102-0.107,0.254-0.155,0.401-0.122l6.83,1.554l0.876-6.949
				c0.039-0.315,0.36-0.429,0.583-0.337l6.456,2.717l2.067-6.691c0.098-0.314,0.43-0.365,0.637-0.231l5.885,3.797l3.199-6.23
				c0.087-0.17,0.252-0.23,0.377-0.23c0.075,0,0.186,0.02,0.287,0.113l5.136,4.761l4.232-5.58c0.162-0.214,0.513-0.214,0.675,0
				l4.232,5.58l5.137-4.761c0.101-0.093,0.211-0.113,0.287-0.113c0.125,0,0.29,0.061,0.376,0.23l3.2,6.23l5.885-3.797
				c0.205-0.132,0.538-0.083,0.636,0.231l2.068,6.691l6.455-2.717c0.225-0.096,0.545,0.022,0.584,0.337l0.876,6.949l6.828-1.554
				c0.146-0.034,0.299,0.015,0.4,0.122c0.081,0.084,0.121,0.195,0.115,0.312l-0.344,6.995l7.018-0.344
				c0.129,0,0.248,0.058,0.33,0.159c0.048,0.059,0.12,0.185,0.082,0.357l-1.555,6.83l6.948,0.875
				c0.134,0.016,0.248,0.092,0.314,0.207c0.066,0.117,0.076,0.253,0.023,0.377l-2.719,6.455l6.692,2.068
				c0.128,0.04,0.228,0.135,0.274,0.26c0.044,0.125,0.029,0.262-0.042,0.374l-3.798,5.885l6.229,3.199
				c0.121,0.061,0.202,0.171,0.225,0.303c0.024,0.131-0.015,0.263-0.106,0.361l-4.761,5.137l5.581,4.232
				c0.106,0.081,0.168,0.203,0.168,0.337S117.418,59.256,117.312,59.337z"/>
			<path fill="#F1E1C1" d="M59.501,118.041c-0.469,0-0.9-0.215-1.183-0.588l-3.525-4.648l-4.279,3.965
				c-0.274,0.256-0.632,0.396-1.005,0.396c-0.561,0-1.067-0.309-1.323-0.807l-2.666-5.188l-4.9,3.16
				c-0.242,0.156-0.52,0.238-0.804,0.238c-0.656,0-1.226-0.42-1.421-1.047l-1.722-5.572l-5.375,2.262
				c-0.187,0.078-0.38,0.117-0.577,0.117c-0.746,0-1.379-0.559-1.471-1.299l-0.73-5.789l-5.687,1.295
				c-0.5,0.117-1.05-0.051-1.406-0.424c-0.283-0.297-0.427-0.686-0.408-1.096l0.288-5.824l-5.895,0.287l0,0
				c-0.46,0-0.882-0.203-1.165-0.559c-0.283-0.354-0.387-0.811-0.287-1.256l1.295-5.686L9.47,89.25
				c-0.464-0.057-0.864-0.322-1.1-0.73c-0.233-0.404-0.265-0.887-0.082-1.318l2.261-5.373l-5.572-1.723
				c-0.449-0.141-0.798-0.473-0.958-0.912c-0.159-0.441-0.105-0.918,0.149-1.311l3.162-4.904l-5.188-2.664
				c-0.417-0.213-0.704-0.6-0.785-1.061c-0.082-0.461,0.055-0.924,0.373-1.27l3.965-4.277l-4.649-3.525
				C0.673,59.898,0.46,59.468,0.46,59s0.213-0.9,0.587-1.183l4.649-3.525L1.73,50.014c-0.318-0.343-0.455-0.805-0.373-1.266
				c0.08-0.461,0.366-0.848,0.785-1.063l5.188-2.664L4.168,40.12c-0.255-0.395-0.308-0.872-0.148-1.312
				c0.161-0.44,0.508-0.773,0.958-0.911l5.571-1.722l-2.261-5.376c-0.181-0.434-0.152-0.914,0.082-1.319
				c0.234-0.406,0.636-0.672,1.1-0.73l5.788-0.728l-1.295-5.688c-0.1-0.443,0.005-0.9,0.287-1.255
				c0.283-0.356,0.707-0.56,1.159-0.56l0.073,0.002l5.828,0.287l-0.288-5.825c-0.02-0.41,0.125-0.799,0.408-1.095
				c0.353-0.371,0.906-0.537,1.406-0.425l5.687,1.294l0.73-5.787c0.091-0.741,0.725-1.299,1.471-1.299
				c0.198,0,0.392,0.039,0.576,0.117l5.376,2.261l1.722-5.571c0.195-0.626,0.765-1.046,1.421-1.046c0.284,0,0.562,0.082,0.804,0.237
				l4.9,3.161l2.666-5.188c0.254-0.498,0.76-0.807,1.321-0.807c0.375,0,0.733,0.141,1.007,0.396l4.279,3.964l3.525-4.647
				c0.283-0.373,0.713-0.588,1.183-0.588c0.468,0,0.899,0.215,1.183,0.588l3.524,4.647l4.278-3.964
				c0.274-0.256,0.633-0.396,1.008-0.396c0.561,0,1.066,0.31,1.321,0.807l2.663,5.188l4.903-3.161
				c0.239-0.156,0.517-0.237,0.802-0.237c0.656,0,1.226,0.42,1.42,1.046l1.725,5.572l5.373-2.262
				c0.185-0.078,0.379-0.117,0.576-0.117c0.746,0,1.38,0.559,1.474,1.298l0.729,5.788l5.687-1.294
				c0.5-0.113,1.051,0.054,1.404,0.425c0.281,0.294,0.427,0.683,0.408,1.095l-0.287,5.826l5.895-0.288l0,0
				c0.459,0,0.882,0.203,1.163,0.558c0.284,0.355,0.389,0.812,0.288,1.255l-1.296,5.688l5.787,0.728
				c0.465,0.059,0.866,0.325,1.102,0.729c0.234,0.408,0.265,0.889,0.082,1.319l-2.261,5.377l5.571,1.722
				c0.446,0.138,0.795,0.469,0.956,0.91c0.159,0.441,0.107,0.92-0.147,1.313l-3.163,4.901l5.19,2.664
				c0.418,0.214,0.704,0.602,0.783,1.063c0.083,0.461-0.054,0.924-0.373,1.267l-3.966,4.277l4.648,3.525
				c0.374,0.283,0.588,0.714,0.588,1.183s-0.214,0.898-0.588,1.182l-4.648,3.525l3.966,4.277c0.319,0.346,0.456,0.807,0.373,1.27
				c-0.079,0.459-0.365,0.848-0.783,1.061l-5.19,2.664l3.163,4.904c0.255,0.393,0.308,0.869,0.147,1.311
				c-0.16,0.439-0.507,0.771-0.956,0.912l-5.571,1.723l2.261,5.373c0.183,0.432,0.152,0.914-0.082,1.318
				c-0.235,0.408-0.637,0.674-1.102,0.73l-5.787,0.73l1.296,5.686c0.101,0.443-0.004,0.902-0.288,1.256
				c-0.283,0.355-0.706,0.559-1.158,0.559h-0.072l-5.827-0.287l0.287,5.824c0.018,0.412-0.127,0.801-0.408,1.096
				c-0.354,0.371-0.911,0.535-1.404,0.424l-5.687-1.295l-0.729,5.789c-0.094,0.74-0.728,1.299-1.474,1.299
				c-0.196,0-0.391-0.039-0.574-0.117l-5.375-2.262l-1.725,5.572c-0.194,0.627-0.764,1.047-1.42,1.047
				c-0.285,0-0.563-0.082-0.802-0.238l-4.903-3.16l-2.663,5.188c-0.255,0.498-0.761,0.807-1.321,0.807
				c-0.375,0-0.733-0.141-1.01-0.396l-4.276-3.965l-3.524,4.648C60.399,117.826,59.968,118.041,59.501,118.041z M54.824,112.459
				l3.681,4.854c0.238,0.314,0.601,0.494,0.997,0.494c0.393,0,0.757-0.18,0.997-0.496l3.678-4.852l4.468,4.141
				c0.232,0.215,0.535,0.334,0.851,0.334c0.472,0,0.898-0.262,1.112-0.68l2.783-5.42l5.119,3.301
				c0.203,0.133,0.437,0.201,0.675,0.201c0.552,0,1.032-0.354,1.197-0.883l1.797-5.818l5.616,2.363c0.154,0.064,0.318,0.1,0.483,0.1
				c0.629,0,1.162-0.473,1.241-1.098l0.762-6.043l5.938,1.354c0.423,0.094,0.887-0.045,1.185-0.357
				c0.236-0.25,0.358-0.578,0.342-0.926l-0.3-6.082l6.15,0.301c0.38,0,0.733-0.17,0.974-0.469c0.238-0.299,0.326-0.686,0.241-1.061
				l-1.352-5.938l0.129-0.016l5.914-0.744c0.391-0.049,0.729-0.271,0.928-0.615c0.196-0.344,0.222-0.75,0.069-1.111l-2.362-5.613
				l0.122-0.037l5.695-1.762c0.379-0.117,0.672-0.396,0.807-0.768s0.089-0.773-0.123-1.104l-3.304-5.121l5.421-2.781
				c0.351-0.18,0.592-0.506,0.659-0.895c0.069-0.389-0.048-0.779-0.315-1.07l-4.14-4.467l0.102-0.076l4.751-3.602
				c0.314-0.242,0.497-0.604,0.497-0.998c0-0.394-0.183-0.758-0.497-0.996l-4.853-3.682l4.14-4.466
				c0.268-0.29,0.385-0.679,0.315-1.068c-0.067-0.387-0.309-0.713-0.66-0.894l-5.42-2.782l0.069-0.109l3.232-5.01
				c0.214-0.331,0.26-0.735,0.125-1.106c-0.136-0.371-0.428-0.649-0.807-0.766l-5.817-1.799l2.362-5.614
				c0.152-0.364,0.127-0.768-0.069-1.111c-0.197-0.341-0.537-0.565-0.928-0.614l-6.043-0.761l0.027-0.126l1.324-5.813
				c0.085-0.373-0.003-0.759-0.241-1.057c-0.24-0.299-0.594-0.471-0.977-0.471l-6.147,0.302l0.3-6.084
				c0.017-0.346-0.105-0.674-0.342-0.922c-0.297-0.312-0.762-0.455-1.185-0.358l-5.938,1.351l-0.016-0.128l-0.746-5.916
				c-0.079-0.624-0.612-1.094-1.241-1.094c-0.167,0-0.329,0.033-0.485,0.099l-5.614,2.363l-0.036-0.124l-1.761-5.695
				c-0.165-0.527-0.646-0.882-1.197-0.882c-0.239,0-0.474,0.069-0.675,0.201L73.39,7.166l-0.06-0.114l-2.724-5.304
				c-0.214-0.419-0.641-0.679-1.112-0.679c-0.316,0-0.616,0.118-0.85,0.333l-4.469,4.141l-3.678-4.853
				c-0.24-0.315-0.602-0.496-0.997-0.496s-0.758,0.18-0.997,0.496l-3.681,4.853l-4.468-4.141c-0.232-0.215-0.533-0.333-0.849-0.333
				c-0.471,0-0.898,0.26-1.113,0.679l-2.783,5.418l-5.119-3.301c-0.202-0.131-0.436-0.201-0.676-0.201
				c-0.553,0-1.034,0.354-1.197,0.882l-1.798,5.818l-5.614-2.362c-0.156-0.066-0.319-0.099-0.486-0.099
				c-0.629,0-1.161,0.471-1.239,1.095l-0.761,6.043l-0.126-0.028l-5.813-1.323c-0.42-0.096-0.887,0.045-1.185,0.358
				c-0.236,0.249-0.359,0.578-0.342,0.923l0.3,6.084l-6.149-0.303c-0.379,0-0.735,0.172-0.973,0.472
				c-0.24,0.298-0.326,0.684-0.243,1.058l1.351,5.938L9.5,28.981c-0.392,0.049-0.73,0.273-0.927,0.614
				c-0.197,0.342-0.224,0.747-0.07,1.112l2.364,5.613l-5.82,1.799c-0.377,0.117-0.671,0.396-0.807,0.767
				c-0.133,0.371-0.089,0.774,0.125,1.106l3.302,5.119l-5.419,2.781c-0.353,0.18-0.592,0.507-0.66,0.895
				c-0.069,0.389,0.046,0.778,0.313,1.067l4.142,4.467l-4.854,3.682C0.875,58.242,0.694,58.605,0.694,59
				c0,0.395,0.18,0.758,0.495,0.998l4.854,3.678l-4.142,4.467c-0.268,0.291-0.382,0.682-0.313,1.07
				c0.068,0.389,0.31,0.715,0.66,0.895l5.419,2.781l-0.071,0.107l-3.23,5.014c-0.214,0.33-0.259,0.732-0.125,1.102
				c0.135,0.371,0.429,0.652,0.807,0.77l5.82,1.799l-2.364,5.613c-0.154,0.363-0.128,0.77,0.07,1.111
				c0.197,0.344,0.535,0.566,0.926,0.615l6.042,0.76l-1.351,5.938c-0.083,0.375,0.003,0.762,0.243,1.059
				c0.236,0.301,0.594,0.471,0.975,0.471l6.147-0.301l-0.3,6.082c-0.018,0.348,0.105,0.676,0.342,0.926
				c0.299,0.313,0.761,0.453,1.185,0.357l5.939-1.354L29.482,109c0.078,0.625,0.61,1.098,1.239,1.098c0.167,0,0.329-0.035,0.487-0.1
				l5.613-2.363l1.798,5.818c0.164,0.529,0.645,0.883,1.197,0.883c0.24,0,0.473-0.068,0.676-0.201l5.119-3.301l2.783,5.42
				c0.215,0.418,0.642,0.68,1.115,0.68c0.313,0,0.614-0.119,0.847-0.334L54.824,112.459z M59.5,117.088
				c-0.174,0-0.33-0.074-0.429-0.205l-4.155-5.479l-5.042,4.674c-0.129,0.119-0.271,0.145-0.365,0.145
				c-0.161,0-0.372-0.078-0.483-0.295l-3.14-6.115l-5.778,3.727c-0.087,0.057-0.194,0.088-0.301,0.088
				c-0.24,0-0.436-0.146-0.509-0.381l-2.03-6.568l-6.336,2.666c-0.065,0.027-0.135,0.041-0.21,0.041
				c-0.229,0-0.496-0.148-0.534-0.473l-0.861-6.822l-6.702,1.527c-0.182,0.043-0.383-0.018-0.512-0.154
				c-0.104-0.107-0.156-0.25-0.149-0.398l0.339-6.865l-6.889,0.338l0,0c-0.171,0-0.324-0.074-0.427-0.203
				c-0.06-0.076-0.155-0.236-0.102-0.459l1.525-6.701l-6.823-0.859c-0.168-0.021-0.315-0.117-0.4-0.266
				C9.104,87.9,9.092,87.727,9.158,87.57l2.666-6.338l-6.568-2.029c-0.164-0.053-0.29-0.174-0.349-0.334
				c-0.057-0.158-0.039-0.332,0.055-0.475l3.727-5.779l-6.117-3.141c-0.151-0.078-0.256-0.217-0.286-0.385
				c-0.028-0.17,0.021-0.34,0.137-0.463l4.672-5.041L1.618,59.43C1.481,59.327,1.403,59.171,1.403,59s0.078-0.327,0.215-0.43
				l5.478-4.154l-4.672-5.043c-0.117-0.125-0.166-0.293-0.137-0.461c0.03-0.169,0.135-0.31,0.287-0.386l6.116-3.14l-3.727-5.778
				c-0.093-0.143-0.112-0.316-0.054-0.476c0.058-0.161,0.185-0.283,0.349-0.333l6.567-2.03l-2.666-6.336
				c-0.066-0.157-0.055-0.332,0.029-0.48c0.084-0.147,0.231-0.245,0.402-0.266l6.821-0.859l-1.525-6.703
				c-0.052-0.221,0.042-0.382,0.103-0.457c0.106-0.133,0.258-0.204,0.441-0.204l6.874,0.339l-0.339-6.865
				c-0.005-0.15,0.046-0.292,0.147-0.398c0.132-0.137,0.33-0.195,0.514-0.156l6.702,1.526l0.861-6.822
				c0.052-0.424,0.475-0.542,0.744-0.431l6.337,2.667l2.03-6.568c0.073-0.235,0.268-0.381,0.509-0.381
				c0.106,0,0.213,0.03,0.302,0.087l5.777,3.727l3.14-6.116c0.111-0.217,0.322-0.294,0.481-0.294c0.096,0,0.238,0.026,0.367,0.146
				l5.042,4.671l4.155-5.477c0.194-0.258,0.664-0.259,0.859,0l4.156,5.477l5.041-4.673c0.104-0.094,0.23-0.144,0.367-0.144
				c0.159,0,0.369,0.077,0.48,0.293l3.141,6.117l5.776-3.727c0.088-0.057,0.195-0.087,0.302-0.087c0.242,0,0.437,0.146,0.51,0.382
				l2.03,6.567l6.334-2.667c0.269-0.113,0.694,0.004,0.747,0.43l0.858,6.822l6.704-1.526c0.179-0.043,0.382,0.02,0.511,0.156
				c0.103,0.105,0.155,0.248,0.147,0.397l-0.338,6.866l6.89-0.338l0,0c0.168,0,0.323,0.074,0.426,0.203
				c0.048,0.06,0.155,0.226,0.105,0.456l-1.527,6.704l6.821,0.859c0.17,0.021,0.316,0.118,0.401,0.266
				c0.085,0.148,0.096,0.324,0.03,0.481l-2.667,6.335l6.566,2.03c0.163,0.05,0.291,0.171,0.351,0.332
				c0.057,0.161,0.036,0.334-0.054,0.477l-3.729,5.778l6.115,3.14c0.152,0.076,0.256,0.216,0.287,0.386
				c0.028,0.168-0.021,0.336-0.136,0.462l-4.674,5.043l5.478,4.154c0.136,0.103,0.214,0.259,0.214,0.43
				c0,0.17-0.078,0.327-0.213,0.43l-5.479,4.156l4.674,5.041c0.115,0.127,0.164,0.295,0.136,0.461
				c-0.031,0.17-0.135,0.311-0.287,0.387l-6.115,3.141l3.728,5.779c0.091,0.141,0.112,0.313,0.056,0.475
				c-0.061,0.16-0.188,0.281-0.35,0.334l-6.568,2.029l2.667,6.336c0.066,0.158,0.055,0.332-0.03,0.48s-0.231,0.244-0.401,0.266
				l-6.821,0.859l1.527,6.701c0.05,0.225-0.045,0.383-0.105,0.459c-0.107,0.133-0.261,0.203-0.441,0.203l-6.874-0.338l0.338,6.863
				c0.008,0.152-0.045,0.295-0.148,0.4c-0.128,0.137-0.332,0.201-0.513,0.154l-6.701-1.527l-0.858,6.82
				c-0.053,0.432-0.476,0.547-0.747,0.434l-6.334-2.666l-2.03,6.566c-0.073,0.234-0.268,0.383-0.511,0.383
				c-0.105,0-0.212-0.031-0.301-0.088l-5.776-3.727l-3.141,6.115c-0.111,0.217-0.321,0.295-0.48,0.295
				c-0.096,0-0.236-0.025-0.367-0.143l-5.041-4.676l-4.156,5.479C59.833,117.012,59.672,117.088,59.5,117.088z M54.945,111.057
				l4.311,5.684c0.109,0.143,0.378,0.143,0.488,0l4.311-5.684l0.095,0.088l5.136,4.762c0.06,0.055,0.13,0.082,0.209,0.082
				c0.09,0,0.209-0.043,0.273-0.168l3.258-6.344l5.993,3.867c0.05,0.031,0.113,0.049,0.174,0.049c0.067,0,0.228-0.02,0.286-0.219
				l2.106-6.813l6.573,2.766c0.152,0.068,0.394,0,0.424-0.244l0.892-7.078l6.955,1.584c0.108,0.025,0.215-0.01,0.289-0.086
				c0.06-0.063,0.089-0.143,0.085-0.229l-0.353-7.123l7.124,0.352c0.107,0,0.194-0.039,0.256-0.117
				c0.035-0.041,0.088-0.133,0.06-0.258l-1.583-6.953l0.127-0.018l6.951-0.875c0.095-0.012,0.177-0.066,0.226-0.15
				s0.055-0.184,0.018-0.271l-2.769-6.576l0.124-0.037l6.69-2.068c0.093-0.029,0.167-0.098,0.2-0.189
				c0.031-0.09,0.02-0.188-0.032-0.268l-3.866-5.996l6.345-3.258c0.088-0.045,0.146-0.123,0.164-0.221
				c0.016-0.094-0.013-0.189-0.08-0.264l-4.848-5.229l0.104-0.078l5.58-4.232c0.078-0.058,0.121-0.147,0.121-0.244
				s-0.043-0.186-0.121-0.244l-5.684-4.311l4.849-5.232c0.066-0.07,0.095-0.167,0.079-0.262c-0.019-0.097-0.076-0.174-0.164-0.218
				l-6.345-3.258l0.069-0.109l3.798-5.886c0.051-0.08,0.063-0.179,0.031-0.271c-0.033-0.089-0.106-0.159-0.2-0.187l-6.814-2.107
				l2.769-6.573c0.037-0.089,0.031-0.189-0.018-0.273c-0.049-0.083-0.131-0.138-0.226-0.15l-7.078-0.891l0.026-0.126l1.557-6.83
				c0.028-0.126-0.024-0.215-0.06-0.258c-0.058-0.073-0.145-0.115-0.238-0.115L96.45,22.05l0.353-7.125
				c0.004-0.085-0.025-0.164-0.083-0.224c-0.076-0.08-0.191-0.113-0.291-0.089l-6.955,1.583l-0.016-0.129l-0.876-6.948
				c-0.029-0.242-0.271-0.31-0.424-0.245l-6.573,2.767l-0.038-0.123l-2.068-6.691c-0.042-0.137-0.148-0.218-0.285-0.218
				c-0.062,0-0.124,0.018-0.174,0.05l-5.994,3.867l-0.06-0.115l-3.198-6.23c-0.063-0.123-0.184-0.167-0.273-0.167
				c-0.079,0-0.149,0.028-0.21,0.082l-5.229,4.847l-4.311-5.682c-0.108-0.142-0.379-0.143-0.488,0l-4.311,5.682l-5.23-4.847
				c-0.059-0.055-0.129-0.082-0.208-0.082c-0.091,0-0.209,0.044-0.273,0.167l-3.258,6.345l-5.994-3.867
				c-0.05-0.033-0.113-0.051-0.174-0.051c-0.136,0-0.244,0.082-0.286,0.219l-2.105,6.813L30.84,8.873
				c-0.15-0.063-0.391,0.005-0.421,0.244l-0.893,7.077l-0.125-0.029l-6.829-1.554c-0.104-0.025-0.217,0.01-0.292,0.088
				c-0.056,0.06-0.086,0.141-0.082,0.225l0.353,7.125l-7.126-0.352c-0.107,0-0.194,0.038-0.255,0.114
				c-0.041,0.053-0.086,0.141-0.058,0.259l1.581,6.956l-7.076,0.891c-0.096,0.012-0.179,0.067-0.228,0.15
				c-0.047,0.084-0.054,0.184-0.016,0.273l2.766,6.573l-6.813,2.107c-0.093,0.028-0.166,0.097-0.198,0.188
				c-0.034,0.091-0.023,0.189,0.029,0.271l3.866,5.995l-6.346,3.257c-0.084,0.044-0.145,0.124-0.162,0.219
				c-0.017,0.095,0.013,0.191,0.077,0.262l4.849,5.232l-5.684,4.311C1.683,58.814,1.638,58.903,1.638,59s0.045,0.185,0.122,0.244
				l5.684,4.311l-4.847,5.23c-0.066,0.072-0.096,0.168-0.079,0.264c0.017,0.094,0.077,0.174,0.162,0.219l6.346,3.258l-0.069,0.109
				L5.16,78.521c-0.053,0.082-0.065,0.178-0.032,0.268c0.032,0.092,0.105,0.16,0.199,0.189l6.813,2.105L9.374,87.66
				c-0.038,0.088-0.031,0.189,0.016,0.271c0.049,0.084,0.132,0.139,0.228,0.15l7.076,0.893l-1.581,6.953
				c-0.03,0.125,0.024,0.217,0.058,0.26c0.058,0.074,0.145,0.115,0.238,0.115l7.143-0.352l-0.353,7.123
				c-0.005,0.086,0.025,0.166,0.082,0.229c0.075,0.076,0.188,0.111,0.292,0.086l6.954-1.584l0.893,7.08
				c0.03,0.24,0.27,0.311,0.421,0.242l6.575-2.766l2.105,6.813c0.061,0.197,0.221,0.219,0.286,0.219
				c0.063,0,0.124-0.018,0.174-0.049l5.994-3.867l3.258,6.346c0.064,0.123,0.184,0.166,0.275,0.166c0.052,0,0.131-0.014,0.206-0.082
				L54.945,111.057z"/>
		</g>
		<path fill="#F1E1C1" d="M59.501,28.141c-17.017,0-30.86,13.843-30.86,30.859c0,17.016,13.844,30.861,30.86,30.861
			C76.517,89.861,90.36,76.016,90.36,59C90.36,41.984,76.517,28.141,59.501,28.141z M59.501,88.314
			c-16.165,0-29.315-13.15-29.315-29.314c0-16.163,13.15-29.313,29.315-29.313c16.162,0,29.313,13.15,29.313,29.313
			C88.814,75.164,75.663,88.314,59.501,88.314z"/>
	</g>
	<path fill="#F1E1C1" d="M59.501,107.59c-26.792,0-48.59-21.797-48.59-48.59c0-26.792,21.797-48.589,48.59-48.589
		c26.792,0,48.588,21.797,48.588,48.589C108.089,85.793,86.293,107.59,59.501,107.59z M59.501,11.815
		c-26.019,0-47.186,21.167-47.186,47.185s21.167,47.186,47.186,47.186c26.018,0,47.186-21.168,47.186-47.186
		S85.519,11.815,59.501,11.815z"/>
	<circle fill="#F1E1C1" cx="40.068" cy="93.01" r="1.197"/>
	<circle fill="#F1E1C1" cx="79.009" cy="93.293" r="1.197"/>
	<g>
		<path fill="#F1E1C1" d="M34.627,85.793c0.033-0.078,0.025-0.158-0.021-0.238c-0.045-0.08-0.138-0.186-0.281-0.318
			c-0.012-0.012-0.007-0.029,0.017-0.055c0.022-0.023,0.04-0.031,0.053-0.02c0.134,0.123,0.239,0.223,0.315,0.301l0.459,0.434
			l0.458,0.41c0.084,0.068,0.195,0.166,0.333,0.293c0.013,0.012,0.008,0.031-0.015,0.057c-0.023,0.023-0.042,0.031-0.053,0.02
			c-0.143-0.131-0.257-0.217-0.341-0.254c-0.085-0.039-0.167-0.039-0.249-0.002c-0.081,0.037-0.179,0.119-0.294,0.244l-2.676,2.914
			c-0.115,0.127-0.187,0.23-0.215,0.313c-0.029,0.082-0.021,0.162,0.021,0.246c0.044,0.084,0.138,0.189,0.28,0.32
			c0.013,0.012,0.007,0.031-0.016,0.055c-0.023,0.025-0.041,0.033-0.054,0.021l-0.322-0.307c-0.176-0.178-0.323-0.32-0.441-0.43
			c-0.13-0.119-0.291-0.26-0.482-0.42l-0.32-0.281c-0.013-0.012-0.008-0.031,0.016-0.057c0.023-0.025,0.041-0.031,0.053-0.02
			c0.138,0.127,0.251,0.207,0.34,0.242c0.087,0.035,0.172,0.031,0.25-0.008c0.079-0.039,0.176-0.123,0.292-0.248l2.664-2.9
			C34.517,85.975,34.593,85.871,34.627,85.793z"/>
		<path fill="#F1E1C1" d="M26.002,83.666c0.026-0.021,0.042-0.029,0.049-0.02c0.147,0.174,0.323,0.256,0.528,0.246
			c0.205-0.01,0.422-0.109,0.653-0.305l3.373-2.852c0.014-0.01,0.031-0.008,0.054,0.012c0.022,0.018,0.033,0.035,0.032,0.051
			l-0.971,6.064l2.655-2.244c0.231-0.195,0.369-0.389,0.413-0.584c0.046-0.193-0.006-0.377-0.154-0.553
			c-0.006-0.008,0.003-0.023,0.028-0.045c0.026-0.021,0.043-0.027,0.052-0.02c0.098,0.117,0.172,0.209,0.219,0.273l0.285,0.35
			l0.332,0.381c0.063,0.066,0.15,0.164,0.26,0.293c0.012,0.014,0.004,0.031-0.022,0.053c-0.025,0.023-0.045,0.027-0.055,0.014
			c-0.16-0.186-0.342-0.279-0.55-0.279c-0.209,0.002-0.429,0.1-0.658,0.295l-2.858,2.414c-0.027,0.23-0.026,0.418,0.005,0.561
			c0.03,0.143,0.089,0.266,0.177,0.369c0.007,0.01-0.002,0.025-0.027,0.047c-0.027,0.023-0.043,0.027-0.052,0.02l-0.213-0.268
			c-0.044-0.059-0.109-0.143-0.198-0.246l-0.359-0.412c-0.049-0.047-0.104-0.109-0.167-0.184c-0.03-0.035-0.043-0.068-0.039-0.1
			c0.001-0.031,0.014-0.088,0.037-0.168l0.077-0.332l0.782-4.686l-2.31,1.951c-0.23,0.195-0.369,0.389-0.417,0.586
			c-0.047,0.197,0.002,0.379,0.146,0.549c0.007,0.01-0.003,0.023-0.028,0.045c-0.026,0.023-0.042,0.029-0.05,0.021l-0.219-0.273
			c-0.11-0.146-0.202-0.266-0.279-0.357c-0.073-0.086-0.177-0.199-0.312-0.34l-0.249-0.281
			C25.966,83.703,25.976,83.689,26.002,83.666z"/>
		<path fill="#F1E1C1" d="M25.361,81.836c0.299,0.082,0.664,0.063,1.096-0.059c0.01-0.006,0.023,0.006,0.039,0.033
			c0.017,0.025,0.017,0.043,0.003,0.053c-0.201,0.094-0.461,0.221-0.776,0.377c-0.314,0.154-0.547,0.279-0.699,0.369
			c-0.024,0.016-0.045,0.01-0.061-0.018c-0.016-0.027-0.011-0.047,0.012-0.063c0.108-0.064,0.079-0.232-0.085-0.506
			c-0.237-0.428-0.526-0.924-0.862-1.484c-0.174-0.289-0.362-0.59-0.566-0.906l-0.306-0.492c-0.111-0.188-0.206-0.314-0.282-0.385
			c-0.075-0.072-0.157-0.098-0.245-0.078c-0.022,0.008-0.041-0.002-0.057-0.025c-0.013-0.023-0.011-0.043,0.009-0.055
			c0.16-0.076,0.398-0.199,0.714-0.369c0.316-0.172,0.57-0.313,0.76-0.428c0.014-0.01,0.03,0,0.046,0.027
			c0.016,0.027,0.018,0.047,0.006,0.061c-0.346,0.275-0.554,0.557-0.624,0.844c-0.069,0.287-0.012,0.586,0.173,0.893
			c0.083,0.137,0.156,0.23,0.219,0.281c0.065,0.053,0.133,0.07,0.208,0.055c0.074-0.014,0.177-0.063,0.309-0.139l3.374-2.031
			c0.151-0.092,0.252-0.172,0.303-0.244c0.051-0.068,0.062-0.154,0.034-0.258c-0.029-0.104-0.101-0.248-0.215-0.439
			c-0.009-0.016,0.002-0.031,0.03-0.049c0.03-0.018,0.049-0.018,0.057-0.004c0.104,0.17,0.182,0.307,0.235,0.406l0.354,0.605
			l0.351,0.566c0.067,0.1,0.155,0.24,0.264,0.42c0.006,0.01-0.006,0.023-0.036,0.041c-0.029,0.018-0.047,0.021-0.053,0.012
			c-0.115-0.191-0.211-0.322-0.289-0.398c-0.079-0.076-0.164-0.109-0.254-0.098c-0.089,0.01-0.207,0.061-0.354,0.148l-3.388,2.039
			c-0.128,0.076-0.213,0.145-0.256,0.203c-0.044,0.061-0.059,0.129-0.044,0.209c0.013,0.076,0.06,0.182,0.139,0.314
			C24.823,81.563,25.062,81.752,25.361,81.836z"/>
		<path fill="#F1E1C1" d="M24.293,72.082c-0.006-0.018-0.01-0.033-0.006-0.049c0.001-0.016,0.004-0.025,0.01-0.027
			c0.42-0.117,0.796-0.248,1.126-0.389c0.043-0.018,0.076-0.021,0.101-0.014c0.025,0.008,0.047,0.035,0.068,0.082l1.454,3.41
			c0.007,0.016-0.006,0.031-0.038,0.045c-0.03,0.012-0.051,0.012-0.057-0.004c-0.077-0.178-0.145-0.303-0.205-0.373
			c-0.061-0.068-0.135-0.104-0.224-0.1c-0.088,0.004-0.21,0.039-0.367,0.105l-3.639,1.551c-0.158,0.066-0.266,0.131-0.327,0.191
			c-0.063,0.059-0.088,0.137-0.081,0.234c0.005,0.096,0.045,0.23,0.121,0.402c0.006,0.016-0.007,0.029-0.038,0.043
			s-0.051,0.012-0.057-0.002l-1.394-3.27c-0.021-0.053-0.009-0.088,0.038-0.107l1.016-0.453c0.01-0.004,0.023,0.008,0.041,0.033
			c0.018,0.027,0.021,0.047,0.007,0.059c-0.544,0.381-0.687,0.871-0.43,1.475l0.134,0.314c0.08,0.188,0.17,0.307,0.271,0.357
			c0.103,0.049,0.234,0.037,0.397-0.031l1.602-0.682l-0.321-0.754c-0.246-0.578-0.563-0.783-0.95-0.617
			c-0.016,0.008-0.029-0.004-0.042-0.033s-0.01-0.047,0.005-0.055l0.687-0.283l0.366-0.164c0.163-0.082,0.297-0.146,0.402-0.189
			c0.01-0.006,0.022,0.008,0.035,0.039c0.014,0.031,0.016,0.051,0.005,0.055c-0.451,0.191-0.551,0.582-0.301,1.168l0.318,0.746
			l1.783-0.76c0.173-0.074,0.279-0.158,0.319-0.252c0.042-0.096,0.025-0.227-0.047-0.393l-0.165-0.387
			c-0.298-0.701-0.828-1.002-1.59-0.9C24.313,72.111,24.301,72.102,24.293,72.082z"/>
		<path fill="#F1E1C1" d="M23.725,65.34c0.033-0.01,0.051-0.006,0.055,0.012l0.352,1.328c0.034,0.129-0.124,0.422-0.473,0.881
			c-0.349,0.461-0.855,1.041-1.521,1.74c0.043,0.119,0.074,0.211,0.092,0.277c0.032,0.121,0.064,0.266,0.096,0.434l1.842-0.486
			c0.17-0.045,0.291-0.094,0.36-0.145c0.068-0.049,0.105-0.121,0.11-0.213c0.006-0.094-0.016-0.232-0.067-0.422
			c-0.002-0.01,0.013-0.02,0.047-0.029c0.033-0.008,0.05-0.006,0.053,0.004c0.048,0.182,0.083,0.322,0.104,0.424l0.153,0.613
			l0.166,0.592c0.033,0.104,0.074,0.246,0.122,0.428c0.005,0.016-0.01,0.029-0.043,0.037c-0.033,0.01-0.053,0.006-0.057-0.01
			c-0.049-0.189-0.099-0.32-0.149-0.398c-0.05-0.078-0.12-0.125-0.207-0.137c-0.09-0.012-0.216,0.004-0.382,0.049l-3.823,1.01
			c-0.165,0.043-0.282,0.092-0.352,0.141c-0.069,0.051-0.107,0.125-0.114,0.221c-0.008,0.096,0.013,0.234,0.061,0.416
			c0.004,0.01-0.012,0.021-0.044,0.029c-0.034,0.01-0.051,0.008-0.055-0.002l-0.104-0.432c-0.054-0.246-0.1-0.443-0.139-0.592
			c-0.049-0.182-0.109-0.377-0.182-0.588c-0.023-0.068-0.053-0.154-0.085-0.256c-0.031-0.1-0.065-0.213-0.099-0.34
			c-0.126-0.479-0.13-0.875-0.013-1.186c0.119-0.311,0.346-0.51,0.682-0.6c0.303-0.08,0.598-0.068,0.884,0.035
			c0.286,0.105,0.539,0.277,0.755,0.521c0.548-0.627,0.968-1.143,1.262-1.543c0.296-0.402,0.495-0.742,0.602-1.021
			c0.107-0.277,0.129-0.529,0.07-0.756C23.677,65.361,23.693,65.348,23.725,65.34z M22.01,69.584
			c-0.094-0.359-0.251-0.592-0.472-0.699c-0.219-0.105-0.526-0.107-0.923-0.002c-0.445,0.117-0.736,0.275-0.873,0.473
			c-0.136,0.199-0.167,0.439-0.091,0.727c0.057,0.215,0.137,0.357,0.24,0.428c0.104,0.068,0.261,0.076,0.47,0.021l1.743-0.461
			C22.091,69.934,22.059,69.77,22.01,69.584z"/>
		<path fill="#F1E1C1" d="M17.959,59.803c0.034-0.004,0.052,0,0.053,0.012c0.021,0.227,0.118,0.395,0.291,0.506
			c0.173,0.109,0.41,0.15,0.71,0.123l4.397-0.404c0.018-0.002,0.03,0.012,0.039,0.039c0.008,0.027,0.007,0.047-0.004,0.061
			l-4.269,4.414l3.461-0.316c0.301-0.027,0.524-0.109,0.673-0.242c0.147-0.133,0.211-0.314,0.189-0.541
			c-0.001-0.012,0.017-0.018,0.05-0.021c0.035-0.004,0.053,0,0.053,0.012c0.014,0.154,0.022,0.27,0.023,0.35l0.033,0.451
			l0.056,0.502c0.014,0.09,0.028,0.221,0.044,0.391c0.001,0.016-0.015,0.025-0.048,0.029c-0.034,0.002-0.053-0.004-0.055-0.021
			c-0.022-0.242-0.119-0.424-0.29-0.543c-0.171-0.117-0.407-0.164-0.707-0.137l-3.725,0.344c-0.156,0.174-0.262,0.328-0.317,0.461
			c-0.058,0.135-0.08,0.27-0.067,0.404c0.002,0.014-0.015,0.02-0.048,0.023c-0.034,0.002-0.052-0.002-0.054-0.014l-0.022-0.34
			c0-0.074-0.008-0.18-0.02-0.314l-0.058-0.545c-0.013-0.068-0.023-0.15-0.032-0.246c-0.005-0.045,0.005-0.08,0.024-0.105
			c0.021-0.023,0.063-0.063,0.127-0.113l0.253-0.23l3.325-3.393l-3.011,0.275c-0.3,0.029-0.526,0.109-0.677,0.244
			c-0.151,0.133-0.216,0.311-0.196,0.533c0.001,0.01-0.016,0.018-0.05,0.021c-0.034,0.002-0.051-0.002-0.052-0.014l-0.023-0.35
			c-0.005-0.182-0.014-0.332-0.024-0.453c-0.011-0.111-0.029-0.266-0.06-0.457l-0.042-0.373
			C17.91,59.813,17.925,59.805,17.959,59.803z"/>
		<path fill="#F1E1C1" d="M23.646,53.122c0.035,0.002,0.051,0.018,0.048,0.046c-0.008,0.108-0.027,0.28-0.058,0.518
			c-0.029,0.238-0.049,0.411-0.057,0.519c-0.011,0.142-0.019,0.31-0.022,0.504c-0.003,0.193-0.009,0.344-0.018,0.453
			c-0.003,0.022-0.021,0.032-0.054,0.03c-0.035-0.003-0.05-0.016-0.049-0.038c0.014-0.165,0.005-0.287-0.026-0.366
			c-0.031-0.079-0.09-0.123-0.174-0.129c-0.084-0.007-0.232,0.03-0.446,0.11l-1.361,0.545l-0.163,2.061l0.89,0.48
			c0.164,0.087,0.313,0.136,0.451,0.147c0.198,0.015,0.354-0.044,0.468-0.178c0.112-0.134,0.179-0.33,0.2-0.584
			c0.002-0.029,0.021-0.042,0.054-0.039c0.034,0.003,0.049,0.018,0.048,0.047c-0.009,0.102-0.026,0.249-0.053,0.441
			c-0.027,0.214-0.047,0.402-0.059,0.561c-0.013,0.153-0.021,0.333-0.026,0.537c-0.003,0.183-0.008,0.333-0.018,0.453
			c-0.003,0.028-0.021,0.041-0.055,0.039c-0.035-0.003-0.05-0.018-0.047-0.047c0.012-0.159-0.009-0.294-0.063-0.407
			c-0.052-0.113-0.157-0.227-0.311-0.341c-0.155-0.114-0.384-0.255-0.691-0.422l-3.979-2.152c-0.015-0.013-0.022-0.039-0.019-0.079
			c0.002-0.04,0.013-0.062,0.031-0.066l4.37-1.759c0.423-0.167,0.715-0.312,0.877-0.433c0.161-0.122,0.248-0.259,0.26-0.413
			C23.594,53.131,23.612,53.118,23.646,53.122z M21.062,57.264l0.145-1.865l-2.061,0.825L21.062,57.264z"/>
		<path fill="#F1E1C1" d="M19.116,51.76c0.158,0.266,0.436,0.505,0.832,0.716c0.012,0.002,0.014,0.019,0.007,0.05
			c-0.007,0.03-0.019,0.043-0.036,0.041c-0.211-0.072-0.485-0.159-0.819-0.263c-0.336-0.105-0.59-0.176-0.761-0.214
			c-0.029-0.007-0.039-0.025-0.033-0.056c0.008-0.03,0.025-0.042,0.053-0.036c0.124,0.027,0.218-0.115,0.288-0.425
			c0.124-0.475,0.257-1.031,0.4-1.67c0.073-0.328,0.146-0.677,0.217-1.046l0.118-0.569c0.047-0.211,0.068-0.369,0.063-0.472
			c-0.007-0.104-0.047-0.179-0.125-0.226c-0.021-0.01-0.029-0.03-0.022-0.057c0.006-0.027,0.021-0.039,0.043-0.034
			c0.168,0.055,0.425,0.131,0.772,0.226c0.347,0.095,0.628,0.167,0.844,0.215c0.018,0.004,0.022,0.021,0.016,0.051
			c-0.008,0.03-0.02,0.046-0.038,0.048c-0.44-0.041-0.784,0.02-1.034,0.181c-0.249,0.159-0.413,0.415-0.489,0.764
			c-0.035,0.156-0.048,0.274-0.037,0.356c0.011,0.081,0.049,0.142,0.113,0.182c0.063,0.042,0.17,0.078,0.32,0.112l3.842,0.861
			c0.172,0.039,0.301,0.05,0.387,0.034c0.085-0.016,0.154-0.071,0.203-0.164c0.05-0.094,0.101-0.25,0.148-0.466
			c0.004-0.017,0.022-0.021,0.056-0.013c0.034,0.007,0.049,0.019,0.044,0.036c-0.043,0.194-0.079,0.347-0.11,0.457l-0.162,0.681
			l-0.137,0.653c-0.02,0.117-0.054,0.279-0.1,0.484c-0.002,0.012-0.021,0.014-0.055,0.005c-0.033-0.007-0.046-0.017-0.045-0.027
			c0.049-0.217,0.072-0.379,0.067-0.489c-0.006-0.108-0.044-0.19-0.117-0.245c-0.072-0.054-0.193-0.1-0.358-0.137l-3.86-0.864
			c-0.144-0.033-0.252-0.043-0.325-0.03c-0.073,0.014-0.131,0.053-0.175,0.119c-0.044,0.066-0.083,0.174-0.117,0.324
			C18.916,51.191,18.957,51.495,19.116,51.76z"/>
		<path fill="#F1E1C1" d="M25.25,46.472c0.083-0.001,0.154-0.039,0.209-0.112c0.058-0.075,0.116-0.202,0.18-0.386
			c0.006-0.016,0.024-0.018,0.057-0.007c0.032,0.011,0.045,0.025,0.04,0.041c-0.059,0.172-0.11,0.309-0.151,0.408l-0.216,0.595
			l-0.194,0.583c-0.03,0.105-0.076,0.245-0.138,0.422c-0.006,0.017-0.023,0.019-0.058,0.008c-0.031-0.012-0.045-0.025-0.039-0.041
			c0.063-0.183,0.096-0.32,0.098-0.414c0.002-0.092-0.029-0.168-0.097-0.228c-0.066-0.06-0.181-0.118-0.341-0.174l-3.737-1.299
			c-0.16-0.057-0.284-0.081-0.371-0.076c-0.086,0.006-0.159,0.045-0.218,0.119c-0.059,0.073-0.12,0.201-0.182,0.384
			c-0.007,0.016-0.025,0.019-0.058,0.007c-0.032-0.011-0.045-0.024-0.041-0.041l0.155-0.417c0.092-0.233,0.167-0.424,0.218-0.575
			c0.059-0.167,0.123-0.37,0.195-0.611l0.132-0.406c0.005-0.016,0.024-0.018,0.057-0.008c0.032,0.012,0.046,0.025,0.04,0.041
			c-0.061,0.178-0.091,0.313-0.086,0.409c0.003,0.095,0.038,0.17,0.105,0.227c0.068,0.057,0.182,0.113,0.344,0.17l3.719,1.294
			C25.038,46.444,25.164,46.473,25.25,46.472z"/>
		<path fill="#F1E1C1" d="M26.295,43.906c-0.406,0.258-0.85,0.393-1.329,0.404c-0.48,0.012-0.945-0.095-1.393-0.32
			c-0.524-0.262-0.907-0.62-1.15-1.072c-0.241-0.451-0.352-0.932-0.332-1.441c0.02-0.509,0.137-0.98,0.353-1.414
			c0.243-0.483,0.569-0.851,0.979-1.104c0.41-0.254,0.85-0.385,1.319-0.395c0.471-0.009,0.914,0.09,1.332,0.298
			c0.463,0.233,0.828,0.568,1.092,1.006c0.265,0.439,0.406,0.919,0.425,1.44c0.018,0.522-0.092,1.023-0.332,1.501
			C27.024,43.282,26.702,43.648,26.295,43.906z M27.369,41.512c-0.043-0.325-0.191-0.637-0.442-0.938
			c-0.25-0.301-0.598-0.563-1.041-0.784c-0.468-0.235-0.927-0.367-1.376-0.398c-0.45-0.031-0.851,0.045-1.204,0.228
			c-0.353,0.184-0.626,0.468-0.82,0.855c-0.247,0.494-0.263,0.966-0.044,1.415c0.217,0.45,0.638,0.832,1.265,1.146
			c0.484,0.242,0.961,0.381,1.435,0.417c0.472,0.036,0.89-0.032,1.253-0.204c0.363-0.172,0.634-0.436,0.812-0.792
			C27.359,42.151,27.414,41.836,27.369,41.512z"/>
		<path fill="#F1E1C1" d="M28.129,31.642c0.028,0.021,0.038,0.036,0.032,0.044c-0.136,0.183-0.176,0.373-0.122,0.569
			c0.055,0.198,0.205,0.387,0.446,0.567l3.542,2.638c0.014,0.009,0.014,0.029,0.002,0.054c-0.013,0.026-0.027,0.041-0.042,0.042
			l-6.126,0.433l2.788,2.077c0.241,0.179,0.462,0.27,0.662,0.269c0.2-0.001,0.366-0.092,0.502-0.275
			c0.007-0.009,0.024-0.003,0.052,0.017c0.027,0.021,0.038,0.036,0.031,0.044c-0.092,0.124-0.165,0.216-0.216,0.276l-0.277,0.358
			l-0.294,0.41c-0.051,0.076-0.125,0.183-0.228,0.32c-0.01,0.014-0.029,0.01-0.056-0.01c-0.027-0.021-0.036-0.038-0.025-0.051
			c0.145-0.196,0.195-0.396,0.146-0.598c-0.047-0.203-0.192-0.395-0.434-0.574l-3-2.235c-0.232,0.025-0.415,0.07-0.545,0.131
			c-0.131,0.063-0.238,0.149-0.32,0.258c-0.006,0.01-0.023,0.003-0.051-0.017c-0.028-0.021-0.038-0.036-0.032-0.045l0.211-0.269
			c0.049-0.056,0.115-0.139,0.196-0.249l0.319-0.443c0.036-0.058,0.083-0.127,0.141-0.204c0.027-0.036,0.057-0.057,0.089-0.062
			s0.089-0.005,0.171-0.001l0.34-0.001l4.741-0.302l-2.424-1.806c-0.242-0.18-0.463-0.271-0.665-0.272
			c-0.202,0-0.37,0.088-0.502,0.266c-0.007,0.009-0.023,0.003-0.052-0.017c-0.027-0.021-0.037-0.035-0.03-0.044l0.216-0.276
			c0.118-0.139,0.212-0.257,0.284-0.353c0.068-0.091,0.155-0.218,0.262-0.38l0.217-0.307C28.086,31.616,28.104,31.622,28.129,31.642
			z"/>
		<path fill="#F1E1C1" d="M36.825,30.47c0.023,0.025,0.025,0.048,0.005,0.067c-0.079,0.075-0.208,0.191-0.389,0.348
			c-0.18,0.157-0.311,0.272-0.389,0.347c-0.103,0.099-0.221,0.219-0.353,0.36c-0.132,0.142-0.238,0.25-0.316,0.325
			c-0.017,0.016-0.036,0.011-0.06-0.014c-0.023-0.024-0.027-0.045-0.011-0.061c0.12-0.114,0.195-0.211,0.224-0.291
			c0.031-0.08,0.016-0.151-0.043-0.212c-0.058-0.062-0.193-0.134-0.407-0.215l-1.376-0.505l-1.496,1.427l0.34,0.951
			c0.065,0.174,0.144,0.312,0.238,0.41c0.137,0.145,0.293,0.205,0.466,0.18c0.173-0.024,0.354-0.124,0.54-0.301
			c0.021-0.02,0.042-0.018,0.066,0.007c0.023,0.024,0.024,0.047,0.004,0.066c-0.074,0.071-0.186,0.169-0.333,0.294
			c-0.164,0.141-0.305,0.267-0.419,0.377c-0.112,0.105-0.237,0.233-0.377,0.383c-0.125,0.134-0.23,0.242-0.316,0.325
			c-0.021,0.02-0.042,0.018-0.066-0.007c-0.023-0.025-0.024-0.048-0.005-0.067c0.116-0.11,0.192-0.225,0.226-0.346
			c0.035-0.119,0.035-0.273-0.003-0.462c-0.039-0.188-0.116-0.447-0.233-0.775l-1.523-4.259c-0.003-0.021,0.01-0.044,0.038-0.072
			c0.028-0.027,0.052-0.037,0.067-0.028l4.427,1.61c0.426,0.159,0.741,0.247,0.941,0.264c0.202,0.017,0.356-0.027,0.468-0.134
			C36.78,30.443,36.801,30.446,36.825,30.47z M32.134,31.826l1.354-1.291l-2.084-0.763L32.134,31.826z"/>
		<path fill="#F1E1C1" d="M37.881,28.97c0.089,0.125,0.163,0.209,0.223,0.25c0.06,0.041,0.128,0.049,0.201,0.026
			c0.074-0.024,0.178-0.084,0.313-0.18l0.419-0.295c0.33-0.233,0.544-0.522,0.643-0.867c0.098-0.345,0.074-0.7-0.072-1.063
			c-0.005-0.017,0.005-0.033,0.029-0.047c0.025-0.015,0.042-0.015,0.053,0c0.267,0.466,0.501,0.843,0.705,1.132
			c0.027,0.038,0.038,0.069,0.036,0.096c-0.003,0.026-0.025,0.054-0.066,0.083L37.1,30.41c-0.009,0.007-0.024-0.004-0.043-0.032
			c-0.019-0.028-0.025-0.045-0.016-0.052c0.158-0.111,0.265-0.204,0.32-0.279c0.055-0.073,0.072-0.153,0.05-0.239
			c-0.021-0.086-0.082-0.198-0.181-0.338L34.95,26.24c-0.099-0.14-0.184-0.232-0.255-0.28c-0.072-0.047-0.153-0.058-0.247-0.03
			c-0.092,0.027-0.215,0.094-0.368,0.203c-0.01,0.006-0.024-0.004-0.043-0.031c-0.021-0.028-0.026-0.045-0.018-0.052l0.361-0.244
			c0.211-0.135,0.382-0.25,0.513-0.341c0.139-0.098,0.309-0.224,0.506-0.378l0.344-0.253c0.014-0.01,0.031-0.001,0.05,0.028
			c0.021,0.028,0.022,0.047,0.01,0.056c-0.155,0.109-0.258,0.201-0.313,0.278c-0.052,0.076-0.069,0.157-0.047,0.243
			c0.022,0.085,0.083,0.198,0.182,0.338L37.881,28.97z"/>
		<path fill="#F1E1C1" d="M44.428,25.951c-0.081,0.028-0.182,0.066-0.305,0.114c-0.123,0.046-0.259,0.103-0.411,0.169l-0.551,0.25
			c-0.098,0.049-0.235,0.111-0.413,0.189c-0.01,0.005-0.022-0.009-0.037-0.04c-0.013-0.032-0.015-0.05-0.004-0.054
			c0.177-0.078,0.301-0.147,0.371-0.208c0.069-0.062,0.103-0.136,0.101-0.227c-0.001-0.088-0.036-0.211-0.104-0.368l-1.583-3.625
			c-0.068-0.157-0.133-0.265-0.194-0.326c-0.06-0.062-0.139-0.087-0.235-0.079s-0.229,0.049-0.402,0.125
			c-0.01,0.004-0.023-0.009-0.036-0.041c-0.014-0.031-0.016-0.049-0.005-0.054l0.417-0.173c0.236-0.09,0.419-0.164,0.556-0.224
			c0.208-0.091,0.416-0.191,0.624-0.3c0.256-0.125,0.428-0.207,0.518-0.244c0.532-0.233,1.05-0.334,1.554-0.306
			c0.503,0.029,0.947,0.173,1.33,0.434c0.385,0.261,0.674,0.616,0.872,1.065c0.22,0.506,0.298,1.005,0.232,1.496
			c-0.064,0.491-0.249,0.93-0.554,1.313c-0.305,0.385-0.693,0.681-1.169,0.888C44.841,25.799,44.649,25.873,44.428,25.951z
			 M45.701,24.929c0.205-0.294,0.311-0.644,0.32-1.049c0.01-0.405-0.087-0.842-0.293-1.311c-0.196-0.449-0.448-0.822-0.754-1.121
			c-0.308-0.297-0.644-0.493-1.006-0.585c-0.363-0.093-0.726-0.061-1.085,0.097c-0.219,0.095-0.383,0.183-0.492,0.261
			s-0.175,0.164-0.199,0.258c-0.023,0.096-0.004,0.215,0.06,0.361l1.537,3.522c0.094,0.215,0.215,0.343,0.365,0.387
			c0.149,0.043,0.384-0.005,0.701-0.144C45.215,25.449,45.498,25.223,45.701,24.929z"/>
		<path fill="#F1E1C1" d="M49.556,23.702c-0.459-0.142-0.851-0.392-1.169-0.75c-0.321-0.358-0.54-0.781-0.661-1.268
			c-0.139-0.569-0.116-1.093,0.072-1.57c0.188-0.477,0.482-0.874,0.882-1.189c0.4-0.314,0.835-0.531,1.306-0.646
			c0.524-0.129,1.017-0.12,1.476,0.029c0.459,0.148,0.844,0.397,1.156,0.749c0.313,0.351,0.523,0.753,0.636,1.208
			c0.124,0.502,0.105,0.997-0.057,1.483c-0.163,0.485-0.437,0.904-0.821,1.257c-0.386,0.353-0.837,0.593-1.358,0.721
			C50.503,23.852,50.016,23.844,49.556,23.702z M52.076,22.967c0.218-0.244,0.36-0.559,0.427-0.945
			c0.065-0.386,0.04-0.819-0.079-1.3c-0.125-0.508-0.321-0.944-0.59-1.306c-0.267-0.362-0.586-0.618-0.953-0.768
			c-0.369-0.149-0.763-0.173-1.184-0.07c-0.535,0.132-0.905,0.427-1.105,0.884c-0.202,0.457-0.218,1.025-0.051,1.705
			c0.129,0.525,0.332,0.979,0.611,1.363c0.279,0.383,0.602,0.656,0.969,0.821c0.365,0.166,0.742,0.2,1.128,0.105
			C51.582,23.375,51.857,23.212,52.076,22.967z"/>
		<path fill="#F1E1C1" d="M56.154,22.437c-0.491-0.213-0.876-0.52-1.153-0.92c-0.279-0.401-0.434-0.856-0.468-1.368
			c-0.037-0.546,0.073-1.038,0.329-1.478c0.255-0.44,0.626-0.792,1.111-1.055c0.484-0.264,1.036-0.416,1.655-0.458
			c0.284-0.02,0.562-0.015,0.835,0.012c0.272,0.027,0.498,0.078,0.673,0.151c0.053,0.02,0.084,0.038,0.094,0.054
			c0.009,0.017,0.02,0.061,0.03,0.135l0.187,1.117c0.001,0.018-0.015,0.03-0.045,0.038c-0.03,0.008-0.05,0.001-0.056-0.022
			c-0.144-0.35-0.385-0.663-0.722-0.94c-0.339-0.276-0.758-0.398-1.258-0.364c-0.392,0.026-0.742,0.149-1.05,0.37
			c-0.308,0.22-0.541,0.521-0.701,0.906s-0.223,0.822-0.191,1.31c0.035,0.517,0.167,0.98,0.397,1.39
			c0.23,0.41,0.539,0.725,0.928,0.944c0.389,0.219,0.824,0.313,1.307,0.28c0.245-0.017,0.433-0.057,0.565-0.123
			s0.225-0.176,0.278-0.327c0.052-0.152,0.069-0.37,0.05-0.654c-0.02-0.296-0.051-0.5-0.093-0.615
			c-0.041-0.113-0.123-0.187-0.242-0.219c-0.118-0.032-0.322-0.038-0.612-0.018c-0.034,0.001-0.054-0.02-0.056-0.065
			c-0.002-0.018,0.002-0.033,0.01-0.048s0.018-0.022,0.028-0.023c0.473-0.003,0.852-0.015,1.136-0.034
			c0.284-0.019,0.579-0.047,0.884-0.085c0.012,0,0.022,0.006,0.031,0.02c0.01,0.014,0.015,0.026,0.016,0.038
			c0.002,0.039-0.011,0.06-0.039,0.063c-0.114,0.001-0.192,0.025-0.234,0.071c-0.043,0.046-0.067,0.134-0.073,0.266
			c-0.004,0.131,0.004,0.359,0.025,0.683c0.018,0.256,0.039,0.437,0.066,0.543c0.027,0.106,0.042,0.175,0.044,0.203
			c0.003,0.034-0.002,0.058-0.013,0.069c-0.011,0.012-0.035,0.025-0.075,0.04c-0.705,0.206-1.338,0.329-1.901,0.366
			C57.21,22.733,56.644,22.649,56.154,22.437z"/>
		<path fill="#F1E1C1" d="M68.478,18.229c0.042,0.03,0.066,0.056,0.074,0.077c0.008,0.021,0.013,0.066,0.014,0.137l-0.075,1.129
			c-0.004,0.018-0.02,0.026-0.048,0.027c-0.029,0.001-0.048-0.01-0.055-0.035c-0.073-0.484-0.236-0.87-0.486-1.158
			c-0.253-0.287-0.591-0.466-1.02-0.534c-0.41-0.065-0.793-0.02-1.149,0.134s-0.654,0.409-0.895,0.766
			c-0.241,0.356-0.402,0.791-0.484,1.302c-0.08,0.506-0.057,0.973,0.073,1.4c0.127,0.427,0.339,0.776,0.637,1.047
			c0.297,0.273,0.654,0.441,1.07,0.507c0.41,0.066,0.769,0.011,1.076-0.162c0.307-0.173,0.602-0.48,0.885-0.919
			c0.009-0.016,0.026-0.019,0.054-0.009c0.027,0.011,0.04,0.021,0.039,0.032l-0.271,0.995c-0.017,0.067-0.032,0.107-0.05,0.122
			c-0.017,0.015-0.051,0.03-0.099,0.045c-0.539,0.128-1.092,0.147-1.66,0.057c-0.602-0.095-1.121-0.294-1.558-0.597
			c-0.435-0.303-0.753-0.682-0.952-1.137c-0.198-0.456-0.257-0.95-0.171-1.485c0.084-0.528,0.297-0.979,0.639-1.352
			s0.769-0.638,1.284-0.794c0.516-0.158,1.068-0.19,1.658-0.097C67.634,17.828,68.122,17.996,68.478,18.229z"/>
		<path fill="#F1E1C1" d="M74.168,25.328c-0.012,0.032-0.03,0.043-0.057,0.034c-0.103-0.034-0.267-0.096-0.488-0.184
			c-0.223-0.087-0.386-0.149-0.487-0.184c-0.136-0.046-0.297-0.094-0.482-0.146c-0.188-0.051-0.333-0.094-0.435-0.129
			c-0.021-0.007-0.027-0.027-0.016-0.059c0.011-0.032,0.026-0.045,0.048-0.038c0.157,0.053,0.277,0.075,0.361,0.064
			c0.086-0.01,0.142-0.056,0.169-0.136c0.028-0.082,0.028-0.234,0.003-0.459l-0.191-1.454l-1.957-0.666l-0.686,0.741
			c-0.124,0.138-0.209,0.272-0.253,0.401c-0.064,0.189-0.046,0.354,0.058,0.497c0.101,0.143,0.272,0.255,0.515,0.338
			c0.027,0.009,0.035,0.03,0.025,0.062c-0.012,0.032-0.031,0.044-0.059,0.035c-0.096-0.033-0.234-0.086-0.413-0.16
			c-0.202-0.08-0.378-0.146-0.529-0.197c-0.146-0.049-0.317-0.102-0.516-0.157c-0.176-0.048-0.32-0.092-0.435-0.129
			c-0.025-0.01-0.033-0.03-0.022-0.063c0.011-0.032,0.029-0.044,0.057-0.034c0.151,0.051,0.288,0.064,0.41,0.04
			c0.124-0.024,0.259-0.097,0.408-0.217s0.343-0.309,0.58-0.565l3.069-3.323c0.016-0.013,0.043-0.013,0.08,0.001
			c0.039,0.013,0.057,0.028,0.057,0.046l0.623,4.668c0.058,0.453,0.125,0.772,0.202,0.958c0.078,0.186,0.191,0.303,0.336,0.354
			C74.171,25.274,74.179,25.296,74.168,25.328z M70.794,21.799l1.771,0.602l-0.29-2.2L70.794,21.799z"/>
		<path fill="#F1E1C1" d="M79.462,28.077c-0.016,0.03-0.03,0.042-0.045,0.034l-1.219-0.637c-0.117-0.061-0.228-0.375-0.331-0.944
			c-0.104-0.569-0.191-1.333-0.261-2.295c-0.116-0.048-0.205-0.088-0.266-0.12c-0.111-0.058-0.239-0.132-0.385-0.221l-0.883,1.688
			c-0.083,0.156-0.127,0.277-0.137,0.363c-0.01,0.085,0.019,0.161,0.084,0.226c0.064,0.067,0.183,0.145,0.355,0.234
			c0.01,0.005,0.007,0.022-0.009,0.053c-0.017,0.03-0.029,0.043-0.039,0.038c-0.167-0.087-0.295-0.156-0.382-0.209l-0.557-0.301
			l-0.549-0.277c-0.099-0.045-0.23-0.112-0.398-0.199c-0.015-0.007-0.014-0.026,0.001-0.057c0.017-0.03,0.031-0.042,0.047-0.033
			c0.171,0.088,0.304,0.142,0.396,0.158c0.09,0.015,0.171-0.005,0.239-0.063c0.068-0.057,0.142-0.161,0.221-0.313l1.833-3.505
			c0.079-0.151,0.123-0.27,0.133-0.355c0.009-0.084-0.02-0.163-0.087-0.232c-0.066-0.07-0.183-0.148-0.35-0.236
			c-0.009-0.005-0.006-0.022,0.009-0.053c0.018-0.03,0.03-0.043,0.04-0.038l0.39,0.213c0.217,0.126,0.393,0.225,0.529,0.296
			c0.167,0.087,0.353,0.175,0.558,0.262c0.068,0.03,0.149,0.066,0.245,0.109c0.097,0.044,0.202,0.097,0.318,0.157
			c0.439,0.229,0.734,0.493,0.884,0.79c0.15,0.297,0.146,0.599-0.017,0.907c-0.145,0.278-0.353,0.487-0.623,0.628
			c-0.27,0.142-0.566,0.211-0.894,0.208c0.095,0.827,0.191,1.484,0.289,1.972c0.099,0.488,0.215,0.866,0.349,1.131
			c0.135,0.266,0.305,0.453,0.511,0.562C79.479,28.028,79.479,28.047,79.462,28.077z M77.485,23.95
			c0.328,0.171,0.605,0.211,0.833,0.122c0.226-0.09,0.436-0.317,0.624-0.681c0.214-0.409,0.294-0.73,0.24-0.964
			c-0.055-0.233-0.213-0.419-0.476-0.556c-0.196-0.104-0.356-0.14-0.477-0.109c-0.122,0.029-0.234,0.14-0.333,0.331l-0.836,1.597
			C77.172,23.773,77.313,23.86,77.485,23.95z"/>
		<path fill="#F1E1C1" d="M83.542,29.504c0.014,0.01,0.024,0.023,0.03,0.038c0.007,0.016,0.008,0.025,0.005,0.029
			c-0.3,0.317-0.556,0.621-0.768,0.911c-0.026,0.037-0.053,0.059-0.078,0.064c-0.024,0.006-0.059-0.006-0.1-0.036l-3.001-2.178
			c-0.014-0.01-0.01-0.029,0.01-0.056c0.02-0.029,0.037-0.038,0.051-0.027c0.157,0.114,0.279,0.185,0.367,0.214
			s0.17,0.019,0.244-0.029c0.072-0.049,0.16-0.142,0.261-0.279l2.322-3.201c0.101-0.139,0.16-0.249,0.183-0.333
			c0.021-0.082,0.005-0.163-0.05-0.242c-0.056-0.079-0.16-0.174-0.312-0.284c-0.014-0.01-0.01-0.029,0.009-0.057
			c0.021-0.028,0.037-0.036,0.051-0.026l2.876,2.087c0.047,0.033,0.055,0.071,0.024,0.113l-0.639,0.909
			c-0.006,0.01-0.024,0.007-0.054-0.007c-0.028-0.013-0.04-0.029-0.034-0.046c0.271-0.605,0.142-1.101-0.39-1.486l-0.276-0.201
			c-0.165-0.121-0.305-0.175-0.417-0.166c-0.113,0.01-0.222,0.087-0.325,0.229l-1.023,1.411l0.664,0.481
			c0.506,0.369,0.883,0.382,1.132,0.041c0.01-0.014,0.027-0.011,0.053,0.007c0.025,0.018,0.034,0.034,0.023,0.048l-0.444,0.597
			l-0.229,0.329c-0.098,0.155-0.181,0.278-0.247,0.37c-0.007,0.01-0.023,0.004-0.052-0.016c-0.028-0.021-0.037-0.035-0.031-0.044
			c0.288-0.396,0.174-0.782-0.343-1.157l-0.656-0.477l-1.139,1.569c-0.11,0.152-0.159,0.279-0.145,0.381
			c0.014,0.102,0.095,0.206,0.242,0.313l0.339,0.247c0.617,0.448,1.227,0.433,1.827-0.046
			C83.511,29.489,83.523,29.491,83.542,29.504z"/>
		<path fill="#F1E1C1" d="M86.246,33.411c-0.032,0.088-0.018,0.188,0.042,0.301c0.059,0.112,0.177,0.264,0.355,0.455
			c0.012,0.013,0.006,0.031-0.019,0.054c-0.024,0.023-0.042,0.03-0.055,0.017c-0.16-0.17-0.282-0.305-0.368-0.404l-0.503-0.547
			l-0.427-0.442c-0.079-0.075-0.182-0.181-0.311-0.318c-0.013-0.013-0.006-0.03,0.02-0.054c0.024-0.023,0.042-0.028,0.055-0.016
			c0.132,0.14,0.238,0.233,0.317,0.275c0.079,0.043,0.159,0.049,0.238,0.017c0.08-0.032,0.183-0.108,0.313-0.229l2.882-2.708
			c0.124-0.118,0.205-0.215,0.24-0.292c0.037-0.078,0.036-0.159,0-0.245c-0.037-0.086-0.121-0.196-0.25-0.333
			c-0.012-0.013-0.005-0.03,0.02-0.054c0.025-0.023,0.044-0.029,0.056-0.017l0.297,0.33c0.164,0.19,0.299,0.341,0.404,0.453
			c0.089,0.096,0.205,0.206,0.346,0.331c0.051,0.046,0.118,0.109,0.203,0.19c0.083,0.082,0.18,0.181,0.289,0.296
			c0.387,0.411,0.604,0.817,0.654,1.22c0.051,0.403-0.105,0.774-0.467,1.113c-0.262,0.245-0.547,0.387-0.855,0.424
			c-0.31,0.037-0.608-0.006-0.896-0.13c-0.288-0.125-0.536-0.296-0.742-0.516c-0.109-0.116-0.19-0.224-0.245-0.322
			c-0.011-0.012-0.007-0.028,0.015-0.048c0.012-0.012,0.027-0.02,0.045-0.025c0.02-0.006,0.03-0.002,0.034,0.01
			c0.046,0.081,0.106,0.162,0.181,0.24c0.202,0.216,0.463,0.315,0.781,0.296c0.318-0.018,0.646-0.182,0.977-0.495
			c0.327-0.308,0.51-0.624,0.545-0.947c0.037-0.323-0.072-0.619-0.325-0.889c-0.094-0.1-0.175-0.166-0.245-0.199
			c-0.069-0.033-0.143-0.033-0.217,0c-0.076,0.032-0.174,0.104-0.294,0.217l-2.845,2.674C86.357,33.217,86.276,33.324,86.246,33.411
			z"/>
		<path fill="#F1E1C1" d="M91.482,40.6c-0.028,0.02-0.047,0.022-0.057,0.009L90.64,39.48c-0.075-0.108-0.027-0.438,0.143-0.99
			c0.171-0.552,0.446-1.271,0.829-2.156c-0.081-0.096-0.142-0.172-0.181-0.228c-0.07-0.103-0.15-0.228-0.239-0.374l-1.563,1.089
			c-0.146,0.101-0.24,0.187-0.289,0.258c-0.046,0.072-0.057,0.151-0.029,0.24c0.026,0.089,0.096,0.212,0.207,0.371
			c0.006,0.01-0.004,0.024-0.033,0.044c-0.027,0.019-0.045,0.024-0.052,0.015c-0.108-0.154-0.188-0.275-0.241-0.363l-0.355-0.522
			l-0.358-0.5c-0.066-0.085-0.153-0.205-0.262-0.36c-0.009-0.013,0-0.03,0.027-0.05c0.028-0.019,0.048-0.022,0.058-0.008
			c0.111,0.159,0.203,0.266,0.276,0.322c0.074,0.055,0.154,0.074,0.241,0.055c0.088-0.02,0.202-0.078,0.343-0.175l3.243-2.262
			c0.14-0.099,0.233-0.183,0.281-0.254c0.047-0.071,0.058-0.153,0.031-0.245c-0.027-0.093-0.093-0.216-0.201-0.371
			c-0.006-0.009,0.005-0.023,0.033-0.043c0.027-0.019,0.045-0.024,0.051-0.015l0.248,0.369c0.133,0.212,0.245,0.382,0.333,0.507
			c0.106,0.155,0.231,0.318,0.372,0.49c0.047,0.057,0.104,0.128,0.168,0.211c0.065,0.083,0.134,0.178,0.21,0.286
			c0.283,0.407,0.423,0.775,0.419,1.108c-0.005,0.333-0.149,0.598-0.435,0.797c-0.256,0.179-0.538,0.269-0.843,0.271
			c-0.305,0-0.6-0.076-0.888-0.229c-0.298,0.777-0.517,1.405-0.655,1.883c-0.137,0.479-0.21,0.867-0.213,1.164
			c-0.005,0.298,0.061,0.543,0.193,0.734C91.521,40.563,91.511,40.58,91.482,40.6z M91.637,36.026
			c0.211,0.303,0.438,0.467,0.681,0.493c0.244,0.024,0.533-0.08,0.87-0.314c0.378-0.264,0.598-0.512,0.657-0.745
			s0.005-0.471-0.165-0.713c-0.127-0.183-0.251-0.288-0.373-0.318c-0.12-0.029-0.27,0.018-0.447,0.141L91.381,35.6
			C91.439,35.725,91.525,35.867,91.637,36.026z"/>
		<path fill="#F1E1C1" d="M92.187,41.604c0.043-0.479,0.206-0.913,0.49-1.3c0.283-0.388,0.651-0.69,1.103-0.908
			c0.528-0.255,1.045-0.341,1.55-0.257c0.507,0.084,0.954,0.289,1.348,0.615c0.392,0.326,0.693,0.708,0.903,1.143
			c0.235,0.486,0.328,0.97,0.279,1.449c-0.05,0.479-0.213,0.909-0.491,1.287c-0.279,0.378-0.629,0.669-1.05,0.873
			c-0.466,0.226-0.954,0.311-1.462,0.252s-0.977-0.238-1.4-0.541c-0.427-0.304-0.755-0.696-0.988-1.178
			C92.237,42.563,92.144,42.084,92.187,41.604z M93.429,43.917c0.284,0.163,0.623,0.236,1.014,0.221s0.81-0.131,1.255-0.347
			c0.473-0.228,0.855-0.51,1.155-0.847c0.298-0.338,0.482-0.702,0.554-1.094c0.069-0.391,0.01-0.782-0.179-1.171
			c-0.24-0.497-0.605-0.796-1.094-0.898c-0.49-0.102-1.049,0-1.68,0.305c-0.487,0.236-0.889,0.53-1.206,0.882
			c-0.315,0.353-0.516,0.725-0.602,1.118c-0.085,0.392-0.041,0.768,0.133,1.126C92.928,43.519,93.146,43.754,93.429,43.917z"/>
		<path fill="#F1E1C1" d="M99.135,48.714c-0.012,0.003-0.024-0.009-0.038-0.038c-0.016-0.028-0.016-0.048,0-0.058
			c0.579-0.323,0.771-0.797,0.577-1.422l-0.102-0.327c-0.062-0.196-0.139-0.323-0.234-0.383c-0.098-0.06-0.226-0.064-0.39-0.014
			l-1.771,0.55l0.209,0.669c0.188,0.609,0.487,0.85,0.895,0.723c0.012-0.003,0.021,0.011,0.03,0.044
			c0.011,0.033,0.011,0.051,0,0.054l-0.72,0.214c-0.17,0.052-0.293,0.093-0.373,0.125l-0.422,0.14
			c-0.016,0.005-0.028-0.009-0.039-0.042s-0.007-0.052,0.01-0.057c0.461-0.144,0.596-0.527,0.4-1.153l-0.202-0.653l-1.753,0.545
			c-0.175,0.054-0.294,0.114-0.359,0.183c-0.066,0.068-0.095,0.171-0.089,0.309c0.009,0.138,0.053,0.34,0.136,0.607
			c0.003,0.01-0.011,0.021-0.043,0.031c-0.033,0.01-0.051,0.009-0.055-0.001c-0.069-0.223-0.12-0.398-0.153-0.524l-0.24-0.802
			l-0.193-0.594c-0.038-0.101-0.085-0.245-0.142-0.43c-0.006-0.016,0.008-0.03,0.04-0.039c0.032-0.01,0.052-0.007,0.057,0.009
			c0.062,0.196,0.119,0.334,0.174,0.416c0.056,0.082,0.127,0.126,0.217,0.135c0.088,0.007,0.214-0.014,0.378-0.064l3.777-1.173
			c0.162-0.05,0.277-0.103,0.345-0.156c0.066-0.053,0.102-0.128,0.104-0.224c0.003-0.097-0.023-0.235-0.079-0.414
			c-0.006-0.017,0.009-0.029,0.041-0.04c0.033-0.01,0.052-0.007,0.057,0.01l1.054,3.394c0.017,0.053,0,0.088-0.049,0.104
			L99.135,48.714z"/>
		<path fill="#F1E1C1" d="M97.373,54.291c0.003,0.017,0.001,0.033-0.004,0.049c-0.008,0.015-0.012,0.023-0.018,0.024
			c-0.438,0.02-0.832,0.061-1.185,0.122c-0.045,0.008-0.079,0.006-0.102-0.008s-0.038-0.045-0.047-0.096l-0.646-3.65
			c-0.002-0.017,0.012-0.029,0.047-0.035c0.034-0.006,0.051,0,0.055,0.016c0.033,0.191,0.072,0.327,0.116,0.409
			c0.043,0.082,0.107,0.131,0.194,0.148c0.087,0.015,0.215,0.009,0.383-0.02l3.895-0.69c0.168-0.03,0.289-0.066,0.36-0.111
			c0.073-0.045,0.118-0.115,0.132-0.21c0.017-0.095,0.008-0.235-0.025-0.42c-0.003-0.018,0.013-0.029,0.046-0.035
			c0.034-0.005,0.053,0,0.056,0.017l0.619,3.5c0.01,0.056-0.012,0.088-0.062,0.097l-1.09,0.21c-0.012,0.002-0.023-0.012-0.033-0.042
			c-0.012-0.03-0.009-0.049,0.007-0.058c0.615-0.248,0.865-0.695,0.751-1.339l-0.059-0.336c-0.036-0.202-0.098-0.338-0.186-0.41
			c-0.089-0.071-0.218-0.091-0.394-0.06l-1.715,0.303l0.143,0.808c0.109,0.616,0.371,0.888,0.786,0.815
			c0.018-0.003,0.028,0.01,0.034,0.042c0.005,0.031,0,0.048-0.018,0.05l-0.733,0.122l-0.394,0.078
			c-0.179,0.043-0.321,0.075-0.435,0.095c-0.011,0.002-0.02-0.014-0.026-0.048c-0.006-0.034-0.003-0.051,0.009-0.053
			c0.481-0.086,0.668-0.442,0.557-1.07l-0.142-0.799l-1.909,0.338c-0.185,0.033-0.309,0.091-0.369,0.173
			c-0.06,0.084-0.073,0.215-0.043,0.394l0.073,0.413c0.134,0.751,0.582,1.164,1.348,1.237
			C97.361,54.258,97.369,54.269,97.373,54.291z"/>
		<path fill="#F1E1C1" d="M100.065,56.391c-0.157,0.114-0.291,0.251-0.403,0.414c-0.111,0.163-0.242,0.381-0.395,0.657
			c-0.167,0.299-0.313,0.536-0.435,0.71c-0.123,0.173-0.276,0.324-0.462,0.45c-0.185,0.126-0.403,0.196-0.659,0.208
			c-0.291,0.014-0.554-0.049-0.789-0.188c-0.234-0.14-0.422-0.344-0.564-0.614s-0.221-0.58-0.238-0.933
			c-0.013-0.239,0.007-0.486,0.057-0.742c0.05-0.257,0.116-0.452,0.201-0.587c0.032-0.053,0.085-0.084,0.157-0.094l1.295-0.116
			h0.009c0.022-0.001,0.035,0.012,0.04,0.041c0.004,0.028-0.005,0.045-0.027,0.052c-0.462,0.211-0.839,0.445-1.127,0.703
			c-0.291,0.256-0.426,0.572-0.407,0.947c0.012,0.245,0.09,0.446,0.231,0.604c0.142,0.159,0.369,0.23,0.683,0.214
			c0.25-0.012,0.466-0.079,0.648-0.199c0.182-0.121,0.332-0.265,0.448-0.433c0.117-0.168,0.261-0.396,0.428-0.684
			c0.162-0.282,0.301-0.502,0.416-0.662c0.114-0.159,0.26-0.298,0.433-0.415c0.175-0.118,0.38-0.182,0.618-0.194
			c0.297-0.015,0.55,0.055,0.764,0.21c0.213,0.155,0.376,0.361,0.488,0.621c0.113,0.26,0.176,0.535,0.191,0.824
			c0.009,0.194,0,0.388-0.027,0.583c-0.027,0.195-0.065,0.36-0.115,0.494c-0.03,0.087-0.083,0.133-0.157,0.137l-1.158,0.082
			c-0.017,0.002-0.029-0.013-0.037-0.044c-0.007-0.031-0.002-0.05,0.015-0.057c0.342-0.131,0.647-0.299,0.92-0.504
			c0.272-0.205,0.399-0.497,0.38-0.878c-0.013-0.256-0.098-0.456-0.252-0.599c-0.156-0.144-0.361-0.208-0.617-0.196
			C100.406,56.216,100.222,56.278,100.065,56.391z"/>
		<path fill="#F1E1C1" d="M100.088,61.23c-0.17,0.092-0.319,0.213-0.45,0.361c-0.129,0.146-0.287,0.348-0.471,0.604
			c-0.203,0.277-0.375,0.494-0.518,0.652s-0.313,0.289-0.512,0.393s-0.426,0.145-0.682,0.125c-0.289-0.02-0.542-0.113-0.759-0.279
			c-0.216-0.166-0.379-0.393-0.486-0.678c-0.109-0.283-0.15-0.602-0.125-0.955c0.017-0.236,0.065-0.48,0.145-0.73
			c0.082-0.248,0.172-0.434,0.271-0.559c0.038-0.049,0.094-0.072,0.168-0.072l1.3,0.041h0.008c0.023,0.002,0.035,0.016,0.035,0.045
			c0.001,0.029-0.01,0.045-0.032,0.049c-0.485,0.154-0.887,0.342-1.205,0.561c-0.317,0.221-0.491,0.518-0.519,0.893
			c-0.018,0.244,0.035,0.455,0.158,0.629c0.12,0.172,0.339,0.271,0.65,0.293c0.25,0.018,0.472-0.021,0.668-0.119
			c0.195-0.096,0.361-0.223,0.498-0.375c0.136-0.152,0.306-0.361,0.507-0.627c0.195-0.26,0.359-0.463,0.492-0.607
			c0.134-0.146,0.293-0.266,0.48-0.359c0.186-0.096,0.399-0.135,0.638-0.119c0.296,0.021,0.539,0.123,0.731,0.301
			c0.193,0.18,0.329,0.406,0.411,0.676c0.08,0.271,0.11,0.553,0.09,0.842c-0.015,0.193-0.047,0.385-0.098,0.574
			c-0.051,0.191-0.108,0.35-0.174,0.477c-0.04,0.082-0.098,0.121-0.172,0.115l-1.16-0.055c-0.017-0.002-0.027-0.018-0.03-0.051
			c-0.004-0.031,0.003-0.049,0.021-0.053c0.354-0.09,0.679-0.219,0.974-0.391c0.295-0.168,0.455-0.445,0.481-0.826
			c0.02-0.254-0.04-0.463-0.177-0.623c-0.138-0.162-0.333-0.252-0.589-0.27C100.446,61.096,100.258,61.137,100.088,61.23z"/>
		<path fill="#F1E1C1" d="M95.957,65.717c-0.083,0.014-0.146,0.061-0.189,0.143c-0.043,0.084-0.082,0.219-0.115,0.41
			c-0.003,0.018-0.021,0.023-0.054,0.018s-0.05-0.018-0.047-0.035c0.031-0.18,0.06-0.322,0.082-0.428l0.118-0.621l0.098-0.607
			c0.013-0.107,0.036-0.254,0.067-0.439c0.002-0.016,0.021-0.021,0.055-0.016c0.033,0.006,0.049,0.018,0.047,0.033
			c-0.033,0.191-0.044,0.334-0.031,0.424c0.013,0.092,0.058,0.162,0.133,0.211c0.076,0.047,0.196,0.086,0.365,0.115l3.897,0.678
			c0.167,0.031,0.294,0.035,0.377,0.016c0.086-0.021,0.151-0.072,0.197-0.154c0.045-0.08,0.085-0.217,0.118-0.408
			c0.003-0.016,0.021-0.021,0.055-0.016s0.049,0.018,0.047,0.035l-0.086,0.436c-0.055,0.244-0.094,0.445-0.121,0.602
			c-0.03,0.176-0.062,0.387-0.094,0.635l-0.064,0.424c-0.004,0.016-0.021,0.021-0.056,0.016s-0.049-0.018-0.046-0.035
			c0.032-0.186,0.038-0.324,0.021-0.416c-0.019-0.094-0.065-0.162-0.142-0.207s-0.197-0.082-0.366-0.111l-3.88-0.676
			C96.17,65.709,96.041,65.701,95.957,65.717z"/>
		<path fill="#F1E1C1" d="M95.331,68.402c0.358-0.322,0.772-0.529,1.243-0.621c0.473-0.092,0.946-0.064,1.427,0.08
			c0.562,0.172,0.998,0.459,1.313,0.865c0.313,0.404,0.505,0.859,0.57,1.365c0.067,0.504,0.03,0.988-0.11,1.453
			c-0.157,0.516-0.417,0.934-0.779,1.254c-0.361,0.318-0.773,0.521-1.235,0.611c-0.461,0.088-0.915,0.064-1.361-0.072
			c-0.495-0.15-0.911-0.42-1.245-0.807c-0.336-0.389-0.556-0.838-0.662-1.35c-0.104-0.51-0.081-1.021,0.074-1.535
			C94.719,69.141,94.976,68.725,95.331,68.402z M94.676,70.943c0.098,0.313,0.296,0.596,0.593,0.85
			c0.298,0.254,0.684,0.455,1.157,0.598c0.501,0.154,0.978,0.207,1.425,0.162c0.448-0.045,0.83-0.188,1.147-0.428
			s0.538-0.566,0.664-0.98c0.161-0.529,0.098-0.996-0.193-1.402c-0.29-0.406-0.77-0.711-1.44-0.916
			c-0.517-0.156-1.012-0.215-1.484-0.17c-0.472,0.043-0.871,0.18-1.2,0.41s-0.552,0.537-0.667,0.918
			C94.577,70.311,94.576,70.631,94.676,70.943z"/>
		<path fill="#F1E1C1" d="M95.535,80.811c-0.03-0.016-0.044-0.029-0.037-0.039c0.104-0.203,0.112-0.396,0.025-0.582
			c-0.088-0.186-0.265-0.348-0.533-0.484l-3.928-2.02c-0.014-0.008-0.019-0.025-0.011-0.055c0.009-0.027,0.02-0.045,0.035-0.049
			l5.972-1.434l-3.093-1.59c-0.268-0.139-0.499-0.189-0.696-0.156c-0.197,0.031-0.348,0.15-0.451,0.352
			c-0.005,0.012-0.022,0.008-0.053-0.008c-0.031-0.014-0.044-0.027-0.038-0.037c0.07-0.137,0.126-0.24,0.168-0.307l0.215-0.4
			l0.222-0.451c0.037-0.084,0.095-0.201,0.174-0.354c0.007-0.016,0.025-0.016,0.056,0.002c0.03,0.014,0.042,0.029,0.034,0.045
			c-0.111,0.217-0.128,0.422-0.047,0.613c0.08,0.193,0.256,0.357,0.524,0.496l3.327,1.711c0.223-0.064,0.396-0.137,0.516-0.219
			c0.118-0.084,0.21-0.186,0.272-0.307c0.006-0.012,0.023-0.008,0.054,0.008s0.043,0.029,0.038,0.039l-0.164,0.299
			c-0.04,0.063-0.091,0.154-0.152,0.277l-0.242,0.49c-0.026,0.063-0.062,0.139-0.106,0.225c-0.021,0.039-0.046,0.064-0.078,0.074
			c-0.03,0.01-0.086,0.021-0.167,0.029l-0.337,0.057l-4.627,1.078l2.688,1.385c0.268,0.137,0.503,0.189,0.702,0.158
			c0.198-0.033,0.349-0.146,0.45-0.344c0.005-0.012,0.022-0.01,0.053,0.008c0.031,0.016,0.043,0.027,0.038,0.037l-0.167,0.309
			c-0.094,0.158-0.168,0.289-0.224,0.395c-0.051,0.102-0.116,0.24-0.194,0.418l-0.164,0.338
			C95.582,80.828,95.565,80.826,95.535,80.811z"/>
		<path fill="#F1E1C1" d="M87.15,83.398c-0.028-0.02-0.033-0.043-0.016-0.066c0.064-0.086,0.174-0.221,0.326-0.404
			c0.152-0.186,0.262-0.32,0.327-0.408c0.084-0.113,0.182-0.252,0.289-0.412c0.106-0.162,0.193-0.285,0.259-0.373
			c0.014-0.018,0.033-0.016,0.062,0.004c0.025,0.021,0.033,0.039,0.021,0.059c-0.1,0.131-0.159,0.24-0.175,0.324
			c-0.017,0.084,0.009,0.15,0.077,0.201s0.214,0.1,0.437,0.146l1.44,0.271l1.241-1.654l-0.49-0.881
			c-0.093-0.162-0.192-0.283-0.302-0.367c-0.159-0.117-0.322-0.152-0.49-0.1s-0.328,0.182-0.481,0.387
			c-0.018,0.021-0.041,0.021-0.066,0.002c-0.027-0.02-0.033-0.041-0.017-0.064c0.062-0.082,0.155-0.197,0.281-0.346
			c0.14-0.166,0.256-0.313,0.352-0.439c0.093-0.123,0.196-0.27,0.31-0.439c0.102-0.154,0.188-0.277,0.259-0.373
			c0.018-0.023,0.039-0.025,0.065-0.004c0.028,0.021,0.033,0.043,0.017,0.064c-0.096,0.127-0.151,0.254-0.166,0.379
			c-0.015,0.123,0.012,0.275,0.08,0.455c0.067,0.178,0.186,0.422,0.355,0.727l2.203,3.951c0.006,0.02-0.003,0.045-0.026,0.076
			s-0.045,0.045-0.063,0.039l-4.63-0.861c-0.447-0.086-0.772-0.123-0.973-0.105c-0.2,0.016-0.348,0.086-0.439,0.209
			C87.199,83.418,87.177,83.418,87.15,83.398z M91.555,81.291l-1.125,1.496l2.183,0.408L91.555,81.291z"/>
		<path fill="#F1E1C1" d="M86.353,85.051c-0.107-0.111-0.195-0.18-0.261-0.211c-0.066-0.031-0.133-0.029-0.202,0.008
			c-0.069,0.035-0.162,0.111-0.279,0.227l-0.365,0.361c-0.288,0.283-0.451,0.604-0.492,0.959s0.041,0.701,0.243,1.037
			c0.008,0.018,0.001,0.035-0.021,0.053s-0.039,0.021-0.052,0.008c-0.339-0.418-0.633-0.752-0.881-1.002
			c-0.032-0.033-0.05-0.063-0.051-0.088c-0.002-0.027,0.016-0.057,0.052-0.094l2.846-2.809c0.009-0.008,0.024,0,0.048,0.025
			c0.024,0.025,0.033,0.041,0.024,0.049c-0.138,0.137-0.229,0.244-0.271,0.326c-0.043,0.084-0.048,0.164-0.012,0.246
			c0.036,0.08,0.114,0.182,0.234,0.303l2.776,2.816c0.121,0.121,0.221,0.199,0.297,0.234c0.079,0.035,0.162,0.031,0.249-0.012
			c0.086-0.041,0.197-0.129,0.331-0.26c0.008-0.008,0.023,0,0.048,0.025c0.023,0.023,0.032,0.039,0.023,0.047l-0.316,0.301
			c-0.185,0.166-0.335,0.309-0.449,0.42c-0.122,0.119-0.267,0.271-0.438,0.455l-0.298,0.307c-0.012,0.012-0.03,0.006-0.054-0.02
			c-0.024-0.023-0.031-0.041-0.019-0.053c0.135-0.133,0.223-0.24,0.262-0.324c0.042-0.086,0.044-0.168,0.008-0.248
			c-0.034-0.082-0.112-0.184-0.232-0.303L86.353,85.051z"/>
	</g>
	<g>
		<path fill="#F1E1C1" d="M47.642,99.15c0.003,0.107,0.053,0.195,0.148,0.262c0.095,0.07,0.258,0.141,0.492,0.213
			c0.021,0.008,0.024,0.031,0.011,0.072c-0.013,0.041-0.03,0.059-0.051,0.053c-0.219-0.07-0.391-0.131-0.52-0.178l-0.756-0.252
			l-0.742-0.225c-0.133-0.035-0.312-0.086-0.538-0.158c-0.021-0.006-0.024-0.031-0.011-0.072c0.013-0.041,0.03-0.059,0.051-0.051
			c0.231,0.074,0.407,0.111,0.523,0.109c0.118,0,0.212-0.043,0.285-0.129c0.073-0.086,0.142-0.232,0.207-0.438l1.51-4.752
			c0.065-0.205,0.092-0.363,0.083-0.471c-0.012-0.109-0.063-0.199-0.158-0.271c-0.095-0.072-0.258-0.145-0.49-0.219
			c-0.021-0.006-0.024-0.029-0.012-0.07s0.03-0.059,0.051-0.053l0.53,0.182c0.297,0.109,0.54,0.193,0.733,0.256
			c0.211,0.066,0.47,0.141,0.776,0.223l0.517,0.152c0.02,0.006,0.023,0.031,0.01,0.07c-0.013,0.043-0.03,0.061-0.05,0.053
			c-0.226-0.072-0.398-0.104-0.518-0.096c-0.119,0.006-0.212,0.055-0.282,0.143c-0.068,0.086-0.135,0.232-0.202,0.438l-1.503,4.732
			C47.669,98.885,47.637,99.045,47.642,99.15z"/>
		<path fill="#F1E1C1" d="M52.853,100.785c-0.105-0.021-0.239-0.049-0.402-0.078s-0.347-0.059-0.553-0.088l-0.759-0.094
			c-0.136-0.012-0.325-0.033-0.566-0.066c-0.015-0.002-0.019-0.025-0.013-0.068c0.007-0.041,0.016-0.063,0.03-0.061
			c0.242,0.033,0.42,0.041,0.536,0.02c0.116-0.02,0.202-0.078,0.258-0.176c0.058-0.098,0.101-0.254,0.13-0.467l0.682-4.939
			c0.03-0.213,0.032-0.371,0.007-0.477s-0.093-0.186-0.201-0.24c-0.109-0.055-0.28-0.098-0.515-0.131
			c-0.013-0.002-0.018-0.023-0.012-0.066c0.007-0.043,0.016-0.063,0.03-0.061l0.565,0.088c0.311,0.057,0.558,0.1,0.743,0.125
			c0.285,0.039,0.574,0.068,0.869,0.088c0.357,0.033,0.596,0.061,0.717,0.076c0.725,0.1,1.349,0.332,1.872,0.693
			c0.522,0.363,0.905,0.811,1.146,1.344s0.32,1.105,0.235,1.719c-0.095,0.689-0.339,1.277-0.733,1.762
			c-0.393,0.486-0.88,0.836-1.46,1.049s-1.194,0.275-1.842,0.186C53.397,100.893,53.142,100.846,52.853,100.785z M54.895,100.521
			c0.414-0.18,0.758-0.486,1.035-0.914c0.276-0.43,0.459-0.965,0.548-1.605c0.084-0.611,0.06-1.18-0.075-1.701
			c-0.134-0.523-0.366-0.953-0.697-1.293c-0.33-0.338-0.74-0.541-1.23-0.609c-0.3-0.041-0.533-0.057-0.701-0.043
			c-0.169,0.014-0.298,0.063-0.384,0.148c-0.089,0.086-0.147,0.229-0.174,0.428l-0.663,4.801c-0.04,0.291,0.006,0.51,0.138,0.654
			c0.132,0.145,0.415,0.248,0.849,0.307C54.03,100.764,54.482,100.705,54.895,100.521z"/>
		<path fill="#F1E1C1" d="M65.457,94.48c0.06,0.023,0.099,0.047,0.115,0.07c0.016,0.025,0.035,0.08,0.056,0.164l0.241,1.406
			c0.001,0.021-0.016,0.039-0.052,0.047c-0.034,0.012-0.061,0.002-0.077-0.025c-0.231-0.572-0.545-0.998-0.938-1.277
			c-0.393-0.277-0.861-0.395-1.404-0.352c-0.523,0.039-0.98,0.207-1.369,0.502c-0.393,0.293-0.683,0.695-0.874,1.203
			c-0.189,0.508-0.26,1.088-0.208,1.738c0.051,0.645,0.217,1.209,0.501,1.695s0.646,0.852,1.092,1.098
			c0.443,0.244,0.931,0.348,1.461,0.305c0.522-0.041,0.945-0.213,1.272-0.516c0.324-0.305,0.597-0.766,0.813-1.389
			c0.006-0.021,0.027-0.029,0.063-0.025s0.056,0.014,0.057,0.027l-0.039,1.301c0,0.086-0.009,0.141-0.024,0.162
			c-0.017,0.023-0.052,0.053-0.107,0.084c-0.623,0.316-1.295,0.502-2.018,0.561c-0.768,0.061-1.462-0.031-2.086-0.273
			s-1.124-0.613-1.503-1.113c-0.378-0.5-0.594-1.09-0.647-1.77c-0.053-0.672,0.075-1.287,0.385-1.844
			c0.308-0.559,0.755-1.01,1.34-1.355c0.584-0.344,1.253-0.547,2.006-0.605C64.304,94.234,64.954,94.295,65.457,94.48z"/>
		<path fill="#F1E1C1" d="M70.652,99.502c0.081,0.086,0.2,0.127,0.361,0.127c0.159,0,0.399-0.045,0.717-0.135
			c0.021-0.008,0.037,0.012,0.048,0.053c0.013,0.041,0.008,0.064-0.013,0.07c-0.283,0.08-0.505,0.141-0.667,0.178l-0.904,0.246
			l-0.742,0.221c-0.129,0.045-0.308,0.1-0.535,0.164c-0.021,0.006-0.038-0.012-0.049-0.055c-0.012-0.041-0.008-0.064,0.014-0.07
			c0.233-0.066,0.398-0.131,0.492-0.195c0.095-0.064,0.146-0.15,0.157-0.258c0.01-0.107-0.015-0.268-0.075-0.482l-1.361-4.797
			c-0.059-0.207-0.12-0.354-0.186-0.439c-0.066-0.086-0.158-0.133-0.275-0.141c-0.118-0.008-0.29,0.021-0.518,0.086
			c-0.021,0.006-0.038-0.012-0.049-0.055c-0.012-0.041-0.008-0.064,0.013-0.07l0.542-0.141c0.308-0.074,0.555-0.137,0.741-0.189
			c0.159-0.045,0.349-0.109,0.571-0.195c0.08-0.031,0.191-0.068,0.331-0.115s0.306-0.1,0.499-0.154
			c0.684-0.193,1.267-0.201,1.745-0.023s0.805,0.566,0.976,1.168c0.122,0.436,0.115,0.836-0.023,1.203
			c-0.138,0.367-0.36,0.678-0.666,0.928s-0.642,0.428-1.007,0.531c-0.193,0.055-0.36,0.084-0.502,0.088
			c-0.021,0.006-0.036-0.01-0.046-0.045c-0.006-0.02-0.006-0.043-0.002-0.066c0.005-0.023,0.014-0.033,0.03-0.029
			c0.118-0.004,0.243-0.025,0.374-0.063c0.359-0.102,0.621-0.336,0.786-0.703c0.164-0.369,0.169-0.828,0.011-1.381
			c-0.153-0.545-0.402-0.932-0.742-1.16c-0.342-0.229-0.736-0.279-1.185-0.15c-0.167,0.047-0.288,0.1-0.364,0.158
			c-0.077,0.059-0.119,0.141-0.127,0.244c-0.009,0.102,0.017,0.254,0.073,0.453l1.343,4.736
			C70.501,99.264,70.572,99.418,70.652,99.502z"/>
	</g>
	<g>
		<g>
			<path fill="#F1E1C1" d="M53.029,66.998v8.725h13.523v-8.752c0,0,0.218-6.41-6.648-6.41C53.04,60.561,53.029,66.998,53.029,66.998
				z M62.666,66.887c0.382,0.23,0.398,0.902,0.036,1.494c-0.361,0.594-0.965,0.887-1.348,0.654
				c-0.382-0.234-0.397-0.904-0.036-1.498C61.681,66.943,62.283,66.65,62.666,66.887z M59.926,66.242
				c0.142-0.682,0.612-1.158,1.049-1.068c0.44,0.092,0.682,0.717,0.539,1.398c-0.141,0.678-0.61,1.158-1.049,1.066
				S59.787,66.924,59.926,66.242z M60.646,68.338c0.138,0.229,0.153,0.537,0.307,0.754c0.043,0.059,0.097,0.111,0.165,0.154
				c0.388,0.234,0.717,0.563,0.717,1.045c0,0.445-0.263,0.867-0.662,1.055c-0.552,0.258-0.876-0.229-1.396-0.221
				c-0.223,0.002-0.448,0.102-0.655,0.176c-0.606,0.213-1.195,0.064-1.375-0.6c-0.134-0.492,0.018-1.115,0.497-1.379
				c0.41-0.229,0.355-0.555,0.532-0.936c0.166-0.354,0.563-0.572,0.945-0.572C60.119,67.814,60.443,67.998,60.646,68.338z
				 M58.56,65.174c0.439-0.09,0.909,0.387,1.049,1.068c0.142,0.682-0.1,1.305-0.538,1.396s-0.908-0.389-1.048-1.066
				C57.88,65.891,58.121,65.266,58.56,65.174z M56.871,66.887c0.381-0.236,0.986,0.057,1.349,0.65
				c0.361,0.594,0.344,1.264-0.038,1.498c-0.384,0.232-0.985-0.061-1.347-0.654C56.473,67.789,56.488,67.117,56.871,66.887z"/>
			<g>
				<path fill="#F1E1C1" d="M76.397,65.641L59.889,50.834L43.223,65.545l0.578,0.652l4.431-3.91V80.1h0.872v-1.309h21.373V80.1
					h0.872V62.285l4.466,4.004L76.397,65.641z M70.477,77.918H49.104v-16.4l10.781-9.515l10.591,9.501V77.918z"/>
				<path fill="#F1E1C1" d="M71.349,80.258h-0.872c-0.086,0-0.157-0.072-0.157-0.158v-1.15H49.263v1.15
					c0,0.086-0.071,0.158-0.159,0.158h-0.872c-0.088,0-0.16-0.072-0.16-0.158V62.641l-4.167,3.676
					c-0.064,0.059-0.166,0.053-0.224-0.012l-0.578-0.654c-0.028-0.033-0.042-0.074-0.039-0.115c0.002-0.043,0.021-0.082,0.053-0.109
					l16.666-14.71c0.061-0.053,0.151-0.053,0.211,0l16.507,14.806c0.031,0.027,0.051,0.068,0.053,0.109
					c0.002,0.043-0.012,0.084-0.041,0.115l-0.582,0.648c-0.06,0.066-0.158,0.07-0.225,0.012l-4.199-3.766V80.1
					C71.509,80.186,71.438,80.258,71.349,80.258z M70.636,79.941h0.556V62.285c0-0.063,0.037-0.119,0.095-0.145
					c0.057-0.025,0.122-0.016,0.17,0.025l4.347,3.898l0.37-0.412L59.887,51.047l-16.44,14.512l0.368,0.416l4.312-3.807
					c0.047-0.041,0.113-0.049,0.17-0.023c0.055,0.023,0.093,0.082,0.093,0.143v17.654h0.555v-1.15c0-0.088,0.071-0.158,0.159-0.158
					h21.373c0.089,0,0.159,0.07,0.159,0.158V79.941z M70.477,78.076H49.104c-0.087,0-0.159-0.07-0.159-0.158v-16.4
					c0-0.045,0.02-0.09,0.054-0.119l10.78-9.515c0.061-0.054,0.151-0.053,0.211,0.001l10.592,9.5
					c0.034,0.031,0.053,0.072,0.053,0.119v16.414C70.636,78.006,70.565,78.076,70.477,78.076z M49.263,77.76h21.057V61.574
					l-10.435-9.359l-10.622,9.373V77.76z"/>
			</g>
		</g>
		<g>
			<g>
				<path fill="#F1E1C1" d="M54.798,46.093c0.037,0.093,0.145,0.136,0.233,0.097c0.091-0.038,0.136-0.142,0.099-0.234l0,0
					c0,0,0,0,0,0l-1.395-3.387l-2.257-5.487c-0.029-0.07-0.096-0.112-0.167-0.112c0,0,0,0-0.002,0l0,0
					c-0.021,0-0.044,0.004-0.066,0.014c-0.092,0.038-0.136,0.141-0.098,0.234l2.257,5.487L54.798,46.093z"/>
				<path fill="#F1E1C1" d="M57.996,45.195c0.013,0.099,0.11,0.171,0.202,0.153c0.048-0.005,0.089-0.031,0.119-0.067
					c0.028-0.038,0.042-0.084,0.037-0.133l-0.675-5.205l-0.556-4.313c-0.007-0.044-0.03-0.084-0.063-0.112
					c-0.03-0.028-0.071-0.044-0.116-0.044c-0.008,0-0.016,0.001-0.022,0.002c-0.098,0.013-0.167,0.102-0.156,0.2l0.557,4.312
					L57.996,45.195z"/>
				<path fill="#F1E1C1" d="M61.473,45.357c0.107,0.017,0.188-0.056,0.202-0.155l1.274-9.51c0.014-0.098-0.055-0.19-0.153-0.202
					c-0.009-0.001-0.017-0.001-0.024-0.001c-0.088,0-0.163,0.064-0.177,0.155l-1.276,9.512
					C61.306,45.254,61.374,45.344,61.473,45.357z"/>
				<path fill="#F1E1C1" d="M64.868,46.117l3.695-8.859c0.038-0.09-0.005-0.195-0.097-0.233c-0.023-0.009-0.046-0.013-0.07-0.013
					c-0.068,0-0.136,0.039-0.164,0.108l-3.693,8.858c-0.039,0.09,0.005,0.198,0.096,0.235C64.728,46.25,64.831,46.208,64.868,46.117
					z"/>
				<path fill="#F1E1C1" d="M67.468,47.855c0.079,0.062,0.19,0.047,0.253-0.031l5.858-7.599c0.061-0.079,0.046-0.192-0.032-0.251
					c-0.032-0.025-0.071-0.039-0.11-0.039c-0.052,0-0.105,0.025-0.142,0.071l-5.858,7.601
					C67.376,47.684,67.391,47.796,67.468,47.855z"/>
				<path fill="#F1E1C1" d="M69.78,50.179c0.059,0.078,0.172,0.094,0.25,0.033l7.627-5.824c0.078-0.06,0.094-0.172,0.034-0.251
					c-0.037-0.046-0.088-0.07-0.143-0.07c-0.038,0-0.076,0.011-0.108,0.035l-7.626,5.827C69.733,49.988,69.72,50.101,69.78,50.179z"
					/>
				<path fill="#F1E1C1" d="M46.132,47.478l3.486,2.688c0.078,0.062,0.191,0.045,0.252-0.034c0.029-0.038,0.042-0.086,0.034-0.132
					c-0.006-0.047-0.029-0.088-0.067-0.119l-4.115-3.172l-3.485-2.688c-0.034-0.025-0.072-0.037-0.11-0.037
					c-0.053,0-0.106,0.022-0.142,0.068l0,0c0,0-0.001,0-0.001,0c-0.06,0.079-0.045,0.192,0.033,0.251L46.132,47.478z"/>
				<path fill="#F1E1C1" d="M49.3,44.33l2.641,3.459c0.06,0.078,0.172,0.093,0.25,0.033c0.039-0.03,0.062-0.074,0.068-0.121
					c0.007-0.042-0.006-0.092-0.034-0.131l-2.642-3.457L46.4,39.943c-0.036-0.046-0.088-0.072-0.142-0.072
					c-0.038,0-0.076,0.014-0.108,0.039l0,0h-0.001c-0.08,0.06-0.093,0.172-0.034,0.25L49.3,44.33z"/>
				<path fill="#F1E1C1" d="M45.038,49.473l3.659,2.112c0.083,0.05,0.195,0.021,0.244-0.066c0.024-0.041,0.029-0.09,0.019-0.135
					c-0.013-0.044-0.041-0.085-0.085-0.109l-3.658-2.112c-0.028-0.018-0.059-0.024-0.089-0.024c-0.062,0-0.122,0.032-0.155,0.089
					c-0.026,0.043-0.03,0.091-0.018,0.136C44.966,49.407,44.995,49.448,45.038,49.473z"/>
				<path fill="#F1E1C1" d="M47.693,45.934l2.988,2.988c0.07,0.07,0.183,0.07,0.253,0c0.036-0.036,0.053-0.081,0.053-0.127
					c0-0.047-0.017-0.091-0.053-0.126l-2.987-2.988c-0.035-0.035-0.082-0.052-0.126-0.052c-0.047,0-0.09,0.017-0.127,0.052
					c-0.035,0.035-0.052,0.082-0.052,0.127C47.641,45.853,47.658,45.899,47.693,45.934z"/>
				<path fill="#F1E1C1" d="M51.176,43.204l2.112,3.659c0.052,0.085,0.162,0.114,0.246,0.066c0.043-0.026,0.071-0.066,0.083-0.11
					c0.011-0.044,0.008-0.093-0.018-0.135l-2.112-3.659c-0.033-0.058-0.093-0.09-0.154-0.09c-0.03,0-0.062,0.008-0.091,0.024
					c-0.042,0.025-0.07,0.065-0.083,0.108C51.146,43.111,51.151,43.16,51.176,43.204z"/>
				<path fill="#F1E1C1" d="M56.34,45.547c0.025,0.096,0.124,0.149,0.219,0.127c0.095-0.026,0.152-0.124,0.126-0.219l0,0l0,0
					l-1.095-4.082c-0.02-0.079-0.093-0.132-0.171-0.132c-0.015,0-0.032,0.001-0.045,0.004c-0.097,0.026-0.154,0.125-0.129,0.22l0,0
					l0,0L56.34,45.547z"/>
				<path fill="#F1E1C1" d="M59.806,45.247c0.1,0,0.18-0.082,0.18-0.181l0,0v-4.223v-0.001c0-0.099-0.08-0.18-0.18-0.18
					c-0.097,0-0.179,0.081-0.179,0.18v0.001v4.223l0,0C59.626,45.165,59.708,45.247,59.806,45.247z"/>
				<path fill="#F1E1C1" d="M63.056,45.674c0.093,0.022,0.191-0.031,0.218-0.127l1.094-4.082c0.025-0.095-0.03-0.193-0.127-0.218
					c-0.015-0.004-0.03-0.006-0.047-0.006c-0.078,0-0.151,0.053-0.172,0.133l-1.093,4.081C62.901,45.55,62.958,45.648,63.056,45.674
					z"/>
				<path fill="#F1E1C1" d="M68.372,42.958c-0.028-0.016-0.059-0.024-0.089-0.024c-0.062,0-0.123,0.033-0.155,0.091l-2.113,3.658
					c-0.049,0.084-0.02,0.195,0.066,0.246c0.085,0.048,0.193,0.02,0.244-0.066l2.113-3.659
					C68.487,43.118,68.457,43.008,68.372,42.958z"/>
				<path fill="#F1E1C1" d="M68.933,48.921l2.988-2.988c0.068-0.07,0.068-0.184,0-0.252c-0.035-0.037-0.082-0.052-0.126-0.052
					c-0.047,0-0.094,0.016-0.128,0.052l-2.987,2.987c-0.07,0.071-0.07,0.184,0,0.253C68.749,48.992,68.862,48.992,68.933,48.921z"/>
				<path fill="#F1E1C1" d="M70.918,51.585l3.659-2.112c0.085-0.048,0.114-0.158,0.064-0.244c-0.032-0.058-0.092-0.09-0.153-0.09
					c-0.032,0-0.063,0.008-0.091,0.025l-3.658,2.112c-0.086,0.049-0.116,0.157-0.066,0.243
					C70.726,51.606,70.835,51.635,70.918,51.585z"/>
			</g>
			<path fill="#F1E1C1" d="M59.813,44.976c7.068,0,12.819,5.75,12.819,12.818c0,0.181-0.146,0.327-0.327,0.327
				c-0.18,0-0.326-0.146-0.326-0.327c0-6.707-5.457-12.165-12.166-12.165c-6.708,0-12.165,5.458-12.165,12.165
				c0,0.181-0.147,0.327-0.326,0.327c-0.181,0-0.329-0.146-0.329-0.327C46.993,50.726,52.745,44.976,59.813,44.976z"/>
		</g>
	</g>
</g>
</svg>
