<?xml version="1.0" encoding="utf-8"?>
<svg version="1.1" xmlns="http://www.w3.org/2000/svg" xmlns:xlink="http://www.w3.org/1999/xlink" viewBox="0 0 200 200">
<g>
	<path fill="#C9952C" d="M198.953,97.998l-7.868-5.968l6.713-7.241c0.54-0.581,0.771-1.364,0.632-2.146
		c-0.135-0.78-0.619-1.436-1.326-1.799l-8.786-4.51l5.354-8.298c0.43-0.666,0.519-1.477,0.248-2.224
		c-0.271-0.745-0.861-1.306-1.617-1.539l-9.433-2.916l3.829-9.102c0.308-0.729,0.256-1.543-0.141-2.232
		c-0.397-0.687-1.078-1.138-1.863-1.235l-9.797-1.234l2.193-9.628c0.168-0.75-0.007-1.524-0.487-2.125
		c-0.478-0.6-1.192-0.945-1.971-0.945l-9.979,0.489l0.486-9.863c0.032-0.696-0.214-1.355-0.689-1.854
		c-0.599-0.628-1.531-0.91-2.379-0.72l-9.627,2.191l-1.233-9.798c-0.158-1.253-1.231-2.198-2.494-2.198
		c-0.335,0-0.663,0.066-0.977,0.197l-9.097,3.829l-2.919-9.433c-0.328-1.061-1.293-1.771-2.401-1.771
		c-0.483,0-0.953,0.14-1.359,0.402l-8.301,5.352l-4.508-8.784c-0.432-0.842-1.289-1.365-2.238-1.365c-0.634,0-1.24,0.238-1.705,0.67
		l-7.242,6.711l-5.967-7.866c-0.479-0.632-1.211-0.995-2.004-0.995c-0.792,0-1.521,0.363-2.002,0.995l-5.967,7.866l-7.242-6.711
		c-0.466-0.432-1.072-0.67-1.705-0.67c-0.95,0-1.807,0.523-2.237,1.365l-4.511,8.784l-8.298-5.352
		c-0.407-0.263-0.877-0.402-1.36-0.402c-1.109,0-2.075,0.711-2.403,1.771l-2.915,9.432l-9.103-3.828
		c-0.312-0.131-0.64-0.197-0.975-0.197c-1.265,0-2.336,0.945-2.493,2.198l-1.233,9.798l-9.628-2.191
		c-0.845-0.188-1.781,0.092-2.379,0.72c-0.478,0.502-0.723,1.161-0.688,1.854l0.486,9.862l-9.867-0.487l-0.121-0.003
		c-0.769,0-1.483,0.345-1.963,0.946c-0.479,0.601-0.656,1.375-0.485,2.126l2.191,9.627l-9.797,1.234
		c-0.787,0.098-1.466,0.549-1.861,1.235c-0.396,0.687-0.447,1.5-0.14,2.232l3.829,9.102l-9.434,2.916
		c-0.759,0.233-1.349,0.796-1.62,1.542c-0.271,0.744-0.181,1.554,0.251,2.221l5.353,8.298l-8.785,4.509
		c-0.707,0.364-1.19,1.02-1.326,1.8c-0.139,0.78,0.092,1.563,0.631,2.145l6.712,7.242l-7.869,5.968
		c-0.632,0.479-0.994,1.209-0.994,2.003c0.001,0.792,0.363,1.521,0.994,2.001l7.869,5.969l-6.713,7.239
		c-0.538,0.585-0.769,1.368-0.63,2.147c0.137,0.781,0.621,1.438,1.326,1.798l8.785,4.51l-5.353,8.302
		c-0.431,0.665-0.522,1.473-0.252,2.217c0.271,0.745,0.861,1.307,1.621,1.543l9.434,2.918l-3.829,9.099
		c-0.309,0.731-0.258,1.545,0.14,2.232c0.396,0.688,1.074,1.139,1.861,1.236l9.797,1.233l-2.191,9.627
		c-0.171,0.752,0.006,1.527,0.485,2.126c0.479,0.601,1.193,0.945,1.971,0.945h0.001l9.979-0.485l-0.486,9.858
		c-0.034,0.694,0.211,1.354,0.688,1.855c0.603,0.632,1.535,0.916,2.381,0.719l9.627-2.191l1.233,9.797
		c0.157,1.255,1.229,2.2,2.493,2.2c0.332,0,0.661-0.065,0.977-0.198l9.101-3.829l2.915,9.434c0.328,1.061,1.295,1.771,2.404,1.771
		c0.482,0,0.951-0.14,1.359-0.402l8.298-5.352l4.511,8.783c0.433,0.844,1.29,1.367,2.237,1.367c0.634,0,1.239-0.238,1.705-0.672
		l7.242-6.712l5.967,7.868c0.479,0.632,1.209,0.994,2.002,0.994c0.792,0,1.522-0.362,2.004-0.994l5.967-7.868l7.239,6.712
		c0.468,0.434,1.074,0.672,1.708,0.672c0.949,0,1.807-0.523,2.238-1.367l4.508-8.783l8.301,5.352
		c0.406,0.263,0.876,0.402,1.359,0.402c1.108,0,2.073-0.711,2.401-1.771l2.919-9.434l9.1,3.829c0.312,0.133,0.64,0.198,0.974,0.198
		c1.263,0,2.336-0.945,2.494-2.2l1.233-9.797l9.627,2.191c0.838,0.188,1.778-0.089,2.379-0.719c0.476-0.5,0.721-1.159,0.689-1.855
		l-0.486-9.858l9.866,0.482l0.121,0.003c0.769,0,1.482-0.344,1.963-0.944c0.48-0.602,0.655-1.376,0.487-2.127l-2.193-9.627
		l9.797-1.233c0.785-0.098,1.466-0.548,1.863-1.236c0.396-0.688,0.448-1.503,0.141-2.232l-3.829-9.099l9.433-2.918
		c0.759-0.236,1.349-0.798,1.617-1.541c0.272-0.747,0.182-1.556-0.248-2.219l-5.354-8.302l8.786-4.51
		c0.707-0.362,1.191-1.019,1.326-1.798c0.14-0.781-0.092-1.564-0.632-2.147l-6.713-7.239l7.868-5.969
		c0.634-0.48,0.996-1.21,0.996-2.002C199.949,99.207,199.587,98.478,198.953,97.998z M180.386,137.323l-0.211,0.063l4.686,11.131
		c0.064,0.15,0.053,0.317-0.029,0.46s-0.221,0.235-0.383,0.256l-11.766,1.481l-0.216,0.028l2.68,11.77
		c0.048,0.216-0.041,0.369-0.101,0.439c-0.103,0.13-0.252,0.196-0.433,0.196l-12.06-0.593l0.594,12.058
		c0.008,0.146-0.043,0.282-0.142,0.385c-0.125,0.132-0.305,0.19-0.49,0.148l-11.773-2.682l-1.509,11.981
		c-0.052,0.412-0.462,0.527-0.717,0.414l-11.13-4.684l-3.564,11.535c-0.102,0.334-0.372,0.369-0.485,0.369
		c-0.104,0-0.21-0.031-0.294-0.084l-10.146-6.545l-5.517,10.74c-0.108,0.209-0.31,0.283-0.463,0.283
		c-0.133,0-0.252-0.046-0.353-0.139l-8.694-8.062l-0.161-0.148l-7.296,9.623c-0.187,0.241-0.645,0.241-0.827,0l-7.297-9.623
		l-8.856,8.21c-0.124,0.114-0.259,0.139-0.35,0.139c-0.153,0-0.356-0.074-0.463-0.281l-5.517-10.742l-10.147,6.545
		c-0.084,0.053-0.188,0.084-0.295,0.084c-0.11,0-0.381-0.037-0.483-0.368l-3.565-11.536l-11.129,4.684
		c-0.259,0.113-0.664-0.004-0.716-0.413l-1.51-11.982l-11.772,2.682c-0.177,0.042-0.368-0.017-0.493-0.148
		c-0.098-0.104-0.148-0.24-0.141-0.384l0.595-12.059l-12.09,0.593c-0.157,0-0.305-0.07-0.402-0.194
		c-0.059-0.072-0.148-0.226-0.1-0.439l2.679-11.771l-11.981-1.51c-0.162-0.021-0.302-0.113-0.383-0.256
		c-0.081-0.141-0.093-0.31-0.029-0.46l4.684-11.131l-11.536-3.564c-0.157-0.05-0.279-0.166-0.335-0.32
		c-0.056-0.152-0.036-0.317,0.052-0.455l6.428-9.967l0.118-0.182l-10.743-5.518c-0.145-0.074-0.245-0.211-0.274-0.37
		c-0.027-0.162,0.021-0.324,0.133-0.445l8.207-8.855l-9.623-7.298c-0.129-0.099-0.204-0.249-0.204-0.412s0.075-0.314,0.206-0.413
		l9.621-7.298l-8.208-8.856c-0.111-0.121-0.159-0.282-0.132-0.442c0.029-0.162,0.13-0.296,0.274-0.371l10.743-5.515L8.005,66.955
		c-0.089-0.138-0.107-0.304-0.051-0.457c0.056-0.154,0.178-0.271,0.334-0.318l11.536-3.567l-4.684-11.129
		c-0.063-0.15-0.052-0.319,0.029-0.461c0.081-0.143,0.221-0.235,0.384-0.255l11.98-1.509l-2.679-11.774
		c-0.046-0.202,0.029-0.351,0.1-0.44c0.103-0.128,0.25-0.192,0.43-0.192l12.063,0.594l-0.595-12.06
		c-0.007-0.144,0.043-0.28,0.14-0.382c0.126-0.132,0.317-0.191,0.494-0.148l11.56,2.63l0.213,0.049l1.51-11.981
		c0.052-0.404,0.46-0.519,0.716-0.413l11.129,4.684l3.564-11.536c0.072-0.231,0.253-0.369,0.483-0.369
		c0.105,0,0.211,0.03,0.296,0.087l10.147,6.545l5.517-10.742c0.105-0.207,0.309-0.281,0.463-0.281c0.134,0,0.251,0.046,0.35,0.139
		l8.856,8.206l7.297-9.62c0.183-0.241,0.645-0.24,0.827,0l7.296,9.62l8.854-8.206c0.102-0.092,0.221-0.139,0.354-0.139
		c0.153,0,0.356,0.074,0.463,0.281l5.416,10.547l0.101,0.195l10.146-6.545c0.085-0.055,0.19-0.085,0.296-0.085
		c0.23,0,0.411,0.136,0.482,0.367l3.502,11.327l0.063,0.209l11.13-4.685c0.258-0.109,0.667,0.007,0.717,0.414l1.482,11.764
		l0.026,0.218l11.774-2.68c0.17-0.04,0.364,0.016,0.491,0.15c0.097,0.103,0.147,0.236,0.14,0.38l-0.594,12.061l12.088-0.593
		c0.159,0,0.307,0.07,0.404,0.194c0.06,0.071,0.148,0.224,0.101,0.438l-2.634,11.561l-0.046,0.214l11.981,1.509
		c0.162,0.02,0.301,0.112,0.383,0.255c0.082,0.142,0.094,0.311,0.029,0.461l-4.686,11.129l11.538,3.567
		c0.157,0.048,0.279,0.164,0.336,0.316c0.054,0.155,0.034,0.324-0.052,0.46l-6.429,9.964l-0.118,0.185l10.741,5.516
		c0.149,0.074,0.245,0.206,0.276,0.369c0.027,0.161-0.021,0.324-0.132,0.443l-8.209,8.856l9.623,7.298
		c0.13,0.099,0.203,0.249,0.203,0.413c0,0.163-0.073,0.314-0.203,0.413l-9.449,7.165l-0.174,0.132l8.207,8.854
		c0.113,0.124,0.161,0.286,0.134,0.445c-0.031,0.164-0.127,0.296-0.276,0.372l-10.741,5.518l6.545,10.148
		c0.088,0.136,0.107,0.303,0.054,0.455c-0.057,0.152-0.181,0.271-0.336,0.32L180.386,137.323z"/>
	<path fill="#C9952C" d="M152.244,100.001c0-28.808-23.437-52.243-52.244-52.243c-28.807,0-52.242,23.436-52.242,52.243
		c0,28.806,23.436,52.243,52.242,52.243C128.808,152.244,152.244,128.807,152.244,100.001z M100,149.628
		c-27.364,0-49.626-22.263-49.626-49.627S72.636,50.375,100,50.375c27.362,0,49.627,22.262,49.627,49.626
		S127.362,149.628,100,149.628z"/>
	<path fill="#C9952C" d="M123.068,103.117l-20.091,14.013l-0.546,0.777c0,0-1.009,0.681-2.432,1.642
		c-1.42-0.961-2.429-1.642-2.429-1.642l-0.546-0.777l-20.093-14.013c0,0-1.132,1.997,5.582,7.315
		c4.115,3.26,9.974,8.21,13.894,11.561c-0.834,0.569-1.666,1.144-2.424,1.668c-3.455,2.393-7.045,6.382-7.243,6.446
		c-0.198,0.066-1.996-2.724-3.258-3.157c-1.264-0.433-3.123-0.029-4.785,1.328c-1.662,1.363-2.792,4.952-0.698,7.048
		c2.094,2.095,5.55,0.298,7.178-1.029c1.631-1.327,8.242-7.711,9.308-8.382c1.062-0.661,4.919-0.329,4.919-0.329
		s0.223-0.187,0.596-0.511c0.375,0.324,0.597,0.511,0.597,0.511s3.855-0.332,4.918,0.329c1.062,0.671,7.682,7.055,9.309,8.382
		c1.63,1.327,5.083,3.124,7.177,1.029c2.093-2.096,0.964-5.685-0.696-7.048c-1.662-1.357-3.524-1.761-4.789-1.328
		c-1.265,0.434-3.057,3.224-3.255,3.157c-0.201-0.064-3.789-4.054-7.241-6.446c-0.757-0.524-1.59-1.094-2.428-1.668
		c3.924-3.351,9.778-8.301,13.894-11.561C124.196,105.114,123.068,103.117,123.068,103.117z M83.557,133.69
		c-1.41,1.311-3.484,1.374-4.634,0.141c-1.149-1.231-0.935-3.295,0.476-4.612c1.407-1.306,3.482-1.368,4.631-0.14
		C85.178,130.314,84.967,132.379,83.557,133.69z M115.972,129.079c1.147-1.229,3.225-1.166,4.631,0.14
		c1.411,1.317,1.622,3.381,0.476,4.612c-1.15,1.233-3.223,1.17-4.633-0.141C115.033,132.379,114.823,130.314,115.972,129.079z"/>
	<path fill="#C9952C" d="M94.37,85.917c-1.009,2.184-0.699,4.026-3.032,5.311c-2.72,1.507-3.582,5.051-2.818,7.846
		c1.034,3.77,4.37,4.614,7.817,3.405c1.174-0.413,2.453-0.991,3.715-1.007c2.953-0.045,4.793,2.714,7.928,1.257
		c2.269-1.071,3.762-3.465,3.762-5.982c0-2.756-1.87-4.611-4.08-5.944c-0.389-0.236-0.691-0.534-0.93-0.874
		c-0.867-1.225-0.962-2.976-1.742-4.277c-1.161-1.931-2.997-2.971-5.259-2.971C97.561,82.68,95.296,83.909,94.37,85.917z"/>
	<path fill="#C9952C" d="M90.988,89.6c2.173-1.324,2.27-5.131,0.214-8.502c-2.058-3.371-5.485-5.027-7.659-3.703
		c-2.168,1.325-2.262,5.131-0.207,8.5C85.393,89.267,88.821,90.928,90.988,89.6z"/>
	<path fill="#C9952C" d="M96.039,81.68c2.49-0.517,3.862-4.07,3.061-7.937c-0.804-3.862-3.471-6.584-5.958-6.062
		c-2.492,0.513-3.864,4.066-3.062,7.934C90.881,79.482,93.55,82.193,96.039,81.68z"/>
	<path fill="#C9952C" d="M109.011,89.6c2.167,1.328,5.594-0.333,7.648-3.705c2.061-3.369,1.969-7.175-0.205-8.5
		c-2.17-1.324-5.6,0.332-7.651,3.703C106.748,84.469,106.838,88.275,109.011,89.6z"/>
	<path fill="#C9952C" d="M103.965,81.68c2.493,0.514,5.16-2.197,5.954-6.064c0.805-3.867-0.563-7.421-3.057-7.934
		c-2.492-0.522-5.159,2.199-5.962,6.062C100.105,77.609,101.47,81.163,103.965,81.68z"/>
	<path fill="#C9952C" d="M65.403,150.876c-0.419-0.284-0.768-0.537-1.277-0.914c-0.084-0.013-0.232,0.162-0.198,0.245l0.24,0.211
		c0.566,0.494,0.488,0.655-0.268,1.764l-2.539,3.727c-0.756,1.11-0.898,1.274-1.551,0.906l-0.276-0.157
		c-0.092-0.002-0.199,0.203-0.157,0.275c0.538,0.335,0.9,0.567,1.318,0.854c0.441,0.299,0.789,0.553,1.299,0.93
		c0.083,0.012,0.232-0.163,0.198-0.247l-0.247-0.2c-0.581-0.473-0.481-0.665,0.274-1.774l2.539-3.727
		c0.756-1.11,0.877-1.242,1.544-0.896l0.283,0.146c0.105-0.02,0.199-0.2,0.157-0.274C66.205,151.409,65.843,151.176,65.403,150.876z
		"/>
	<path fill="#C9952C" d="M57.17,154.58c-0.009-0.396,0.156-0.605,0.391-0.871l2.411-2.76c0.399-0.459,1.407-1.633,1.841-1.859
		c0.14-0.063,0.343,0.013,0.588,0.176l0.282,0.195c0.107-0.006,0.215-0.147,0.189-0.254c-0.35-0.273-0.616-0.488-1.019-0.839
		c-0.353-0.308-0.679-0.61-1.092-1.005c-0.108-0.01-0.219,0.097-0.228,0.222l0.271,0.288c0.223,0.228,0.364,0.451,0.329,0.606
		c-0.088,0.429-1.162,1.679-1.554,2.127l-1.819,2.082c-0.25,0.287-0.452,0.497-0.59,0.58l-0.019-0.018
		c-0.018-0.385,0.018-1.735,0.019-2.257l-0.015-4.457c-0.004-1.671,0.01-2.246,0.037-2.509c-0.104-0.092-0.204-0.093-0.272-0.054
		c-0.188,0.272-1.181,1.41-1.432,1.696l-1.993,2.282c-0.384,0.439-1.399,1.641-1.862,1.844c-0.104,0.041-0.361-0.048-0.709-0.269
		l-0.151-0.098c-0.106,0.008-0.224,0.141-0.188,0.256c0.342,0.271,0.598,0.478,1.008,0.835c0.363,0.317,0.68,0.611,1.103,1.014
		c0.102,0.032,0.244-0.111,0.228-0.228l-0.146-0.16c-0.34-0.381-0.442-0.573-0.425-0.708c0.068-0.445,1.143-1.695,1.535-2.144
		l1.785-2.045c0.175-0.199,0.309-0.353,0.388-0.366l0.02,0.017c0.048,0.85,0.049,1.793,0.065,3.104l0.018,1.851
		c0.007,0.627,0.032,2.873-0.202,3.525c0.141,0.095,0.312,0.229,0.465,0.361c0.172,0.149,0.679,0.592,1.054,0.972
		c0.11,0.022,0.235-0.121,0.228-0.229l-0.146-0.16C57.357,155.097,57.187,154.829,57.17,154.58z"/>
	<path fill="#C9952C" d="M50.149,146.849c-0.331,0.098-0.627,0.18-1.037,0.127c-0.427-0.054-0.896-0.571-1.246-0.987l-0.45-0.533
		c-0.245-0.291-0.235-0.299,0.065-0.553l4.333-3.653c1.019-0.857,1.205-0.932,1.719-0.419l0.323,0.322
		c0.114,0.038,0.263-0.12,0.243-0.203c-0.543-0.604-0.839-0.936-1.166-1.321c-0.326-0.389-0.595-0.727-1.041-1.296
		c-0.078-0.033-0.27,0.093-0.259,0.185l0.232,0.334c0.426,0.604,0.296,0.746-0.722,1.603l-4.313,3.638
		c-0.32,0.269-0.322,0.287-0.567-0.004l-0.58-0.688c-0.448-0.533-0.682-0.967-0.705-1.329c-0.017-0.235,0.285-0.606,0.503-0.838
		c0.019-0.098-0.121-0.264-0.231-0.237c-0.267,0.274-1.109,0.868-1.597,1.098c-0.022,0.052,0.058,0.167,0.118,0.199
		c0.375-0.068,0.468,0.003,0.909,0.525l3.31,3.927c0.376,0.446,0.655,0.759,0.394,1.077c-0.004,0.054,0.112,0.173,0.156,0.185
		c0.444-0.258,1.188-0.636,1.755-0.848C50.339,147.053,50.273,146.877,50.149,146.849z"/>
	<path fill="#C9952C" d="M43.714,138.184l3.846-2.444c1.122-0.713,1.317-0.764,1.758-0.188l0.256,0.332
		c0.105,0.023,0.263-0.106,0.254-0.191c-0.423-0.617-0.664-0.974-0.956-1.433l-0.611-0.963c-0.604-0.949-1.198-1.907-1.789-2.884
		c-0.377,0.045-1.369,0.303-1.791,0.465c-0.068,0.104-0.006,0.273,0.096,0.313c0.731-0.074,1.289-0.024,1.519,0.101
		c0.267,0.159,0.507,0.442,1.029,1.267c0.599,0.94,0.624,1.239,0.577,1.449c-0.073,0.286-0.416,0.549-0.982,0.908l-1.507,0.957
		c-0.278,0.179-0.309,0.152-0.513-0.168l-0.395-0.619c-0.265-0.418-0.416-0.681-0.469-0.857c-0.083-0.246,0.03-0.424,0.195-0.589
		l0.355-0.361c0.03-0.094-0.086-0.276-0.188-0.271c-0.235,0.152-0.614,0.455-0.999,0.699c-0.406,0.259-0.85,0.479-1.105,0.644
		c-0.049,0.086,0.067,0.268,0.165,0.28l0.492-0.194c0.302-0.115,0.414-0.081,0.537,0.021c0.125,0.101,0.357,0.418,0.643,0.867
		l0.394,0.62c0.203,0.32,0.225,0.353-0.075,0.543l-2.138,1.358c-0.405,0.259-0.427,0.271-0.631-0.05l-0.488-0.769
		c-0.299-0.471-0.506-0.818-0.596-1.077c-0.214-0.643,0.099-0.978,0.499-1.457c0.03-0.095-0.1-0.253-0.19-0.254
		c-0.444,0.342-1.173,0.895-1.313,1.074c0.114,0.108,0.515,0.737,0.949,1.422l1.277,2.01c0.278,0.438,0.499,0.808,0.77,1.28
		c0.073,0.044,0.278-0.057,0.281-0.147l-0.088-0.185C42.456,139.015,42.603,138.891,43.714,138.184z"/>
	<path fill="#C9952C" d="M39.327,130.771l4.132-1.909c1.208-0.559,1.368-0.604,1.758,0.024l0.167,0.272
		c0.112,0.031,0.274-0.07,0.276-0.156c-0.272-0.529-0.476-0.938-0.699-1.422c-0.213-0.46-0.383-0.854-0.598-1.383
		c-0.067-0.057-0.273,0.011-0.299,0.106l0.077,0.259c0.217,0.71,0.089,0.797-1.119,1.354l-1.45,0.671
		c-0.242,0.11-0.264,0.094-0.503-0.424c-0.213-0.462-0.184-0.698-0.01-0.987c0.354-0.596,0.929-1.437,1.217-1.931
		c0.784-1.354,0.801-2.076,0.35-3.053c-0.102-0.219-0.21-0.393-0.292-0.48c-0.073-0.036-0.16,0.019-0.157,0.087
		c0.121,0.32,0.128,0.667,0.046,0.941c-0.295,1.087-0.934,2.122-1.992,3.729c-0.065,0.1-0.154,0.211-0.25,0.185
		c-0.495-0.47-1.494-1.056-2.587-0.55c-0.805,0.372-1.137,1.014-1.168,1.699c-0.044,0.662,0.212,1.367,0.542,2.081
		c0.521,1.128,0.923,1.906,1.278,2.523c0.089,0.071,0.272-0.014,0.293-0.12l-0.124-0.391
		C38.054,131.4,38.233,131.274,39.327,130.771z M37.844,130.311c-0.322,0.149-0.384,0.136-0.715-0.578
		c-0.59-1.277,0.013-2.24,0.922-2.659c0.782-0.362,1.308-0.283,1.693-0.086c0.407,0.217,0.655,0.634,0.847,1.048
		c0.271,0.586,0.328,0.771,0.31,0.822c-0.03,0.055-0.156,0.112-0.364,0.208L37.844,130.311z"/>
	<path fill="#C9952C" d="M41.322,120.664c0.152,0.021,0.281,0.195,0.398,0.465l0.132,0.317c0.095,0.054,0.262-0.009,0.299-0.11
		c-0.148-0.421-0.257-0.746-0.404-1.259c-0.131-0.452-0.242-0.882-0.377-1.438c-0.086-0.064-0.234-0.035-0.312,0.067l0.073,0.388
		c0.064,0.312,0.062,0.576-0.052,0.688c-0.306,0.313-1.886,0.783-2.459,0.949l-2.656,0.771c-0.365,0.104-0.648,0.174-0.809,0.168
		l-0.008-0.024c0.193-0.334,0.953-1.451,1.235-1.891l2.398-3.759c0.898-1.409,1.223-1.886,1.388-2.092
		c-0.039-0.134-0.121-0.19-0.202-0.193c-0.305,0.129-1.755,0.549-2.12,0.655l-2.912,0.843c-0.562,0.162-2.065,0.625-2.563,0.544
		c-0.112-0.02-0.28-0.234-0.454-0.607l-0.073-0.164c-0.095-0.051-0.265-0.001-0.298,0.113c0.145,0.402,0.248,0.717,0.401,1.239
		c0.133,0.464,0.24,0.882,0.379,1.449c0.065,0.092,0.263,0.047,0.312-0.061l-0.034-0.213c-0.081-0.507-0.064-0.722,0.023-0.826
		c0.298-0.338,1.879-0.81,2.452-0.975l2.607-0.756c0.256-0.074,0.451-0.129,0.526-0.099l0.007,0.023
		c-0.419,0.743-0.929,1.538-1.623,2.65l-0.986,1.565c-0.334,0.533-1.526,2.438-2.077,2.861c0.07,0.149,0.143,0.353,0.199,0.548
		c0.063,0.219,0.251,0.866,0.362,1.39c0.076,0.083,0.259,0.03,0.312-0.063l-0.036-0.215c-0.048-0.304-0.047-0.621,0.074-0.841
		c0.206-0.337,0.458-0.423,0.8-0.521l3.521-1.021C39.352,121.063,40.834,120.621,41.322,120.664z"/>
	<path fill="#C9952C" d="M35.523,110.48c1.477,0.343,2.34,0.587,2.948,0.739c0.475,0.115,0.649,0.374,0.714,0.673l0.092,0.41
		c0.073,0.068,0.271,0.016,0.312-0.066c-0.057-0.338-0.141-0.786-0.195-1.201c-0.064-0.593-0.116-0.982-0.134-1.313
		c-0.064-0.107-0.266-0.081-0.317,0.016l0.017,0.42c0.015,0.305-0.053,0.377-0.203,0.397c-0.139,0.019-0.489-0.026-1.08-0.141
		l-1.377-0.268c-0.276-0.053-0.324-0.124-0.364-0.438l-0.249-1.898c-0.05-0.376-0.018-0.432,0.247-0.555l1.638-0.777
		c0.289-0.141,0.507-0.233,0.645-0.251c0.127-0.017,0.224,0.149,0.283,0.41l0.086,0.359c0.075,0.08,0.274,0.042,0.312-0.065
		c-0.061-0.362-0.148-0.836-0.228-1.44c-0.073-0.564-0.118-1.007-0.161-1.525c-0.059-0.058-0.263-0.058-0.313,0.04l0.006,0.344
		c0.008,0.549-0.159,0.736-1.193,1.242l-4.828,2.385c-0.528,0.26-1.08,0.536-1.612,0.773c-0.084,0.035-0.098,0.127-0.088,0.202
		c0.182,0.118,0.436,0.303,0.563,0.592c0.195-0.064,0.444-0.021,0.92,0.098L35.523,110.48z M32.818,108.762l1.96-0.946
		c0.325-0.157,0.379-0.14,0.427,0.225l0.201,1.547c0.047,0.351,0.035,0.365-0.267,0.304l-2.292-0.506
		c-0.395-0.09-0.713-0.176-0.78-0.204l-0.004-0.026C32.205,109.06,32.529,108.901,32.818,108.762z"/>
	<path fill="#C9952C" d="M31.766,104.416c-0.319-0.135-0.6-0.257-0.882-0.557c-0.297-0.313-0.333-1.01-0.341-1.554l-0.011-0.696
		c-0.006-0.381,0.007-0.381,0.399-0.387l5.662-0.087c1.331-0.021,1.522,0.04,1.597,0.762l0.044,0.454
		c0.065,0.101,0.28,0.072,0.316-0.005c-0.038-0.811-0.057-1.253-0.064-1.76c-0.008-0.508-0.002-0.938,0.013-1.66
		c-0.039-0.075-0.268-0.097-0.316-0.021l-0.032,0.406c-0.053,0.735-0.241,0.765-1.571,0.785l-5.638,0.085
		c-0.418,0.006-0.432,0.02-0.437-0.36l-0.014-0.899c-0.012-0.697,0.083-1.18,0.294-1.475c0.137-0.191,0.604-0.287,0.92-0.331
		c0.075-0.064,0.071-0.279-0.031-0.329c-0.379,0.045-1.406-0.028-1.928-0.159c-0.05,0.025-0.061,0.165-0.034,0.228
		c0.331,0.185,0.359,0.299,0.369,0.982l0.078,5.132c0.01,0.582,0.028,1-0.376,1.082c-0.037,0.038-0.022,0.204,0.004,0.241
		c0.508,0.08,1.322,0.259,1.896,0.452C31.782,104.695,31.843,104.515,31.766,104.416z"/>
	<path fill="#C9952C" d="M30.576,94.605l0.056-0.313c0.139-0.739,0.355-0.743,1.692-0.609l4.493,0.447
		c1.338,0.134,1.512,0.177,1.526,0.929l0.006,0.32c0.068,0.084,0.272,0.078,0.317,0.006c0.038-0.633,0.068-1.064,0.121-1.595
		c0.05-0.504,0.105-0.933,0.194-1.562c-0.031-0.078-0.256-0.126-0.313-0.055L38.6,92.486c-0.162,0.736-0.342,0.744-1.679,0.61
		l-4.493-0.447c-1.338-0.134-1.55-0.182-1.538-0.931l0.006-0.318c-0.043-0.082-0.273-0.078-0.318-0.007
		c-0.038,0.633-0.068,1.063-0.118,1.567c-0.053,0.531-0.108,0.959-0.196,1.588C30.293,94.629,30.518,94.676,30.576,94.605z"/>
	<path fill="#C9952C" d="M35.027,89.778c2.223,0.505,4.563-0.704,5.186-3.447c0.541-2.384-0.843-4.698-3.338-5.266
		c-2.175-0.494-4.563,0.471-5.212,3.325C31.087,86.936,32.556,89.218,35.027,89.778z M31.999,84.688
		c0.536-2.36,2.939-2.764,4.979-2.299c2.434,0.552,3.226,2.213,2.89,3.695c-0.553,2.433-3.127,2.784-4.956,2.369
		C32.206,87.839,31.707,85.973,31.999,84.688z"/>
	<path fill="#C9952C" d="M33.847,77.782l0.105-0.19c0.151-0.267,0.35-0.515,0.581-0.611c0.371-0.135,0.623-0.045,0.951,0.09
		l3.388,1.398c0.563,0.232,1.999,0.81,2.353,1.148c0.105,0.111,0.099,0.329,0.021,0.612l-0.095,0.331
		c0.042,0.099,0.21,0.155,0.303,0.098c0.146-0.421,0.265-0.742,0.468-1.235c0.179-0.435,0.36-0.84,0.602-1.359
		c-0.024-0.103-0.161-0.173-0.284-0.141l-0.185,0.349c-0.145,0.283-0.312,0.489-0.471,0.507c-0.434,0.054-1.962-0.563-2.513-0.791
		l-2.558-1.053c-0.351-0.146-0.616-0.269-0.736-0.373l0.009-0.024c0.359-0.14,1.65-0.541,2.144-0.707l4.218-1.443
		c1.582-0.542,2.132-0.713,2.39-0.771c0.054-0.129,0.023-0.224-0.037-0.276c-0.319-0.09-1.715-0.665-2.066-0.811l-2.802-1.155
		c-0.541-0.223-2.004-0.8-2.344-1.172c-0.074-0.086-0.071-0.359,0.024-0.759l0.044-0.174c-0.041-0.1-0.206-0.167-0.303-0.098
		c-0.14,0.4-0.255,0.71-0.463,1.215c-0.184,0.446-0.359,0.841-0.606,1.371c-0.003,0.114,0.181,0.203,0.285,0.149l0.104-0.188
		c0.253-0.445,0.4-0.604,0.535-0.631c0.442-0.077,1.973,0.539,2.523,0.767l2.51,1.035c0.246,0.102,0.434,0.179,0.473,0.25
		l-0.01,0.023c-0.79,0.318-1.684,0.622-2.92,1.06l-1.747,0.609c-0.594,0.208-2.711,0.954-3.406,0.941
		c-0.04,0.16-0.11,0.364-0.188,0.553c-0.087,0.211-0.343,0.833-0.582,1.312C33.571,77.75,33.747,77.823,33.847,77.782z"/>
	<path fill="#C9952C" d="M40.075,64.579c0.192,0.071,0.359,0.262,0.659,0.648L43,68.097c0.941,1.187,1.464,1.915,1.846,2.41
		c0.3,0.388,0.275,0.698,0.141,0.973l-0.183,0.377c0.015,0.098,0.202,0.18,0.284,0.142c0.166-0.3,0.379-0.704,0.594-1.063
		c0.318-0.504,0.521-0.841,0.712-1.109c0.016-0.123-0.158-0.227-0.259-0.184l-0.248,0.338c-0.178,0.248-0.275,0.263-0.405,0.186
		c-0.12-0.072-0.367-0.325-0.758-0.781l-0.911-1.064c-0.183-0.214-0.176-0.299-0.013-0.57l0.985-1.64
		c0.196-0.325,0.255-0.35,0.539-0.281l1.764,0.41c0.313,0.069,0.54,0.133,0.66,0.205c0.108,0.065,0.083,0.256-0.033,0.498
		l-0.157,0.334c0.009,0.108,0.189,0.201,0.285,0.141c0.179-0.324,0.404-0.75,0.718-1.271c0.294-0.489,0.533-0.863,0.822-1.296
		c-0.011-0.075-0.171-0.201-0.271-0.158l-0.208,0.274c-0.335,0.435-0.583,0.478-1.706,0.23l-5.258-1.137
		c-0.575-0.124-1.18-0.251-1.742-0.397c-0.089-0.024-0.156,0.04-0.196,0.104C40.071,63.971,40.155,64.272,40.075,64.579z
		 M41.117,64.91c0.17,0.013,0.521,0.092,0.834,0.161l2.123,0.479c0.352,0.079,0.382,0.127,0.191,0.441l-0.803,1.336
		c-0.183,0.303-0.199,0.307-0.397,0.07l-1.478-1.819c-0.254-0.316-0.448-0.581-0.483-0.646L41.117,64.91z"/>
	<path fill="#C9952C" d="M43.433,59.306l0.216-0.233c0.545-0.588,0.72-0.482,1.766,0.343L49,62.244
		c1.046,0.824,1.17,0.955,0.773,1.58l-0.205,0.321c0.012,0.108,0.188,0.214,0.265,0.177c0.419-0.574,0.661-0.9,0.991-1.318
		l0.723-0.916c0.81-1.026,1.565-1.964,1.986-2.457c-0.159-0.352-0.955-1.433-1.063-1.518c-0.071-0.056-0.26,0.103-0.258,0.202
		c0.352,0.6,0.506,1.142,0.469,1.435c-0.036,0.229-0.162,0.47-0.83,1.317c-0.62,0.786-0.89,0.882-1.085,0.904
		c-0.331,0.03-0.614-0.144-1.241-0.639l-3.466-2.734c-1.046-0.825-1.19-0.971-0.775-1.598l0.168-0.255
		c0.007-0.091-0.188-0.213-0.265-0.177c-0.373,0.512-0.63,0.859-0.937,1.247c-0.314,0.399-0.591,0.73-1.052,1.272
		C43.181,59.173,43.345,59.334,43.433,59.306z"/>
	<path fill="#C9952C" d="M51.933,49.616l0.237-0.151c0.456-0.286,0.677-0.124,1.25,0.553l3.114,3.675
		c0.86,1.016,0.939,1.148,0.444,1.7L56.78,55.61c-0.009,0.107,0.143,0.245,0.225,0.226c0.438-0.404,0.778-0.709,1.185-1.054
		c0.338-0.287,1.022-0.734,1.642-1.259c0.745-0.631,1.432-1.429,1.773-2.3c0.594-1.534,0.29-3.087-0.751-4.315
		c-1.081-1.277-2.673-1.822-4.38-1.189c-0.825,0.301-1.562,0.824-2.374,1.513c-0.822,0.697-1.58,1.39-2.362,2.135
		C51.674,49.487,51.814,49.633,51.933,49.616z M54.431,47.466c2.534-2.147,4.57-0.782,5.473,0.281
		c1.524,1.799,1.724,3.739-0.152,5.33c-0.609,0.516-1.059,0.73-1.525,0.61c-0.361-0.092-0.652-0.378-1.087-0.89l-3.024-3.568
		c-0.369-0.435-0.554-0.693-0.526-0.817C53.616,48.289,53.86,47.95,54.431,47.466z"/>
	<path fill="#C9952C" d="M68.772,47.219c2.104-1.251,2.831-3.851,1.522-6.053c-1.141-1.92-3.487-2.989-6.006-1.491
		c-2.246,1.334-2.891,3.975-1.595,6.154C63.861,47.791,66.352,48.657,68.772,47.219z M64.304,40.122
		c2.083-1.237,4.033,0.23,5.102,2.029c1.275,2.148,0.617,3.868-0.692,4.646c-2.147,1.276-4.177-0.351-5.136-1.965
		C62.158,42.444,63.17,40.796,64.304,40.122z"/>
	<path fill="#C9952C" d="M74.397,42.644c1.269,0.563,2.706,0.449,4.11-0.1c0.638-0.25,1.432-0.724,1.992-1.134
		c0.201-0.146,0.395-0.276,0.536-0.333c0.033-0.053,0.007-0.124-0.043-0.146c-0.245,0-0.427-0.255-0.611-0.727l-0.258-0.661
		c-0.236-0.602-0.353-0.938,0.119-1.189l0.179-0.098c0.055-0.103-0.025-0.275-0.126-0.29c-0.381,0.178-0.777,0.347-1.238,0.525
		c-0.695,0.272-1.349,0.515-1.7,0.625c-0.068,0.067,0.003,0.283,0.116,0.294l0.542-0.145c0.764-0.203,0.827-0.146,1.214,0.844
		l0.186,0.473c0.147,0.378,0.172,0.613,0.145,0.719c-0.051,0.251-0.428,0.575-1.159,0.861c-2.371,0.929-4.235-0.396-5.123-2.66
		c-0.693-1.771-0.327-3.791,1.961-4.687c1.204-0.471,2.247-0.416,3.075,0.729c0.099,0.042,0.306-0.051,0.305-0.16
		c-0.383-0.666-0.694-1.253-0.847-1.642c-0.133,0.079-0.53,0.14-0.772,0.181c-0.219,0.03-0.896,0.146-1.568,0.408
		c-1.781,0.698-2.732,1.71-3.2,2.846c-0.426,1.064-0.359,2.209,0.033,3.211C72.671,41.427,73.412,42.212,74.397,42.644z"/>
	<path fill="#C9952C" d="M87.449,38.457c1.115,0.828,2.545,1.03,4.034,0.8c0.676-0.104,1.556-0.394,2.191-0.672
		c0.229-0.099,0.446-0.183,0.597-0.206c0.044-0.046,0.033-0.121-0.012-0.153c-0.238-0.052-0.36-0.342-0.438-0.843l-0.108-0.7
		c-0.099-0.64-0.14-0.992,0.377-1.136l0.196-0.056c0.076-0.089,0.034-0.275-0.062-0.312c-0.409,0.087-0.832,0.165-1.321,0.24
		c-0.739,0.114-1.43,0.208-1.797,0.238c-0.082,0.054-0.06,0.281,0.049,0.316l0.561-0.022c0.79-0.032,0.839,0.037,1.002,1.088
		l0.077,0.502c0.062,0.4,0.034,0.637-0.015,0.733c-0.105,0.233-0.544,0.468-1.32,0.588c-2.518,0.39-4.049-1.311-4.42-3.715
		c-0.291-1.879,0.507-3.772,2.937-4.147c1.278-0.196,2.282,0.084,2.842,1.383c0.087,0.063,0.311,0.017,0.333-0.091
		c-0.229-0.732-0.404-1.373-0.469-1.786c-0.146,0.049-0.548,0.021-0.794,0.008c-0.221-0.018-0.905-0.053-1.619,0.058
		c-1.891,0.292-3.039,1.071-3.744,2.078c-0.648,0.946-0.833,2.077-0.668,3.142C86.028,36.895,86.582,37.822,87.449,38.457z"/>
	<path fill="#C9952C" d="M96.508,30.6c0.521,0.056,0.562,0.27,0.581,1.473l0.069,4.549c0.02,1.33-0.003,1.496-0.737,1.596
		l-0.314,0.042c-0.075,0.091-0.047,0.279,0.029,0.316c0.596-0.035,1.052-0.054,1.584-0.063c0.506-0.008,0.937-0.002,1.508,0.016
		c0.074-0.04,0.097-0.255,0.021-0.316l-0.267-0.035c-0.737-0.089-0.765-0.241-0.785-1.572l-0.024-1.596
		c-0.004-0.266,0.021-0.279,0.592-0.288c0.507-0.007,0.711,0.116,0.905,0.392c0.401,0.563,0.935,1.431,1.271,1.894
		c0.919,1.268,1.57,1.574,2.647,1.557c0.239-0.003,0.443-0.032,0.555-0.071c0.064-0.052,0.049-0.153-0.015-0.177
		c-0.342-0.021-0.66-0.155-0.879-0.342c-0.873-0.709-1.56-1.712-2.597-3.331c-0.066-0.101-0.131-0.226-0.069-0.303
		c0.63-0.264,1.569-0.938,1.551-2.14c-0.013-0.888-0.464-1.451-1.078-1.758c-0.588-0.308-1.336-0.36-2.121-0.349
		c-1.241,0.02-2.115,0.071-2.823,0.146c-0.101,0.053-0.098,0.255-0.008,0.317L96.508,30.6z M98.927,30.486
		c1.406-0.021,2.041,0.919,2.057,1.921c0.014,0.86-0.271,1.309-0.609,1.58c-0.362,0.284-0.844,0.342-1.299,0.35
		c-0.646,0.009-0.838-0.014-0.876-0.051c-0.038-0.05-0.041-0.189-0.045-0.418l-0.045-2.963
		C98.104,30.55,98.142,30.499,98.927,30.486z"/>
	<path fill="#C9952C" d="M108.634,39.288c2.421,0.341,4.611-1.232,4.969-3.767c0.311-2.209-0.851-4.509-3.749-4.917
		c-2.584-0.363-4.735,1.292-5.09,3.801C104.446,36.665,105.846,38.896,108.634,39.288z M106.076,34.18
		c0.387-2.747,2.203-3.399,3.51-3.216c2.396,0.337,2.999,2.699,2.707,4.769c-0.347,2.473-1.937,3.4-3.442,3.188
		C106.378,38.573,105.814,36.038,106.076,34.18z"/>
	<path fill="#C9952C" d="M118.653,41.569c2.333,0.742,4.759-0.442,5.536-2.886c0.676-2.127-0.085-4.591-2.877-5.479
		c-2.49-0.792-4.891,0.481-5.659,2.898C114.961,38.279,115.969,40.716,118.653,41.569z M116.985,36.102
		c0.842-2.647,2.745-2.987,4.002-2.587c2.309,0.733,2.509,3.166,1.874,5.161c-0.758,2.381-2.481,3.03-3.934,2.569
		C116.547,40.488,116.416,37.891,116.985,36.102z"/>
	<path fill="#C9952C" d="M124.048,43.139c0.391,0.18,0.8,0.384,1.16,0.574c0.424,0.226,0.855,0.469,1.224,0.692
		c0.098,0.009,0.203-0.164,0.161-0.273l-0.409-0.259c-0.419-0.266-0.391-0.48,0.051-1.31c0.505-0.951,1.079-1.923,1.475-2.589
		c0.379-0.631,0.759-1.263,1.171-1.934l0.022,0.014c-0.026,0.646-0.101,1.353-0.139,1.991l-0.142,2.696
		c-0.034,0.685-0.08,2.067-0.205,2.763c0.006,0.045,0.056,0.086,0.078,0.098c0.043,0.023,0.095,0.037,0.135,0.015
		c0.475-0.408,1.538-1.192,2.564-1.91l2.038-1.429c0.455-0.318,1.356-0.987,1.5-1.069l0.023,0.013l-2.446,4.685
		c-0.381,0.717-0.478,0.896-1.055,0.66l-0.343-0.139c-0.102,0.031-0.174,0.194-0.126,0.292c0.471,0.222,0.979,0.478,1.371,0.686
		c0.404,0.214,0.858,0.47,1.306,0.735c0.102-0.003,0.202-0.165,0.169-0.268l-0.34-0.225c-0.501-0.324-0.33-0.62-0.066-1.197
		c0.767-1.659,1.856-3.737,2.464-4.936c0.404-0.789,0.607-0.955,1.349-0.646l0.247,0.102c0.079-0.016,0.182-0.205,0.138-0.286
		c-0.359-0.156-0.734-0.342-1.015-0.491c-0.225-0.118-0.458-0.243-0.823-0.479c-0.294,0.498-0.946,0.942-1.992,1.692l-2.188,1.579
		c-0.583,0.423-1.172,0.856-1.753,1.221l-0.023-0.011c-0.006-0.636,0.021-1.281,0.042-1.944l0.1-3.264
		c0.031-0.9,0.121-1.744,0.398-2.155c-0.388-0.159-0.689-0.319-0.946-0.456c-0.28-0.148-0.544-0.303-0.867-0.504
		c-0.113-0.007-0.213,0.154-0.193,0.252l0.166,0.117c0.637,0.453,0.637,0.668,0.24,1.36c-0.35,0.604-0.901,1.532-1.45,2.431
		c-0.657,1.074-1.039,1.659-1.498,2.363c-0.485,0.747-0.677,0.731-1.182,0.548l-0.265-0.097
		C124.076,42.867,124.01,43.048,124.048,43.139z"/>
	<path fill="#C9952C" d="M136.543,48.123c-0.784,1.092-0.91,1.222-1.567,0.856l-0.28-0.153c-0.106,0.017-0.205,0.196-0.165,0.272
		c0.53,0.349,0.888,0.591,1.32,0.901c0.411,0.296,0.753,0.558,1.255,0.948c0.084,0.014,0.237-0.157,0.204-0.243l-0.234-0.216
		c-0.557-0.508-0.472-0.667,0.312-1.76l2.634-3.666c0.785-1.092,0.93-1.252,1.575-0.866l0.272,0.163
		c0.092,0.003,0.203-0.197,0.165-0.271c-0.529-0.347-0.889-0.588-1.3-0.884c-0.433-0.311-0.775-0.572-1.276-0.963
		c-0.082-0.017-0.238,0.154-0.205,0.239l0.243,0.206c0.569,0.488,0.465,0.678-0.319,1.769L136.543,48.123z"/>
	<path fill="#C9952C" d="M144.209,46.531c-0.001,0.396-0.172,0.599-0.412,0.86l-2.481,2.697c-0.41,0.447-1.449,1.596-1.889,1.811
		c-0.141,0.06-0.342-0.021-0.581-0.191l-0.28-0.203c-0.106,0.004-0.217,0.144-0.194,0.25c0.343,0.282,0.604,0.505,0.998,0.865
		c0.344,0.316,0.661,0.627,1.064,1.032c0.109,0.014,0.221-0.091,0.233-0.217l-0.265-0.293c-0.216-0.233-0.352-0.461-0.312-0.615
		c0.1-0.427,1.205-1.647,1.607-2.087l1.872-2.034c0.257-0.28,0.465-0.486,0.604-0.563l0.018,0.017
		c0.009,0.386-0.061,1.735-0.075,2.255l-0.101,4.455c-0.036,1.671-0.068,2.247-0.1,2.509c0.102,0.094,0.2,0.099,0.27,0.061
		c0.195-0.27,1.217-1.379,1.475-1.659l2.051-2.23c0.396-0.429,1.44-1.604,1.909-1.794c0.104-0.04,0.36,0.058,0.702,0.284
		l0.146,0.103c0.109-0.005,0.229-0.136,0.197-0.251c-0.334-0.28-0.587-0.495-0.988-0.863c-0.354-0.326-0.663-0.628-1.074-1.041
		c-0.101-0.033-0.248,0.107-0.233,0.224l0.143,0.164c0.329,0.391,0.429,0.584,0.406,0.72c-0.08,0.443-1.188,1.664-1.591,2.104
		l-1.836,1.997c-0.179,0.196-0.318,0.345-0.397,0.357l-0.019-0.018c-0.027-0.852-0.004-1.794,0.014-3.104l0.029-1.851
		c0.011-0.628,0.042-2.873,0.292-3.521c-0.138-0.1-0.305-0.237-0.454-0.374c-0.167-0.155-0.662-0.609-1.029-0.998
		c-0.107-0.023-0.236,0.117-0.231,0.224l0.14,0.165C144.035,46.009,144.197,46.28,144.209,46.531z"/>
	<path fill="#C9952C" d="M152.108,55.272c-1.144-0.101-2.219,0.294-3.065,0.96c-0.878,0.689-1.413,1.627-1.541,2.694
		c-0.174,1.377,0.352,2.723,1.284,3.908c0.423,0.537,1.107,1.16,1.66,1.578c0.199,0.15,0.379,0.298,0.474,0.418
		c0.063,0.017,0.121-0.031,0.129-0.085c-0.071-0.232,0.12-0.481,0.518-0.794l0.559-0.439c0.508-0.399,0.793-0.608,1.173-0.229
		l0.145,0.144c0.116,0.023,0.258-0.104,0.242-0.206c-0.277-0.315-0.555-0.646-0.859-1.035c-0.463-0.586-0.884-1.143-1.092-1.446
		c-0.085-0.045-0.271,0.087-0.249,0.197l0.296,0.478c0.416,0.673,0.379,0.75-0.457,1.408l-0.398,0.312
		c-0.318,0.251-0.537,0.343-0.647,0.348c-0.256,0.023-0.674-0.242-1.16-0.86c-1.574-2.003-0.845-4.171,1.067-5.675
		c1.493-1.175,3.534-1.409,5.054,0.522c0.799,1.017,1.047,2.03,0.191,3.154c-0.013,0.107,0.139,0.279,0.242,0.247
		c0.526-0.562,0.998-1.028,1.326-1.287c-0.113-0.103-0.286-0.467-0.397-0.688c-0.092-0.199-0.396-0.814-0.843-1.383
		C154.574,56.009,153.331,55.392,152.108,55.272z"/>
	<path fill="#C9952C" d="M159.995,67.705l-4.176,2.106c-1.187,0.598-1.334,0.645-1.755,0.033l-0.155-0.221
		c-0.102-0.032-0.271,0.081-0.271,0.166c0.274,0.486,0.491,0.888,0.73,1.363c0.228,0.452,0.404,0.832,0.708,1.488
		c0.067,0.051,0.272-0.023,0.293-0.12l-0.119-0.323c-0.286-0.765-0.15-0.86,1.036-1.46l5.049-2.544
		c0.361-0.183,0.413-0.194,0.715,0.405c0.594,1.177,0.205,2.181-0.891,2.734c-0.985,0.496-1.897,0.404-2.741-0.705
		c-0.058-0.056-0.226,0.029-0.22,0.126c0.233,0.465,0.637,1.012,1.127,1.391c0.481,0.366,1.329,0.748,2.369,0.224
		c0.781-0.394,1.175-1.075,1.24-1.762c0.061-0.696-0.168-1.461-0.643-2.399c-0.474-0.939-0.838-1.636-1.221-2.195
		c-0.092-0.067-0.267,0.007-0.293,0.12l0.158,0.431C161.138,67.102,160.957,67.221,159.995,67.705z"/>
	<path fill="#C9952C" d="M157.288,76.451l-0.141-0.285c-0.108-0.043-0.28,0.044-0.291,0.128c0.221,0.555,0.385,0.982,0.562,1.484
		c0.169,0.479,0.3,0.891,0.466,1.438c0.061,0.058,0.272,0.011,0.308-0.083l-0.053-0.263c-0.147-0.729-0.013-0.803,1.243-1.244
		l1.51-0.53c0.249-0.089,0.27-0.068,0.46,0.47c0.167,0.479,0.114,0.713-0.085,0.984c-0.408,0.56-1.063,1.341-1.395,1.808
		c-0.911,1.275-0.995,1.99-0.638,3.008c0.081,0.227,0.172,0.41,0.245,0.505c0.069,0.043,0.16-0.002,0.164-0.071
		c-0.091-0.331-0.063-0.676,0.044-0.942c0.397-1.054,1.131-2.025,2.338-3.525c0.075-0.094,0.174-0.195,0.267-0.16
		c0.448,0.514,1.387,1.193,2.523,0.794c0.839-0.296,1.229-0.903,1.326-1.582c0.106-0.657-0.081-1.384-0.343-2.126
		c-0.412-1.173-0.738-1.985-1.034-2.635c-0.082-0.079-0.272-0.012-0.303,0.094l0.086,0.399c0.112,0.512-0.077,0.619-1.215,1.019
		l-4.296,1.51C157.779,77.086,157.616,77.116,157.288,76.451z M161.585,76.892c0.034-0.053,0.167-0.1,0.383-0.176l2.801-0.983
		c0.334-0.117,0.395-0.099,0.656,0.643c0.467,1.328-0.225,2.231-1.17,2.563c-0.814,0.286-1.329,0.158-1.695-0.076
		c-0.386-0.255-0.594-0.693-0.744-1.124C161.601,77.128,161.562,76.939,161.585,76.892z"/>
	<path fill="#C9952C" d="M163.578,83.113c-2.24,0.431-3.898,2.479-3.369,5.243c0.464,2.403,2.662,3.969,5.176,3.485
		c2.19-0.421,3.995-2.266,3.44-5.142C168.333,84.136,166.069,82.634,163.578,83.113z M168.399,86.563
		c0.457,2.378-1.584,3.712-3.64,4.107c-2.452,0.472-3.847-0.732-4.133-2.226c-0.472-2.453,1.747-3.81,3.588-4.164
		C166.943,83.758,168.15,85.269,168.399,86.563z"/>
	<path fill="#C9952C" d="M163.261,95.054c-1.331,0.065-1.497,0.048-1.622-0.682l-0.052-0.315c-0.08-0.072-0.282-0.036-0.315,0.041
		c0.055,0.596,0.089,1.025,0.116,1.583c0.024,0.508,0.033,0.938,0.046,1.688c0.042,0.072,0.271,0.086,0.316,0.006l0.018-0.432
		c0.027-0.75,0.215-0.785,1.545-0.851l1.761-0.088c0.329-0.017,0.344,0.021,0.363,0.4l0.043,0.862
		c0.023,0.481,0.026,0.798-0.015,0.979c-0.063,0.244-0.237,0.354-0.462,0.43l-0.487,0.15c-0.072,0.093-0.063,0.283,0.016,0.33
		c0.29-0.012,0.771-0.086,1.228-0.108c0.469-0.023,0.978,0.002,1.28-0.014c0.075-0.057,0.064-0.273-0.015-0.333l-0.514-0.088
		c-0.334-0.06-0.401-0.158-0.459-0.295c-0.059-0.149-0.104-0.554-0.13-1.073l-0.042-0.861c-0.02-0.38-0.021-0.417,0.32-0.435
		l2.675-0.133c0.479-0.023,0.506-0.025,0.524,0.354l0.038,0.772c0.026,0.533,0.048,0.95-0.014,1.233
		c-0.136,0.642-0.596,0.816-1.16,0.946c-0.071,0.093-0.024,0.268,0.053,0.302c0.481-0.05,1.088-0.092,1.671-0.121
		c-0.047-0.162-0.082-0.897-0.123-1.708l-0.115-2.331c-0.025-0.507-0.034-0.938-0.035-1.471c-0.042-0.074-0.271-0.088-0.318-0.011
		l-0.015,0.205c-0.053,0.738-0.229,0.773-1.559,0.84L163.261,95.054z"/>
	<path fill="#C9952C" d="M169.648,101.966l-0.039,0.199c-0.142,0.739-0.333,0.752-1.648,0.659l-4.552-0.322
		c-1.327-0.095-1.514-0.172-1.526-0.896l-0.007-0.422c-0.071-0.08-0.275-0.069-0.319,0.003c-0.026,0.75-0.044,1.18-0.082,1.724
		l-0.081,1.139c-0.08,1.124-0.172,2.249-0.277,3.385c0.33,0.188,1.281,0.574,1.718,0.693c0.116-0.042,0.167-0.217,0.11-0.31
		c-0.635-0.376-1.053-0.747-1.162-0.984c-0.121-0.288-0.146-0.658-0.076-1.632c0.079-1.112,0.237-1.368,0.398-1.509
		c0.229-0.187,0.663-0.195,1.332-0.148l1.783,0.127c0.327,0.023,0.339,0.062,0.313,0.44l-0.053,0.734
		c-0.035,0.492-0.068,0.795-0.131,0.97c-0.083,0.248-0.278,0.323-0.51,0.357l-0.501,0.079c-0.08,0.057-0.095,0.272-0.011,0.329
		c0.278,0.016,0.762-0.001,1.218,0.031c0.481,0.033,0.97,0.119,1.273,0.141c0.092-0.04,0.107-0.255,0.035-0.323l-0.511-0.138
		c-0.311-0.085-0.381-0.18-0.421-0.335s-0.037-0.549,0-1.081l0.053-0.733c0.025-0.379,0.029-0.417,0.382-0.392l2.53,0.18
		c0.48,0.034,0.506,0.035,0.478,0.415l-0.063,0.909c-0.04,0.558-0.08,0.961-0.162,1.222c-0.213,0.646-0.661,0.729-1.271,0.877
		c-0.08,0.057-0.067,0.262,0.003,0.317c0.561-0.011,1.477-0.023,1.696-0.083c-0.027-0.156,0.027-0.901,0.084-1.711l0.169-2.376
		c0.036-0.519,0.079-0.947,0.143-1.49C169.93,101.935,169.704,101.893,169.648,101.966z"/>
	<path fill="#C9952C" d="M167.111,110.659c-1.021-0.193-1.868,0.393-2.398,0.938l-0.996,1.037c-0.758,0.797-1.389,0.792-1.937,0.688
		c-0.748-0.143-1.336-0.783-1.136-1.829c0.273-1.443,1.593-1.723,2.263-1.789c0.085-0.035,0.094-0.228,0.02-0.306
		c-0.589-0.085-1.506-0.093-1.808,0.004c-0.183,0.211-0.631,0.81-0.83,1.855c-0.308,1.619,0.429,2.83,1.799,3.09
		c1.182,0.227,2.051-0.408,2.687-1.102l0.813-0.877c0.374-0.405,1.01-0.904,1.732-0.767c0.573,0.109,1.332,0.524,1.1,1.745
		c-0.227,1.195-1.1,1.377-1.729,1.424c-0.088,0.051-0.088,0.256-0.021,0.319c0.523,0.101,1.243,0.12,1.563,0.065
		c0.019-0.1,0.076-0.27,0.157-0.421c0.149-0.309,0.31-0.742,0.382-1.128C169.077,111.988,168.294,110.885,167.111,110.659z"/>
	<path fill="#C9952C" d="M165.601,117.766c-0.995-0.303-1.902,0.189-2.486,0.675l-1.104,0.924c-0.841,0.712-1.469,0.639-2.003,0.477
		c-0.728-0.222-1.245-0.922-0.934-1.941c0.429-1.408,1.771-1.543,2.445-1.537c0.088-0.025,0.119-0.216,0.053-0.303
		c-0.579-0.149-1.489-0.254-1.799-0.189c-0.205,0.189-0.715,0.737-1.026,1.757c-0.481,1.577,0.122,2.862,1.457,3.27
		c1.153,0.351,2.087-0.188,2.793-0.809l0.902-0.785c0.416-0.364,1.104-0.791,1.808-0.575c0.559,0.17,1.271,0.665,0.906,1.854
		c-0.354,1.164-1.244,1.253-1.874,1.232c-0.091,0.039-0.114,0.245-0.056,0.314c0.509,0.156,1.224,0.254,1.547,0.233
		c0.03-0.097,0.106-0.26,0.202-0.402c0.181-0.291,0.387-0.706,0.502-1.082C167.413,119.3,166.753,118.117,165.601,117.766z"/>
	<path fill="#C9952C" d="M165.067,124.816l-0.146,0.283c-0.34,0.669-0.548,0.611-1.791,0.104l-4.174-1.705
		c-1.244-0.508-1.398-0.598-1.198-1.323l0.085-0.308c-0.042-0.1-0.24-0.151-0.304-0.097c-0.215,0.596-0.365,1-0.567,1.492
		c-0.191,0.469-0.365,0.861-0.629,1.439c0.007,0.084,0.208,0.194,0.284,0.144l0.154-0.279c0.365-0.657,0.538-0.614,1.781-0.106
		l4.175,1.703c1.242,0.508,1.433,0.613,1.208,1.328l-0.096,0.304c0.019,0.09,0.238,0.151,0.303,0.096
		c0.216-0.598,0.366-1,0.559-1.469c0.201-0.492,0.375-0.887,0.638-1.462C165.344,124.876,165.144,124.766,165.067,124.816z"/>
	<path fill="#C9952C" d="M159.441,128.178c-1.991-1.119-4.579-0.627-5.959,1.825c-1.2,2.133-0.531,4.747,1.7,6.004
		c1.945,1.092,4.51,0.85,5.945-1.703C162.409,132.027,161.649,129.42,159.441,128.178z M160.892,133.923
		c-1.187,2.11-3.607,1.812-5.43,0.786c-2.177-1.225-2.463-3.044-1.717-4.368c1.224-2.177,3.793-1.779,5.428-0.86
		C161.591,130.841,161.537,132.774,160.892,133.923z"/>
	<path fill="#C9952C" d="M157.147,140.016l-0.154,0.151c-0.222,0.214-0.482,0.395-0.731,0.422c-0.395,0.024-0.608-0.134-0.884-0.356
		l-2.853-2.298c-0.473-0.382-1.682-1.343-1.928-1.767c-0.067-0.138,0-0.344,0.153-0.595l0.185-0.289
		c-0.011-0.107-0.156-0.209-0.262-0.18c-0.259,0.362-0.464,0.636-0.798,1.051c-0.295,0.365-0.582,0.702-0.961,1.131
		c-0.006,0.106,0.104,0.212,0.231,0.217l0.276-0.281c0.217-0.231,0.438-0.381,0.592-0.352c0.432,0.07,1.723,1.094,2.187,1.469
		l2.148,1.734c0.298,0.238,0.517,0.43,0.603,0.566l-0.015,0.019c-0.385,0.032-1.735,0.051-2.255,0.071l-4.451,0.188
		c-1.667,0.069-2.242,0.077-2.506,0.06c-0.089,0.11-0.086,0.21-0.043,0.276c0.279,0.178,1.453,1.123,1.749,1.363l2.359,1.899
		c0.453,0.366,1.691,1.332,1.912,1.787c0.046,0.103-0.035,0.364-0.238,0.721l-0.092,0.152c0.012,0.106,0.147,0.218,0.261,0.179
		c0.252-0.346,0.449-0.611,0.791-1.034c0.303-0.375,0.582-0.702,0.968-1.141c0.034-0.106-0.114-0.244-0.231-0.224l-0.154,0.152
		c-0.366,0.354-0.554,0.466-0.69,0.451c-0.446-0.05-1.737-1.073-2.201-1.447l-2.11-1.702c-0.208-0.167-0.365-0.294-0.383-0.375
		l0.016-0.019c0.849-0.082,1.791-0.12,3.099-0.188l1.847-0.09c0.626-0.031,2.869-0.146,3.529,0.063
		c0.086-0.143,0.211-0.318,0.338-0.477c0.142-0.178,0.564-0.701,0.928-1.091C157.401,140.124,157.254,140.004,157.147,140.016z"/>
	<path fill="#C9952C" d="M147.008,150.113l-1.367-3.396c-0.568-1.404-0.864-2.252-1.093-2.835c-0.178-0.457-0.066-0.748,0.14-0.973
		l0.283-0.311c0.012-0.099-0.145-0.23-0.233-0.217c-0.243,0.242-0.563,0.569-0.871,0.853c-0.446,0.394-0.735,0.659-0.996,0.864
		c-0.049,0.114,0.086,0.264,0.195,0.25l0.334-0.256c0.242-0.187,0.34-0.173,0.442-0.061c0.095,0.102,0.261,0.414,0.508,0.964
		l0.575,1.279c0.114,0.256,0.085,0.336-0.148,0.551l-1.411,1.295c-0.28,0.258-0.343,0.265-0.597,0.119l-1.579-0.892
		c-0.278-0.156-0.479-0.281-0.574-0.384c-0.085-0.093-0.007-0.269,0.172-0.469l0.245-0.276c0.022-0.106-0.125-0.247-0.233-0.216
		c-0.263,0.259-0.601,0.603-1.047,1.016c-0.421,0.385-0.755,0.676-1.156,1.01c-0.012,0.081,0.106,0.247,0.216,0.233l0.277-0.203
		c0.444-0.322,0.693-0.295,1.703,0.26l4.729,2.574c0.517,0.283,1.063,0.574,1.561,0.874c0.078,0.048,0.16,0.007,0.216-0.045
		c-0.007-0.217-0.004-0.53,0.16-0.801C147.291,150.799,147.184,150.57,147.008,150.113z M146.551,150.31
		c-0.16-0.061-0.476-0.235-0.757-0.39l-1.901-1.059c-0.315-0.175-0.333-0.229-0.063-0.478l1.148-1.056
		c0.261-0.239,0.28-0.239,0.402,0.044l0.904,2.164c0.155,0.374,0.268,0.684,0.284,0.756L146.551,150.31z"/>
	<path fill="#C9952C" d="M142.768,155.005l-0.272,0.163c-0.688,0.411-0.827,0.26-1.597-0.822l-2.646-3.718
		c-0.772-1.084-0.855-1.243-0.301-1.73l0.288-0.253c0.019-0.104-0.121-0.255-0.204-0.242c-0.563,0.432-0.888,0.678-1.319,0.986
		l-0.951,0.675c-1.063,0.758-2.051,1.445-2.593,1.8c0.054,0.382,0.515,1.64,0.596,1.755c0.05,0.072,0.277-0.026,0.303-0.123
		c-0.168-0.673-0.165-1.235-0.046-1.507c0.099-0.211,0.285-0.405,1.164-1.03c0.814-0.58,1.1-0.598,1.293-0.563
		c0.326,0.064,0.547,0.31,1.01,0.96l2.558,3.592c0.772,1.085,0.87,1.265,0.298,1.751l-0.233,0.195
		c-0.033,0.087,0.12,0.258,0.203,0.244c0.504-0.381,0.847-0.641,1.249-0.929c0.413-0.294,0.771-0.532,1.363-0.924
		C142.97,155.202,142.858,155.001,142.768,155.005z"/>
	<path fill="#C9952C" d="M100,17.744c-45.355,0-82.255,36.899-82.255,82.256c0,45.357,36.899,82.256,82.255,82.256
		c45.357,0,82.256-36.898,82.256-82.256C182.256,54.644,145.357,17.744,100,17.744z M100,179.88
		c-44.045,0-79.879-35.833-79.879-79.88c0-44.046,35.834-79.88,79.879-79.88c44.047,0,79.881,35.834,79.881,79.88
		C179.881,144.047,144.047,179.88,100,179.88z"/>
	<path fill="#C9952C" d="M131.942,111.79c-0.501,1.323-1.088,3.138-0.416,4.481c1.309-1.165,1.844-2.926,1.521-4.634
		c-0.09-0.46-0.243-0.902-0.463-1.315C132.347,110.802,132.132,111.29,131.942,111.79z"/>
	<path fill="#C9952C" d="M137.296,103.164c0.507-1.594,0.032-3.325-0.998-4.604c-0.29-0.35-0.627-0.662-1.002-0.918
		c0.036,0.521,0.097,1.042,0.183,1.558C135.707,100.549,136.137,102.37,137.296,103.164z"/>
	<path fill="#C9952C" d="M130.432,115.268c-0.005-0.479-0.077-0.957-0.221-1.413c-1.004,1.353-2.78,4.188-2.159,5.805
		C129.57,118.808,130.449,116.975,130.432,115.268z"/>
	<path fill="#C9952C" d="M132.094,116.751c1.671,0.479,3.423-1.049,4.392-2.229c0.421-0.511,0.786-1.07,1.091-1.657
		c-0.494,0.126-0.975,0.301-1.438,0.508C134.527,114.103,133.027,115.24,132.094,116.751z"/>
	<path fill="#C9952C" d="M128.521,120.241c1.601,0.859,3.585-0.36,4.835-1.329c0.539-0.442,1.031-0.945,1.467-1.489
		c-0.523,0.03-1.044,0.114-1.552,0.234C131.591,118.054,129.688,118.94,128.521,120.241z"/>
	<path fill="#C9952C" d="M131.996,85.738c-0.401-0.148-0.822-0.247-1.251-0.285c0.85,1.262,2.63,3.331,4.18,3.391
		C134.649,87.403,133.324,86.229,131.996,85.738z"/>
	<path fill="#C9952C" d="M134.934,112.653c1.726,0.126,2.996-1.602,3.751-2.923c0.306-0.576,0.551-1.186,0.73-1.811
		c-0.449,0.224-0.882,0.492-1.287,0.788C136.823,109.65,135.448,111.1,134.934,112.653z"/>
	<path fill="#C9952C" d="M139.223,103.664c-1.059,1.187-2.112,2.882-2.305,4.489c1.691-0.25,2.575-2.187,3.04-3.624
		c0.183-0.622,0.3-1.266,0.353-1.911C139.92,102.936,139.558,103.291,139.223,103.664z"/>
	<path fill="#C9952C" d="M135.577,88.524c0.819-1.176,0.094-3.229-0.54-4.324c-0.276-0.48-0.604-0.935-0.977-1.35
		c-0.03,0.463-0.025,0.929,0.01,1.392C134.181,85.661,134.622,87.426,135.577,88.524z"/>
	<path fill="#C9952C" d="M136.036,103.233c-0.229-0.401-0.511-0.771-0.844-1.093c-0.175,1.613-0.249,4.706,1.025,5.782
		C137.033,106.52,136.817,104.603,136.036,103.233z"/>
	<path fill="#C9952C" d="M133.327,85.406c0.042-1.779-1.915-3.536-3.59-4.161c0.188,0.422,0.403,0.833,0.642,1.23
		C131.018,83.542,132.109,84.978,133.327,85.406z"/>
	<path fill="#C9952C" d="M134.262,106.415c-0.463,1.562-1.07,4.601,0.025,5.877c1.063-1.246,1.194-3.172,0.636-4.665
		C134.761,107.193,134.541,106.781,134.262,106.415z"/>
	<path fill="#C9952C" d="M134.251,89.746c-0.376-0.22-0.782-0.394-1.207-0.504c0.66,1.468,2.026,3.788,3.575,4.094
		C136.533,91.769,135.565,90.522,134.251,89.746z"/>
	<path fill="#C9952C" d="M137.711,88.787c-0.182-0.547-0.433-1.087-0.715-1.586c-0.131,0.456-0.218,0.926-0.275,1.397
		c-0.189,1.554-0.128,3.141,0.604,4.546C138.396,92.175,138.106,89.994,137.711,88.787z"/>
	<path fill="#C9952C" d="M135.683,94.014c-0.339-0.281-0.715-0.516-1.119-0.692c0.38,1.513,1.389,4.251,2.869,4.831
		C137.678,96.619,136.85,94.979,135.683,94.014z"/>
	<path fill="#C9952C" d="M138.026,103.257c1.516-0.586,2.072-2.722,2.193-4.211c0.052-0.629,0.036-1.264-0.039-1.889
		c-0.314,0.384-0.59,0.798-0.837,1.227C138.522,99.836,137.922,101.583,138.026,103.257z"/>
	<path fill="#C9952C" d="M138.164,98.102c1.718-1.178,1.491-4.316,0.883-6.113c-0.224,0.422-0.411,0.865-0.566,1.317
		C137.986,94.748,137.714,96.616,138.164,98.102z"/>
	<path fill="#C9952C" d="M134.291,113.354c2.571-4.453,3.604-8.244,3.683-13.387c-0.082-3.899-0.706-6.819-2.262-10.395
		c-0.701-1.521-1.418-2.775-2.371-4.148c0.926,1.387,1.623,2.654,2.296,4.182c1.489,3.575,2.077,6.486,2.117,10.361
		c-0.13,5.085-1.179,8.824-3.75,13.212c-2.645,4.136-5.396,6.744-9.67,9.162c0.064,0.115,0.127,0.234,0.19,0.352
		C128.852,120.228,131.633,117.568,134.291,113.354z"/>
	<path fill="#C9952C" d="M68.058,111.79c-0.188-0.5-0.404-0.988-0.643-1.468c-0.218,0.413-0.371,0.855-0.462,1.315
		c-0.322,1.708,0.213,3.469,1.521,4.634C69.145,114.928,68.561,113.113,68.058,111.79z"/>
	<path fill="#C9952C" d="M61.976,103.257c0.102-1.674-0.498-3.421-1.318-4.873c-0.246-0.429-0.523-0.843-0.835-1.227
		c-0.077,0.625-0.092,1.26-0.041,1.889C59.901,100.535,60.46,102.671,61.976,103.257z"/>
	<path fill="#C9952C" d="M63.281,88.599c-0.058-0.472-0.146-0.941-0.275-1.397c-0.283,0.499-0.534,1.039-0.715,1.586
		c-0.397,1.207-0.686,3.388,0.386,4.357C63.409,91.739,63.47,90.152,63.281,88.599z"/>
	<path fill="#C9952C" d="M61.837,98.102c0.45-1.485,0.178-3.354-0.317-4.796c-0.154-0.452-0.342-0.896-0.566-1.317
		C60.348,93.785,60.119,96.924,61.837,98.102z"/>
	<path fill="#C9952C" d="M65.931,84.242c0.035-0.463,0.041-0.929,0.01-1.392c-0.37,0.415-0.699,0.869-0.979,1.35
		c-0.632,1.095-1.355,3.148-0.539,4.324C65.38,87.426,65.819,85.661,65.931,84.242z"/>
	<path fill="#C9952C" d="M65.179,117.423c0.437,0.544,0.927,1.047,1.466,1.489c1.25,0.969,3.235,2.188,4.838,1.329
		c-1.17-1.301-3.072-2.188-4.752-2.584C66.222,117.537,65.701,117.453,65.179,117.423z"/>
	<path fill="#C9952C" d="M68.004,85.738c-1.328,0.49-2.653,1.665-2.93,3.105c1.552-0.06,3.333-2.129,4.182-3.391
		C68.829,85.491,68.407,85.59,68.004,85.738z"/>
	<path fill="#C9952C" d="M67.906,116.751c-0.935-1.511-2.431-2.648-4.045-3.378c-0.463-0.207-0.943-0.382-1.437-0.508
		c0.305,0.587,0.67,1.146,1.09,1.657C64.484,115.702,66.236,117.23,67.906,116.751z"/>
	<path fill="#C9952C" d="M65.065,112.653c-0.515-1.554-1.888-3.003-3.19-3.945c-0.407-0.296-0.839-0.564-1.29-0.788
		c0.181,0.625,0.426,1.234,0.731,1.811C62.071,111.052,63.343,112.779,65.065,112.653z"/>
	<path fill="#C9952C" d="M63.083,108.153c-0.192-1.607-1.245-3.303-2.305-4.489c-0.335-0.373-0.697-0.729-1.088-1.046
		c0.053,0.646,0.169,1.289,0.352,1.911C60.509,105.967,61.392,107.903,63.083,108.153z"/>
	<path fill="#C9952C" d="M65.749,89.746c-1.313,0.776-2.282,2.022-2.368,3.59c1.55-0.306,2.915-2.626,3.576-4.094
		C66.534,89.353,66.127,89.526,65.749,89.746z"/>
	<path fill="#C9952C" d="M62.705,103.164c1.158-0.794,1.588-2.615,1.815-3.965c0.088-0.516,0.149-1.036,0.186-1.558
		c-0.376,0.256-0.713,0.568-1.003,0.918C62.672,99.839,62.197,101.57,62.705,103.164z"/>
	<path fill="#C9952C" d="M69.568,115.268c-0.017,1.707,0.863,3.54,2.382,4.392c0.619-1.617-1.156-4.452-2.159-5.805
		C69.646,114.311,69.574,114.789,69.568,115.268z"/>
	<path fill="#C9952C" d="M69.621,82.476c0.237-0.397,0.453-0.809,0.644-1.23c-1.676,0.625-3.632,2.382-3.592,4.161
		C67.892,84.978,68.983,83.542,69.621,82.476z"/>
	<path fill="#C9952C" d="M64.808,102.141c-0.331,0.321-0.613,0.691-0.843,1.093c-0.782,1.369-0.996,3.286-0.181,4.689
		C65.059,106.847,64.983,103.754,64.808,102.141z"/>
	<path fill="#C9952C" d="M65.438,93.321c-0.404,0.177-0.78,0.411-1.118,0.692c-1.167,0.965-1.998,2.605-1.752,4.139
		C64.048,97.572,65.06,94.834,65.438,93.321z"/>
	<path fill="#C9952C" d="M65.739,106.415c-0.278,0.366-0.498,0.778-0.66,1.212c-0.559,1.493-0.43,3.419,0.635,4.665
		C66.81,111.016,66.201,107.977,65.739,106.415z"/>
	<path fill="#C9952C" d="M65.997,113.18c-2.572-4.388-3.619-8.127-3.75-13.212c0.04-3.875,0.626-6.786,2.115-10.361
		c0.675-1.527,1.373-2.795,2.298-4.182c-0.953,1.373-1.671,2.628-2.37,4.148c-1.557,3.575-2.183,6.495-2.263,10.395
		c0.079,5.143,1.11,8.934,3.684,13.387c2.657,4.214,5.438,6.873,9.765,9.339c0.064-0.117,0.128-0.236,0.192-0.352
		C71.393,119.924,68.643,117.315,65.997,113.18z"/>
	<circle fill="#C9952C" cx="70.875" cy="160.089" r="2.026"/>
	<circle fill="#C9952C" cx="129.254" cy="160.566" r="2.026"/>
	<path fill="#C9952C" d="M83.321,158.014c-0.648-0.192-1.169-0.364-1.931-0.622c-0.105,0.018-0.219,0.286-0.145,0.376l0.376,0.146
		c0.887,0.347,0.84,0.617,0.355,2.253l-1.626,5.491c-0.484,1.634-0.579,1.841-1.521,1.681l-0.399-0.068
		c-0.119,0.065-0.162,0.32-0.082,0.395c0.779,0.198,1.309,0.337,1.956,0.529c0.617,0.183,1.137,0.354,1.899,0.612
		c0.105-0.018,0.219-0.287,0.145-0.376l-0.372-0.161c-0.878-0.377-0.844-0.602-0.36-2.237l1.627-5.491
		c0.484-1.636,0.593-1.887,1.525-1.695l0.395,0.083c0.111-0.033,0.162-0.32,0.083-0.395
		C84.467,158.336,83.938,158.196,83.321,158.014z"/>
	<path fill="#C9952C" d="M95.213,160.692c-0.993-0.507-2.116-0.735-3.458-0.895c-1.359-0.16-2.658-0.265-4.026-0.346
		c-0.167,0.045-0.182,0.304-0.063,0.398l0.346,0.09c0.66,0.175,0.701,0.52,0.568,1.639l-0.717,6.072
		c-0.197,1.678-0.252,1.866-1.194,1.885l-0.373,0.005c-0.106,0.084-0.105,0.344-0.015,0.402c0.754,0.058,1.331,0.108,2.003,0.188
		c0.559,0.064,1.566,0.313,2.589,0.435c1.23,0.146,2.566,0.091,3.671-0.344c1.938-0.776,3.119-2.404,3.358-4.433
		C98.149,163.68,97.279,161.73,95.213,160.692z M96.3,165.633c-0.351,2.972-1.981,4.837-5.081,4.473
		c-1.007-0.119-1.596-0.352-1.889-0.888c-0.227-0.415-0.213-0.932-0.114-1.78l0.696-5.896c0.085-0.719,0.164-1.113,0.304-1.195
		c0.14-0.081,0.665-0.147,1.608-0.038C96.011,160.803,96.507,163.875,96.3,165.633z"/>
	<path fill="#C9952C" d="M111.879,165.847c-0.524,0.088-1.067,0.157-1.691,0.22c-0.943,0.093-1.825,0.166-2.292,0.18
		c-0.109,0.058-0.095,0.348,0.038,0.398l0.712,0.009c1.005,0.014,1.063,0.105,1.196,1.448l0.063,0.641
		c0.051,0.513,0,0.81-0.068,0.929c-0.151,0.29-0.722,0.558-1.713,0.656c-3.217,0.32-5.043-1.939-5.349-5.012
		c-0.241-2.399,0.899-4.744,4.005-5.054c1.632-0.163,2.888,0.262,3.509,1.945c0.105,0.087,0.392,0.041,0.426-0.092
		c-0.239-0.945-0.419-1.768-0.472-2.296c-0.189,0.052-0.696-0.013-1.006-0.045c-0.278-0.036-1.145-0.129-2.057-0.038
		c-2.416,0.241-3.927,1.151-4.889,2.379c-0.885,1.154-1.196,2.576-1.061,3.936c0.141,1.408,0.779,2.622,1.834,3.487
		c1.356,1.125,3.155,1.479,5.06,1.29c0.863-0.087,1.998-0.393,2.824-0.702c0.295-0.11,0.577-0.203,0.769-0.223
		c0.06-0.055,0.049-0.15-0.004-0.193c-0.297-0.083-0.432-0.459-0.496-1.098l-0.09-0.897c-0.082-0.815-0.11-1.266,0.555-1.413
		l0.252-0.057C112.038,166.138,111.998,165.9,111.879,165.847z"/>
	<path fill="#C9952C" d="M119.634,157.745c-0.858-0.227-1.863-0.109-3.142,0.276c-1.279,0.385-2.23,0.688-3.014,1.042
		c-0.105,0.099-0.052,0.335,0.085,0.396l0.572-0.107c0.717-0.131,0.827,0.121,1.222,1.431l1.713,5.683
		c0.486,1.616,0.512,1.812-0.344,2.204l-0.31,0.144c-0.063,0.12,0.041,0.357,0.147,0.376c0.668-0.236,1.218-0.418,1.863-0.613
		c0.616-0.186,1.131-0.323,2.017-0.557c0.079-0.074,0.032-0.346-0.085-0.395l-0.431,0.078c-1.018,0.189-1.108-0.001-1.597-1.617
		l-2.069-6.869c-0.148-0.494-0.151-0.559,0.665-0.804c1.602-0.483,2.771,0.222,3.221,1.715c0.404,1.34,0.087,2.46-1.483,3.27
		c-0.083,0.059-0.014,0.29,0.108,0.304c0.633-0.19,1.407-0.575,1.985-1.103c0.564-0.523,1.23-1.495,0.803-2.913
		C121.241,158.622,120.477,157.979,119.634,157.745z"/>
</g>
<g>
</g>
<g>
</g>
<g>
</g>
<g>
</g>
<g>
</g>
<g>
</g>
</svg>
