<?xml version="1.0" encoding="UTF-8"?>
<svg id="Layer_1" xmlns="http://www.w3.org/2000/svg" version="1.1" viewBox="0 0 317.97 317.97">
  <!-- Generator: Adobe Illustrator 30.5.1, SVG Export Plug-In . SVG Version: 2.1.4 Build 3)  -->
  <defs>
    <style>
      .st0 {
        fill: #e1bb94;
      }
    </style>
  </defs>
  <g>
    <g>
      <path class="st0" d="M316.19,156.05l-12.79-9.7,10.91-11.77c.79-.85,1.13-2,.93-3.14-.2-1.14-.91-2.1-1.94-2.63l-14.29-7.33,8.71-13.49c.63-.98.76-2.16.37-3.26-.4-1.09-1.26-1.91-2.37-2.26l-15.34-4.74,6.23-14.8c.45-1.07.37-2.26-.21-3.27-.58-1-1.58-1.66-2.73-1.81l-15.93-2.01,3.56-15.65c.25-1.1-.01-2.23-.71-3.11-.7-.88-1.75-1.39-2.87-1.39l-16.22.79.79-16.04c.05-1.02-.31-1.98-1.01-2.72-.88-.93-2.23-1.34-3.48-1.05l-15.65,3.56-2-15.93c-.23-1.84-1.81-3.22-3.66-3.22-.49,0-.97.1-1.43.29l-14.79,6.23-4.74-15.34c-.48-1.55-1.89-2.6-3.52-2.6-.71,0-1.39.2-1.99.59l-13.49,8.7-7.33-14.28c-.63-1.24-1.89-2-3.28-2-.93,0-1.82.35-2.5.98l-11.78,10.91-9.7-12.79c-.7-.93-1.77-1.46-2.93-1.46s-2.23.53-2.93,1.46l-9.7,12.79-11.77-10.91c-.68-.63-1.57-.98-2.5-.98-1.39,0-2.65.77-3.28,2l-7.33,14.28-13.49-8.7c-.6-.39-1.29-.59-1.99-.59-1.63,0-3.04,1.04-3.52,2.6l-4.74,15.34-14.8-6.22c-.46-.19-.94-.29-1.43-.29-1.85,0-3.42,1.39-3.65,3.22l-2.01,15.93-15.65-3.56c-1.25-.28-2.6.12-3.49,1.05-.7.74-1.06,1.7-1.01,2.72l.79,16.03-16.04-.79h-.18c-1.12,0-2.17.5-2.88,1.38-.7.88-.96,2.01-.71,3.11l3.56,15.65-15.93,2.01c-1.15.14-2.15.8-2.73,1.81-.58,1.01-.66,2.2-.2,3.27l6.23,14.8-15.34,4.74c-1.11.34-1.98,1.17-2.37,2.26-.4,1.09-.26,2.28.37,3.25l8.7,13.49-14.28,7.33c-1.03.53-1.74,1.49-1.94,2.63-.2,1.15.14,2.29.93,3.14l10.91,11.77-12.79,9.7c-.93.7-1.46,1.77-1.46,2.93,0,1.16.53,2.23,1.46,2.93l12.79,9.7-10.91,11.77c-.79.86-1.13,2-.92,3.15.2,1.14.91,2.1,1.94,2.63l14.28,7.33-8.7,13.5c-.63.97-.77,2.16-.37,3.25.4,1.09,1.26,1.92,2.38,2.26l15.34,4.74-6.23,14.79c-.45,1.07-.38,2.26.2,3.27.58,1.01,1.57,1.67,2.73,1.81l15.93,2.01-3.56,15.65c-.25,1.1,0,2.24.71,3.12.7.88,1.75,1.39,2.87,1.39l16.22-.79-.79,16.03c-.05,1.02.31,1.98,1.01,2.72.88.93,2.22,1.34,3.49,1.05l15.65-3.56,2.01,15.93c.23,1.84,1.8,3.22,3.65,3.22.49,0,.97-.1,1.43-.29l14.79-6.23,4.74,15.34c.48,1.55,1.9,2.6,3.52,2.6.71,0,1.39-.2,1.99-.59l13.49-8.7,7.33,14.28c.63,1.23,1.89,2,3.28,2,.93,0,1.82-.35,2.5-.99l11.77-10.91,9.7,12.79c.7.93,1.77,1.46,2.93,1.46s2.23-.53,2.93-1.46l9.7-12.79,11.77,10.91c.68.63,1.57.99,2.5.99,1.39,0,2.65-.77,3.28-2l7.33-14.28,13.49,8.7c.6.38,1.29.59,1.99.59,1.63,0,3.04-1.04,3.52-2.6l4.74-15.34,14.8,6.23c.45.19.94.29,1.43.29,1.85,0,3.42-1.38,3.66-3.22l2-15.93,15.65,3.56c1.25.29,2.6-.12,3.48-1.05.7-.74,1.06-1.7,1.01-2.72l-.79-16.03,16.03.79h.19c1.12,0,2.17-.5,2.87-1.38.7-.88.96-2.02.71-3.12l-3.56-15.65,15.93-2.01c1.15-.14,2.15-.8,2.73-1.81.58-1,.66-2.2.21-3.27l-6.23-14.79,15.34-4.74c1.11-.35,1.97-1.17,2.37-2.26.39-1.09.27-2.28-.37-3.25l-8.71-13.5,14.29-7.33c1.03-.53,1.74-1.49,1.94-2.63.2-1.15-.13-2.29-.93-3.15l-10.91-11.77,12.79-9.7c.93-.7,1.46-1.77,1.46-2.93s-.53-2.23-1.46-2.93ZM314.66,159.89l-15.03,11.4,12.82,13.83c.25.27.35.62.29.98-.06.35-.28.65-.61.81l-16.78,8.62,10.22,15.85c.2.3.24.67.12,1.01-.13.34-.4.59-.74.7l-18.02,5.57,7.32,17.38c.14.33.12.7-.06,1.01-.18.31-.49.52-.84.56l-18.71,2.36,4.19,18.38c.11.47-.09.81-.22.97-.22.27-.54.43-.94.43h0l-18.84-.93.93,18.83c.02.32-.09.62-.31.84-.27.29-.69.42-1.08.33l-18.39-4.19-2.36,18.71c-.11.85-.96,1.17-1.57.91l-17.38-7.31-5.57,18.02c-.26.85-1.16.98-1.71.62l-15.85-10.22-8.62,16.78c-.23.46-.68.62-1.02.62-.2,0-.5-.05-.77-.3l-13.83-12.82-11.4,15.03c-.44.58-1.38.58-1.82,0l-11.4-15.03-13.83,12.82c-.27.25-.57.3-.77.3-.34,0-.78-.16-1.02-.62l-8.62-16.78-15.85,10.22c-.55.36-1.45.22-1.71-.62l-5.57-18.02-17.38,7.31c-.61.26-1.47-.06-1.57-.91l-2.36-18.71-18.39,4.19c-.4.09-.81-.04-1.08-.33-.22-.23-.33-.53-.31-.84l.93-18.83-18.9.93c-.35,0-.67-.15-.89-.43-.13-.16-.33-.5-.22-.97l4.18-18.39-18.71-2.36c-.36-.04-.67-.25-.85-.56-.18-.31-.2-.68-.06-1.01l7.31-17.38-18.02-5.57c-.34-.11-.61-.36-.73-.7-.12-.33-.08-.7.11-1l10.22-15.85-16.78-8.62c-.32-.17-.54-.46-.6-.81-.06-.36.04-.71.29-.98l12.82-13.83-15.03-11.4c-.29-.22-.45-.55-.45-.91s.16-.69.45-.91l15.03-11.4-12.82-13.83c-.25-.26-.35-.62-.29-.97.06-.35.28-.65.6-.81l16.78-8.61-10.22-15.85c-.2-.3-.24-.67-.11-1,.12-.34.39-.59.73-.7l18.02-5.57-7.31-17.38c-.14-.33-.12-.7.06-1.01.18-.31.49-.52.85-.56l18.71-2.36-4.18-18.39c-.11-.47.09-.8.22-.97.22-.27.54-.43.94-.43h0l18.84.93-.93-18.84c-.01-.31.1-.61.31-.84.28-.29.68-.42,1.08-.33l18.39,4.18,2.36-18.71c.11-.85.97-1.16,1.57-.91l17.38,7.31,5.57-18.02c.26-.85,1.16-.98,1.71-.62l15.85,10.22,8.62-16.78c.23-.46.68-.62,1.02-.62.2,0,.5.05.77.31l13.83,12.82,11.4-15.03c.44-.58,1.38-.58,1.82,0l11.4,15.03,13.83-12.82c.28-.25.57-.3.77-.3.34,0,.78.16,1.02.62l8.62,16.78,15.85-10.22c.55-.36,1.45-.22,1.71.62l5.57,18.02,17.38-7.31c.61-.26,1.47.06,1.57.91l2.36,18.71,18.39-4.18c.39-.09.8.04,1.08.33.22.23.33.53.31.84l-.93,18.84,18.9-.93c.35,0,.67.16.89.43.13.16.33.5.22.96l-4.19,18.39,18.71,2.36c.36.04.66.25.84.56.18.31.21.68.06,1.01l-7.32,17.38,18.02,5.57c.34.11.61.36.74.7.12.34.08.71-.11,1.01l-10.23,15.85,16.78,8.61c.32.16.54.46.61.82.06.36-.04.71-.29.97l-12.82,13.83,15.03,11.4c.29.22.45.55.45.91s-.17.69-.45.91Z"/>
      <path class="st0" d="M158.98,317.97c-1.26,0-2.42-.58-3.18-1.58l-9.49-12.52-11.52,10.68c-.74.69-1.7,1.07-2.71,1.07-1.51,0-2.87-.83-3.56-2.17l-7.18-13.97-13.2,8.51c-.65.42-1.4.64-2.16.64-1.76,0-3.3-1.13-3.82-2.82l-4.64-15.01-14.48,6.09c-.5.21-1.02.32-1.55.32-2.01,0-3.71-1.5-3.96-3.5l-1.96-15.58-15.31,3.49c-1.34.31-2.83-.14-3.79-1.14-.76-.8-1.15-1.85-1.09-2.95l.77-15.68-15.88.77h0c-1.24,0-2.37-.55-3.13-1.5-.76-.95-1.04-2.18-.77-3.38l3.49-15.31-15.58-1.96c-1.25-.15-2.33-.87-2.96-1.97-.63-1.09-.71-2.39-.22-3.55l6.09-14.47-15.01-4.64c-1.21-.38-2.15-1.27-2.58-2.45-.43-1.18-.28-2.47.4-3.53l8.51-13.21-13.97-7.17c-1.12-.57-1.89-1.62-2.11-2.86-.22-1.24.15-2.49,1-3.42l10.68-11.52-12.52-9.49c-1-.76-1.58-1.92-1.58-3.18,0-1.26.58-2.42,1.58-3.19l12.52-9.49-10.68-11.52c-.86-.92-1.22-2.17-1-3.41.22-1.24.98-2.28,2.11-2.86l13.97-7.17-8.51-13.2c-.69-1.06-.83-2.35-.4-3.53.43-1.19,1.37-2.08,2.58-2.45l15.01-4.64-6.09-14.48c-.49-1.17-.41-2.46.22-3.55.63-1.09,1.71-1.81,2.96-1.96l15.58-1.96-3.49-15.31c-.27-1.19.01-2.43.77-3.38.76-.96,1.9-1.51,3.12-1.51h.19s15.69.78,15.69.78l-.77-15.69c-.05-1.1.34-2.15,1.1-2.95.95-1,2.44-1.45,3.78-1.14l15.32,3.49,1.96-15.58c.25-1.99,1.95-3.5,3.96-3.5.53,0,1.05.11,1.55.31l14.48,6.09,4.64-15c.52-1.69,2.06-2.82,3.82-2.82.77,0,1.52.22,2.16.64l13.2,8.51,7.18-13.97c.68-1.34,2.05-2.17,3.56-2.17,1.01,0,1.97.38,2.71,1.07l11.52,10.67,9.49-12.51c.76-1,1.92-1.58,3.18-1.58s2.42.58,3.19,1.58l9.49,12.51,11.52-10.67c.74-.69,1.7-1.07,2.71-1.07,1.51,0,2.87.83,3.56,2.17l7.17,13.97,13.2-8.51c.65-.42,1.39-.64,2.16-.64,1.76,0,3.3,1.13,3.82,2.82l4.64,15,14.47-6.09c.5-.21,1.02-.31,1.55-.31,2.01,0,3.71,1.5,3.97,3.5l1.96,15.59,15.31-3.49c1.35-.3,2.83.15,3.78,1.14.76.79,1.15,1.84,1.1,2.95l-.77,15.69,15.87-.78h0c1.24,0,2.37.55,3.13,1.5.76.96,1.04,2.19.78,3.38l-3.49,15.32,15.58,1.96c1.25.16,2.33.87,2.96,1.96.63,1.1.71,2.39.22,3.55l-6.09,14.48,15,4.64c1.2.37,2.14,1.26,2.57,2.45.43,1.19.29,2.48-.39,3.54l-8.52,13.2,13.98,7.17c1.12.58,1.89,1.62,2.11,2.86.22,1.24-.15,2.49-1.01,3.41l-10.68,11.52,12.52,9.49c1.01.76,1.58,1.92,1.58,3.18s-.58,2.42-1.58,3.18l-12.52,9.49,10.68,11.52c.86.93,1.23,2.17,1.01,3.42-.21,1.24-.98,2.28-2.11,2.86l-13.98,7.17,8.52,13.21c.68,1.06.83,2.34.39,3.53-.43,1.18-1.37,2.08-2.57,2.45l-15,4.64,6.09,14.47c.49,1.16.41,2.46-.22,3.55-.63,1.1-1.71,1.81-2.96,1.97l-15.58,1.96,3.49,15.31c.27,1.19-.01,2.43-.78,3.38-.76.95-1.9,1.5-3.12,1.5h-.19s-15.69-.77-15.69-.77l.77,15.68c.05,1.11-.34,2.16-1.1,2.95-.96,1-2.45,1.44-3.78,1.14l-15.31-3.49-1.96,15.58c-.25,2-1.96,3.5-3.97,3.5-.53,0-1.05-.11-1.55-.32l-14.47-6.09-4.64,15.01c-.52,1.69-2.06,2.82-3.82,2.82-.77,0-1.52-.22-2.16-.64l-13.2-8.51-7.17,13.97c-.69,1.34-2.05,2.17-3.56,2.17-1.01,0-1.97-.38-2.72-1.07l-11.52-10.68-9.49,12.52c-.77,1.01-1.93,1.58-3.19,1.58ZM146.39,302.93l9.91,13.07c.64.85,1.62,1.33,2.68,1.33s2.04-.48,2.68-1.33l9.91-13.07,12.03,11.15c.62.58,1.44.9,2.29.9,1.27,0,2.42-.7,3-1.83l7.49-14.59,13.78,8.89c.55.35,1.18.54,1.82.54,1.48,0,2.78-.96,3.22-2.38l4.84-15.67,15.12,6.36c.42.18.86.27,1.3.27,1.69,0,3.13-1.27,3.34-2.95l2.05-16.27,15.99,3.64c1.14.26,2.39-.12,3.19-.96.64-.67.97-1.56.92-2.49l-.81-16.38,16.56.81c1.02,0,1.98-.46,2.62-1.26.64-.8.88-1.85.65-2.85l-3.64-15.99.35-.04,15.93-2c1.05-.13,1.96-.73,2.5-1.66.53-.92.6-2.01.19-2.99l-6.36-15.12.33-.1,15.34-4.74c1.02-.32,1.81-1.07,2.17-2.07.36-1,.24-2.08-.33-2.97l-8.89-13.79,14.6-7.49c.95-.49,1.59-1.36,1.77-2.41.19-1.05-.12-2.1-.85-2.88l-11.15-12.03.28-.21,12.79-9.7c.85-.64,1.33-1.62,1.33-2.68s-.49-2.04-1.33-2.68l-13.07-9.91,11.15-12.03c.72-.78,1.03-1.83.85-2.88-.18-1.04-.83-1.92-1.78-2.41l-14.59-7.49.19-.29,8.71-13.49c.58-.89.7-1.98.33-2.98-.37-1-1.15-1.75-2.17-2.06l-15.67-4.84,6.36-15.12c.41-.98.34-2.07-.19-2.99-.53-.92-1.45-1.52-2.5-1.65l-16.27-2.05.08-.34,3.56-15.65c.23-1,0-2.04-.65-2.85-.64-.81-1.6-1.27-2.63-1.27l-16.55.81.81-16.38c.04-.93-.29-1.81-.92-2.48-.8-.84-2.05-1.22-3.19-.96l-15.99,3.64-.04-.34-2.01-15.93c-.21-1.68-1.65-2.95-3.34-2.95-.45,0-.89.09-1.31.26l-15.12,6.36-.1-.33-4.74-15.34c-.44-1.42-1.74-2.38-3.22-2.38-.65,0-1.28.19-1.82.54l-13.78,8.89-.16-.31-7.33-14.28c-.58-1.13-1.73-1.83-3-1.83-.85,0-1.66.32-2.29.9l-12.03,11.15-9.91-13.07c-.64-.85-1.62-1.33-2.68-1.33s-2.04.49-2.68,1.33l-9.91,13.07-12.03-11.15c-.63-.58-1.44-.9-2.29-.9-1.27,0-2.42.7-3,1.83l-7.49,14.59-13.78-8.89c-.55-.35-1.18-.54-1.82-.54-1.49,0-2.78.95-3.22,2.38l-4.84,15.67-15.12-6.36c-.42-.18-.86-.26-1.31-.26-1.69,0-3.13,1.27-3.34,2.95l-2.05,16.27-.34-.08-15.65-3.56c-1.13-.26-2.39.12-3.19.96-.64.67-.97,1.56-.92,2.49l.81,16.38-16.56-.82c-1.02,0-1.98.46-2.62,1.27-.64.8-.88,1.84-.65,2.85l3.64,15.99-16.27,2.05c-1.05.13-1.96.73-2.5,1.66-.53.92-.6,2.01-.19,2.99l6.36,15.12-15.67,4.84c-1.02.31-1.81,1.07-2.17,2.06-.36,1-.24,2.08.34,2.98l8.89,13.79-14.59,7.49c-.95.49-1.59,1.37-1.78,2.41-.18,1.05.12,2.09.85,2.88l11.15,12.03-13.07,9.91c-.85.64-1.33,1.62-1.33,2.68,0,1.06.49,2.04,1.33,2.68l13.07,9.91-11.15,12.03c-.72.78-1.03,1.83-.85,2.88s.83,1.92,1.78,2.41l14.59,7.49-.19.29-8.7,13.5c-.58.89-.7,1.98-.34,2.97.36,1,1.15,1.75,2.17,2.07l15.67,4.84-6.36,15.12c-.41.98-.35,2.07.19,2.99.53.92,1.44,1.53,2.49,1.66l16.27,2.05-3.64,15.99c-.23,1.01,0,2.05.65,2.85.64.81,1.6,1.27,2.63,1.27l16.55-.81-.81,16.38c-.05.93.28,1.81.92,2.49.8.84,2.05,1.22,3.19.96l15.99-3.64,2.05,16.27c.21,1.68,1.65,2.95,3.34,2.95.45,0,.89-.09,1.31-.27l15.12-6.36,4.84,15.67c.44,1.42,1.73,2.38,3.22,2.38.65,0,1.27-.19,1.82-.54l13.78-8.89,7.49,14.59c.58,1.13,1.73,1.83,3,1.83.85,0,1.66-.32,2.28-.9l12.03-11.15ZM158.98,315.41c-.47,0-.89-.2-1.16-.56l-11.19-14.75-13.58,12.59c-.35.32-.73.39-.98.39-.43,0-1-.21-1.3-.79l-8.46-16.47-15.56,10.04c-.24.15-.52.23-.81.23-.65,0-1.17-.39-1.37-1.03l-5.47-17.69-17.06,7.18c-.18.07-.37.11-.56.11-.62,0-1.33-.4-1.44-1.27l-2.31-18.37-18.05,4.11c-.49.11-1.03-.05-1.38-.42-.28-.29-.42-.67-.4-1.07l.91-18.49-18.55.91h0c-.46,0-.87-.2-1.15-.55-.16-.21-.42-.63-.28-1.23l4.11-18.05-18.37-2.31c-.46-.06-.85-.32-1.08-.72-.23-.4-.26-.87-.08-1.29l7.18-17.06-17.69-5.47c-.44-.14-.78-.47-.94-.9-.16-.42-.1-.89.15-1.28l10.03-15.56-16.47-8.46c-.41-.21-.69-.59-.77-1.04-.08-.46.06-.91.37-1.25l12.58-13.57-14.75-11.19c-.37-.28-.58-.7-.58-1.16s.21-.88.58-1.16l14.75-11.19-12.58-13.58c-.31-.34-.45-.79-.37-1.24.08-.46.36-.83.77-1.04l16.47-8.46-10.04-15.56c-.25-.38-.3-.85-.14-1.28.16-.43.5-.76.94-.89l17.68-5.47-7.18-17.06c-.18-.42-.15-.89.08-1.29.23-.4.62-.66,1.08-.72l18.36-2.31-4.11-18.05c-.14-.59.12-1.03.28-1.23.28-.36.7-.55,1.19-.55l18.51.91-.91-18.49c-.02-.4.12-.79.4-1.07.35-.37.89-.52,1.38-.42l18.05,4.11,2.31-18.37c.14-1.14,1.28-1.46,2.01-1.16l17.06,7.18,5.46-17.68c.2-.63.72-1.03,1.37-1.03.29,0,.58.08.81.24l15.56,10.04,8.46-16.47c.3-.58.87-.79,1.3-.79.26,0,.64.07.99.39l13.58,12.58,11.19-14.75c.52-.7,1.79-.7,2.32,0l11.19,14.75,13.57-12.58c.28-.25.62-.39.99-.39.43,0,1,.21,1.3.79l8.46,16.47,15.56-10.04c.23-.15.52-.24.81-.24.65,0,1.17.39,1.37,1.03l5.47,17.68,17.06-7.18c.72-.31,1.87,0,2.01,1.16l2.31,18.37,18.05-4.11c.48-.12,1.03.05,1.38.42.28.28.42.66.4,1.07l-.91,18.49,18.55-.91h0c.46,0,.87.2,1.15.55.13.16.42.61.28,1.23l-4.11,18.05,18.37,2.31c.46.06.85.32,1.08.71.23.4.26.87.08,1.29l-7.18,17.06,17.69,5.47c.44.14.78.46.94.89.15.44.1.9-.14,1.29l-10.04,15.56,16.46,8.46c.41.2.69.58.77,1.04.08.45-.05.91-.37,1.24l-12.58,13.58,14.75,11.19c.37.28.58.7.58,1.16s-.21.88-.57,1.16l-14.75,11.19,12.58,13.57c.31.34.45.8.37,1.25-.08.46-.37.84-.77,1.04l-16.46,8.46,10.04,15.56c.25.38.3.85.15,1.28-.16.43-.5.76-.94.9l-17.69,5.47,7.18,17.06c.18.42.15.89-.08,1.29s-.62.66-1.08.72l-18.37,2.31,4.11,18.05c.13.6-.12,1.03-.28,1.23-.29.36-.7.55-1.19.55l-18.51-.91.91,18.49c.02.41-.12.79-.4,1.08-.35.37-.89.54-1.38.41l-18.04-4.11-2.31,18.37c-.14,1.16-1.28,1.47-2.01,1.16l-17.06-7.18-5.47,17.68c-.2.63-.72,1.03-1.37,1.03-.29,0-.57-.08-.81-.23l-15.56-10.04-8.46,16.47c-.3.59-.87.79-1.3.79-.26,0-.63-.07-.99-.39l-13.58-12.59-11.19,14.75c-.27.35-.7.56-1.16.56ZM146.72,299.16l11.61,15.31c.29.38,1.02.38,1.31,0l11.61-15.31.26.24,13.83,12.82c.16.15.35.22.56.22.24,0,.56-.12.74-.45l8.78-17.08,16.14,10.41c.13.09.3.13.47.13.18,0,.61-.06.77-.59l5.67-18.35,17.7,7.45c.41.18,1.06,0,1.14-.66l2.4-19.06,18.73,4.27c.29.07.58-.03.78-.24.16-.16.24-.38.23-.61l-.95-19.18,19.18.94c.29,0,.53-.11.69-.31.09-.11.24-.36.16-.7l-4.26-18.72.34-.05,18.71-2.36c.26-.03.48-.18.61-.41.13-.23.15-.49.05-.73l-7.45-17.7.33-.1,18.02-5.57c.25-.08.45-.27.54-.51.09-.24.05-.51-.09-.72l-10.41-16.14,17.09-8.78c.24-.12.39-.33.44-.59.04-.25-.03-.51-.21-.71l-13.05-14.08.28-.21,15.03-11.4c.21-.16.32-.4.32-.66s-.12-.5-.32-.66l-15.31-11.61,13.06-14.09c.18-.19.25-.45.21-.71-.05-.26-.2-.47-.44-.59l-17.09-8.77.19-.29,10.23-15.85c.14-.22.17-.48.08-.73-.09-.24-.29-.43-.54-.5l-18.35-5.67,7.45-17.7c.1-.24.08-.51-.05-.73-.13-.23-.35-.37-.61-.41l-19.06-2.4.07-.34,4.19-18.39c.08-.34-.07-.58-.16-.7-.16-.2-.39-.31-.64-.31l-19.23.94.95-19.18c.01-.23-.07-.44-.22-.6-.2-.21-.51-.3-.78-.24l-18.73,4.26-.04-.35-2.36-18.71c-.08-.65-.73-.83-1.14-.66l-17.7,7.45-.1-.33-5.57-18.02c-.11-.37-.4-.59-.77-.59-.17,0-.34.05-.47.14l-16.14,10.41-.16-.31-8.62-16.78c-.17-.33-.49-.45-.74-.45-.21,0-.4.08-.56.22l-14.08,13.05-11.61-15.3c-.29-.38-1.02-.38-1.31,0l-11.61,15.3-14.09-13.05c-.16-.15-.34-.22-.56-.22-.25,0-.57.12-.74.45l-8.77,17.09-16.14-10.41c-.14-.09-.3-.14-.47-.14-.37,0-.65.22-.77.59l-5.67,18.35-17.7-7.45c-.41-.17-1.06.01-1.14.66l-2.4,19.06-.34-.08-18.39-4.18c-.28-.07-.59.03-.79.24-.15.16-.23.38-.22.61l.95,19.18-19.19-.95c-.29,0-.52.1-.68.31-.11.14-.23.38-.16.7l4.26,18.73-19.06,2.4c-.26.03-.48.18-.61.41-.13.23-.15.49-.05.73l7.45,17.7-18.35,5.67c-.25.08-.44.26-.53.51-.09.25-.06.51.08.73l10.41,16.14-17.09,8.77c-.23.12-.39.33-.44.59-.04.25.03.51.21.7l13.06,14.09-15.3,11.61c-.21.16-.33.4-.33.66s.12.5.33.66l15.31,11.61-13.05,14.09c-.18.19-.26.45-.21.71.05.25.21.47.44.59l17.09,8.78-.19.29-10.22,15.85c-.14.22-.17.48-.08.72.09.25.28.43.53.51l18.35,5.67-7.45,17.7c-.1.24-.08.51.05.73.13.23.35.37.61.41l19.06,2.4-4.26,18.72c-.08.34.07.58.16.7.16.2.39.31.64.31l19.23-.94-.95,19.18c-.01.23.07.45.22.61.2.21.5.3.78.24l18.73-4.27,2.4,19.06c.08.65.73.84,1.14.66l17.7-7.45,5.67,18.35c.16.53.59.59.77.59s.33-.05.47-.13l16.14-10.41,8.77,17.09c.17.33.49.45.74.45.14,0,.36-.04.56-.22l14.09-13.06Z"/>
    </g>
    <path class="st0" d="M158.98,75.88c-45.82,0-83.1,37.28-83.1,83.1s37.28,83.1,83.1,83.1,83.1-37.28,83.1-83.1-37.28-83.1-83.1-83.1ZM158.98,237.92c-43.53,0-78.94-35.41-78.94-78.94s35.41-78.94,78.94-78.94,78.94,35.41,78.94,78.94-35.41,78.94-78.94,78.94Z"/>
  </g>
  <g>
    <path class="st0" d="M195.68,163.94l-31.96,22.29-.87,1.24s-1.6,1.08-3.87,2.61c-2.26-1.53-3.86-2.61-3.86-2.61l-.87-1.24-31.96-22.29s-1.8,3.18,8.88,11.63c6.55,5.19,15.86,13.06,22.1,18.39-1.33.91-2.65,1.82-3.86,2.65-5.5,3.8-11.21,10.15-11.52,10.25-.32.11-3.18-4.33-5.18-5.02-2.01-.69-4.97-.05-7.61,2.11-2.64,2.17-4.44,7.88-1.11,11.21,3.33,3.33,8.83.48,11.42-1.64,2.59-2.11,13.11-12.27,14.8-13.33,1.69-1.05,7.83-.52,7.83-.52,0,0,.35-.3.95-.81.6.52.95.81.95.81,0,0,6.13-.53,7.82.52,1.69,1.07,12.22,11.22,14.81,13.33,2.59,2.11,8.09,4.97,11.42,1.64,3.33-3.33,1.53-9.04-1.11-11.21-2.64-2.16-5.61-2.8-7.62-2.11-2.01.69-4.86,5.13-5.18,5.02-.32-.1-6.03-6.45-11.52-10.25-1.2-.83-2.53-1.74-3.86-2.65,6.24-5.33,15.55-13.2,22.1-18.39,10.68-8.46,8.88-11.63,8.88-11.63ZM132.83,212.57c-2.24,2.08-5.54,2.18-7.37.22-1.83-1.96-1.49-5.24.76-7.34,2.24-2.08,5.54-2.18,7.37-.22,1.83,1.96,1.49,5.25-.75,7.33ZM184.39,205.24c1.83-1.95,5.13-1.86,7.37.22,2.24,2.09,2.58,5.38.76,7.34-1.83,1.96-5.13,1.86-7.37-.22-2.25-2.09-2.58-5.37-.75-7.33Z"/>
    <g>
      <path class="st0" d="M150.03,136.58c-1.61,3.47-1.11,6.4-4.82,8.45-4.33,2.4-5.7,8.03-4.48,12.48,1.65,6,6.95,7.34,12.44,5.42,1.87-.66,3.9-1.58,5.91-1.6,4.7-.07,7.62,4.32,12.61,2,3.61-1.7,5.98-5.51,5.98-9.51,0-4.38-2.97-7.34-6.49-9.46-.62-.38-1.1-.85-1.48-1.39-1.38-1.95-1.53-4.73-2.77-6.8-1.85-3.07-4.77-4.72-8.36-4.72s-7.05,1.96-8.53,5.15Z"/>
      <path class="st0" d="M132.81,123.03c-3.45,2.11-3.6,8.16-.33,13.52,3.27,5.36,8.73,8.01,12.17,5.89,3.46-2.11,3.61-8.16.34-13.52-3.27-5.36-8.73-8-12.18-5.89Z"/>
      <path class="st0" d="M148.07,107.58c-3.96.82-6.15,6.47-4.87,12.62,1.27,6.15,5.52,10.46,9.48,9.65,3.96-.82,6.14-6.47,4.87-12.62-1.28-6.14-5.52-10.47-9.48-9.64Z"/>
      <path class="st0" d="M173.31,142.44c3.45,2.11,8.9-.53,12.17-5.89,3.28-5.36,3.13-11.41-.33-13.52-3.45-2.11-8.91.53-12.17,5.89-3.27,5.36-3.12,11.42.33,13.52Z"/>
      <path class="st0" d="M169.9,107.58c-3.96-.83-8.21,3.5-9.48,9.64-1.26,6.15.91,11.8,4.88,12.62,3.96.82,8.21-3.5,9.47-9.65,1.28-6.15-.9-11.8-4.86-12.62Z"/>
    </g>
  </g>
  <g>
    <path class="st0" d="M98.89,248.85c-1.2,1.76-1.36,2.07-.44,2.82l.39.32c.05.13-.18.41-.32.39-.81-.6-1.36-1-2.06-1.48-.67-.46-1.24-.83-2.1-1.36-.07-.12.1-.44.25-.44l.44.25c1.04.59,1.26.33,2.47-1.44l4.04-5.93c1.2-1.76,1.33-2.02.43-2.8l-.38-.33c-.05-.13.18-.41.32-.39.81.6,1.36,1,2.03,1.45.7.48,1.28.85,2.13,1.38.07.12-.08.41-.25.44l-.45-.23c-1.06-.55-1.25-.34-2.46,1.42l-4.04,5.93Z"/>
    <path class="st0" d="M88.18,231.63c.4-.46,1.98-2.26,2.28-2.7.11-.06.27-.06.43.08-.04.42-.07,1.33-.06,3.99l.02,7.09c0,.83-.06,2.98-.03,3.59l.03.03c.22-.13.54-.46.94-.92l2.89-3.31c.62-.71,2.33-2.7,2.47-3.38.06-.25-.17-.6-.52-.96l-.43-.46c.02-.2.19-.37.36-.35.66.63,1.18,1.11,1.74,1.6.64.56,1.06.9,1.62,1.33.04.17-.13.39-.3.4l-.45-.31c-.39-.26-.71-.38-.93-.28-.69.36-2.29,2.23-2.93,2.96l-3.83,4.39c-.37.42-.64.76-.62,1.39.03.4.3.82.62,1.19l.23.25c.01.17-.19.4-.36.36-.6-.6-1.4-1.31-1.68-1.55-.24-.21-.51-.42-.74-.57.37-1.04.33-4.61.32-5.61l-.03-2.94c-.03-2.09-.03-3.59-.1-4.94l-.03-.03c-.13.02-.34.27-.62.58l-2.84,3.25c-.62.71-2.33,2.7-2.44,3.41-.03.21.13.52.68,1.13l.23.26c.03.18-.2.41-.36.36-.67-.64-1.18-1.11-1.75-1.61-.65-.57-1.06-.9-1.6-1.33-.06-.18.13-.39.3-.41l.24.16c.55.35.96.49,1.13.43.74-.32,2.35-2.23,2.96-2.93l3.17-3.63Z"/>
    <path class="st0" d="M81.27,223.33c1.62-1.36,1.82-1.59,1.15-2.55l-.37-.53c-.02-.15.29-.35.41-.29.71.91,1.14,1.44,1.66,2.06.52.61.99,1.14,1.85,2.1.03.13-.2.38-.39.32l-.51-.51c-.82-.81-1.12-.7-2.73.67l-6.89,5.81c-.48.4-.49.42-.1.88l.72.85c.56.66,1.3,1.48,1.98,1.57.65.08,1.12-.05,1.65-.2.2.04.3.32.23.49-.9.34-2.08.94-2.79,1.35-.07-.02-.25-.21-.25-.29.42-.51-.03-1-.63-1.71l-5.26-6.25c-.7-.83-.85-.95-1.45-.84-.1-.05-.22-.23-.19-.32.78-.37,2.12-1.31,2.54-1.75.18-.04.4.22.37.38-.35.37-.83.96-.8,1.33.04.58.41,1.27,1.12,2.11l.92,1.09c.39.46.39.43.9,0l6.86-5.79Z"/>
    <path class="st0" d="M69.45,219.72c-1.77,1.12-2,1.32-1.48,2.4l.14.29c0,.14-.33.3-.45.24-.43-.75-.78-1.34-1.22-2.04l-2.03-3.2c-.69-1.09-1.33-2.09-1.51-2.26.22-.29,1.38-1.16,2.09-1.71.14,0,.35.25.3.4-.64.76-1.13,1.29-.79,2.32.14.41.47.96.95,1.71l.78,1.22c.32.51.36.49,1,.08l3.4-2.16c.48-.3.44-.35.12-.86l-.63-.99c-.45-.71-.82-1.22-1.02-1.38-.2-.16-.38-.22-.85-.03l-.78.31c-.16-.02-.34-.31-.26-.45.41-.26,1.11-.61,1.76-1.02.61-.39,1.21-.87,1.59-1.11.16,0,.35.28.3.43l-.56.57c-.26.26-.44.54-.31.94.08.28.33.7.75,1.36l.63.98c.32.51.37.55.82.27l2.4-1.52c.9-.57,1.45-.99,1.56-1.44.08-.33.03-.81-.92-2.31-.83-1.31-1.21-1.76-1.64-2.01-.36-.2-1.25-.28-2.42-.16-.16-.06-.26-.33-.15-.5.67-.26,2.25-.67,2.85-.74.94,1.55,1.88,3.08,2.84,4.59l.97,1.53c.46.73.85,1.3,1.52,2.28.01.14-.24.34-.4.31l-.41-.53c-.7-.92-1.01-.84-2.79.3l-6.12,3.89Z"/>
    <path class="st0" d="M62.47,207.93c-1.74.8-2.03,1-1.77,1.79l.2.62c-.03.17-.32.31-.46.19-.57-.98-1.2-2.22-2.03-4.01-.52-1.13-.93-2.26-.86-3.31.05-1.09.58-2.11,1.86-2.7,1.74-.8,3.33.13,4.12.87.15.04.29-.13.4-.29,1.68-2.56,2.7-4.2,3.17-5.93.13-.44.12-.99-.07-1.5,0-.11.13-.2.25-.14.13.14.3.42.46.76.72,1.55.69,2.7-.56,4.86-.46.79-1.37,2.12-1.94,3.07-.28.46-.32.84.02,1.57.38.83.42.85.8.67l2.31-1.07c1.92-.89,2.12-1.03,1.78-2.16l-.12-.41c.04-.15.37-.26.48-.17.34.84.61,1.47.95,2.2.36.77.68,1.42,1.11,2.26,0,.14-.26.3-.44.25l-.27-.43c-.62-1-.87-.93-2.8-.04l-6.57,3.04ZM64.4,205.22c.33-.15.53-.24.58-.33.03-.08-.06-.38-.49-1.31-.3-.66-.7-1.32-1.35-1.67-.61-.32-1.45-.44-2.69.14-1.45.67-2.4,2.2-1.47,4.23.53,1.13.62,1.16,1.14.92l4.28-1.98Z"/>
    <path class="st0" d="M60.12,181.84c.58-.17,2.89-.84,3.37-1.04.13,0,.26.09.32.31-.26.33-.78,1.09-2.21,3.33l-3.81,5.98c-.45.7-1.66,2.48-1.97,3.01v.04c.27,0,.72-.1,1.3-.27l4.23-1.23c.91-.26,3.42-1.01,3.91-1.51.18-.18.18-.6.08-1.1l-.12-.62c.12-.16.36-.21.5-.11.21.88.39,1.57.6,2.29.23.82.41,1.33.64,2-.06.16-.32.26-.47.18l-.21-.5c-.19-.43-.39-.71-.63-.74-.78-.07-3.14.63-4.07.9l-5.6,1.62c-.54.16-.94.29-1.27.83-.19.35-.19.85-.12,1.34l.06.34c-.08.15-.37.23-.49.1-.18-.83-.48-1.86-.58-2.21-.09-.31-.2-.63-.32-.87.88-.67,2.77-3.7,3.3-4.55l1.57-2.49c1.1-1.77,1.92-3.03,2.58-4.22v-.04c-.13-.05-.44.04-.85.16l-4.15,1.2c-.91.26-3.43,1.01-3.9,1.55-.14.17-.17.51-.04,1.31l.06.34c-.08.17-.39.24-.5.1-.22-.9-.39-1.57-.6-2.3-.24-.83-.41-1.33-.64-1.97.05-.18.32-.26.47-.18l.12.26c.28.59.54.93.72.97.79.13,3.18-.61,4.08-.87l4.63-1.34Z"/>
    <path class="st0" d="M57.07,170.52c-.42.2-.47.29-.39.88l.39,3.02c.07.5.14.61.58.7l2.19.43c.94.18,1.5.25,1.72.22.24-.03.35-.15.32-.63l-.03-.67c.08-.15.4-.2.5-.02.03.52.11,1.14.21,2.09.09.66.22,1.37.31,1.91-.06.13-.38.21-.49.11l-.15-.65c-.1-.48-.38-.89-1.14-1.07-.97-.24-2.34-.63-4.69-1.18l-5.67-1.33c-.76-.19-1.15-.26-1.46-.16-.2-.46-.61-.75-.9-.94-.02-.12,0-.27.14-.32.85-.38,1.72-.82,2.56-1.23l7.68-3.79c1.64-.8,1.91-1.1,1.9-1.98v-.55c.07-.16.4-.16.49-.06.07.82.14,1.53.26,2.43.13.96.27,1.71.36,2.29-.06.17-.38.23-.49.1l-.14-.57c-.09-.42-.25-.68-.45-.65-.22.03-.57.17-1.02.4l-2.61,1.24ZM55.81,174.72c.48.1.5.08.42-.48l-.32-2.46c-.08-.58-.16-.61-.68-.36l-3.12,1.51c-.46.22-.97.47-1.2.62v.04c.11.05.62.18,1.25.32l3.64.81Z"/>
    <path class="st0" d="M58.1,159.14c2.12-.03,2.42-.08,2.5-1.25l.05-.65c.08-.12.44-.09.5.03-.02,1.15-.03,1.83-.02,2.64.01.81.04,1.51.1,2.8-.06.12-.4.17-.5,0l-.07-.72c-.12-1.15-.42-1.24-2.54-1.21l-9.01.14c-.63,0-.65,0-.64.62l.02,1.11c.01.87.07,1.97.54,2.47.45.48.9.67,1.4.89.12.16.03.44-.13.52-.91-.31-2.21-.59-3.01-.72-.04-.06-.07-.32,0-.38.64-.13.61-.79.6-1.72l-.12-8.16c-.02-1.09-.06-1.27-.59-1.56-.04-.1-.02-.32.06-.36.83.21,2.46.32,3.07.25.16.08.17.42.05.52-.5.07-1.25.22-1.46.53-.33.47-.48,1.24-.47,2.35l.02,1.43c0,.61.03.58.69.57l8.97-.13Z"/>
    <path class="st0" d="M51.34,148.94c-2.13-.21-2.47-.21-2.69.97l-.09.5c-.09.11-.45.04-.5-.09.14-1,.23-1.68.31-2.53.08-.8.13-1.49.19-2.49.07-.11.44-.12.51.01v.51c-.03,1.19.31,1.27,2.44,1.48l7.15.71c2.13.21,2.41.2,2.67-.97l.11-.5c.09-.11.45-.04.5.09-.14,1-.23,1.68-.31,2.48-.08.84-.13,1.53-.19,2.54-.07.11-.4.12-.51,0v-.51c-.03-1.2-.31-1.27-2.44-1.48l-7.15-.71Z"/>
    <path class="st0" d="M55.63,142.72c-3.93-.89-6.27-4.52-5.35-8.57,1.03-4.54,4.83-6.07,8.29-5.29,3.97.9,6.17,4.58,5.31,8.38-.99,4.36-4.71,6.29-8.25,5.48ZM58.74,130.97c-3.24-.74-7.07-.1-7.92,3.66-.46,2.04.33,5.01,4.63,5.99,2.91.66,7,.1,7.88-3.77.54-2.36-.72-5-4.6-5.88Z"/>
    <path class="st0" d="M67.41,115.29c.56.23,2.78,1.15,3.29,1.29.1.08.14.23.06.44-.41.09-1.28.37-3.8,1.23l-6.71,2.3c-.78.26-2.84.9-3.41,1.12v.04c.18.17.6.36,1.16.59l4.07,1.68c.88.36,3.31,1.34,4,1.26.25-.03.52-.35.75-.8l.29-.56c.2-.05.41.06.45.22-.38.83-.67,1.47-.96,2.16-.32.78-.51,1.3-.74,1.96-.15.09-.42,0-.48-.16l.15-.53c.12-.45.13-.8-.03-.97-.56-.54-2.85-1.46-3.74-1.83l-5.39-2.22c-.52-.21-.92-.36-1.51-.14-.37.15-.68.55-.92.97l-.17.3c-.16.07-.44-.05-.45-.23.38-.76.79-1.75.93-2.09.12-.3.24-.62.3-.88,1.11.02,4.47-1.17,5.42-1.5l2.78-.97c1.97-.7,3.39-1.18,4.65-1.69v-.04c-.05-.11-.35-.24-.74-.4l-3.99-1.65c-.88-.36-3.31-1.34-4.01-1.22-.21.04-.45.29-.85,1l-.17.3c-.17.08-.46-.06-.45-.24.39-.84.67-1.47.96-2.18.33-.8.51-1.3.74-1.93.15-.11.42,0,.48.15l-.07.28c-.15.63-.16,1.07-.04,1.21.54.59,2.87,1.51,3.73,1.86l4.46,1.84Z"/>
    <path class="st0" d="M72.01,104.63c-.45-.11-.55-.07-.86.45l-1.57,2.61c-.26.43-.27.57.02.91l1.45,1.69c.62.73,1.02,1.13,1.21,1.24.21.12.36.1.65-.29l.4-.54c.16-.07.44.1.41.29-.31.43-.63.96-1.13,1.77-.34.57-.68,1.21-.94,1.69-.13.06-.43-.07-.45-.22l.29-.6c.21-.44.25-.93-.22-1.55-.61-.79-1.44-1.95-2.94-3.84l-3.6-4.56c-.48-.62-.74-.92-1.05-1.03.13-.49,0-.97-.12-1.29.06-.1.17-.21.31-.17.89.23,1.86.44,2.77.63l8.36,1.81c1.79.39,2.18.32,2.71-.37l.33-.44c.16-.07.41.13.43.25-.46.69-.84,1.28-1.31,2.06-.5.83-.86,1.51-1.14,2.02-.15.1-.44-.05-.45-.22l.25-.53c.18-.38.23-.69.05-.79-.19-.11-.55-.21-1.05-.33l-2.8-.65ZM68.42,107.12c.31.38.34.37.63-.11l1.28-2.12c.3-.5.25-.58-.31-.7l-3.38-.76c-.5-.11-1.06-.24-1.33-.26l-.02.03c.06.1.37.53.77,1.03l2.35,2.89Z"/>
    <path class="st0" d="M72.16,94.43c-1.66-1.31-1.94-1.48-2.81-.54l-.34.37c-.14.04-.4-.21-.37-.34.73-.86,1.17-1.39,1.67-2.02.49-.62.9-1.17,1.49-1.98.12-.06.43.14.42.28l-.27.41c-.66,1-.43,1.23,1.23,2.54l5.51,4.35c1,.79,1.45,1.06,1.97,1.02.31-.04.74-.19,1.73-1.44,1.06-1.35,1.26-1.73,1.32-2.1.06-.47-.19-1.33-.74-2.28,0-.16.3-.41.41-.32.17.14,1.44,1.86,1.69,2.41-.67.78-1.87,2.28-3.16,3.91l-1.15,1.46c-.53.67-.91,1.18-1.58,2.1-.12.06-.4-.11-.42-.28l.33-.51c.63-.99.43-1.2-1.23-2.51l-5.7-4.5Z"/>
    <path class="st0" d="M84.89,79.48c-.91-1.08-1.26-1.34-1.99-.88l-.38.24c-.19.03-.41-.21-.31-.4,1.24-1.18,2.45-2.29,3.76-3.4,1.29-1.1,2.46-1.93,3.78-2.41,2.71-1.01,5.25-.14,6.97,1.89,1.66,1.95,2.14,4.42,1.19,6.86-.54,1.39-1.64,2.66-2.82,3.66-.98.83-2.07,1.55-2.61,2-.65.55-1.19,1.03-1.88,1.68-.13.03-.37-.19-.36-.36l.31-.35c.79-.88.66-1.09-.71-2.7l-4.95-5.85ZM90.81,83.9c.69.81,1.15,1.27,1.73,1.42.74.19,1.46-.15,2.43-.97,2.98-2.53,2.67-5.62.24-8.48-1.43-1.69-4.67-3.86-8.7-.45-.91.77-1.3,1.31-1.34,1.5-.04.2.25.61.84,1.3l4.81,5.68Z"/>
    <path class="st0" d="M99.64,72.82c-2.06-3.47-1.04-7.67,2.54-9.79,4.01-2.38,7.74-.68,9.55,2.37,2.08,3.5.93,7.64-2.42,9.63-3.85,2.29-7.81.91-9.67-2.21ZM110.32,66.97c-1.7-2.86-4.8-5.2-8.11-3.23-1.8,1.07-3.41,3.69-1.16,7.49,1.52,2.57,4.75,5.16,8.17,3.12,2.08-1.24,3.13-3.97,1.1-7.39Z"/>
    <path class="st0" d="M127.78,63.87c.29.75.58,1.16.97,1.16.08.04.12.15.07.23-.22.09-.53.3-.85.53-.89.65-2.16,1.41-3.17,1.8-2.23.87-4.52,1.05-6.54.16-1.57-.69-2.75-1.93-3.39-3.58-.62-1.59-.73-3.42-.05-5.11.74-1.81,2.26-3.42,5.09-4.53,1.07-.42,2.15-.6,2.49-.65.38-.07,1.02-.16,1.23-.29.24.62.74,1.55,1.35,2.61,0,.17-.33.32-.48.25-1.32-1.82-2.98-1.91-4.89-1.16-3.64,1.42-4.22,4.64-3.12,7.45,1.41,3.6,4.38,5.71,8.15,4.23,1.16-.46,1.76-.97,1.84-1.37.04-.17,0-.54-.23-1.14l-.29-.75c-.62-1.58-.72-1.67-1.93-1.34l-.86.23c-.18-.02-.29-.36-.18-.47.56-.18,1.6-.56,2.7-.99.73-.29,1.36-.55,1.97-.84.16.02.29.3.2.46l-.29.16c-.75.4-.56.93-.19,1.89l.41,1.05Z"/>
    <path class="st0" d="M149.16,59.38c.12.8.32,1.26.7,1.34.07.05.09.17.02.24-.24.04-.59.17-.95.33-1.01.44-2.41.9-3.49,1.07-2.37.37-4.64.04-6.42-1.27-1.38-1.01-2.26-2.49-2.53-4.24-.26-1.69.03-3.49,1.06-5,1.12-1.6,2.95-2.84,5.96-3.31,1.14-.18,2.22-.12,2.58-.09.39.02,1.03.07,1.26-.01.1.66.38,1.68.75,2.84-.04.17-.39.25-.53.14-.89-2.07-2.49-2.51-4.52-2.2-3.86.6-5.13,3.61-4.67,6.6.59,3.82,3.03,6.53,7.03,5.91,1.24-.19,1.93-.56,2.1-.94.08-.15.12-.53.02-1.17l-.12-.8c-.26-1.67-.34-1.78-1.59-1.73l-.89.04c-.17-.06-.21-.42-.08-.5.58-.05,1.68-.2,2.86-.38.78-.12,1.45-.24,2.1-.38.15.06.22.35.1.5l-.31.09c-.82.23-.76.79-.6,1.81l.17,1.12Z"/>
    <path class="st0" d="M154.35,50.94c-.03-1.91-.09-2.25-.92-2.34l-.65-.07c-.14-.1-.15-.42.01-.5,1.13-.12,2.52-.2,4.49-.23,1.25-.02,2.44.06,3.37.55.98.49,1.69,1.38,1.71,2.8.03,1.91-1.46,2.98-2.47,3.4-.1.12,0,.32.11.48,1.65,2.58,2.74,4.17,4.13,5.3.35.3.86.51,1.4.54.1.04.12.2.02.28-.18.06-.5.11-.88.11-1.71.03-2.75-.46-4.21-2.48-.53-.74-1.38-2.12-2.02-3.01-.31-.44-.64-.63-1.44-.62-.91.01-.95.04-.94.46l.04,2.54c.03,2.12.08,2.36,1.25,2.5l.42.05c.12.1.09.44-.03.5-.91-.03-1.59-.04-2.4-.02-.85.01-1.57.04-2.52.1-.12-.06-.17-.36-.05-.5l.5-.07c1.17-.16,1.2-.42,1.17-2.54l-.11-7.24ZM156.05,53.79c0,.36.01.59.07.66.06.06.36.09,1.39.08.73-.01,1.49-.1,2.07-.56.54-.43.99-1.14.97-2.51-.03-1.59-1.03-3.09-3.27-3.05-1.25.02-1.31.1-1.3.67l.07,4.71Z"/>
    <path class="st0" d="M166.56,54.65c.56-3.99,3.99-6.62,8.1-6.05,4.61.65,6.46,4.31,5.96,7.82-.57,4.03-4.05,6.53-7.9,5.99-4.43-.62-6.66-4.17-6.16-7.77ZM178.54,56.76c.46-3.29-.49-7.05-4.3-7.59-2.08-.29-4.97.75-5.58,5.12-.42,2.96.48,6.99,4.41,7.54,2.39.34,4.92-1.14,5.47-5.07Z"/>
    <path class="st0" d="M183.88,57.35c1.22-3.85,5.04-5.87,9-4.61,4.44,1.41,5.65,5.33,4.58,8.72-1.24,3.89-5.1,5.77-8.81,4.59-4.27-1.36-5.87-5.23-4.77-8.69ZM195.35,61.44c1.01-3.17.69-7.04-2.98-8.21-2-.64-5.03-.1-6.37,4.12-.91,2.85-.7,6.98,3.09,8.18,2.31.73,5.05-.3,6.26-4.09Z"/>
    <path class="st0" d="M206.18,67.13c-.04,1.05-.08,2.08-.07,3.09l.04.02c.92-.58,1.86-1.27,2.79-1.94l3.48-2.51c1.66-1.19,2.7-1.9,3.17-2.69.58.38.95.57,1.31.76.45.24,1.04.53,1.61.78.07.13-.09.43-.22.46l-.39-.16c-1.18-.49-1.5-.23-2.14,1.03-.97,1.91-2.7,5.21-3.92,7.85-.42.92-.69,1.39.11,1.9l.54.36c.05.16-.11.42-.27.43-.71-.42-1.43-.83-2.08-1.17-.62-.33-1.43-.74-2.18-1.09-.08-.16.04-.41.2-.46l.54.22c.92.38,1.07.09,1.68-1.05l3.89-7.45-.04-.02c-.23.13-1.66,1.2-2.38,1.7l-3.24,2.27c-1.63,1.14-3.32,2.39-4.08,3.04-.06.04-.14.01-.21-.02-.04-.02-.12-.08-.12-.16.2-1.11.27-3.3.33-4.39l.22-4.29c.06-1.02.18-2.14.22-3.17l-.04-.02c-.66,1.07-1.26,2.07-1.86,3.08-.63,1.06-1.54,2.6-2.35,4.12-.7,1.32-.75,1.66-.08,2.08l.65.41c.07.17-.1.45-.26.44-.59-.36-1.27-.74-1.95-1.1-.57-.3-1.22-.63-1.84-.91-.06-.14.04-.43.2-.46l.42.15c.8.29,1.11.32,1.88-.87.73-1.12,1.34-2.05,2.38-3.76.87-1.43,1.75-2.91,2.31-3.87.63-1.1.63-1.44-.38-2.16l-.27-.19c-.03-.15.13-.41.31-.4.51.32.93.57,1.38.8.41.22.89.47,1.51.72-.44.66-.58,2-.63,3.43l-.16,5.19Z"/>
    <path class="st0" d="M221.3,70.63c1.25-1.74,1.41-2.04.51-2.81l-.39-.33c-.05-.14.2-.41.33-.38.8.62,1.34,1.04,2.03,1.53.65.47,1.23.85,2.07,1.41.06.12-.12.44-.26.43l-.43-.26c-1.03-.61-1.26-.36-2.51,1.38l-4.19,5.83c-1.25,1.74-1.38,1.99-.5,2.8l.37.34c.05.14-.19.41-.32.39-.8-.62-1.34-1.04-2-1.51-.69-.49-1.26-.88-2.1-1.43-.06-.12.09-.41.26-.43l.45.25c1.05.58,1.25.37,2.49-1.36l4.19-5.83Z"/>
    <path class="st0" d="M231.61,88.17c-.41.44-2.04,2.21-2.35,2.64-.11.06-.27.05-.43-.1.05-.42.1-1.33.16-3.99l.16-7.09c.02-.83.13-2.97.12-3.59l-.03-.03c-.22.12-.55.45-.96.9l-2.98,3.24c-.64.7-2.4,2.64-2.56,3.32-.06.25.15.61.5.98l.42.47c-.02.2-.2.37-.37.34-.64-.64-1.15-1.14-1.69-1.64-.63-.57-1.04-.93-1.59-1.38-.04-.17.14-.39.31-.4l.45.32c.38.27.7.4.92.3.7-.34,2.35-2.17,3.01-2.88l3.95-4.29c.38-.42.65-.74.66-1.37-.02-.4-.28-.83-.59-1.2l-.22-.26c0-.17.2-.39.37-.36.58.62,1.37,1.34,1.64,1.59.24.22.5.44.72.59-.4,1.03-.45,4.6-.46,5.6l-.05,2.94c-.03,2.08-.06,3.58-.02,4.94l.03.03c.13-.02.35-.26.63-.57l2.92-3.18c.64-.7,2.4-2.64,2.53-3.35.04-.22-.12-.52-.65-1.14l-.23-.26c-.02-.18.21-.41.37-.36.65.66,1.15,1.14,1.71,1.66.64.59,1.04.93,1.57,1.37.05.18-.14.39-.31.4l-.23-.16c-.54-.36-.95-.52-1.12-.45-.75.3-2.41,2.17-3.04,2.85l-3.26,3.55Z"/>
    <path class="st0" d="M241.01,101.64c-.63.5-.94.89-.82,1.26-.01.08-.11.16-.21.13-.15-.19-.44-.43-.75-.67-.88-.67-1.97-1.66-2.64-2.51-1.48-1.89-2.32-4.03-2.04-6.22.2-1.7,1.05-3.19,2.45-4.29,1.35-1.06,3.06-1.69,4.87-1.53,1.95.19,3.92,1.17,5.8,3.56.71.9,1.2,1.88,1.34,2.2.18.35.45.93.63,1.09-.52.41-1.27,1.15-2.11,2.05-.16.05-.4-.22-.38-.39,1.36-1.79.97-3.4-.3-5.02-2.42-3.07-5.66-2.7-8.04-.83-3.04,2.39-4.2,5.84-1.7,9.03.77.98,1.44,1.41,1.85,1.37.18,0,.52-.15,1.03-.55l.63-.5c1.33-1.05,1.39-1.17.73-2.24l-.47-.76c-.03-.18.26-.38.4-.31.33.48,1,1.37,1.74,2.3.48.62.93,1.14,1.37,1.65.03.16-.2.37-.38.33l-.23-.23c-.6-.6-1.06-.27-1.87.37l-.89.7Z"/>
    <path class="st0" d="M248.51,112.44c-1.89.95-2.1,1.11-1.65,2.32l.19.51c-.03.15-.36.27-.47.19-.48-1.04-.76-1.65-1.12-2.37-.38-.76-.73-1.39-1.16-2.17,0-.14.27-.32.43-.26l.25.35c.67.97.9.9,2.79-.05l6.64-3.35c1.53-.77,1.82-.96,1.5-1.82l-.25-.68c.04-.18.32-.3.47-.19.61.89,1.19,2,1.94,3.49.75,1.49,1.12,2.71,1.02,3.82-.1,1.09-.73,2.18-1.97,2.8-1.65.83-3,.23-3.77-.36-.78-.6-1.42-1.47-1.79-2.21,0-.15.26-.29.35-.2,1.34,1.76,2.79,1.91,4.36,1.12,1.74-.88,2.36-2.48,1.42-4.35-.48-.95-.56-.93-1.14-.64l-8.03,4.05Z"/>
    <path class="st0" d="M259.72,119.43c1.81-.63,2.11-.81,1.93-1.62l-.14-.64c.05-.17.35-.28.48-.15.47,1.03.99,2.33,1.64,4.19.42,1.18.71,2.34.54,3.38-.15,1.08-.78,2.05-2.11,2.52-1.81.63-3.3-.45-4.01-1.26-.15-.05-.3.11-.42.26-1.92,2.39-3.09,3.93-3.72,5.61-.17.42-.21.97-.07,1.5,0,.11-.15.18-.26.11-.12-.15-.26-.44-.39-.8-.57-1.62-.44-2.76,1.01-4.78.53-.74,1.57-1.98,2.22-2.88.32-.43.4-.8.13-1.57-.3-.86-.34-.89-.73-.75l-2.4.84c-2,.7-2.21.82-1.98,1.98l.08.42c-.05.15-.39.22-.49.13-.26-.87-.47-1.52-.74-2.29-.28-.8-.54-1.48-.89-2.36.02-.13.29-.27.46-.2l.22.45c.52,1.06.78,1.01,2.78.31l6.83-2.4ZM257.55,121.95c-.34.12-.55.2-.61.28-.04.08.03.38.37,1.35.24.69.57,1.38,1.18,1.79.58.37,1.4.58,2.7.12,1.5-.53,2.6-1.96,1.86-4.08-.42-1.18-.51-1.21-1.04-1.02l-4.45,1.56Z"/>
    <path class="st0" d="M260.11,132.12c3.96-.76,7.56,1.63,8.35,5.71.88,4.57-1.99,7.51-5.47,8.18-4,.77-7.5-1.72-8.23-5.54-.84-4.4,1.79-7.66,5.36-8.34ZM261.99,144.14c3.27-.63,6.52-2.75,5.79-6.53-.4-2.06-2.32-4.46-6.66-3.63-2.93.56-6.46,2.72-5.71,6.62.46,2.38,2.67,4.29,6.57,3.54Z"/>
    <path class="st0" d="M264.28,152.54c-.54.03-.54.09-.51.69l.07,1.37c.04.83.11,1.47.21,1.71.09.22.2.37.73.47l.82.14c.12.09.14.44.02.53-.48.02-1.29-.02-2.04.02-.73.04-1.49.15-1.95.17-.13-.07-.14-.38-.03-.52l.78-.24c.36-.12.63-.3.73-.68.06-.29.06-.79.02-1.56l-.07-1.37c-.03-.6-.05-.66-.58-.64l-2.8.14c-2.12.1-2.41.16-2.46,1.35l-.03.69c-.07.13-.44.1-.5,0-.02-1.19-.04-1.88-.07-2.69-.04-.89-.1-1.57-.18-2.52.05-.12.37-.18.5-.07l.08.5c.2,1.16.46,1.19,2.58,1.08l7.26-.36c2.11-.11,2.39-.16,2.48-1.34l.02-.33c.07-.12.44-.1.51.02,0,.85.02,1.53.06,2.34l.18,3.71c.06,1.29.12,2.46.2,2.72-.93.05-1.89.11-2.66.19-.12-.05-.2-.33-.08-.48.9-.21,1.63-.48,1.85-1.5.1-.45.06-1.11.02-1.96l-.06-1.23c-.03-.6-.07-.6-.83-.56l-4.25.21Z"/>
    <path class="st0" d="M267.08,163.48c2.09.15,2.4.13,2.62-1.05l.06-.32c.09-.12.45-.05.5.07-.1.86-.17,1.54-.23,2.37l-.27,3.78c-.09,1.29-.18,2.47-.13,2.72-.35.1-1.81.12-2.7.13-.11-.09-.13-.41,0-.5.97-.24,1.68-.37,2.02-1.4.13-.41.19-1.06.26-1.94l.1-1.45c.04-.6,0-.61-.76-.66l-4.03-.29c-.56-.04-.57.02-.61.62l-.08,1.17c-.06.85-.06,1.47,0,1.72.06.25.18.4.67.53l.81.22c.12.11.09.45-.06.51-.48-.03-1.26-.17-2.03-.22-.72-.05-1.49-.03-1.94-.05-.13-.09-.11-.43.02-.52l.8-.13c.37-.05.68-.17.81-.57.1-.28.15-.76.21-1.54l.08-1.17c.04-.6.02-.66-.5-.7l-2.84-.2c-1.06-.07-1.75-.06-2.12.24-.26.22-.51.63-.63,2.4-.11,1.55-.07,2.14.12,2.6.17.38.84.97,1.85,1.57.09.15,0,.43-.18.49-.69-.19-2.21-.8-2.73-1.1.17-1.81.31-3.6.44-5.38l.13-1.81c.06-.86.09-1.55.13-2.74.07-.12.39-.13.51,0v.67c.03,1.15.33,1.28,2.44,1.42l7.24.51Z"/>
    <path class="st0" d="M254.88,176.89c.32-1.66,1.03-2.62,1.32-2.95.48-.15,1.94-.14,2.87,0,.12.12.1.43-.03.49-1.07.11-3.16.55-3.6,2.84-.32,1.66.62,2.68,1.81,2.91.87.16,1.87.17,3.08-1.1l1.59-1.65c.84-.87,2.19-1.8,3.81-1.49,1.88.36,3.13,2.11,2.64,4.69-.12.62-.37,1.3-.61,1.79-.13.24-.22.51-.25.67-.51.09-1.65.06-2.48-.1-.11-.1-.11-.43.03-.51,1-.08,2.39-.36,2.75-2.27.37-1.94-.84-2.6-1.75-2.77-1.15-.22-2.16.57-2.76,1.22l-1.29,1.4c-1.01,1.1-2.39,2.11-4.27,1.75-2.18-.41-3.35-2.34-2.86-4.92Z"/>
    <path class="st0" d="M252.43,187.02c.5-1.62,1.31-2.49,1.63-2.79.49-.1,1.94.06,2.86.3.11.14.06.44-.08.48-1.07,0-3.21.2-3.89,2.44-.5,1.62.33,2.74,1.48,3.09.85.26,1.85.37,3.19-.76l1.76-1.47c.93-.77,2.37-1.55,3.95-1.07,1.83.56,2.88,2.44,2.12,4.95-.18.6-.51,1.26-.8,1.72-.15.23-.27.49-.32.64-.52.03-1.65-.12-2.46-.37-.09-.11-.06-.44.09-.5,1,.03,2.42-.11,2.98-1.96.58-1.89-.55-2.68-1.44-2.95-1.12-.34-2.21.34-2.87.92l-1.44,1.25c-1.12.99-2.61,1.84-4.44,1.29-2.12-.65-3.08-2.69-2.32-5.2Z"/>
    <path class="st0" d="M259.4,199.07c1.98.81,2.31.9,2.85-.16l.23-.45c.12-.08.44.09.45.23-.42.91-.69,1.54-1.01,2.33-.31.75-.55,1.39-.89,2.34-.1.09-.45,0-.48-.15l.15-.48c.36-1.14.05-1.3-1.92-2.11l-6.64-2.71c-1.98-.81-2.25-.88-2.83.17l-.25.44c-.12.08-.44-.09-.45-.23.42-.92.7-1.54,1-2.29.32-.78.56-1.43.9-2.37.1-.09.42,0,.48.15l-.13.49c-.32,1.15-.07,1.3,1.91,2.1l6.64,2.71Z"/>
    <path class="st0" d="M253.53,203.8c3.51,1.98,4.72,6.12,2.68,9.74-2.28,4.06-6.36,4.45-9.46,2.71-3.55-2-4.61-6.16-2.71-9.55,2.2-3.9,6.31-4.68,9.48-2.9ZM247.2,214.19c2.9,1.63,6.75,2.11,8.64-1.25,1.03-1.83,1.11-4.9-2.73-7.07-2.6-1.46-6.69-2.09-8.63,1.37-1.19,2.11-.73,5,2.73,6.95Z"/>
    <path class="st0" d="M234.43,226.77c-.47-.38-2.34-1.89-2.78-2.17-.07-.11-.07-.26.07-.44.42.03,1.33.02,3.99-.1l7.08-.3c.83-.03,2.97-.06,3.59-.11l.02-.03c-.14-.22-.48-.52-.96-.9l-3.42-2.76c-.74-.6-2.79-2.22-3.48-2.33-.25-.05-.6.19-.94.56l-.44.45c-.2,0-.38-.18-.37-.35.6-.68,1.06-1.22,1.53-1.8.53-.66.86-1.09,1.27-1.67.17-.05.4.12.42.29l-.29.46c-.24.4-.35.73-.24.95.39.67,2.31,2.2,3.07,2.81l4.54,3.65c.44.35.78.61,1.41.57.4-.04.81-.33,1.16-.67l.25-.24c.17-.02.4.17.37.35-.58.62-1.25,1.45-1.48,1.74-.2.25-.4.53-.54.76-1.05-.33-4.62-.15-5.61-.1l-2.94.14c-2.08.11-3.58.17-4.93.3l-.02.03c.03.13.28.33.61.6l3.36,2.71c.74.6,2.79,2.22,3.5,2.3.22.02.52-.15,1.1-.72l.25-.24c.19-.03.42.19.37.36-.61.7-1.06,1.22-1.54,1.81-.54.67-.86,1.09-1.26,1.65-.18.06-.4-.12-.42-.29l.15-.24c.32-.57.45-.98.38-1.15-.35-.72-2.32-2.26-3.04-2.84l-3.75-3.02Z"/>
    <path class="st0" d="M227.01,235.72c.4.23.5.22.95-.19l2.24-2.06c.37-.34.42-.47.24-.88l-.91-2.03c-.39-.87-.66-1.37-.81-1.53-.16-.18-.32-.2-.7.1l-.53.41c-.17.02-.39-.22-.31-.4.41-.33.87-.75,1.58-1.37.49-.45,1-.97,1.38-1.36.14-.02.39.19.37.34l-.45.49c-.33.36-.51.82-.22,1.55.36.93.83,2.28,1.74,4.51l2.17,5.4c.28.73.45,1.09.71,1.29-.26.43-.27.93-.25,1.28-.09.08-.22.15-.34.07-.79-.48-1.66-.94-2.48-1.39l-7.52-4.09c-1.61-.88-2-.92-2.71-.41l-.44.32c-.17.02-.36-.24-.34-.37.64-.53,1.17-.99,1.84-1.61.71-.66,1.25-1.2,1.67-1.61.17-.05.41.17.37.34l-.39.44c-.28.32-.41.6-.27.75.15.16.47.36.91.61l2.51,1.42ZM231.17,234.34c-.19-.45-.22-.45-.64-.07l-1.83,1.68c-.43.4-.4.48.1.76l3.03,1.68c.45.25.95.52,1.2.62l.03-.03c-.03-.12-.21-.61-.45-1.2l-1.44-3.44Z"/>
    <path class="st0" d="M224.04,245.43c1.22,1.72,1.45,1.96,2.54,1.31l.43-.26c.14,0,.32.31.26.45-.94.62-1.51,1-2.17,1.47-.64.46-1.19.87-1.99,1.48-.13.02-.38-.25-.32-.39l.37-.31c.91-.77.76-1.06-.47-2.78l-4.07-5.71c-.74-1.03-1.09-1.42-1.61-1.53-.31-.05-.76-.03-2.06.9-1.4,1-1.69,1.3-1.85,1.64-.19.43-.19,1.33.07,2.4-.04.15-.4.31-.48.2-.13-.18-.86-2.18-.95-2.79.86-.56,2.43-1.66,4.12-2.86l1.51-1.07c.69-.49,1.2-.88,2.1-1.57.13-.02.35.22.32.39l-.46.4c-.88.77-.75,1.03.48,2.75l4.21,5.91Z"/>
  </g>
  <path class="st0" d="M158.98,289.82c-72.15,0-130.84-58.69-130.84-130.84S86.84,28.14,158.98,28.14s130.84,58.69,130.84,130.84-58.69,130.84-130.84,130.84ZM158.98,31.92c-70.06,0-127.06,57-127.06,127.06s57,127.06,127.06,127.06,127.06-57,127.06-127.06S229.05,31.92,158.98,31.92Z"/>
  <g>
    <path class="st0" d="M213.46,142.67c2.09,1.23,3.63,3.22,3.77,5.71-2.46-.49-4.64-4.18-5.69-6.51.68.17,1.32.45,1.92.8h0ZM215.74,149.46c1.86,1.54,3.17,4.14,2.78,6.58-2.35-.92-3.96-5.28-4.56-7.68.64.28,1.24.65,1.78,1.1h0ZM216.72,156.69c1.64,2.04,2.39,4.79,1.59,7.32-1.84-1.26-2.53-4.16-2.89-6.31-.14-.82-.23-1.65-.29-2.48.6.41,1.13.9,1.59,1.46h0ZM216.3,164.13c1.24,2.18,1.59,5.23.29,7.46-2.03-1.71-1.91-6.63-1.63-9.2.53.51.98,1.1,1.34,1.74h0ZM214.53,171.11c.89,2.38.68,5.44-1.01,7.42-1.74-2.03-.78-6.86-.04-9.35.44.58.79,1.24,1.05,1.93h0ZM211.55,177.49c.51,2.72-.34,5.52-2.42,7.37-1.07-2.14-.13-5.02.66-7.13.3-.79.64-1.57,1.02-2.33.35.66.59,1.36.74,2.09h0ZM207.39,183.27c.03,2.72-1.37,5.63-3.79,6.99-.99-2.57,1.84-7.08,3.44-9.23.23.73.34,1.49.35,2.25h0ZM209.88,136.3c2.11.78,4.22,2.65,4.66,4.94-2.46-.09-5.3-3.39-6.65-5.39.68.06,1.35.22,1.99.45h0ZM207.31,131.11c1.02,1.7,2.75,3.98,4.69,4.66.07-2.83-3.05-5.62-5.71-6.62.3.67.64,1.33,1.02,1.96h0ZM217.39,140.85c-.3,2.47-.2,5,.96,7.23,1.71-1.54,1.24-5.01.62-6.93-.29-.87-.69-1.73-1.14-2.52-.21.73-.35,1.47-.44,2.22h0ZM220.19,148.34c-.79,2.29-1.22,5.27-.5,7.63,2.73-1.87,2.37-6.87,1.4-9.72-.36.67-.65,1.38-.9,2.1h0ZM221.56,156.41c-1.31,2.31-2.26,5.09-2.1,7.75,2.41-.93,3.3-4.33,3.49-6.7.08-1,.06-2.01-.06-3-.5.61-.94,1.27-1.33,1.95h0ZM221.37,164.81c-1.68,1.89-3.36,4.58-3.67,7.14,2.69-.4,4.1-3.48,4.84-5.77.29-.99.48-2.01.56-3.04-.62.5-1.2,1.07-1.73,1.66h0ZM219.63,172.84c-2.07,1.5-4.26,3.8-5.08,6.28,2.74.2,4.77-2.55,5.97-4.65.49-.92.87-1.89,1.16-2.88-.71.36-1.4.78-2.05,1.25h0ZM216.47,180.25c-2.56,1.16-4.95,2.97-6.43,5.37,2.66.76,5.45-1.67,6.99-3.54.67-.81,1.25-1.7,1.73-2.64-.79.2-1.55.48-2.29.81h0ZM211.9,187.07c-2.67.63-5.7,2.04-7.56,4.11,2.55,1.37,5.7-.57,7.69-2.11.86-.7,1.64-1.5,2.33-2.37-.83.05-1.66.18-2.47.37h0ZM213.18,133.92c.18,2.26.88,5.06,2.4,6.81,1.3-1.87.15-5.14-.86-6.88-.44-.76-.96-1.49-1.55-2.15-.05.74-.04,1.48.02,2.21h0Z"/>
    <path class="st0" d="M212.02,135.8c1.47,2.21,2.58,4.22,3.65,6.65,2.37,5.69,3.3,10.32,3.37,16.48-.21,8.09-1.87,14.04-5.96,21.02-4.21,6.58-8.58,10.73-15.38,14.57.1.18.2.37.3.56,6.88-3.92,11.31-8.15,15.54-14.86,4.09-7.08,5.73-13.11,5.86-21.29-.13-6.2-1.12-10.85-3.6-16.53-1.12-2.42-2.26-4.41-3.77-6.6h0Z"/>
    <path class="st0" d="M104.5,142.67c-2.09,1.23-3.63,3.22-3.77,5.71,2.46-.49,4.64-4.18,5.69-6.51-.67.17-1.32.45-1.92.8h0ZM102.23,149.46c-1.85,1.54-3.18,4.14-2.79,6.58,2.35-.92,3.96-5.28,4.57-7.68-.64.28-1.24.65-1.78,1.1h0ZM101.25,156.69c-1.64,2.04-2.4,4.79-1.59,7.32,1.84-1.26,2.53-4.16,2.89-6.31.14-.82.24-1.65.3-2.48-.6.41-1.13.9-1.6,1.46h0ZM101.66,164.13c-1.24,2.18-1.58,5.23-.29,7.46,2.03-1.71,1.91-6.63,1.63-9.2-.53.51-.98,1.1-1.34,1.74h0ZM103.44,171.11c-.89,2.38-.68,5.44,1.01,7.42,1.74-2.03.78-6.86.04-9.35-.44.58-.79,1.24-1.05,1.93h0ZM106.42,177.49c-.51,2.72.34,5.52,2.42,7.37,1.07-2.14.14-5.02-.66-7.13-.3-.79-.64-1.57-1.02-2.33-.35.66-.59,1.36-.73,2.09h0ZM110.58,183.27c-.03,2.72,1.37,5.63,3.79,6.99.99-2.57-1.84-7.08-3.43-9.23-.23.73-.34,1.49-.35,2.25h0ZM108.09,136.3c-2.11.78-4.22,2.65-4.66,4.94,2.47-.09,5.3-3.39,6.65-5.39-.68.06-1.35.22-1.99.45h0ZM110.66,131.11c-1.01,1.7-2.75,3.98-4.69,4.66-.06-2.83,3.05-5.62,5.71-6.62-.3.67-.65,1.33-1.02,1.96h0ZM100.58,140.85c.3,2.47.2,5-.96,7.23-1.71-1.54-1.25-5.01-.61-6.93.29-.87.69-1.73,1.14-2.52.2.73.35,1.47.44,2.22h0ZM97.77,148.34c.79,2.29,1.22,5.27.5,7.63-2.73-1.87-2.37-6.87-1.41-9.72.36.67.65,1.38.9,2.1h0ZM96.4,156.41c1.3,2.31,2.26,5.09,2.1,7.75-2.41-.93-3.3-4.33-3.49-6.7-.08-1-.06-2.01.07-3,.49.61.94,1.27,1.33,1.95h0ZM96.6,164.81c1.69,1.89,3.36,4.58,3.67,7.14-2.69-.4-4.1-3.48-4.84-5.77-.29-.99-.48-2.01-.56-3.04.62.5,1.2,1.07,1.73,1.66h0ZM98.34,172.84c2.07,1.5,4.26,3.8,5.08,6.28-2.74.2-4.76-2.55-5.96-4.65-.49-.92-.88-1.89-1.16-2.88.72.36,1.4.78,2.05,1.25h0ZM101.5,180.25c2.57,1.16,4.95,2.97,6.43,5.37-2.66.76-5.44-1.67-6.98-3.54-.67-.81-1.25-1.7-1.73-2.64.78.2,1.55.48,2.28.81h0ZM106.06,187.07c2.67.63,5.7,2.04,7.56,4.11-2.55,1.37-5.71-.57-7.7-2.11-.86-.7-1.64-1.5-2.33-2.37.83.05,1.66.18,2.47.37h0ZM104.79,133.92c-.18,2.26-.88,5.06-2.4,6.81-1.3-1.87-.15-5.14.86-6.88.44-.76.97-1.49,1.55-2.15.05.74.04,1.48-.02,2.21h0Z"/>
    <path class="st0" d="M105.95,135.8c-1.47,2.21-2.58,4.22-3.66,6.65-2.37,5.69-3.3,10.32-3.36,16.48.21,8.09,1.87,14.04,5.97,21.02,4.21,6.58,8.58,10.73,15.38,14.57-.1.18-.2.37-.31.56-6.88-3.92-11.31-8.15-15.53-14.86-4.09-7.08-5.73-13.11-5.86-21.29.13-6.2,1.12-10.85,3.6-16.53,1.11-2.42,2.25-4.41,3.77-6.6h0Z"/>
  </g>
  <path class="st0" d="M109.43,254.57c0,1.78,1.44,3.22,3.22,3.22s3.22-1.44,3.22-3.22-1.44-3.22-3.22-3.22-3.22,1.44-3.22,3.22Z"/>
  <path class="st0" d="M202.29,255.32c0,1.78,1.45,3.22,3.22,3.22s3.22-1.44,3.22-3.22-1.44-3.22-3.22-3.22-3.22,1.44-3.22,3.22Z"/>
  <g>
    <path class="st0" d="M130.32,254.69c.77-2.6.85-3.03-.57-3.58l-.6-.23c-.12-.14.06-.57.23-.6,1.21.41,2.04.68,3.07.99.98.29,1.82.51,3.06.83.13.12.04.57-.13.63l-.63-.13c-1.48-.3-1.66.1-2.43,2.7l-2.59,8.73c-.77,2.6-.82,2.96.57,3.56l.59.26c.12.14-.06.57-.23.6-1.21-.41-2.04-.68-3.02-.97-1.03-.31-1.87-.53-3.11-.84-.13-.12-.06-.52.13-.63l.64.11c1.5.26,1.65-.07,2.42-2.67l2.59-8.73Z"/>
    <path class="st0" d="M140.82,256.93c.21-1.78.15-2.33-.9-2.61l-.55-.14c-.19-.15-.16-.56.1-.63,2.18.13,4.24.29,6.4.55,2.13.25,3.92.62,5.5,1.42,3.29,1.65,4.67,4.75,4.28,8.11-.38,3.23-2.26,5.82-5.34,7.05-1.76.69-3.88.78-5.84.55-1.63-.19-3.23-.59-4.12-.69-1.07-.13-1.99-.21-3.19-.3-.14-.09-.15-.51.02-.64h.59c1.5-.04,1.59-.34,1.9-3.01l1.14-9.66ZM141.83,266.25c-.16,1.35-.18,2.17.18,2.83.47.85,1.4,1.22,3,1.41,4.93.58,7.52-2.39,8.08-7.12.33-2.79-.46-7.68-7.12-8.47-1.5-.17-2.34-.07-2.56.06-.22.13-.35.76-.48,1.9l-1.11,9.38Z"/>
    <path class="st0" d="M176.83,268.12c.1,1.02.32,1.61.79,1.75.08.07.1.22,0,.31-.3.03-.75.18-1.22.35-1.31.49-3.12.98-4.49,1.12-3.03.3-5.89-.26-8.05-2.05-1.68-1.38-2.69-3.31-2.92-5.55-.22-2.16.28-4.42,1.69-6.26,1.53-1.95,3.93-3.4,7.78-3.78,1.45-.14,2.83,0,3.27.06.49.05,1.3.15,1.6.07.08.84.37,2.15.75,3.65-.05.21-.51.28-.68.15-.99-2.68-2.98-3.35-5.58-3.09-4.94.49-6.75,4.22-6.37,8.04.49,4.89,3.39,8.48,8.51,7.97,1.58-.16,2.48-.58,2.72-1.04.11-.19.19-.66.11-1.48l-.1-1.02c-.21-2.14-.3-2.28-1.9-2.3h-1.13c-.21-.09-.23-.56-.06-.65.74-.02,2.14-.14,3.65-.29.99-.1,1.86-.21,2.69-.35.19.09.25.46.09.64l-.4.09c-1.06.23-1.01.95-.88,2.25l.14,1.43Z"/>
    <path class="st0" d="M188.14,264.1c.78,2.57.92,2.87,2.54,2.57l.69-.12c.19.08.26.51.13.63-1.41.37-2.23.59-3.21.88-1.03.31-1.9.6-2.96.98-.17-.03-.34-.41-.23-.6l.49-.23c1.36-.62,1.32-.93.55-3.5l-2.72-9.04c-.63-2.08-.8-2.48-1.94-2.28l-.91.17c-.22-.1-.3-.47-.13-.63,1.25-.56,2.76-1.05,4.79-1.66,2.03-.61,3.63-.8,5-.44,1.34.37,2.56,1.39,3.07,3.08.68,2.25-.38,3.8-1.28,4.63-.92.84-2.15,1.45-3.16,1.75-.19-.02-.3-.39-.17-.48,2.5-1.29,3-3.07,2.36-5.2-.71-2.38-2.58-3.5-5.12-2.73-1.3.39-1.29.49-1.06,1.28l3.29,10.93Z"/>
  </g>
</svg>