<?xml version="1.0" encoding="UTF-8"?>
<svg xmlns="http://www.w3.org/2000/svg" version="1.1" viewBox="0 0 470 676.97" fill="currentColor">
  <path d="M215.94,259.01c-33.57,0-65.28,8-93.33,22.19v-121.84c0-51.47,41.87-93.33,93.33-93.33s93.33,41.86,93.33,93.33v62.53c0,15.72,12.75,28.47,28.48,28.47s28.48-12.75,28.48-28.47v-62.53c0-82.87-67.42-150.28-150.28-150.28S65.66,76.49,65.66,159.36v164.27c-35.2,37.12-56.8,87.27-56.8,142.46,0,114.36,92.71,207.08,207.08,207.08s207.08-92.71,207.08-207.08-92.71-207.08-207.08-207.08ZM328.35,543.44l-30.67,26.68-22.07-20.61c-17.16,13.33-38.03,20.61-61.33,20.61-58.88,0-105.5-47.31-105.5-104.31s46.62-104.31,105.5-104.31,105.5,46.1,105.52,104.33c0,20.61-4.91,38.79-14.73,54.57l23.3,23.04h-.02Z"/>
  <path d="M215.51,400.32c-36.8,0-65.01,27.89-65.01,64.28s29.44,64.28,65.01,64.28c12.28,0,20.85-3.64,31.89-8.5l-33.12-32.75h61.84l-.51,1.21c3.68-8.47,4.91-15.75,4.91-24.25,0-36.39-28.21-64.28-65.01-64.28Z"/>
  <path d="M457.42,233.13l-46.28,16.01c-3.42,1.18-7.16-.63-8.34-4.05-.99-2.86.12-5.93,2.5-7.56l40.44-27.62c5.98-4.08,14.14-2.55,18.23,3.43,4.08,5.98,2.55,14.14-3.43,18.23-.97.66-2.06,1.19-3.11,1.56Z"/>
  <path d="M451.89,293.14l-46.87-14.21c-3.47-1.05-5.42-4.71-4.37-8.18.88-2.89,3.58-4.73,6.46-4.65l48.95,1.38c7.24.2,12.95,6.24,12.74,13.48-.2,7.24-6.24,12.95-13.48,12.74-1.17-.03-2.36-.24-3.43-.56Z"/>
  <path d="M430.79,339.28l-37.17-31.89c-2.75-2.36-3.07-6.5-.71-9.25,1.97-2.29,5.18-2.89,7.79-1.65l44.25,20.99c6.55,3.11,9.33,10.93,6.23,17.47-3.1,6.55-10.93,9.33-17.47,6.23-1.06-.5-2.07-1.17-2.92-1.9Z"/>
</svg>