<svg viewBox="0 0 30 32" fill="currentColor" xmlns="http://www.w3.org/2000/svg">
<path d="M29.391,7.841c-0.026-0.27-0.12-0.527-0.274-0.75c-0.153-0.223-0.361-0.402-0.602-0.523L15.716,0.169 C15.494,0.058,15.247,0,14.999,0s-0.494,0.058-0.716,0.169L1.484,6.568C1.244,6.69,1.037,6.87,0.883,7.092 C0.731,7.314,0.637,7.572,0.609,7.841C0.592,8.012-0.928,25.066,14.35,31.861C14.555,31.951,14.776,32,15,32 c0.225,0,0.445-0.049,0.65-0.139C30.928,25.066,29.408,8.013,29.391,7.841z M15,28.633C4.17,23.399,3.659,12.227,3.747,9.016 L15,3.39l11.246,5.624C26.305,12.195,25.721,23.439,15,28.633z"/>
<path d="M13.4,16.938l-3.668-3.668L7.47,15.53l5.931,5.932l9.13-9.13l-2.262-2.262L13.4,16.938z"/>
</svg>
