<?xml version="1.0" encoding="utf-8"?>
<svg version="1.1" xmlns="http://www.w3.org/2000/svg" xmlns:xlink="http://www.w3.org/1999/xlink" viewBox="0 0 20 20">
<path fill="#FFFFFF" d="M18.05,15.125c1.077,0,1.95-0.873,1.95-1.95V2.45c0-1.077-0.873-1.95-1.95-1.95H7.773
	C8.115,1.095,8.3,1.768,8.3,2.45h9.75v10.725H9.275v1.95 M13.175,5.375v1.95h-5.85V20h-1.95v-5.85h-1.95V20h-1.95v-7.8H0.013V7.325
	c0-1.077,0.874-1.95,1.951-1.95H13.175 M6.35,2.45c0,1.077-0.873,1.95-1.95,1.95c-1.077,0-1.95-0.873-1.95-1.95
	c0-1.077,0.874-1.95,1.95-1.95C5.478,0.5,6.35,1.374,6.35,2.45z"/>
</svg>
