<svg width="64" height="50" viewBox="0 0 64 50" fill="none" xmlns="http://www.w3.org/2000/svg">
<path d="M62.7872 16.5104C63.2748 16.1067 63.9996 16.4842 63.9996 17.1225V43.75C63.9996 47.2004 61.312 50 57.9996 50H5.99996C2.68758 50 0 47.2004 0 43.75V17.1354C0 16.4842 0.712395 16.1196 1.21239 16.5233C4.01237 18.7892 7.72475 21.6667 20.4747 31.315C23.1123 33.3204 27.5622 37.5392 31.9998 37.5129C36.4622 37.5521 40.9997 33.2421 43.5373 31.315C56.2872 21.6667 59.9872 18.7762 62.7872 16.5104ZM31.9998 33.3333C34.8998 33.3854 39.075 29.5312 41.1749 27.9425C57.7624 15.4033 59.0248 14.3096 62.85 11.1846C63.5752 10.5987 64 9.68708 64 8.72375V6.25C64 2.79958 61.3124 0 58 0H5.99996C2.68758 0 0 2.79958 0 6.25V8.72417C0 9.68792 0.425197 10.5863 1.14999 11.185C4.97517 14.2971 6.23756 15.4038 22.8251 27.9429C24.925 29.5312 29.0998 33.3854 31.9998 33.3333Z" fill="#E81E4D"/>
</svg>
